<svg id="Capa_1" data-name="Capa 1" xmlns="http://www.w3.org/2000/svg" xmlns:xlink="http://www.w3.org/1999/xlink" viewBox="0 0 1922.51 940.83"><defs><style>.cls-1{fill:none;}.cls-2{clip-path:url(#clip-path);}.cls-3{fill:url(#Degradado_sin_nombre);}.cls-4{fill:#ffb497;}.cls-5{fill:url(#Degradado_sin_nombre_2);}.cls-6{fill:url(#Degradado_sin_nombre_3);}.cls-12,.cls-19,.cls-7,.cls-95,.cls-96{opacity:0.53;}.cls-101,.cls-102,.cls-103,.cls-105,.cls-106,.cls-109,.cls-110,.cls-111,.cls-113,.cls-115,.cls-116,.cls-117,.cls-12,.cls-16,.cls-17,.cls-19,.cls-32,.cls-35,.cls-36,.cls-7,.cls-8,.cls-95,.cls-96,.cls-98{isolation:isolate;}.cls-7{fill:url(#Degradado_sin_nombre_4);}.cls-17,.cls-36,.cls-8{fill:#b2261b;}.cls-8{opacity:0.52;}.cls-9{fill:url(#Degradado_sin_nombre_5);}.cls-10{fill:url(#Degradado_sin_nombre_6);}.cls-11{fill:url(#Degradado_sin_nombre_7);}.cls-12{fill:url(#Degradado_sin_nombre_8);}.cls-13{fill:url(#Degradado_sin_nombre_9);}.cls-14{fill:#4f122e;}.cls-15{fill:url(#Degradado_sin_nombre_10);}.cls-116,.cls-117,.cls-16,.cls-32,.cls-35{opacity:0.19;}.cls-16{fill:url(#Degradado_sin_nombre_11);}.cls-17{opacity:0.66;}.cls-18{fill:url(#Degradado_sin_nombre_12);}.cls-19{fill:url(#Degradado_sin_nombre_13);}.cls-20{fill:url(#Degradado_sin_nombre_14);}.cls-21{fill:url(#Degradado_sin_nombre_15);}.cls-22{fill:url(#Degradado_sin_nombre_16);}.cls-23{fill:#fff;}.cls-24{fill:url(#Degradado_sin_nombre_17);}.cls-25{fill:url(#Degradado_sin_nombre_18);}.cls-26{fill:url(#Degradado_sin_nombre_19);}.cls-27{fill:url(#Degradado_sin_nombre_20);}.cls-28{fill:url(#Degradado_sin_nombre_21);}.cls-29{fill:url(#Degradado_sin_nombre_33);}.cls-30{fill:url(#Degradado_sin_nombre_35);}.cls-31{fill:url(#Degradado_sin_nombre_36);}.cls-32{fill:url(#Degradado_sin_nombre_37);}.cls-33{fill:url(#Degradado_sin_nombre_38);}.cls-34{fill:url(#Degradado_sin_nombre_39);}.cls-35{fill:url(#Degradado_sin_nombre_40);}.cls-36{opacity:0.12;}.cls-37{opacity:0.24;}.cls-38{fill:#3298a0;}.cls-39{opacity:0.14;}.cls-40{opacity:0.16;}.cls-41{fill:url(#Degradado_sin_nombre_43);}.cls-42{fill:url(#Degradado_sin_nombre_44);}.cls-43{fill:url(#Degradado_sin_nombre_45);}.cls-44{fill:url(#Degradado_sin_nombre_46);}.cls-45{fill:url(#Degradado_sin_nombre_47);}.cls-46{fill:url(#Degradado_sin_nombre_48);}.cls-47{fill:url(#Degradado_sin_nombre_49);}.cls-48{fill:url(#Degradado_sin_nombre_50);}.cls-49{fill:url(#Degradado_sin_nombre_51);}.cls-50{fill:url(#Degradado_sin_nombre_52);}.cls-51{fill:url(#Degradado_sin_nombre_53);}.cls-52{fill:url(#Degradado_sin_nombre_54);}.cls-53{fill:url(#Degradado_sin_nombre_55);}.cls-54{fill:url(#Degradado_sin_nombre_57);}.cls-55{fill:url(#Degradado_sin_nombre_58);}.cls-56{fill:url(#Degradado_sin_nombre_59);}.cls-57{fill:url(#Degradado_sin_nombre_60);}.cls-58{fill:url(#Degradado_sin_nombre_61);}.cls-59{fill:url(#Degradado_sin_nombre_62);}.cls-60{fill:url(#Degradado_sin_nombre_63);}.cls-61{fill:url(#Degradado_sin_nombre_64);}.cls-62{fill:url(#Degradado_sin_nombre_65);}.cls-63{fill:url(#Degradado_sin_nombre_66);}.cls-64{fill:url(#Degradado_sin_nombre_67);}.cls-65{fill:url(#Degradado_sin_nombre_68);}.cls-66{fill:url(#Degradado_sin_nombre_69);}.cls-67{fill:url(#Degradado_sin_nombre_70);}.cls-68{fill:url(#Degradado_sin_nombre_71);}.cls-69{fill:url(#Degradado_sin_nombre_72);}.cls-70{fill:url(#Degradado_sin_nombre_73);}.cls-71{fill:url(#Degradado_sin_nombre_74);}.cls-72{fill:url(#Degradado_sin_nombre_75);}.cls-73{fill:url(#Degradado_sin_nombre_76);}.cls-74{fill:url(#Degradado_sin_nombre_77);}.cls-75{fill:url(#Degradado_sin_nombre_78);}.cls-76{fill:url(#Degradado_sin_nombre_79);}.cls-77{fill:url(#Degradado_sin_nombre_80);}.cls-78{fill:url(#Degradado_sin_nombre_81);}.cls-79{fill:url(#Degradado_sin_nombre_82);}.cls-80{fill:url(#Degradado_sin_nombre_83);}.cls-81{fill:url(#Degradado_sin_nombre_84);}.cls-82{fill:url(#Degradado_sin_nombre_85);}.cls-83{fill:url(#Degradado_sin_nombre_86);}.cls-84{fill:url(#Degradado_sin_nombre_87);}.cls-85{fill:url(#Degradado_sin_nombre_88);}.cls-86{fill:url(#Degradado_sin_nombre_89);}.cls-87{fill:url(#Degradado_sin_nombre_90);}.cls-88{fill:url(#Degradado_sin_nombre_91);}.cls-89{fill:url(#Degradado_sin_nombre_92);}.cls-90{fill:url(#Degradado_sin_nombre_93);}.cls-91{fill:url(#Degradado_sin_nombre_94);}.cls-92{fill:url(#Degradado_sin_nombre_95);}.cls-93{opacity:0.2;}.cls-94{fill:url(#Degradado_sin_nombre_96);}.cls-95{fill:url(#Degradado_sin_nombre_97);}.cls-96{fill:url(#Degradado_sin_nombre_98);}.cls-97{fill:url(#Degradado_sin_nombre_99);}.cls-98{fill:#6d75c9;opacity:0.39;}.cls-99{fill:url(#Degradado_sin_nombre_100);}.cls-100{fill:url(#Degradado_sin_nombre_101);}.cls-101{fill:#624ccc;opacity:0.36;}.cls-102,.cls-103,.cls-105,.cls-106{opacity:0.76;}.cls-102{fill:url(#Degradado_sin_nombre_102);}.cls-103{fill:url(#Degradado_sin_nombre_103);}.cls-104{opacity:0.75;}.cls-105{fill:url(#Degradado_sin_nombre_104);}.cls-106{fill:url(#Degradado_sin_nombre_105);}.cls-107{fill:url(#Degradado_sin_nombre_106);}.cls-108{fill:url(#Degradado_sin_nombre_107);}.cls-109,.cls-110{opacity:0.22;}.cls-109{fill:url(#Degradado_sin_nombre_108);}.cls-110{fill:url(#Degradado_sin_nombre_109);}.cls-111,.cls-113{opacity:0.44;}.cls-111{fill:url(#Degradado_sin_nombre_110);}.cls-112{fill:url(#Degradado_sin_nombre_111);}.cls-113{fill:url(#Degradado_sin_nombre_115);}.cls-114{fill:url(#Degradado_sin_nombre_116);}.cls-115{opacity:0.87;fill:url(#Degradado_sin_nombre_117);}.cls-116{fill:url(#Degradado_sin_nombre_121);}.cls-117{fill:url(#Degradado_sin_nombre_122);}</style><clipPath id="clip-path"><rect class="cls-1" x="-4.94" y="-170.4" width="1932.39" height="1148.52"/></clipPath><linearGradient id="Degradado_sin_nombre" x1="946.43" y1="1242.07" x2="993.59" y2="383.22" gradientTransform="matrix(1, 0, 0, -1, 0, 942)" gradientUnits="userSpaceOnUse"><stop offset="0" stop-color="#c94c31"/><stop offset="0.11" stop-color="#d0583b"/><stop offset="0.49" stop-color="#e7805c"/><stop offset="0.8" stop-color="#f69970"/><stop offset="0.99" stop-color="#fba277"/></linearGradient><linearGradient id="Degradado_sin_nombre_2" x1="1033.32" y1="-57.06" x2="1047.99" y2="526.49" gradientTransform="matrix(1, 0, 0, -1, 0, 942)" gradientUnits="userSpaceOnUse"><stop offset="0" stop-color="#4e7998"/><stop offset="1" stop-color="#58e3f7"/></linearGradient><linearGradient id="Degradado_sin_nombre_3" x1="1231.42" y1="603.97" x2="1373.74" y2="615.86" gradientTransform="translate(2749.52 942) rotate(180)" gradientUnits="userSpaceOnUse"><stop offset="0" stop-color="#631f3b"/><stop offset="1" stop-color="#7c3b33"/></linearGradient><linearGradient id="Degradado_sin_nombre_4" x1="1341.49" y1="657.74" x2="1313.16" y2="584.23" gradientTransform="translate(2749.52 942) rotate(180)" gradientUnits="userSpaceOnUse"><stop offset="0" stop-color="#ff5946"/><stop offset="1"/></linearGradient><linearGradient id="Degradado_sin_nombre_5" x1="369.17" y1="479.04" x2="384.24" y2="204.67" gradientTransform="matrix(1, 0, 0, -1, 0, 942)" gradientUnits="userSpaceOnUse"><stop offset="0" stop-color="#7c3b33"/><stop offset="1" stop-color="#631f3b"/></linearGradient><linearGradient id="Degradado_sin_nombre_6" x1="-60.81" y1="476.53" x2="-45.85" y2="204.14" gradientTransform="translate(1502.33 942) rotate(180)" xlink:href="#Degradado_sin_nombre_5"/><linearGradient id="Degradado_sin_nombre_7" x1="281.38" y1="610.16" x2="488.8" y2="627.48" gradientTransform="matrix(1, 0, 0, -1, 0, 942)" xlink:href="#Degradado_sin_nombre_3"/><linearGradient id="Degradado_sin_nombre_8" x1="440.01" y1="689.21" x2="398.73" y2="582.07" gradientTransform="matrix(1, 0, 0, -1, 0, 942)" xlink:href="#Degradado_sin_nombre_4"/><linearGradient id="Degradado_sin_nombre_9" x1="163.46" y1="787.95" x2="250.57" y2="205.12" xlink:href="#Degradado_sin_nombre_5"/><linearGradient id="Degradado_sin_nombre_10" x1="413.62" y1="70.49" x2="349.26" y2="87.51" gradientTransform="matrix(1, 0, 0, -1, 0, 942)" gradientUnits="userSpaceOnUse"><stop offset="0" stop-color="#757da2"/><stop offset="1" stop-color="#58e3f7"/></linearGradient><linearGradient id="Degradado_sin_nombre_11" x1="85.86" y1="252.36" x2="381" y2="64.63" gradientTransform="matrix(1, 0, 0, -1, 0, 942)" gradientUnits="userSpaceOnUse"><stop offset="0" stop-color="#45ffff"/><stop offset="1"/></linearGradient><linearGradient id="Degradado_sin_nombre_12" x1="598.57" y1="617.53" x2="705.91" y2="626.49" gradientTransform="matrix(1, 0, 0, -1, 0, 942)" xlink:href="#Degradado_sin_nombre_3"/><linearGradient id="Degradado_sin_nombre_13" x1="680.66" y1="658.44" x2="659.29" y2="603" gradientTransform="matrix(1, 0, 0, -1, 0, 942)" xlink:href="#Degradado_sin_nombre_4"/><linearGradient id="Degradado_sin_nombre_14" x1="746.29" y1="676.79" x2="777.49" y2="468.08" xlink:href="#Degradado_sin_nombre_5"/><linearGradient id="Degradado_sin_nombre_15" x1="835.88" y1="419.88" x2="812.84" y2="425.97" xlink:href="#Degradado_sin_nombre_10"/><linearGradient id="Degradado_sin_nombre_16" x1="980.11" y1="448.05" x2="972.75" y2="549.78" gradientTransform="matrix(1, 0, 0, -1, 0, 942)" gradientUnits="userSpaceOnUse"><stop offset="0" stop-color="#c43c2b"/><stop offset="1" stop-color="#ab1553"/></linearGradient><linearGradient id="Degradado_sin_nombre_17" x1="881.36" y1="615.51" x2="890.73" y2="615.51" xlink:href="#Degradado_sin_nombre_16"/><linearGradient id="Degradado_sin_nombre_18" x1="863.37" y1="613.11" x2="872.74" y2="613.11" gradientTransform="translate(1899.92 942) rotate(180)" xlink:href="#Degradado_sin_nombre_16"/><linearGradient id="Degradado_sin_nombre_19" x1="941.76" y1="613.78" x2="951.11" y2="613.78" gradientTransform="matrix(1, 0.03, 0.03, -1, -0.64, 916.84)" xlink:href="#Degradado_sin_nombre_16"/><linearGradient id="Degradado_sin_nombre_20" x1="1082.14" y1="672.67" x2="846.8" y2="672.67" xlink:href="#Degradado_sin_nombre_16"/><linearGradient id="Degradado_sin_nombre_21" x1="1080.22" y1="550.21" x2="850.23" y2="550.21" xlink:href="#Degradado_sin_nombre_16"/><linearGradient id="Degradado_sin_nombre_33" x1="986.4" y1="1088.44" x2="977.36" y2="763.18" gradientTransform="matrix(1, 0, 0, -1, 0, 942)" gradientUnits="userSpaceOnUse"><stop offset="0" stop-color="#ffe3d8"/><stop offset="1" stop-color="#d9d4f7"/></linearGradient><linearGradient id="Degradado_sin_nombre_35" x1="976.95" y1="787.48" x2="1064.06" y2="204.65" gradientTransform="translate(2749.52 942) rotate(180)" xlink:href="#Degradado_sin_nombre_5"/><linearGradient id="Degradado_sin_nombre_36" x1="1227.12" y1="70.02" x2="1162.76" y2="87.04" gradientTransform="translate(2749.52 942) rotate(180)" xlink:href="#Degradado_sin_nombre_10"/><linearGradient id="Degradado_sin_nombre_37" x1="1819.16" y1="232.98" x2="1557.14" y2="55.29" xlink:href="#Degradado_sin_nombre_11"/><linearGradient id="Degradado_sin_nombre_38" x1="1429.52" y1="687.56" x2="1471.32" y2="407.87" gradientTransform="translate(2749.52 942) rotate(180)" xlink:href="#Degradado_sin_nombre_5"/><linearGradient id="Degradado_sin_nombre_39" x1="1549.56" y1="343.25" x2="1518.68" y2="351.42" gradientTransform="translate(2749.52 942) rotate(180)" xlink:href="#Degradado_sin_nombre_10"/><linearGradient id="Degradado_sin_nombre_40" x1="1409.32" y1="404.46" x2="1504.1" y2="350.1" gradientTransform="translate(2749.52 942) rotate(180)" xlink:href="#Degradado_sin_nombre_11"/><linearGradient id="Degradado_sin_nombre_43" x1="557.72" y1="439.27" x2="541.63" y2="128.51" xlink:href="#Degradado_sin_nombre_11"/><linearGradient id="Degradado_sin_nombre_44" x1="537.98" y1="442.58" x2="521.71" y2="128.55" xlink:href="#Degradado_sin_nombre_11"/><linearGradient id="Degradado_sin_nombre_45" x1="523.83" y1="448.35" x2="507.2" y2="127.19" xlink:href="#Degradado_sin_nombre_11"/><linearGradient id="Degradado_sin_nombre_46" x1="612.17" y1="425.82" x2="596.8" y2="129.03" xlink:href="#Degradado_sin_nombre_11"/><linearGradient id="Degradado_sin_nombre_47" x1="533.94" y1="441.48" x2="517.84" y2="130.67" xlink:href="#Degradado_sin_nombre_11"/><linearGradient id="Degradado_sin_nombre_48" x1="676.09" y1="413.98" x2="661.47" y2="131.65" xlink:href="#Degradado_sin_nombre_11"/><linearGradient id="Degradado_sin_nombre_49" x1="713.88" y1="415.01" x2="698.98" y2="127.33" xlink:href="#Degradado_sin_nombre_11"/><linearGradient id="Degradado_sin_nombre_50" x1="741.36" y1="422.15" x2="725.6" y2="117.79" xlink:href="#Degradado_sin_nombre_11"/><linearGradient id="Degradado_sin_nombre_51" x1="720.56" y1="410.24" x2="705.93" y2="127.78" xlink:href="#Degradado_sin_nombre_11"/><linearGradient id="Degradado_sin_nombre_52" x1="617.42" y1="423.41" x2="602.08" y2="127.27" xlink:href="#Degradado_sin_nombre_11"/><linearGradient id="Degradado_sin_nombre_53" x1="632.31" y1="426.74" x2="616.5" y2="121.45" xlink:href="#Degradado_sin_nombre_11"/><linearGradient id="Degradado_sin_nombre_54" x1="668.68" y1="425.6" x2="652.75" y2="118.03" xlink:href="#Degradado_sin_nombre_11"/><linearGradient id="Degradado_sin_nombre_55" x1="649.42" y1="443.86" x2="632.29" y2="113.17" xlink:href="#Degradado_sin_nombre_11"/><linearGradient id="Degradado_sin_nombre_57" x1="907.45" y1="412.3" x2="891.35" y2="101.54" xlink:href="#Degradado_sin_nombre_11"/><linearGradient id="Degradado_sin_nombre_58" x1="887.68" y1="415.23" x2="871.42" y2="101.21" xlink:href="#Degradado_sin_nombre_11"/><linearGradient id="Degradado_sin_nombre_59" x1="873.49" y1="420.16" x2="856.86" y2="99.03" xlink:href="#Degradado_sin_nombre_11"/><linearGradient id="Degradado_sin_nombre_60" x1="961.98" y1="400.48" x2="946.61" y2="103.67" xlink:href="#Degradado_sin_nombre_11"/><linearGradient id="Degradado_sin_nombre_61" x1="883.66" y1="414.49" x2="867.56" y2="103.71" xlink:href="#Degradado_sin_nombre_11"/><linearGradient id="Degradado_sin_nombre_62" x1="1025.97" y1="390.31" x2="1011.34" y2="107.97" xlink:href="#Degradado_sin_nombre_11"/><linearGradient id="Degradado_sin_nombre_63" x1="1063.72" y1="390.7" x2="1048.82" y2="103.05" xlink:href="#Degradado_sin_nombre_11"/><linearGradient id="Degradado_sin_nombre_64" x1="1091.12" y1="395.92" x2="1075.36" y2="91.58" xlink:href="#Degradado_sin_nombre_11"/><linearGradient id="Degradado_sin_nombre_65" x1="1070.46" y1="386.51" x2="1055.83" y2="104.14" xlink:href="#Degradado_sin_nombre_11"/><linearGradient id="Degradado_sin_nombre_66" x1="967.23" y1="398.14" x2="951.89" y2="102" xlink:href="#Degradado_sin_nombre_11"/><linearGradient id="Degradado_sin_nombre_67" x1="982.08" y1="400.41" x2="966.26" y2="95.11" xlink:href="#Degradado_sin_nombre_11"/><linearGradient id="Degradado_sin_nombre_68" x1="1018.43" y1="399" x2="1002.5" y2="91.43" xlink:href="#Degradado_sin_nombre_11"/><linearGradient id="Degradado_sin_nombre_69" x1="999.02" y1="414.58" x2="981.89" y2="83.9" xlink:href="#Degradado_sin_nombre_11"/><linearGradient id="Degradado_sin_nombre_70" x1="835.78" y1="417.1" x2="819.68" y2="106.35" xlink:href="#Degradado_sin_nombre_11"/><linearGradient id="Degradado_sin_nombre_71" x1="816.01" y1="420.2" x2="799.75" y2="106.17" xlink:href="#Degradado_sin_nombre_11"/><linearGradient id="Degradado_sin_nombre_72" x1="801.83" y1="425.5" x2="785.2" y2="104.34" xlink:href="#Degradado_sin_nombre_11"/><linearGradient id="Degradado_sin_nombre_73" x1="890.26" y1="404.57" x2="874.89" y2="107.78" xlink:href="#Degradado_sin_nombre_11"/><linearGradient id="Degradado_sin_nombre_74" x1="811.98" y1="419.32" x2="795.88" y2="108.5" xlink:href="#Degradado_sin_nombre_11"/><linearGradient id="Degradado_sin_nombre_75" x1="954.23" y1="393.68" x2="939.61" y2="111.34" xlink:href="#Degradado_sin_nombre_11"/><linearGradient id="Degradado_sin_nombre_76" x1="992" y1="394.34" x2="977.1" y2="106.69" xlink:href="#Degradado_sin_nombre_11"/><linearGradient id="Degradado_sin_nombre_77" x1="1019.42" y1="400.4" x2="1003.66" y2="96.05" xlink:href="#Degradado_sin_nombre_11"/><linearGradient id="Degradado_sin_nombre_78" x1="998.69" y1="389.89" x2="984.07" y2="107.52" xlink:href="#Degradado_sin_nombre_11"/><linearGradient id="Degradado_sin_nombre_79" x1="895.51" y1="402.2" x2="880.17" y2="106.07" xlink:href="#Degradado_sin_nombre_11"/><linearGradient id="Degradado_sin_nombre_80" x1="910.37" y1="404.88" x2="894.56" y2="99.67" xlink:href="#Degradado_sin_nombre_11"/><linearGradient id="Degradado_sin_nombre_81" x1="946.74" y1="403.65" x2="930.81" y2="96.07" xlink:href="#Degradado_sin_nombre_11"/><linearGradient id="Degradado_sin_nombre_82" x1="927.39" y1="420.39" x2="910.26" y2="89.7" xlink:href="#Degradado_sin_nombre_11"/><linearGradient id="Degradado_sin_nombre_83" x1="1185.49" y1="390.14" x2="1169.39" y2="79.38" xlink:href="#Degradado_sin_nombre_11"/><linearGradient id="Degradado_sin_nombre_84" x1="1165.71" y1="392.84" x2="1149.45" y2="78.83" xlink:href="#Degradado_sin_nombre_11"/><linearGradient id="Degradado_sin_nombre_85" x1="1151.5" y1="397.31" x2="1134.87" y2="76.19" xlink:href="#Degradado_sin_nombre_11"/><linearGradient id="Degradado_sin_nombre_86" x1="1240.07" y1="379.23" x2="1224.7" y2="82.42" xlink:href="#Degradado_sin_nombre_11"/><linearGradient id="Degradado_sin_nombre_87" x1="1161.7" y1="392.33" x2="1145.6" y2="81.53" xlink:href="#Degradado_sin_nombre_11"/><linearGradient id="Degradado_sin_nombre_88" x1="1304.11" y1="370.01" x2="1289.48" y2="87.67" xlink:href="#Degradado_sin_nombre_11"/><linearGradient id="Degradado_sin_nombre_89" x1="1341.87" y1="370.07" x2="1326.97" y2="82.38" xlink:href="#Degradado_sin_nombre_11"/><linearGradient id="Degradado_sin_nombre_90" x1="1369.19" y1="374.18" x2="1353.42" y2="69.82" xlink:href="#Degradado_sin_nombre_11"/><linearGradient id="Degradado_sin_nombre_91" x1="1348.57" y1="366.21" x2="1333.94" y2="83.84" xlink:href="#Degradado_sin_nombre_11"/><linearGradient id="Degradado_sin_nombre_92" x1="1245.31" y1="376.93" x2="1229.97" y2="80.8" xlink:href="#Degradado_sin_nombre_11"/><linearGradient id="Degradado_sin_nombre_93" x1="1260.14" y1="378.6" x2="1244.32" y2="73.31" xlink:href="#Degradado_sin_nombre_11"/><linearGradient id="Degradado_sin_nombre_94" x1="1296.48" y1="377.06" x2="1280.55" y2="69.46" xlink:href="#Degradado_sin_nombre_11"/><linearGradient id="Degradado_sin_nombre_95" x1="1276.99" y1="391.1" x2="1259.87" y2="60.43" xlink:href="#Degradado_sin_nombre_11"/><linearGradient id="Degradado_sin_nombre_96" x1="497.66" y1="378.99" x2="573.52" y2="686.92" gradientTransform="matrix(1, 0, 0, -1, 0, 942)" xlink:href="#Degradado_sin_nombre_3"/><linearGradient id="Degradado_sin_nombre_97" x1="592.77" y1="812.55" x2="526.3" y2="689.76" gradientTransform="matrix(1, 0, 0, -1, 0, 942)" xlink:href="#Degradado_sin_nombre_4"/><linearGradient id="Degradado_sin_nombre_98" x1="745.38" y1="477.12" x2="526.83" y2="595.98" gradientTransform="matrix(1, 0, 0, -1, 0, 942)" xlink:href="#Degradado_sin_nombre_4"/><linearGradient id="Degradado_sin_nombre_99" x1="514.83" y1="620.12" x2="554.82" y2="766.01" gradientTransform="matrix(1, 0, 0, -1, 0, 942)" gradientUnits="userSpaceOnUse"><stop offset="0" stop-color="#d9d4f7"/><stop offset="1" stop-color="#ffe3d8"/></linearGradient><linearGradient id="Degradado_sin_nombre_100" x1="582.46" y1="632.58" x2="613.78" y2="746.83" xlink:href="#Degradado_sin_nombre_99"/><linearGradient id="Degradado_sin_nombre_101" x1="525.22" y1="419.75" x2="599.25" y2="689.8" xlink:href="#Degradado_sin_nombre_99"/><linearGradient id="Degradado_sin_nombre_102" x1="951.38" y1="997.01" x2="957.83" y2="747.35" gradientTransform="matrix(1, 0, 0, -1, 0, 942)" gradientUnits="userSpaceOnUse"><stop offset="0" stop-color="#ffec46"/><stop offset="1"/></linearGradient><linearGradient id="Degradado_sin_nombre_103" x1="959.74" y1="870.72" x2="963.98" y2="706.72" xlink:href="#Degradado_sin_nombre_102"/><linearGradient id="Degradado_sin_nombre_104" x1="966.46" y1="794.28" x2="969.34" y2="682.84" xlink:href="#Degradado_sin_nombre_102"/><linearGradient id="Degradado_sin_nombre_105" x1="962.51" y1="754.28" x2="964.82" y2="664.95" xlink:href="#Degradado_sin_nombre_102"/><linearGradient id="Degradado_sin_nombre_106" x1="87.18" y1="1088.78" x2="854.74" y2="697.31" xlink:href="#Degradado_sin_nombre_16"/><linearGradient id="Degradado_sin_nombre_107" x1="1846.98" y1="1088.63" x2="1206.99" y2="747.74" xlink:href="#Degradado_sin_nombre_16"/><linearGradient id="Degradado_sin_nombre_108" x1="305.38" y1="859.79" x2="534.87" y2="939.68" gradientTransform="matrix(1, 0, 0, -1, 0, 942)" gradientUnits="userSpaceOnUse"><stop offset="0" stop-color="#8840a9"/><stop offset="1" stop-color="#ffddce"/></linearGradient><linearGradient id="Degradado_sin_nombre_109" x1="1945.08" y1="1024.66" x2="1287.99" y2="893.6" xlink:href="#Degradado_sin_nombre_108"/><linearGradient id="Degradado_sin_nombre_110" x1="963.37" y1="1134.01" x2="967.17" y2="950.03" gradientTransform="matrix(1, 0, 0, -1, 0, 942)" gradientUnits="userSpaceOnUse"><stop offset="0" stop-color="#ffddce"/><stop offset="1" stop-color="#8840a9"/></linearGradient><linearGradient id="Degradado_sin_nombre_111" x1="969.78" y1="858.45" x2="951.2" y2="1177.19" gradientTransform="matrix(1, 0, 0, -1, 0, 942)" gradientUnits="userSpaceOnUse"><stop offset="0" stop-color="#ffb69a"/><stop offset="1" stop-color="#ffe3d0"/></linearGradient><linearGradient id="Degradado_sin_nombre_115" x1="969.47" y1="865.94" x2="966.45" y2="755.52" xlink:href="#Degradado_sin_nombre_110"/><linearGradient id="Degradado_sin_nombre_116" x1="971.97" y1="731.98" x2="962.93" y2="887.02" xlink:href="#Degradado_sin_nombre_111"/><linearGradient id="Degradado_sin_nombre_117" x1="962.2" y1="865.85" x2="977.96" y2="739.77" xlink:href="#Degradado_sin_nombre_102"/><linearGradient id="Degradado_sin_nombre_121" x1="938.66" y1="-198.02" x2="976.81" y2="360.15" xlink:href="#Degradado_sin_nombre_11"/><linearGradient id="Degradado_sin_nombre_122" x1="961.26" y1="237.65" x2="977.77" y2="479.14" xlink:href="#Degradado_sin_nombre_11"/></defs><g id="Capa_8" data-name="Capa 8"><g class="cls-2"><polygon class="cls-3" points="1929.38 1071.52 -10.35 1071.52 -31.88 -174.37 1984.65 -188.56 1929.38 1071.52"/><polygon class="cls-4" points="821.3 463.39 821.3 242.86 1106.91 242.86 1106.91 465.38 821.3 463.39"/><polygon class="cls-5" points="2282.09 1070.69 1106.91 465.38 1106.91 420.93 821.47 420.93 821.47 463.12 -217.94 1026.66 2282.09 1070.69"/><polygon class="cls-6" points="1460.66 310.45 1462.84 356.2 1392.54 343.64 1392.54 314.78 1460.66 310.45"/><polygon class="cls-7" points="1453.92 315.08 1396.82 318.69 1396.09 341.52 1454.6 349.58 1453.92 315.08"/><polygon class="cls-8" points="1460.66 310.45 1464.71 313.82 1468.81 365.11 1397.23 349.58 1395.04 334.07 1460.66 310.45"/><polygon class="cls-9" points="-46.9 903.18 821.3 461.13 823.84 463.12 -59.19 941.88 -46.9 903.18"/><polygon class="cls-10" points="1992.51 901.17 1107.19 463.27 1104.64 465.25 1995.52 941.33 1992.51 901.17"/><polygon class="cls-11" points="365.11 291.65 361.92 358.32 460.13 340.77 464.38 297.96 365.11 291.65"/><polygon class="cls-12" points="374.93 298.4 458.14 303.67 455.48 335.94 373.93 348.67 374.93 298.4"/><polygon class="cls-8" points="365.11 291.65 359.2 296.56 353.23 371.3 457.54 348.67 460.73 326.07 365.11 291.65"/><polygon class="cls-13" points="93.62 876.63 62.2 149.18 347.49 195.5 313.64 757.34 298.99 765.28 255.37 765.28 93.62 876.63"/><polygon class="cls-14" points="62.2 149.18 89.57 182.86 72.39 150.83 62.2 149.18"/><polygon class="cls-14" points="326.63 217.35 347.49 195.5 346.66 202.43 326.63 217.35"/><polygon class="cls-15" points="109.82 867.08 109.21 846.41 268.84 765.28 298.99 765.28 109.82 867.08"/><polygon class="cls-16" points="285.65 754.52 446.84 758.82 269.9 896.8 109.83 865.32 109.21 845.89 285.65 754.52"/><polygon class="cls-14" points="51.15 154.97 71.66 870.12 93.62 876.63 62.2 149.18 51.15 154.97"/><polygon class="cls-17" points="89.57 182.86 86.11 195.5 109.83 865.32 89.57 182.86"/><polygon class="cls-14" points="310.95 217.35 326.63 217.35 298.99 765.28 268.84 765.28 285.65 754.52 310.95 217.35"/><polygon class="cls-18" points="641.89 303.67 640.25 338.17 691.07 329.09 693.27 306.94 641.89 303.67"/><polygon class="cls-19" points="646.98 307.17 690.04 309.89 688.66 326.59 646.46 333.18 646.98 307.17"/><polygon class="cls-8" points="641.89 303.67 638.84 306.21 635.75 344.89 689.73 333.18 691.38 321.49 641.89 303.67"/><polygon class="cls-20" points="721.29 523.97 710.04 263.47 812.2 280.05 800.08 481.25 794.84 484.09 779.22 484.09 721.29 523.97"/><polygon class="cls-21" points="727.09 520.55 726.88 513.15 784.04 484.09 794.84 484.09 727.09 520.55"/><polygon class="cls-14" points="706.08 265.54 713.43 521.64 721.29 523.97 710.04 263.47 706.08 265.54"/><polygon class="cls-14" points="710.04 263.47 719.84 275.53 713.69 264.06 710.04 263.47"/><polygon class="cls-14" points="804.73 287.88 812.2 280.05 811.9 282.54 804.73 287.88"/><polygon class="cls-14" points="799.12 287.88 804.73 287.88 794.84 484.09 784.04 484.09 790.06 480.24 799.12 287.88"/><polygon class="cls-22" points="851.16 420.32 842.63 242.86 1085.57 242.86 1080.86 420.93 851.16 420.32"/><polygon class="cls-23" points="855.07 417.31 846.8 239.85 1082.14 239.85 1077.58 417.91 855.07 417.31"/><polygon class="cls-24" points="881.37 235.59 889.06 417.4 890.74 417.4 884.71 235.59 881.37 235.59"/><polygon class="cls-25" points="1036.56 237.98 1028.86 419.79 1027.18 419.79 1033.21 237.98 1036.56 237.98"/><polygon class="cls-26" points="959.79 237.88 962.55 419.84 964.22 419.88 963.14 237.97 959.79 237.88"/><rect class="cls-27" x="846.8" y="268.26" width="235.34" height="2.13"/><rect class="cls-28" x="850.23" y="390.72" width="229.99" height="2.13"/><polygon class="cls-29" points="1920.94 -190.41 1106.91 242.86 821.3 242.86 53.73 -169.44 1920.94 -190.41"/><polygon class="cls-30" points="1842.41 877.1 1873.82 149.65 1588.54 195.97 1622.39 757.81 1637.03 765.75 1680.66 765.75 1842.41 877.1"/><polygon class="cls-31" points="1826.2 867.55 1826.82 846.88 1667.19 765.75 1637.03 765.75 1826.2 867.55"/><polygon class="cls-32" points="1650.37 754.99 1507.54 758.8 1706.21 889.38 1826.2 865.78 1826.82 846.36 1650.37 754.99"/><polygon class="cls-14" points="1884.88 155.44 1864.37 870.59 1842.41 877.1 1873.82 149.65 1884.88 155.44"/><polygon class="cls-14" points="1873.82 149.65 1846.46 183.33 1863.64 151.3 1873.82 149.65"/><polygon class="cls-14" points="1609.4 217.82 1588.54 195.97 1589.37 202.9 1609.4 217.82"/><polygon class="cls-14" points="1625.08 217.82 1609.4 217.82 1637.03 765.75 1667.19 765.75 1650.37 754.99 1625.08 217.82"/><polygon class="cls-33" points="1353.52 601.19 1368.6 252.1 1231.69 274.33 1247.94 543.95 1254.97 547.76 1275.9 547.76 1353.52 601.19"/><polygon class="cls-34" points="1345.75 596.61 1346.04 586.69 1269.44 547.76 1254.97 547.76 1345.75 596.61"/><polygon class="cls-35" points="1261.37 542.59 1215.33 547.76 1304.52 603.87 1345.74 595.76 1346.04 586.44 1261.37 542.59"/><polygon class="cls-14" points="1373.9 254.88 1364.06 598.07 1353.52 601.19 1368.6 252.1 1373.9 254.88"/><polygon class="cls-14" points="1368.6 252.1 1355.47 268.26 1363.71 252.89 1368.6 252.1"/><polygon class="cls-14" points="1241.7 284.81 1231.69 274.33 1232.09 277.66 1241.7 284.81"/><polygon class="cls-14" points="1249.23 284.81 1241.7 284.81 1254.97 547.76 1269.44 547.76 1261.37 542.59 1249.23 284.81"/><polygon class="cls-36" points="821.3 249.14 817.45 337.78 813.1 461.13 821.3 461.13 821.3 249.14"/><polygon class="cls-36" points="1108.03 250.2 1111.88 338.84 1116.23 462.19 1108.03 462.19 1108.03 250.2"/><g class="cls-37"><path class="cls-38" d="M351.62,934.48c0,1.78-2.78,2.4-7.28,2.06-4.5.3-10.72,1.71-17.58.85a158.81,158.81,0,0,1-17.58-.85c-4.5-.53-7.29-1.25-7.29-2.06,0-1.6,11.14-2.91,24.87-2.91a158.82,158.82,0,0,1,17.58.86C348.84,933.63,351.62,933.74,351.62,934.48Z"/><path class="cls-38" d="M435.6,935.94c0,.25-5.44,1.78-12.15,1.45s-12.16-.18-12.16-1.45c0-.6,5.45-.75,12.16-1.46C430.16,935.49,435.6,936.17,435.6,935.94Z"/><path class="cls-38" d="M503.05,901.42c-.05,1.6,3.76,2.15,10.54-1.77,6.75-2.65,16.23-1.65,27.59-.67,11.3,2.79,24.54,3.18,38.76.57,14,3.39,27.38.44,38.73,1.7,11.36.69,20.85,1.48,27.5,2.29s10.44,1.63,10.42,2.39-3.87,1.35-10.55,1.77-16.2.64-27.58.67c-11.33-1.78-24.64.21-38.76-.58s-27.49,3-38.73-1.7c-11.39,0-20.89-.27-27.5-2.29C506.85,902.23,503.12,899,503.05,901.42Z"/><path class="cls-38" d="M467.24,905.3c0-1.14,2.43-1.83,6.25-1.42,3.79,2,9.22-2.44,15-.22,5.91-1.87,11.09,2.62,15,1.1a4.52,4.52,0,0,1,6.14,1.74l0,0c-.07,2.25-2.39.65-6.25,1.42s-9.21,2.27-15,.22c-5.85-.16-11.16-.08-15-1.1C469.54,907.87,467.32,902.47,467.24,905.3Z"/></g><g class="cls-39"><path class="cls-38" d="M796.34,904.93c0,.62-.73,1.22-2,1.75a33.26,33.26,0,0,0-5.55,1.43c-2.34,0-5.13-.42-8.23,1s-6.51,1.28-10.09.35c-3.58,1.14-7-1.19-10.08-.35-3.1-1-5.89.15-8.24-1a28.83,28.83,0,0,1-5.55-1.43c-1.31-.53-2-1.13-2-1.75s.73-1.21,2-1.74a28.83,28.83,0,0,1,5.55-1.43c2.35.27,5.14-.5,8.24-1,3.1-1.14,6.5-.82,10.08-.35,3.58,1.3,7-.75,10.09.35,3.1.54,5.89,2.19,8.23,1,2.35.76,4.24.62,5.55,1.43A1.89,1.89,0,0,1,796.34,904.93Z"/><path class="cls-38" d="M819.86,894.29c0,.92-.86,1.23-2.25,1.06-1.38.16-3.3.88-5.42.44a29.81,29.81,0,0,1-5.42-.44c-1.39-.27-2.25-.64-2.25-1.06,0-.82,3.44-1.49,7.67-1.49a29.8,29.8,0,0,1,5.42.43C819,893.86,819.86,893.91,819.86,894.29Z"/><path class="cls-38" d="M845.77,895a6.06,6.06,0,0,1-3.75.75c-2.07-.1-3.75-.09-3.75-.75,0-.31,1.68-.39,3.75-.75A18.46,18.46,0,0,0,845.77,895Z"/><path class="cls-38" d="M861.45,903.6c0,.43-1,.83-2.72,1.18a59.46,59.46,0,0,1-7.16.83c-3-.27-6.39.44-10.06.32s-7.11,0-10.07-.32c-3,.06-5.42-.92-7.15-.83-1.73-.51-2.72-.25-2.72-1.18,0-.55,1-1.1,2.72-1.17s4.2-1,7.15-.84a54.66,54.66,0,0,0,10.07-.31c3.67.15,7.11,0,10.06.31a61.57,61.57,0,0,1,7.16.84C860.46,902.77,861.45,903.18,861.45,903.6Z"/><path class="cls-38" d="M824,912.58c0,.46-2.07.84-4.62.84s-4.63-.38-4.63-.84,2.07-.83,4.63-.83S824,912.13,824,912.58Z"/><path class="cls-38" d="M972.58,897.16c0-.82-1.18-1-3.23,1.07-2.06,1.46-5,1.09-8.5.76a17.61,17.61,0,0,0-12,.29c-4.36-1.53-8.45.19-12-.29-3.51-.18-6.44-.44-8.5-.76s-3.23-.68-3.23-1.07,1.18-.75,3.23-1.07,5-.58,8.5-.76c3.51.74,7.6-.48,12-.29s8.45-2,12,.29c3.51-.19,6.44-.17,8.5.76C971.4,896.8,972.58,898.4,972.58,897.16Z"/><path class="cls-38" d="M944.29,911c0,.42-2.37.75-5.29.75s-5.28-.33-5.28-.75,2.37-.74,5.28-.74S944.29,910.59,944.29,911Z"/><path class="cls-38" d="M1018.26,908.84c0,.32-1.75.58-3.92.58s-3.92-.26-3.92-.58,1.76-.58,3.92-.58S1018.26,908.52,1018.26,908.84Z"/><path class="cls-38" d="M983.59,894.63c0,.58-.73,1-1.92.82-1.18-1-2.81,1.39-4.62.34-1.81,1.05-3.44-1.18-4.63-.34-1.18,1-1.91-.67-1.91-.82,0-1.16.73-.38,1.91-.83s2.82-1.31,4.63-.34a14.08,14.08,0,0,1,4.62.34C982.86,893.34,983.59,896.08,983.59,894.63Z"/></g><g class="cls-39"><path class="cls-38" d="M1137.36,870.19c0,.62-.73,1.22-2,1.75a33.26,33.26,0,0,0-5.55,1.43c-2.35,0-5.14-.42-8.24,1s-6.5,1.28-10.08.35c-3.58,1.14-7-1.19-10.09-.35-3.1-1-5.89.15-8.23-1a28.83,28.83,0,0,1-5.55-1.43c-1.31-.53-2-1.13-2-1.75s.73-1.21,2-1.74a28.83,28.83,0,0,1,5.55-1.43c2.34.27,5.13-.5,8.23-1,3.1-1.14,6.51-.82,10.09-.35,3.58,1.3,7-.75,10.08.35,3.1.54,5.89,2.19,8.24,1,2.34.76,4.24.62,5.55,1.43A1.89,1.89,0,0,1,1137.36,870.19Z"/><path class="cls-38" d="M1160.88,859.55c0,.92-.86,1.23-2.25,1.06-1.39.16-3.3.88-5.42.44a29.81,29.81,0,0,1-5.42-.44c-1.39-.27-2.25-.64-2.25-1.06,0-.82,3.43-1.49,7.67-1.49a29.8,29.8,0,0,1,5.42.43C1160,859.12,1160.88,859.17,1160.88,859.55Z"/><path class="cls-38" d="M1186.79,860.3a6.06,6.06,0,0,1-3.75.75c-2.07-.1-3.75-.09-3.75-.75,0-.31,1.68-.39,3.75-.75A18.46,18.46,0,0,0,1186.79,860.3Z"/><path class="cls-38" d="M1294.16,877c0,.42-1,.83-2.72,1.17a61.15,61.15,0,0,1-7.15.84c-3-.28-6.4.43-10.07.31s-7.11,0-10.06-.31c-3,0-5.43-.93-7.16-.84-1.73-.51-2.72-.25-2.72-1.17,0-.56,1-1.11,2.72-1.18s4.2-1,7.16-.83a55.44,55.44,0,0,0,10.06-.32c3.67.15,7.11,0,10.07.32a61.13,61.13,0,0,1,7.15.83C1293.17,876.18,1294.16,876.58,1294.16,877Z"/><path class="cls-38" d="M1165,877.84c0,.46-2.07.84-4.63.84s-4.62-.38-4.62-.84,2.07-.83,4.62-.83S1165,877.38,1165,877.84Z"/><path class="cls-38" d="M1457.23,852.71c0,.62-1.37,1.21-3.83,1.75-2.46.25-6,.56-10.43,1.42-4.4,0-9.65-.41-15.47,1s-12.22,1.28-18.94.35c-6.72,1.14-13.12-1.2-19-.35-5.82-1-11.06.15-15.47-1a94,94,0,0,1-10.43-1.42c-2.46-.54-3.82-1.13-3.82-1.75s1.36-1.21,3.82-1.75a94,94,0,0,1,10.43-1.43c4.41.28,9.65-.5,15.47-1,5.83-1.13,12.23-.82,19-.35,6.72,1.3,13.12-.74,18.94.35,5.82.54,11.07,2.19,15.47,1,4.41.77,8,.62,10.43,1.43C1455.86,850.76,1457.23,852.09,1457.23,852.71Z"/><path class="cls-38" d="M1501.41,842.07c0,.91-1.61,1.23-4.22,1-2.6.16-6.21.88-10.19.44a101.69,101.69,0,0,1-10.18-.44c-2.61-.27-4.22-.64-4.22-1,0-.83,6.45-1.5,14.4-1.5,4,0,7.59.17,10.19.44C1499.8,841.63,1501.41,841.69,1501.41,842.07Z"/><path class="cls-38" d="M1550.08,842.82a20.42,20.42,0,0,1-7,.74c-3.89-.1-7-.09-7-.74,0-.31,3.16-.39,7-.75A68.66,68.66,0,0,0,1550.08,842.82Z"/><ellipse class="cls-38" cx="1500.5" cy="860.36" rx="8.69" ry="0.83"/><path class="cls-38" d="M1337.82,907.35c0-1.88-2.69-2.4-7.37,2.44-4.69,3.32-11.37,2.48-19.37,1.73-8-2.89-17.31-2.88-27.25.66-9.94-3.49-19.25.42-27.25-.66-8-.42-14.68-1-19.37-1.73s-7.37-1.55-7.37-2.44,2.69-1.72,7.37-2.44,11.37-1.31,19.37-1.73c8,1.69,17.31-1.1,27.25-.66,9.94.62,19.25-4.48,27.25.66,8-.45,14.68-.4,19.37,1.73C1335.13,906.52,1337.82,910.17,1337.82,907.35Z"/><path class="cls-38" d="M1317.86,941c0,.41-2.36.74-5.28.74s-5.29-.33-5.29-.74,2.37-.75,5.29-.75S1317.86,940.61,1317.86,941Z"/><path class="cls-38" d="M1391.84,938.86c0,.33-1.76.59-3.92.59s-3.92-.26-3.92-.59,1.75-.58,3.92-.58S1391.84,938.54,1391.84,938.86Z"/><path class="cls-38" d="M1362.9,901.57c0,1.33-1.67,2.23-4.37,1.88-2.69-2.16-6.42,3.17-10.54.77-4.11,2.4-7.84-2.69-10.54-.77-2.69,2.31-4.36-1.53-4.36-1.88,0-2.63,1.67-.85,4.36-1.88s6.43-3,10.54-.77c4.12,0,7.85-.29,10.54.77C1361.23,898.63,1362.9,904.88,1362.9,901.57Z"/></g><g class="cls-39"><path class="cls-38" d="M463.09,819.66c0-.32.66-.64,1.87-.95a47.19,47.19,0,0,0,5.15-.83,28.86,28.86,0,0,0,7.64-.63,23.43,23.43,0,0,1,9.36-.33c3.32-.65,6.5.52,9.37,0,2.89.47,5.47-.17,7.66.38a44.84,44.84,0,0,1,5.17.67c1.22.26,1.9.56,1.9.89s-.66.65-1.87,1a44.89,44.89,0,0,1-5.15.83,57.46,57.46,0,0,0-7.64.63,34.14,34.14,0,0,1-9.36.33c-3.34-.63-6.48.5-9.37,0-2.88-.23-5.49-1.06-7.66-.38-2.18-.37-3.94-.26-5.17-.67C463.78,820.68,463.09,820,463.09,819.66Z"/><path class="cls-38" d="M441.33,825.61c0-.49.79-.66,2.08-.59a23.93,23.93,0,0,1,5-.31,46.32,46.32,0,0,1,5,.15c1.3.12,2.1.3,2.1.52,0,.43-3.18.84-7.11.9-1.67,0-3.34,0-5-.15C442.13,825.82,441.34,825.81,441.33,825.61Z"/><path class="cls-38" d="M417.26,825.59a9.53,9.53,0,0,1,3.48-.44c1.92,0,3.48,0,3.49.33a17,17,0,0,1-3.48.45A31.47,31.47,0,0,0,417.26,825.59Z"/><path class="cls-38" d="M611,825.15c0,.23-.92.44-2.53.62s-3.9.33-6.64.44c-2.75-.15-5.94.23-9.35.17s-6.61,0-9.35-.17c-2.75,0-5-.49-6.65-.44-1.61-.27-2.53-.13-2.53-.62,0-.29.92-.58,2.53-.62s3.9-.54,6.65-.44a91.12,91.12,0,0,0,9.35-.16c3.41.08,6.6,0,9.35.16s5,.26,6.64.44S611,824.93,611,825.15Z"/><path class="cls-38" d="M437.33,816.05c0-.24,1.92-.47,4.29-.51s4.3.13,4.31.37-1.92.47-4.29.51S437.34,816.29,437.33,816.05Z"/><path class="cls-38" d="M762.43,812.37c0,.33-1.26.64-3.55.92s-5.6.3-9.69.75a101.38,101.38,0,0,0-14.37.51,81.54,81.54,0,0,1-17.6.18c-6.24.6-12.18-.63-17.59-.18-5.41-.52-10.28.08-14.37-.51-4.09-.21-7.4-.47-9.69-.75s-3.55-.59-3.55-.92,1.26-.63,3.55-.92,5.6-.53,9.69-.75c4.09.14,9-.26,14.37-.5a120.09,120.09,0,0,1,17.59-.19c6.25.69,12.19-.39,17.6.19,5.41.28,10.28,1.15,14.37.5,4.09.4,7.4.33,9.69.75C761.17,811.35,762.43,812.05,762.43,812.37Z"/><path class="cls-38" d="M803.47,806.77c0,.49-1.5.65-3.92.56a85.31,85.31,0,0,1-9.46.23c-3.7,0-7-.09-9.46-.23s-3.92-.34-3.92-.56c0-.43,6-.78,13.38-.78,3.7,0,7,.09,9.46.23C802,806.54,803.47,806.57,803.47,806.77Z"/><path class="cls-38" d="M848.68,807.17a32.53,32.53,0,0,1-6.54.39c-3.62,0-6.55,0-6.55-.39a62.24,62.24,0,0,1,6.55-.4C845.75,807.05,848.68,807.23,848.68,807.17Z"/><ellipse class="cls-38" cx="802.63" cy="816.39" rx="8.07" ry="0.44"/><path class="cls-38" d="M651.52,841.11c0-1-2.5-1.26-6.85,1.28-4.35,1.75-10.56,1.31-18,.91a64.37,64.37,0,0,0-25.31.35c-9.23-1.83-17.88.23-25.31-.35-7.43-.22-13.64-.53-18-.91s-6.85-.81-6.85-1.28,2.5-.91,6.85-1.28,10.56-.69,18-.91c7.43.89,16.08-.58,25.31-.35s17.88-2.36,25.31.35c7.43-.24,13.64-.21,18,.91C649,840.68,651.52,842.6,651.52,841.11Z"/><path class="cls-38" d="M633,858.83c0,.21-2.2.39-4.91.39s-4.9-.18-4.9-.39,2.19-.4,4.9-.4S633,858.61,633,858.83Z"/><ellipse class="cls-38" cx="698.05" cy="857.69" rx="3.64" ry="0.31"/><path class="cls-38" d="M674.82,838.07c0,.7-1.55,1.17-4.06,1-2.51-1.14-6,1.67-9.79.41-3.82,1.26-7.29-1.42-9.79-.41a3,3,0,0,1-4.06-1c0-1.38,1.55-.44,4.06-1s6-1.57,9.79-.41c3.82,0,7.28-.15,9.79.41C673.27,836.53,674.82,839.81,674.82,838.07Z"/></g><g class="cls-39"><path class="cls-38" d="M1137.41,809.25c0-.33.66-.65,1.88-1a49.58,49.58,0,0,0,5.14-.84,28.44,28.44,0,0,0,7.64-.62,23.3,23.3,0,0,1,9.37-.34c3.31-.65,6.49.53,9.36,0,2.89.47,5.47-.17,7.66.38a42.75,42.75,0,0,1,5.17.67c1.22.27,1.9.57,1.91.89s-.67.65-1.88,1a42.81,42.81,0,0,1-5.15.83,57.46,57.46,0,0,0-7.64.63,34.14,34.14,0,0,1-9.36.33c-3.33-.63-6.48.5-9.37,0-2.88-.24-5.49-1.07-7.65-.39-2.19-.36-4-.26-5.17-.67C1138.1,810.26,1137.42,809.57,1137.41,809.25Z"/><path class="cls-38" d="M1115.65,815.19c0-.48.79-.66,2.08-.59a24.63,24.63,0,0,1,5-.31c1.67,0,3.34,0,5,.15,1.29.12,2.09.31,2.09.52,0,.44-3.17.84-7.11.9-1.67,0-3.34,0-5-.15C1116.46,815.41,1115.66,815.39,1115.65,815.19Z"/><path class="cls-38" d="M1091.59,815.18a9.3,9.3,0,0,1,3.47-.45c1.93,0,3.49,0,3.49.34a18.42,18.42,0,0,1-3.47.45A27.3,27.3,0,0,0,1091.59,815.18Z"/><path class="cls-38" d="M1285.29,814.73c0,.23-.92.44-2.53.62s-3.9.34-6.64.44c-2.74-.14-5.94.23-9.35.17s-6.6,0-9.35-.17c-2.74,0-5-.48-6.64-.44-1.61-.26-2.53-.13-2.53-.62,0-.29.92-.58,2.53-.61s3.9-.55,6.64-.44a91.12,91.12,0,0,0,9.35-.17c3.41.08,6.61,0,9.35.17s5,.25,6.64.44S1285.29,814.51,1285.29,814.73Z"/><path class="cls-38" d="M1111.66,805.63c0-.24,1.91-.47,4.29-.51s4.3.13,4.3.37-1.92.47-4.29.51S1111.66,805.87,1111.66,805.63Z"/><path class="cls-38" d="M1436.75,802c0,.33-1.26.64-3.55.92s-5.6.3-9.69.75a101.38,101.38,0,0,0-14.37.51,82.1,82.1,0,0,1-17.59.19c-6.24.6-12.19-.63-17.6-.19-5.41-.52-10.28.08-14.37-.51-4.09-.21-7.4-.46-9.69-.75s-3.55-.59-3.55-.92,1.27-.63,3.55-.91,5.6-.54,9.69-.76c4.09.15,9-.26,14.37-.5a121.64,121.64,0,0,1,17.6-.19c6.24.69,12.18-.39,17.59.19,5.41.28,10.28,1.15,14.37.5,4.09.41,7.4.33,9.69.76C1435.49,800.93,1436.75,801.63,1436.75,802Z"/><path class="cls-38" d="M1477.8,796.36c0,.48-1.5.64-3.92.55a80.88,80.88,0,0,1-9.47.23c-3.69,0-7-.08-9.46-.23s-3.92-.34-3.92-.55c0-.44,6-.79,13.38-.79,3.7,0,7,.09,9.47.23C1476.3,796.13,1477.8,796.16,1477.8,796.36Z"/><path class="cls-38" d="M1523,796.75a31.81,31.81,0,0,1-6.54.39c-3.61,0-6.54,0-6.54-.39a64.84,64.84,0,0,1,6.54-.39C1520.07,796.63,1523,796.81,1523,796.75Z"/><ellipse class="cls-38" cx="1476.95" cy="805.98" rx="8.07" ry="0.44"/><path class="cls-38" d="M1325.84,830.69c0-1-2.49-1.26-6.85,1.29-4.35,1.75-10.56,1.3-18,.91a64.19,64.19,0,0,0-25.31.34c-9.23-1.83-17.88.23-25.31-.34-7.43-.22-13.63-.54-18-.91s-6.84-.82-6.84-1.29,2.49-.9,6.84-1.28,10.56-.69,18-.91c7.43.89,16.08-.58,25.31-.35s17.88-2.35,25.31.35c7.43-.23,13.64-.21,18,.91C1323.35,830.26,1325.84,832.18,1325.84,830.69Z"/><path class="cls-38" d="M1307.3,848.41c0,.22-2.19.39-4.9.39s-4.91-.17-4.91-.39,2.2-.4,4.91-.4S1307.3,848.19,1307.3,848.41Z"/><ellipse class="cls-38" cx="1372.37" cy="847.27" rx="3.64" ry="0.31"/><path class="cls-38" d="M1349.14,827.65c0,.7-1.55,1.18-4.06,1-2.5-1.13-6,1.67-9.79.41-3.82,1.26-7.28-1.42-9.79-.41a3,3,0,0,1-4-1c0-1.38,1.55-.44,4-1s6-1.57,9.79-.41c3.83,0,7.29-.15,9.79.41C1347.59,826.11,1349.14,829.4,1349.14,827.65Z"/></g><g class="cls-40"><path class="cls-41" d="M535.08,697.56c0-.28.35-.56,1-.82a17.78,17.78,0,0,0,2.69-.72,9.24,9.24,0,0,0,4-.55,7.5,7.5,0,0,1,4.88-.29c1.73-.56,3.39.46,4.89,0,1.5.42,2.85-.14,4,.34a13.72,13.72,0,0,1,2.69.58c.64.23,1,.49,1,.77s-.35.56-1,.82a13.9,13.9,0,0,1-2.69.73,18,18,0,0,0-4,.54,10.74,10.74,0,0,1-4.88.29c-1.74-.55-3.38.43-4.89,0-1.5-.21-2.86-.93-4-.33a19,19,0,0,1-2.69-.58.9.9,0,0,1-1-.77Z"/><path class="cls-42" d="M523.74,702.72c0-.41.41-.57,1.08-.51a7.78,7.78,0,0,1,2.63-.27,15.4,15.4,0,0,1,2.63.13c.67.11,1.09.27,1.09.46,0,.37-1.66.72-3.71.78a15.4,15.4,0,0,1-2.63-.13C524.16,702.91,523.74,702.9,523.74,702.72Z"/><path class="cls-43" d="M511.19,702.71a3.09,3.09,0,0,1,1.81-.39c1,0,1.82,0,1.82.3,0,.14-.81.19-1.81.39A9.47,9.47,0,0,0,511.19,702.71Z"/><path class="cls-44" d="M612.19,702.33c0,.19-.48.38-1.32.53a33.6,33.6,0,0,1-3.46.39c-1.44-.13-3.1.19-4.88.14s-3.44,0-4.87-.14-2.63-.43-3.47-.39c-.84-.23-1.32-.11-1.32-.53,0-.26.48-.51,1.32-.54a27.07,27.07,0,0,1,3.47-.38,29.37,29.37,0,0,0,4.87-.14c1.78.07,3.44,0,4.88.14a30.76,30.76,0,0,1,3.46.38C611.71,702,612.19,702.13,612.19,702.33Z"/><path class="cls-45" d="M521.66,694.43c0-.21,1-.41,2.23-.44s2.25.11,2.25.32-1,.4-2.24.44S521.66,694.63,521.66,694.43Z"/><path class="cls-46" d="M691.16,691.23c0,.29-.66.56-1.85.8s-2.92.26-5,.65a31.93,31.93,0,0,0-7.5.44,25.46,25.46,0,0,1-9.17.16c-3.26.52-6.36-.54-9.18-.16-2.82-.45-5.35.07-7.49-.44a44.11,44.11,0,0,1-5-.65c-1.19-.24-1.85-.51-1.85-.8s.66-.55,1.85-.79a44.11,44.11,0,0,1,5-.65,64.74,64.74,0,0,0,7.49-.44,38.1,38.1,0,0,1,9.18-.17c3.25.6,6.35-.33,9.17.17,2.82.24,5.36,1,7.5.44,2.13.34,3.85.28,5,.65C690.5,690.34,691.16,691,691.16,691.23Z"/><path class="cls-47" d="M712.56,686.38c0,.41-.78.56-2,.48a27.2,27.2,0,0,1-4.94.2c-1.93,0-3.67-.08-4.93-.2s-2-.3-2-.48c0-.38,3.13-.69,7-.69,1.93,0,3.67.08,4.94.2C711.78,686.18,712.56,686.2,712.56,686.38Z"/><path class="cls-48" d="M736.13,686.72a10.06,10.06,0,0,1-3.41.34c-1.89,0-3.41,0-3.41-.34a19.51,19.51,0,0,1,3.41-.34C734.6,686.61,736.13,686.77,736.13,686.72Z"/><path class="cls-49" d="M716.33,694.73c0,.21-1.89.38-4.21.38s-4.21-.17-4.21-.38,1.88-.38,4.21-.38S716.33,694.52,716.33,694.73Z"/><path class="cls-50" d="M633.33,716.18c0-.85-1.3-1.09-3.57,1.12-2.27,1.52-5.51,1.13-9.38.79a20.38,20.38,0,0,0-13.2.3c-4.81-1.59-9.32.19-13.19-.3-3.88-.19-7.11-.47-9.38-.79s-3.57-.71-3.57-1.12,1.3-.78,3.57-1.11,5.5-.6,9.38-.79c3.87.77,8.38-.5,13.19-.3s9.33-2.05,13.2.3c3.87-.2,7.11-.18,9.38.79C632,715.81,633.33,717.47,633.33,716.18Z"/><path class="cls-51" d="M623.67,731.56c0,.19-1.15.34-2.56.34s-2.56-.15-2.56-.34,1.14-.34,2.56-.34S623.67,731.37,623.67,731.56Z"/><path class="cls-52" d="M659.49,730.57c0,.15-.85.27-1.9.27s-1.9-.12-1.9-.27.85-.26,1.9-.26S659.49,730.43,659.49,730.57Z"/><path class="cls-53" d="M645.48,713.54c0,.61-.81,1-2.12.86-1.3-1-3.11,1.45-5.1.36-2,1.09-3.8-1.24-5.11-.36-1.3,1.06-2.11-.7-2.11-.86,0-1.2.81-.38,2.11-.85s3.11-1.36,5.11-.36c2,0,3.8-.13,5.1.36C644.67,712.2,645.48,715.06,645.48,713.54Z"/></g><g class="cls-40"><path class="cls-54" d="M886.67,688.52c0-.28.35-.56,1-.82a16.6,16.6,0,0,0,2.68-.73,9.09,9.09,0,0,0,4-.54,7.37,7.37,0,0,1,4.88-.29c1.73-.57,3.39.46,4.88,0,1.51.41,2.86-.14,4,.34a13.72,13.72,0,0,1,2.69.58c.64.22,1,.48,1,.77s-.34.56-1,.82a13.87,13.87,0,0,1-2.69.72,18.62,18.62,0,0,0-4,.55,10.74,10.74,0,0,1-4.88.29c-1.74-.55-3.38.43-4.89,0-1.5-.21-2.86-.93-4-.34a17.66,17.66,0,0,1-2.69-.58.88.88,0,0,1-1-.77Z"/><path class="cls-55" d="M875.33,693.68c0-.42.41-.57,1.08-.51a7.76,7.76,0,0,1,2.63-.27,14.34,14.34,0,0,1,2.62.13c.68.11,1.1.26,1.1.45,0,.38-1.66.73-3.71.79a15.41,15.41,0,0,1-2.63-.14C875.75,693.87,875.33,693.85,875.33,693.68Z"/><path class="cls-56" d="M862.78,693.67a3.09,3.09,0,0,1,1.81-.39c1,0,1.82,0,1.82.29,0,.14-.81.2-1.81.39A9.45,9.45,0,0,0,862.78,693.67Z"/><path class="cls-57" d="M963.78,693.29c0,.19-.48.37-1.32.53a31.19,31.19,0,0,1-3.47.38c-1.43-.12-3.09.2-4.87.15s-3.44,0-4.88-.15-2.62-.42-3.46-.38c-.84-.23-1.32-.11-1.32-.53,0-.26.48-.51,1.32-.54a26.72,26.72,0,0,1,3.46-.38,28.41,28.41,0,0,0,4.88-.15c1.78.07,3.44,0,4.87.15a31.19,31.19,0,0,1,3.47.38C963.3,692.91,963.78,693.09,963.78,693.29Z"/><path class="cls-58" d="M873.24,685.38c0-.21,1-.4,2.24-.44s2.24.11,2.25.32-1,.41-2.24.44S873.25,685.59,873.24,685.38Z"/><path class="cls-59" d="M1042.75,682.19c0,.28-.66.55-1.85.8s-2.92.26-5.06.65a31.84,31.84,0,0,0-7.49.44,25.69,25.69,0,0,1-9.17.16c-3.26.52-6.36-.54-9.18-.16-2.82-.45-5.36.07-7.49-.44a46.5,46.5,0,0,1-5-.65c-1.19-.25-1.85-.52-1.85-.8s.66-.55,1.85-.8a49.17,49.17,0,0,1,5-.65,62.59,62.59,0,0,0,7.49-.44,38.1,38.1,0,0,1,9.18-.16c3.25.6,6.35-.34,9.17.16,2.82.25,5.36,1,7.49.44,2.14.35,3.86.29,5.06.65C1042.09,681.3,1042.75,681.91,1042.75,682.19Z"/><path class="cls-60" d="M1064.15,677.33c0,.42-.78.56-2.05.49a27.06,27.06,0,0,1-4.93.2c-1.93,0-3.67-.08-4.94-.2s-2-.3-2-.49c0-.38,3.13-.68,7-.68,1.93,0,3.67.08,4.93.2C1063.37,677.13,1064.15,677.16,1064.15,677.33Z"/><path class="cls-61" d="M1087.72,677.67a10.06,10.06,0,0,1-3.41.35c-1.89,0-3.42,0-3.42-.35a20.65,20.65,0,0,1,3.42-.34A30.06,30.06,0,0,0,1087.72,677.67Z"/><path class="cls-62" d="M1067.92,685.68c0,.21-1.89.38-4.21.38s-4.21-.17-4.21-.38,1.88-.38,4.21-.38S1067.92,685.47,1067.92,685.68Z"/><path class="cls-63" d="M984.92,707.14c0-.86-1.3-1.1-3.57,1.11-2.27,1.52-5.51,1.14-9.38.79a20.44,20.44,0,0,0-13.2.31c-4.81-1.6-9.32.19-13.19-.31-3.88-.19-7.12-.46-9.38-.79s-3.57-.7-3.57-1.11,1.3-.79,3.57-1.11,5.5-.6,9.38-.8c3.87.78,8.38-.5,13.19-.3s9.32-2,13.2.3c3.87-.2,7.11-.18,9.38.8C983.62,706.76,984.92,708.43,984.92,707.14Z"/><ellipse class="cls-64" cx="972.7" cy="722.52" rx="2.56" ry="0.34"/><path class="cls-65" d="M1011.08,721.53c0,.15-.85.27-1.9.27s-1.9-.12-1.9-.27.85-.27,1.9-.27S1011.08,721.38,1011.08,721.53Z"/><path class="cls-66" d="M997.07,704.5c0,.61-.81,1-2.12.86-1.31-1-3.11,1.45-5.1.35-2,1.1-3.8-1.23-5.11-.35s-2.11-.7-2.11-.86c0-1.2.81-.39,2.11-.86s3.11-1.36,5.11-.35c2,0,3.79-.13,5.1.35C996.26,703.16,997.07,706,997.07,704.5Z"/></g><g class="cls-40"><path class="cls-67" d="M814.19,699.3c0-.28.34-.56,1-.82a16.71,16.71,0,0,0,2.69-.73,9.09,9.09,0,0,0,4-.54,7.37,7.37,0,0,1,4.88-.29c1.73-.57,3.39.45,4.89,0,1.5.41,2.85-.14,4,.33a15.54,15.54,0,0,1,2.69.58c.64.23,1,.49,1,.78s-.35.56-1,.82a14,14,0,0,1-2.68.72,18.62,18.62,0,0,0-4,.55,10.74,10.74,0,0,1-4.88.29c-1.74-.55-3.38.43-4.88,0-1.51-.21-2.87-.93-4-.34a19,19,0,0,1-2.69-.58.87.87,0,0,1-1-.7S814.19,699.32,814.19,699.3Z"/><path class="cls-68" d="M802.84,704.46c0-.42.41-.57,1.08-.51a7.76,7.76,0,0,1,2.63-.27,14.45,14.45,0,0,1,2.63.13c.67.1,1.09.26,1.09.45,0,.38-1.66.73-3.71.78a14.45,14.45,0,0,1-2.63-.13C803.26,704.65,802.84,704.63,802.84,704.46Z"/><path class="cls-69" d="M790.29,704.45a3.12,3.12,0,0,1,1.82-.39c1,0,1.81,0,1.81.29,0,.14-.81.2-1.81.39A8.53,8.53,0,0,0,790.29,704.45Z"/><path class="cls-70" d="M891.29,704.06c0,.2-.48.38-1.32.54a30.76,30.76,0,0,1-3.46.38c-1.43-.12-3.1.2-4.88.15s-3.44,0-4.87-.15-2.63-.42-3.47-.38c-.84-.23-1.32-.11-1.32-.54,0-.25.48-.5,1.32-.53a23.91,23.91,0,0,1,3.47-.38,28.33,28.33,0,0,0,4.87-.15c1.78.07,3.45,0,4.88.15a30.76,30.76,0,0,1,3.46.38C890.81,703.69,891.29,703.87,891.29,704.06Z"/><path class="cls-71" d="M800.76,696.16c0-.21,1-.4,2.23-.44s2.25.11,2.25.32-1,.41-2.24.44S800.76,696.37,800.76,696.16Z"/><path class="cls-72" d="M970.26,693c0,.28-.66.55-1.85.8s-2.92.26-5,.65a31.4,31.4,0,0,0-7.5.44,25.69,25.69,0,0,1-9.17.16c-3.25.52-6.35-.55-9.17-.16-2.82-.45-5.36.07-7.5-.44a49.17,49.17,0,0,1-5-.65c-1.19-.25-1.85-.52-1.85-.8s.66-.55,1.85-.8a49.17,49.17,0,0,1,5-.65,64.78,64.78,0,0,0,7.5-.44,38,38,0,0,1,9.17-.16c3.25.6,6.35-.34,9.17.16,2.82.25,5.36,1,7.5.44,2.13.35,3.86.28,5,.65C969.6,692.08,970.26,692.69,970.26,693Z"/><path class="cls-73" d="M991.66,688.11c0,.42-.78.56-2,.48a25.51,25.51,0,0,1-4.94.2c-1.93,0-3.67-.07-4.93-.2s-2-.29-2-.48c0-.38,3.13-.68,7-.68,1.93,0,3.67.07,4.94.2S991.66,687.94,991.66,688.11Z"/><path class="cls-74" d="M1015.23,688.45a10.06,10.06,0,0,1-3.41.34c-1.89,0-3.41,0-3.41-.34a20.63,20.63,0,0,1,3.41-.34A30.06,30.06,0,0,0,1015.23,688.45Z"/><ellipse class="cls-75" cx="991.22" cy="696.46" rx="4.21" ry="0.38"/><path class="cls-76" d="M912.43,717.92c0-.86-1.3-1.1-3.57,1.11-2.27,1.52-5.51,1.14-9.38.79a20.51,20.51,0,0,0-13.2.3c-4.81-1.59-9.32.2-13.19-.3-3.88-.19-7.11-.46-9.38-.79s-3.57-.71-3.57-1.11,1.3-.79,3.57-1.12,5.5-.6,9.38-.79c3.87.78,8.38-.5,13.19-.3s9.33-2,13.2.3c3.87-.2,7.11-.18,9.38.79C911.13,717.54,912.43,719.21,912.43,717.92Z"/><path class="cls-77" d="M902.77,733.3c0,.18-1.15.34-2.56.34s-2.56-.16-2.56-.34,1.14-.35,2.56-.35S902.77,733.11,902.77,733.3Z"/><path class="cls-78" d="M938.59,732.31c0,.15-.85.26-1.9.26s-1.9-.11-1.9-.26.86-.27,1.9-.27S938.59,732.16,938.59,732.31Z"/><path class="cls-79" d="M924.58,715.28c0,.61-.81,1-2.12.86-1.3-1-3.11,1.45-5.1.35-2,1.09-3.8-1.23-5.11-.35-1.3,1.05-2.11-.7-2.11-.86,0-1.2.81-.39,2.11-.86s3.12-1.36,5.11-.35c2,0,3.8-.13,5.1.35C923.77,713.94,924.58,716.79,924.58,715.28Z"/></g><g class="cls-40"><path class="cls-80" d="M1165.77,690.26c0-.29.35-.57,1-.83a15.6,15.6,0,0,0,2.68-.72,9.38,9.38,0,0,0,4-.54,7.37,7.37,0,0,1,4.88-.29c1.73-.57,3.39.45,4.88,0,1.51.41,2.86-.15,4,.33a14.66,14.66,0,0,1,2.69.58c.64.23,1,.49,1,.77s-.34.57-1,.83a15.46,15.46,0,0,1-2.69.72,19.25,19.25,0,0,0-4,.54,10.74,10.74,0,0,1-4.88.29c-1.74-.54-3.38.43-4.89,0-1.5-.2-2.86-.92-4-.33a19,19,0,0,1-2.69-.58.88.88,0,0,1-1-.77Z"/><path class="cls-81" d="M1154.43,695.42c0-.42.41-.58,1.08-.52a8.33,8.33,0,0,1,2.63-.27,15.41,15.41,0,0,1,2.63.14c.67.1,1.09.26,1.09.45,0,.38-1.66.73-3.71.78a14.45,14.45,0,0,1-2.63-.13C1154.85,695.6,1154.43,695.59,1154.43,695.42Z"/><path class="cls-82" d="M1141.88,695.41a3,3,0,0,1,1.81-.39c1,0,1.82,0,1.82.29s-.81.2-1.81.39A8.53,8.53,0,0,0,1141.88,695.41Z"/><path class="cls-83" d="M1242.88,695c0,.2-.48.38-1.32.54a31.19,31.19,0,0,1-3.47.38c-1.43-.13-3.09.2-4.87.14s-3.44,0-4.87-.14-2.63-.42-3.47-.38c-.84-.23-1.32-.12-1.32-.54,0-.25.48-.5,1.32-.54a27.07,27.07,0,0,1,3.47-.38,27.35,27.35,0,0,0,4.87-.14c1.78.07,3.44,0,4.87.14,1.16.07,2.32.2,3.47.38C1242.4,694.64,1242.88,694.83,1242.88,695Z"/><path class="cls-84" d="M1152.34,687.12c0-.21,1-.41,2.24-.44s2.24.11,2.25.32-1,.41-2.24.44S1152.35,687.33,1152.34,687.12Z"/><path class="cls-85" d="M1321.85,683.93c0,.28-.66.55-1.85.8a50.34,50.34,0,0,0-5.06.65,31.32,31.32,0,0,0-7.49.44,25.92,25.92,0,0,1-9.17.16c-3.26.52-6.36-.55-9.18-.16-2.82-.46-5.36.07-7.49-.44a49.17,49.17,0,0,1-5-.65c-1.19-.25-1.85-.52-1.85-.8s.66-.56,1.85-.8a44.11,44.11,0,0,1,5-.65,64.74,64.74,0,0,0,7.49-.44,37.59,37.59,0,0,1,9.18-.16c3.25.59,6.35-.34,9.17.16,2.82.24,5.36,1,7.49.44,2.14.35,3.86.28,5.06.65C1321.19,683,1321.85,683.64,1321.85,683.93Z"/><path class="cls-86" d="M1343.25,679.07c0,.42-.78.56-2,.48a27.06,27.06,0,0,1-4.93.2c-1.93,0-3.67-.08-4.93-.2s-2-.29-2-.48c0-.38,3.13-.69,7-.69,1.93,0,3.67.08,4.93.2C1342.47,678.87,1343.25,678.89,1343.25,679.07Z"/><path class="cls-87" d="M1366.82,679.41a10.06,10.06,0,0,1-3.41.34c-1.89,0-3.41,0-3.41-.34a19.51,19.51,0,0,1,3.41-.34C1365.29,679.3,1366.82,679.46,1366.82,679.41Z"/><path class="cls-88" d="M1347,687.42c0,.21-1.89.38-4.21.38s-4.21-.17-4.21-.38,1.88-.38,4.21-.38S1347,687.21,1347,687.42Z"/><path class="cls-89" d="M1264,708.87c0-.85-1.3-1.09-3.57,1.12-2.27,1.52-5.51,1.13-9.38.79a20.38,20.38,0,0,0-13.2.3c-4.81-1.59-9.32.2-13.19-.3-3.88-.19-7.11-.46-9.38-.79s-3.57-.71-3.57-1.12,1.3-.78,3.57-1.11,5.5-.6,9.38-.79c3.87.77,8.38-.5,13.19-.3s9.33-2,13.2.3c3.87-.2,7.11-.18,9.38.79C1262.72,708.5,1264,710.16,1264,708.87Z"/><ellipse class="cls-90" cx="1251.8" cy="724.25" rx="2.56" ry="0.34"/><path class="cls-91" d="M1290.18,723.27c0,.14-.85.26-1.9.26s-1.9-.12-1.9-.26.85-.27,1.9-.27S1290.18,723.12,1290.18,723.27Z"/><path class="cls-92" d="M1276.17,706.24c0,.6-.81,1-2.12.85-1.3-1-3.11,1.45-5.1.36-2,1.09-3.8-1.23-5.11-.36-1.3,1.06-2.11-.7-2.11-.85,0-1.21.81-.39,2.11-.86S1267,704,1269,705c2,0,3.8-.13,5.1.35C1275.36,704.9,1276.17,707.75,1276.17,706.24Z"/></g><g class="cls-93"><path class="cls-38" d="M1601.54,939.9c0,2.06,3,2.77,7.94,2.38,4.91.35,11.69,2,19.17,1a163.85,163.85,0,0,0,19.18-1c4.91-.61,7.94-1.45,7.94-2.38,0-1.85-12.14-3.36-27.12-3.36a163.68,163.68,0,0,0-19.17,1C1604.57,938.92,1601.54,939.05,1601.54,939.9Z"/><path class="cls-38" d="M1509.94,941.59c0,.28,5.94,2.06,13.26,1.68s13.26-.21,13.26-1.68c0-.7-5.94-.87-13.26-1.69C1515.88,941.07,1509.94,941.85,1509.94,941.59Z"/><path class="cls-38" d="M1061.6,946.35c0-1.85,4.17-2.36,11.44,2.41,7.27,3.28,17.64,2.45,30,1.7,12.41-2.84,26.85-2.84,42.27.65,15.42-3.43,29.87.42,42.28-.65,12.41-.41,22.78-1,30-1.7s11.44-1.53,11.44-2.41-4.17-1.7-11.44-2.4-17.64-1.3-30-1.71c-12.41,1.67-26.86-1.09-42.28-.65-15.42.61-29.86-4.42-42.27.65-12.41-.44-22.78-.4-30,1.71C1065.77,945.54,1061.6,949.14,1061.6,946.35Z"/><path class="cls-38" d="M1022.69,940.65c0,1.31,2.59,2.2,6.77,1.85,4.19-2.12,10,3.13,16.35.77,6.39,2.36,12.17-2.66,16.36-.77a4.81,4.81,0,0,0,6.6-1.54l.17-.31c0-2.59-2.59-.83-6.77-1.85s-10-2.94-16.36-.76c-6.38,0-12.16-.28-16.35.76C1025.28,937.75,1022.69,943.92,1022.69,940.65Z"/></g><polygon class="cls-8" points="484 157.14 475.68 165.23 464.55 565.73 614.95 507.41 621.14 488.56 484 157.14"/><polygon class="cls-94" points="484 157.14 475.61 549.99 627.51 497.22 638.58 198.78 484 157.14"/><polygon class="cls-95" points="491.59 162.41 504.54 171.99 631.85 204.37 638.58 198.78 491.59 162.41"/><polygon class="cls-8" points="502.85 179.31 491.59 529.11 475.68 546.52 486.52 165.23 502.85 179.31"/><polygon class="cls-96" points="499.47 526.29 621.14 488.56 632.97 208.6 616.64 454.08 499.47 497.22 499.47 526.29"/><polygon class="cls-8" points="556.33 280.98 512.39 286.28 517.74 198.21 556.33 280.98"/><polygon class="cls-97" points="517.84 195.78 560.65 205.44 558 279.52 514.2 283.22 517.84 195.78"/><polygon class="cls-98" points="522.16 202.72 518.97 277.06 555.02 274.19 558 218.87 553.14 272.01 520.65 274.78 523.47 203.62 522.16 202.72"/><polygon class="cls-8" points="614.96 277.39 580.55 281.54 584.74 212.58 614.96 277.39"/><polygon class="cls-99" points="584.82 210.67 618.34 218.24 616.27 276.25 581.97 279.14 584.82 210.67"/><polygon class="cls-98" points="588.2 216.11 585.7 274.32 613.93 272.08 616.27 228.75 612.46 270.37 587.02 272.54 589.23 216.81 588.2 216.11"/><polygon class="cls-8" points="595.92 447.73 523.7 456.44 532.49 311.7 595.92 447.73"/><polygon class="cls-100" points="532.65 307.69 603.68 304.98 598.8 441.28 526.68 451.41 532.65 307.69"/><polygon class="cls-98" points="539.75 319.11 534.5 441.28 592.84 433.27 595.92 338.44 589.75 429.68 537.28 437.55 541.91 320.58 539.75 319.11"/><polygon class="cls-98" points="552 317.03 552 319.87 587.95 318.45 587.95 315.43 552 317.03"/><polygon class="cls-98" points="545.38 336.32 545.38 338.12 568.15 337.22 568.15 335.31 545.38 336.32"/><polygon class="cls-98" points="545.38 341.29 545.38 343.09 568.15 342.19 568.15 340.28 545.38 341.29"/><polygon class="cls-98" points="545.38 346.61 545.38 348.41 568.15 347.51 568.15 345.6 545.38 346.61"/><polygon class="cls-98" points="545.38 351.93 545.38 353.73 568.15 352.83 568.15 350.92 545.38 351.93"/><polygon class="cls-98" points="545.38 368.69 545.38 370.49 568.15 369.59 568.15 367.68 545.38 368.69"/><polygon class="cls-98" points="545.38 373.66 545.38 375.46 568.15 374.56 568.15 372.65 545.38 373.66"/><polygon class="cls-98" points="545.38 378.98 545.38 380.78 568.15 379.88 568.15 377.97 545.38 378.98"/><polygon class="cls-98" points="545.38 384.3 545.38 386.1 568.15 385.2 568.15 383.29 545.38 384.3"/><polygon class="cls-98" points="544.15 404.4 544.15 406.2 566.91 405.3 566.91 403.39 544.15 404.4"/><polygon class="cls-98" points="544.15 409.37 544.15 411.17 566.91 410.27 566.91 408.36 544.15 409.37"/><polygon class="cls-98" points="544.15 414.69 544.15 416.49 566.91 415.59 566.91 413.68 544.15 414.69"/><polygon class="cls-98" points="544.15 420.01 544.15 421.81 566.91 420.91 566.91 419 544.15 420.01"/><polygon class="cls-101" points="417 26.23 1492.07 26.23 1485.11 29.77 423.96 29.77 417 26.23"/><polygon class="cls-102" points="416.04 29.77 1491.1 29.77 1484.14 33.31 951.65 37.04 423 33.31 416.04 29.77"/><polygon class="cls-101" points="601.63 125.2 1322.02 125.2 1317.36 127.16 606.3 127.16 601.63 125.2"/><polygon class="cls-103" points="600.99 127.16 1321.38 127.16 1316.71 129.12 959.89 131.19 605.65 129.12 600.99 127.16"/><g class="cls-104"><polygon class="cls-101" points="716.64 184.86 1219.16 184.86 1215.9 185.86 719.89 185.86 716.64 184.86"/><polygon class="cls-105" points="716.19 185.86 1218.7 185.86 1215.45 186.85 966.55 187.91 719.44 186.85 716.19 185.86"/></g><g class="cls-104"><polygon class="cls-101" points="766.11 217.19 1161.2 217.19 1158.64 218.19 768.66 218.19 766.11 217.19"/><polygon class="cls-106" points="765.75 218.19 1160.85 218.19 1158.29 219.19 962.59 220.24 768.31 219.19 765.75 218.19"/></g><polygon class="cls-107" points="-34.23 -188.56 821.3 249.14 825.98 241.62 62.2 -181.03 -34.23 -188.56"/><polygon class="cls-108" points="1984.65 -194.6 1106.06 249.14 1101.37 241.62 1940.81 -221.96 1984.65 -194.6"/><polygon class="cls-109" points="169.94 -181.03 821.3 242.86 72.39 -176.94 169.94 -181.03"/><path class="cls-110" d="M1751.54-198.09,1106.91,238.55s787-433.63,790.68-436.64S1751.54-198.09,1751.54-198.09Z"/><polygon class="cls-111" points="771.79 14.22 1143.44 14.22 1289.07 -160.63 639.11 -154.01 771.79 14.22"/><polygon class="cls-112" points="1220.35 -142.53 1220.35 -111.09 1140.87 18.42 774.17 18.42 694.69 -111.09 694.69 -142.53 1220.35 -142.53"/><polygon class="cls-23" points="790.87 6.66 736.66 -98.72 1184.39 -98.72 1128.18 9.18 790.87 6.66"/><polygon class="cls-113" points="880.23 176.55 1051.83 176.55 1119.07 90.8 818.97 94.05 880.23 176.55"/><polygon class="cls-114" points="1087.34 99.68 1087.34 115.09 1050.64 178.61 881.34 178.61 844.63 115.09 844.63 99.68 1087.34 99.68"/><polygon class="cls-23" points="889.04 172.84 864.01 121.16 1070.74 121.16 1044.78 174.08 889.04 172.84"/><polygon class="cls-115" points="848.26 99.68 848.26 112.04 1083.72 112.04 1083.72 100.91 848.26 99.68"/><polygon class="cls-116" points="722.43 742.46 546.94 917.29 1360.19 926.61 1228 758.94 722.43 742.46"/><polygon class="cls-117" points="867.71 532.35 791.79 607.98 1143.64 612.02 1086.44 539.48 867.71 532.35"/></g></g></svg>