<svg xmlns="http://www.w3.org/2000/svg" xmlns:xlink="http://www.w3.org/1999/xlink" viewBox="0 0 1922.51 940.83"><defs><style>.cls-1{fill:none;}.cls-2{isolation:isolate;}.cls-3{clip-path:url(#clip-path);}.cls-4{fill:url(#Áåçûìÿííûé_ãðàäèåíò_211);}.cls-5{fill:#ffb497;}.cls-6{fill:url(#Áåçûìÿííûé_ãðàäèåíò_209);}.cls-7{fill:url(#Áåçûìÿííûé_ãðàäèåíò_47);}.cls-113,.cls-114,.cls-13,.cls-131,.cls-137,.cls-20,.cls-8{opacity:0.53;}.cls-113,.cls-114,.cls-120,.cls-121,.cls-123,.cls-124,.cls-13,.cls-132,.cls-133,.cls-136,.cls-138,.cls-139,.cls-142,.cls-20,.cls-38,.cls-51,.cls-53,.cls-71,.cls-8{mix-blend-mode:screen;}.cls-8{fill:url(#Áåçûìÿííûé_ãðàäèåíò_89);}.cls-18,.cls-52,.cls-9{fill:#b2261b;}.cls-9{opacity:0.52;}.cls-111,.cls-116,.cls-119,.cls-127,.cls-128,.cls-129,.cls-134,.cls-18,.cls-32,.cls-52,.cls-54,.cls-56,.cls-9{mix-blend-mode:multiply;}.cls-10{fill:url(#Áåçûìÿííûé_ãðàäèåíò_100);}.cls-11{fill:url(#Áåçûìÿííûé_ãðàäèåíò_100-2);}.cls-12{fill:url(#Áåçûìÿííûé_ãðàäèåíò_47-2);}.cls-13{fill:url(#Áåçûìÿííûé_ãðàäèåíò_89-2);}.cls-14{fill:url(#Áåçûìÿííûé_ãðàäèåíò_100-3);}.cls-15{fill:#4f122e;}.cls-16{fill:url(#Áåçûìÿííûé_ãðàäèåíò_10);}.cls-140,.cls-141,.cls-17,.cls-47,.cls-50{opacity:0.19;}.cls-131,.cls-137,.cls-140,.cls-141,.cls-17,.cls-44,.cls-47,.cls-50,.cls-57{mix-blend-mode:color-dodge;}.cls-17{fill:url(#Áåçûìÿííûé_ãðàäèåíò_83);}.cls-18{opacity:0.66;}.cls-19{fill:url(#Áåçûìÿííûé_ãðàäèåíò_47-3);}.cls-20{fill:url(#Áåçûìÿííûé_ãðàäèåíò_89-3);}.cls-21{fill:url(#Áåçûìÿííûé_ãðàäèåíò_100-4);}.cls-22{fill:url(#Áåçûìÿííûé_ãðàäèåíò_10-2);}.cls-23{fill:url(#Áåçûìÿííûé_ãðàäèåíò_101);}.cls-24{fill:#fff;}.cls-25{fill:url(#Áåçûìÿííûé_ãðàäèåíò_101-2);}.cls-26{fill:url(#Áåçûìÿííûé_ãðàäèåíò_101-3);}.cls-27{fill:url(#Áåçûìÿííûé_ãðàäèåíò_101-4);}.cls-28{fill:url(#Áåçûìÿííûé_ãðàäèåíò_101-5);}.cls-29{fill:url(#Áåçûìÿííûé_ãðàäèåíò_101-6);}.cls-30{opacity:0.49;fill:url(#Áåçûìÿííûé_ãðàäèåíò_109);}.cls-31{fill:#80809e;}.cls-32{fill:#1cafaf;opacity:0.23;}.cls-33{fill:url(#Áåçûìÿííûé_ãðàäèåíò_143);}.cls-34{fill:url(#Áåçûìÿííûé_ãðàäèåíò_143-2);}.cls-35{fill:url(#Áåçûìÿííûé_ãðàäèåíò_143-3);}.cls-36{fill:url(#Áåçûìÿííûé_ãðàäèåíò_143-4);}.cls-37{fill:url(#Áåçûìÿííûé_ãðàäèåíò_143-5);}.cls-38{opacity:0.79;fill:url(#Áåçûìÿííûé_ãðàäèåíò_116);}.cls-39{fill:url(#Áåçûìÿííûé_ãðàäèåíò_143-6);}.cls-40{fill:url(#Áåçûìÿííûé_ãðàäèåíò_143-7);}.cls-41{fill:url(#Áåçûìÿííûé_ãðàäèåíò_143-8);}.cls-42{fill:url(#Áåçûìÿííûé_ãðàäèåíò_143-9);}.cls-43{fill:url(#Áåçûìÿííûé_ãðàäèåíò_194);}.cls-44{opacity:0.57;fill:url(#Áåçûìÿííûé_ãðàäèåíò_83-2);}.cls-45{fill:url(#Áåçûìÿííûé_ãðàäèåíò_100-5);}.cls-46{fill:url(#Áåçûìÿííûé_ãðàäèåíò_10-3);}.cls-47{fill:url(#Áåçûìÿííûé_ãðàäèåíò_83-3);}.cls-48{fill:url(#Áåçûìÿííûé_ãðàäèåíò_100-6);}.cls-49{fill:url(#Áåçûìÿííûé_ãðàäèåíò_10-4);}.cls-50{fill:url(#Áåçûìÿííûé_ãðàäèåíò_83-4);}.cls-120,.cls-121,.cls-123,.cls-124,.cls-51,.cls-53{opacity:0.76;}.cls-51{fill:url(#Áåçûìÿííûé_ãðàäèåíò_144);}.cls-52{opacity:0.12;}.cls-53{fill:url(#Áåçûìÿííûé_ãðàäèåíò_76);}.cls-54{opacity:0.24;}.cls-55{fill:#3298a0;}.cls-56{opacity:0.14;}.cls-57{opacity:0.16;}.cls-58{fill:url(#Áåçûìÿííûé_ãðàäèåíò_83-5);}.cls-59{fill:url(#Áåçûìÿííûé_ãðàäèåíò_83-6);}.cls-60{fill:url(#Áåçûìÿííûé_ãðàäèåíò_83-7);}.cls-61{fill:url(#Áåçûìÿííûé_ãðàäèåíò_83-8);}.cls-62{fill:url(#Áåçûìÿííûé_ãðàäèåíò_83-9);}.cls-63{fill:url(#Áåçûìÿííûé_ãðàäèåíò_83-10);}.cls-64{fill:url(#Áåçûìÿííûé_ãðàäèåíò_83-11);}.cls-65{fill:url(#Áåçûìÿííûé_ãðàäèåíò_83-12);}.cls-66{fill:url(#Áåçûìÿííûé_ãðàäèåíò_83-13);}.cls-67{fill:url(#Áåçûìÿííûé_ãðàäèåíò_83-14);}.cls-68{fill:url(#Áåçûìÿííûé_ãðàäèåíò_83-15);}.cls-69{fill:url(#Áåçûìÿííûé_ãðàäèåíò_83-16);}.cls-70{fill:url(#Áåçûìÿííûé_ãðàäèåíò_83-17);}.cls-142,.cls-71{opacity:0.68;}.cls-71{fill:url(#Áåçûìÿííûé_ãðàäèåíò_144-2);}.cls-72{fill:url(#Áåçûìÿííûé_ãðàäèåíò_83-18);}.cls-73{fill:url(#Áåçûìÿííûé_ãðàäèåíò_83-19);}.cls-74{fill:url(#Áåçûìÿííûé_ãðàäèåíò_83-20);}.cls-75{fill:url(#Áåçûìÿííûé_ãðàäèåíò_83-21);}.cls-76{fill:url(#Áåçûìÿííûé_ãðàäèåíò_83-22);}.cls-77{fill:url(#Áåçûìÿííûé_ãðàäèåíò_83-23);}.cls-78{fill:url(#Áåçûìÿííûé_ãðàäèåíò_83-24);}.cls-79{fill:url(#Áåçûìÿííûé_ãðàäèåíò_83-25);}.cls-80{fill:url(#Áåçûìÿííûé_ãðàäèåíò_83-26);}.cls-81{fill:url(#Áåçûìÿííûé_ãðàäèåíò_83-27);}.cls-82{fill:url(#Áåçûìÿííûé_ãðàäèåíò_83-28);}.cls-83{fill:url(#Áåçûìÿííûé_ãðàäèåíò_83-29);}.cls-84{fill:url(#Áåçûìÿííûé_ãðàäèåíò_83-30);}.cls-85{fill:url(#Áåçûìÿííûé_ãðàäèåíò_83-31);}.cls-86{fill:url(#Áåçûìÿííûé_ãðàäèåíò_83-32);}.cls-87{fill:url(#Áåçûìÿííûé_ãðàäèåíò_83-33);}.cls-88{fill:url(#Áåçûìÿííûé_ãðàäèåíò_83-34);}.cls-89{fill:url(#Áåçûìÿííûé_ãðàäèåíò_83-35);}.cls-90{fill:url(#Áåçûìÿííûé_ãðàäèåíò_83-36);}.cls-91{fill:url(#Áåçûìÿííûé_ãðàäèåíò_83-37);}.cls-92{fill:url(#Áåçûìÿííûé_ãðàäèåíò_83-38);}.cls-93{fill:url(#Áåçûìÿííûé_ãðàäèåíò_83-39);}.cls-94{fill:url(#Áåçûìÿííûé_ãðàäèåíò_83-40);}.cls-95{fill:url(#Áåçûìÿííûé_ãðàäèåíò_83-41);}.cls-96{fill:url(#Áåçûìÿííûé_ãðàäèåíò_83-42);}.cls-97{fill:url(#Áåçûìÿííûé_ãðàäèåíò_83-43);}.cls-98{fill:url(#Áåçûìÿííûé_ãðàäèåíò_83-44);}.cls-99{fill:url(#Áåçûìÿííûé_ãðàäèåíò_83-45);}.cls-100{fill:url(#Áåçûìÿííûé_ãðàäèåíò_83-46);}.cls-101{fill:url(#Áåçûìÿííûé_ãðàäèåíò_83-47);}.cls-102{fill:url(#Áåçûìÿííûé_ãðàäèåíò_83-48);}.cls-103{fill:url(#Áåçûìÿííûé_ãðàäèåíò_83-49);}.cls-104{fill:url(#Áåçûìÿííûé_ãðàäèåíò_83-50);}.cls-105{fill:url(#Áåçûìÿííûé_ãðàäèåíò_83-51);}.cls-106{fill:url(#Áåçûìÿííûé_ãðàäèåíò_83-52);}.cls-107{fill:url(#Áåçûìÿííûé_ãðàäèåíò_83-53);}.cls-108{fill:url(#Áåçûìÿííûé_ãðàäèåíò_83-54);}.cls-109{fill:url(#Áåçûìÿííûé_ãðàäèåíò_83-55);}.cls-110{fill:url(#Áåçûìÿííûé_ãðàäèåíò_83-56);}.cls-111{opacity:0.2;}.cls-112{fill:url(#Áåçûìÿííûé_ãðàäèåíò_47-4);}.cls-113{fill:url(#Áåçûìÿííûé_ãðàäèåíò_89-4);}.cls-114{fill:url(#Áåçûìÿííûé_ãðàäèåíò_89-5);}.cls-115{fill:url(#Áåçûìÿííûé_ãðàäèåíò_260);}.cls-116{fill:#6d75c9;opacity:0.39;}.cls-117{fill:url(#Áåçûìÿííûé_ãðàäèåíò_260-2);}.cls-118{fill:url(#Áåçûìÿííûé_ãðàäèåíò_260-3);}.cls-119{fill:#624ccc;opacity:0.36;}.cls-120{fill:url(#Áåçûìÿííûé_ãðàäèåíò_144-3);}.cls-121{fill:url(#Áåçûìÿííûé_ãðàäèåíò_144-4);}.cls-122{opacity:0.75;}.cls-123{fill:url(#Áåçûìÿííûé_ãðàäèåíò_144-5);}.cls-124{fill:url(#Áåçûìÿííûé_ãðàäèåíò_144-6);}.cls-125{fill:url(#Áåçûìÿííûé_ãðàäèåíò_101-7);}.cls-126{fill:url(#Áåçûìÿííûé_ãðàäèåíò_101-8);}.cls-127,.cls-128{opacity:0.22;}.cls-127{fill:url(#Áåçûìÿííûé_ãðàäèåíò_195);}.cls-128{fill:url(#Áåçûìÿííûé_ãðàäèåíò_195-2);}.cls-129,.cls-134{opacity:0.44;}.cls-129{fill:url(#Áåçûìÿííûé_ãðàäèåíò_189);}.cls-130{fill:url(#Áåçûìÿííûé_ãðàäèåíò_145);}.cls-131{fill:url(#Áåçûìÿííûé_ãðàäèåíò_172);}.cls-132,.cls-133,.cls-138,.cls-139{opacity:0.98;}.cls-132{fill:url(#Áåçûìÿííûé_ãðàäèåíò_144-7);}.cls-133{fill:url(#Áåçûìÿííûé_ãðàäèåíò_144-8);}.cls-134{fill:url(#Áåçûìÿííûé_ãðàäèåíò_189-2);}.cls-135{fill:url(#Áåçûìÿííûé_ãðàäèåíò_145-2);}.cls-136{opacity:0.87;fill:url(#Áåçûìÿííûé_ãðàäèåíò_144-9);}.cls-137{fill:url(#Áåçûìÿííûé_ãðàäèåíò_172-2);}.cls-138{fill:url(#Áåçûìÿííûé_ãðàäèåíò_144-10);}.cls-139{fill:url(#Áåçûìÿííûé_ãðàäèåíò_144-11);}.cls-140{fill:url(#Áåçûìÿííûé_ãðàäèåíò_83-57);}.cls-141{fill:url(#Áåçûìÿííûé_ãðàäèåíò_83-58);}.cls-142{fill:url(#Áåçûìÿííûé_ãðàäèåíò_144-12);}</style><clipPath id="clip-path"><rect class="cls-1" x="-4.94" y="-170.4" width="1932.39" height="1148.52"/></clipPath><linearGradient id="Áåçûìÿííûé_ãðàäèåíò_211" x1="946.43" y1="-300.07" x2="993.59" y2="558.78" gradientUnits="userSpaceOnUse"><stop offset="0" stop-color="#c94c31"/><stop offset="0.11" stop-color="#d0583b"/><stop offset="0.49" stop-color="#e7805c"/><stop offset="0.8" stop-color="#f69970"/><stop offset="0.99" stop-color="#fba277"/></linearGradient><linearGradient id="Áåçûìÿííûé_ãðàäèåíò_209" x1="1033.32" y1="999.06" x2="1047.99" y2="415.51" gradientUnits="userSpaceOnUse"><stop offset="0" stop-color="#4e7998"/><stop offset="1" stop-color="#58e3f7"/></linearGradient><linearGradient id="Áåçûìÿííûé_ãðàäèåíò_47" x1="1229.42" y1="338.03" x2="1371.74" y2="326.14" gradientTransform="matrix(-1, 0, 0, 1, 2747.52, 0)" gradientUnits="userSpaceOnUse"><stop offset="0" stop-color="#631f3b"/><stop offset="1" stop-color="#7c3b33"/></linearGradient><linearGradient id="Áåçûìÿííûé_ãðàäèåíò_89" x1="1339.49" y1="284.26" x2="1311.16" y2="357.77" gradientTransform="matrix(-1, 0, 0, 1, 2747.52, 0)" gradientUnits="userSpaceOnUse"><stop offset="0" stop-color="#ff5946"/><stop offset="1"/></linearGradient><linearGradient id="Áåçûìÿííûé_ãðàäèåíò_100" x1="369.17" y1="462.96" x2="384.24" y2="737.33" gradientUnits="userSpaceOnUse"><stop offset="0" stop-color="#7c3b33"/><stop offset="1" stop-color="#631f3b"/></linearGradient><linearGradient id="Áåçûìÿííûé_ãðàäèåíò_100-2" x1="-62.81" y1="465.47" x2="-47.85" y2="737.86" gradientTransform="matrix(-1, 0, 0, 1, 1500.33, 0)" xlink:href="#Áåçûìÿííûé_ãðàäèåíò_100"/><linearGradient id="Áåçûìÿííûé_ãðàäèåíò_47-2" x1="281.38" y1="331.84" x2="488.8" y2="314.52" gradientTransform="matrix(1, 0, 0, 1, 0, 0)" xlink:href="#Áåçûìÿííûé_ãðàäèåíò_47"/><linearGradient id="Áåçûìÿííûé_ãðàäèåíò_89-2" x1="440.01" y1="252.79" x2="398.73" y2="359.93" gradientTransform="matrix(1, 0, 0, 1, 0, 0)" xlink:href="#Áåçûìÿííûé_ãðàäèåíò_89"/><linearGradient id="Áåçûìÿííûé_ãðàäèåíò_100-3" x1="163.46" y1="154.05" x2="250.57" y2="736.88" xlink:href="#Áåçûìÿííûé_ãðàäèåíò_100"/><linearGradient id="Áåçûìÿííûé_ãðàäèåíò_10" x1="413.62" y1="871.51" x2="349.26" y2="854.49" gradientUnits="userSpaceOnUse"><stop offset="0" stop-color="#757da2"/><stop offset="1" stop-color="#58e3f7"/></linearGradient><linearGradient id="Áåçûìÿííûé_ãðàäèåíò_83" x1="85.86" y1="689.64" x2="381" y2="877.37" gradientUnits="userSpaceOnUse"><stop offset="0" stop-color="#45ffff"/><stop offset="1"/></linearGradient><linearGradient id="Áåçûìÿííûé_ãðàäèåíò_47-3" x1="598.57" y1="324.47" x2="705.91" y2="315.51" gradientTransform="matrix(1, 0, 0, 1, 0, 0)" xlink:href="#Áåçûìÿííûé_ãðàäèåíò_47"/><linearGradient id="Áåçûìÿííûé_ãðàäèåíò_89-3" x1="680.66" y1="283.56" x2="659.29" y2="339" gradientTransform="matrix(1, 0, 0, 1, 0, 0)" xlink:href="#Áåçûìÿííûé_ãðàäèåíò_89"/><linearGradient id="Áåçûìÿííûé_ãðàäèåíò_100-4" x1="746.3" y1="265.21" x2="777.5" y2="473.92" xlink:href="#Áåçûìÿííûé_ãðàäèåíò_100"/><linearGradient id="Áåçûìÿííûé_ãðàäèåíò_10-2" x1="835.88" y1="522.13" x2="812.84" y2="516.04" xlink:href="#Áåçûìÿííûé_ãðàäèåíò_10"/><linearGradient id="Áåçûìÿííûé_ãðàäèåíò_101" x1="980.12" y1="493.95" x2="972.76" y2="392.22" gradientUnits="userSpaceOnUse"><stop offset="0" stop-color="#c43c2b"/><stop offset="1" stop-color="#ab1553"/></linearGradient><linearGradient id="Áåçûìÿííûé_ãðàäèåíò_101-2" x1="881.36" y1="326.5" x2="890.73" y2="326.5" xlink:href="#Áåçûìÿííûé_ãðàäèåíò_101"/><linearGradient id="Áåçûìÿííûé_ãðàäèåíò_101-3" x1="861.37" y1="328.88" x2="870.74" y2="328.88" gradientTransform="matrix(-1, 0, 0, 1, 1897.92, 0)" xlink:href="#Áåçûìÿííûé_ãðàäèåíò_101"/><linearGradient id="Áåçûìÿííûé_ãðàäèåíò_101-4" x1="939.89" y1="328.18" x2="949.25" y2="328.18" gradientTransform="translate(26.71 -24.76) rotate(1.55)" xlink:href="#Áåçûìÿííûé_ãðàäèåíò_101"/><linearGradient id="Áåçûìÿííûé_ãðàäèåíò_101-5" x1="1082.14" y1="269.33" x2="846.8" y2="269.33" xlink:href="#Áåçûìÿííûé_ãðàäèåíò_101"/><linearGradient id="Áåçûìÿííûé_ãðàäèåíò_101-6" x1="1080.22" y1="391.78" x2="850.23" y2="391.78" xlink:href="#Áåçûìÿííûé_ãðàäèåíò_101"/><linearGradient id="Áåçûìÿííûé_ãðàäèåíò_109" x1="1135.67" y1="318.37" x2="914.85" y2="336.34" gradientUnits="userSpaceOnUse"><stop offset="0" stop-color="#17fbff"/><stop offset="1" stop-color="#fffeb9"/></linearGradient><linearGradient id="Áåçûìÿííûé_ãðàäèåíò_143" x1="988.66" y1="377.16" x2="1037.86" y2="275.77" gradientUnits="userSpaceOnUse"><stop offset="0" stop-color="#80809e"/><stop offset="1" stop-color="#616daa"/></linearGradient><linearGradient id="Áåçûìÿííûé_ãðàäèåíò_143-2" x1="1000.46" y1="382.88" x2="1049.65" y2="281.49" xlink:href="#Áåçûìÿííûé_ãðàäèåíò_143"/><linearGradient id="Áåçûìÿííûé_ãðàäèåíò_143-3" x1="1009.83" y1="387.43" x2="1059.02" y2="286.03" xlink:href="#Áåçûìÿííûé_ãðàäèåíò_143"/><linearGradient id="Áåçûìÿííûé_ãðàäèåíò_143-4" x1="1018.71" y1="391.74" x2="1067.9" y2="290.34" xlink:href="#Áåçûìÿííûé_ãðàäèåíò_143"/><linearGradient id="Áåçûìÿííûé_ãðàäèåíò_143-5" x1="1030.5" y1="397.46" x2="1079.7" y2="296.06" xlink:href="#Áåçûìÿííûé_ãðàäèåíò_143"/><linearGradient id="Áåçûìÿííûé_ãðàäèåíò_116" x1="940.57" y1="353.41" x2="1075.09" y2="303.97" gradientUnits="userSpaceOnUse"><stop offset="0" stop-color="#c7ec7c"/><stop offset="1"/></linearGradient><linearGradient id="Áåçûìÿííûé_ãðàäèåíò_143-6" x1="1039.87" y1="402" x2="1089.06" y2="300.61" xlink:href="#Áåçûìÿííûé_ãðàäèåíò_143"/><linearGradient id="Áåçûìÿííûé_ãðàäèåíò_143-7" x1="1049.38" y1="400.57" x2="1093.23" y2="310.19" xlink:href="#Áåçûìÿííûé_ãðàäèåíò_143"/><linearGradient id="Áåçûìÿííûé_ãðàäèåíò_143-8" x1="1060.41" y1="386.85" x2="1093.63" y2="318.38" xlink:href="#Áåçûìÿííûé_ãðàäèåíò_143"/><linearGradient id="Áåçûìÿííûé_ãðàäèåíò_143-9" x1="1072.28" y1="368.53" x2="1096.56" y2="318.48" xlink:href="#Áåçûìÿííûé_ãðàäèåíò_143"/><linearGradient id="Áåçûìÿííûé_ãðàäèåíò_194" x1="986.41" y1="-146.44" x2="977.37" y2="178.82" gradientUnits="userSpaceOnUse"><stop offset="0" stop-color="#ffe3d8"/><stop offset="1" stop-color="#d9d4f7"/></linearGradient><linearGradient id="Áåçûìÿííûé_ãðàäèåíò_83-2" x1="960.15" y1="316.98" x2="964.84" y2="467.57" xlink:href="#Áåçûìÿííûé_ãðàäèåíò_83"/><linearGradient id="Áåçûìÿííûé_ãðàäèåíò_100-5" x1="974.96" y1="154.52" x2="1062.07" y2="737.35" gradientTransform="matrix(-1, 0, 0, 1, 2747.52, 0)" xlink:href="#Áåçûìÿííûé_ãðàäèåíò_100"/><linearGradient id="Áåçûìÿííûé_ãðàäèåíò_10-3" x1="1225.12" y1="871.98" x2="1160.76" y2="854.96" gradientTransform="matrix(-1, 0, 0, 1, 2747.52, 0)" xlink:href="#Áåçûìÿííûé_ãðàäèåíò_10"/><linearGradient id="Áåçûìÿííûé_ãðàäèåíò_83-3" x1="1819.16" y1="709.02" x2="1557.14" y2="886.71" xlink:href="#Áåçûìÿííûé_ãðàäèåíò_83"/><linearGradient id="Áåçûìÿííûé_ãðàäèåíò_100-6" x1="1427.52" y1="254.44" x2="1469.32" y2="534.13" gradientTransform="matrix(-1, 0, 0, 1, 2747.52, 0)" xlink:href="#Áåçûìÿííûé_ãðàäèåíò_100"/><linearGradient id="Áåçûìÿííûé_ãðàäèåíò_10-4" x1="1547.56" y1="598.73" x2="1516.68" y2="590.56" gradientTransform="matrix(-1, 0, 0, 1, 2747.52, 0)" xlink:href="#Áåçûìÿííûé_ãðàäèåíò_10"/><linearGradient id="Áåçûìÿííûé_ãðàäèåíò_83-4" x1="1407.32" y1="537.54" x2="1502.1" y2="591.9" gradientTransform="matrix(-1, 0, 0, 1, 2747.52, 0)" xlink:href="#Áåçûìÿííûé_ãðàäèåíò_83"/><linearGradient id="Áåçûìÿííûé_ãðàäèåíò_144" x1="968.9" y1="349.96" x2="974.29" gradientUnits="userSpaceOnUse"><stop offset="0" stop-color="#ffec46"/><stop offset="1"/></linearGradient><radialGradient id="Áåçûìÿííûé_ãðàäèåíò_76" cx="910.84" cy="320.17" r="146.27" xlink:href="#Áåçûìÿííûé_ãðàäèåíò_144"/><linearGradient id="Áåçûìÿííûé_ãðàäèåíò_83-5" x1="557.7" y1="502.73" x2="541.61" y2="813.49" xlink:href="#Áåçûìÿííûé_ãðàäèåíò_83"/><linearGradient id="Áåçûìÿííûé_ãðàäèåíò_83-6" x1="537.98" y1="499.42" x2="521.71" y2="813.45" xlink:href="#Áåçûìÿííûé_ãðàäèåíò_83"/><linearGradient id="Áåçûìÿííûé_ãðàäèåíò_83-7" x1="523.83" y1="493.65" x2="507.2" y2="814.81" xlink:href="#Áåçûìÿííûé_ãðàäèåíò_83"/><linearGradient id="Áåçûìÿííûé_ãðàäèåíò_83-8" x1="612.17" y1="516.18" x2="596.8" y2="812.97" xlink:href="#Áåçûìÿííûé_ãðàäèåíò_83"/><linearGradient id="Áåçûìÿííûé_ãðàäèåíò_83-9" x1="533.94" y1="500.52" x2="517.84" y2="811.33" xlink:href="#Áåçûìÿííûé_ãðàäèåíò_83"/><linearGradient id="Áåçûìÿííûé_ãðàäèåíò_83-10" x1="676.04" y1="528.02" x2="661.42" y2="810.35" xlink:href="#Áåçûìÿííûé_ãðàäèåíò_83"/><linearGradient id="Áåçûìÿííûé_ãðàäèåíò_83-11" x1="713.84" y1="526.99" x2="698.94" y2="814.67" xlink:href="#Áåçûìÿííûé_ãðàäèåíò_83"/><linearGradient id="Áåçûìÿííûé_ãðàäèåíò_83-12" x1="741.36" y1="519.85" x2="725.6" y2="824.21" xlink:href="#Áåçûìÿííûé_ãðàäèåíò_83"/><linearGradient id="Áåçûìÿííûé_ãðàäèåíò_83-13" x1="720.56" y1="531.76" x2="705.93" y2="814.22" xlink:href="#Áåçûìÿííûé_ãðàäèåíò_83"/><linearGradient id="Áåçûìÿííûé_ãðàäèåíò_83-14" x1="617.42" y1="518.59" x2="602.08" y2="814.73" xlink:href="#Áåçûìÿííûé_ãðàäèåíò_83"/><linearGradient id="Áåçûìÿííûé_ãðàäèåíò_83-15" x1="632.31" y1="515.26" x2="616.5" y2="820.55" xlink:href="#Áåçûìÿííûé_ãðàäèåíò_83"/><linearGradient id="Áåçûìÿííûé_ãðàäèåíò_83-16" x1="668.69" y1="516.4" x2="652.76" y2="823.97" xlink:href="#Áåçûìÿííûé_ãðàäèåíò_83"/><linearGradient id="Áåçûìÿííûé_ãðàäèåíò_83-17" x1="649.42" y1="498.14" x2="632.29" y2="828.83" xlink:href="#Áåçûìÿííûé_ãðàäèåíò_83"/><linearGradient id="Áåçûìÿííûé_ãðàäèåíò_144-2" x1="556.93" y1="762.46" x2="490.95" y2="432.56" xlink:href="#Áåçûìÿííûé_ãðàäèåíò_144"/><linearGradient id="Áåçûìÿííûé_ãðàäèåíò_83-18" x1="907.43" y1="529.7" x2="891.33" y2="840.46" xlink:href="#Áåçûìÿííûé_ãðàäèåíò_83"/><linearGradient id="Áåçûìÿííûé_ãðàäèåíò_83-19" x1="887.68" y1="526.77" x2="871.42" y2="840.79" xlink:href="#Áåçûìÿííûé_ãðàäèåíò_83"/><linearGradient id="Áåçûìÿííûé_ãðàäèåíò_83-20" x1="873.49" y1="521.84" x2="856.86" y2="842.97" xlink:href="#Áåçûìÿííûé_ãðàäèåíò_83"/><linearGradient id="Áåçûìÿííûé_ãðàäèåíò_83-21" x1="961.98" y1="541.52" x2="946.61" y2="838.33" xlink:href="#Áåçûìÿííûé_ãðàäèåíò_83"/><linearGradient id="Áåçûìÿííûé_ãðàäèåíò_83-22" x1="883.66" y1="527.51" x2="867.56" y2="838.29" xlink:href="#Áåçûìÿííûé_ãðàäèåíò_83"/><linearGradient id="Áåçûìÿííûé_ãðàäèåíò_83-23" x1="1025.94" y1="551.69" x2="1011.31" y2="834.03" xlink:href="#Áåçûìÿííûé_ãðàäèåíò_83"/><linearGradient id="Áåçûìÿííûé_ãðàäèåíò_83-24" x1="1063.7" y1="551.3" x2="1048.8" y2="838.95" xlink:href="#Áåçûìÿííûé_ãðàäèåíò_83"/><linearGradient id="Áåçûìÿííûé_ãðàäèåíò_83-25" x1="1091.12" y1="546.08" x2="1075.36" y2="850.42" xlink:href="#Áåçûìÿííûé_ãðàäèåíò_83"/><linearGradient id="Áåçûìÿííûé_ãðàäèåíò_83-26" x1="1070.45" y1="555.49" x2="1055.82" y2="837.86" xlink:href="#Áåçûìÿííûé_ãðàäèåíò_83"/><linearGradient id="Áåçûìÿííûé_ãðàäèåíò_83-27" x1="967.23" y1="543.86" x2="951.89" y2="840" xlink:href="#Áåçûìÿííûé_ãðàäèåíò_83"/><linearGradient id="Áåçûìÿííûé_ãðàäèåíò_83-28" x1="982.07" y1="541.59" x2="966.25" y2="846.89" xlink:href="#Áåçûìÿííûé_ãðàäèåíò_83"/><linearGradient id="Áåçûìÿííûé_ãðàäèåíò_83-29" x1="1018.43" y1="543" x2="1002.5" y2="850.57" xlink:href="#Áåçûìÿííûé_ãðàäèåíò_83"/><linearGradient id="Áåçûìÿííûé_ãðàäèåíò_83-30" x1="999.02" y1="527.42" x2="981.89" y2="858.1" xlink:href="#Áåçûìÿííûé_ãðàäèåíò_83"/><linearGradient id="Áåçûìÿííûé_ãðàäèåíò_83-31" x1="835.75" y1="524.9" x2="819.65" y2="835.65" xlink:href="#Áåçûìÿííûé_ãðàäèåíò_83"/><linearGradient id="Áåçûìÿííûé_ãðàäèåíò_83-32" x1="816.01" y1="521.8" x2="799.75" y2="835.83" xlink:href="#Áåçûìÿííûé_ãðàäèåíò_83"/><linearGradient id="Áåçûìÿííûé_ãðàäèåíò_83-33" x1="801.84" y1="516.5" x2="785.21" y2="837.66" xlink:href="#Áåçûìÿííûé_ãðàäèåíò_83"/><linearGradient id="Áåçûìÿííûé_ãðàäèåíò_83-34" x1="890.26" y1="537.43" x2="874.89" y2="834.22" xlink:href="#Áåçûìÿííûé_ãðàäèåíò_83"/><linearGradient id="Áåçûìÿííûé_ãðàäèåíò_83-35" x1="811.98" y1="522.68" x2="795.88" y2="833.5" xlink:href="#Áåçûìÿííûé_ãðàäèåíò_83"/><linearGradient id="Áåçûìÿííûé_ãðàäèåíò_83-36" x1="954.18" y1="548.32" x2="939.56" y2="830.66" xlink:href="#Áåçûìÿííûé_ãðàäèåíò_83"/><linearGradient id="Áåçûìÿííûé_ãðàäèåíò_83-37" x1="991.96" y1="547.66" x2="977.06" y2="835.31" xlink:href="#Áåçûìÿííûé_ãðàäèåíò_83"/><linearGradient id="Áåçûìÿííûé_ãðàäèåíò_83-38" x1="1019.42" y1="541.6" x2="1003.66" y2="845.95" xlink:href="#Áåçûìÿííûé_ãðàäèåíò_83"/><linearGradient id="Áåçûìÿííûé_ãðàäèåíò_83-39" x1="998.69" y1="552.11" x2="984.07" y2="834.48" xlink:href="#Áåçûìÿííûé_ãðàäèåíò_83"/><linearGradient id="Áåçûìÿííûé_ãðàäèåíò_83-40" x1="895.51" y1="539.8" x2="880.17" y2="835.93" xlink:href="#Áåçûìÿííûé_ãðàäèåíò_83"/><linearGradient id="Áåçûìÿííûé_ãðàäèåíò_83-41" x1="910.37" y1="537.12" x2="894.56" y2="842.33" xlink:href="#Áåçûìÿííûé_ãðàäèåíò_83"/><linearGradient id="Áåçûìÿííûé_ãðàäèåíò_83-42" x1="946.74" y1="538.35" x2="930.81" y2="845.93" xlink:href="#Áåçûìÿííûé_ãðàäèåíò_83"/><linearGradient id="Áåçûìÿííûé_ãðàäèåíò_83-43" x1="927.39" y1="521.61" x2="910.26" y2="852.3" xlink:href="#Áåçûìÿííûé_ãðàäèåíò_83"/><linearGradient id="Áåçûìÿííûé_ãðàäèåíò_83-44" x1="1185.47" y1="551.86" x2="1169.37" y2="862.62" xlink:href="#Áåçûìÿííûé_ãðàäèåíò_83"/><linearGradient id="Áåçûìÿííûé_ãðàäèåíò_83-45" x1="1165.71" y1="549.16" x2="1149.45" y2="863.17" xlink:href="#Áåçûìÿííûé_ãðàäèåíò_83"/><linearGradient id="Áåçûìÿííûé_ãðàäèåíò_83-46" x1="1151.5" y1="544.69" x2="1134.87" y2="865.81" xlink:href="#Áåçûìÿííûé_ãðàäèåíò_83"/><linearGradient id="Áåçûìÿííûé_ãðàäèåíò_83-47" x1="1240.07" y1="562.77" x2="1224.7" y2="859.58" xlink:href="#Áåçûìÿííûé_ãðàäèåíò_83"/><linearGradient id="Áåçûìÿííûé_ãðàäèåíò_83-48" x1="1161.7" y1="549.67" x2="1145.6" y2="860.47" xlink:href="#Áåçûìÿííûé_ãðàäèåíò_83"/><linearGradient id="Áåçûìÿííûé_ãðàäèåíò_83-49" x1="1304.08" y1="571.99" x2="1289.45" y2="854.33" xlink:href="#Áåçûìÿííûé_ãðàäèåíò_83"/><linearGradient id="Áåçûìÿííûé_ãðàäèåíò_83-50" x1="1341.82" y1="571.93" x2="1326.92" y2="859.62" xlink:href="#Áåçûìÿííûé_ãðàäèåíò_83"/><linearGradient id="Áåçûìÿííûé_ãðàäèåíò_83-51" x1="1369.19" y1="567.82" x2="1353.42" y2="872.18" xlink:href="#Áåçûìÿííûé_ãðàäèåíò_83"/><linearGradient id="Áåçûìÿííûé_ãðàäèåíò_83-52" x1="1348.59" y1="575.79" x2="1333.96" y2="858.16" xlink:href="#Áåçûìÿííûé_ãðàäèåíò_83"/><linearGradient id="Áåçûìÿííûé_ãðàäèåíò_83-53" x1="1245.32" y1="565.07" x2="1229.98" y2="861.2" xlink:href="#Áåçûìÿííûé_ãðàäèåíò_83"/><linearGradient id="Áåçûìÿííûé_ãðàäèåíò_83-54" x1="1260.13" y1="563.4" x2="1244.31" y2="868.69" xlink:href="#Áåçûìÿííûé_ãðàäèåíò_83"/><linearGradient id="Áåçûìÿííûé_ãðàäèåíò_83-55" x1="1296.48" y1="564.94" x2="1280.55" y2="872.54" xlink:href="#Áåçûìÿííûé_ãðàäèåíò_83"/><linearGradient id="Áåçûìÿííûé_ãðàäèåíò_83-56" x1="1276.99" y1="550.9" x2="1259.87" y2="881.57" xlink:href="#Áåçûìÿííûé_ãðàäèåíò_83"/><linearGradient id="Áåçûìÿííûé_ãðàäèåíò_47-4" x1="497.66" y1="563.01" x2="573.52" y2="255.08" gradientTransform="matrix(1, 0, 0, 1, 0, 0)" xlink:href="#Áåçûìÿííûé_ãðàäèåíò_47"/><linearGradient id="Áåçûìÿííûé_ãðàäèåíò_89-4" x1="592.77" y1="129.45" x2="526.3" y2="252.24" gradientTransform="matrix(1, 0, 0, 1, 0, 0)" xlink:href="#Áåçûìÿííûé_ãðàäèåíò_89"/><linearGradient id="Áåçûìÿííûé_ãðàäèåíò_89-5" x1="745.38" y1="464.88" x2="526.83" y2="346.02" gradientTransform="matrix(1, 0, 0, 1, 0, 0)" xlink:href="#Áåçûìÿííûé_ãðàäèåíò_89"/><linearGradient id="Áåçûìÿííûé_ãðàäèåíò_260" x1="514.83" y1="321.88" x2="554.82" y2="175.99" gradientUnits="userSpaceOnUse"><stop offset="0" stop-color="#d9d4f7"/><stop offset="1" stop-color="#ffe3d8"/></linearGradient><linearGradient id="Áåçûìÿííûé_ãðàäèåíò_260-2" x1="582.46" y1="309.42" x2="613.78" y2="195.17" xlink:href="#Áåçûìÿííûé_ãðàäèåíò_260"/><linearGradient id="Áåçûìÿííûé_ãðàäèåíò_260-3" x1="525.22" y1="522.25" x2="599.25" y2="252.2" xlink:href="#Áåçûìÿííûé_ãðàäèåíò_260"/><linearGradient id="Áåçûìÿííûé_ãðàäèåíò_144-3" x1="951.38" y1="-55.01" x2="957.83" y2="194.65" xlink:href="#Áåçûìÿííûé_ãðàäèåíò_144"/><linearGradient id="Áåçûìÿííûé_ãðàäèåíò_144-4" x1="959.74" y1="71.28" x2="963.98" y2="235.28" xlink:href="#Áåçûìÿííûé_ãðàäèåíò_144"/><linearGradient id="Áåçûìÿííûé_ãðàäèåíò_144-5" x1="966.46" y1="147.72" x2="969.34" y2="259.16" xlink:href="#Áåçûìÿííûé_ãðàäèåíò_144"/><linearGradient id="Áåçûìÿííûé_ãðàäèåíò_144-6" x1="962.51" y1="187.72" x2="964.82" y2="277.05" xlink:href="#Áåçûìÿííûé_ãðàäèåíò_144"/><linearGradient id="Áåçûìÿííûé_ãðàäèåíò_101-7" x1="87.18" y1="-146.78" x2="854.74" y2="244.69" xlink:href="#Áåçûìÿííûé_ãðàäèåíò_101"/><linearGradient id="Áåçûìÿííûé_ãðàäèåíò_101-8" x1="1846.98" y1="-146.63" x2="1206.99" y2="194.26" xlink:href="#Áåçûìÿííûé_ãðàäèåíò_101"/><linearGradient id="Áåçûìÿííûé_ãðàäèåíò_195" x1="305.38" y1="82.21" x2="534.87" y2="2.32" gradientUnits="userSpaceOnUse"><stop offset="0" stop-color="#8840a9"/><stop offset="1" stop-color="#ffddce"/></linearGradient><linearGradient id="Áåçûìÿííûé_ãðàäèåíò_195-2" x1="1945.08" y1="-82.66" x2="1287.99" y2="48.4" xlink:href="#Áåçûìÿííûé_ãðàäèåíò_195"/><linearGradient id="Áåçûìÿííûé_ãðàäèåíò_189" x1="963.37" y1="-192.01" x2="967.17" y2="-8.03" gradientUnits="userSpaceOnUse"><stop offset="0" stop-color="#ffddce"/><stop offset="1" stop-color="#8840a9"/></linearGradient><linearGradient id="Áåçûìÿííûé_ãðàäèåíò_145" x1="969.78" y1="83.55" x2="951.2" y2="-235.19" gradientUnits="userSpaceOnUse"><stop offset="0" stop-color="#ffb69a"/><stop offset="1" stop-color="#ffe3d0"/></linearGradient><linearGradient id="Áåçûìÿííûé_ãðàäèåíò_172" x1="960.96" y1="-98.2" x2="963.8" y2="461.64" gradientUnits="userSpaceOnUse"><stop offset="0" stop-color="#ea6c45"/><stop offset="1"/></linearGradient><linearGradient id="Áåçûìÿííûé_ãðàäèåíò_144-7" x1="569.13" y1="-165.84" x2="579.14" y2="95.93" xlink:href="#Áåçûìÿííûé_ãðàäèåíò_144"/><linearGradient id="Áåçûìÿííûé_ãðàäèåíò_144-8" x1="1341.46" y1="-193.19" x2="1351.43" y2="67.47" xlink:href="#Áåçûìÿííûé_ãðàäèåíò_144"/><linearGradient id="Áåçûìÿííûé_ãðàäèåíò_189-2" x1="969.47" y1="76.06" x2="966.45" y2="186.48" xlink:href="#Áåçûìÿííûé_ãðàäèåíò_189"/><linearGradient id="Áåçûìÿííûé_ãðàäèåíò_145-2" x1="971.97" y1="210.02" x2="962.93" y2="54.98" xlink:href="#Áåçûìÿííûé_ãðàäèåíò_145"/><linearGradient id="Áåçûìÿííûé_ãðàäèåíò_144-9" x1="962.2" y1="76.15" x2="977.96" y2="202.23" xlink:href="#Áåçûìÿííûé_ãðàäèåíò_144"/><linearGradient id="Áåçûìÿííûé_ãðàäèåíò_172-2" x1="942.66" y1="121.57" x2="944.05" y2="395.51" xlink:href="#Áåçûìÿííûé_ãðàäèåíò_172"/><linearGradient id="Áåçûìÿííûé_ãðàäèåíò_144-10" x1="786.53" y1="88.88" x2="791.39" y2="216.11" xlink:href="#Áåçûìÿííûé_ãðàäèåíò_144"/><linearGradient id="Áåçûìÿííûé_ãðàäèåíò_144-11" x1="1143.09" y1="75.24" x2="1147.95" y2="202.47" xlink:href="#Áåçûìÿííûé_ãðàäèåíò_144"/><linearGradient id="Áåçûìÿííûé_ãðàäèåíò_83-57" x1="938.66" y1="1140.02" x2="976.81" y2="581.85" xlink:href="#Áåçûìÿííûé_ãðàäèåíò_83"/><linearGradient id="Áåçûìÿííûé_ãðàäèåíò_83-58" x1="961.26" y1="704.35" x2="977.77" y2="462.86" xlink:href="#Áåçûìÿííûé_ãðàäèåíò_83"/><linearGradient id="Áåçûìÿííûé_ãðàäèåíò_144-12" x1="1488.77" y1="848.55" x2="1490.24" y2="486.4" xlink:href="#Áåçûìÿííûé_ãðàäèåíò_144"/></defs><g class="cls-2"><g id="Capa_8" data-name="Capa 8"><g class="cls-3"><polygon class="cls-4" points="1929.38 1071.52 -10.35 1071.52 -31.88 -174.37 1984.65 -188.56 1929.38 1071.52"/><polygon class="cls-5" points="821.3 463.39 821.3 242.86 1106.91 242.86 1106.91 465.38 821.3 463.39"/><polygon class="cls-6" points="2282.09 1070.69 1106.91 465.38 1106.91 420.93 821.47 420.93 821.47 463.12 -217.94 1026.66 2282.09 1070.69"/><polygon class="cls-7" points="1460.66 310.45 1462.84 356.2 1392.54 343.64 1392.54 314.78 1460.66 310.45"/><polygon class="cls-8" points="1453.92 315.08 1396.82 318.69 1396.09 341.52 1454.6 349.58 1453.92 315.08"/><polygon class="cls-9" points="1460.66 310.45 1464.71 313.82 1468.81 365.11 1397.23 349.58 1395.04 334.07 1460.66 310.45"/><polygon class="cls-10" points="-46.9 903.18 821.3 461.13 823.84 463.12 -59.19 941.88 -46.9 903.18"/><polygon class="cls-11" points="1992.51 901.17 1107.19 463.27 1104.64 465.25 1995.52 941.33 1992.51 901.17"/><polygon class="cls-12" points="365.11 291.65 361.92 358.32 460.13 340.77 464.38 297.96 365.11 291.65"/><polygon class="cls-13" points="374.93 298.4 458.14 303.67 455.48 335.94 373.93 348.67 374.93 298.4"/><polygon class="cls-9" points="365.11 291.65 359.2 296.56 353.23 371.3 457.54 348.67 460.73 326.07 365.11 291.65"/><polygon class="cls-14" points="93.62 876.63 62.2 149.18 347.49 195.5 313.64 757.34 298.99 765.28 255.37 765.28 93.62 876.63"/><polygon class="cls-15" points="62.2 149.18 89.57 182.86 72.39 150.83 62.2 149.18"/><polygon class="cls-15" points="326.63 217.35 347.49 195.5 346.66 202.43 326.63 217.35"/><polygon class="cls-16" points="109.82 867.08 109.21 846.41 268.84 765.28 298.99 765.28 109.82 867.08"/><polygon class="cls-17" points="285.65 754.52 446.84 758.82 269.9 896.8 109.83 865.32 109.21 845.89 285.65 754.52"/><polygon class="cls-15" points="51.15 154.97 71.66 870.12 93.62 876.63 62.2 149.18 51.15 154.97"/><polygon class="cls-18" points="89.57 182.86 86.11 195.5 109.83 865.32 89.57 182.86"/><polygon class="cls-15" points="310.95 217.35 326.63 217.35 298.99 765.28 268.84 765.28 285.65 754.52 310.95 217.35"/><polygon class="cls-19" points="641.89 303.67 640.25 338.17 691.07 329.09 693.27 306.94 641.89 303.67"/><polygon class="cls-20" points="646.98 307.17 690.04 309.89 688.66 326.59 646.46 333.18 646.98 307.17"/><polygon class="cls-9" points="641.89 303.67 638.84 306.21 635.75 344.89 689.73 333.18 691.38 321.49 641.89 303.67"/><polygon class="cls-21" points="721.29 523.97 710.04 263.47 812.2 280.05 800.08 481.25 794.84 484.09 779.22 484.09 721.29 523.97"/><polygon class="cls-22" points="727.09 520.55 726.88 513.15 784.04 484.09 794.84 484.09 727.09 520.55"/><polygon class="cls-15" points="706.08 265.54 713.43 521.64 721.29 523.97 710.04 263.47 706.08 265.54"/><polygon class="cls-15" points="710.04 263.47 719.84 275.53 713.69 264.06 710.04 263.47"/><polygon class="cls-15" points="804.73 287.88 812.2 280.05 811.9 282.54 804.73 287.88"/><polygon class="cls-15" points="799.12 287.88 804.73 287.88 794.84 484.09 784.04 484.09 790.06 480.24 799.12 287.88"/><polygon class="cls-23" points="851.16 420.32 842.63 242.86 1085.57 242.86 1080.86 420.93 851.16 420.32"/><polygon class="cls-24" points="855.07 417.31 846.8 239.85 1082.14 239.85 1077.58 417.91 855.07 417.31"/><polygon class="cls-25" points="881.37 235.59 889.06 417.4 890.74 417.4 884.71 235.59 881.37 235.59"/><polygon class="cls-26" points="1036.56 237.98 1028.86 419.79 1027.18 419.79 1033.21 237.98 1036.56 237.98"/><polygon class="cls-27" points="959.79 237.88 962.55 419.84 964.22 419.88 963.14 237.97 959.79 237.88"/><rect class="cls-28" x="846.8" y="268.26" width="235.34" height="2.13"/><rect class="cls-29" x="850.23" y="390.72" width="229.99" height="2.13"/><polygon class="cls-30" points="1106.9 256.6 1106.9 308.58 1082.15 307.54 1056.77 323.42 1054.69 324.74 982.34 370.04 980.51 371.18 939.52 396.85 936.91 398.48 936.61 398.68 933.88 356.19 1085.57 258.68 1106.9 256.6"/><polygon class="cls-31" points="1106.9 256.6 1106.9 260.37 1085.57 262.2 1055.08 281.65 1052.64 283.2 982.34 328.04 979.12 330.11 937.42 356.71 939.52 396.85 940.17 409.04 937.67 409.04 936.91 398.48 933.88 356.19 1085.57 258.68 1106.9 256.6"/><polygon class="cls-32" points="942.94 390.44 1076.71 305.61 1076.71 281.52 944.19 376.89 942.94 390.44"/><polygon class="cls-31" points="979.08 328.88 981.09 387.72 982.34 387.72 982.34 327.67 979.08 328.88"/><polygon class="cls-31" points="1052.64 283.21 1055.37 338.47 1057.38 338.47 1055.01 279.57 1052.64 283.21"/><polygon class="cls-33" points="937.83 421.39 935.24 409.18 1006.3 409.92 1004.92 421.76 937.83 421.39"/><polygon class="cls-34" points="958.18 409.48 955.59 397.27 1026.65 398.02 1025.27 409.86 958.18 409.48"/><polygon class="cls-35" points="975.32 398 972.73 385.79 1043.79 386.54 1042.41 398.38 975.32 398"/><polygon class="cls-36" points="992.11 386.01 989.52 373.8 1060.58 374.55 1059.19 386.39 992.11 386.01"/><polygon class="cls-37" points="1012.46 374.11 1009.87 361.9 1080.93 362.64 1079.54 374.49 1012.46 374.11"/><polygon class="cls-38" points="944.44 366.35 944.44 356.71 1014.47 311.89 1014.47 315.08 944.44 366.35"/><polygon class="cls-39" points="1029.6 362.63 1027.01 350.42 1098.07 351.16 1096.69 363 1029.6 362.63"/><polygon class="cls-40" points="1106.9 339.11 1106.9 351 1054.71 350.71 1048.63 350.67 1048.63 350.65 1046.04 338.46 1068.96 338.7 1083.82 338.86 1106.9 339.11"/><polygon class="cls-41" points="1106.9 327 1106.9 338.99 1083.82 338.86 1068.98 338.78 1068.96 338.7 1066.38 326.57 1086 326.76 1106.9 327"/><polygon class="cls-42" points="1106.9 315.32 1106.9 327.41 1086.12 327.3 1086 326.76 1083.53 315.09 1106.9 315.32"/><polygon class="cls-43" points="1920.94 -190.41 1106.91 242.86 821.3 242.86 53.73 -169.44 1920.94 -190.41"/><polygon class="cls-44" points="821.47 420.93 822.42 500.32 1108.03 503.82 1106.9 423.42 821.47 420.93"/><polygon class="cls-45" points="1842.41 877.1 1873.82 149.65 1588.54 195.97 1622.39 757.81 1637.03 765.75 1680.66 765.75 1842.41 877.1"/><polygon class="cls-46" points="1826.2 867.55 1826.82 846.88 1667.19 765.75 1637.03 765.75 1826.2 867.55"/><polygon class="cls-47" points="1650.37 754.99 1507.54 758.8 1706.21 889.38 1826.2 865.78 1826.82 846.36 1650.37 754.99"/><polygon class="cls-15" points="1884.88 155.44 1864.37 870.59 1842.41 877.1 1873.82 149.65 1884.88 155.44"/><polygon class="cls-15" points="1873.82 149.65 1846.46 183.33 1863.64 151.3 1873.82 149.65"/><polygon class="cls-15" points="1609.4 217.82 1588.54 195.97 1589.37 202.9 1609.4 217.82"/><polygon class="cls-15" points="1625.08 217.82 1609.4 217.82 1637.03 765.75 1667.19 765.75 1650.37 754.99 1625.08 217.82"/><polygon class="cls-48" points="1353.52 601.19 1368.6 252.1 1231.69 274.33 1247.94 543.95 1254.97 547.76 1275.9 547.76 1353.52 601.19"/><polygon class="cls-49" points="1345.75 596.61 1346.04 586.69 1269.44 547.76 1254.97 547.76 1345.75 596.61"/><polygon class="cls-50" points="1261.37 542.59 1215.33 547.76 1304.52 603.87 1345.74 595.76 1346.04 586.44 1261.37 542.59"/><polygon class="cls-15" points="1373.9 254.88 1364.06 598.07 1353.52 601.19 1368.6 252.1 1373.9 254.88"/><polygon class="cls-15" points="1368.6 252.1 1355.47 268.26 1363.71 252.89 1368.6 252.1"/><polygon class="cls-15" points="1241.7 284.81 1231.69 274.33 1232.09 277.66 1241.7 284.81"/><polygon class="cls-15" points="1249.23 284.81 1241.7 284.81 1254.97 547.76 1269.44 547.76 1261.37 542.59 1249.23 284.81"/><polygon class="cls-51" points="646.07 2.69 837.53 235.59 1086.64 235.59 1302.35 7.71 646.07 2.69"/><polygon class="cls-52" points="821.3 249.14 817.45 337.78 813.1 461.13 821.3 461.13 821.3 249.14"/><polygon class="cls-52" points="1108.03 250.2 1111.88 338.84 1116.23 462.19 1108.03 462.19 1108.03 250.2"/><circle class="cls-53" cx="910.84" cy="320.17" r="146.27"/><g class="cls-54"><path class="cls-55" d="M351.62,934.48c0,1.78-2.78,2.4-7.28,2.06-4.5.3-10.72,1.71-17.58.85a158.91,158.91,0,0,1-17.58-.85c-4.5-.53-7.29-1.25-7.29-2.06,0-1.6,11.14-2.91,24.87-2.91a158.72,158.72,0,0,1,17.58.86C348.84,933.63,351.62,933.74,351.62,934.48Z"/><path class="cls-55" d="M435.6,935.94c0,.25-5.44,1.78-12.15,1.45s-12.16-.18-12.16-1.45c0-.6,5.45-.75,12.16-1.46C430.16,935.49,435.6,936.17,435.6,935.94Z"/><path class="cls-55" d="M503.05,901.42c-.05,1.6,3.76,2.15,10.54-1.77,6.75-2.65,16.23-1.65,27.59-.67,11.3,2.79,24.54,3.18,38.76.57,14,3.39,27.38.44,38.73,1.7,11.36.69,20.85,1.48,27.5,2.29s10.44,1.63,10.42,2.39-3.87,1.35-10.55,1.77-16.2.64-27.58.67c-11.33-1.78-24.64.21-38.76-.58s-27.49,3-38.73-1.7c-11.39,0-20.89-.27-27.5-2.29C506.85,902.23,503.12,899,503.05,901.42Z"/><path class="cls-55" d="M467.24,905.3c0-1.14,2.43-1.83,6.25-1.42,3.79,2,9.22-2.44,15-.22,5.91-1.87,11.09,2.62,15,1.1a4.51,4.51,0,0,1,6.16,1.78c-.07,2.25-2.39.65-6.25,1.42s-9.21,2.27-15,.22c-5.85-.16-11.16-.08-15-1.1C469.54,907.87,467.32,902.47,467.24,905.3Z"/></g><g class="cls-56"><path class="cls-55" d="M796.34,904.93c0,.62-.73,1.22-2,1.75a33.34,33.34,0,0,0-5.55,1.43c-2.34,0-5.13-.42-8.23,1s-6.51,1.28-10.09.35c-3.58,1.14-7-1.19-10.08-.35-3.1-1-5.89.15-8.24-1a28.21,28.21,0,0,1-5.55-1.43c-1.31-.53-2-1.13-2-1.75s.73-1.21,2-1.74a28.21,28.21,0,0,1,5.55-1.43c2.35.27,5.14-.5,8.24-1,3.1-1.14,6.5-.82,10.08-.35,3.58,1.3,7-.75,10.09.35,3.1.54,5.89,2.19,8.23,1,2.35.76,4.24.62,5.55,1.43A1.89,1.89,0,0,1,796.34,904.93Z"/><path class="cls-55" d="M819.86,894.29c0,.92-.86,1.23-2.25,1.06-1.38.16-3.3.88-5.42.44a29.81,29.81,0,0,1-5.42-.44c-1.39-.27-2.25-.64-2.25-1.06,0-.82,3.44-1.49,7.67-1.49a29.84,29.84,0,0,1,5.42.43C819,893.86,819.86,893.91,819.86,894.29Z"/><path class="cls-55" d="M845.77,895a6.1,6.1,0,0,1-3.75.75c-2.07-.1-3.75-.09-3.75-.75,0-.31,1.68-.39,3.75-.75A18.13,18.13,0,0,0,845.77,895Z"/><path class="cls-55" d="M861.45,903.6c0,.43-1,.83-2.72,1.18a60.78,60.78,0,0,1-7.16.83c-3-.27-6.39.44-10.06.32s-7.11,0-10.07-.32c-3,.06-5.42-.92-7.15-.83-1.73-.51-2.72-.25-2.72-1.18,0-.55,1-1.1,2.72-1.17s4.2-1,7.15-.84a54.72,54.72,0,0,0,10.07-.31c3.67.15,7.11,0,10.06.31a60.44,60.44,0,0,1,7.16.84C860.46,902.77,861.45,903.18,861.45,903.6Z"/><path class="cls-55" d="M824,912.58c0,.46-2.07.84-4.62.84s-4.63-.38-4.63-.84,2.07-.83,4.63-.83S824,912.13,824,912.58Z"/><path class="cls-55" d="M972.58,897.16c0-.82-1.18-1-3.23,1.07-2.06,1.46-5,1.09-8.5.76a17.58,17.58,0,0,0-12,.29c-4.36-1.53-8.45.19-12-.29-3.51-.18-6.44-.44-8.5-.76s-3.23-.68-3.23-1.07,1.18-.75,3.23-1.07,5-.58,8.5-.76c3.51.74,7.6-.48,12-.29s8.45-2,12,.29c3.51-.19,6.44-.17,8.5.76C971.4,896.8,972.58,898.4,972.58,897.16Z"/><path class="cls-55" d="M944.29,911c0,.42-2.37.75-5.29.75s-5.28-.33-5.28-.75,2.37-.74,5.28-.74S944.29,910.59,944.29,911Z"/><path class="cls-55" d="M1018.26,908.84c0,.32-1.75.58-3.92.58s-3.92-.26-3.92-.58,1.76-.58,3.92-.58S1018.26,908.52,1018.26,908.84Z"/><path class="cls-55" d="M983.59,894.63c0,.58-.73,1-1.92.82-1.18-1-2.81,1.39-4.62.34-1.81,1.05-3.44-1.18-4.63-.34-1.18,1-1.91-.67-1.91-.82,0-1.16.73-.38,1.91-.83s2.82-1.31,4.63-.34a14.13,14.13,0,0,1,4.62.34C982.86,893.34,983.59,896.08,983.59,894.63Z"/></g><g class="cls-56"><path class="cls-55" d="M1137.36,870.19c0,.62-.73,1.22-2,1.75a33.09,33.09,0,0,0-5.55,1.43c-2.35,0-5.14-.42-8.24,1s-6.5,1.28-10.08.35c-3.58,1.14-7-1.19-10.09-.35-3.1-1-5.89.15-8.23-1a28.21,28.21,0,0,1-5.55-1.43c-1.31-.53-2-1.13-2-1.75s.73-1.21,2-1.74a28.21,28.21,0,0,1,5.55-1.43c2.34.27,5.13-.5,8.23-1,3.1-1.14,6.51-.82,10.09-.35,3.58,1.3,7-.75,10.08.35,3.1.54,5.89,2.19,8.24,1,2.34.76,4.24.62,5.55,1.43A1.89,1.89,0,0,1,1137.36,870.19Z"/><path class="cls-55" d="M1160.88,859.55c0,.92-.86,1.23-2.25,1.06-1.39.16-3.3.88-5.42.44a29.73,29.73,0,0,1-5.42-.44c-1.39-.27-2.25-.64-2.25-1.06,0-.82,3.43-1.49,7.67-1.49a29.92,29.92,0,0,1,5.42.43C1160,859.12,1160.88,859.17,1160.88,859.55Z"/><path class="cls-55" d="M1186.79,860.3a6.1,6.1,0,0,1-3.75.75c-2.07-.1-3.75-.09-3.75-.75,0-.31,1.68-.39,3.75-.75A18.13,18.13,0,0,0,1186.79,860.3Z"/><path class="cls-55" d="M1294.16,877c0,.42-1,.83-2.72,1.17a60.5,60.5,0,0,1-7.15.84c-3-.28-6.4.43-10.07.31s-7.11,0-10.06-.31c-3,.05-5.43-.93-7.16-.84-1.73-.51-2.72-.25-2.72-1.17,0-.56,1-1.11,2.72-1.18s4.2-1,7.16-.83a55.6,55.6,0,0,0,10.06-.32c3.67.15,7.11,0,10.07.32a60.83,60.83,0,0,1,7.15.83C1293.17,876.18,1294.16,876.58,1294.16,877Z"/><path class="cls-55" d="M1165,877.84c0,.46-2.07.84-4.63.84s-4.62-.38-4.62-.84,2.07-.83,4.62-.83S1165,877.38,1165,877.84Z"/><path class="cls-55" d="M1457.23,852.71c0,.62-1.37,1.21-3.83,1.75-2.46.25-6,.56-10.43,1.42-4.4,0-9.65-.41-15.47,1s-12.22,1.28-18.94.35c-6.72,1.14-13.12-1.2-19-.35-5.82-1-11.06.15-15.47-1a93.25,93.25,0,0,1-10.43-1.42c-2.46-.54-3.82-1.13-3.82-1.75s1.36-1.21,3.82-1.75a92.85,92.85,0,0,1,10.43-1.43c4.41.28,9.65-.5,15.47-1,5.83-1.13,12.23-.82,19-.35,6.72,1.3,13.12-.74,18.94.35,5.82.54,11.07,2.19,15.47,1,4.41.77,8,.62,10.43,1.43C1455.86,850.76,1457.23,852.09,1457.23,852.71Z"/><path class="cls-55" d="M1501.41,842.07c0,.91-1.61,1.23-4.22,1-2.6.16-6.21.88-10.19.44a101.17,101.17,0,0,1-10.18-.44c-2.61-.27-4.22-.64-4.22-1,0-.83,6.45-1.5,14.4-1.5,4,0,7.59.17,10.19.44C1499.8,841.63,1501.41,841.69,1501.41,842.07Z"/><path class="cls-55" d="M1550.08,842.82a20.24,20.24,0,0,1-7,.74c-3.89-.1-7-.09-7-.74,0-.31,3.16-.39,7-.75A67.59,67.59,0,0,0,1550.08,842.82Z"/><ellipse class="cls-55" cx="1500.5" cy="860.36" rx="8.69" ry="0.83"/><path class="cls-55" d="M1337.82,907.35c0-1.88-2.69-2.4-7.37,2.44-4.69,3.32-11.37,2.48-19.37,1.73-8-2.89-17.31-2.88-27.25.66-9.94-3.49-19.25.42-27.25-.66-8-.42-14.68-1-19.37-1.73s-7.37-1.55-7.37-2.44,2.69-1.72,7.37-2.44,11.37-1.31,19.37-1.73c8,1.69,17.31-1.1,27.25-.66,9.94.62,19.25-4.48,27.25.66,8-.45,14.68-.4,19.37,1.73C1335.13,906.52,1337.82,910.17,1337.82,907.35Z"/><path class="cls-55" d="M1317.86,941c0,.41-2.36.74-5.28.74s-5.29-.33-5.29-.74,2.37-.75,5.29-.75S1317.86,940.61,1317.86,941Z"/><path class="cls-55" d="M1391.84,938.86c0,.33-1.76.59-3.92.59s-3.92-.26-3.92-.59,1.75-.58,3.92-.58S1391.84,938.54,1391.84,938.86Z"/><path class="cls-55" d="M1362.9,901.57c0,1.33-1.67,2.23-4.37,1.88-2.69-2.16-6.42,3.17-10.54.77-4.11,2.4-7.84-2.69-10.54-.77-2.69,2.31-4.36-1.53-4.36-1.88,0-2.63,1.67-.85,4.36-1.88s6.43-3,10.54-.77c4.12,0,7.85-.29,10.54.77C1361.23,898.63,1362.9,904.88,1362.9,901.57Z"/></g><g class="cls-56"><path class="cls-55" d="M463.09,819.66c0-.32.66-.64,1.87-.95a48.2,48.2,0,0,0,5.15-.83,28.75,28.75,0,0,0,7.64-.63,23.32,23.32,0,0,1,9.36-.33c3.32-.65,6.5.52,9.37,0,2.89.47,5.47-.17,7.66.38a44.21,44.21,0,0,1,5.17.67c1.22.26,1.9.56,1.9.89s-.66.65-1.87,1a44.47,44.47,0,0,1-5.15.83,57.2,57.2,0,0,0-7.64.63,34.31,34.31,0,0,1-9.36.33c-3.34-.63-6.48.5-9.37,0-2.88-.23-5.49-1.06-7.66-.38-2.18-.37-3.94-.26-5.17-.67C463.78,820.68,463.09,820,463.09,819.66Z"/><path class="cls-55" d="M441.33,825.61c0-.49.79-.66,2.08-.59a23.94,23.94,0,0,1,5-.31,44.16,44.16,0,0,1,5,.15c1.3.12,2.1.3,2.1.52,0,.43-3.18.84-7.11.9a49.33,49.33,0,0,1-5-.15C442.13,825.82,441.34,825.81,441.33,825.61Z"/><path class="cls-55" d="M417.26,825.59a9.63,9.63,0,0,1,3.48-.44c1.92,0,3.48,0,3.49.33a17.44,17.44,0,0,1-3.48.45A30.21,30.21,0,0,0,417.26,825.59Z"/><path class="cls-55" d="M611,825.15c0,.23-.92.44-2.53.62s-3.9.33-6.64.44c-2.75-.15-5.94.23-9.35.17s-6.61,0-9.35-.17c-2.75,0-5-.49-6.65-.44-1.61-.27-2.53-.13-2.53-.62,0-.29.92-.58,2.53-.62s3.9-.54,6.65-.44a91.32,91.32,0,0,0,9.35-.16c3.41.08,6.6,0,9.35.16s5,.26,6.64.44S611,824.93,611,825.15Z"/><path class="cls-55" d="M437.33,816.05c0-.24,1.92-.47,4.29-.51s4.3.13,4.31.37-1.92.47-4.29.51S437.34,816.29,437.33,816.05Z"/><path class="cls-55" d="M762.43,812.37c0,.33-1.26.64-3.55.92s-5.6.3-9.69.75a100.58,100.58,0,0,0-14.37.51,81.54,81.54,0,0,1-17.6.18c-6.24.6-12.18-.63-17.59-.18-5.41-.52-10.28.08-14.37-.51-4.09-.21-7.4-.47-9.69-.75s-3.55-.59-3.55-.92,1.26-.63,3.55-.92,5.6-.53,9.69-.75c4.09.14,9-.26,14.37-.5a120.11,120.11,0,0,1,17.59-.19c6.25.69,12.19-.39,17.6.19,5.41.28,10.28,1.15,14.37.5,4.09.4,7.4.33,9.69.75C761.17,811.35,762.43,812.05,762.43,812.37Z"/><path class="cls-55" d="M803.47,806.77c0,.49-1.5.65-3.92.56a86.7,86.7,0,0,1-9.46.23c-3.7,0-7-.09-9.46-.23s-3.92-.34-3.92-.56c0-.43,6-.78,13.38-.78,3.7,0,7,.09,9.46.23C802,806.54,803.47,806.57,803.47,806.77Z"/><path class="cls-55" d="M848.68,807.17a32.69,32.69,0,0,1-6.54.39c-3.62,0-6.55,0-6.55-.39a62.47,62.47,0,0,1,6.55-.4C845.75,807.05,848.68,807.23,848.68,807.17Z"/><ellipse class="cls-55" cx="802.63" cy="816.39" rx="8.07" ry="0.44"/><path class="cls-55" d="M651.52,841.11c0-1-2.5-1.26-6.85,1.28-4.35,1.75-10.56,1.31-18,.91a64.29,64.29,0,0,0-25.31.35c-9.23-1.83-17.88.23-25.31-.35-7.43-.22-13.64-.53-18-.91s-6.85-.81-6.85-1.28,2.5-.91,6.85-1.28,10.56-.69,18-.91c7.43.89,16.08-.58,25.31-.35s17.88-2.36,25.31.35c7.43-.24,13.64-.21,18,.91C649,840.68,651.52,842.6,651.52,841.11Z"/><path class="cls-55" d="M633,858.83c0,.21-2.2.39-4.91.39s-4.9-.18-4.9-.39,2.19-.4,4.9-.4S633,858.61,633,858.83Z"/><ellipse class="cls-55" cx="698.05" cy="857.69" rx="3.64" ry="0.31"/><path class="cls-55" d="M674.82,838.07c0,.7-1.55,1.17-4.06,1-2.51-1.14-6,1.67-9.79.41-3.82,1.26-7.29-1.42-9.79-.41a3,3,0,0,1-4.06-1c0-1.38,1.55-.44,4.06-1s6-1.57,9.79-.41c3.82,0,7.28-.15,9.79.41C673.27,836.53,674.82,839.81,674.82,838.07Z"/></g><g class="cls-56"><path class="cls-55" d="M1137.41,809.25c0-.33.66-.65,1.88-1a51.86,51.86,0,0,0,5.14-.84,28.67,28.67,0,0,0,7.64-.62,23.36,23.36,0,0,1,9.37-.34c3.31-.65,6.49.53,9.36,0,2.89.47,5.47-.17,7.66.38a43.91,43.91,0,0,1,5.17.67c1.22.27,1.9.57,1.91.89s-.67.65-1.88.95a41.72,41.72,0,0,1-5.15.83,58.91,58.91,0,0,0-7.64.63,34.29,34.29,0,0,1-9.36.33c-3.33-.63-6.48.5-9.37,0-2.88-.24-5.49-1.07-7.65-.39-2.19-.36-4-.26-5.17-.67C1138.1,810.26,1137.42,809.57,1137.41,809.25Z"/><path class="cls-55" d="M1115.65,815.19c0-.48.79-.66,2.08-.59a24.74,24.74,0,0,1,5-.31,49.43,49.43,0,0,1,5,.15c1.29.12,2.09.31,2.09.52,0,.44-3.17.84-7.11.9a49.33,49.33,0,0,1-5-.15C1116.46,815.41,1115.66,815.39,1115.65,815.19Z"/><path class="cls-55" d="M1091.59,815.18a9.18,9.18,0,0,1,3.47-.45c1.93,0,3.49,0,3.49.34a19.17,19.17,0,0,1-3.47.45A27.91,27.91,0,0,0,1091.59,815.18Z"/><path class="cls-55" d="M1285.29,814.73c0,.23-.92.44-2.53.62s-3.9.34-6.64.44c-2.74-.14-5.94.23-9.35.17s-6.6,0-9.35-.17c-2.74,0-5-.48-6.64-.44-1.61-.26-2.53-.13-2.53-.62,0-.29.92-.58,2.53-.61s3.9-.55,6.64-.44a91.48,91.48,0,0,0,9.35-.17c3.41.08,6.61,0,9.35.17s5,.25,6.64.44S1285.29,814.51,1285.29,814.73Z"/><path class="cls-55" d="M1111.66,805.63c0-.24,1.91-.47,4.29-.51s4.3.13,4.3.37-1.92.47-4.29.51S1111.66,805.87,1111.66,805.63Z"/><path class="cls-55" d="M1436.75,802c0,.33-1.26.64-3.55.92s-5.6.3-9.69.75a102.07,102.07,0,0,0-14.37.51,82.07,82.07,0,0,1-17.59.19c-6.24.6-12.19-.63-17.6-.19-5.41-.52-10.28.08-14.37-.51-4.09-.21-7.4-.46-9.69-.75s-3.55-.59-3.55-.92,1.27-.63,3.55-.91,5.6-.54,9.69-.76c4.09.15,9-.26,14.37-.5a121.66,121.66,0,0,1,17.6-.19c6.24.69,12.18-.39,17.59.19,5.41.28,10.28,1.15,14.37.5,4.09.41,7.4.33,9.69.76C1435.49,800.93,1436.75,801.63,1436.75,802Z"/><path class="cls-55" d="M1477.8,796.36c0,.48-1.5.64-3.92.55a82.16,82.16,0,0,1-9.47.23c-3.69,0-7-.08-9.46-.23s-3.92-.34-3.92-.55c0-.44,6-.79,13.38-.79,3.7,0,7,.09,9.47.23C1476.3,796.13,1477.8,796.16,1477.8,796.36Z"/><path class="cls-55" d="M1523,796.75a31.83,31.83,0,0,1-6.54.39c-3.61,0-6.54,0-6.54-.39a64.23,64.23,0,0,1,6.54-.39C1520.07,796.63,1523,796.81,1523,796.75Z"/><ellipse class="cls-55" cx="1476.95" cy="805.98" rx="8.07" ry="0.44"/><path class="cls-55" d="M1325.84,830.69c0-1-2.49-1.26-6.85,1.29-4.35,1.75-10.56,1.3-18,.91a64.09,64.09,0,0,0-25.31.34c-9.23-1.83-17.88.23-25.31-.34-7.43-.22-13.63-.54-18-.91s-6.84-.82-6.84-1.29,2.49-.9,6.84-1.28,10.56-.69,18-.91c7.43.89,16.08-.58,25.31-.35s17.88-2.35,25.31.35c7.43-.23,13.64-.21,18,.91C1323.35,830.26,1325.84,832.18,1325.84,830.69Z"/><path class="cls-55" d="M1307.3,848.41c0,.22-2.19.39-4.9.39s-4.91-.17-4.91-.39,2.2-.4,4.91-.4S1307.3,848.19,1307.3,848.41Z"/><ellipse class="cls-55" cx="1372.37" cy="847.27" rx="3.64" ry="0.31"/><path class="cls-55" d="M1349.14,827.65c0,.7-1.55,1.18-4.06,1-2.5-1.13-6,1.67-9.79.41-3.82,1.26-7.28-1.42-9.79-.41a3,3,0,0,1-4-1c0-1.38,1.55-.44,4-1s6-1.57,9.79-.41c3.83,0,7.29-.15,9.79.41C1347.59,826.11,1349.14,829.4,1349.14,827.65Z"/></g><g class="cls-57"><path class="cls-58" d="M535.08,697.56c0-.28.35-.56,1-.82a16.78,16.78,0,0,0,2.69-.72,9.27,9.27,0,0,0,4-.55,7.49,7.49,0,0,1,4.88-.29c1.73-.56,3.39.46,4.89,0,1.5.42,2.85-.14,4,.34a13.56,13.56,0,0,1,2.69.58c.64.23,1,.49,1,.77s-.35.56-1,.82a14.25,14.25,0,0,1-2.69.73,18,18,0,0,0-4,.54,10.85,10.85,0,0,1-4.88.29c-1.74-.55-3.38.43-4.89,0-1.5-.21-2.86-.93-4-.33a18.44,18.44,0,0,1-2.69-.58A.89.89,0,0,1,535.08,697.56Z"/><path class="cls-59" d="M523.74,702.72c0-.41.41-.57,1.08-.51a7.9,7.9,0,0,1,2.63-.27,15.65,15.65,0,0,1,2.63.13c.67.11,1.09.27,1.09.46,0,.37-1.66.72-3.71.78a15.65,15.65,0,0,1-2.63-.13C524.16,702.91,523.74,702.9,523.74,702.72Z"/><path class="cls-60" d="M511.19,702.71a3.13,3.13,0,0,1,1.81-.39c1,0,1.82,0,1.82.3,0,.14-.81.19-1.81.39A10,10,0,0,0,511.19,702.71Z"/><path class="cls-61" d="M612.19,702.33c0,.19-.48.38-1.32.53a31.67,31.67,0,0,1-3.46.39c-1.44-.13-3.1.19-4.88.14s-3.44,0-4.87-.14c-1.43,0-2.63-.43-3.47-.39-.84-.23-1.32-.11-1.32-.53,0-.26.48-.51,1.32-.54a27.85,27.85,0,0,1,3.47-.38,29.29,29.29,0,0,0,4.87-.14c1.78.07,3.44,0,4.88.14a29.7,29.7,0,0,1,3.46.38C611.71,702,612.19,702.13,612.19,702.33Z"/><path class="cls-62" d="M521.66,694.43c0-.21,1-.41,2.23-.44s2.25.11,2.25.32-1,.4-2.24.44S521.66,694.63,521.66,694.43Z"/><path class="cls-63" d="M691.16,691.23c0,.29-.66.56-1.85.8s-2.92.26-5,.65a31.89,31.89,0,0,0-7.5.44,25.5,25.5,0,0,1-9.17.16c-3.26.52-6.36-.54-9.18-.16-2.82-.45-5.35.07-7.49-.44a44.81,44.81,0,0,1-5-.65c-1.19-.24-1.85-.51-1.85-.8s.66-.55,1.85-.79a44.81,44.81,0,0,1,5-.65,64.54,64.54,0,0,0,7.49-.44,38.17,38.17,0,0,1,9.18-.17c3.25.6,6.35-.33,9.17.17,2.82.24,5.36,1,7.5.44,2.13.34,3.85.28,5,.65C690.5,690.34,691.16,691,691.16,691.23Z"/><path class="cls-64" d="M712.56,686.38c0,.41-.78.56-2,.48a27.27,27.27,0,0,1-4.94.2c-1.93,0-3.67-.08-4.93-.2s-2-.3-2-.48c0-.38,3.13-.69,7-.69,1.93,0,3.67.08,4.94.2C711.78,686.18,712.56,686.2,712.56,686.38Z"/><path class="cls-65" d="M736.13,686.72a10.12,10.12,0,0,1-3.41.34c-1.89,0-3.41,0-3.41-.34a19.43,19.43,0,0,1,3.41-.34C734.6,686.61,736.13,686.77,736.13,686.72Z"/><path class="cls-66" d="M716.33,694.73c0,.21-1.89.38-4.21.38s-4.21-.17-4.21-.38,1.88-.38,4.21-.38S716.33,694.52,716.33,694.73Z"/><path class="cls-67" d="M633.33,716.18c0-.85-1.3-1.09-3.57,1.12-2.27,1.52-5.51,1.13-9.38.79a20.4,20.4,0,0,0-13.2.3c-4.81-1.59-9.32.19-13.19-.3-3.88-.19-7.11-.47-9.38-.79s-3.57-.71-3.57-1.12,1.3-.78,3.57-1.11,5.5-.6,9.38-.79c3.87.77,8.38-.5,13.19-.3s9.33-2.05,13.2.3c3.87-.2,7.11-.18,9.38.79C632,715.81,633.33,717.47,633.33,716.18Z"/><path class="cls-68" d="M623.67,731.56c0,.19-1.15.34-2.56.34s-2.56-.15-2.56-.34,1.14-.34,2.56-.34S623.67,731.37,623.67,731.56Z"/><path class="cls-69" d="M659.49,730.57c0,.15-.85.27-1.9.27s-1.9-.12-1.9-.27.85-.26,1.9-.26S659.49,730.43,659.49,730.57Z"/><path class="cls-70" d="M645.48,713.54c0,.61-.81,1-2.12.86-1.3-1-3.11,1.45-5.1.36-2,1.09-3.8-1.24-5.11-.36-1.3,1.06-2.11-.7-2.11-.86,0-1.2.81-.38,2.11-.85s3.11-1.36,5.11-.36c2,0,3.8-.13,5.1.36C644.67,712.2,645.48,715.06,645.48,713.54Z"/></g><polygon class="cls-71" points="353.23 500.62 698.6 445.83 701.69 513.37 337.06 688.14 353.23 500.62"/><g class="cls-57"><path class="cls-72" d="M886.67,688.52c0-.28.35-.56,1-.82a17,17,0,0,0,2.68-.73,9.12,9.12,0,0,0,4-.54,7.42,7.42,0,0,1,4.88-.29c1.73-.57,3.39.46,4.88,0,1.51.41,2.86-.14,4,.34a13.72,13.72,0,0,1,2.69.58c.64.22,1,.48,1,.77s-.34.56-1,.82a14.36,14.36,0,0,1-2.69.72,18.75,18.75,0,0,0-4,.55,10.86,10.86,0,0,1-4.88.29c-1.74-.55-3.38.43-4.89,0-1.5-.21-2.86-.93-4-.34a18.14,18.14,0,0,1-2.69-.58A.88.88,0,0,1,886.67,688.52Z"/><path class="cls-73" d="M875.33,693.68c0-.42.41-.57,1.08-.51a7.62,7.62,0,0,1,2.63-.27,14.48,14.48,0,0,1,2.62.13c.68.11,1.1.26,1.1.45,0,.38-1.66.73-3.71.79a15.39,15.39,0,0,1-2.63-.14C875.75,693.87,875.33,693.85,875.33,693.68Z"/><path class="cls-74" d="M862.78,693.67a3.13,3.13,0,0,1,1.81-.39c1,0,1.82,0,1.82.29,0,.14-.81.2-1.81.39A9.53,9.53,0,0,0,862.78,693.67Z"/><path class="cls-75" d="M963.78,693.29c0,.19-.48.37-1.32.53a29.91,29.91,0,0,1-3.47.38c-1.43-.12-3.09.2-4.87.15s-3.44,0-4.88-.15c-1.43,0-2.62-.42-3.46-.38-.84-.23-1.32-.11-1.32-.53,0-.26.48-.51,1.32-.54a27.65,27.65,0,0,1,3.46-.38,28.41,28.41,0,0,0,4.88-.15c1.78.07,3.44,0,4.87.15a29.91,29.91,0,0,1,3.47.38C963.3,692.91,963.78,693.09,963.78,693.29Z"/><path class="cls-76" d="M873.24,685.38c0-.21,1-.4,2.24-.44s2.24.11,2.25.32-1,.41-2.24.44S873.25,685.59,873.24,685.38Z"/><path class="cls-77" d="M1042.75,682.19c0,.28-.66.55-1.85.8s-2.92.26-5.06.65a31.83,31.83,0,0,0-7.49.44,25.73,25.73,0,0,1-9.17.16c-3.26.52-6.36-.54-9.18-.16-2.82-.45-5.36.07-7.49-.44a47.28,47.28,0,0,1-5-.65c-1.19-.25-1.85-.52-1.85-.8s.66-.55,1.85-.8a50,50,0,0,1,5-.65,62.51,62.51,0,0,0,7.49-.44,38.19,38.19,0,0,1,9.18-.16c3.25.6,6.35-.34,9.17.16,2.82.25,5.36,1,7.49.44,2.14.35,3.86.29,5.06.65C1042.09,681.3,1042.75,681.91,1042.75,682.19Z"/><path class="cls-78" d="M1064.15,677.33c0,.42-.78.56-2.05.49a27.11,27.11,0,0,1-4.93.2c-1.93,0-3.67-.08-4.94-.2s-2-.3-2-.49c0-.38,3.13-.68,7-.68,1.93,0,3.67.08,4.93.2C1063.37,677.13,1064.15,677.16,1064.15,677.33Z"/><path class="cls-79" d="M1087.72,677.67a10.26,10.26,0,0,1-3.41.35c-1.89,0-3.42,0-3.42-.35a20.87,20.87,0,0,1,3.42-.34A28.94,28.94,0,0,0,1087.72,677.67Z"/><path class="cls-80" d="M1067.92,685.68c0,.21-1.89.38-4.21.38s-4.21-.17-4.21-.38,1.88-.38,4.21-.38S1067.92,685.47,1067.92,685.68Z"/><path class="cls-81" d="M984.92,707.14c0-.86-1.3-1.1-3.57,1.11-2.27,1.52-5.51,1.14-9.38.79a20.47,20.47,0,0,0-13.2.31c-4.81-1.6-9.32.19-13.19-.31-3.88-.19-7.12-.46-9.38-.79s-3.57-.7-3.57-1.11,1.3-.79,3.57-1.11,5.5-.6,9.38-.8c3.87.78,8.38-.5,13.19-.3s9.32-2,13.2.3c3.87-.2,7.11-.18,9.38.8C983.62,706.76,984.92,708.43,984.92,707.14Z"/><ellipse class="cls-82" cx="972.7" cy="722.52" rx="2.56" ry="0.34"/><path class="cls-83" d="M1011.08,721.53c0,.15-.85.27-1.9.27s-1.9-.12-1.9-.27.85-.27,1.9-.27S1011.08,721.38,1011.08,721.53Z"/><path class="cls-84" d="M997.07,704.5c0,.61-.81,1-2.12.86-1.31-1-3.11,1.45-5.1.35-2,1.1-3.8-1.23-5.11-.35-1.3,1-2.11-.7-2.11-.86,0-1.2.81-.39,2.11-.86s3.11-1.36,5.11-.35c2,0,3.79-.13,5.1.35C996.26,703.16,997.07,706,997.07,704.5Z"/></g><g class="cls-57"><path class="cls-85" d="M814.19,699.3c0-.28.34-.56,1-.82a17,17,0,0,0,2.69-.73,9.1,9.1,0,0,0,4-.54,7.42,7.42,0,0,1,4.88-.29c1.73-.57,3.39.45,4.89,0,1.5.41,2.85-.14,4,.33a15.16,15.16,0,0,1,2.69.58c.64.23,1,.49,1,.78s-.35.56-1,.82a14.22,14.22,0,0,1-2.68.72,18.75,18.75,0,0,0-4,.55,10.85,10.85,0,0,1-4.88.29c-1.74-.55-3.38.43-4.88,0-1.51-.21-2.87-.93-4-.34a18.44,18.44,0,0,1-2.69-.58A.87.87,0,0,1,814.19,699.3Z"/><path class="cls-86" d="M802.84,704.46c0-.42.41-.57,1.08-.51a7.65,7.65,0,0,1,2.63-.27,14.66,14.66,0,0,1,2.63.13c.67.1,1.09.26,1.09.45,0,.38-1.66.73-3.71.78a14.66,14.66,0,0,1-2.63-.13C803.26,704.65,802.84,704.63,802.84,704.46Z"/><path class="cls-87" d="M790.29,704.45a3.15,3.15,0,0,1,1.82-.39c1,0,1.81,0,1.81.29,0,.14-.81.2-1.81.39A8.57,8.57,0,0,0,790.29,704.45Z"/><path class="cls-88" d="M891.29,704.06c0,.2-.48.38-1.32.54a29.7,29.7,0,0,1-3.46.38c-1.43-.12-3.1.2-4.88.15s-3.44,0-4.87-.15c-1.43,0-2.63-.42-3.47-.38-.84-.23-1.32-.11-1.32-.54,0-.25.48-.5,1.32-.53a24.47,24.47,0,0,1,3.47-.38,28.32,28.32,0,0,0,4.87-.15c1.78.07,3.45,0,4.88.15a29.7,29.7,0,0,1,3.46.38C890.81,703.69,891.29,703.87,891.29,704.06Z"/><path class="cls-89" d="M800.76,696.16c0-.21,1-.4,2.23-.44s2.25.11,2.25.32-1,.41-2.24.44S800.76,696.37,800.76,696.16Z"/><path class="cls-90" d="M970.26,693c0,.28-.66.55-1.85.8s-2.92.26-5,.65a31.36,31.36,0,0,0-7.5.44,25.73,25.73,0,0,1-9.17.16c-3.25.52-6.35-.55-9.17-.16-2.82-.45-5.36.07-7.5-.44a50,50,0,0,1-5-.65c-1.19-.25-1.85-.52-1.85-.8s.66-.55,1.85-.8a50,50,0,0,1,5-.65,64.7,64.7,0,0,0,7.5-.44,38.12,38.12,0,0,1,9.17-.16c3.25.6,6.35-.34,9.17.16,2.82.25,5.36,1,7.5.44,2.13.35,3.86.28,5,.65C969.6,692.08,970.26,692.69,970.26,693Z"/><path class="cls-91" d="M991.66,688.11c0,.42-.78.56-2,.48a25.56,25.56,0,0,1-4.94.2c-1.93,0-3.67-.07-4.93-.2s-2-.29-2-.48c0-.38,3.13-.68,7-.68,1.93,0,3.67.07,4.94.2S991.66,687.94,991.66,688.11Z"/><path class="cls-92" d="M1015.23,688.45a10.12,10.12,0,0,1-3.41.34c-1.89,0-3.41,0-3.41-.34a20.65,20.65,0,0,1,3.41-.34A28.94,28.94,0,0,0,1015.23,688.45Z"/><ellipse class="cls-93" cx="991.22" cy="696.46" rx="4.21" ry="0.38"/><path class="cls-94" d="M912.43,717.92c0-.86-1.3-1.1-3.57,1.11-2.27,1.52-5.51,1.14-9.38.79a20.53,20.53,0,0,0-13.2.3c-4.81-1.59-9.32.2-13.19-.3-3.88-.19-7.11-.46-9.38-.79s-3.57-.71-3.57-1.11,1.3-.79,3.57-1.12,5.5-.6,9.38-.79c3.87.78,8.38-.5,13.19-.3s9.33-2,13.2.3c3.87-.2,7.11-.18,9.38.79C911.13,717.54,912.43,719.21,912.43,717.92Z"/><path class="cls-95" d="M902.77,733.3c0,.18-1.15.34-2.56.34s-2.56-.16-2.56-.34,1.14-.35,2.56-.35S902.77,733.11,902.77,733.3Z"/><path class="cls-96" d="M938.59,732.31c0,.15-.85.26-1.9.26s-1.9-.11-1.9-.26.86-.27,1.9-.27S938.59,732.16,938.59,732.31Z"/><path class="cls-97" d="M924.58,715.28c0,.61-.81,1-2.12.86-1.3-1-3.11,1.45-5.1.35-2,1.09-3.8-1.23-5.11-.35-1.3,1.05-2.11-.7-2.11-.86,0-1.2.81-.39,2.11-.86s3.12-1.36,5.11-.35c2,0,3.8-.13,5.1.35C923.77,713.94,924.58,716.79,924.58,715.28Z"/></g><g class="cls-57"><path class="cls-98" d="M1165.77,690.26c0-.29.35-.57,1-.83a16.45,16.45,0,0,0,2.68-.72,9.43,9.43,0,0,0,4-.54,7.42,7.42,0,0,1,4.88-.29c1.73-.57,3.39.45,4.88,0,1.51.41,2.86-.15,4,.33a14.5,14.5,0,0,1,2.69.58c.64.23,1,.49,1,.77s-.34.57-1,.83a15.18,15.18,0,0,1-2.69.72,19.33,19.33,0,0,0-4,.54,10.86,10.86,0,0,1-4.88.29c-1.74-.54-3.38.43-4.89,0-1.5-.2-2.86-.92-4-.33a18.44,18.44,0,0,1-2.69-.58A.88.88,0,0,1,1165.77,690.26Z"/><path class="cls-99" d="M1154.43,695.42c0-.42.41-.58,1.08-.52a8.14,8.14,0,0,1,2.63-.27,15.52,15.52,0,0,1,2.63.14c.67.1,1.09.26,1.09.45,0,.38-1.66.73-3.71.78a14.6,14.6,0,0,1-2.63-.13C1154.85,695.6,1154.43,695.59,1154.43,695.42Z"/><path class="cls-100" d="M1141.88,695.41a3,3,0,0,1,1.81-.39c1,0,1.82,0,1.82.29,0,.14-.81.2-1.81.39A8.66,8.66,0,0,0,1141.88,695.41Z"/><path class="cls-101" d="M1242.88,695c0,.2-.48.38-1.32.54a29.65,29.65,0,0,1-3.47.38c-1.43-.13-3.09.2-4.87.14s-3.44,0-4.87-.14c-1.44,0-2.63-.42-3.47-.38-.84-.23-1.32-.12-1.32-.54,0-.25.48-.5,1.32-.54a27.62,27.62,0,0,1,3.47-.38,27.27,27.27,0,0,0,4.87-.14c1.78.07,3.44,0,4.87.14a34.77,34.77,0,0,1,3.47.38C1242.4,694.64,1242.88,694.83,1242.88,695Z"/><path class="cls-102" d="M1152.34,687.12c0-.21,1-.41,2.24-.44s2.24.11,2.25.32-1,.41-2.24.44S1152.35,687.33,1152.34,687.12Z"/><path class="cls-103" d="M1321.85,683.93c0,.28-.66.55-1.85.8a50.66,50.66,0,0,0-5.06.65,31.3,31.3,0,0,0-7.49.44,26,26,0,0,1-9.17.16c-3.26.52-6.36-.55-9.18-.16-2.82-.46-5.36.07-7.49-.44a50,50,0,0,1-5-.65c-1.19-.25-1.85-.52-1.85-.8s.66-.56,1.85-.8a44.81,44.81,0,0,1,5-.65,64.67,64.67,0,0,0,7.49-.44,37.68,37.68,0,0,1,9.18-.16c3.25.59,6.35-.34,9.17.16,2.82.24,5.36,1,7.49.44,2.14.35,3.86.28,5.06.65C1321.19,683,1321.85,683.64,1321.85,683.93Z"/><path class="cls-104" d="M1343.25,679.07c0,.42-.78.56-2,.48a27.11,27.11,0,0,1-4.93.2c-1.93,0-3.67-.08-4.93-.2s-2-.29-2-.48c0-.38,3.13-.69,7-.69,1.93,0,3.67.08,4.93.2C1342.47,678.87,1343.25,678.89,1343.25,679.07Z"/><path class="cls-105" d="M1366.82,679.41a10.12,10.12,0,0,1-3.41.34c-1.89,0-3.41,0-3.41-.34a19.43,19.43,0,0,1,3.41-.34C1365.29,679.3,1366.82,679.46,1366.82,679.41Z"/><path class="cls-106" d="M1347,687.42c0,.21-1.89.38-4.21.38s-4.21-.17-4.21-.38,1.88-.38,4.21-.38S1347,687.21,1347,687.42Z"/><path class="cls-107" d="M1264,708.87c0-.85-1.3-1.09-3.57,1.12-2.27,1.52-5.51,1.13-9.38.79a20.4,20.4,0,0,0-13.2.3c-4.81-1.59-9.32.2-13.19-.3-3.88-.19-7.11-.46-9.38-.79s-3.57-.71-3.57-1.12,1.3-.78,3.57-1.11,5.5-.6,9.38-.79c3.87.77,8.38-.5,13.19-.3s9.33-2,13.2.3c3.87-.2,7.11-.18,9.38.79C1262.72,708.5,1264,710.16,1264,708.87Z"/><ellipse class="cls-108" cx="1251.8" cy="724.25" rx="2.56" ry="0.34"/><path class="cls-109" d="M1290.18,723.27c0,.14-.85.26-1.9.26s-1.9-.12-1.9-.26.85-.27,1.9-.27S1290.18,723.12,1290.18,723.27Z"/><path class="cls-110" d="M1276.17,706.24c0,.6-.81,1-2.12.85-1.3-1-3.11,1.45-5.1.36-2,1.09-3.8-1.23-5.11-.36-1.3,1.06-2.11-.7-2.11-.85,0-1.21.81-.39,2.11-.86S1267,704,1269,705c2,0,3.8-.13,5.1.35C1275.36,704.9,1276.17,707.75,1276.17,706.24Z"/></g><g class="cls-111"><path class="cls-55" d="M1601.54,939.9c0,2.06,3,2.77,7.94,2.38,4.91.35,11.69,2,19.17,1a164.17,164.17,0,0,0,19.18-1c4.91-.61,7.94-1.45,7.94-2.38,0-1.85-12.14-3.36-27.12-3.36a164.11,164.11,0,0,0-19.17,1C1604.57,938.92,1601.54,939.05,1601.54,939.9Z"/><path class="cls-55" d="M1509.94,941.59c0,.28,5.94,2.06,13.26,1.68s13.26-.21,13.26-1.68c0-.7-5.94-.87-13.26-1.69C1515.88,941.07,1509.94,941.85,1509.94,941.59Z"/><path class="cls-55" d="M1061.6,946.35c0-1.85,4.17-2.36,11.44,2.41,7.27,3.28,17.64,2.45,30,1.7,12.41-2.84,26.85-2.84,42.27.65,15.42-3.43,29.87.42,42.28-.65,12.41-.41,22.78-1,30-1.7s11.44-1.53,11.44-2.41-4.17-1.7-11.44-2.4-17.64-1.3-30-1.71c-12.41,1.67-26.86-1.09-42.28-.65-15.42.61-29.86-4.42-42.27.65-12.41-.44-22.78-.4-30,1.71C1065.77,945.54,1061.6,949.14,1061.6,946.35Z"/><path class="cls-55" d="M1022.69,940.65c0,1.31,2.59,2.2,6.77,1.85,4.19-2.12,10,3.13,16.35.77,6.39,2.36,12.17-2.66,16.36-.77a4.79,4.79,0,0,0,6.77-1.85c0-2.59-2.59-.83-6.77-1.85s-10-2.94-16.36-.76c-6.38,0-12.16-.28-16.35.76C1025.28,937.75,1022.69,943.92,1022.69,940.65Z"/></g><polygon class="cls-9" points="484 157.14 475.68 165.23 464.55 565.73 614.95 507.41 621.14 488.56 484 157.14"/><polygon class="cls-112" points="484 157.14 475.61 549.99 627.51 497.22 638.58 198.78 484 157.14"/><polygon class="cls-113" points="491.59 162.41 504.54 171.99 631.85 204.37 638.58 198.78 491.59 162.41"/><polygon class="cls-9" points="502.85 179.31 491.59 529.11 475.68 546.52 486.52 165.23 502.85 179.31"/><polygon class="cls-114" points="499.47 526.29 621.14 488.56 632.97 208.6 616.64 454.08 499.47 497.22 499.47 526.29"/><polygon class="cls-9" points="556.33 280.98 512.39 286.28 517.74 198.21 556.33 280.98"/><polygon class="cls-115" points="517.84 195.78 560.65 205.44 558 279.52 514.2 283.22 517.84 195.78"/><polygon class="cls-116" points="522.16 202.72 518.97 277.06 555.02 274.19 558 218.87 553.14 272.01 520.65 274.78 523.47 203.62 522.16 202.72"/><polygon class="cls-9" points="614.96 277.39 580.55 281.54 584.74 212.58 614.96 277.39"/><polygon class="cls-117" points="584.82 210.67 618.34 218.24 616.27 276.25 581.97 279.14 584.82 210.67"/><polygon class="cls-116" points="588.2 216.11 585.7 274.32 613.93 272.08 616.27 228.75 612.46 270.37 587.02 272.54 589.23 216.81 588.2 216.11"/><polygon class="cls-9" points="595.92 447.73 523.7 456.44 532.49 311.7 595.92 447.73"/><polygon class="cls-118" points="532.65 307.69 603.68 304.98 598.8 441.28 526.68 451.41 532.65 307.69"/><polygon class="cls-116" points="539.75 319.11 534.5 441.28 592.84 433.27 595.92 338.44 589.75 429.68 537.28 437.55 541.91 320.58 539.75 319.11"/><polygon class="cls-116" points="552 317.03 552 319.87 587.95 318.45 587.95 315.43 552 317.03"/><polygon class="cls-116" points="545.38 336.32 545.38 338.12 568.15 337.22 568.15 335.31 545.38 336.32"/><polygon class="cls-116" points="545.38 341.29 545.38 343.09 568.15 342.19 568.15 340.28 545.38 341.29"/><polygon class="cls-116" points="545.38 346.61 545.38 348.41 568.15 347.51 568.15 345.6 545.38 346.61"/><polygon class="cls-116" points="545.38 351.93 545.38 353.73 568.15 352.83 568.15 350.92 545.38 351.93"/><polygon class="cls-116" points="545.38 368.69 545.38 370.49 568.15 369.59 568.15 367.68 545.38 368.69"/><polygon class="cls-116" points="545.38 373.66 545.38 375.46 568.15 374.56 568.15 372.65 545.38 373.66"/><polygon class="cls-116" points="545.38 378.98 545.38 380.78 568.15 379.88 568.15 377.97 545.38 378.98"/><polygon class="cls-116" points="545.38 384.3 545.38 386.1 568.15 385.2 568.15 383.29 545.38 384.3"/><polygon class="cls-116" points="544.15 404.4 544.15 406.2 566.91 405.3 566.91 403.39 544.15 404.4"/><polygon class="cls-116" points="544.15 409.37 544.15 411.17 566.91 410.27 566.91 408.36 544.15 409.37"/><polygon class="cls-116" points="544.15 414.69 544.15 416.49 566.91 415.59 566.91 413.68 544.15 414.69"/><polygon class="cls-116" points="544.15 420.01 544.15 421.81 566.91 420.91 566.91 419 544.15 420.01"/><polygon class="cls-119" points="417 26.23 1492.07 26.23 1485.11 29.77 423.96 29.77 417 26.23"/><polygon class="cls-120" points="416.04 29.77 1491.1 29.77 1484.14 33.31 951.65 37.04 423 33.31 416.04 29.77"/><polygon class="cls-119" points="601.63 125.2 1322.02 125.2 1317.36 127.16 606.3 127.16 601.63 125.2"/><polygon class="cls-121" points="600.99 127.16 1321.38 127.16 1316.71 129.12 959.89 131.19 605.65 129.12 600.99 127.16"/><g class="cls-122"><polygon class="cls-119" points="716.64 184.86 1219.16 184.86 1215.9 185.86 719.89 185.86 716.64 184.86"/><polygon class="cls-123" points="716.19 185.86 1218.7 185.86 1215.45 186.85 966.55 187.91 719.44 186.85 716.19 185.86"/></g><g class="cls-122"><polygon class="cls-119" points="766.11 217.19 1161.2 217.19 1158.64 218.19 768.66 218.19 766.11 217.19"/><polygon class="cls-124" points="765.75 218.19 1160.85 218.19 1158.29 219.19 962.59 220.24 768.31 219.19 765.75 218.19"/></g><polygon class="cls-125" points="-34.23 -188.56 821.3 249.14 825.98 241.62 62.2 -181.03 -34.23 -188.56"/><polygon class="cls-126" points="1984.65 -194.6 1106.06 249.14 1101.37 241.62 1940.81 -221.96 1984.65 -194.6"/><polygon class="cls-127" points="169.94 -181.03 821.3 242.86 72.39 -176.94 169.94 -181.03"/><path class="cls-128" d="M1751.54-198.09,1106.91,238.55s787-433.63,790.68-436.64S1751.54-198.09,1751.54-198.09Z"/><polygon class="cls-129" points="771.79 14.22 1143.44 14.22 1289.07 -160.63 639.11 -154.01 771.79 14.22"/><polygon class="cls-130" points="1220.35 -142.53 1220.35 -111.09 1140.87 18.42 774.17 18.42 694.69 -111.09 694.69 -142.53 1220.35 -142.53"/><polygon class="cls-24" points="790.87 6.66 736.66 -98.72 1184.39 -98.72 1128.18 9.18 790.87 6.66"/><polygon class="cls-131" points="736.66 -98.72 503.38 620.05 1425.87 628.07 1184.39 -98.72 736.66 -98.72"/><polygon class="cls-132" points="394 -58.87 690.56 -58.87 755.4 18.42 509.11 20.52 394 -58.87"/><polygon class="cls-133" points="1528.52 -65.56 1231.95 -65.56 1167.12 11.73 1413.41 13.83 1528.52 -65.56"/><polygon class="cls-134" points="880.23 176.55 1051.83 176.55 1119.07 90.8 818.97 94.05 880.23 176.55"/><polygon class="cls-135" points="1087.34 99.68 1087.34 115.09 1050.64 178.61 881.34 178.61 844.63 115.09 844.63 99.68 1087.34 99.68"/><polygon class="cls-24" points="889.04 172.84 864.01 121.16 1070.74 121.16 1044.78 174.08 889.04 172.84"/><polygon class="cls-136" points="848.26 99.68 848.26 112.04 1083.72 112.04 1083.72 100.91 848.26 99.68"/><polygon class="cls-137" points="864.01 121.16 756.3 473.66 1132.6 477.13 1070.74 121.16 864.01 121.16"/><polygon class="cls-138" points="705.8 140.71 842.73 140.71 872.66 178.61 758.95 179.64 705.8 140.71"/><polygon class="cls-139" points="1229.62 137.42 1092.69 137.42 1062.76 175.33 1176.47 176.36 1229.62 137.42"/><polygon class="cls-140" points="722.43 742.46 546.94 917.29 1360.19 926.61 1228 758.94 722.43 742.46"/><polygon class="cls-141" points="867.71 532.35 791.79 607.98 1143.64 612.02 1086.44 539.48 867.71 532.35"/><polygon class="cls-142" points="1376.02 586.1 1603.25 684.57 1595.51 542.59 1384 512.23 1376.02 586.1"/></g></g></g></svg>