<svg xmlns="http://www.w3.org/2000/svg" xmlns:xlink="http://www.w3.org/1999/xlink" viewBox="0 0 801.13 401.32"><defs><style>.cls-1{fill:none;}.cls-2{isolation:isolate;}.cls-3{clip-path:url(#clip-path);}.cls-100,.cls-101,.cls-102,.cls-103,.cls-104,.cls-105,.cls-106,.cls-107,.cls-108,.cls-109,.cls-110,.cls-111,.cls-113,.cls-114,.cls-116,.cls-117,.cls-119,.cls-120,.cls-122,.cls-123,.cls-124,.cls-125,.cls-126,.cls-127,.cls-128,.cls-129,.cls-130,.cls-131,.cls-132,.cls-133,.cls-134,.cls-135,.cls-136,.cls-137,.cls-138,.cls-139,.cls-140,.cls-141,.cls-142,.cls-143,.cls-145,.cls-146,.cls-147,.cls-148,.cls-149,.cls-150,.cls-151,.cls-152,.cls-153,.cls-154,.cls-155,.cls-156,.cls-157,.cls-158,.cls-160,.cls-161,.cls-162,.cls-163,.cls-164,.cls-165,.cls-4,.cls-59,.cls-6,.cls-60,.cls-61,.cls-62,.cls-63,.cls-64,.cls-65,.cls-66,.cls-67,.cls-68,.cls-7,.cls-70,.cls-71,.cls-72,.cls-73,.cls-74,.cls-77,.cls-78,.cls-79,.cls-8,.cls-80,.cls-81,.cls-82,.cls-83,.cls-84,.cls-85,.cls-86,.cls-87,.cls-88,.cls-92,.cls-93,.cls-94,.cls-95,.cls-96,.cls-97,.cls-98,.cls-99{fill-rule:evenodd;}.cls-4{fill:url(#Áåçûìÿííûé_ãðàäèåíò_334);}.cls-140,.cls-31,.cls-5,.cls-85{opacity:0.2;}.cls-100,.cls-105,.cls-111,.cls-112,.cls-115,.cls-118,.cls-121,.cls-128,.cls-129,.cls-130,.cls-136,.cls-140,.cls-141,.cls-145,.cls-149,.cls-152,.cls-157,.cls-159,.cls-160,.cls-166,.cls-31,.cls-5,.cls-69,.cls-72,.cls-75,.cls-76,.cls-77,.cls-78,.cls-82,.cls-85,.cls-89,.cls-90,.cls-91,.cls-95{mix-blend-mode:multiply;}.cls-5{fill:url(#Áåçûìÿííûé_ãðàäèåíò_306);}.cls-6{fill:url(#Áåçûìÿííûé_ãðàäèåíò_36);}.cls-7{fill:url(#Áåçûìÿííûé_ãðàäèåíò_35);}.cls-8{fill:url(#Áåçûìÿííûé_ãðàäèåíò_281);}.cls-100,.cls-105,.cls-112,.cls-115,.cls-118,.cls-121,.cls-128,.cls-129,.cls-130,.cls-136,.cls-141,.cls-145,.cls-149,.cls-152,.cls-160,.cls-72,.cls-77,.cls-78,.cls-82,.cls-9,.cls-95{opacity:0.3;}.cls-122,.cls-123,.cls-9,.cls-92{mix-blend-mode:screen;}.cls-10{fill:url(#Áåçûìÿííûé_ãðàäèåíò_210);}.cls-11{fill:url(#Áåçûìÿííûé_ãðàäèåíò_210-2);}.cls-12{fill:url(#Áåçûìÿííûé_ãðàäèåíò_210-3);}.cls-13{fill:url(#Áåçûìÿííûé_ãðàäèåíò_210-4);}.cls-14{fill:url(#Áåçûìÿííûé_ãðàäèåíò_210-5);}.cls-15{fill:url(#Áåçûìÿííûé_ãðàäèåíò_210-6);}.cls-16{fill:url(#Áåçûìÿííûé_ãðàäèåíò_210-7);}.cls-17{fill:url(#Áåçûìÿííûé_ãðàäèåíò_210-8);}.cls-18{fill:url(#Áåçûìÿííûé_ãðàäèåíò_210-9);}.cls-19{fill:url(#Áåçûìÿííûé_ãðàäèåíò_210-10);}.cls-20{fill:url(#Áåçûìÿííûé_ãðàäèåíò_210-11);}.cls-21{fill:url(#Áåçûìÿííûé_ãðàäèåíò_210-12);}.cls-22{fill:url(#Áåçûìÿííûé_ãðàäèåíò_210-13);}.cls-23{fill:url(#Áåçûìÿííûé_ãðàäèåíò_210-14);}.cls-24{fill:url(#Áåçûìÿííûé_ãðàäèåíò_210-15);}.cls-25{fill:url(#Áåçûìÿííûé_ãðàäèåíò_210-16);}.cls-26{fill:url(#Áåçûìÿííûé_ãðàäèåíò_210-17);}.cls-27{fill:url(#Áåçûìÿííûé_ãðàäèåíò_210-18);}.cls-28{fill:url(#Áåçûìÿííûé_ãðàäèåíò_210-19);}.cls-29{fill:url(#Áåçûìÿííûé_ãðàäèåíò_210-20);}.cls-30{fill:url(#Áåçûìÿííûé_ãðàäèåíò_210-21);}.cls-32{fill:url(#Áåçûìÿííûé_ãðàäèåíò_217);}.cls-33{fill:url(#Áåçûìÿííûé_ãðàäèåíò_217-2);}.cls-34{fill:url(#Áåçûìÿííûé_ãðàäèåíò_217-3);}.cls-35{fill:url(#Áåçûìÿííûé_ãðàäèåíò_217-4);}.cls-36{fill:url(#Áåçûìÿííûé_ãðàäèåíò_217-5);}.cls-37{fill:url(#Áåçûìÿííûé_ãðàäèåíò_217-6);}.cls-38{fill:url(#Áåçûìÿííûé_ãðàäèåíò_217-7);}.cls-39{fill:url(#Áåçûìÿííûé_ãðàäèåíò_217-8);}.cls-40{fill:url(#Áåçûìÿííûé_ãðàäèåíò_217-9);}.cls-41{fill:url(#Áåçûìÿííûé_ãðàäèåíò_217-10);}.cls-42{fill:url(#Áåçûìÿííûé_ãðàäèåíò_217-11);}.cls-43{fill:url(#Áåçûìÿííûé_ãðàäèåíò_217-12);}.cls-44{fill:url(#Áåçûìÿííûé_ãðàäèåíò_217-13);}.cls-45{fill:url(#Áåçûìÿííûé_ãðàäèåíò_217-14);}.cls-46{fill:url(#Áåçûìÿííûé_ãðàäèåíò_217-15);}.cls-47{fill:url(#Áåçûìÿííûé_ãðàäèåíò_217-16);}.cls-48{fill:url(#Áåçûìÿííûé_ãðàäèåíò_217-17);}.cls-49{fill:url(#Áåçûìÿííûé_ãðàäèåíò_217-18);}.cls-50{fill:url(#Áåçûìÿííûé_ãðàäèåíò_217-19);}.cls-51{fill:url(#Áåçûìÿííûé_ãðàäèåíò_217-20);}.cls-52{fill:url(#Áåçûìÿííûé_ãðàäèåíò_217-21);}.cls-53{fill:url(#Áåçûìÿííûé_ãðàäèåíò_217-22);}.cls-54{fill:url(#Áåçûìÿííûé_ãðàäèåíò_217-23);}.cls-55{fill:url(#Áåçûìÿííûé_ãðàäèåíò_217-24);}.cls-56{fill:url(#Áåçûìÿííûé_ãðàäèåíò_217-25);}.cls-57{fill:url(#Áåçûìÿííûé_ãðàäèåíò_217-26);}.cls-58{fill:url(#Áåçûìÿííûé_ãðàäèåíò_217-27);}.cls-59{fill:#dbe915;}.cls-60{fill:#ffe9ec;}.cls-61{fill:url(#Áåçûìÿííûé_ãðàäèåíò_330);}.cls-62{fill:url(#Áåçûìÿííûé_ãðàäèåíò_332);}.cls-63{fill:url(#Áåçûìÿííûé_ãðàäèåíò_55);}.cls-64{fill:url(#Áåçûìÿííûé_ãðàäèåíò_49);}.cls-135,.cls-65,.cls-66{fill:#ffdea1;}.cls-135,.cls-146,.cls-65,.cls-83{mix-blend-mode:soft-light;}.cls-67{fill:url(#Áåçûìÿííûé_ãðàäèåíò_55-2);}.cls-68{fill:url(#Áåçûìÿííûé_ãðàäèåíò_49-2);}.cls-69{fill:url(#Áåçûìÿííûé_ãðàäèåíò_243);}.cls-70{fill:url(#Áåçûìÿííûé_ãðàäèåíò_64);}.cls-71{fill:#ffc3c4;}.cls-72{fill:url(#Áåçûìÿííûé_ãðàäèåíò_171);}.cls-73{fill:url(#Áåçûìÿííûé_ãðàäèåíò_81);}.cls-74{fill:url(#Áåçûìÿííûé_ãðàäèåíò_39);}.cls-75{fill:url(#Áåçûìÿííûé_ãðàäèåíò_237);}.cls-76{fill:url(#Áåçûìÿííûé_ãðàäèåíò_237-2);}.cls-77{fill:url(#Áåçûìÿííûé_ãðàäèåíò_250);}.cls-78{fill:url(#Áåçûìÿííûé_ãðàäèåíò_250-2);}.cls-79{fill:url(#Áåçûìÿííûé_ãðàäèåíò_208);}.cls-80{fill:url(#Áåçûìÿííûé_ãðàäèåíò_197);}.cls-81{fill:#7567af;}.cls-111,.cls-157,.cls-82,.cls-85{fill:#887cab;}.cls-83{fill:#fffff4;}.cls-84{fill:#4d539c;}.cls-86{fill:#a1acd3;}.cls-87{fill:url(#Áåçûìÿííûé_ãðàäèåíò_208-2);}.cls-88{fill:url(#Áåçûìÿííûé_ãðàäèåíò_197-2);}.cls-89{fill:url(#Áåçûìÿííûé_ãðàäèåíò_243-2);}.cls-90,.cls-91{opacity:0.6;}.cls-90{fill:url(#Áåçûìÿííûé_ãðàäèåíò_243-3);}.cls-91{fill:url(#Áåçûìÿííûé_ãðàäèåíò_243-4);}.cls-92{fill:url(#Áåçûìÿííûé_ãðàäèåíò_251);}.cls-93{fill:url(#Áåçûìÿííûé_ãðàäèåíò_64-2);}.cls-94{fill:url(#Áåçûìÿííûé_ãðàäèåíò_255);}.cls-95{fill:url(#Áåçûìÿííûé_ãðàäèåíò_171-2);}.cls-96{fill:url(#Áåçûìÿííûé_ãðàäèåíò_260);}.cls-97{fill:url(#Áåçûìÿííûé_ãðàäèåíò_46);}.cls-98{fill:url(#Áåçûìÿííûé_ãðàäèåíò_147);}.cls-99{fill:url(#Áåçûìÿííûé_ãðàäèåíò_255-2);}.cls-100{fill:url(#Áåçûìÿííûé_ãðàäèåíò_171-3);}.cls-101{fill:url(#Áåçûìÿííûé_ãðàäèåíò_260-2);}.cls-102{fill:url(#Áåçûìÿííûé_ãðàäèåíò_46-2);}.cls-103{fill:url(#Áåçûìÿííûé_ãðàäèåíò_147-2);}.cls-104{fill:url(#Áåçûìÿííûé_ãðàäèåíò_255-3);}.cls-105{fill:url(#Áåçûìÿííûé_ãðàäèåíò_171-4);}.cls-106{fill:url(#Áåçûìÿííûé_ãðàäèåíò_260-3);}.cls-107{fill:url(#Áåçûìÿííûé_ãðàäèåíò_46-3);}.cls-108{fill:url(#Áåçûìÿííûé_ãðàäèåíò_255-4);}.cls-109{fill:url(#Áåçûìÿííûé_ãðàäèåíò_298);}.cls-110{fill:url(#Áåçûìÿííûé_ãðàäèåíò_255-5);}.cls-111,.cls-135{opacity:0.5;}.cls-112{fill:url(#Áåçûìÿííûé_ãðàäèåíò_250-3);}.cls-113{fill:url(#Áåçûìÿííûé_ãðàäèåíò_298-2);}.cls-114{fill:url(#Áåçûìÿííûé_ãðàäèåíò_255-6);}.cls-115{fill:url(#Áåçûìÿííûé_ãðàäèåíò_250-4);}.cls-116{fill:url(#Áåçûìÿííûé_ãðàäèåíò_312);}.cls-117{fill:url(#Áåçûìÿííûé_ãðàäèåíò_255-7);}.cls-118{fill:url(#Áåçûìÿííûé_ãðàäèåíò_250-5);}.cls-119{fill:url(#Áåçûìÿííûé_ãðàäèåíò_312-2);}.cls-120{fill:url(#Áåçûìÿííûé_ãðàäèåíò_255-8);}.cls-121{fill:url(#Áåçûìÿííûé_ãðàäèåíò_250-6);}.cls-122{fill:url(#Áåçûìÿííûé_ãðàäèåíò_313);}.cls-123{fill:url(#Áåçûìÿííûé_ãðàäèåíò_313-2);}.cls-124{fill:url(#Áåçûìÿííûé_ãðàäèåíò_49-3);}.cls-125{fill:url(#Áåçûìÿííûé_ãðàäèåíò_266);}.cls-126{fill:url(#Áåçûìÿííûé_ãðàäèåíò_234);}.cls-127{fill:url(#Áåçûìÿííûé_ãðàäèåíò_46-4);}.cls-128{fill:#b3777c;}.cls-129{fill:url(#Áåçûìÿííûé_ãðàäèåíò_250-7);}.cls-130{fill:url(#Áåçûìÿííûé_ãðàäèåíò_250-8);}.cls-131{fill:url(#Áåçûìÿííûé_ãðàäèåíò_67);}.cls-132{fill:url(#Áåçûìÿííûé_ãðàäèåíò_347);}.cls-133{fill:url(#Áåçûìÿííûé_ãðàäèåíò_353);}.cls-134{fill:url(#Áåçûìÿííûé_ãðàäèåíò_347-2);}.cls-136{fill:url(#Áåçûìÿííûé_ãðàäèåíò_250-9);}.cls-137{fill:url(#Áåçûìÿííûé_ãðàäèåíò_46-5);}.cls-138{fill:url(#Áåçûìÿííûé_ãðàäèåíò_250-10);}.cls-139{fill:url(#Áåçûìÿííûé_ãðàäèåíò_250-11);}.cls-140{fill:url(#Áåçûìÿííûé_ãðàäèåíò_354);}.cls-141{fill:url(#Áåçûìÿííûé_ãðàäèåíò_397);}.cls-142{fill:url(#Áåçûìÿííûé_ãðàäèåíò_150);}.cls-143{fill:url(#Áåçûìÿííûé_ãðàäèåíò_151);}.cls-144{fill:url(#Áåçûìÿííûé_ãðàäèåíò_331);}.cls-145{fill:url(#Áåçûìÿííûé_ãðàäèåíò_171-5);}.cls-146{fill:#ffffa4;opacity:0.8;}.cls-147{fill:url(#Áåçûìÿííûé_ãðàäèåíò_64-3);}.cls-148{fill:url(#Áåçûìÿííûé_ãðàäèåíò_255-9);}.cls-149{fill:url(#Áåçûìÿííûé_ãðàäèåíò_171-6);}.cls-150{fill:url(#Áåçûìÿííûé_ãðàäèåíò_260-4);}.cls-151{fill:url(#Áåçûìÿííûé_ãðàäèåíò_46-6);}.cls-152{fill:url(#Áåçûìÿííûé_ãðàäèåíò_250-12);}.cls-153{fill:url(#Áåçûìÿííûé_ãðàäèåíò_368);}.cls-154{fill:url(#Áåçûìÿííûé_ãðàäèåíò_372);}.cls-155{fill:url(#Áåçûìÿííûé_ãðàäèåíò_392);}.cls-156{fill:url(#Áåçûìÿííûé_ãðàäèåíò_388);}.cls-157{opacity:0.4;}.cls-158{fill:url(#Áåçûìÿííûé_ãðàäèåíò_385);}.cls-159{fill:url(#Áåçûìÿííûé_ãðàäèåíò_237-3);}.cls-160{fill:url(#Áåçûìÿííûé_ãðàäèåíò_250-13);}.cls-161{fill:url(#Áåçûìÿííûé_ãðàäèåíò_368-2);}.cls-162{fill:url(#Áåçûìÿííûé_ãðàäèåíò_372-2);}.cls-163{fill:url(#Áåçûìÿííûé_ãðàäèåíò_392-2);}.cls-164{fill:url(#Áåçûìÿííûé_ãðàäèåíò_388-2);}.cls-165{fill:url(#Áåçûìÿííûé_ãðàäèåíò_385-2);}.cls-166{fill:url(#Áåçûìÿííûé_ãðàäèåíò_237-4);}</style><clipPath id="clip-path" transform="translate(1.13 0.87)"><rect class="cls-1" width="800" height="400"/></clipPath><linearGradient id="Áåçûìÿííûé_ãðàäèåíò_334" x1="401.01" y1="175.14" x2="401.01" y2="0.87" gradientUnits="userSpaceOnUse"><stop offset="0" stop-color="#ffeacd"/><stop offset="0.26" stop-color="#fde6cc"/><stop offset="0.53" stop-color="#f8dac9"/><stop offset="0.8" stop-color="#efc6c5"/><stop offset="1" stop-color="#e5b1c0"/></linearGradient><linearGradient id="Áåçûìÿííûé_ãðàäèåíò_306" x1="386.4" y1="179.21" x2="393.4" y2="8.21" gradientUnits="userSpaceOnUse"><stop offset="0" stop-color="#fff"/><stop offset="1" stop-color="#890041"/></linearGradient><linearGradient id="Áåçûìÿííûé_ãðàäèåíò_36" y1="189.53" x2="352.98" y2="189.53" gradientUnits="userSpaceOnUse"><stop offset="0" stop-color="#819f2e"/><stop offset="1" stop-color="#ddd136"/></linearGradient><linearGradient id="Áåçûìÿííûé_ãðàäèåíò_35" x1="711.07" y1="184.25" x2="355.19" y2="184.25" gradientTransform="matrix(-1, 0, 0, 1, 1156.32, 0.87)" gradientUnits="userSpaceOnUse"><stop offset="0" stop-color="#ddd136"/><stop offset="1" stop-color="#819f2e"/></linearGradient><linearGradient id="Áåçûìÿííûé_ãðàäèåíò_281" x1="400.57" y1="400.87" x2="400.57" y2="263.12" gradientUnits="userSpaceOnUse"><stop offset="0" stop-color="#e5a1bd"/><stop offset="0.28" stop-color="#eeb9c2"/><stop offset="0.75" stop-color="#fadcca"/><stop offset="1" stop-color="#ffeacd"/></linearGradient><linearGradient id="Áåçûìÿííûé_ãðàäèåíò_210" x1="400.92" y1="256.7" x2="395.58" y2="404.7" gradientUnits="userSpaceOnUse"><stop offset="0" stop-color="#ffd8c9"/><stop offset="1" stop-color="#890041"/></linearGradient><linearGradient id="Áåçûìÿííûé_ãðàäèåíò_210-2" x1="452.09" y1="258.55" x2="446.75" y2="406.55" xlink:href="#Áåçûìÿííûé_ãðàäèåíò_210"/><linearGradient id="Áåçûìÿííûé_ãðàäèåíò_210-3" x1="501.09" y1="260.31" x2="495.76" y2="408.31" xlink:href="#Áåçûìÿííûé_ãðàäèåíò_210"/><linearGradient id="Áåçûìÿííûé_ãðàäèåíò_210-4" x1="548.42" y1="262.02" x2="543.09" y2="410.02" xlink:href="#Áåçûìÿííûé_ãðàäèåíò_210"/><linearGradient id="Áåçûìÿííûé_ãðàäèåíò_210-5" x1="595.25" y1="263.71" x2="589.92" y2="411.71" xlink:href="#Áåçûìÿííûé_ãðàäèåíò_210"/><linearGradient id="Áåçûìÿííûé_ãðàäèåíò_210-6" x1="348.95" y1="254.83" x2="343.62" y2="402.83" xlink:href="#Áåçûìÿííûé_ãðàäèåíò_210"/><linearGradient id="Áåçûìÿííûé_ãðàäèåíò_210-7" x1="302.87" y1="253.17" x2="297.54" y2="401.17" xlink:href="#Áåçûìÿííûé_ãðàäèåíò_210"/><linearGradient id="Áåçûìÿííûé_ãðàäèåíò_210-8" x1="252.52" y1="251.36" x2="247.18" y2="399.36" xlink:href="#Áåçûìÿííûé_ãðàäèåíò_210"/><linearGradient id="Áåçûìÿííûé_ãðàäèåíò_210-9" x1="208.27" y1="249.76" x2="202.94" y2="397.76" xlink:href="#Áåçûìÿííûé_ãðàäèåíò_210"/><linearGradient id="Áåçûìÿííûé_ãðàäèåíò_210-10" x1="394.23" y1="260.25" x2="388.8" y2="410.82" xlink:href="#Áåçûìÿííûé_ãðàäèåíò_210"/><linearGradient id="Áåçûìÿííûé_ãðàäèåíò_210-11" x1="403.3" y1="255.97" x2="397.97" y2="403.97" gradientTransform="translate(6.96 -8.18) rotate(1.18)" xlink:href="#Áåçûìÿííûé_ãðàäèåíò_210"/><linearGradient id="Áåçûìÿííûé_ãðàäèåíò_210-12" x1="407.07" y1="242.23" x2="400.4" y2="427.34" xlink:href="#Áåçûìÿííûé_ãðàäèåíò_210"/><linearGradient id="Áåçûìÿííûé_ãðàäèåíò_210-13" x1="411.12" y1="256.25" x2="405.79" y2="404.25" gradientTransform="translate(2.31 -3.19) rotate(0.45)" xlink:href="#Áåçûìÿííûé_ãðàäèåíò_210"/><linearGradient id="Áåçûìÿííûé_ãðàäèåíò_210-14" x1="401.14" y1="255.89" x2="395.81" y2="403.89" gradientTransform="translate(5.08 -7) rotate(1.01)" xlink:href="#Áåçûìÿííûé_ãðàäèåíò_210"/><linearGradient id="Áåçûìÿííûé_ãðàäèåíò_210-15" x1="397.6" y1="255.76" x2="392.26" y2="403.76" gradientTransform="translate(5.53 -7.73) rotate(1.12)" xlink:href="#Áåçûìÿííûé_ãðàäèåíò_210"/><linearGradient id="Áåçûìÿííûé_ãðàäèåíò_210-16" x1="403.51" y1="256.8" x2="398.18" y2="404.8" xlink:href="#Áåçûìÿííûé_ãðàäèåíò_210"/><linearGradient id="Áåçûìÿííûé_ãðàäèåíò_210-17" x1="399.64" y1="255.83" x2="394.31" y2="403.83" gradientTransform="translate(1.8 -2.65) rotate(0.38)" xlink:href="#Áåçûìÿííûé_ãðàäèåíò_210"/><linearGradient id="Áåçûìÿííûé_ãðàäèåíò_210-18" x1="403.25" y1="256.79" x2="397.91" y2="404.79" xlink:href="#Áåçûìÿííûé_ãðàäèåíò_210"/><linearGradient id="Áåçûìÿííûé_ãðàäèåíò_210-19" x1="401.11" y1="256.71" x2="395.78" y2="404.7" xlink:href="#Áåçûìÿííûé_ãðàäèåíò_210"/><linearGradient id="Áåçûìÿííûé_ãðàäèåíò_210-20" x1="398" y1="255.77" x2="392.66" y2="403.77" gradientTransform="translate(647.04 -144.33) rotate(88.33)" xlink:href="#Áåçûìÿííûé_ãðàäèåíò_210"/><linearGradient id="Áåçûìÿííûé_ãðàäèåíò_210-21" x1="399.17" y1="256.64" x2="393.83" y2="404.64" xlink:href="#Áåçûìÿííûé_ãðàäèåíò_210"/><linearGradient id="Áåçûìÿííûé_ãðàäèåíò_217" x1="617.96" y1="269.67" x2="611.96" y2="416.67" gradientUnits="userSpaceOnUse"><stop offset="0" stop-color="#fffefe"/><stop offset="1" stop-color="#ca8ca9"/></linearGradient><linearGradient id="Áåçûìÿííûé_ãðàäèåíò_217-2" x1="615.03" y1="269.55" x2="609.03" y2="416.55" xlink:href="#Áåçûìÿííûé_ãðàäèåíò_217"/><linearGradient id="Áåçûìÿííûé_ãðàäèåíò_217-3" x1="502.86" y1="264.98" x2="496.86" y2="411.98" xlink:href="#Áåçûìÿííûé_ãðàäèåíò_217"/><linearGradient id="Áåçûìÿííûé_ãðàäèåíò_217-4" x1="451.35" y1="262.87" x2="445.35" y2="409.87" xlink:href="#Áåçûìÿííûé_ãðàäèåíò_217"/><linearGradient id="Áåçûìÿííûé_ãðàäèåíò_217-5" x1="364.54" y1="259.33" x2="358.54" y2="406.33" xlink:href="#Áåçûìÿííûé_ãðàäèåíò_217"/><linearGradient id="Áåçûìÿííûé_ãðàäèåíò_217-6" x1="427" y1="261.88" x2="421" y2="408.88" xlink:href="#Áåçûìÿííûé_ãðàäèåíò_217"/><linearGradient id="Áåçûìÿííûé_ãðàäèåíò_217-7" x1="514.12" y1="265.44" x2="508.12" y2="412.44" xlink:href="#Áåçûìÿííûé_ãðàäèåíò_217"/><linearGradient id="Áåçûìÿííûé_ãðàäèåíò_217-8" x1="600.67" y1="268.97" x2="594.67" y2="415.97" xlink:href="#Áåçûìÿííûé_ãðàäèåíò_217"/><linearGradient id="Áåçûìÿííûé_ãðàäèåíò_217-9" x1="746.55" y1="274.92" x2="740.55" y2="421.92" xlink:href="#Áåçûìÿííûé_ãðàäèåíò_217"/><linearGradient id="Áåçûìÿííûé_ãðàäèåíò_217-10" x1="273.26" y1="255.61" x2="267.26" y2="402.6" xlink:href="#Áåçûìÿííûé_ãðàäèåíò_217"/><linearGradient id="Áåçûìÿííûé_ãðàäèåíò_217-11" x1="328.05" y1="257.84" x2="322.05" y2="404.84" xlink:href="#Áåçûìÿííûé_ãðàäèåíò_217"/><linearGradient id="Áåçûìÿííûé_ãðàäèåíò_217-12" x1="235.41" y1="254.1" x2="229.41" y2="401.1" xlink:href="#Áåçûìÿííûé_ãðàäèåíò_217"/><linearGradient id="Áåçûìÿííûé_ãðàäèåíò_217-13" x1="109.21" y1="248.91" x2="103.21" y2="395.91" xlink:href="#Áåçûìÿííûé_ãðàäèåíò_217"/><linearGradient id="Áåçûìÿííûé_ãðàäèåíò_217-14" x1="102.08" y1="248.62" x2="96.08" y2="395.62" xlink:href="#Áåçûìÿííûé_ãðàäèåíò_217"/><linearGradient id="Áåçûìÿííûé_ãðàäèåíò_217-15" x1="237.71" y1="254.15" x2="231.71" y2="401.15" xlink:href="#Áåçûìÿííûé_ãðàäèåíò_217"/><linearGradient id="Áåçûìÿííûé_ãðàäèåíò_217-16" x1="315.35" y1="257.32" x2="309.35" y2="404.32" xlink:href="#Áåçûìÿííûé_ãðàäèåíò_217"/><linearGradient id="Áåçûìÿííûé_ãðàäèåíò_217-17" x1="250.79" y1="254.69" x2="244.79" y2="401.69" xlink:href="#Áåçûìÿííûé_ãðàäèåíò_217"/><linearGradient id="Áåçûìÿííûé_ãðàäèåíò_217-18" x1="380.52" y1="259.98" x2="374.52" y2="406.98" xlink:href="#Áåçûìÿííûé_ãðàäèåíò_217"/><linearGradient id="Áåçûìÿííûé_ãðàäèåíò_217-19" x1="452.89" y1="262.94" x2="446.89" y2="409.94" xlink:href="#Áåçûìÿííûé_ãðàäèåíò_217"/><linearGradient id="Áåçûìÿííûé_ãðàäèåíò_217-20" x1="517.39" y1="265.57" x2="511.39" y2="412.57" xlink:href="#Áåçûìÿííûé_ãðàäèåíò_217"/><linearGradient id="Áåçûìÿííûé_ãðàäèåíò_217-21" x1="514.07" y1="265.43" x2="508.07" y2="412.43" xlink:href="#Áåçûìÿííûé_ãðàäèåíò_217"/><linearGradient id="Áåçûìÿííûé_ãðàäèåíò_217-22" x1="464.25" y1="263.4" x2="458.25" y2="410.4" xlink:href="#Áåçûìÿííûé_ãðàäèåíò_217"/><linearGradient id="Áåçûìÿííûé_ãðàäèåíò_217-23" x1="413.62" y1="261.33" x2="407.62" y2="408.34" xlink:href="#Áåçûìÿííûé_ãðàäèåíò_217"/><linearGradient id="Áåçûìÿííûé_ãðàäèåíò_217-24" x1="358.07" y1="259.07" x2="352.07" y2="406.07" xlink:href="#Áåçûìÿííûé_ãðàäèåíò_217"/><linearGradient id="Áåçûìÿííûé_ãðàäèåíò_217-25" x1="305.02" y1="256.9" x2="299.02" y2="403.9" xlink:href="#Áåçûìÿííûé_ãðàäèåíò_217"/><linearGradient id="Áåçûìÿííûé_ãðàäèåíò_217-26" x1="342.78" y1="258.44" x2="336.78" y2="405.44" xlink:href="#Áåçûìÿííûé_ãðàäèåíò_217"/><linearGradient id="Áåçûìÿííûé_ãðàäèåíò_217-27" x1="386.26" y1="260.22" x2="380.26" y2="407.22" xlink:href="#Áåçûìÿííûé_ãðàäèåíò_217"/><linearGradient id="Áåçûìÿííûé_ãðàäèåíò_330" x1="449.08" y1="110" x2="801.13" y2="110" gradientUnits="userSpaceOnUse"><stop offset="0" stop-color="#ffdea1"/><stop offset="0.54" stop-color="#ffb5a5"/><stop offset="1" stop-color="#d992a9"/></linearGradient><linearGradient id="Áåçûìÿííûé_ãðàäèåíò_332" y1="110" x2="349.99" y2="110" gradientUnits="userSpaceOnUse"><stop offset="0" stop-color="#d992a9"/><stop offset="0.46" stop-color="#ffb5a5"/><stop offset="1" stop-color="#ffdea1"/></linearGradient><linearGradient id="Áåçûìÿííûé_ãðàäèåíò_55" x1="622.53" y1="384.37" x2="622.53" y2="262.03" gradientUnits="userSpaceOnUse"><stop offset="0.02" stop-color="#c74a21"/><stop offset="0.99" stop-color="#922736"/></linearGradient><linearGradient id="Áåçûìÿííûé_ãðàäèåíò_49" x1="443.92" y1="323.32" x2="801.13" y2="323.32" gradientUnits="userSpaceOnUse"><stop offset="0" stop-color="#f98336"/><stop offset="1" stop-color="#e26221"/></linearGradient><linearGradient id="Áåçûìÿííûé_ãðàäèåíò_55-2" x1="107.86" y1="381.33" x2="107.86" y2="262.51" gradientTransform="matrix(-1, 0, 0, 1, 285.52, 0.87)" xlink:href="#Áåçûìÿííûé_ãðàäèåíò_55"/><linearGradient id="Áåçûìÿííûé_ãðàäèåíò_49-2" x1="-68.68" y1="324.77" x2="284.39" y2="324.77" gradientTransform="matrix(-1, 0, 0, 1, 285.52, 0.87)" xlink:href="#Áåçûìÿííûé_ãðàäèåíò_49"/><linearGradient id="Áåçûìÿííûé_ãðàäèåíò_243" x1="650.88" y1="316.26" x2="648" y2="396.03" gradientUnits="userSpaceOnUse"><stop offset="0" stop-color="#b86a6d"/><stop offset="0.15" stop-color="#ca9193"/><stop offset="0.33" stop-color="#ddb8ba"/><stop offset="0.51" stop-color="#ecd7d8"/><stop offset="0.68" stop-color="#f7edee"/><stop offset="0.85" stop-color="#fdfafb"/><stop offset="1" stop-color="#fff"/></linearGradient><linearGradient id="Áåçûìÿííûé_ãðàäèåíò_64" x1="79.74" y1="378.19" x2="79.74" y2="92.53" gradientUnits="userSpaceOnUse"><stop offset="0" stop-color="#ffae8a"/><stop offset="1" stop-color="#e37f98"/></linearGradient><linearGradient id="Áåçûìÿííûé_ãðàäèåíò_171" x1="32.86" y1="120.7" x2="131.47" y2="120.7" gradientUnits="userSpaceOnUse"><stop offset="0" stop-color="#ff936a"/><stop offset="1" stop-color="#890041"/></linearGradient><linearGradient id="Áåçûìÿííûé_ãðàäèåíò_81" x1="111.61" y1="343.02" x2="111.61" y2="188.16" gradientUnits="userSpaceOnUse"><stop offset="0" stop-color="#81902e"/><stop offset="1" stop-color="#939618"/></linearGradient><linearGradient id="Áåçûìÿííûé_ãðàäèåíò_39" x1="28.01" y1="242.4" x2="104.42" y2="242.4" gradientUnits="userSpaceOnUse"><stop offset="0" stop-color="#ffeacd"/><stop offset="1" stop-color="#fddade"/></linearGradient><linearGradient id="Áåçûìÿííûé_ãðàäèåíò_237" x1="214.84" y1="302.39" x2="211.82" y2="386.15" gradientUnits="userSpaceOnUse"><stop offset="0" stop-color="#7c61b3"/><stop offset="0.18" stop-color="#a390ca"/><stop offset="0.35" stop-color="#c4b8dd"/><stop offset="0.53" stop-color="#ded7ec"/><stop offset="0.69" stop-color="#f0edf6"/><stop offset="0.85" stop-color="#fbfafd"/><stop offset="1" stop-color="#fff"/></linearGradient><linearGradient id="Áåçûìÿííûé_ãðàäèåíò_237-2" x1="541.01" y1="291.94" x2="538.72" y2="355.55" xlink:href="#Áåçûìÿííûé_ãðàäèåíò_237"/><linearGradient id="Áåçûìÿííûé_ãðàäèåíò_250" x1="167.97" y1="338.56" x2="167.97" y2="156.69" gradientUnits="userSpaceOnUse"><stop offset="0" stop-color="#890041"/><stop offset="1" stop-color="#ce776a"/></linearGradient><linearGradient id="Áåçûìÿííûé_ãðàäèåíò_250-2" x1="577.11" y1="316.82" x2="577.11" y2="179.71" xlink:href="#Áåçûìÿííûé_ãðàäèåíò_250"/><linearGradient id="Áåçûìÿííûé_ãðàäèåíò_208" x1="175.23" y1="337.81" x2="175.23" y2="154.87" gradientUnits="userSpaceOnUse"><stop offset="0" stop-color="#562290"/><stop offset="1" stop-color="#727dc7"/></linearGradient><linearGradient id="Áåçûìÿííûé_ãðàäèåíò_197" x1="232.9" y1="336.63" x2="232.9" y2="154.87" gradientUnits="userSpaceOnUse"><stop offset="0" stop-color="#615bc5"/><stop offset="0.99" stop-color="#b5a9d1"/></linearGradient><linearGradient id="Áåçûìÿííûé_ãðàäèåíò_208-2" x1="385.79" y1="315.26" x2="385.79" y2="177.48" gradientTransform="matrix(-1, 0, 0, 1, 955.18, 0.87)" xlink:href="#Áåçûìÿííûé_ãðàäèåíò_208"/><linearGradient id="Áåçûìÿííûé_ãðàäèåíò_197-2" x1="429.73" y1="314.38" x2="429.73" y2="177.48" gradientTransform="matrix(-1, 0, 0, 1, 955.18, 0.87)" xlink:href="#Áåçûìÿííûé_ãðàäèåíò_197"/><linearGradient id="Áåçûìÿííûé_ãðàäèåíò_243-2" x1="88.19" y1="358.43" x2="86.65" y2="401.12" xlink:href="#Áåçûìÿííûé_ãðàäèåíò_243"/><linearGradient id="Áåçûìÿííûé_ãðàäèåíò_243-3" x1="298.49" y1="274.9" x2="296.95" y2="317.7" xlink:href="#Áåçûìÿííûé_ãðàäèåíò_243"/><linearGradient id="Áåçûìÿííûé_ãðàäèåíò_243-4" x1="484.34" y1="270.51" x2="483.22" y2="301.77" xlink:href="#Áåçûìÿííûé_ãðàäèåíò_243"/><linearGradient id="Áåçûìÿííûé_ãðàäèåíò_251" x1="145.68" y1="360.14" x2="375.38" y2="360.14" gradientUnits="userSpaceOnUse"><stop offset="0" stop-color="#d67733"/><stop offset="0.86"/></linearGradient><linearGradient id="Áåçûìÿííûé_ãðàäèåíò_64-2" x1="641.21" y1="127.38" x2="641.21" y2="48.62" xlink:href="#Áåçûìÿííûé_ãðàäèåíò_64"/><linearGradient id="Áåçûìÿííûé_ãðàäèåíò_255" x1="629.49" y1="124.83" x2="666.3" y2="61.08" gradientUnits="userSpaceOnUse"><stop offset="0" stop-color="#ffffea"/><stop offset="1" stop-color="#fee4e7"/></linearGradient><linearGradient id="Áåçûìÿííûé_ãðàäèåíò_171-2" x1="609.3" y1="72.32" x2="673.12" y2="72.32" xlink:href="#Áåçûìÿííûé_ãðàäèåíò_171"/><linearGradient id="Áåçûìÿííûé_ãðàäèåíò_260" x1="624.35" y1="121.86" x2="661.16" y2="58.11" gradientUnits="userSpaceOnUse"><stop offset="0" stop-color="#ffcab2"/><stop offset="1" stop-color="#e37f98"/></linearGradient><linearGradient id="Áåçûìÿííûé_ãðàäèåíò_46" x1="624.15" y1="93.37" x2="673.12" y2="93.37" gradientUnits="userSpaceOnUse"><stop offset="0" stop-color="#ffdea1"/><stop offset="1" stop-color="#fcb4bd"/></linearGradient><linearGradient id="Áåçûìÿííûé_ãðàäèåíò_147" x1="186.36" y1="180.57" x2="186.36" y2="152.34" gradientTransform="matrix(-1, 0, 0, 1, 489.26, 0.87)" gradientUnits="userSpaceOnUse"><stop offset="0" stop-color="#ffce93"/><stop offset="1" stop-color="#ff9598"/></linearGradient><linearGradient id="Áåçûìÿííûé_ãðàäèåíò_255-2" x1="182.16" y1="179.65" x2="195.35" y2="156.81" gradientTransform="matrix(-1, 0, 0, 1, 489.26, 0.87)" xlink:href="#Áåçûìÿííûé_ãðàäèåíò_255"/><linearGradient id="Áåçûìÿííûé_ãðàäèåíò_171-3" x1="174.92" y1="160.83" x2="197.8" y2="160.83" gradientTransform="matrix(-1, 0, 0, 1, 489.26, 0.87)" xlink:href="#Áåçûìÿííûé_ãðàäèåíò_171"/><linearGradient id="Áåçûìÿííûé_ãðàäèåíò_260-2" x1="180.32" y1="178.59" x2="193.51" y2="155.74" gradientTransform="matrix(-1, 0, 0, 1, 489.26, 0.87)" xlink:href="#Áåçûìÿííûé_ãðàäèåíò_260"/><linearGradient id="Áåçûìÿííûé_ãðàäèåíò_46-2" x1="180.25" y1="168.38" x2="197.8" y2="168.38" gradientTransform="matrix(-1, 0, 0, 1, 489.26, 0.87)" xlink:href="#Áåçûìÿííûé_ãðàäèåíò_46"/><linearGradient id="Áåçûìÿííûé_ãðàäèåíò_147-2" x1="7.53" y1="186.91" x2="7.53" y2="161.63" gradientTransform="translate(478.24 0.87)" xlink:href="#Áåçûìÿííûé_ãðàäèåíò_147"/><linearGradient id="Áåçûìÿííûé_ãðàäèåíò_255-3" x1="4.12" y1="186.29" x2="15.93" y2="165.83" gradientTransform="translate(478.24 0.87)" xlink:href="#Áåçûìÿííûé_ãðàäèåíò_255"/><linearGradient id="Áåçûìÿííûé_ãðàäèåíò_171-4" x1="-1.25" y1="168.78" x2="17.77" y2="168.78" gradientTransform="translate(478.24 0.87)" xlink:href="#Áåçûìÿííûé_ãðàäèåíò_171"/><linearGradient id="Áåçûìÿííûé_ãðàäèåíò_260-3" x1="2.47" y1="185.34" x2="14.28" y2="164.88" gradientTransform="translate(478.24 0.87)" xlink:href="#Áåçûìÿííûé_ãðàäèåíò_260"/><linearGradient id="Áåçûìÿííûé_ãðàäèåíò_46-3" x1="2.06" y1="175.99" x2="17.77" y2="175.99" gradientTransform="translate(478.24 0.87)" xlink:href="#Áåçûìÿííûé_ãðàäèåíò_46"/><linearGradient id="Áåçûìÿííûé_ãðàäèåíò_255-4" x1="377.91" y1="232.34" x2="420.35" y2="158.82" xlink:href="#Áåçûìÿííûé_ãðàäèåíò_255"/><linearGradient id="Áåçûìÿííûé_ãðàäèåíò_298" x1="322.98" y1="120.7" x2="322.98" y2="60.65" gradientUnits="userSpaceOnUse"><stop offset="0.01" stop-color="#a97393"/><stop offset="0.98" stop-color="#685973"/></linearGradient><linearGradient id="Áåçûìÿííûé_ãðàäèåíò_255-5" x1="316.32" y1="108.17" x2="335.35" y2="75.21" xlink:href="#Áåçûìÿííûé_ãðàäèåíò_255"/><linearGradient id="Áåçûìÿííûé_ãðàäèåíò_250-3" x1="320.94" y1="116.72" x2="323.09" y2="64.2" xlink:href="#Áåçûìÿííûé_ãðàäèåíò_250"/><linearGradient id="Áåçûìÿííûé_ãðàäèåíò_298-2" x1="450.88" y1="119.83" x2="450.88" y2="59.79" gradientTransform="matrix(-1, 0, 0, 1, 929.39, 0.87)" xlink:href="#Áåçûìÿííûé_ãðàäèåíò_298"/><linearGradient id="Áåçûìÿííûé_ãðàäèåíò_255-6" x1="444.22" y1="107.31" x2="463.25" y2="74.34" gradientTransform="matrix(-1, 0, 0, 1, 929.39, 0.87)" xlink:href="#Áåçûìÿííûé_ãðàäèåíò_255"/><linearGradient id="Áåçûìÿííûé_ãðàäèåíò_250-4" x1="479.04" y1="119.57" x2="481.28" y2="64.82" xlink:href="#Áåçûìÿííûé_ãðàäèåíò_250"/><linearGradient id="Áåçûìÿííûé_ãðàäèåíò_312" x1="367.87" y1="161.28" x2="367.87" y2="143.88" gradientUnits="userSpaceOnUse"><stop offset="0.01" stop-color="#bb91aa"/><stop offset="0.98" stop-color="#908598"/></linearGradient><linearGradient id="Áåçûìÿííûé_ãðàäèåíò_255-7" x1="366.06" y1="158" x2="371.87" y2="147.94" xlink:href="#Áåçûìÿííûé_ãðàäèåíò_255"/><linearGradient id="Áåçûìÿííûé_ãðàäèåíò_250-5" x1="367.2" y1="159.88" x2="367.82" y2="144.5" xlink:href="#Áåçûìÿííûé_ãðàäèåíò_250"/><linearGradient id="Áåçûìÿííûé_ãðàäèåíò_312-2" x1="497.91" y1="160.17" x2="497.91" y2="143.02" gradientTransform="matrix(-1, 0, 0, 1, 929.39, 0.87)" xlink:href="#Áåçûìÿííûé_ãðàäèåíò_312"/><linearGradient id="Áåçûìÿííûé_ãðàäèåíò_255-8" x1="496.09" y1="157.04" x2="501.93" y2="146.93" gradientTransform="matrix(-1, 0, 0, 1, 929.39, 0.87)" xlink:href="#Áåçûìÿííûé_ãðàäèåíò_255"/><linearGradient id="Áåçûìÿííûé_ãðàäèåíò_250-6" x1="431.8" y1="160.57" x2="432.44" y2="144.83" xlink:href="#Áåçûìÿííûé_ãðàäèåíò_250"/><linearGradient id="Áåçûìÿííûé_ãðàäèåíò_313" x1="465.84" y1="405.62" x2="491.84" y2="344.37" gradientUnits="userSpaceOnUse"><stop offset="0.14"/><stop offset="1" stop-color="#d67733"/></linearGradient><linearGradient id="Áåçûìÿííûé_ãðàäèåíò_313-2" x1="403.02" y1="404.76" x2="429.02" y2="343.51" gradientTransform="matrix(-1, 0, 0, 1, 735.4, 0.87)" xlink:href="#Áåçûìÿííûé_ãðàäèåíò_313"/><linearGradient id="Áåçûìÿííûé_ãðàäèåíò_49-3" x1="352.45" y1="257.73" x2="445.71" y2="257.73" xlink:href="#Áåçûìÿííûé_ãðàäèåíò_49"/><linearGradient id="Áåçûìÿííûé_ãðàäèåíò_266" x1="399" y1="257.37" x2="399" y2="200.87" gradientUnits="userSpaceOnUse"><stop offset="0" stop-color="#a4ae2e"/><stop offset="1" stop-color="#b3a518"/></linearGradient><linearGradient id="Áåçûìÿííûé_ãðàäèåíò_234" x1="397.14" y1="258.34" x2="400.24" y2="202.21" gradientUnits="userSpaceOnUse"><stop offset="0" stop-color="#e26221"/><stop offset="1" stop-color="#f98336"/></linearGradient><linearGradient id="Áåçûìÿííûé_ãðàäèåíò_46-4" x1="392.05" y1="231.98" x2="405.95" y2="210.7" xlink:href="#Áåçûìÿííûé_ãðàäèåíò_46"/><linearGradient id="Áåçûìÿííûé_ãðàäèåíò_250-7" x1="0" y1="256.01" x2="140.13" y2="256.01" xlink:href="#Áåçûìÿííûé_ãðàäèåíò_250"/><linearGradient id="Áåçûìÿííûé_ãðàäèåíò_250-8" x1="750.2" y1="263.12" x2="750.2" y2="78.93" xlink:href="#Áåçûìÿííûé_ãðàäèåíò_250"/><linearGradient id="Áåçûìÿííûé_ãðàäèåíò_67" x1="742.05" y1="257.9" x2="742.05" y2="72.32" gradientUnits="userSpaceOnUse"><stop offset="0.01" stop-color="#922736"/><stop offset="0.98" stop-color="#c74a21"/></linearGradient><linearGradient id="Áåçûìÿííûé_ãðàäèåíò_347" x1="784.8" y1="257.37" x2="784.8" y2="72.32" gradientUnits="userSpaceOnUse"><stop offset="0.01" stop-color="#4f1a36"/><stop offset="0.98" stop-color="#9b3e21"/></linearGradient><linearGradient id="Áåçûìÿííûé_ãðàäèåíò_353" x1="740.98" y1="255.87" x2="740.98" y2="78.93" gradientUnits="userSpaceOnUse"><stop offset="0" stop-color="#ff7621"/><stop offset="1" stop-color="#ff9c36"/></linearGradient><linearGradient id="Áåçûìÿííûé_ãðàäèåíò_347-2" x1="740.98" y1="255.87" x2="740.98" y2="78.93" xlink:href="#Áåçûìÿííûé_ãðàäèåíò_347"/><linearGradient id="Áåçûìÿííûé_ãðàäèåíò_250-9" x1="741.3" y1="207.71" x2="741.3" y2="124.01" xlink:href="#Áåçûìÿííûé_ãðàäèåíò_250"/><linearGradient id="Áåçûìÿííûé_ãðàäèåíò_46-5" x1="715.35" y1="205.98" x2="764.72" y2="120.48" xlink:href="#Áåçûìÿííûé_ãðàäèåíò_46"/><linearGradient id="Áåçûìÿííûé_ãðàäèåíò_250-10" x1="766.67" y1="130.33" x2="766.67" y2="126.52" xlink:href="#Áåçûìÿííûé_ãðàäèåíò_250"/><linearGradient id="Áåçûìÿííûé_ãðàäèåíò_250-11" x1="711" y1="145.62" x2="711" y2="141.8" xlink:href="#Áåçûìÿííûé_ãðàäèåíò_250"/><linearGradient id="Áåçûìÿííûé_ãðàäèåíò_354" x1="400" y1="400" x2="400" gradientUnits="userSpaceOnUse"><stop offset="0" stop-color="#ce776a"/><stop offset="1" stop-color="#890041"/></linearGradient><linearGradient id="Áåçûìÿííûé_ãðàäèåíò_397" x1="127.38" y1="286.9" x2="127.38" y2="268.16" gradientTransform="matrix(1.28, 0.43, -0.32, 0.95, 53.85, -39.6)" gradientUnits="userSpaceOnUse"><stop offset="0" stop-color="#a1606a"/><stop offset="1" stop-color="#890041"/></linearGradient><linearGradient id="Áåçûìÿííûé_ãðàäèåíò_150" x1="128.23" y1="279" x2="128.23" y2="262.25" gradientUnits="userSpaceOnUse"><stop offset="0.01" stop-color="#c25736"/><stop offset="0.98" stop-color="#ff7721"/></linearGradient><linearGradient id="Áåçûìÿííûé_ãðàäèåíò_151" x1="127.1" y1="277.56" x2="127.1" y2="263.69" xlink:href="#Áåçûìÿííûé_ãðàäèåíò_234"/><linearGradient id="Áåçûìÿííûé_ãðàäèåíò_331" x1="127.4" y1="276.71" x2="127.4" y2="266.27" gradientUnits="userSpaceOnUse"><stop offset="0.02" stop-color="#eadfcf"/><stop offset="0.68" stop-color="#a095ab"/><stop offset="0.99" stop-color="#e5c7ae"/></linearGradient><linearGradient id="Áåçûìÿííûé_ãðàäèåíò_171-5" x1="84.07" y1="364.15" x2="84.07" y2="124.49" xlink:href="#Áåçûìÿííûé_ãðàäèåíò_171"/><linearGradient id="Áåçûìÿííûé_ãðàäèåíò_64-3" x1="393.25" y1="109.97" x2="393.25" y2="12.8" gradientTransform="matrix(-1, 0, 0, 1, 489.26, 0.87)" xlink:href="#Áåçûìÿííûé_ãðàäèåíò_64"/><linearGradient id="Áåçûìÿííûé_ãðàäèåíò_255-9" x1="378.79" y1="106.82" x2="424.2" y2="28.17" gradientTransform="matrix(-1, 0, 0, 1, 489.26, 0.87)" xlink:href="#Áåçûìÿííûé_ãðàäèåíò_255"/><linearGradient id="Áåçûìÿííûé_ãðàäèåíò_171-6" x1="353.88" y1="42.04" x2="432.62" y2="42.04" gradientTransform="matrix(-1, 0, 0, 1, 489.26, 0.87)" xlink:href="#Áåçûìÿííûé_ãðàäèåíò_171"/><linearGradient id="Áåçûìÿííûé_ãðàäèåíò_260-4" x1="372.45" y1="103.16" x2="417.86" y2="24.51" gradientTransform="matrix(-1, 0, 0, 1, 489.26, 0.87)" xlink:href="#Áåçûìÿííûé_ãðàäèåíò_260"/><linearGradient id="Áåçûìÿííûé_ãðàäèåíò_46-6" x1="372.2" y1="68" x2="432.62" y2="68" gradientTransform="matrix(-1, 0, 0, 1, 489.26, 0.87)" xlink:href="#Áåçûìÿííûé_ãðàäèåíò_46"/><linearGradient id="Áåçûìÿííûé_ãðàäèåíò_250-12" x1="414.99" y1="270.05" x2="414.99" y2="242.9" gradientTransform="matrix(-1, 0, 0, 1, 752.73, 0.87)" xlink:href="#Áåçûìÿííûé_ãðàäèåíò_250"/><linearGradient id="Áåçûìÿííûé_ãðàäèåíò_368" x1="406.58" y1="271.08" x2="406.58" y2="240.71" gradientTransform="matrix(-1, 0, 0, 1, 751.6, 0)" gradientUnits="userSpaceOnUse"><stop offset="0" stop-color="#543ec9"/><stop offset="0.99" stop-color="#818bd1"/></linearGradient><linearGradient id="Áåçûìÿííûé_ãðàäèåíò_372" x1="410.14" y1="271.08" x2="410.14" y2="240.71" gradientTransform="matrix(-1, 0, 0, 1, 751.6, 0)" gradientUnits="userSpaceOnUse"><stop offset="0" stop-color="#562290"/><stop offset="1" stop-color="#616dc0"/></linearGradient><linearGradient id="Áåçûìÿííûé_ãðàäèåíò_392" x1="405.16" y1="248.77" x2="405.16" y2="241.3" gradientTransform="matrix(-1, 0, 0, 1, 751.6, 0)" gradientUnits="userSpaceOnUse"><stop offset="0" stop-color="#270c77"/><stop offset="1" stop-color="#616dc0"/></linearGradient><linearGradient id="Áåçûìÿííûé_ãðàäèåíò_388" x1="405.61" y1="248.77" x2="405.61" y2="241.3" gradientTransform="matrix(-1, 0, 0, 1, 751.6, 0)" gradientUnits="userSpaceOnUse"><stop offset="0" stop-color="#543ec9"/><stop offset="0.99" stop-color="#6975d2"/></linearGradient><linearGradient id="Áåçûìÿííûé_ãðàäèåíò_385" x1="399.94" y1="259.97" x2="402.62" y2="255.33" gradientTransform="matrix(-1, 0, 0, 1, 751.6, 0)" gradientUnits="userSpaceOnUse"><stop offset="0" stop-color="#bda1e7"/><stop offset="1" stop-color="#e5e7ea"/></linearGradient><linearGradient id="Áåçûìÿííûé_ãðàäèåíò_237-3" x1="406.57" y1="268.3" x2="406.27" y2="276.58" gradientTransform="matrix(-1, 0, 0, 1, 752.73, 0.87)" xlink:href="#Áåçûìÿííûé_ãðàäèåíò_237"/><linearGradient id="Áåçûìÿííûé_ãðàäèåíò_250-13" x1="785.45" y1="377.37" x2="785.45" y2="278.99" xlink:href="#Áåçûìÿííûé_ãðàäèåíò_250"/><linearGradient id="Áåçûìÿííûé_ãðàäèåíò_368-2" x1="749.24" y1="381.17" x2="749.24" y2="268.46" gradientTransform="matrix(1, 0, 0, 1, 0, 0)" xlink:href="#Áåçûìÿííûé_ãðàäèåíò_368"/><linearGradient id="Áåçûìÿííûé_ãðàäèåíò_372-2" x1="767.65" y1="381.17" x2="767.65" y2="268.55" gradientTransform="matrix(1, 0, 0, 1, 0, 0)" xlink:href="#Áåçûìÿííûé_ãðàäèåíò_372"/><linearGradient id="Áåçûìÿííûé_ãðàäèåíò_392-2" x1="748.65" y1="299" x2="748.65" y2="270.65" gradientTransform="matrix(1, 0, 0, 1, 0, 0)" xlink:href="#Áåçûìÿííûé_ãðàäèåíò_392"/><linearGradient id="Áåçûìÿííûé_ãðàäèåíò_388-2" x1="749.94" y1="299" x2="749.94" y2="271.33" gradientTransform="matrix(1, 0, 0, 1, 0, 0)" xlink:href="#Áåçûìÿííûé_ãðàäèåíò_388"/><linearGradient id="Áåçûìÿííûé_ãðàäèåíò_385-2" x1="729.95" y1="347.05" x2="741.08" y2="327.78" gradientTransform="matrix(1, 0, 0, 1, 0, 0)" xlink:href="#Áåçûìÿííûé_ãðàäèåíò_385"/><linearGradient id="Áåçûìÿííûé_ãðàäèåíò_237-4" x1="748.48" y1="370.62" x2="747.38" y2="401.07" xlink:href="#Áåçûìÿííûé_ãðàäèåíò_237"/></defs><g class="cls-2"><g id="school"><g class="cls-3"><polygon class="cls-4" points="96.42 0.86 347 174.31 452.92 175.13 705.59 0.86 96.42 0.86"/><path class="cls-5" d="M757.52.29l-.4-1.15L681.63,40.32l-74.3-1L660,.26l-.49-1.1L605.74,39.29l-56.58-.76L586.59.2l-.63-1L547.87,38.51l-71.52-1L495.15.05l-.85-.67L475.38,37.53l-75.67-1,.47-36.79-1,0-.31,36.8-77.85-1L303.46-.62,302.6,0,320,35.44l-70.15-.95L217-.77l-.65,1,32.16,34.28L181,33.56,134.5-.84,134,.26l45.23,33.28-78.6-1.06L39-.87,38.62.29,98.41,32.45l-69.75-.94,0,1.26,72.15,1,80.12,43.08-46.63-1.19,0,1.26,49.1,1.26,68.88,37-29.08.31v.88l30.68-.33,28.35,15.25-13.51-.13v.63l14.7.14L302.2,142l-13.6-.3v.63l14.83.33,15.31,8.23-10-.25v.38l10.7.27,15.9,8.55h-5.65v.38h6.35l7.05,3.79-4,0v.38l4.69,0,8.71,4.69h-1.92v.38h2.62l7.13,3.83-7.1.2v.25l7.54-.21,4.4,2.37-11.94.43v.25l12.38-.45,3.63,2-16,.37v.25l16.46-.38,3.67,2,.08-.23-3.24-1.76,5.62-.13,2.63,1.93.1-.22-2.33-1.72,7-.16,1.74,1.86.13-.19L383.59,178l6.57-.15.87,1.78.17-.13-.8-1.65,7.29-.17v1.65h.2l0-1.66,8-.18-.75,1.51.17.13.83-1.65,7.06-.16-1.37,1.42.13.19,1.58-1.62,7.42-.17-1.78,1.33.1.22,2.1-1.56,9.74-.22-1.68.91.08.23,2.14-1.16,14.42-.33v-.25l-13.94.32,5.81-3.15,7.9-.29V173l-7.4.27,3.73-2,7.5-.22v-.25l-7,.2,3-1.62,10.76,0V169H446.4l6.52-3.53,9.81.08v-.37l-9.12-.09,9-4.9h14.73v-.38h-14l8.54-4.63,16.46.41v-.38l-15.79-.39,14.75-8,27.81.62v-.63l-26.71-.59L510.82,134l43.52.4v-.63L512,133.42l37.92-20.56,37.47-.4v-.88l-35.8.38,43-23.3,75.74,1.94,0-1.26-73.54-1.88,84.82-46,69.2.92,2.32-1.11-69.44-.94ZM604.2,40.44,543.05,86.08l-39.35-1L548,39.69ZM398,144.8l-.07,8.11-19.91-.5-4-8.14Zm-24.26-1.17-5.31-10.91,29.67.27-.1,11.18Zm24.19,9.66-.06,6.54H381.61l-3.43-7Zm-.06,6.91,0,4.35-14-.13-2-4.2Zm0,4.72,0,4.12-11.67,0L384,164.8Zm.26,0,14.06.12-2,4L398,169Zm0-.38.05-4.35h16.41l-2.22,4.49Zm.06-4.72.08-6.53,19.5.49-3,6Zm.09-6.91.1-8.11,23.58.52-4,8.08Zm.11-8.74.14-11.18,29.42.27-5.68,11.44Zm.15-11.81.23-17.88,38.7-.42-9.21,18.57Zm-.41,0-30-.28-8.37-17.18,38.5-.41Zm-30.47-.28-27.06-.25-15.41-16.55,34-.37Zm.31.63,5.38,10.91-22.22-.49-9.93-10.67Zm5.69,11.55,4,8.15L359.28,152l-7.61-8.18Zm4.2,8.53,3.47,7.05H366.65l-7-7.52Zm3.66,7.43,2.06,4.2-12.73-.12L367,160.23Zm2.25,4.58,2.1,4.26-10.57,0-4.09-4.4Zm2.29,4.64,1.53,3.11-8.82.25-3.12-3.34Zm.28,0,11.48,0,0,2.83-9.95.29Zm11.73,0,11.95,0-1.26,2.54-10.73.31Zm12.24,0,10.73,0-2.2,2.27-9.8.28Zm.19-.38,2-4,12.63.11L421.35,169Zm2.18-4.34,2.25-4.49h15l-4.48,4.62Zm2.44-4.87,3-6,17.59.44-5.39,5.56Zm3.2-6.39,4.05-8.08,21.52.48L436,153.87Zm4.37-8.7,5.73-11.45,27.38.26L444.42,145.2Zm6.05-12.07L438,114.06l37-.39L456.35,132.9Zm9.76-19.47L452.55,85l49,1.26-25.69,26.5Zm-.59,0-39.13.42.38-29.94L451.83,85Zm-39.62.43-38.94.42L343.81,82.24l54.67,1.4Zm-39.51.42-34.41.37L293.15,80.94l49.91,1.28Zm-35.16.38-33,.36L243.2,79.67l48.94,1.25Zm.82.87,15.52,16.54-26.61-.24-21.52-16Zm16.12,17.18,10,10.66-22.3-.5-14.05-10.41Zm10.6,11.3,7.67,8.17-18.62-.46-11.07-8.2Zm8,8.56,7.07,7.53H351.49l-10.81-8Zm7.43,7.91,3.81,4.07-13.06-.12L352,160.24Zm4.17,4.45,4.13,4.4-10.9,0-6.13-4.54Zm4.49,4.78,3.14,3.35-9,.26-4.85-3.59Zm3.37,3.6,2.17,2.31-7.95.29-3.16-2.35Zm.35,0,8.71-.25,1.12,2.27-7.68.28Zm9-.26,9.83-.28,0,2.23-8.7.32ZM398,172.5l10.61-.31-1.09,2.2-9.55.35Zm10.89-.31,9.67-.28-2.09,2.15-8.68.32Zm10.05-.29,9.53-.28-2.81,2.1-8.82.33Zm.25-.26,2.2-2.26h10.11l-2.68,2Zm2.57-2.64,3.74-3.82,11.47.1L432,169Zm4.11-4.2,4.51-4.62h13.44l-6.35,4.74Zm4.88-5,5.42-5.55,15.08.37-6.92,5.17Zm5.78-5.92,7.86-8,18.1.4-10.75,8Zm8.47-8.67,11.41-11.68,22.81.21-15.91,11.88Zm12-12.3,18.81-19.25,30.76-.33L480,133.12Zm19.67-20.14L502.5,86.3l38.92,1-33.68,25.13Zm70.09-73.1-44,45.38-49.58-1.27,22.59-45.05Zm-71.95-1L452.44,83.76,399.12,82.4l.57-44.69Zm-75.93-1-.37,44.68L343.19,81l-21.57-44.3Zm-78.23-1L342.43,81,292,79.65,251,35.73Zm-70.91-.95,41.21,43.92-49.49-1.27-58.8-43.54ZM103,33.76l77.94,1,59.17,43.53-57.45-1.47Zm82.1,44.42,56.78,1.45,47.76,35.15-36.18.39Zm70,37.85,35.77-.39,21.64,15.93-29.19-.27Zm29.41,15.91,28.87.27,14.13,10.39-24.29-.54Zm19.93,10.78,23.95.53,11.14,8.2L319.6,151Zm15.95,8.63,19.68.49,10.9,8-14.83,0Zm16.45,8.91,14.64,0,5.34,3.93-13-.11Zm7.74,4.18,12.76.12,6.18,4.54-10.3,0Zm9.34,5.05H364l4.9,3.6-8,.23Zm7.49,4.06,7.85-.23,3.19,2.35-6.66.25Zm8.43,4.56-3.62-2,6.55-.24,2.81,2.07Zm6.14-.14-2.79-2.07,7.85-.29,2.06,2.19Zm7.43-.17-2.05-2.2,7.58-.28,1.14,2.32Zm6.92-.16-1.14-2.33,8.58-.31,0,2.47Zm7.62-.18,0-2.47,9.42-.35-1.3,2.63Zm8.41-.19,1.32-2.64,8.56-.31-2.7,2.78Zm7.52-.18,2.72-2.78,8.73-.32-3.93,2.93Zm17.81-.41-9.87.23,4-2.94,11.66-.43Zm6.25-3.41-11.8.44,2.83-2.1,12.69-.37Zm4.2-2.29-12.82.37,2.67-2,13.15,0Zm3.7-2-13.33,0,5-3.71,14.84.14Zm7.18-3.91-15-.14,6.4-4.74,17.59,0Zm9.67-5.28-17.78,0,6.94-5.15,19.36.48Zm9.19-5-19.53-.49,10.82-8,23.36.52Zm15.76-8.6-23.65-.52,16-11.89,29.87.28ZM511,133.41l-30.16-.28,26.72-19.81,41.08-.45ZM550.26,112l-41.53.44,33.84-25.09,50.51,1.29Zm45-24.56-51.06-1.31,61.56-45.65,73.78,1Z" transform="translate(1.13 0.87)"/><polygon class="cls-6" points="145.54 34.87 347 174.31 352.98 263.98 0 378.19 1.2 0.86 145.54 34.87"/><polygon class="cls-7" points="656.3 34.87 452.92 175.13 445.25 263.12 801.13 369.37 801.13 0.86 656.3 34.87"/><polygon class="cls-8" points="0 378.19 1.13 400.87 801.13 400.87 801.13 381.25 445.25 263.12 352.98 263.98 0 378.19"/><g class="cls-9"><polygon class="cls-10" points="398.54 400.87 397.05 258.14 397.25 258.14 399.54 400.86 398.54 400.87"/><polygon class="cls-11" points="404.72 258.3 494.51 400.6 493.67 401.13 404.55 258.4 404.72 258.3"/><polygon class="cls-12" points="585.33 401.25 411.24 258.61 411.36 258.46 585.96 400.48 585.33 401.25"/><polygon class="cls-13" points="418.69 258.65 673.39 400.43 672.9 401.3 418.59 258.82 418.69 258.65"/><polygon class="cls-14" points="756.49 401.32 428.84 259.34 428.92 259.15 756.89 400.41 756.49 401.32"/><polygon class="cls-15" points="390.57 258.01 302.82 401.13 301.97 400.6 390.4 257.9 390.57 258.01"/><polygon class="cls-16" points="215.75 400.48 384.39 257.71 384.52 257.86 216.4 401.25 215.75 400.48"/><polygon class="cls-17" points="377.95 257.69 121.97 401.3 121.48 400.43 377.86 257.52 377.95 257.69"/><polygon class="cls-18" points="37.99 400.41 372.77 257.37 372.85 257.56 38.38 401.32 37.99 400.41"/><polygon class="cls-19" points="28.02 375.61 28.01 374.61 750.12 366.96 752.44 367.84 28.02 375.61"/><rect class="cls-20" x="132.44" y="333.25" width="536.11" height="1" transform="translate(-5.66 9.18) rotate(-1.18)"/><polygon class="cls-21" points="586.71 312 222.53 308.89 222.54 308.19 586.72 311.3 586.71 312"/><rect class="cls-22" x="266.92" y="294.02" width="285.66" height="0.5" transform="translate(-1.15 4.07) rotate(-0.45)"/><rect class="cls-23" x="286.81" y="284.67" width="226.57" height="0.5" transform="translate(-3.82 7.96) rotate(-1.01)"/><rect class="cls-24" x="306.98" y="277.98" width="179.62" height="0.3" transform="translate(-4.25 8.7) rotate(-1.12)"/><rect class="cls-25" x="329.07" y="273.37" width="147.67" height="0.3"/><rect class="cls-26" x="337.37" y="268.73" width="123.6" height="0.3" transform="translate(-0.65 3.53) rotate(-0.38)"/><polygon class="cls-27" points="455.82 266.42 349.99 266.28 349.99 265.98 455.82 266.12 455.82 266.42"/><polygon class="cls-28" points="449.08 264.98 352.63 262.78 352.64 262.58 449.09 264.78 449.08 264.98"/><rect class="cls-29" x="397.71" y="214.57" width="0.2" height="92.66" transform="translate(126.58 651.83) rotate(-88.33)"/><polygon class="cls-30" points="445.49 260.54 352.63 258.84 352.64 258.64 445.49 260.34 445.49 260.54"/></g><g class="cls-31"><polygon class="cls-32" points="550.44 331.99 615.82 368.38 678.93 367.71 594.65 331.19 550.44 331.99"/><polygon class="cls-33" points="586.43 400.87 547.71 369.37 615.82 368.38 672.9 401.3 586.43 400.87"/><polygon class="cls-34" points="475.12 369.87 546.11 369.12 501.62 332.67 452.54 334.08 475.12 369.87"/><polygon class="cls-35" points="399.54 400.86 398.94 371.63 475.12 369.87 493.67 401.13 399.54 400.86"/><polygon class="cls-36" points="342.36 336.63 320.98 371.5 398.94 371.63 398.29 334.61 342.36 336.63"/><polygon class="cls-37" points="397.92 310.38 398.29 334.61 451.19 333.11 437.21 310.72 397.92 310.38"/><polygon class="cls-38" points="476.02 311.05 501.76 331.99 547.67 331.14 512.19 311.36 476.02 311.05"/><polygon class="cls-39" points="550.9 311.69 593.89 330.2 646.23 329.14 589.66 311.05 550.9 311.69"/><polygon class="cls-40" points="683.01 368.59 758.8 400.87 801.13 400.87 801.13 381.25 756.89 366.56 683.01 368.59"/><polygon class="cls-41" points="301.57 401.25 319.39 372.48 249.24 373.24 216.4 401.25 301.57 401.25"/><polygon class="cls-42" points="292.68 336.19 323.88 309.58 358.09 310.04 342.43 335.32 292.68 336.19"/><polygon class="cls-43" points="290.29 337.38 249.08 372.27 172.28 373.08 233.87 338.52 290.29 337.38"/><polygon class="cls-44" points="120.51 400.87 168.72 374.1 100 374.84 38.38 401.32 120.51 400.87"/><polygon class="cls-45" points="12.64 374.1 100 374.84 182.73 338.56 116.33 340.55 12.64 374.1"/><polygon class="cls-46" points="185.26 338.51 234.59 337.38 284.46 309.58 252.82 309.14 185.26 338.51"/><polygon class="cls-47" points="287.12 308.65 323.88 309.58 339.91 295.91 309.43 296.13 287.12 308.65"/><polygon class="cls-48" points="216.36 308.19 252.82 309.14 281.33 296.44 256.39 295.23 216.36 308.19"/><polygon class="cls-49" points="359.09 309.35 397.92 309.35 397.44 295.43 367.45 295.7 359.09 309.35"/><polygon class="cls-50" points="437.36 310.02 428.15 295.43 455.81 295.13 474.37 310.34 437.36 310.02"/><polygon class="cls-51" points="512.19 310.66 483.75 294.87 510.34 294.65 547.98 310.97 512.19 310.66"/><polygon class="cls-52" points="487.79 284.51 510.19 294.15 538.41 293.83 508.59 284.14 487.79 284.51"/><polygon class="cls-53" points="465.26 284.58 482.02 294.36 455.82 294.36 444.33 285.27 465.26 284.58"/><polygon class="cls-54" points="427.18 294.65 397.92 294.87 397.69 286.1 421.65 285.79 427.18 294.65"/><polygon class="cls-55" points="367.45 295.7 372.85 286.54 350.61 286.78 340.7 295.23 367.45 295.7"/><polygon class="cls-56" points="309.43 296.13 323.56 287.78 303.07 287.55 283.62 295.91 309.43 296.13"/><polygon class="cls-57" points="325.38 286.77 337.57 280.34 358.14 279.94 350.61 286.78 325.38 286.77"/><polygon class="cls-58" points="373.39 286.03 377.12 279.94 397.05 279.16 397.05 285.61 373.39 286.03"/></g><polygon class="cls-59" points="352.98 263.98 347 174.31 452.92 175.13 445.25 263.12 352.98 263.98"/><polygon class="cls-60" points="352.51 256.9 445.57 259.49 445.25 263.12 352.98 263.98 352.51 256.9"/><polygon class="cls-60" points="347.39 180.16 452.92 177.63 452.92 175.13 347 174.31 347.39 180.16"/><polygon class="cls-61" points="449.08 219.14 801.13 164.61 801.13 0.86 705.59 0.86 452.92 175.13 449.08 219.14"/><polygon class="cls-62" points="349.99 219.14 0 170.56 1.2 0.86 96.42 0.86 347 174.31 349.99 219.14"/><polygon class="cls-63" points="801.13 384.37 443.92 263.13 445.38 262.03 801.13 368.53 801.13 384.37"/><polygon class="cls-64" points="801.13 372.28 445.04 262.28 443.92 263.13 801.13 384.37 801.13 372.28"/><polygon class="cls-65" points="524.37 286.78 529.92 292.32 623.83 324.19 623.83 317.51 524.37 286.78"/><polygon class="cls-65" points="633.28 320.43 636.24 328.4 659.19 336.19 659.19 328.43 633.28 320.43"/><polygon class="cls-65" points="666.23 330.61 801.13 372.28 801.13 374.68 666.23 330.61"/><path class="cls-66" d="M697.29,339.69s8.73,3.4,13.52,5a26.09,26.09,0,0,0,7.7,1.55Z" transform="translate(1.13 0.87)"/><polygon class="cls-67" points="1.13 382.2 354.2 264.73 352.94 263.38 1.13 368.3 1.13 382.2"/><polygon class="cls-68" points="1.13 372.44 353.28 263.73 354.2 264.73 1.13 387.54 1.13 372.44"/><polygon class="cls-65" points="278.48 286.78 272.93 292.32 179.02 324.19 179.02 317.51 278.48 286.78"/><polygon class="cls-65" points="169.56 320.43 166.61 328.4 143.66 336.19 143.66 328.43 169.56 320.43"/><polygon class="cls-65" points="136.61 330.61 1.13 372.44 1.55 375.53 136.61 330.61"/><path class="cls-66" d="M103.29,339.69s-9,3.75-13.8,5.35-7.42,1.2-7.42,1.2Z" transform="translate(1.13 0.87)"/><polygon class="cls-69" points="625.49 316.24 623.19 375.61 673.39 400.43 674.46 330.35 625.49 316.24"/><polygon class="cls-70" points="28.02 378.19 33.47 92.53 131.47 128.53 126.8 343.83 28.02 378.19"/><polygon class="cls-71" points="126.8 343.83 93.83 343.83 28.02 364.14 28.02 378.19 126.8 343.83"/><polygon class="cls-72" points="104.42 148.87 131.47 128.53 33.47 92.53 32.86 124.49 104.42 148.87"/><polygon class="cls-73" points="126.8 188.16 102.63 191.12 96.42 343.02 122.8 340.55 126.8 188.16"/><polygon class="cls-74" points="32.85 124.48 104.42 145.37 96.42 340.55 28.01 360.31 32.85 124.48"/><polygon class="cls-75" points="272.73 305.41 271.68 387.71 153.65 387.71 153.65 337.81 272.73 305.41"/><polygon class="cls-76" points="494.09 290.96 493.67 356.7 585.64 356.7 585.64 316.13 494.09 290.96"/><polygon class="cls-77" points="153.65 156.69 140.13 166.38 139.13 338.56 196.8 336.63 153.65 156.69"/><polygon class="cls-78" points="585.64 179.71 598.63 189.53 598.63 308.15 601.07 316.55 585.64 316.82 553.14 315.24 585.64 179.71"/><polygon class="cls-79" points="153.65 337.81 153.65 156.69 191.94 154.87 196.8 336.63 153.65 337.81"/><polygon class="cls-80" points="191.94 154.87 273.87 188.61 272.73 305.41 196.8 336.63 191.94 154.87"/><polygon class="cls-81" points="217.76 328.01 211.91 163.09 212.77 163.44 216.33 253.89 218.46 327.73 217.76 328.01"/><polygon class="cls-81" points="238.83 319.35 233.57 172.01 234.18 172.26 239.16 319.21 238.83 319.35"/><polygon class="cls-81" points="251.17 314.27 249.46 178.56 249.85 178.72 251.7 314.06 251.17 314.27"/><polygon class="cls-81" points="261.82 183.65 264.37 308.84 264.68 308.72 261.96 183.75 261.82 183.65"/><polygon class="cls-81" points="194.39 246.41 273.27 249.38 273.27 249.18 194.39 245.35 194.39 246.41"/><polygon class="cls-82" points="188.35 155.04 190.51 245.75 191.88 336.74 192.94 336.74 190.94 245.75 189 155.04 188.35 155.04"/><polygon class="cls-83" points="212.77 163.44 232.9 172.39 235.71 246.41 236.37 247.39 233.57 172.01 212.77 163.44"/><polygon class="cls-83" points="191.94 154.87 211.26 163.44 213.69 245.35 214.86 246.34 211.91 163.09 191.94 154.87"/><polygon class="cls-84" points="213.69 245.35 196.04 244.76 192.35 155.04 191.94 154.87 194.39 245.35 214.86 246.34 213.69 245.35"/><polygon class="cls-84" points="194.39 246.41 195.49 247.37 198.18 334.43 217.08 327.38 217.76 328.01 196.8 336.63 194.39 246.41"/><polygon class="cls-83" points="194.39 246.41 214.86 247.19 217.76 328.01 217.08 327.38 214.09 247.74 195.49 247.37 194.39 246.41"/><polygon class="cls-84" points="212.77 163.44 213.11 163.6 216.72 245.89 235.98 246.81 236.37 247.39 216.03 246.34 212.77 163.44"/><polygon class="cls-84" points="234.04 172.21 236.72 247.4 250.34 248.06 250.04 247.74 237.27 246.93 234.33 172.33 234.04 172.21"/><polygon class="cls-84" points="249.85 178.72 250.79 248.06 263.15 248.69 262.72 248.44 251.01 247.85 250.07 178.81 249.85 178.72"/><polygon class="cls-83" points="249.46 178.56 248.94 178.34 250.04 247.74 250.34 248.06 249.46 178.56"/><polygon class="cls-83" points="261.96 183.75 261.46 183.5 262.72 248.44 263.15 248.69 261.96 183.75"/><polygon class="cls-84" points="261.96 183.75 262.3 183.84 263.92 248.41 273.27 249.18 263.15 248.69 261.96 183.75"/><polygon class="cls-84" points="216.08 247.37 218.46 327.73 238.83 319.35 238.38 319.35 219.09 326.81 216.85 247.67 216.08 247.37"/><polygon class="cls-84" points="236.75 248.06 239.16 319.21 251.17 314.27 250.58 314.06 239.44 318.6 237.05 248.25 236.75 248.06"/><polygon class="cls-84" points="250.8 248.54 251.7 314.06 264.37 308.84 264.01 308.51 252.15 313.49 251.06 248.69 250.8 248.54"/><polygon class="cls-84" points="263.38 249.01 264.68 308.72 272.73 305.41 272.39 304.96 265.22 308.09 263.92 249.38 263.38 249.01"/><polygon class="cls-83" points="216.85 247.67 235.53 248.69 238.38 319.35 238.83 319.35 236.29 248.06 216.08 247.37 216.85 247.67"/><polygon class="cls-83" points="236.75 248.06 250.34 248.54 251.17 314.27 250.58 314.06 249.85 249.18 237.05 248.25 236.75 248.06"/><polygon class="cls-83" points="250.8 248.54 251.06 248.69 262.88 249.38 264.01 308.51 264.37 308.84 263.15 249 250.8 248.54"/><polygon class="cls-83" points="263.92 249.38 272.73 249.84 272.39 304.96 272.73 305.41 273.27 249.38 263.38 249.01 263.92 249.38"/><polygon class="cls-85" points="153.65 281.3 190.76 262.28 191.88 336.74 153.65 337.81 153.65 281.3"/><polygon class="cls-85" points="191.88 252.62 194.52 251.54 196.8 336.63 193.95 336.63 191.88 252.62"/><polygon class="cls-84" points="209.35 242.67 199.74 242.23 199.74 239.56 209.34 240.16 209.35 242.67"/><polygon class="cls-86" points="199.74 239.56 200.2 240.92 209.62 241.43 209.34 240.16 199.74 239.56"/><polygon class="cls-84" points="231.3 243.39 221.7 242.95 221.68 240.53 231.27 241.13 231.3 243.39"/><polygon class="cls-86" points="221.68 240.53 222.14 241.76 231.57 242.28 231.27 241.13 221.68 240.53"/><polygon class="cls-84" points="248.12 244.11 239.58 243.66 239.54 241.5 248.07 242.1 248.12 244.11"/><polygon class="cls-86" points="239.54 241.5 240.02 242.61 248.37 243.12 248.07 242.1 239.54 241.5"/><polygon class="cls-84" points="260.16 244.82 252.69 244.38 252.63 242.48 260.09 243.08 260.16 244.82"/><polygon class="cls-86" points="252.63 242.48 253.12 243.45 260.4 243.97 260.09 243.08 252.63 242.48"/><polygon class="cls-84" points="271.68 245.86 265.28 245.41 265.2 243.76 271.59 244.37 271.68 245.86"/><polygon class="cls-86" points="265.2 243.76 265.7 244.61 271.91 245.13 271.59 244.37 265.2 243.76"/><polygon class="cls-85" points="196.8 286.02 272.73 292.8 272.73 305.41 196.8 336.63 196.8 286.02"/><polygon class="cls-84" points="213.94 324.73 202.62 328.52 202.62 325.85 213.93 322.21 213.94 324.73"/><polygon class="cls-86" points="202.62 325.85 203.07 327.21 214.21 323.48 213.93 322.21 202.62 325.85"/><polygon class="cls-84" points="235.02 317.82 224.37 321.08 224.35 318.66 234.99 315.56 235.02 317.82"/><polygon class="cls-86" points="224.35 318.66 224.81 319.89 235.28 316.71 234.99 315.56 224.35 318.66"/><polygon class="cls-84" points="249.25 312.33 240.93 315.46 240.89 313.3 249.21 310.33 249.25 312.33"/><polygon class="cls-86" points="240.89 313.3 241.36 314.4 249.51 311.34 249.21 310.33 240.89 313.3"/><polygon class="cls-84" points="262.42 307.15 254.71 309.58 254.65 307.68 262.35 305.41 262.42 307.15"/><polygon class="cls-86" points="254.65 307.68 255.14 308.65 262.67 306.3 262.35 305.41 254.65 307.68"/><polygon class="cls-84" points="271.97 303.32 266.09 305.19 266.02 303.54 271.88 301.83 271.97 303.32"/><polygon class="cls-86" points="266.02 303.54 266.51 304.39 272.2 302.59 271.88 301.83 266.02 303.54"/><polygon class="cls-87" points="585.64 316.13 585.64 179.71 556.81 178.34 553.14 315.24 585.64 316.13"/><polygon class="cls-88" points="556.81 178.34 495.1 203.76 494.09 290.96 553.14 315.24 556.81 178.34"/><polygon class="cls-81" points="537.36 308.75 541.76 184.54 541.12 184.8 538.44 252.92 536.83 308.54 537.36 308.75"/><polygon class="cls-81" points="521.49 302.23 525.45 191.26 524.99 191.45 521.24 302.13 521.49 302.23"/><polygon class="cls-81" points="512.19 298.4 513.48 196.19 513.19 196.31 511.8 298.24 512.19 298.4"/><polygon class="cls-81" points="504.17 200.02 502.25 294.31 502.02 294.22 504.07 200.1 504.17 200.02"/><polygon class="cls-81" points="554.96 247.29 495.55 249.53 495.54 249.37 554.96 246.49 554.96 247.29"/><polygon class="cls-82" points="559.51 178.47 557.88 246.79 556.85 315.32 556.05 315.32 557.56 246.79 559.02 178.47 559.51 178.47"/><polygon class="cls-83" points="541.12 184.8 525.95 191.54 523.84 247.29 523.34 248.03 525.45 191.26 541.12 184.8"/><polygon class="cls-83" points="556.81 178.34 542.25 184.8 540.42 246.49 539.54 247.24 541.76 184.54 556.81 178.34"/><polygon class="cls-84" points="540.42 246.49 553.71 246.05 556.5 178.47 556.81 178.34 554.96 246.49 539.54 247.24 540.42 246.49"/><polygon class="cls-84" points="554.96 247.29 554.13 248.01 552.1 313.58 537.87 308.28 537.36 308.75 553.14 315.24 554.96 247.29"/><polygon class="cls-83" points="554.96 247.29 539.54 247.88 537.36 308.75 537.87 308.28 540.12 248.29 554.13 248.01 554.96 247.29"/><polygon class="cls-84" points="541.12 184.8 540.86 184.92 538.14 246.9 523.63 247.59 523.34 248.03 538.66 247.24 541.12 184.8"/><polygon class="cls-84" points="525.09 191.4 523.07 248.04 512.82 248.54 513.04 248.29 522.66 247.69 524.87 191.49 525.09 191.4"/><polygon class="cls-84" points="513.19 196.31 512.48 248.54 503.17 249 503.5 248.82 512.31 248.38 513.02 196.37 513.19 196.31"/><polygon class="cls-83" points="513.48 196.19 513.87 196.02 513.04 248.29 512.82 248.54 513.48 196.19"/><polygon class="cls-83" points="504.07 200.1 504.44 199.91 503.5 248.82 503.17 249 504.07 200.1"/><polygon class="cls-84" points="504.07 200.1 503.81 200.17 502.59 248.79 495.54 249.37 503.17 249 504.07 200.1"/><polygon class="cls-84" points="538.62 248.01 536.83 308.54 521.49 302.23 521.82 302.23 536.36 307.84 538.04 248.24 538.62 248.01"/><polygon class="cls-84" points="523.06 248.54 521.24 302.13 512.19 298.4 512.64 298.24 521.02 301.67 522.83 248.68 523.06 248.54"/><polygon class="cls-84" points="512.47 248.9 511.8 298.24 502.25 294.31 502.52 294.06 511.46 297.81 512.28 249 512.47 248.9"/><polygon class="cls-84" points="503 249.25 502.02 294.22 494.09 290.96 494.34 290.62 501.61 293.74 502.59 249.53 503 249.25"/><polygon class="cls-83" points="538.04 248.24 523.97 249 521.82 302.23 521.49 302.23 523.4 248.54 538.62 248.01 538.04 248.24"/><polygon class="cls-83" points="523.06 248.54 512.82 248.9 512.19 298.4 512.64 298.24 513.19 249.37 522.83 248.68 523.06 248.54"/><polygon class="cls-83" points="512.47 248.9 512.28 249 503.38 249.53 502.52 294.06 502.25 294.31 503.17 249.25 512.47 248.9"/><polygon class="cls-83" points="502.59 249.53 494.96 249.88 494.34 290.79 494.09 291.13 494.55 249.53 503 249.25 502.59 249.53"/><polygon class="cls-85" points="585.64 273.57 557.69 259.25 556.85 315.32 585.64 316.13 585.64 273.57"/><polygon class="cls-85" points="556.85 251.97 554.86 251.15 553.14 315.24 555.29 315.24 556.85 251.97"/><polygon class="cls-84" points="543.69 244.48 550.93 244.14 550.93 242.13 543.7 242.58 543.69 244.48"/><polygon class="cls-86" points="550.93 242.13 550.58 243.16 543.49 243.54 543.7 242.58 550.93 242.13"/><polygon class="cls-84" points="527.16 245.02 534.39 244.68 534.41 242.86 527.18 243.32 527.16 245.02"/><polygon class="cls-86" points="534.41 242.86 534.05 243.79 526.96 244.18 527.18 243.32 534.41 242.86"/><polygon class="cls-84" points="514.49 245.56 520.92 245.22 520.95 243.6 514.53 244.05 514.49 245.56"/><polygon class="cls-86" points="520.95 243.6 520.59 244.43 514.3 244.81 514.53 244.05 520.95 243.6"/><polygon class="cls-84" points="505.42 246.1 511.05 245.76 511.09 244.33 505.48 244.78 505.42 246.1"/><polygon class="cls-86" points="511.09 244.33 510.73 245.06 505.24 245.45 505.48 244.78 511.09 244.33"/><polygon class="cls-84" points="496.75 246.87 501.56 246.54 501.62 245.3 496.81 245.75 496.75 246.87"/><polygon class="cls-86" points="501.62 245.3 501.25 245.94 496.57 246.32 496.81 245.75 501.62 245.3"/><polygon class="cls-85" points="553.14 277.13 494.19 281.99 494.09 290.96 553.14 315.24 553.14 277.13"/><polygon class="cls-84" points="540.24 306.28 548.76 309.14 548.76 307.12 540.25 304.38 540.24 306.28"/><polygon class="cls-86" points="548.76 307.12 548.42 308.15 540.03 305.34 540.25 304.38 548.76 307.12"/><polygon class="cls-84" points="524.36 301.08 532.38 303.53 532.39 301.71 524.38 299.38 524.36 301.08"/><polygon class="cls-86" points="532.39 301.71 532.04 302.64 524.16 300.24 524.38 299.38 532.39 301.71"/><polygon class="cls-84" points="513.63 296.94 519.91 299.3 519.94 297.67 513.67 295.43 513.63 296.94"/><polygon class="cls-86" points="519.94 297.67 519.58 298.5 513.44 296.2 513.67 295.43 519.94 297.67"/><polygon class="cls-84" points="503.72 293.04 509.53 294.87 509.57 293.44 503.77 291.73 503.72 293.04"/><polygon class="cls-86" points="509.57 293.44 509.2 294.17 503.53 292.4 503.77 291.73 509.57 293.44"/><polygon class="cls-84" points="495.67 289.85 500.1 291.26 500.16 290.02 495.74 288.73 495.67 289.85"/><polygon class="cls-86" points="500.16 290.02 499.78 290.66 495.5 289.3 495.74 288.73 500.16 290.02"/><polygon class="cls-89" points="146.63 361.01 146.63 400.87 28.01 400.87 28.01 364.14 140.13 364.14 146.63 361.01"/><polygon class="cls-90" points="287.19 281.77 287.19 319.21 308.13 314.06 309.5 275.77 287.19 281.77"/><polygon class="cls-91" points="473.83 270.48 473.83 299.38 493.67 303.51 494.09 275.2 473.83 270.48"/><polygon class="cls-92" points="146.63 336.25 362.22 335.92 390.57 384.37 146.63 361.01 146.63 336.25"/><polygon class="cls-93" points="609.3 127.38 609.3 92.21 673.12 48.62 673.12 91.3 609.3 127.38"/><polygon class="cls-94" points="621.86 120.42 621.86 96.02 673.12 65.02 673.12 91.3 621.86 120.42"/><polygon class="cls-95" points="621.86 96.02 609.3 92.21 673.12 48.62 673.12 65.02 621.86 96.02"/><polygon class="cls-96" points="624.15 119.18 624.15 97.43 673.12 67.56 673.12 65.02 621.86 96.02 621.86 120.42 624.15 119.18"/><polygon class="cls-97" points="624.15 119.18 625.27 118.63 625.33 98.93 673.12 70.56 673.12 67.56 624.15 97.43 624.15 119.18"/><polygon class="cls-98" points="314.34 181.43 314.34 168.83 291.47 153.21 291.47 168.5 314.34 181.43"/><polygon class="cls-99" points="309.84 178.94 309.84 170.19 291.47 159.08 291.47 168.5 309.84 178.94"/><polygon class="cls-100" points="309.84 170.19 314.34 168.83 291.47 153.21 291.47 159.08 309.84 170.19"/><polygon class="cls-101" points="309.02 178.49 309.02 170.7 291.47 159.99 291.47 159.08 309.84 170.19 309.84 178.94 309.02 178.49"/><polygon class="cls-102" points="309.02 178.49 308.62 178.29 308.6 171.24 291.47 161.07 291.47 159.99 309.02 170.7 309.02 178.49"/><polygon class="cls-103" points="475.53 187.77 476.99 175.57 496.01 162.5 496.01 176.19 475.53 187.77"/><polygon class="cls-104" points="479.56 185.54 481.02 176.79 496.01 167.76 496.01 176.19 479.56 185.54"/><polygon class="cls-105" points="481.02 176.79 476.99 175.57 496.01 162.5 496.01 167.76 481.02 176.79"/><polygon class="cls-106" points="480.29 185.14 481.75 177.25 496.01 168.58 496.01 167.76 481.02 176.79 479.56 185.54 480.29 185.14"/><polygon class="cls-107" points="480.29 185.14 480.65 184.96 482.13 177.73 496.01 169.54 496.01 168.58 481.75 177.25 480.29 185.14"/><polygon class="cls-108" points="349.35 215.85 449.6 213.2 452.92 177.63 347.39 180.16 349.35 215.85"/><polygon class="cls-109" points="289.17 63.28 289.17 68.07 337.13 120.7 356.8 120.7 356.8 118.7 324.86 60.65 289.17 63.28"/><polygon class="cls-110" points="291.62 69.53 322.98 68.07 356.43 120.13 337.38 120.33 291.62 69.53"/><polygon class="cls-111" points="324.86 60.65 322.98 66.53 289.17 68.07 289.17 63.28 324.86 60.65"/><polygon class="cls-112" points="289.17 63.28 287.3 60.65 324.86 56.91 356.8 118.7 324.86 60.65 289.17 63.28"/><polygon class="cls-113" points="512.32 63.28 512.32 68.07 464.36 120.7 444.69 120.7 444.69 118.7 476.63 60.65 512.32 63.28"/><polygon class="cls-114" points="509.87 69.53 478.51 68.07 445.06 120.13 464.11 120.33 509.87 69.53"/><polygon class="cls-111" points="476.63 60.65 478.51 66.53 512.32 68.07 512.32 63.28 476.63 60.65"/><polygon class="cls-115" points="444.69 118.7 475.53 56.91 515.85 60.39 512.32 63.28 476.63 60.65 444.69 118.7"/><polygon class="cls-116" points="356.81 144.89 356.81 146.72 371.39 161.28 378.92 161.28 378.92 160.51 370.48 143.88 356.81 144.89"/><polygon class="cls-117" points="357.75 147.28 369.76 146.72 378.78 161.06 371.49 161.14 357.75 147.28"/><polygon class="cls-111" points="370.48 143.88 369.76 146.13 356.81 146.72 356.81 144.89 370.48 143.88"/><polygon class="cls-118" points="356.81 144.89 356.1 143.88 370.48 142.45 378.92 160.51 370.48 143.88 356.81 144.89"/><polygon class="cls-119" points="442.26 144.89 442.26 146.72 428.22 161.03 420.69 161.03 420.69 160.27 428.59 143.88 442.26 144.89"/><polygon class="cls-120" points="441.32 147.28 429.31 146.72 420.83 160.82 428.12 160.9 441.32 147.28"/><polygon class="cls-111" points="428.59 143.88 429.31 146.13 442.26 146.72 442.26 144.89 428.59 143.88"/><polygon class="cls-121" points="420.69 160.27 428.17 142.45 443.61 143.78 442.26 144.89 428.59 143.88 420.69 160.27"/><polygon class="cls-122" points="445.06 328.66 465.26 328.31 521.49 378.19 521.49 400.43 454.31 400.43 445.06 328.66"/><polygon class="cls-123" points="353.16 328.66 332.96 328.31 276.73 378.19 276.73 400.43 343.92 400.43 353.16 328.66"/><polygon class="cls-124" points="352.45 255.97 445.71 257.9 445.57 259.49 352.51 256.9 352.45 255.97"/><polygon class="cls-125" points="381.89 256.9 381.89 200.87 415.67 200.87 416.11 257.37 381.89 256.9"/><polygon class="cls-126" points="384.85 257.67 384.06 202.99 414.46 202.99 413.27 258.46 384.85 257.67"/><polygon class="cls-127" points="388.93 212.79 389.97 230.62 408.52 230.72 409.14 212.79 388.93 212.79"/><polygon class="cls-128" points="381.89 200.87 384.06 202.99 384.06 208.33 414.27 211.66 415.71 206.95 415.67 200.87 381.89 200.87"/><polygon class="cls-129" points="140.13 364.14 1.13 387.54 0 138.14 32.85 124.48 28.01 364.14 140.13 364.14"/><polygon class="cls-130" points="705.59 254.62 705.59 262.03 790.8 263.12 794.8 78.93 784.8 78.93 705.59 254.62"/><polygon class="cls-131" points="698.43 257.9 698.43 113.29 785.68 72.32 778.8 257.37 698.43 257.9"/><polygon class="cls-132" points="778.8 257.37 783.13 257.37 790.8 76.2 785.68 72.32 778.8 257.37"/><polygon class="cls-133" points="701.63 116.36 700.63 255.88 774.97 254.53 781.33 78.93 701.63 116.36"/><polygon class="cls-134" points="781.2 82.37 702.8 116.95 702.51 255.84 700.63 255.88 701.63 116.36 781.33 78.93 781.2 82.37"/><polygon class="cls-65" points="707 109.26 708.97 112.92 750.59 93.37 750.59 88.8 707 109.26"/><polygon class="cls-65" points="756.72 85.92 755.49 91.06 762.01 88 763.21 82.87 756.72 85.92"/><polygon class="cls-135" points="778.8 155.7 782.89 147.29 780.2 210.97 776.34 216.55 778.8 155.7"/><path class="cls-65" d="M778.49,237.35s.14-32.06.76-63.08,4.42-79.12,4.42-79.12Z" transform="translate(1.13 0.87)"/><polygon class="cls-136" points="712.13 141.84 712.13 207.71 770.47 202.79 770.47 124.01 712.13 141.84"/><path class="cls-137" d="M708.67,141l60.66-17.84S771,166,765.33,196l-56.66,6.13A374.66,374.66,0,0,0,708.67,141Z" transform="translate(1.13 0.87)"/><path class="cls-138" d="M767.83,128.42c0,1.06-.52,1.91-1.16,1.91s-1.17-.85-1.17-1.91.52-1.9,1.17-1.9S767.83,127.37,767.83,128.42Z" transform="translate(1.13 0.87)"/><path class="cls-139" d="M712.17,143.71c0,1.06-.53,1.91-1.17,1.91s-1.17-.85-1.17-1.91.53-1.91,1.17-1.91S712.17,142.66,712.17,143.71Z" transform="translate(1.13 0.87)"/><path class="cls-140" d="M.07,0,0,400H800V0ZM92.68,352.26l23.25-338,557.4,7.18,88.12,349Z" transform="translate(1.13 0.87)"/><path class="cls-141" d="M135,279.79c-1.63,4.91-5.37,8.09-8.34,7.1s-4.07-5.77-2.44-10.68,5.37-8.09,8.35-7.1S136.59,274.88,135,279.79Z" transform="translate(1.13 0.87)"/><path class="cls-142" d="M134.75,270.63c0,4.62-2.92,8.37-6.52,8.37s-6.53-3.75-6.53-8.37,2.92-8.38,6.53-8.38S134.75,266,134.75,270.63Z" transform="translate(1.13 0.87)"/><path class="cls-143" d="M132.5,270.63c0,3.82-2.42,6.93-5.4,6.93s-5.4-3.11-5.4-6.93,2.42-6.94,5.4-6.94S132.5,266.8,132.5,270.63Z" transform="translate(1.13 0.87)"/><ellipse class="cls-144" cx="127.4" cy="271.49" rx="4.07" ry="5.22"/><polygon class="cls-145" points="140.13 364.14 28.01 364.14 32.85 124.48 53.8 124.48 55.68 164.84 43.71 165.25 45.35 253.53 59.81 253.53 64.82 361 140.13 364.14"/><polygon class="cls-146" points="143.26 151.48 146.63 151.48 146.63 181.2 142.79 183.75 143.26 151.48"/><polygon class="cls-147" points="135.39 110.83 135.39 67.44 56.65 13.66 56.65 66.32 135.39 110.83"/><polygon class="cls-148" points="119.89 102.24 119.89 72.14 56.65 33.89 56.65 66.32 119.89 102.24"/><polygon class="cls-149" points="119.89 72.14 135.39 67.44 56.65 13.66 56.65 33.89 119.89 72.14"/><polygon class="cls-150" points="117.06 100.71 117.06 73.89 56.65 37.03 56.65 33.89 119.89 72.14 119.89 102.24 117.06 100.71"/><polygon class="cls-151" points="117.06 100.71 115.68 100.03 115.61 75.74 56.65 40.73 56.65 37.03 117.06 73.89 117.06 100.71"/><polygon class="cls-152" points="339.97 244.18 336.04 243.76 335.51 268.57 337.01 268.76 338.17 270.91 339.97 244.18"/><path class="cls-153" d="M353.08,268.1l-.28-19.69a13.77,13.77,0,0,0-5.1-7.62L337,240.71l.09,29.34,8.85,1Z" transform="translate(1.13 0.87)"/><path class="cls-154" d="M345.89,271.08l.08-21.42s-3.49-7.67-9-8.95l.09,29.34Z" transform="translate(1.13 0.87)"/><path class="cls-155" d="M352.05,248.3l-5.19.47s-2.46-5.27-6-7.47l6.54.09A12,12,0,0,1,352.05,248.3Z" transform="translate(1.13 0.87)"/><path class="cls-156" d="M351.14,248.32s-1.43-4.94-3.92-6.75l-6.39-.27a20,20,0,0,1,6,7.47Z" transform="translate(1.13 0.87)"/><path class="cls-82" d="M350.56,246.67l-4.26.91.56,1.19,4.28-.45S350.66,246.92,350.56,246.67Z" transform="translate(1.13 0.87)"/><path class="cls-157" d="M350.85,245.24l-.76.32a27.28,27.28,0,0,0-1.92-3.11l.28-.2A11.8,11.8,0,0,1,350.85,245.24Z" transform="translate(1.13 0.87)"/><polygon class="cls-85" points="353.82 262.98 344.8 269.26 337.92 264.19 338.17 270.91 347.02 271.94 354.21 268.97 353.82 262.98"/><path class="cls-158" d="M348.22,256.33l4-.63-.09.26-.33.06-.31,4.07-2.46.48-.31-3.95-.27.05Zm2.92,3.52.3-3.47-.95.18V260Zm-1.84.35.77-.15v-3.41l-1.14.22Zm2.82-4.66-.15-.25-3.63.41-.12.43Zm-1.63-.08.07-.48-.77.05.13.49Z" transform="translate(1.13 0.87)"/><polygon class="cls-159" points="354.21 268.97 354.21 277.52 338.97 277.42 338.17 270.91 347.02 271.94 354.21 268.97"/><polygon class="cls-160" points="776.34 279 790.8 280.93 794.56 366.56 783.28 368.38 779.28 377.37 776.34 279"/><path class="cls-161" d="M716.33,369,721,296.5s4.07-18.09,18.76-28l42.36.09-4,108-25,4.67Z" transform="translate(1.13 0.87)"/><path class="cls-162" d="M753.15,381.17l4.52-79.68s9.48-28.23,24.48-32.94l-4,108Z" transform="translate(1.13 0.87)"/><path class="cls-163" d="M723.81,296.08,754.13,299s7.58-18.19,19.36-28.35H741S727.47,279.47,723.81,296.08Z" transform="translate(1.13 0.87)"/><path class="cls-164" d="M727.16,296.18s5.24-18.19,14.4-24.85h31.17A90.79,90.79,0,0,0,754.13,299Z" transform="translate(1.13 0.87)"/><path class="cls-82" d="M729.29,290.09l26.46,5.45L754.13,299l-27-2.82S728.92,291,729.29,290.09Z" transform="translate(1.13 0.87)"/><path class="cls-157" d="M728.2,284.82,731,286a99.47,99.47,0,0,1,7.06-11.45l-1-.72A42.66,42.66,0,0,0,728.2,284.82Z" transform="translate(1.13 0.87)"/><polygon class="cls-85" points="718.89 347.81 754.89 371.28 780.2 352.64 779.28 377.37 754.28 382.03 717.46 369.84 718.89 347.81"/><path class="cls-165" d="M744.23,331.91l-16.44-2.59.38,1.06,1.36.27,1.27,16.88,10.25,2,1.25-16.41,1.14.22ZM732.1,346.52l-1.26-14.39,4,.77v14.15Zm7.63,1.48-3.2-.62V333.23l4.7.91Zm-11.68-19.33.6-1.05,15.1,1.7.48,1.79Zm6.77-.35-.29-2,3.19.24-.56,2Z" transform="translate(1.13 0.87)"/><polygon class="cls-166" points="717.46 369.84 717.46 401.32 776.34 401.32 779.28 377.37 754.28 382.03 717.46 369.84"/></g></g></g></svg>