<svg xmlns="http://www.w3.org/2000/svg" viewBox="0 0 1922.51 940.83"><defs><style>.cls-1{isolation:isolate;}.cls-2{fill:#331128;}.cls-3{fill:#3a1630;}.cls-4{fill:#662654;}.cls-5{fill:#99426e;}.cls-6{fill:#7a2d58;}.cls-7{fill:#a8427e;}.cls-8{fill:#c45397;}.cls-17,.cls-9{opacity:0.6;}.cls-17,.cls-22,.cls-26,.cls-9{mix-blend-mode:multiply;}.cls-10,.cls-17{fill:#843131;}.cls-11{fill:#5e203e;}.cls-12{fill:#c4164c;}.cls-13{fill:#f2275c;}.cls-14{fill:#ff3364;}.cls-15{fill:#a0103a;}.cls-16{fill:#a0425a;}.cls-18{fill:#ea2a54;}.cls-19{fill:#ffefca;}.cls-20{fill:#ddcdaf;}.cls-21{fill:#f4e8d3;}.cls-22,.cls-23{fill:#c6af89;}.cls-22,.cls-26{opacity:0.4;}.cls-24{fill:#ff3e3e;}.cls-25{fill:#e82121;}.cls-27{fill:#afaa41;}.cls-28{fill:#89747e;}.cls-29{fill:#664d5a;}.cls-30{fill:#eadac1;}.cls-31{fill:#af5f87;}.cls-32{fill:#a0537a;}.cls-33{fill:#d379a6;}.cls-34{fill:#d1a77d;}.cls-35{fill:#e8c7a3;}.cls-36{fill:#efd9b9;}.cls-37{fill:#fff3d7;}.cls-38{fill:#ff9566;}.cls-39{fill:#ffb882;}.cls-40{fill:#e8dabc;}.cls-41{fill:#513f3b;}.cls-42{fill:#44322f;}.cls-43{fill:#911f3a;}.cls-44{fill:#8e3840;}.cls-45{fill:#72242d;}.cls-46{fill:#332624;}.cls-47{fill:#281d1b;}.cls-48{fill:#d3bd94;}.cls-49{fill:#ea7b59;}.cls-50{fill:#8c625b;}.cls-51{fill:#a31c66;}.cls-52{fill:#cc328a;}.cls-53{fill:#4c2b29;}.cls-54{fill:#a34d3d;}</style></defs><g class="cls-1"><g id="Capa_7" data-name="Capa 7"><rect class="cls-2" x="248.19" y="-148.54" width="1502.84" height="819.14"/><polygon class="cls-3" points="1672.85 41.32 387.18 277.84 248.19 690.12 1751.03 690.12 1672.85 41.32"/><path class="cls-4" d="M1295,626c-23.28-224.45-175.11-395.92-365.88-382-178.6,13-330.68,184-327.5,389.84h694.1C1295.52,631.24,1295.29,628.64,1295,626Z"/><path class="cls-5" d="M1686.35,460.25,1584.07,41H1291.31S1501.63,388.28,1686.35,460.25Z"/><path class="cls-6" d="M1675.7,416.6l-17.48-71.67L1447.87,204.29S1548.89,308.82,1675.7,416.6Z"/><path class="cls-6" d="M1638.79,265.3,1584.07,41H1291.31s25.61,42.27,66.77,100.34C1447.72,167.34,1557,215.79,1638.79,265.3Z"/><path class="cls-5" d="M1282,21.62l-41.41-169.75H773.13S1008-7.52,1282,21.62Z"/><path class="cls-7" d="M1623.51,202.67l-85.59-350.8H1004.84S1304.43,142.45,1623.51,202.67Z"/><path class="cls-8" d="M1609.57,145.55l-71.65-293.68H1021.25S1302.26,95.14,1609.57,145.55Z"/><path class="cls-7" d="M1612.73,158.49l-12.65-51.82C1454,99.47,1345.71,34,1222.26-56,1222.26-56,1410.67,121.67,1612.73,158.49Z"/><path class="cls-7" d="M1585.12,45.33l-9.18-37.61C1441.44,2.18,1328-52,1171.11-140,1171.11-140,1404.45,19,1585.12,45.33Z"/><g class="cls-9"><path class="cls-10" d="M1640.48,475.87c-49.2-172.25-223.65-368.57-210.8-624.41l378.81,35-16.65,792.77H1563S1689.68,648.12,1640.48,475.87Z"/></g><path class="cls-11" d="M1682.64,443C1622,270.1,1423.28,78.48,1472.18-148.54h339.48l35.8,795.63H1618.64S1743.23,615.84,1682.64,443Z"/><path class="cls-12" d="M1730.62,461.22c-90.57-178-300.32-393.16-300.94-609.76H1946.1l-3.17,819.22H1714.11S1821.2,639.22,1730.62,461.22Z"/><path class="cls-13" d="M1943.85,444.62c-224.12-31.17-481.17-321.5-514.17-593.16H1946.1Z"/><path class="cls-14" d="M1845.84,252.49c68.8-32,93.39-218.57,63.68-401H1491.81C1562,123.74,1758.53,293,1845.84,252.49Z"/><path class="cls-13" d="M1715.13-148.54H1690.9c2.38,81.49,89.78,120.81,151.75,258.42C1809.28-6.29,1728.24-45.6,1715.13-148.54Z"/><path class="cls-12" d="M1545.9,47.68c33.37,190.87,321.78,375.3,363.49,484.67l27.41-83.64C1617.41,283.58,1545.9,47.68,1545.9,47.68Z"/><path class="cls-13" d="M1614.76-66.7c7.09,153,201.74,300.86,222.36,388.54l27.71-67C1645.71,122.41,1614.76-66.7,1614.76-66.7Z"/><path class="cls-13" d="M1816.43,665h116.79V482.67S1816.43,562.73,1816.43,665Z"/><path class="cls-12" d="M1793.39,299.67c31,32.88,89.78,90.78,118.38,167.27L1932,446.2C1873.51,360.41,1793.39,299.67,1793.39,299.67Z"/><path class="cls-15" d="M1799.47,650c5-66.81,37-133.78,95.86-155.16,0,0-137.3-62.12-214.72-159.2,41.5,75.52,152.47,126.71,138.32,181.7C1807.66,561.07,1794.62,625.23,1799.47,650Z"/><polygon class="cls-16" points="512.49 -29.92 563.11 21.26 572.59 45.38 570.58 45.88 561.29 21.62 506.57 -29.35 512.49 -29.92"/><polygon class="cls-16" points="488.78 8.2 510.7 82.83 508.56 109.08 506.6 108.25 508.97 82 483.4 5.02 488.78 8.2"/><polygon class="cls-16" points="443.27 -41.94 522.02 58.48 584.76 80.89 607.03 77.66 606.37 75.48 584.1 78.96 523.62 54.81 454.55 -43.71 443.27 -41.94"/><polygon class="cls-16" points="400.41 -44.27 399.79 -63.8 513.57 -32.82 635.93 -38.6 698.73 1.11 713.45 24.38 760.69 61.3 760.06 62.88 710.4 25.82 696.95 2.85 636.44 -33.31 515.11 -27.58 400.41 -44.27"/><polygon class="cls-16" points="570.79 -6.29 549.48 -8.14 534.22 -7.11 539.36 -1.91 550.57 -5.3 570.44 -4.36 595.18 6.09 595.26 4.93 570.79 -6.29"/><path class="cls-2" d="M265.07,469.57C303.26,298.65,469.82,109.2,398.71-115.26H78.25l53.68,786.64h216S226.87,640.49,265.07,469.57Z"/><path class="cls-17" d="M251.37,465c61-167.57,224.06-359.61,211.64-573.36H154.13L91.31,662.89h216S190.37,632.6,251.37,465Z"/><path class="cls-12" d="M185.06,454.72c85.5-176.31,289-369.61,295.49-603.26H-6.93l3,811.43h216S99.57,631,185.06,454.72Z"/><path class="cls-18" d="M-4.76,439c215.6-30.85,469.3-334.75,485.16-587.52H-6.93Z"/><path class="cls-14" d="M78.59,248.67C13.66,217-9.57,32.19,18.48-148.54H412.79C346.51,121.15,161,288.84,78.59,248.67Z"/><path class="cls-13" d="M202-148.54h22.87c-2.25,80.71-84.74,119.66-143.24,256C113.11-7.64,189.6-46.58,202-148.54Z"/><path class="cls-12" d="M365.66,45.82C334.16,234.87,61.92,417.54,22.55,525.88L-3.33,443C298.16,279.48,365.66,45.82,365.66,45.82Z"/><path class="cls-13" d="M296.73-67.48C290,84.07,106.29,230.52,86.82,317.37L60.67,251C267.51,119.83,296.73-67.48,296.73-67.48Z"/><path class="cls-13" d="M106.36,657.22H-3.89V476.67S106.36,556,106.36,657.22Z"/><path class="cls-12" d="M132,295.41C102.79,328,47.3,385.33,20.3,461.09L1.23,440.55C56.41,355.57,132,295.41,132,295.41Z"/><path class="cls-15" d="M116.48,622.53c-6.19-66.91-47.18-130-93.37-157.63,0,0,102.36-16.88,165.37-97.27-32.24,63.18-101.12,80.74-87.16,133.87C112.58,544.37,120.42,597.57,116.48,622.53Z"/><polygon class="cls-19" points="1686.68 99.18 1790.52 76.83 1790.79 99.04 1696.79 117.06 1686.68 99.18"/><polygon class="cls-19" points="1545.99 284.87 1664.94 295.04 1661.49 317.72 1554.19 306.27 1545.99 284.87"/><polygon class="cls-20" points="1545.99 297.49 1664.94 307.67 1661.49 330.35 1554.19 318.89 1545.99 297.49"/><polygon class="cls-20" points="1783.94 94.98 1709.73 109.84 1699.21 648.07 1801.02 648.07 1783.94 94.98"/><polygon class="cls-20" points="1646.63 317.57 1567.59 309.06 1563.57 648.07 1665.38 648.07 1646.63 317.57"/><polygon class="cls-20" points="1646.63 317.57 1567.59 309.06 1563.57 648.07 1665.38 648.07 1646.63 317.57"/><path class="cls-21" d="M1582.3,337.86c-4.52-.36-5.07,85.26-3.51,310.21h7.3C1586.14,626.41,1590.57,338.54,1582.3,337.86Z"/><path class="cls-21" d="M1599.4,339.25c-4.69-.38-4.34,93.52-1.45,308.82h9.47C1607.32,626.26,1607.6,339.92,1599.4,339.25Z"/><path class="cls-21" d="M1616.39,340.64c-4.69-.39-1.83,94.77,2.4,307.43h8.81C1627.36,626.43,1624.54,341.3,1616.39,340.64Z"/><path class="cls-21" d="M1633.29,342c-4.7-.38.44,95.84,6,306.06h8.54C1647.42,626.47,1641.37,342.67,1633.29,342Z"/><path class="cls-21" d="M1722.26,148.39c-4,.54-5.47,108.15-6.7,413.52h7C1722.87,530.79,1729.67,147.39,1722.26,148.39Z"/><path class="cls-21" d="M1737.66,146.32c-4.25.57-4.63,119.76-3.5,415.59h9.35C1743.52,530.19,1745.16,145.31,1737.66,146.32Z"/><path class="cls-21" d="M1753.27,144.22c-4.34.58-2,122.13,1.6,417.69h8.91C1763.54,530.06,1760.85,143.2,1753.27,144.22Z"/><path class="cls-21" d="M1769.08,142.09c-4.42.59.58,124.31,6.64,419.82h8.85C1784,529.74,1776.76,141.06,1769.08,142.09Z"/><polygon class="cls-21" points="1660.86 648.07 1665.38 648.07 1646.63 317.57 1643.88 317.28 1660.86 648.07"/><polygon class="cls-21" points="1570.43 309.37 1567.59 309.06 1563.57 648.07 1567.17 648.07 1570.43 309.37"/><path class="cls-22" d="M1650.31,387.52h.29l-4-70-79-8.51L1566,446.77C1586.68,410.41,1616.79,387.52,1650.31,387.52Z"/><path class="cls-19" d="M1570.71,333.21c4.64-17.69-2.37-38.1-15.66-45.6s-27.82.77-32.46,18.46,2.37,38.1,15.66,45.6S1566.07,350.9,1570.71,333.21Z"/><path class="cls-19" d="M1690,343.4c4.64-17.69-2.37-38.11-15.66-45.61s-27.82.77-32.46,18.46,2.37,38.11,15.66,45.61S1685.34,361.09,1690,343.4Z"/><path class="cls-23" d="M1684.48,340.29c3.58-13.64-1.83-29.39-12.08-35.17s-21.46.59-25,14.23,1.83,29.4,12.08,35.18S1680.9,353.94,1684.48,340.29Z"/><path class="cls-19" d="M1675.54,335.25c1.85-7.07-1-15.23-6.26-18.23s-11.12.31-13,7.38.94,15.23,6.26,18.22S1673.68,342.32,1675.54,335.25Z"/><path class="cls-23" d="M1564.49,330.32c3.45-13.15-1.76-28.32-11.64-33.89s-20.68.56-24.12,13.71,1.76,28.32,11.64,33.89S1561,343.46,1564.49,330.32Z"/><polygon class="cls-23" points="1664.3 311.86 1665.89 303.53 1546.68 294.36 1547.59 303.33 1664.3 311.86"/><path class="cls-23" d="M1638.58,308.75c0-3.29-2-5.95-4.57-5.95s-4.57,2.66-4.57,5.95,2,5.94,4.57,5.94S1638.58,312,1638.58,308.75Z"/><path class="cls-23" d="M1627.28,307.61c0-3.28-2-5.94-4.58-5.94s-4.57,2.66-4.57,5.94,2,5.95,4.57,5.95S1627.28,310.9,1627.28,307.61Z"/><path class="cls-23" d="M1616,306.47c0-3.28-2-5.94-4.57-5.94s-4.57,2.66-4.57,5.94,2.05,5.95,4.57,5.95S1616,309.76,1616,306.47Z"/><path class="cls-23" d="M1604.67,305.34c0-3.28-2.05-5.95-4.57-5.95s-4.57,2.67-4.57,5.95,2,6,4.57,6S1604.67,308.62,1604.67,305.34Z"/><path class="cls-23" d="M1593.37,304.2c0-3.28-2-5.94-4.58-5.94s-4.57,2.66-4.57,5.94,2,5.95,4.57,5.95S1593.37,307.49,1593.37,304.2Z"/><path class="cls-23" d="M1582.06,303.07c0-3.29-2-5.95-4.57-5.95s-4.57,2.66-4.57,5.95,2,5.94,4.57,5.94S1582.06,306.35,1582.06,303.07Z"/><path class="cls-19" d="M1637.47,308.75c0-2.49-1.55-4.5-3.46-4.5s-3.46,2-3.46,4.5,1.55,4.5,3.46,4.5S1637.47,311.23,1637.47,308.75Z"/><path class="cls-19" d="M1626.14,307.57c0-2.49-1.55-4.51-3.46-4.51s-3.46,2-3.46,4.51,1.55,4.5,3.46,4.5S1626.14,310.05,1626.14,307.57Z"/><path class="cls-19" d="M1614.82,306.38c0-2.48-1.55-4.5-3.46-4.5s-3.46,2-3.46,4.5,1.55,4.51,3.46,4.51S1614.82,308.87,1614.82,306.38Z"/><path class="cls-19" d="M1603.49,305.2c0-2.48-1.55-4.5-3.46-4.5s-3.46,2-3.46,4.5,1.55,4.5,3.46,4.5S1603.49,307.69,1603.49,305.2Z"/><path class="cls-19" d="M1592.17,304c0-2.49-1.55-4.5-3.46-4.5s-3.46,2-3.46,4.5,1.55,4.5,3.46,4.5S1592.17,306.51,1592.17,304Z"/><path class="cls-19" d="M1580.84,302.84c0-2.49-1.55-4.5-3.46-4.5s-3.46,2-3.46,4.5,1.55,4.5,3.46,4.5S1580.84,305.32,1580.84,302.84Z"/><path class="cls-24" d="M1749.53,502.94c-41.39,31.77-45.63,130.32-150.79,119.54-90-9.22-101.15,21.89-101.15,21.89h315.49V481.1S1770.38,487,1749.53,502.94Z"/><path class="cls-25" d="M1710.6,610.37c-64.37,21-143.11,4.2-154.23,34h256.71V516.08C1797.39,555.69,1753.11,596.52,1710.6,610.37Z"/><g class="cls-26"><path class="cls-23" d="M1798.05,648.07h3l-.33-10.83C1799.83,640.93,1799,644.54,1798.05,648.07Z"/><path class="cls-23" d="M1736.05,166c19.72,0,37.82,24,52.06,64l-4.17-135-74.21,14.86-1.42,72.77C1717,171.9,1726.32,166,1736.05,166Z"/></g><path class="cls-19" d="M1714.86,137.93c1.47-17.85-7.48-35.14-20-38.61s-23.84,8.18-25.31,26,7.49,35.13,20,38.6S1713.39,155.77,1714.86,137.93Z"/><path class="cls-19" d="M1819,115.5c1.46-17.84-7.49-35.13-20-38.6s-23.84,8.18-25.3,26,7.48,35.13,20,38.6S1817.51,133.35,1819,115.5Z"/><path class="cls-25" d="M1690,627.7c51.24-14.64,62.8-93.41,84.4-111.59,0,0-24.62,51-21.6,91.9S1690,627.7,1690,627.7Z"/><path class="cls-23" d="M1814.3,117.84c3.35-12.77-1.72-27.51-11.31-32.92s-20.08.55-23.43,13.32,1.71,27.52,11.3,32.93S1811,130.62,1814.3,117.84Z"/><path class="cls-19" d="M1805.93,113.12c1.73-6.61-.89-14.25-5.86-17.06s-10.41.29-12.14,6.91.89,14.25,5.86,17S1804.19,119.74,1805.93,113.12Z"/><path class="cls-23" d="M1709,141.5c3.23-12.31-1.65-26.51-10.89-31.73s-19.36.54-22.58,12.84,1.65,26.51,10.89,31.72S1705.8,153.8,1709,141.5Z"/><path class="cls-19" d="M1701,137c1.67-6.38-.86-13.74-5.65-16.44s-10,.28-11.7,6.65.86,13.74,5.65,16.44S1699.29,143.32,1701,137Z"/><polygon class="cls-23" points="1793.32 87.49 1793.31 83.15 1688.29 108.17 1690.63 110.57 1793.32 87.49"/><path class="cls-20" d="M1728.77,115.05c-.48-3-2.63-5.29-4.8-5s-3.53,3-3,6,2.64,5.29,4.8,5S1729.26,118.09,1728.77,115.05Z"/><path class="cls-20" d="M1740.83,112.52c-.49-3-2.64-5.28-4.8-5s-3.53,3-3,6,2.64,5.28,4.81,5S1741.32,115.57,1740.83,112.52Z"/><path class="cls-20" d="M1752.89,110c-.49-3-2.64-5.29-4.81-5s-3.52,3-3,6,2.64,5.29,4.81,5S1753.37,113,1752.89,110Z"/><path class="cls-20" d="M1764.94,107.47c-.48-3-2.63-5.28-4.8-5s-3.53,3-3,6,2.64,5.28,4.8,5S1765.43,110.52,1764.94,107.47Z"/><polygon class="cls-19" points="127.18 286.64 276.09 257.23 271.8 287.56 137.47 311.16 127.18 286.64"/><path class="cls-27" d="M347.87,614.21S336,651.78,334.17,661.8l5.43,2.14C347.51,650,347.87,614.21,347.87,614.21Z"/><path class="cls-27" d="M338.75,607.91s-8,41.29-8.72,52.2l5.62,1.91C342.09,646.46,338.75,607.91,338.75,607.91Z"/><path class="cls-27" d="M329.69,603s-8.05,40.34-9.09,55.58l8.53,3C336.78,639.88,329.69,603,329.69,603Z"/><path class="cls-27" d="M322.43,597.18s-6.24,48.29-6.54,61.17l5.75,2.75C327.45,643.2,322.43,597.18,322.43,597.18Z"/><path class="cls-27" d="M312.36,589.08s-1.75,53.07-.87,67.09l5.91,2.45C321.5,638.63,312.36,589.08,312.36,589.08Z"/><path class="cls-27" d="M302.55,582.76s-2,51.84-.72,71.44l9,3.79C315.2,630.18,302.55,582.76,302.55,582.76Z"/><path class="cls-28" d="M262,509.06c-10.84,6,1.71,140.27,1.27,142.53l42.85.75S284.6,496.47,262,509.06Z"/><path class="cls-29" d="M271.15,564.13c-3.31-20.62-4.55-39.85-3.94-55.11a5.25,5.25,0,0,0-5.23,0c-10.84,6,1.71,140.27,1.27,142.53l42.85.75s-.39-2.86-1.13-7.75C293.7,646.35,278.6,610.51,271.15,564.13Z"/><polygon class="cls-20" points="263.58 276.83 148.59 300.43 141.82 654.49 265.51 654.49 263.58 276.83"/><path class="cls-21" d="M167.38,335.1c-6.24,1.07-9.81,94.79-15,340l10.07-2.38C163.19,649.08,178.77,333.14,167.38,335.1Z"/><path class="cls-21" d="M190.94,331.05c-6.46,1.11-9.07,103.58-12.15,337.84l13.07-3.08C192.44,642,202.24,329.1,190.94,331.05Z"/><path class="cls-21" d="M214.36,327c-6.46,1.11-5.64,104.14-6.79,335.08l12.17-2.87C220.12,635.66,225.59,325.08,214.36,327Z"/><path class="cls-21" d="M237.65,323c-6.47,1.11-2.54,104.56-1.81,332.42l11.79-2.79C247.81,629.17,248.8,321.09,237.65,323Z"/><path class="cls-22" d="M217.2,356.22c17.85,0,34,14.12,47,38.19l-.6-117.58-115,23.6L145.8,446.08C162.83,391.64,188.9,356.22,217.2,356.22Z"/><path class="cls-19" d="M158.18,339.84c5.79-24.35-3-48-19.65-52.92s-34.83,10.91-40.61,35.26,3,48,19.65,52.92S152.4,364.19,158.18,339.84Z"/><ellipse class="cls-19" cx="277.35" cy="301.5" rx="45.37" ry="31.32" transform="translate(-70.26 518.29) rotate(-79.34)"/><path class="cls-23" d="M298.13,307.59c4-16.79-2.08-33.12-13.55-36.48s-24,7.52-28,24.31,2.08,33.12,13.55,36.48S294.14,324.38,298.13,307.59Z"/><path class="cls-23" d="M149.31,337.63c4-16.79-2.08-33.12-13.55-36.48s-24,7.53-28,24.31,2.08,33.12,13.55,36.48S145.32,354.42,149.31,337.63Z"/><path class="cls-19" d="M288.36,304.73c2.12-8.9-1.1-17.55-7.18-19.33s-12.72,4-14.84,12.88,1.11,17.55,7.19,19.33S286.25,313.63,288.36,304.73Z"/><path class="cls-19" d="M138.73,334.53c2-8.24-1-16.25-6.65-17.9s-11.78,3.69-13.74,11.93,1,16.26,6.65,17.9S136.77,342.77,138.73,334.53Z"/><path class="cls-19" d="M237.8,295.9c-.24-3-2.11-4.93-4.18-4.27s-3.54,3.65-3.29,6.67,2.11,4.93,4.17,4.26S238,298.92,237.8,295.9Z"/><path class="cls-19" d="M225.46,298.38c-.25-3-2.12-4.93-4.18-4.27s-3.54,3.65-3.3,6.67,2.12,4.93,4.18,4.27S225.7,301.4,225.46,298.38Z"/><path class="cls-19" d="M213.12,300.87c-.25-3-2.12-4.93-4.18-4.27s-3.54,3.64-3.3,6.66,2.12,4.93,4.18,4.27S213.36,303.89,213.12,300.87Z"/><path class="cls-19" d="M200.77,303.35c-.24-3-2.11-4.93-4.17-4.27s-3.54,3.64-3.3,6.66,2.11,4.93,4.18,4.27S201,306.37,200.77,303.35Z"/><path class="cls-19" d="M188.43,305.83c-.24-3-2.11-4.93-4.18-4.27s-3.53,3.65-3.29,6.67,2.11,4.93,4.18,4.26S188.67,308.85,188.43,305.83Z"/><path class="cls-19" d="M176.09,308.31c-.24-3-2.11-4.93-4.18-4.27s-3.54,3.65-3.29,6.67,2.11,4.93,4.17,4.27S176.33,311.33,176.09,308.31Z"/><path class="cls-28" d="M799.67,587.41c-13.09,9.8-27.71,66.13-28.47,67.05l55.6.31S840.64,556.71,799.67,587.41Z"/><path class="cls-29" d="M806.34,583.31a113.51,113.51,0,0,1-1.52,19.44c-4,24.6-14.7,43.32-23.81,41.81-2.13-.35-4-1.81-5.51-4.09-2.47,8-4.07,13.7-4.3,14l55.6.31S839,568,806.34,583.31Z"/><path class="cls-28" d="M1069.41,630.36c14.61,3.55,19.9,24,20.66,24.3l-72.29.11S1023.67,619.24,1069.41,630.36Z"/><path class="cls-29" d="M1070.88,643.24c-17.94,0-33.76-1.74-33.76-8.64a6.23,6.23,0,0,1,1.92-4.2c-18.26,6.35-21.26,24.37-21.26,24.37l72.29-.11c-.4-.18-2.09-5.95-5.72-11.88C1080.32,643.11,1075.79,643.24,1070.88,643.24Z"/><polygon class="cls-20" points="1020.55 506.84 819.63 527.08 808.07 661.18 1033.61 661.18 1020.55 506.84"/><polygon class="cls-30" points="997.21 506.84 903.1 527.08 835.73 661.18 930.78 661.18 997.21 506.84"/><polygon class="cls-22" points="1026.09 572.27 1020.55 506.84 819.63 527.08 813.98 592.7 1026.09 572.27"/><path class="cls-31" d="M1041.81,497a12.5,12.5,0,0,0-12.44-13.21h-220a12.33,12.33,0,0,0-8.78,3.69,12.47,12.47,0,0,0-3.57,8.86l.68,62.12,241.4-12.21Z"/><path class="cls-32" d="M927.26,536.63c-51.12,5.68-97.64,4.1-129.8-3l.27,24.8,241.4-12.21,1.95-35.76C1011.78,522.11,971.83,531.68,927.26,536.63Z"/><path class="cls-33" d="M1015.67,490.46a10.67,10.67,0,0,0-6.48-2.22H818.74a10.62,10.62,0,0,0-7.6,3.19,10.76,10.76,0,0,0-3.09,7.67l.11,9.82a609,609,0,0,0,69,3.71C943.27,512.63,998.92,503.24,1015.67,490.46Z"/><rect class="cls-34" x="-6.93" y="657.69" width="1953.03" height="365.58"/><rect class="cls-35" x="258.68" y="657.69" width="1480.4" height="365.58"/><rect class="cls-36" x="465.7" y="768.57" width="1132.76" height="146.47"/><rect class="cls-34" x="-6.93" y="657.69" width="1953.03" height="65.92"/><rect class="cls-37" x="-6.93" y="643.71" width="1953.03" height="43.95"/><path class="cls-38" d="M788.28,168.3c3.83-6.9,10.1-20.18,20.17-22.92,15.42-4.2,15.12-26,14.75-33.69-.49-10.29-11.07-4.14-16.12-.13s-18.78-5.77-21.14-4.91c-8.28,3-5.31,37.1-23.17,45.87Z"/><path class="cls-39" d="M777.14,133.15c-1.48-3.4,5.16-24.49,8.29-28.46s7.06-15.31,8.3-17.91,9.51.3,9,2.83-5.85,16.67-5.68,19.88C798.59,137.3,778.67,136.65,777.14,133.15Z"/><path class="cls-38" d="M802.83,113.71c6.11-4.24,14.79-8.29,15.47-10.47s2.69-17.51,4.27-18.36,8.7-.9,8.84,2-2.6,18.92-4.61,22-10,7.95-11.16,8.52S800.68,115.2,802.83,113.71Z"/><path class="cls-39" d="M822,128.76c5.65-5.08,10.4-14.52,8.86-18.47s-12.8-14.92-16.79-12.68-6.82,8.76-4.35,11.08,9.34,6.42,9.34,6.42S816.58,133.64,822,128.76Z"/><path class="cls-39" d="M814.16,142.17c5.65-5.08,9-13,7.44-16.93s-12.52-15.68-16.51-13.45-5.68,8-3.21,10.3,9.34,6.43,9.34,6.43S808.73,147.05,814.16,142.17Z"/><path class="cls-39" d="M441.21,471.63l-23.86-20.81c6.08-3.69,15-13.4,16.81-16.56l23.41,13.31S444.52,460.39,441.21,471.63Z"/><path class="cls-39" d="M448.21,457.79c-.27,2.27-4.5,10.26-5.59,15.1-1.26,5.56-5.18,24.43-7.13,25.75-2.82,1.92-5.33,1.37-6.45.08s6.25-19.64-1.11-19c-4.48.37-9.7,8.71-11.85,9.06-4.71.78-11.43-16-12.54-20.77s8.95-16.69,20.49-20.09C428.27,446.63,448.21,457.79,448.21,457.79Z"/><path class="cls-39" d="M425.35,480.3c-4.33,4.18-10.48,9.68-11.42,11.43s-6.15,11.94-7.56,12.42-6.54.81-6.12-1.7,6.33-13.69,8.47-16,8.52-10,9.56-10.28S427.77,478,425.35,480.3Z"/><path class="cls-39" d="M418.16,472.82c-4.81,3.72-11.59,8.58-12.74,10.23s-7.58,11.27-9,11.6-6.59.15-5.87-2.31,8-13,10.38-15,9.69-9.08,10.75-9.27S420.85,470.73,418.16,472.82Z"/><path class="cls-39" d="M418.42,459.5c-5.14,3.32-12.35,7.59-13.65,9.14s-8.64,10.62-10.12,10.84-6.54-.43-5.57-2.82,9.21-12.32,11.79-14.16,10.51-8.25,11.58-8.35S421.29,457.65,418.42,459.5Z"/><polygon class="cls-40" points="770.53 130.13 764.55 138.7 795.64 171.38 799.83 157.63 770.53 130.13"/><path class="cls-41" d="M763.55,135.11s-78.91,90.88-100,102l49,106.42c8.77-42.65,76.52-152.26,86.89-174.58Z"/><path class="cls-42" d="M781,151.58c-16.18,30.51-70.18,119.88-82.14,162.27l13.69,29.72c8.77-42.65,76.52-152.26,86.89-174.58Z"/><polygon class="cls-40" points="456.65 465.53 466.81 452.58 431.54 424.28 425.16 435.04 456.65 465.53"/><polygon class="cls-41" points="531.57 454.37 515.04 548.74 548.92 473.51 531.57 454.37"/><path class="cls-43" d="M533.28,483.47C524.61,514.56,515,548.74,515,548.74l97.72-84.13-38.83-31.06Z"/><path class="cls-43" d="M711.34,447.6c-2,20.72-100.44,106.82-100.44,106.82l9.57-91.68,90.07-38.26Z"/><path class="cls-44" d="M621.22,169.46c-2.26-5.65-8.33-7.23-8.33-7.23s6.26-6.7-.8-14.1-8.09-3.49-8.09-3.49,2.77-13.41-13.63-16-10.1,15.73-10.1,15.73-3.79-1.56-9.78-.45-2.84,8.67-2.84,8.67c-6,.5-11.58,7.46-5.53,13.6l-.15,9,54.07,5S623.49,175.1,621.22,169.46Z"/><path class="cls-45" d="M621.22,169.46c-2.26-5.65-8.33-7.23-8.33-7.23a10.48,10.48,0,0,0,2.47-7.83c-7.8,11.3-38.56-4.07-34-23.89-4.27,4.35-1.05,13.82-1.05,13.82A14.58,14.58,0,0,0,570,142.45c-6,1.12-3.84,9.24-3.84,9.24-6,.5-12.08,8.45-6,14.59l-.06,9.94,56,3.9S623.49,175.1,621.22,169.46Z"/><path class="cls-45" d="M553,169.85a23.6,23.6,0,0,0-7.22,13.31s-8.23-.59-9,5.61,4.88,8.6,4.88,8.6S533,204.44,533,214.59s10.38,26.12,23.94,22.06c0,0,1.73,12.27,19.22,1.25s-5.65-62.08-5.65-62.08l-3.79-9.2s-3.71-6.5-9.35-3.93S553,169.85,553,169.85Z"/><path class="cls-39" d="M578.32,236.74c-17.36-9.42-42.94-54.65-13.91-70.17s39.39-7.66,50.45,2.48,36.17,41.19,32.67,53.61S604.26,250.81,578.32,236.74Z"/><path class="cls-38" d="M582.11,231.16c-14.27-7.74-34.05-39.64-24.57-59.39-17.35,18.64,5.07,56.44,20.78,65,25.9,14,65.58-1.61,69.19-14C636.3,233.51,604.19,243.14,582.11,231.16Z"/><path class="cls-40" d="M573.43,308.89c-.4,1.2,0,87.48,0,87.48l136.32-6.17s-5.58-72.54-15.15-95.66C662.58,287.6,573.43,308.89,573.43,308.89Z"/><path class="cls-46" d="M709.75,390.2c-36.52-8.39-70-6.18-136.32,6.17-18.33,80.95-67,232.18-67,232.18h3.19L626.84,478.87l19.93-3.09,28.7,152.77h3.19S714.53,485,709.75,390.2Z"/><path class="cls-47" d="M600.74,428.87c15.14-24.81,68-62.11,68-62.11l12.81,28,10.85-8.35-20.73-34.48-43,19.33L611.3,402.76Z"/><path class="cls-47" d="M707.46,461.77c2.31-24.88,3.4-49.54,2.29-71.57A192.75,192.75,0,0,0,678,385.58Z"/><path class="cls-47" d="M623.39,388.24c-14.5,1.87-30.86,4.58-50,8.13-18.33,80.95-67,232.18-67,232.18h2.82Z"/><polygon class="cls-47" points="659.73 469.72 626.25 471.51 598.26 515.38 626.84 478.87 646.77 475.78 675.47 628.55 677.43 628.55 659.73 469.72"/><path class="cls-41" d="M523.29,519.23c22.34-46.64,89-131.36,147-157.66,0,0,32.89,42.18,40.6,88,0,0,12-109.6-1-148.26s-37.36-67-37.36-67-108.82-4.58-134.82,32.28c-11,15.55,11.89,79.51,7.71,102.84C541.59,390.92,524.38,494,523.29,519.23Z"/><path class="cls-42" d="M534.71,280.23c-.22,24.91,14.09,70.38,10.71,89.25-3.83,21.44-21,124.54-22.13,149.75,12.29-25.65,38-62.82,68.27-95.46,0-.33,0-.65,0-1C587,340,546.33,284.58,534.71,280.23Z"/><path class="cls-41" d="M463.82,462,428,425.68s83.86-145.86,116.86-166.6c27.83,10.35,39,61.78,15.87,93.26C560.68,352.34,502.49,408.14,463.82,462Z"/><path class="cls-42" d="M454.32,452.34l9.5,9.61c38.67-53.81,98.85-109.41,98.85-109.41,5.93-8.06,13.22-28.22,15-37.87C559.79,331.79,488.72,406.17,454.32,452.34Z"/><path class="cls-40" d="M573.18,244.92c28-4.38,72.65,22.87,86.1,47.08,0,0,6.13-33.38-7.62-57.72C617.28,231.77,573.18,244.92,573.18,244.92Z"/><path class="cls-48" d="M651.66,234.28h-.24c10.09,23,5.76,50.41,5.76,50.41-13.35-19.92-50.66-39.84-78.38-41.31-3.56.94-5.62,1.55-5.62,1.55,28-4.38,73.39,26.61,86.84,50.82C660,295.74,665.41,258.62,651.66,234.28Z"/><path class="cls-40" d="M573.18,244.92s-3.44-9,.51-11.61c10.41,1.75,52.6,1.8,60.18-.2s12.63-9,14-12c2.31,1.47,4.74,6.34,3.84,13.19L634,240.94Z"/><path class="cls-44" d="M548.49,188.17c1.71-13,11.82-13.79,16.08-4.93s.58,24.23.58,24.23,8.75,7.82,10.93,13.8c1.34,3.65-2.13,6.63-4.66,6.67C559.88,228.14,546.27,205,548.49,188.17Z"/><path class="cls-45" d="M576.08,221.27c-2.18-6-10.93-13.8-10.93-13.8s2.62-11,.85-19.76c1,9.43-1.62,17.29-6.07,17.95-4.74.7-9.8-7-11.32-17.27l-.06-.53-.06.31c-4,18.94,11.39,40,22.93,39.77C574,227.9,577.42,224.92,576.08,221.27Z"/><path class="cls-39" d="M565.55,218.32c-7.62-2.49-17.23,7.14-12.49,11.64s19.55,5.28,21.06,2.95S569.36,219.56,565.55,218.32Z"/><polygon class="cls-48" points="634.41 241.93 631.83 252.1 602.29 249.61 610.1 253.49 634.41 257.88 638.2 240.74 642.59 239.14 655.67 243.08 652.95 234.16 641.33 236.26 634.41 241.93"/><path class="cls-49" d="M564.33,222.09c-4.34-.81-8.92,5.13-6,7.26s11.08,1.5,11.74.12S566.5,222.5,564.33,222.09Z"/><path class="cls-39" d="M569.21,224.88c-3-1.19-7.06,2.38-5.29,4.3s7.65,2.63,8.31,1.75S570.69,225.48,569.21,224.88Z"/><path class="cls-50" d="M675.26,343.18c-.18-3.19-1.84-5.69-3.71-5.58s-3.23,2.78-3,6,1.84,5.69,3.71,5.58S675.44,346.37,675.26,343.18Z"/><path class="cls-50" d="M672.45,313.84c-.41-3.17-2.25-5.54-4.11-5.3s-3,3-2.61,6.17,2.25,5.54,4.11,5.3S672.86,317,672.45,313.84Z"/><path class="cls-47" d="M603.82,469.32c15.25,3,55.68,3.91,55.68,3.91l22.65-9.29-42.45,6.28Z"/><rect class="cls-50" x="658.13" y="389.01" width="11.76" height="7.57"/><path class="cls-48" d="M694.2,648.88H679.85l-8.52-20.54s2.35-9.55,7.53-7.76S683,642.9,683,642.9Z"/><path class="cls-48" d="M486.19,648.88h14.22l14.23-17.54s-.35-12.55-5.95-10.76-9.9,22.32-9.9,22.32Z"/><path class="cls-48" d="M635.11,297.83c-4.94,1.19-16.54,5.18-17.33,4.59s-.8-14.15,1.39-15.95S637.6,297.24,635.11,297.83Z"/><path class="cls-17" d="M648.54,221.68a6.23,6.23,0,0,0-.72-.59c-1.32,3.06-6.38,10-14,12s-49.77,1.95-60.18.2c-4,2.64-.51,11.61-.51,11.61h0c-12.72,3.79-22.39,9.17-32.63,17.27C543.18,262.45,630,254.34,648.54,221.68Z"/><path class="cls-51" d="M639.13,243c-2.22-.48-1.83-7.74.47-9s6.62,2.93,7.45,4.74S642.85,243.81,639.13,243Z"/><path class="cls-51" d="M640,240.13c-7.37,7.76-11.5,14.17-14.47,13.73s-3-6.73-3.84-9.43-4.87-5.56-2.4-7.61,20.48,1.32,20.48,1.32Z"/><path class="cls-51" d="M641.73,236.68c6-8.09,9.17-14.67,12-14.38s3.62,6.52,4.67,9.16,5.21,5.27,3.12,7.43-19.36-.24-19.36-.24Z"/><path class="cls-52" d="M635.26,240.59c-1.12-2.81-7.09-3.17-14.13-1.12.65,1.38,2.14,2.89,2.57,4.35.53,1.83.7,5.46,1.88,7.34C632.2,247.82,636.38,243.43,635.26,240.59Z"/><path class="cls-52" d="M640.5,241.4c-1.55-.33-1.27-5.39.32-6.3s4.62,2,5.2,3.3S643.09,242,640.5,241.4Z"/><path class="cls-52" d="M659.44,235.31a22,22,0,0,1-2.43-3.47c-.55-1.36-1-3.86-1.83-5.64-5.74,2.19-9.45,6.5-8.74,8.69s6.47,2.54,12.78.49Z"/><path class="cls-44" d="M596.75,120.27s5.78,5,1.89,17.93l4.59,8.27C606.22,140.4,606.61,125.15,596.75,120.27Z"/><path class="cls-40" d="M770.39,163.55a3.69,3.69,0,1,0,4.78-2.07A3.69,3.69,0,0,0,770.39,163.55Z"/><path class="cls-40" d="M764.71,175a3.69,3.69,0,1,0,4.78-2.07A3.69,3.69,0,0,0,764.71,175Z"/><path class="cls-40" d="M469.79,426a3.69,3.69,0,1,0,5-1.37A3.69,3.69,0,0,0,469.79,426Z"/><path class="cls-40" d="M462.53,436.57a3.69,3.69,0,1,0,5-1.37A3.69,3.69,0,0,0,462.53,436.57Z"/><path class="cls-53" d="M631.38,209.17c-2.32-5.11-6.34-8.52-9-7.62s-2.87,5.78-.54,10.9,6.34,8.52,9,7.62S633.71,214.28,631.38,209.17Z"/><path class="cls-49" d="M590.84,190.17a26.22,26.22,0,0,1,5-2.79c-1.35-.94-4-.38-6.34,1.44-2.07,1.62-3.22,3.73-3,5.25A23.21,23.21,0,0,1,590.84,190.17Z"/><path class="cls-49" d="M610,175.82a26.86,26.86,0,0,1,5.64-1.18c-1-1.31-3.79-1.58-6.57-.53-2.47.94-4.18,2.62-4.44,4.14A23.55,23.55,0,0,1,610,175.82Z"/><path class="cls-54" d="M600.76,172.13c8.64-2.52,11.08-4.64,11.08-4.64l-1.51-3.85a72.84,72.84,0,0,0-10.75,1.63Z"/><path class="cls-54" d="M586.89,173.35a123.49,123.49,0,0,1-10,11.59l2.62,3.71A42.63,42.63,0,0,0,593,177Z"/><path class="cls-49" d="M605.91,181.53c5.29,3.1,16.8,9.39,17.85,10.46s-8.57,9.91-8.57,9.91l-10.6-18.06Z"/><path class="cls-39" d="M605,181.7c4.19,3.44,14.51,10.45,15.38,11.49s-7,9.21-7,9.21l-9.66-17.84Z"/><path class="cls-40" d="M626,205.17h.25c-1.36-1.85-3-2.81-4.26-2.24s-1.47,2.08-1.21,4A13,13,0,0,1,626,205.17Z"/><path class="cls-49" d="M621.3,219.45c2.39,2.39,8.27,4.28,11.06,2.29,0,0-1.89,2.73-6.47,1.69C622.8,222.73,621.3,219.45,621.3,219.45Z"/></g></g></svg>