<svg xmlns="http://www.w3.org/2000/svg" xmlns:xlink="http://www.w3.org/1999/xlink" viewBox="0 0 1922.51 940.83"><defs><style>.cls-1{fill:none;}.cls-2{isolation:isolate;}.cls-3{fill:#331128;}.cls-4{fill:#3a1630;}.cls-5{fill:#662654;}.cls-6{fill:#99426e;}.cls-7{fill:#7a2d58;}.cls-8{fill:#a8427e;}.cls-9{fill:#c45397;}.cls-10,.cls-18{opacity:0.6;}.cls-10,.cls-18,.cls-23,.cls-27{mix-blend-mode:multiply;}.cls-11,.cls-18{fill:#843131;}.cls-12{fill:#5e203e;}.cls-13{fill:#c4164c;}.cls-14{fill:#f2275c;}.cls-15{fill:#ff3364;}.cls-16{fill:#a0103a;}.cls-17{fill:#a0425a;}.cls-19{fill:#ea2a54;}.cls-20{fill:#ffefca;}.cls-21{fill:#ddcdaf;}.cls-22{fill:#f4e8d3;}.cls-23,.cls-24{fill:#c6af89;}.cls-23,.cls-27{opacity:0.4;}.cls-25{fill:#ff3e3e;}.cls-26{fill:#e82121;}.cls-28{fill:#afaa41;}.cls-29{fill:#89747e;}.cls-30{fill:#664d5a;}.cls-31{fill:#edd7a9;}.cls-32{fill:#825e5d;}.cls-33{fill:#684a48;}.cls-34{fill:#8e635e;}.cls-35{fill:#f2dfbd;}.cls-36{fill:#eadac1;}.cls-37{fill:#af5f87;}.cls-38{fill:#a0537a;}.cls-39{fill:#d379a6;}.cls-40{fill:#d1a77d;}.cls-41{fill:#e8c7a3;}.cls-42{fill:#efd9b9;}.cls-43{fill:#fff3d7;}.cls-44{fill:#ff9566;}.cls-45{fill:#ffb882;}.cls-46{fill:#e8dabc;}.cls-47{fill:#513f3b;}.cls-48{fill:#44322f;}.cls-49{fill:#911f3a;}.cls-50{fill:#8e3840;}.cls-51{fill:#72242d;}.cls-52{fill:#332624;}.cls-53{fill:#281d1b;}.cls-54{fill:#d3bd94;}.cls-55{fill:#ea7b59;}.cls-56{fill:#8c625b;}.cls-57{fill:#a31c66;}.cls-58{fill:#cc328a;}.cls-59{fill:#4c2b29;}.cls-60{fill:#a34d3d;}.cls-61{fill:#a53f47;}.cls-62{fill:#872934;}.cls-63{fill:#6b1e2a;}.cls-64{fill:#63212e;}.cls-65{fill:#d63050;}.cls-66{fill:#c11e45;}.cls-67{fill:#602934;}.cls-68{fill:#441923;}.cls-69{fill:#ffe9cc;}.cls-70{fill:#c11a42;}.cls-71{fill:#f99838;}.cls-72{fill:#ef8220;}.cls-73{fill:#4c241e;}.cls-74{fill:#fffef8;}.cls-75{clip-path:url(#clip-path);}.cls-76{fill:#381922;}.cls-77{fill:#281118;}</style><clipPath id="clip-path"><rect class="cls-1" x="4.07" y="432.02" width="1953.03" height="591.26"/></clipPath></defs><g class="cls-2"><g id="Capa_7" data-name="Capa 7"><rect class="cls-3" x="259.19" y="-148.54" width="1502.84" height="819.14"/><polygon class="cls-4" points="1683.85 41.32 398.18 277.84 259.19 690.12 1762.03 690.12 1683.85 41.32"/><path class="cls-5" d="M1306,626c-23.28-224.45-175.11-395.92-365.88-382-178.6,13-330.68,184-327.5,389.84h694.1C1306.52,631.24,1306.29,628.64,1306,626Z"/><path class="cls-6" d="M1697.35,460.25,1595.07,41H1302.31S1512.63,388.28,1697.35,460.25Z"/><path class="cls-7" d="M1686.7,416.6l-17.48-71.67L1458.87,204.29S1559.89,308.82,1686.7,416.6Z"/><path class="cls-7" d="M1649.79,265.3,1595.07,41H1302.31s25.61,42.27,66.77,100.34C1458.72,167.34,1568,215.79,1649.79,265.3Z"/><path class="cls-6" d="M1293,21.62l-41.41-169.75H784.13S1019-7.52,1293,21.62Z"/><path class="cls-8" d="M1634.51,202.67l-85.59-350.8H1015.84S1315.43,142.45,1634.51,202.67Z"/><path class="cls-9" d="M1620.57,145.55l-71.65-293.68H1032.25S1313.26,95.14,1620.57,145.55Z"/><path class="cls-8" d="M1623.73,158.49l-12.65-51.82C1465,99.47,1356.71,34,1233.26-56,1233.26-56,1421.67,121.67,1623.73,158.49Z"/><path class="cls-8" d="M1596.12,45.33l-9.18-37.61C1452.44,2.18,1339-52,1182.11-140,1182.11-140,1415.45,19,1596.12,45.33Z"/><g class="cls-10"><path class="cls-11" d="M1651.48,475.87c-49.2-172.25-223.65-368.57-210.8-624.41l378.81,35-16.65,792.77H1574S1700.68,648.12,1651.48,475.87Z"/></g><path class="cls-12" d="M1693.64,443C1633,270.1,1434.28,78.48,1483.18-148.54h339.48l35.8,795.63H1629.64S1754.23,615.84,1693.64,443Z"/><path class="cls-13" d="M1741.62,461.22c-90.57-178-300.32-393.16-300.94-609.76H1957.1l-3.17,819.22H1725.11S1832.2,639.22,1741.62,461.22Z"/><path class="cls-14" d="M1954.85,444.62c-224.12-31.17-481.17-321.5-514.17-593.16H1957.1Z"/><path class="cls-15" d="M1856.84,252.49c68.8-32,93.39-218.57,63.68-401H1502.81C1573,123.74,1769.53,293,1856.84,252.49Z"/><path class="cls-14" d="M1726.13-148.54H1701.9c2.38,81.49,89.78,120.81,151.75,258.42C1820.28-6.29,1739.24-45.6,1726.13-148.54Z"/><path class="cls-13" d="M1556.9,47.68c33.37,190.87,321.78,375.3,363.49,484.67l27.41-83.64C1628.41,283.58,1556.9,47.68,1556.9,47.68Z"/><path class="cls-14" d="M1625.76-66.7c7.09,153,201.74,300.86,222.36,388.54l27.71-67C1656.71,122.41,1625.76-66.7,1625.76-66.7Z"/><path class="cls-14" d="M1827.43,665h116.79V482.67S1827.43,562.73,1827.43,665Z"/><path class="cls-13" d="M1804.39,299.67c31,32.88,89.78,90.78,118.38,167.27L1943,446.2C1884.51,360.41,1804.39,299.67,1804.39,299.67Z"/><path class="cls-16" d="M1810.47,650c5-66.81,37-133.78,95.86-155.16,0,0-137.3-62.12-214.72-159.2,41.5,75.52,152.47,126.71,138.32,181.7C1818.66,561.07,1805.62,625.23,1810.47,650Z"/><polygon class="cls-17" points="523.49 -29.92 574.11 21.26 583.59 45.38 581.58 45.88 572.29 21.62 517.58 -29.35 523.49 -29.92"/><polygon class="cls-17" points="499.78 8.2 521.71 82.83 519.56 109.08 517.6 108.25 519.97 82 494.4 5.02 499.78 8.2"/><polygon class="cls-17" points="454.27 -41.94 533.02 58.48 595.76 80.89 618.03 77.66 617.37 75.48 595.1 78.96 534.62 54.81 465.55 -43.71 454.27 -41.94"/><polygon class="cls-17" points="411.41 -44.27 410.79 -63.8 524.57 -32.82 646.93 -38.6 709.73 1.11 724.45 24.38 771.69 61.3 771.06 62.88 721.4 25.82 707.95 2.85 647.44 -33.31 526.11 -27.58 411.41 -44.27"/><polygon class="cls-17" points="581.79 -6.29 560.48 -8.14 545.22 -7.11 550.36 -1.91 561.57 -5.3 581.44 -4.36 606.18 6.09 606.26 4.93 581.79 -6.29"/><path class="cls-3" d="M276.07,469.57C314.26,298.65,480.82,109.2,409.71-115.26H89.25l53.68,786.64h216S237.87,640.49,276.07,469.57Z"/><path class="cls-18" d="M262.37,465c61-167.57,224.06-359.61,211.64-573.36H165.13L102.31,662.89h216S201.37,632.6,262.37,465Z"/><path class="cls-13" d="M196.06,454.72c85.5-176.31,289-369.61,295.49-603.26H4.07l3,811.43h216S110.57,631,196.06,454.72Z"/><path class="cls-19" d="M6.24,439c215.6-30.85,469.3-334.75,485.16-587.52H4.07Z"/><path class="cls-15" d="M89.59,248.67C24.66,217,1.43,32.19,29.48-148.54H423.79C357.51,121.15,172,288.84,89.59,248.67Z"/><path class="cls-14" d="M213-148.54h22.87c-2.25,80.71-84.74,119.66-143.24,256C124.11-7.64,200.6-46.58,213-148.54Z"/><path class="cls-13" d="M376.66,45.82C345.16,234.87,72.92,417.54,33.55,525.88L7.67,443C309.16,279.48,376.66,45.82,376.66,45.82Z"/><path class="cls-14" d="M307.73-67.48C301,84.07,117.29,230.52,97.82,317.37L71.67,251C278.51,119.83,307.73-67.48,307.73-67.48Z"/><path class="cls-14" d="M117.36,657.22H7.11V476.67S117.36,556,117.36,657.22Z"/><path class="cls-13" d="M143,295.41C113.79,328,58.3,385.33,31.3,461.09L12.23,440.55C67.41,355.57,143,295.41,143,295.41Z"/><path class="cls-16" d="M127.48,622.53c-6.19-66.91-47.18-130-93.37-157.63,0,0,102.36-16.88,165.37-97.27-32.24,63.18-101.12,80.74-87.16,133.87C123.58,544.37,131.42,597.57,127.48,622.53Z"/><polygon class="cls-20" points="1697.68 99.18 1801.52 76.83 1801.79 99.04 1707.79 117.06 1697.68 99.18"/><polygon class="cls-20" points="1556.99 284.87 1675.94 295.04 1672.49 317.72 1565.19 306.27 1556.99 284.87"/><polygon class="cls-21" points="1556.99 297.49 1675.94 307.67 1672.49 330.35 1565.19 318.89 1556.99 297.49"/><polygon class="cls-21" points="1794.94 94.98 1720.73 109.84 1710.21 648.07 1812.02 648.07 1794.94 94.98"/><polygon class="cls-21" points="1657.63 317.57 1578.59 309.06 1574.57 648.07 1676.38 648.07 1657.63 317.57"/><polygon class="cls-21" points="1657.63 317.57 1578.59 309.06 1574.57 648.07 1676.38 648.07 1657.63 317.57"/><path class="cls-22" d="M1593.3,337.86c-4.52-.36-5.07,85.26-3.51,310.21h7.3C1597.14,626.41,1601.57,338.54,1593.3,337.86Z"/><path class="cls-22" d="M1610.4,339.25c-4.69-.38-4.34,93.52-1.45,308.82h9.47C1618.32,626.26,1618.6,339.92,1610.4,339.25Z"/><path class="cls-22" d="M1627.39,340.64c-4.69-.39-1.83,94.77,2.4,307.43h8.81C1638.36,626.43,1635.54,341.3,1627.39,340.64Z"/><path class="cls-22" d="M1644.29,342c-4.7-.38.44,95.84,6,306.06h8.54C1658.42,626.47,1652.37,342.67,1644.29,342Z"/><path class="cls-22" d="M1733.26,148.39c-4,.54-5.47,108.15-6.7,413.52h7C1733.87,530.79,1740.67,147.39,1733.26,148.39Z"/><path class="cls-22" d="M1748.66,146.32c-4.25.57-4.63,119.76-3.5,415.59h9.35C1754.52,530.19,1756.16,145.31,1748.66,146.32Z"/><path class="cls-22" d="M1764.27,144.22c-4.34.58-2,122.13,1.6,417.69h8.91C1774.54,530.06,1771.85,143.2,1764.27,144.22Z"/><path class="cls-22" d="M1780.08,142.09c-4.42.59.58,124.31,6.64,419.82h8.85C1795,529.74,1787.76,141.06,1780.08,142.09Z"/><polygon class="cls-22" points="1671.86 648.07 1676.38 648.07 1657.63 317.57 1654.88 317.28 1671.86 648.07"/><polygon class="cls-22" points="1581.43 309.37 1578.59 309.06 1574.57 648.07 1578.17 648.07 1581.43 309.37"/><path class="cls-23" d="M1661.31,387.52h.29l-4-70-79-8.51L1577,446.77C1597.68,410.41,1627.79,387.52,1661.31,387.52Z"/><path class="cls-20" d="M1581.71,333.21c4.64-17.69-2.37-38.1-15.66-45.6s-27.82.77-32.46,18.46,2.37,38.1,15.66,45.6S1577.07,350.9,1581.71,333.21Z"/><path class="cls-20" d="M1701,343.4c4.64-17.69-2.37-38.11-15.66-45.61s-27.82.77-32.46,18.46,2.37,38.11,15.66,45.61S1696.34,361.09,1701,343.4Z"/><path class="cls-24" d="M1695.48,340.29c3.58-13.64-1.83-29.39-12.08-35.17s-21.46.59-25,14.23,1.83,29.4,12.08,35.18S1691.9,353.94,1695.48,340.29Z"/><path class="cls-20" d="M1686.54,335.25c1.85-7.07-1-15.23-6.26-18.23s-11.12.31-13,7.38.94,15.23,6.26,18.22S1684.68,342.32,1686.54,335.25Z"/><path class="cls-24" d="M1575.49,330.32c3.45-13.15-1.76-28.32-11.64-33.89s-20.68.56-24.12,13.71,1.76,28.32,11.64,33.89S1572,343.46,1575.49,330.32Z"/><polygon class="cls-24" points="1675.3 311.86 1676.89 303.53 1557.68 294.36 1558.59 303.33 1675.3 311.86"/><path class="cls-24" d="M1649.58,308.75c0-3.29-2-5.95-4.57-5.95s-4.57,2.66-4.57,5.95,2,5.94,4.57,5.94S1649.58,312,1649.58,308.75Z"/><path class="cls-24" d="M1638.28,307.61c0-3.28-2-5.94-4.58-5.94s-4.57,2.66-4.57,5.94,2,5.95,4.57,5.95S1638.28,310.9,1638.28,307.61Z"/><path class="cls-24" d="M1627,306.47c0-3.28-2-5.94-4.57-5.94s-4.57,2.66-4.57,5.94,2.05,5.95,4.57,5.95S1627,309.76,1627,306.47Z"/><path class="cls-24" d="M1615.67,305.34c0-3.28-2.05-5.95-4.57-5.95s-4.57,2.67-4.57,5.95,2,6,4.57,6S1615.67,308.62,1615.67,305.34Z"/><path class="cls-24" d="M1604.37,304.2c0-3.28-2-5.94-4.58-5.94s-4.57,2.66-4.57,5.94,2,5.95,4.57,5.95S1604.37,307.49,1604.37,304.2Z"/><path class="cls-24" d="M1593.06,303.07c0-3.29-2-5.95-4.57-5.95s-4.57,2.66-4.57,5.95,2,5.94,4.57,5.94S1593.06,306.35,1593.06,303.07Z"/><path class="cls-20" d="M1648.47,308.75c0-2.49-1.55-4.5-3.46-4.5s-3.46,2-3.46,4.5,1.55,4.5,3.46,4.5S1648.47,311.23,1648.47,308.75Z"/><path class="cls-20" d="M1637.14,307.57c0-2.49-1.55-4.51-3.46-4.51s-3.46,2-3.46,4.51,1.55,4.5,3.46,4.5S1637.14,310.05,1637.14,307.57Z"/><path class="cls-20" d="M1625.82,306.38c0-2.48-1.55-4.5-3.46-4.5s-3.46,2-3.46,4.5,1.55,4.51,3.46,4.51S1625.82,308.87,1625.82,306.38Z"/><path class="cls-20" d="M1614.49,305.2c0-2.48-1.55-4.5-3.46-4.5s-3.46,2-3.46,4.5,1.55,4.5,3.46,4.5S1614.49,307.69,1614.49,305.2Z"/><path class="cls-20" d="M1603.17,304c0-2.49-1.55-4.5-3.46-4.5s-3.46,2-3.46,4.5,1.55,4.5,3.46,4.5S1603.17,306.51,1603.17,304Z"/><path class="cls-20" d="M1591.84,302.84c0-2.49-1.55-4.5-3.46-4.5s-3.46,2-3.46,4.5,1.55,4.5,3.46,4.5S1591.84,305.32,1591.84,302.84Z"/><path class="cls-25" d="M1760.53,502.94c-41.39,31.77-45.63,130.32-150.79,119.54-90-9.22-101.15,21.89-101.15,21.89h315.49V481.1S1781.38,487,1760.53,502.94Z"/><path class="cls-26" d="M1721.6,610.37c-64.37,21-143.11,4.2-154.23,34h256.71V516.08C1808.39,555.69,1764.11,596.52,1721.6,610.37Z"/><g class="cls-27"><path class="cls-24" d="M1809.05,648.07h3l-.33-10.83C1810.83,640.93,1810,644.54,1809.05,648.07Z"/><path class="cls-24" d="M1747.05,166c19.72,0,37.82,24,52.06,64l-4.17-135-74.21,14.86-1.42,72.77C1728,171.9,1737.32,166,1747.05,166Z"/></g><path class="cls-20" d="M1725.86,137.93c1.47-17.85-7.48-35.14-20-38.61s-23.84,8.18-25.31,26,7.49,35.13,20,38.6S1724.39,155.77,1725.86,137.93Z"/><path class="cls-20" d="M1830,115.5c1.46-17.84-7.49-35.13-20-38.6s-23.84,8.18-25.3,26,7.48,35.13,20,38.6S1828.51,133.35,1830,115.5Z"/><path class="cls-26" d="M1701,627.7c51.24-14.64,62.8-93.41,84.4-111.59,0,0-24.62,51-21.6,91.9S1701,627.7,1701,627.7Z"/><path class="cls-24" d="M1825.3,117.84c3.35-12.77-1.72-27.51-11.31-32.92s-20.08.55-23.43,13.32,1.71,27.52,11.3,32.93S1822,130.62,1825.3,117.84Z"/><path class="cls-20" d="M1816.93,113.12c1.73-6.61-.89-14.25-5.86-17.06s-10.41.29-12.14,6.91.89,14.25,5.86,17S1815.19,119.74,1816.93,113.12Z"/><path class="cls-24" d="M1720,141.5c3.23-12.31-1.65-26.51-10.89-31.73s-19.36.54-22.58,12.84,1.65,26.51,10.89,31.72S1716.8,153.8,1720,141.5Z"/><path class="cls-20" d="M1712,137c1.67-6.38-.86-13.74-5.65-16.44s-10,.28-11.7,6.65.86,13.74,5.65,16.44S1710.29,143.32,1712,137Z"/><polygon class="cls-24" points="1804.32 87.49 1804.31 83.15 1699.29 108.17 1701.63 110.57 1804.32 87.49"/><path class="cls-21" d="M1739.77,115.05c-.48-3-2.63-5.29-4.8-5s-3.53,3-3,6,2.64,5.29,4.8,5S1740.26,118.09,1739.77,115.05Z"/><path class="cls-21" d="M1751.83,112.52c-.49-3-2.64-5.28-4.8-5s-3.53,3-3,6,2.64,5.28,4.81,5S1752.32,115.57,1751.83,112.52Z"/><path class="cls-21" d="M1763.89,110c-.49-3-2.64-5.29-4.81-5s-3.52,3-3,6,2.64,5.29,4.81,5S1764.37,113,1763.89,110Z"/><path class="cls-21" d="M1775.94,107.47c-.48-3-2.63-5.28-4.8-5s-3.53,3-3,6,2.64,5.28,4.8,5S1776.43,110.52,1775.94,107.47Z"/><polygon class="cls-20" points="138.18 286.64 287.09 257.23 282.8 287.56 148.47 311.16 138.18 286.64"/><path class="cls-28" d="M358.87,614.21S347,651.78,345.17,661.8l5.43,2.14C358.51,650,358.87,614.21,358.87,614.21Z"/><path class="cls-28" d="M349.75,607.91s-8,41.29-8.72,52.2l5.62,1.91C353.09,646.46,349.75,607.91,349.75,607.91Z"/><path class="cls-28" d="M340.69,603s-8.05,40.34-9.09,55.58l8.53,3C347.78,639.88,340.69,603,340.69,603Z"/><path class="cls-28" d="M333.43,597.18s-6.24,48.29-6.54,61.17l5.75,2.75C338.45,643.2,333.43,597.18,333.43,597.18Z"/><path class="cls-28" d="M323.36,589.08s-1.75,53.07-.87,67.09l5.91,2.45C332.5,638.63,323.36,589.08,323.36,589.08Z"/><path class="cls-28" d="M313.55,582.76s-2,51.84-.72,71.44l9,3.79C326.2,630.18,313.55,582.76,313.55,582.76Z"/><path class="cls-29" d="M273,509.06c-10.84,6,1.71,140.27,1.27,142.53l42.85.75S295.6,496.47,273,509.06Z"/><path class="cls-30" d="M282.15,564.13c-3.31-20.62-4.55-39.85-3.94-55.11a5.25,5.25,0,0,0-5.23,0c-10.84,6,1.71,140.27,1.27,142.53l42.85.75s-.39-2.86-1.13-7.75C304.7,646.35,289.6,610.51,282.15,564.13Z"/><polygon class="cls-21" points="274.58 276.83 159.59 300.43 152.82 654.49 276.51 654.49 274.58 276.83"/><path class="cls-22" d="M178.38,335.1c-6.24,1.07-9.81,94.79-15,340l10.07-2.38C174.19,649.08,189.77,333.14,178.38,335.1Z"/><path class="cls-22" d="M201.94,331.05c-6.46,1.11-9.07,103.58-12.15,337.84l13.07-3.08C203.44,642,213.24,329.1,201.94,331.05Z"/><path class="cls-22" d="M225.36,327c-6.46,1.11-5.64,104.14-6.79,335.08l12.17-2.87C231.12,635.66,236.59,325.08,225.36,327Z"/><path class="cls-22" d="M248.65,323c-6.47,1.11-2.54,104.56-1.81,332.42l11.79-2.79C258.81,629.17,259.8,321.09,248.65,323Z"/><path class="cls-23" d="M228.2,356.22c17.85,0,34,14.12,47,38.19l-.6-117.58-115,23.6L156.8,446.08C173.83,391.64,199.9,356.22,228.2,356.22Z"/><path class="cls-20" d="M169.18,339.84c5.79-24.35-3-48-19.65-52.92s-34.83,10.91-40.61,35.26,3,48,19.65,52.92S163.4,364.19,169.18,339.84Z"/><ellipse class="cls-20" cx="288.35" cy="301.5" rx="45.37" ry="31.32" transform="translate(-61.29 529.1) rotate(-79.34)"/><path class="cls-24" d="M309.13,307.59c4-16.79-2.08-33.12-13.55-36.48s-24,7.52-28,24.31,2.08,33.12,13.55,36.48S305.14,324.38,309.13,307.59Z"/><path class="cls-24" d="M160.31,337.63c4-16.79-2.08-33.12-13.55-36.48s-24,7.53-28,24.31,2.08,33.12,13.55,36.48S156.32,354.42,160.31,337.63Z"/><path class="cls-20" d="M299.36,304.73c2.12-8.9-1.1-17.55-7.18-19.33s-12.72,4-14.84,12.88,1.11,17.55,7.19,19.33S297.25,313.63,299.36,304.73Z"/><path class="cls-20" d="M149.73,334.53c2-8.24-1-16.25-6.65-17.9s-11.78,3.69-13.74,11.93,1,16.26,6.65,17.9S147.77,342.77,149.73,334.53Z"/><path class="cls-20" d="M248.8,295.9c-.24-3-2.11-4.93-4.18-4.27s-3.54,3.65-3.29,6.67,2.11,4.93,4.17,4.26S249,298.92,248.8,295.9Z"/><path class="cls-20" d="M236.46,298.38c-.25-3-2.12-4.93-4.18-4.27s-3.54,3.65-3.3,6.67,2.12,4.93,4.18,4.27S236.7,301.4,236.46,298.38Z"/><path class="cls-20" d="M224.12,300.87c-.25-3-2.12-4.93-4.18-4.27s-3.54,3.64-3.3,6.66,2.12,4.93,4.18,4.27S224.36,303.89,224.12,300.87Z"/><path class="cls-20" d="M211.77,303.35c-.24-3-2.11-4.93-4.17-4.27s-3.54,3.64-3.3,6.66,2.11,4.93,4.18,4.27S212,306.37,211.77,303.35Z"/><path class="cls-20" d="M199.43,305.83c-.24-3-2.11-4.93-4.18-4.27s-3.53,3.65-3.29,6.67,2.11,4.93,4.18,4.26S199.67,308.85,199.43,305.83Z"/><path class="cls-20" d="M187.09,308.31c-.24-3-2.11-4.93-4.18-4.27s-3.54,3.65-3.29,6.67,2.11,4.93,4.17,4.27S187.33,311.33,187.09,308.31Z"/><path class="cls-20" d="M885.81,492c-30-4-20.07-52.35,1.43-62s46.62-2.08,55,23.05a29.52,29.52,0,0,1,1,13.93l11.94,21.14-39.18,4.8-5-10S904,494.35,885.81,492Z"/><path class="cls-31" d="M931.44,471.78c8.94-1.43,15.46,4.2,22.2,16.5l1.45-.17L943.15,467a26.58,26.58,0,0,0,.42-4.36c-6.35,6.11-16.89,10.13-28.85,10.13-19.4,0-35.13-10.54-35.13-23.54,0-11.54,12.41-21.12,28.76-23.13A44.63,44.63,0,0,0,887.24,430c-21.5,9.61-31.45,58-1.43,62,18.16,2.4,25.13-9,25.13-9l5,10,6.38-.78C920.51,481.45,924,473,931.44,471.78Z"/><path class="cls-32" d="M937.57,462c-6.36-.4-17.84-14.25-13.22-16.49s10.83-.8,13.06,3.84S940.12,462.17,937.57,462Z"/><path class="cls-33" d="M935.12,460.86c-4.48-.28-12.57-10-9.32-11.62s7.64-.56,9.21,2.71S936.92,461,935.12,460.86Z"/><path class="cls-34" d="M910.66,468.36c9.73-1.9,15.12-20.4,4.34-20.33-9.49.07-16.76,3.94-15.62,8.76S907.12,469.05,910.66,468.36Z"/><path class="cls-33" d="M909.44,466.53c7-1.36,10.82-14.59,3.1-14.54-6.79.05-12,2.81-11.17,6.27S906.91,467,909.44,466.53Z"/><path class="cls-20" d="M927.06,471.62l8.6-1.61s-1.75-14.72-8.63-15.34C922.79,454.3,927.06,471.62,927.06,471.62Z"/><path class="cls-34" d="M927.71,471.62l6.75-1.26s-2.12-11.31-5.37-12.06S927.71,471.62,927.71,471.62Z"/><path class="cls-33" d="M927.83,471.1,932,470s-1.31-9.76-3.32-10.41S927.83,471.1,927.83,471.1Z"/><polygon class="cls-33" points="917.5 484.74 948.09 478.02 949.2 480.26 917.5 484.74"/><polygon class="cls-33" points="932.48 478.98 933.91 481.7 940.12 480.74 937.73 477.54 932.48 478.98"/><polygon class="cls-33" points="943.47 476.9 944.18 479.74 947.29 479.3 946.1 475.9 943.47 476.9"/><path class="cls-31" d="M876.89,443.76c14.17,1.6,25.16,19.05,22,29.3s-11.79,17.77-22.14,12.48S867.44,442.69,876.89,443.76Z"/><path class="cls-35" d="M876.79,446.75c12.85,1.45,22.82,17.27,19.93,26.56S886,489.43,876.65,484.64,868.23,445.78,876.79,446.75Z"/><path class="cls-29" d="M810.67,587.41c-13.09,9.8-27.71,66.13-28.47,67.05l55.6.31S851.64,556.71,810.67,587.41Z"/><path class="cls-30" d="M817.34,583.31a113.51,113.51,0,0,1-1.52,19.44c-4,24.6-14.7,43.32-23.81,41.81-2.13-.35-4-1.81-5.51-4.09-2.47,8-4.07,13.7-4.3,14l55.6.31S850,568,817.34,583.31Z"/><path class="cls-29" d="M1080.41,630.36c14.61,3.55,19.9,24,20.66,24.3l-72.29.11S1034.67,619.24,1080.41,630.36Z"/><path class="cls-30" d="M1081.88,643.24c-17.94,0-33.76-1.74-33.76-8.64a6.23,6.23,0,0,1,1.92-4.2c-18.26,6.35-21.26,24.37-21.26,24.37l72.29-.11c-.4-.18-2.09-5.95-5.72-11.88C1091.32,643.11,1086.79,643.24,1081.88,643.24Z"/><polygon class="cls-21" points="1031.55 506.84 830.63 527.08 819.07 661.18 1044.61 661.18 1031.55 506.84"/><polygon class="cls-36" points="1008.21 506.84 914.1 527.08 846.73 661.18 941.78 661.18 1008.21 506.84"/><polygon class="cls-23" points="1037.09 572.27 1031.55 506.84 830.63 527.08 824.98 592.7 1037.09 572.27"/><path class="cls-37" d="M1052.81,497a12.5,12.5,0,0,0-12.44-13.21h-220a12.33,12.33,0,0,0-8.78,3.69,12.47,12.47,0,0,0-3.57,8.86l.68,62.12,241.4-12.21Z"/><path class="cls-38" d="M938.26,536.63c-51.12,5.68-97.64,4.1-129.8-3l.27,24.8,241.4-12.21,1.95-35.76C1022.78,522.11,982.83,531.68,938.26,536.63Z"/><path class="cls-39" d="M1026.67,490.46a10.67,10.67,0,0,0-6.48-2.22H829.74a10.62,10.62,0,0,0-7.6,3.19,10.76,10.76,0,0,0-3.09,7.67l.11,9.82a609,609,0,0,0,69,3.71C954.27,512.63,1009.92,503.24,1026.67,490.46Z"/><rect class="cls-40" x="4.07" y="657.69" width="1953.03" height="365.58"/><rect class="cls-41" x="269.68" y="657.69" width="1480.4" height="365.58"/><rect class="cls-42" x="476.7" y="768.57" width="1132.76" height="146.47"/><rect class="cls-40" x="4.07" y="657.69" width="1953.03" height="65.92"/><rect class="cls-43" x="4.07" y="643.71" width="1953.03" height="43.95"/><path class="cls-44" d="M799.28,168.3c3.83-6.9,10.1-20.18,20.17-22.92,15.42-4.2,15.12-26,14.75-33.69-.49-10.29-11.07-4.14-16.12-.13s-18.78-5.77-21.14-4.91c-8.28,3-5.31,37.1-23.17,45.87Z"/><path class="cls-45" d="M788.14,133.15c-1.48-3.4,5.16-24.49,8.29-28.46s7.06-15.31,8.3-17.91,9.51.3,9,2.83-5.85,16.67-5.68,19.88C809.59,137.3,789.67,136.65,788.14,133.15Z"/><path class="cls-44" d="M813.83,113.71c6.11-4.24,14.79-8.29,15.47-10.47s2.69-17.51,4.27-18.36,8.7-.9,8.84,2-2.6,18.92-4.61,22-10,7.95-11.16,8.52S811.68,115.2,813.83,113.71Z"/><path class="cls-45" d="M833,128.76c5.65-5.08,10.4-14.52,8.86-18.47s-12.8-14.92-16.79-12.68-6.82,8.76-4.35,11.08,9.34,6.42,9.34,6.42S827.58,133.64,833,128.76Z"/><path class="cls-45" d="M825.16,142.17c5.65-5.08,9-13,7.44-16.93s-12.52-15.68-16.51-13.45-5.68,8-3.21,10.3,9.34,6.43,9.34,6.43S819.73,147.05,825.16,142.17Z"/><path class="cls-45" d="M452.21,471.63l-23.86-20.81c6.08-3.69,15-13.4,16.81-16.56l23.41,13.31S455.52,460.39,452.21,471.63Z"/><path class="cls-45" d="M459.21,457.79c-.27,2.27-4.5,10.26-5.59,15.1-1.26,5.56-5.18,24.43-7.13,25.75-2.82,1.92-5.33,1.37-6.45.08s6.25-19.64-1.11-19c-4.48.37-9.7,8.71-11.85,9.06-4.71.78-11.43-16-12.54-20.77s8.95-16.69,20.49-20.09C439.27,446.63,459.21,457.79,459.21,457.79Z"/><path class="cls-45" d="M436.35,480.3c-4.33,4.18-10.48,9.68-11.42,11.43s-6.15,11.94-7.56,12.42-6.54.81-6.12-1.7,6.33-13.69,8.47-16,8.52-10,9.56-10.28S438.77,478,436.35,480.3Z"/><path class="cls-45" d="M429.16,472.82c-4.81,3.72-11.59,8.58-12.74,10.23s-7.58,11.27-9,11.6-6.59.15-5.87-2.31,8-13,10.38-15,9.69-9.08,10.75-9.27S431.85,470.73,429.16,472.82Z"/><path class="cls-45" d="M429.42,459.5c-5.14,3.32-12.35,7.59-13.65,9.14s-8.64,10.62-10.12,10.84-6.54-.43-5.57-2.82,9.21-12.32,11.79-14.16,10.51-8.25,11.58-8.35S432.29,457.65,429.42,459.5Z"/><polygon class="cls-46" points="781.53 130.13 775.55 138.7 806.64 171.38 810.83 157.63 781.53 130.13"/><path class="cls-47" d="M774.55,135.11s-78.91,90.88-100,102l49,106.42c8.77-42.65,76.52-152.26,86.89-174.58Z"/><path class="cls-48" d="M792,151.58c-16.18,30.51-70.18,119.88-82.14,162.27l13.69,29.72c8.77-42.65,76.52-152.26,86.89-174.58Z"/><polygon class="cls-46" points="467.65 465.53 477.81 452.58 442.54 424.28 436.16 435.04 467.65 465.53"/><polygon class="cls-47" points="542.57 454.37 526.04 548.74 559.92 473.51 542.57 454.37"/><path class="cls-49" d="M544.28,483.47C535.61,514.56,526,548.74,526,548.74l97.72-84.13-38.83-31.06Z"/><path class="cls-49" d="M722.34,447.6c-2,20.72-100.44,106.82-100.44,106.82l9.57-91.68,90.07-38.26Z"/><path class="cls-50" d="M632.22,169.46c-2.26-5.65-8.33-7.23-8.33-7.23s6.26-6.7-.8-14.1-8.09-3.49-8.09-3.49,2.77-13.41-13.63-16-10.1,15.73-10.1,15.73-3.79-1.56-9.78-.45-2.84,8.67-2.84,8.67c-6,.5-11.58,7.46-5.53,13.6l-.15,9,54.07,5S634.49,175.1,632.22,169.46Z"/><path class="cls-51" d="M632.22,169.46c-2.26-5.65-8.33-7.23-8.33-7.23a10.48,10.48,0,0,0,2.47-7.83c-7.8,11.3-38.56-4.07-34-23.89-4.27,4.35-1.05,13.82-1.05,13.82A14.58,14.58,0,0,0,581,142.45c-6,1.12-3.84,9.24-3.84,9.24-6,.5-12.08,8.45-6,14.59l-.06,9.94,56,3.9S634.49,175.1,632.22,169.46Z"/><path class="cls-51" d="M564,169.85a23.6,23.6,0,0,0-7.22,13.31s-8.23-.59-9,5.61,4.88,8.6,4.88,8.6S544,204.44,544,214.59s10.38,26.12,23.94,22.06c0,0,1.73,12.27,19.22,1.25s-5.65-62.08-5.65-62.08l-3.79-9.2s-3.71-6.5-9.35-3.93S564,169.85,564,169.85Z"/><path class="cls-45" d="M589.32,236.74c-17.36-9.42-42.94-54.65-13.91-70.17s39.39-7.66,50.45,2.48,36.17,41.19,32.67,53.61S615.26,250.81,589.32,236.74Z"/><path class="cls-44" d="M593.11,231.16c-14.27-7.74-34.05-39.64-24.57-59.39-17.35,18.64,5.07,56.44,20.78,65,25.9,14,65.58-1.61,69.19-14C647.3,233.51,615.19,243.14,593.11,231.16Z"/><path class="cls-46" d="M584.43,308.89c-.4,1.2,0,87.48,0,87.48l136.32-6.17s-5.58-72.54-15.15-95.66C673.58,287.6,584.43,308.89,584.43,308.89Z"/><path class="cls-52" d="M720.75,390.2c-36.52-8.39-70-6.18-136.32,6.17-18.33,80.95-67,232.18-67,232.18h3.19L637.84,478.87l19.93-3.09,28.7,152.77h3.19S725.53,485,720.75,390.2Z"/><path class="cls-53" d="M611.74,428.87c15.14-24.81,68-62.11,68-62.11l12.81,28,10.85-8.35-20.73-34.48-43,19.33L622.3,402.76Z"/><path class="cls-53" d="M718.46,461.77c2.31-24.88,3.4-49.54,2.29-71.57A192.75,192.75,0,0,0,689,385.58Z"/><path class="cls-53" d="M634.39,388.24c-14.5,1.87-30.86,4.58-50,8.13-18.33,80.95-67,232.18-67,232.18h2.82Z"/><polygon class="cls-53" points="670.73 469.72 637.25 471.51 609.26 515.38 637.84 478.87 657.77 475.78 686.47 628.55 688.43 628.55 670.73 469.72"/><path class="cls-47" d="M534.29,519.23c22.34-46.64,89-131.36,147-157.66,0,0,32.89,42.18,40.6,88,0,0,12-109.6-1-148.26s-37.36-67-37.36-67-108.82-4.58-134.82,32.28c-11,15.55,11.89,79.51,7.71,102.84C552.59,390.92,535.38,494,534.29,519.23Z"/><path class="cls-48" d="M545.71,280.23c-.22,24.91,14.09,70.38,10.71,89.25-3.83,21.44-21,124.54-22.13,149.75,12.29-25.65,38-62.82,68.27-95.46,0-.33,0-.65,0-1C598,340,557.33,284.58,545.71,280.23Z"/><path class="cls-47" d="M474.82,462,439,425.68s83.86-145.86,116.86-166.6c27.83,10.35,39,61.78,15.87,93.26C571.68,352.34,513.49,408.14,474.82,462Z"/><path class="cls-48" d="M465.32,452.34l9.5,9.61c38.67-53.81,98.85-109.41,98.85-109.41,5.93-8.06,13.22-28.22,15-37.87C570.79,331.79,499.72,406.17,465.32,452.34Z"/><path class="cls-46" d="M584.18,244.92c28-4.38,72.65,22.87,86.1,47.08,0,0,6.13-33.38-7.62-57.72C628.28,231.77,584.18,244.92,584.18,244.92Z"/><path class="cls-54" d="M662.66,234.28h-.24c10.09,23,5.76,50.41,5.76,50.41-13.35-19.92-50.66-39.84-78.38-41.31-3.56.94-5.62,1.55-5.62,1.55,28-4.38,73.39,26.61,86.84,50.82C671,295.74,676.41,258.62,662.66,234.28Z"/><path class="cls-46" d="M584.18,244.92s-3.44-9,.51-11.61c10.41,1.75,52.6,1.8,60.18-.2s12.63-9,14-12c2.31,1.47,4.74,6.34,3.84,13.19L645,240.94Z"/><path class="cls-50" d="M559.49,188.17c1.71-13,11.82-13.79,16.08-4.93s.58,24.23.58,24.23,8.75,7.82,10.93,13.8c1.34,3.65-2.13,6.63-4.66,6.67C570.88,228.14,557.27,205,559.49,188.17Z"/><path class="cls-51" d="M587.08,221.27c-2.18-6-10.93-13.8-10.93-13.8s2.62-11,.85-19.76c1,9.43-1.62,17.29-6.07,17.95-4.74.7-9.8-7-11.32-17.27l-.06-.53-.06.31c-4,18.94,11.39,40,22.93,39.77C585,227.9,588.42,224.92,587.08,221.27Z"/><path class="cls-45" d="M576.55,218.32c-7.62-2.49-17.23,7.14-12.49,11.64s19.55,5.28,21.06,2.95S580.36,219.56,576.55,218.32Z"/><polygon class="cls-54" points="645.41 241.93 642.83 252.1 613.29 249.61 621.1 253.49 645.41 257.88 649.2 240.74 653.59 239.14 666.67 243.08 663.95 234.16 652.33 236.26 645.41 241.93"/><path class="cls-55" d="M575.33,222.09c-4.34-.81-8.92,5.13-6,7.26s11.08,1.5,11.74.12S577.5,222.5,575.33,222.09Z"/><path class="cls-45" d="M580.21,224.88c-3-1.19-7.06,2.38-5.29,4.3s7.65,2.63,8.31,1.75S581.69,225.48,580.21,224.88Z"/><path class="cls-56" d="M686.26,343.18c-.18-3.19-1.84-5.69-3.71-5.58s-3.23,2.78-3,6,1.84,5.69,3.71,5.58S686.44,346.37,686.26,343.18Z"/><path class="cls-56" d="M683.45,313.84c-.41-3.17-2.25-5.54-4.11-5.3s-3,3-2.61,6.17,2.25,5.54,4.11,5.3S683.86,317,683.45,313.84Z"/><path class="cls-53" d="M614.82,469.32c15.25,3,55.68,3.91,55.68,3.91l22.65-9.29-42.45,6.28Z"/><rect class="cls-56" x="669.13" y="389.01" width="11.76" height="7.57"/><path class="cls-54" d="M705.2,648.88H690.85l-8.52-20.54s2.35-9.55,7.53-7.76S694,642.9,694,642.9Z"/><path class="cls-54" d="M497.19,648.88h14.22l14.23-17.54s-.35-12.55-5.95-10.76-9.9,22.32-9.9,22.32Z"/><path class="cls-54" d="M646.11,297.83c-4.94,1.19-16.54,5.18-17.33,4.59s-.8-14.15,1.39-15.95S648.6,297.24,646.11,297.83Z"/><path class="cls-18" d="M659.54,221.68a6.23,6.23,0,0,0-.72-.59c-1.32,3.06-6.38,10-14,12s-49.77,1.95-60.18.2c-4,2.64-.51,11.61-.51,11.61h0c-12.72,3.79-22.39,9.17-32.63,17.27C554.18,262.45,641,254.34,659.54,221.68Z"/><path class="cls-57" d="M650.13,243c-2.22-.48-1.83-7.74.47-9s6.62,2.93,7.45,4.74S653.85,243.81,650.13,243Z"/><path class="cls-57" d="M651,240.13c-7.37,7.76-11.5,14.17-14.47,13.73s-3-6.73-3.84-9.43-4.87-5.56-2.4-7.61,20.48,1.32,20.48,1.32Z"/><path class="cls-57" d="M652.73,236.68c6-8.09,9.17-14.67,12-14.38s3.62,6.52,4.67,9.16,5.21,5.27,3.12,7.43-19.36-.24-19.36-.24Z"/><path class="cls-58" d="M646.26,240.59c-1.12-2.81-7.09-3.17-14.13-1.12.65,1.38,2.14,2.89,2.57,4.35.53,1.83.7,5.46,1.88,7.34C643.2,247.82,647.38,243.43,646.26,240.59Z"/><path class="cls-58" d="M651.5,241.4c-1.55-.33-1.27-5.39.32-6.3s4.62,2,5.2,3.3S654.09,242,651.5,241.4Z"/><path class="cls-58" d="M670.44,235.31a22,22,0,0,1-2.43-3.47c-.55-1.36-1-3.86-1.83-5.64-5.74,2.19-9.45,6.5-8.74,8.69s6.47,2.54,12.78.49Z"/><path class="cls-50" d="M607.75,120.27s5.78,5,1.89,17.93l4.59,8.27C617.22,140.4,617.61,125.15,607.75,120.27Z"/><path class="cls-46" d="M781.39,163.55a3.69,3.69,0,1,0,4.78-2.07A3.69,3.69,0,0,0,781.39,163.55Z"/><path class="cls-46" d="M775.71,175a3.69,3.69,0,1,0,4.78-2.07A3.69,3.69,0,0,0,775.71,175Z"/><path class="cls-46" d="M480.79,426a3.69,3.69,0,1,0,5-1.37A3.69,3.69,0,0,0,480.79,426Z"/><path class="cls-46" d="M473.53,436.57a3.69,3.69,0,1,0,5-1.37A3.69,3.69,0,0,0,473.53,436.57Z"/><path class="cls-59" d="M642.38,209.17c-2.32-5.11-6.34-8.52-9-7.62s-2.87,5.78-.54,10.9,6.34,8.52,9,7.62S644.71,214.28,642.38,209.17Z"/><path class="cls-55" d="M601.84,190.17a26.22,26.22,0,0,1,5-2.79c-1.35-.94-4-.38-6.34,1.44-2.07,1.62-3.22,3.73-3,5.25A23.21,23.21,0,0,1,601.84,190.17Z"/><path class="cls-55" d="M621,175.82a26.86,26.86,0,0,1,5.64-1.18c-1-1.31-3.79-1.58-6.57-.53-2.47.94-4.18,2.62-4.44,4.14A23.55,23.55,0,0,1,621,175.82Z"/><path class="cls-60" d="M611.76,172.13c8.64-2.52,11.08-4.64,11.08-4.64l-1.51-3.85a72.84,72.84,0,0,0-10.75,1.63Z"/><path class="cls-60" d="M597.89,173.35a123.49,123.49,0,0,1-10,11.59l2.62,3.71A42.63,42.63,0,0,0,604,177Z"/><path class="cls-55" d="M616.91,181.53c5.29,3.1,16.8,9.39,17.85,10.46s-8.57,9.91-8.57,9.91l-10.6-18.06Z"/><path class="cls-45" d="M616,181.7c4.19,3.44,14.51,10.45,15.38,11.49s-7,9.21-7,9.21l-9.66-17.84Z"/><path class="cls-46" d="M637,205.17h.25c-1.36-1.85-3-2.81-4.26-2.24s-1.47,2.08-1.21,4A13,13,0,0,1,637,205.17Z"/><path class="cls-55" d="M632.3,219.45c2.39,2.39,8.27,4.28,11.06,2.29,0,0-1.89,2.73-6.47,1.69C633.8,222.73,632.3,219.45,632.3,219.45Z"/><path class="cls-61" d="M1197.59,211.48c-9.89,3.44-10.75-22.37-1.4-23.88,0,0-6.24-8.82,1.51-18.5s17.63-5.16,17.63-5.16-5.37-13.33,5-18.49,23,2.58,23,2.58-1.94-4.95,2.36-6.46a6.17,6.17,0,0,1,6.88,1.94s1.94-12,18.07-11.83,20,17.42,20,17.42,5.38-7.31,11.19,3.44-.86,16.78-.86,16.78,11.4,1.08,17.42,18.5-2.15,35.27-2.15,35.27,6,4.52,5.38,11.62S1311.26,248,1311.26,248s19.57,8.17,17,34.84c0,0,4.74-2.15,6.67,3.23s-1.93,13.77-1.93,13.77,8.6-1.29,6.88,4.3-25,19.23-36,10c0,0-46.73,24.22-67.16.13s-14.42-29.47-14.42-29.47-18.49.21-29.89-26.89S1197.59,211.48,1197.59,211.48Z"/><path class="cls-62" d="M1333,299.88s3.87-8.39,1.93-13.77-6.67-3.23-6.67-3.23c2.58-26.67-17-34.84-17-34.84s9.68-6.24,10.33-13.33-5.38-11.62-5.38-11.62,9.14-17.85,3.12-35.27c-8-23.1-35.15-30.35-43.45-22.8-9.46,8.6-18.68,26.38-25.59,18.93-.44.37-5,4.57-5.4,4.94-17.19,14.31-37.25,21-53.63,19.42,1.32,2.66,3.43,4.17,6.33,3.17,0,0-16.56,19.35-5.16,46.45s29.89,26.89,29.89,26.89-6,5.38,14.42,29.47,67.16-.13,67.16-.13c11,9.25,34.25-4.39,36-10S1333,299.88,1333,299.88Z"/><path class="cls-63" d="M1309.49,316.81c-74.85-43.12-41.44-103.23-76.3-92.64-15.87,4.82-28,29-32.35,48.13,10.32,12.64,21.48,12.52,21.48,12.52s-6,5.38,14.42,29.47,67.16-.13,67.16-.13A12.92,12.92,0,0,0,1309.49,316.81Z"/><path class="cls-45" d="M1195.87,293.85c-20.22-10.11-49.68-29.68-51.84-33.33s2.8-19.79,11.83-18.5,52.48,17.2,56.36,17.42S1195.87,293.85,1195.87,293.85Z"/><path class="cls-44" d="M1144.7,252c-1.23,3.56-1.53,7.05-.67,8.52,2.16,3.65,31.62,23.22,51.84,33.33,0,0,4.07-6.88,8.21-14.49C1182.25,271.45,1152.56,257.3,1144.7,252Z"/><path class="cls-64" d="M1189.06,649.39h208.56s-89.94-241.86-105.13-257-86-13.06-95.8,2.11C1172.94,431.12,1189.06,649.39,1189.06,649.39Z"/><path class="cls-45" d="M1230.93,646.33l1.27,0s2.24-156.09,15-229.07l-54.9-16.8S1205,557.94,1230.93,646.33Z"/><path class="cls-44" d="M1234.72,563.72c2.12-49,5.91-108.78,12.5-146.42l-54.9-16.8s4.2,51.95,12.68,112.92C1214.23,512.07,1225.73,532.61,1234.72,563.72Z"/><path class="cls-65" d="M1176,485.49c-1.26,15.06-9.61,57.38-11.71,75S1179,590,1179,590s2.94,29.68-15.81,41.05c-14.29,8.66-3.47,18.32-3.47,18.32h39.82c18.55-30.82-13-177.23.84-234,2.69-11,11.74-32.27-1.17-31C1177.71,386.55,1177.29,470.44,1176,485.49Z"/><path class="cls-66" d="M1200.34,415.38c1.82-7.47,6.54-19.62,5.4-26.28-26.75,48.84-8,189.1-15.46,196.19-5,4.75-12.8-1.23-25.41-15.68,3,12.5,14.09,20.41,14.09,20.41a54.24,54.24,0,0,1,.15,6.24c8.07,3.51,14.13,12.54,15.9,20,2.49,10.52-8.55,26-21.73,29.16a28.24,28.24,0,0,1-16.94-1.06,13.85,13.85,0,0,0,3.34,5h39.82C1218.05,618.57,1186.51,472.16,1200.34,415.38Z"/><path class="cls-65" d="M1193.22,434.73c30.17-19.35,76.7,214.66,76.7,214.66h149.64s-1.29-23.66-19.79-40c-14.77-13-34.28-82.16-38.89-104.53S1317.33,372.36,1290.51,359s-96.08,16.49-101.9,35.35S1193.22,434.73,1193.22,434.73Z"/><path class="cls-66" d="M1213.51,380.32c56.94-6.78,164.75,173.57,117.51,269.07h88.54s0-24.95-18.5-41.3c-14.77-13.05-32-81.3-36.57-103.67s-46-138.08-72.77-151.42-97.29,22.51-103.11,41.37c-.24.77-.41,1.55-.6,2.33C1194.67,388.17,1203,381.57,1213.51,380.32Z"/><path class="cls-67" d="M1193.66,386.12c5.74-18.26,2.48-53.06-2.06-78l76.1-7.29s-.26,33.86,6.68,48.82c-17.64,12.89-15.38,48.38-64.1,56.77C1203.1,402.9,1195.79,395.14,1193.66,386.12Z"/><path class="cls-68" d="M1267.7,300.86l-76.1,7.29c3.9,21.42,6.84,50.12,4,69.37,11.76-38.94,33.87-17,48.48,13.87,15.58-14,18.44-33,30.35-41.71C1267.44,334.72,1267.7,300.86,1267.7,300.86Z"/><path class="cls-69" d="M1236.68,649.39h-20.22s10.15-7.1,13.62-7.75S1236.68,649.39,1236.68,649.39Z"/><path class="cls-65" d="M1202.62,260.17c-16.59,13.58-38.59,56.89-32.26,69.63s80.15,23.23,88.3,8c2.21-4.13,25.92-69.44,4.09-76.83C1245.41,255.1,1209.78,254.31,1202.62,260.17Z"/><path class="cls-70" d="M1266.14,262.3a6.43,6.43,0,0,0-5.72.2c-8.52,4.58-17.39,50.27-25.14,63.29-6.45,10.86-40.26,11.46-64.39,4.81,8.95,12.37,80.62,23.33,88.59,8.42C1263.56,331.4,1280.86,269,1266.14,262.3Z"/><path class="cls-55" d="M1269.6,294c1.65-16.67-.76-30.55-5.37-31s-9.68,12.69-11.32,29.35.76,30.55,5.37,31S1268,310.7,1269.6,294Z"/><path class="cls-45" d="M1212.57,258c-13.12,10.14-20.23,32.7-12.4,52.57,0,0,38.51-14.71,49.26-52C1235.77,256.37,1220.6,256,1212.57,258Z"/><path class="cls-55" d="M1201.76,308.78c-7.15-18.13-1-39,10.08-50.21-12.68,10.42-20.35,33.09-12.66,52.58a100.69,100.69,0,0,0,29.55-19.52A100.5,100.5,0,0,1,1201.76,308.78Z"/><path class="cls-45" d="M1171.39,257.52c3.06-5.95,6.7-65.82,6.7-65.82l-6.8-3.91s-27.88,51.75-30.28,62.57C1136.78,269.42,1169,262.17,1171.39,257.52Z"/><path class="cls-44" d="M1178.08,191.82l-2.08,7.75c0,10.94-2,33.12-2.82,51.61C1175.7,231.79,1178.08,191.82,1178.08,191.82Z"/><path class="cls-45" d="M1254,299c7.46,16.08,42.69,39.09,46.58,42.17s53.56,45.64,53.56,45.64l7.13-3.5s-40.61-65.19-48.38-73.6S1271,265.67,1264.84,263,1250.09,290.6,1254,299Z"/><path class="cls-44" d="M1297.93,329.42c-3.87-3.4-34.64-26.34-44.47-42.45-.68,5-1.12,11.13,0,13.66,7.47,16.08,42.73,38.87,46.62,41.94s54,44.26,54,44.26S1301.44,332.51,1297.93,329.42Z"/><path class="cls-45" d="M1248.15,260.17l1.54-28-24.88,1-9.87,26S1232.78,264.9,1248.15,260.17Z"/><path class="cls-66" d="M1216.42,456.82c26.3,55.75,53.5,192.57,53.5,192.57h91.34L1345.14,578s3.44,71.41-40,62.37C1270.37,633.12,1243.59,508.84,1216.42,456.82Z"/><path class="cls-66" d="M1277.47,405.67l-25.41-13.37c66.08,65.62,77.75,199.62,77.75,199.62C1331.44,549.68,1319.81,466.37,1277.47,405.67Z"/><path class="cls-71" d="M1273.52,347.66c-16.64,13.46-15.74,46.68-63.56,54.92a33.09,33.09,0,0,1-15.89-18c-.14.5-.25,1-.41,1.51,2.13,9,8.95,18.23,16.14,21.78,48.71-8.39,47.84-44.88,65.49-57.78C1274.84,349.15,1273.91,348.77,1273.52,347.66Z"/><path class="cls-72" d="M1273.52,347.66c-11.27,9.11-14.51,27.29-30.28,40.64a24.68,24.68,0,0,1,1.94,3.13c14.91-14.18,18.52-32.84,30.11-41.31C1274.84,349.15,1273.91,348.77,1273.52,347.66Z"/><path class="cls-55" d="M1199.47,309.74l4.84-1.37c1.78-9.19,4.36-17.58,4.36-17.58C1202.21,298.85,1199.47,309.74,1199.47,309.74Z"/><path class="cls-18" d="M1203.5,287.08c26.78,20,49.69-24,60.5-25.65-4.36-1.77-10.66-3-15.71-3.7l1.4-25.55-24.88,1-8.89,23.44a50.86,50.86,0,0,0-8.76,1.5C1204,257.15,1194.55,280.39,1203.5,287.08Z"/><path class="cls-45" d="M1212,251.32c-8.47-11.67-17.18-49.74,16.49-75.55,25-19.19,40.17,32.17,35.38,44.2C1248.72,257.94,1212,251.32,1212,251.32Z"/><path class="cls-62" d="M1253.19,239c-5.49-25.81,2.26-54.53-15.92-62-5.15-2.14-9.52-7.26-8-9.79,4.55-7.34,33.81-9.65,40.66,14.41C1280.61,219,1253.19,239,1253.19,239Z"/><path class="cls-45" d="M1250.27,234.27c10.8-.47,19.57-7.67,17.38-12.43s-11.94-3.74-15.24,1.52A16.24,16.24,0,0,0,1250.27,234.27Z"/><path class="cls-55" d="M1253.59,231.17c6.56-.29,11.88-4.66,10.56-7.55s-7.26-2.27-9.26.92A9.84,9.84,0,0,0,1253.59,231.17Z"/><path class="cls-45" d="M1252.84,231.55c4-.18,7.26-2.85,6.45-4.62s-4.43-1.38-5.65.57A6,6,0,0,0,1252.84,231.55Z"/><path class="cls-61" d="M1251.12,159.09c-11-2.84-21.38-.88-23.24,4.38s5.52,11.83,16.5,14.67,21.38.88,23.24-4.38S1262.09,161.93,1251.12,159.09Z"/><path class="cls-61" d="M1278.35,160.13c-6.61,6.61-3.87,22.09,2.42,28.55,0,0-13.46-7-12.09-22.1C1269.16,161.25,1278.35,160.13,1278.35,160.13Z"/><path class="cls-55" d="M1212.14,204.56s5-2.29,9-.82c0,0-.76-2.13-3.89-2.21S1212.14,204.56,1212.14,204.56Z"/><path class="cls-55" d="M1240.31,210.61s-4-4.5-8.59-5c0,0,1.63-1.62,4.73-.27S1240.31,210.61,1240.31,210.61Z"/><path class="cls-61" d="M1211.44,196.88l-.21-.66c3.26-3.26,9.2-4,11.89-3.57l-.12,1.79C1220.92,193.84,1214.9,194.3,1211.44,196.88Z"/><path class="cls-61" d="M1242.68,203.48c-3.17-4.46-10.22-7.47-12-7.91l.57-1.81a25.47,25.47,0,0,1,12,9.23Z"/><path class="cls-55" d="M1224.84,221.71c-.08,0-.11.12-.19.17a4.34,4.34,0,0,1-5.27-1,3.09,3.09,0,0,1-.76-2.85,2.82,2.82,0,0,0-.2,4.28,4.33,4.33,0,0,0,5.26,1A2.69,2.69,0,0,0,1224.84,221.71Z"/><path class="cls-73" d="M1221.72,233.4c.26-3.86-1.21-7.09-3.28-7.23s-3.94,2.88-4.2,6.73,1.21,7.1,3.28,7.24S1221.47,237.26,1221.72,233.4Z"/><path class="cls-74" d="M1218.07,229.45a6,6,0,0,1,2.48.55c-.19-1.61-.91-2.82-1.87-2.88s-1.81,1-2.22,2.57A6.08,6.08,0,0,1,1218.07,229.45Z"/><path class="cls-45" d="M1177.13,195c2.68-5.4,2.48-8.63,1.53-9.9s-4.1-6.68-6.35-6.64-10.56,5.54-8.81,7.63,8.9,5.12,10.2,11.87C1174.7,203.15,1177.13,195,1177.13,195Z"/><path class="cls-45" d="M1175.69,181.79c-2.27-3.7-8-14.94-9.59-15.17s5.06,15.75,5.06,15.75Z"/><path class="cls-45" d="M1178.58,189.86c1.13-5.72,6.81-13.83,6-14.93s-9.26,11.29-9.26,11.29Z"/><path class="cls-45" d="M1171.2,182.56c-3.35-3-12.59-12.5-14.42-12.37s9.55,14,9.55,14Z"/><path class="cls-45" d="M1171.5,185.34c-4.22-1.37-16.76-6.54-18.7-5.79s14.17,8.84,14.17,8.84Z"/><path class="cls-45" d="M1351.15,377.88c.07,6.84,1.94,10,3.55,10.79s7.58,4.63,9.83,3.43,7.81-11,5-12.24-11.62-.6-16.42-6.74C1349.41,368.43,1351.15,377.88,1351.15,377.88Z"/><path class="cls-45" d="M1359.42,390.5c4.2,2.58,15.83,10.94,17.5,10.38s-13.22-13.3-13.22-13.3Z"/><path class="cls-45" d="M1352.34,383.85c1.81,6.35.26,17.47,1.65,18.16s3.54-16.17,3.54-16.17Z"/><path class="cls-45" d="M1363.56,387.42c4.91,1.26,19.16,6.13,20.94,5.06s-16.85-9.2-16.85-9.2Z"/><path class="cls-45" d="M1361.82,384.76c5-.79,20.3-2,21.87-3.79s-18.86-1.62-18.86-1.62Z"/><g class="cls-75"><path class="cls-76" d="M104.89,1100.43c1.51-4.39,2.36-7.68,2.41-9.56.14-6.13-5.73-12.1-13.68-16.55h0c-.67-.38-1.37-.75-2.07-1.1l-.17-.09c-.67-.34-1.35-.66-2-1l-.17-.08a64.79,64.79,0,0,0-9.23-3.34l-.34-.09q-1-.26-1.92-.48l-.52-.12-.15,0v-.09l-.94-.12-.67-.12-.56-.11c-.59-.11-1.18-.2-1.77-.29l-.13,0a1.3,1.3,0,0,0,0-.21c.77-3.86,1.79-10.93,2.88-19.87,18.26,8.11,38.08,16.21,42.92,15.46.78-.12,1.53-.27,2.25-.44l.65-.19c.49-.13,1-.25,1.43-.4l.67-.26c.43-.15.86-.3,1.26-.47l.63-.31c.39-.18.78-.36,1.15-.56.21-.11.39-.24.59-.35.35-.21.71-.41,1-.63l.55-.4c.32-.23.64-.46.94-.7l.5-.44c.28-.25.58-.5.84-.76s.3-.32.46-.48.52-.53.76-.81l.41-.52c.23-.28.46-.56.67-.86s.24-.36.37-.55.4-.59.59-.9.21-.39.32-.59.35-.61.51-.92.2-.43.3-.64.29-.62.42-.94.17-.45.26-.68.24-.62.34-.93.16-.5.23-.75.19-.6.27-.9.13-.54.19-.81.14-.58.2-.87.1-.57.15-.86.1-.56.14-.84.07-.61.11-.92.06-.52.08-.78.05-.67.07-1,0-.45,0-.68,0-.55,0-.82a9.56,9.56,0,0,0,.06-3.88c-.08-.46-.19-1-.32-1.54,0-.19-.09-.4-.14-.6-.08-.38-.17-.75-.27-1.17l0-.14c-.09-.46-.2-.91-.31-1.36l0-.14c-.1-.38-.21-.75-.32-1.12l-.13-.49c-.11-.44-.23-.88-.36-1.34s-.21-.81-.33-1.23-.26-1-.4-1.44-.26-.89-.39-1.36-.3-1-.46-1.57l-.43-1.45c-.18-.62-.38-1.27-.58-1.92-.14-.44-.26-.86-.4-1.31h0c-8.6-27.65-27.43-75.54-53.63-97.53h0l-.14-.11c-.83-.69-1.67-1.37-2.52-2a1.66,1.66,0,0,0-.24-.34,3.88,3.88,0,0,0-.46-.37l-.23-.17-.35-.22c-.29-.18-.63-.37-1-.57l-.28-.21a4.45,4.45,0,0,0-.87-.44,4.11,4.11,0,0,0-.56-.19h0c-.49-.23-1-.46-1.58-.7l-.21-.09-.9-.38c-1.15-4.93-4.45-8.49-8.35-8.49H49.67l-5.3-5.26-.82.45-.9-7.72c2.38-1.67,4.07-3.12,4.57-4,.68-1.25,1.88-10.28,2.87-22.09C63,862.73,70.28,852,66.67,844.51c-2-4.08-5.39-5.68-8.74-5.32.07-.35.15-.69.23-1,.28-1.29.55-2.55.79-3.78l.12-.59c.27-1.43.52-2.82.74-4.17l.15-1c.16-1,.31-2,.43-3,.06-.39.11-.77.15-1.15.12-.93.22-1.84.31-2.73l.09-.94c.22-2.35.34-4.55.39-6.61,0-.28,0-.55,0-.83,0-.75,0-1.49,0-2.2,0-.29,0-.57,0-.85,0-.76,0-1.49-.09-2.2,0-.17,0-.36,0-.53q-.09-1.32-.21-2.55c0-.14,0-.27,0-.4-.07-.67-.15-1.31-.24-1.94,0-.22-.07-.44-.11-.66-.08-.53-.17-1.05-.26-1.55l-.12-.6c-.12-.59-.25-1.15-.38-1.7,0-.07,0-.15-.05-.23q-.24-.91-.48-1.74l-.15-.48c-.13-.38-.25-.76-.37-1.12-.07-.18-.13-.35-.19-.52-.13-.34-.25-.65-.38-1l-.18-.45c-.18-.42-.36-.82-.54-1.19l-.15-.31c-.14-.27-.27-.53-.41-.78l-.24-.43c-.1-.18-.2-.36-.31-.52a4.28,4.28,0,0,0-.26-.42l-.26-.41a12,12,0,0,0-2.58-2.92c11-25.44-11.73-50.88-11.73-50.88s10.7,19.49-21.75,23.46c-22.57,2.75-32.61,18.12-36.63,27.23l-.1.22c-.21.47-.4.93-.57,1.36l-.07.18c-.39,1-.69,1.82-.93,2.54,0,.06,0,.12-.05.18-.11.32-.2.62-.28.89v0c-.09.29-.15.53-.21.73l0,.08c0,.16-.07.29-.1.38a.25.25,0,0,0,0,.08c0,.07,0,.12,0,.12s-4.15-6.6-9,5.95c-2.3,6,.1,23.72,4,41.05-3.54-.77-7.29.73-9.38,5.17-3.58,7.62,3.88,18.67,16.88,21.82l.48,1.32c.82,10.16,1.79,18,2.66,19.93a12,12,0,0,0,2.59,3L-12,898.86l-7.27,3.82.26.32-.26.16.13.18h0c-1.24.39-2.46.81-3.65,1.24l-.58.21h-.87A5.54,5.54,0,0,0-28.94,908c-11.51,4.4-21.41,9-23.89,11.16a5.36,5.36,0,0,0-2.25,1.37c-29.2,28.37-47.48,90-49.07,112.36,0,.68-.08,1.32-.09,1.93,0,.19,0,.37,0,.55,0,.43,0,.84,0,1.22,0,.17,0,.33,0,.49,0,.5.07,1,.12,1.4a8.51,8.51,0,0,0,2.56,4.86,13.34,13.34,0,0,0,2.42,1.89c.37.23.77.45,1.17.66,8.54,5.74,28.73,14.57,47.13,22.09,0,.32.11.63.17.93,0,.14,0,.27.07.4-15.32,2.85-32.55,12.84-32,23.32.34,6.62,10.92,30.55,24.77,59v114.83h3.68l10.55-86.18c1.07,2.11,2.13,4.21,3.21,6.32v79.86h3.68l7.19-58.76c7.22,13.86,14.18,26.94,20.16,37.88a94.32,94.32,0,0,0-.13,10.61l-14.62,6.92H-5.52L3,1246.59s-3.52-6.75-7-8.45c-1.19-11.59-3-29-5.37-48.19v-.11q-.37-3.1-.77-6.26v-.06c-.52-4.18-1.05-8.43-1.61-12.7,0-.13,0-.27,0-.4,0-.28-.07-.56-.11-.84H38.77c-3,28.06-5.26,54.88-6.46,69.82a32,32,0,0,0-4.57,7.19l7.43,16.61H51.45l-12.8-6.92s.38-9-.54-14.28c6.37-12.24,13.89-27,21.59-42.49l8.2,67h3.69v-91.24c.41-.85.81-1.69,1.22-2.53l.65.54,11.41,93.23h3.68v-93.8l43.92-49.23Zm-118.41,57.43c0-.2-.05-.4-.08-.59-.57-4.15-1.15-8.29-1.75-12.38,0-.2-.05-.39-.08-.58-.21-1.41-.41-2.8-.62-4.19H33.8l7.6,6.36c0,.14,0,.28,0,.42l-.45,3.73-.09.78c-.14,1.22-.29,2.45-.43,3.68,0,.31-.07.62-.1.93-.1.84-.2,1.67-.29,2.51H-13.43Z"/><path class="cls-76" d="M573.62,1100.43c1.5-4.39,2.36-7.68,2.4-9.56.15-6.13-5.72-12.1-13.67-16.55h0c-.68-.38-1.37-.75-2.08-1.1l-.17-.09c-.66-.34-1.34-.66-2-1l-.17-.08a64.79,64.79,0,0,0-9.23-3.34l-.35-.09c-.64-.17-1.27-.33-1.91-.48l-.52-.12-.15,0v-.09l-.94-.12-.67-.12-.56-.11c-.59-.11-1.18-.2-1.77-.29l-.13,0c0-.06,0-.14,0-.21.77-3.86,1.79-10.93,2.88-19.87,18.26,8.11,38.08,16.21,42.92,15.46.78-.12,1.52-.27,2.25-.44l.65-.19c.48-.13,1-.25,1.43-.4l.67-.26c.42-.15.86-.3,1.26-.47l.63-.31c.39-.18.78-.36,1.15-.56l.59-.35c.35-.21.71-.41,1-.63l.55-.4c.31-.23.64-.46.93-.7s.34-.29.51-.44.57-.5.84-.76.3-.32.45-.48.53-.53.77-.81l.41-.52c.22-.28.46-.56.67-.86s.24-.36.36-.55.41-.59.6-.9.21-.39.32-.59.35-.61.51-.92.2-.43.29-.64.3-.62.43-.94.17-.45.26-.68.24-.62.34-.93.15-.5.23-.75.19-.6.27-.9.12-.54.19-.81.14-.58.2-.87l.15-.86c0-.28.1-.56.14-.84s.07-.61.11-.92.06-.52.08-.78.05-.67.07-1,0-.45,0-.68,0-.55,0-.82a9.56,9.56,0,0,0,.06-3.88c-.09-.46-.2-1-.32-1.54,0-.19-.09-.4-.14-.6-.08-.38-.17-.75-.27-1.17l0-.14c-.09-.46-.2-.91-.31-1.36a1,1,0,0,0,0-.14c-.09-.38-.2-.75-.31-1.12l-.13-.49c-.11-.44-.23-.88-.36-1.34l-.33-1.23c-.13-.47-.27-1-.4-1.44s-.26-.89-.39-1.36-.31-1-.46-1.57l-.43-1.45c-.18-.62-.39-1.27-.58-1.92-.14-.44-.26-.86-.4-1.31h0c-8.6-27.65-27.43-75.54-53.64-97.53h0l-.14-.11c-.84-.69-1.67-1.37-2.52-2a1.36,1.36,0,0,0-.25-.34,3.07,3.07,0,0,0-.45-.37l-.23-.17-.35-.22c-.29-.18-.63-.37-1-.57l-.28-.21a4.45,4.45,0,0,0-.87-.44,4.11,4.11,0,0,0-.56-.19h0c-.49-.23-1-.46-1.58-.7l-.22-.09-.9-.38c-1.15-4.93-4.44-8.49-8.34-8.49H518.4l-5.3-5.26-.83.45-.9-7.72c2.39-1.67,4.08-3.12,4.58-4,.68-1.25,1.88-10.28,2.86-22.09C531.7,862.73,539,852,535.4,844.51c-2-4.08-5.39-5.68-8.75-5.32l.24-1c.28-1.29.54-2.55.79-3.78,0-.19.08-.4.12-.59.27-1.43.52-2.82.74-4.17l.15-1c.16-1,.3-2,.43-3l.15-1.15c.12-.93.22-1.84.31-2.73l.09-.94c.22-2.35.34-4.55.39-6.61,0-.28,0-.55,0-.83,0-.75,0-1.49,0-2.2,0-.29,0-.57,0-.85,0-.76,0-1.49-.09-2.2,0-.17,0-.36,0-.53q-.09-1.32-.21-2.55c0-.14,0-.27,0-.4-.07-.67-.15-1.31-.25-1.94,0-.22-.06-.44-.1-.66-.08-.53-.17-1.05-.27-1.55,0-.2-.07-.4-.11-.6-.12-.59-.25-1.15-.38-1.7a1.55,1.55,0,0,1-.05-.23c-.16-.61-.32-1.19-.49-1.74,0-.17-.1-.32-.15-.48-.12-.38-.24-.76-.37-1.12-.06-.18-.12-.35-.19-.52-.12-.34-.24-.65-.37-1l-.18-.45c-.18-.42-.36-.82-.54-1.19,0-.11-.1-.2-.16-.31-.13-.27-.26-.53-.4-.78l-.24-.43-.31-.52c-.09-.15-.17-.29-.26-.42l-.27-.41a11.84,11.84,0,0,0-2.57-2.92c11.05-25.44-11.74-50.88-11.74-50.88s10.7,19.49-21.75,23.46c-22.56,2.75-32.6,18.12-36.63,27.23l-.09.22c-.21.47-.4.93-.57,1.36l-.08.18c-.38,1-.68,1.82-.92,2.54a1.21,1.21,0,0,0-.05.18c-.11.32-.2.62-.28.89v0c-.09.29-.16.53-.21.73l0,.08c0,.16-.08.29-.1.38l0,.08a.58.58,0,0,1,0,.12s-4.14-6.6-9,5.95c-2.3,6,.1,23.72,4,41.05-3.53-.77-7.28.73-9.37,5.17-3.58,7.62,3.88,18.67,16.87,21.82l.48,1.32c.83,10.16,1.8,18,2.67,19.93a12,12,0,0,0,2.59,3l-1.08,8.29-7.28,3.82.27.32-.27.16.14.18h0c-1.25.39-2.46.81-3.65,1.24l-.58.21h-.88c-1.9,0-3.58,1.28-4.66,3.25-11.51,4.4-21.41,9-23.9,11.16a5.39,5.39,0,0,0-2.24,1.37c-29.2,28.37-47.48,90-49.07,112.36-.05.68-.08,1.32-.1,1.93v.55c0,.43,0,.84,0,1.22,0,.17,0,.33,0,.49,0,.5.06,1,.12,1.4a8.51,8.51,0,0,0,2.56,4.86,13.34,13.34,0,0,0,2.42,1.89q.56.35,1.17.66c8.53,5.74,28.73,14.57,47.12,22.09.06.32.12.63.17.93,0,.14.06.27.08.4-15.32,2.85-32.56,12.84-32,23.32.34,6.62,10.92,30.55,24.77,59v114.83h3.68l10.55-86.18c1.06,2.11,2.13,4.21,3.2,6.32v79.86H432l7.19-58.76c7.22,13.86,14.18,26.94,20.16,37.88a95.6,95.6,0,0,0-.14,10.61l-14.62,6.92h18.6l8.48-16.61s-3.52-6.75-7-8.45c-1.19-11.59-3-29-5.36-48.19l0-.11c-.24-2.07-.5-4.16-.76-6.26v-.06c-.51-4.18-1-8.43-1.6-12.7,0-.13,0-.27-.05-.4,0-.28-.07-.56-.11-.84H507.5c-3,28.06-5.27,54.88-6.46,69.82a32,32,0,0,0-4.57,7.19l7.43,16.61h16.28l-12.8-6.92s.38-9-.54-14.28c6.37-12.24,13.89-27,21.59-42.49l8.2,67h3.69v-91.24c.4-.85.81-1.69,1.22-2.53l.65.54,11.41,93.23h3.68v-93.8l43.92-49.23Zm-118.41,57.43c0-.2,0-.4-.08-.59-.57-4.15-1.15-8.29-1.75-12.38l-.08-.58c-.21-1.41-.41-2.8-.62-4.19h49.85l7.6,6.36c0,.14,0,.28-.05.42l-.45,3.73-.09.78c-.15,1.22-.29,2.45-.43,3.68,0,.31-.07.62-.11.93-.09.84-.19,1.67-.28,2.51H455.3Z"/><path class="cls-76" d="M1284.52,1077.42c-.25-1.8-2.11-3.67-4.85-5.46h0c-4.46-2.92-11.29-5.64-17.54-7.56h0c-.76-.24-1.51-.45-2.24-.66l-.17,0-2-.54-.12,0c-.67-.17-1.31-.33-1.94-.47l-.3-.07-1.64-.34-.16,0-.17,0c.27-2.4.6-5.28,1-8.57.27-2.49.58-5.22.9-8.13,8.23,1.09,16-1.15,19.68-10.81h0a31.11,31.11,0,0,0,1.59-6.17c5.52-27.45,4.16-98.6-11.65-118.67a1.91,1.91,0,0,0-.2-.38,10.55,10.55,0,0,0-1.58-1.6,13.74,13.74,0,0,0-2.25-1.81c-.14-.09-.27-.15-.41-.23-2.2-1.56-5.11-3.37-8.54-5.34v-4.63a12,12,0,0,0-12-12h-17.33l-4.91-2.1h0l-.37,1.16-2.47-1.17h0l-.16-.06-2.13-1h0l-4.8-7.51-3.06,2.09c.25-2.26.51-4.9.77-7.78l0-.32,0-.39c.32-.61.75-3.56,1.23-8l.62-1.87c5.17-3.74,17.17-16.11,17.64-22.25.35-4.54-4.24-7.69-8.87-8.2,12.3-52.58-6-52.72-6-52.72a32.86,32.86,0,0,0-.67-4.17h0c-1.74-7.91-7.82-24.43-28.46-25.82-24.11-1.63-47.55,26.23-52.62,32.65h0l0,0c-.54.68-.86,1.11-1,1.23l0,.06c-3.07.61-4.38,6-4.48,13.85a128.8,128.8,0,0,0,1.12,16.92c.67,5.49,1.62,11.25,2.75,16.9-5.37-.45-11.9,3.95-10.68,9.53s12.45,15,18.58,18.87c1.72,4.22,3.45,7.25,5.06,8.49.09.57.19,1.11.28,1.62.25,2.79.52,5.44.8,7.88l0,.11c.1.86.2,1.68.3,2.47l0,.2c.1.81.21,1.6.32,2.34l-3.67,5.74.85.82-.37.38h-1l-.53-1.5-2.18,1.5h-12.85a8.11,8.11,0,0,0-8.12,8.12V899c-9.89,5.79-17.59,11.09-20.27,14.09-.16.11-.31.22-.47.35-8.76,7.45-12.74,30.35-13.75,56l0,.89c0,.76-.06,1.52-.08,2.28l0,1c0,.74,0,1.48-.05,2.22,0,.34,0,.67,0,1l0,2.33c0,.3,0,.6,0,.9,0,1,0,2,0,3v.18c0,1.1,0,2.19,0,3.28,0,.23,0,.46,0,.69l0,2.53c0,.33,0,.67,0,1,0,.74,0,1.48.05,2.21,0,.37,0,.74,0,1.1l.06,2.18c0,.35,0,.7,0,1.05l.09,2.48,0,.68c0,1.06.09,2.13.14,3.19,0,.14,0,.28,0,.43,0,.89.09,1.78.14,2.66l.06,1c0,.7.08,1.4.13,2.09,0,.37,0,.74.07,1.12,0,.65.09,1.31.13,2,0,.37.05.73.08,1.1,0,.71.11,1.41.16,2.11,0,.29,0,.57.07.85.08,1,.16,2,.25,3v0c.09.95.17,1.9.27,2.84,0,.29,0,.57.08.86.07.65.13,1.29.2,1.93,0,.35.07.68.11,1,.06.59.12,1.17.19,1.75l.12,1,.21,1.75c0,.3.07.6.11.89l.27,2.11.06.45c.11.83.23,1.65.35,2.46,0,.24.07.47.1.71.09.56.17,1.12.26,1.66,0,.29.09.58.13.86l.24,1.44.15.87.24,1.36.15.8c.09.5.19,1,.29,1.47,0,.19.07.38.11.56.13.66.27,1.3.4,1.92,0,.14.06.27.1.4.1.48.21,1,.32,1.4l.15.6c.09.37.18.74.28,1.09s.11.41.16.61.18.66.28,1,.11.38.16.56c.1.33.2.64.3,1,0,.14.09.29.14.43.15.43.3.85.45,1.23a8.2,8.2,0,0,0,.77,1.54c.09.15.22.28.32.42a6.94,6.94,0,0,0,.67.83,6,6,0,0,0,.46.4,8.63,8.63,0,0,0,.73.6c.17.11.36.2.55.3a8.13,8.13,0,0,0,.83.43c.19.08.4.14.61.21s.61.21.94.29l.42.07,0,0c2,1.29,9.32.9,19.27-.44.05.22.09.44.13.65l-.83.17-.31.07-1.41.33-.44.11c-.59.14-1.19.3-1.8.46l-.12,0-1.77.5-.47.14c-.6.18-1.2.36-1.8.56l-.15,0-2,.66-.45.15-1.68.61-.34.12-2,.77-.33.13-1.64.69-.4.17c-.63.28-1.25.56-1.85.85l-.14.07c-.55.26-1.08.53-1.6.8l-.38.2c-4.41,2.35-7.6,4.94-7.79,7.39-.51,6.6,7.23,24.87,18.25,47.13v142.11h4.15l12.64-109.34h.18c1.25,2.34,2.51,4.67,3.77,7v102.33H1126l9.48-77.52c14,25.19,26.72,46.93,31.74,55.49-1.3,5-.82,15.11-.82,15.11l-14.62,6.92h18.6l8.48-16.61s-4.1-7.86-7.83-8.74c-2-12.43-7.23-43.86-12.46-74.57h0v0c-.12-.68-.24-1.36-.35-2l-.24-1.42-.27-1.55-.3-1.75c-.09-.52-.18-1-.26-1.55s-.13-.73-.19-1.09h59.34c-3.15,33.54-6.36,70.66-7.6,85.06-2.66,2.41-5.06,7.67-5.06,7.67l7.42,16.61h16.29l-12.8-6.92s.51-12.19-1.1-16.44c4.38-8.62,13-25.6,22.68-45.61l8.44,69h4.15v-95.28c1.1-2.32,2.18-4.64,3.27-7l11.82,102.25H1268V1128.67C1278.26,1104.57,1285.5,1084.45,1284.52,1077.42Zm-129.91,66.13c-.06-.33-.11-.66-.17-1-.1-.56-.19-1.11-.29-1.66s-.21-1.18-.31-1.76l-.45-2.62c0-.2-.08-.4-.11-.6-.13-.76-.27-1.52-.4-2.27l-.18-1c-.12-.66-.23-1.32-.35-2,0-.25-.09-.51-.13-.76s-.09-.47-.13-.71H1219l-.06.63c0,.45-.09.9-.14,1.35l0,.29c-.24,2.42-.49,4.91-.73,7.46l-.12,1.15c-.06.66-.12,1.32-.19,2,0,.37-.07.74-.11,1.11l-.15,1.6h-62.67Z"/><path class="cls-76" d="M350.89,897.26c.33-.61.42-1.13.19-1.45a.85.85,0,0,0-.48-.28,1.16,1.16,0,0,0-.14-.24c-.48-.5-2.1-.18-4.23.5l-3.58,1.27-.19.08a14.52,14.52,0,0,0-9.37,13.52v2.57c-1.55,3.91-4.69,11.83-8.3,21V916.61c0-6.82-3.94-12.34-8.79-12.34h-5.93q0-4.82-.33-9.71c-.1-1.63-.21-3.26-.34-4.89q-.37-4.68-.95-9.38a243.37,243.37,0,0,0-8.43-40.2c-.24-.8-.48-1.59-.73-2.37-4.65-14.89-10.59-28.46-17.36-39.33q-1.62-2.6-3.3-5a77.47,77.47,0,0,0-7.95-9.65l-.08-.08c-1.23-1.24-2.47-2.37-3.73-3.42a40.73,40.73,0,0,0-5.21-3.75l-1.85-1.08h0c-26.18-15-62-21.58-77.8,11.89-8.19,17.28-14.44,58.77.3,74.85,0,0-10.78,79.8,27.35,113.55-1.23,12.24-2.36,25.86-3.34,40.44-3.61,3.67-5.2,23.87-5,50.91-6.18,7.73-4.37,22.54,1.34,39.69l.12,2h-6.62V1266h3.68l11.87-97h1.89v97h3.68l11.87-97h3c11.94,21,22.36,36.56,22.36,36.56l13-6.58c9,12.46,17.41,24,23.71,32.56h0l2.61,3.56.56.76.69.93.42.58.75,1,.39.52.48.65,1.6,2.17c-2.17,6.07,10.91,19.83,21.38,24.76,0,0-.94-3.06-2.52-7.14,1.27,1,2.58,1.93,3.88,2.79l.47,3.84h3.69v-1.43c.35.18.71.36,1.06.52,0,0-.38-1.1-1.06-2.84v-93.23H327l11.87,97h3.68V1126.17h0v-14.79h0v-2.62H324.78v-9.09a56.91,56.91,0,0,0,5.34-16.19q.17-1,.27-2a38.24,38.24,0,0,0,.23-4.16,32.85,32.85,0,0,0-1.71-10.65,31.18,31.18,0,0,0-3-6.31c-.38-.62-.76-1.26-1.14-1.91V975c3.88-15.84,7.82-36.42,11.18-58.36,1.75-.53,4.06-1.26,6.24-2.06l3.19-1.29a8.37,8.37,0,0,0,3.15-2,6.54,6.54,0,0,0,.95-3.52,1,1,0,0,0,0-.79,7,7,0,0,0-.17-1.06,7.88,7.88,0,0,0,.78-3.15c.26-.53.33-1,.12-1.28,0,0-.09-.07-.13-.1a9.58,9.58,0,0,0-.15-1A11.27,11.27,0,0,0,350.89,897.26Zm-47.23,342a4.64,4.64,0,0,0-1.66,0c-4.61-9.31-13.29-26.78-23-46l2.72-1.38h0l2.25-1.14C292.39,1211.63,299.76,1229.72,303.66,1239.26Zm-86.41-212.11c1.74-8,3.54-16.39,5.28-24.56l1.25,0V1059q-4.49.63-9.44,1.83c1.64-10.6,2.95-19.86,3.3-24.33A37.62,37.62,0,0,0,217.25,1027.15Zm39.59-25.94c1.59,5.06,3,10,4.2,14.62l0,.12q.44,1.74.81,3.45h0c2.92,13.07,3.27,24-1.9,30.59-2.47,3.18-6.17,5.24-10.2,6.58v-54.83C252.11,1001.58,254.47,1001.4,256.84,1001.21Zm-13.37.92v55.95c-.88.15-1.74.27-2.6.37a68.21,68.21,0,0,0-10.48-.14v-55.66C234.2,1002.58,238.66,1002.4,243.47,1002.13Zm55.36-6.45c.67,1.15,1.3,2.22,1.9,3.21v2.45C300.08,999.44,299.45,997.56,298.83,995.68Zm.8-35.34.12-.25h1V963Zm-3.1,179.26h9.88l2.25,18.42h-10C298,1152.31,297.3,1146,296.53,1139.6ZM314.2,961.71c-2.76,7.29-5.15,13.81-6.63,18.24-.17-.45-.35-.91-.53-1.37V960.09h3.17A6.06,6.06,0,0,1,314.2,961.71ZM213.05,1158l.54-4.34V1158Zm106.87,92c-3.4-6.25-7.68-12-11.81-11.76,0-.15-.07-.31-.11-.46l-.11-.49c-2.57-11.08-7.16-30.79-12.33-52.51l5.53-2.8s-.48-5.11-1.29-12.93H310Zm5.65-92v-.52l.06.52ZM318,1045.38c-.35-.73-.69-1.47-1-2.23-1.64-3.58-3.27-7.35-4.87-11.25-1.71-4.16-3.39-8.47-5-12.84v-12.29a4.91,4.91,0,0,0,6.57-1.57c1.34-1,2.81-3.61,4.37-7.49Z"/><path class="cls-76" d="M1810.8,1109.27h-16.38V911.91c0-7-5.38-12.63-12-12.63h-20.17c-.18-.26-.37-.49-.56-.74-.42-.57-.85-1.12-1.28-1.63-.22-.25-.43-.5-.65-.74-.44-.49-.87-.94-1.31-1.37l-.57-.56c-.58-.53-1.15-1-1.72-1.45l-.13-.11a17.43,17.43,0,0,0-1.89-1.24l-.26-.14a12.26,12.26,0,0,0-1.5-.69l-.37-.13a7,7,0,0,0-1.33-.33l-.28,0a5.17,5.17,0,0,0-1.42,0h0c-.51-.19-1.08-.36-1.69-.53l-.15,0c-.62-.16-1.27-.32-2-.47h0c-.7-.17-1.46-.33-2.25-.49l-.63-.11c-.66-.12-1.35-.23-2.06-.33l-.52-.08c-1.9-.26-4-.46-6.13-.62l.32-1.25c.18-.71.35-1.42.52-2.13l.24-1c.11-.44.21-.88.31-1.32s.15-.66.22-1l.3-1.34.21-1c.09-.46.19-.91.29-1.36l.18-.92c.1-.47.2-.94.29-1.42,0-.12,0-.24.08-.36s.07-.35.1-.53a27.06,27.06,0,0,0,9.43-2.05c5.71-2.42,10.42-6.75,14.23-12.13,21.43-3.51,31.56-28.62,31-47.81-.6-18.61-15.61-25.77-26.24-28.51-10.6-15.73-29-19.72-41.53-18.46-23.7,2.38-35.69,19.14-30.93,39.13-10.07,27.63,2.88,71.66,10.09,75.9a67.3,67.3,0,0,0,14.68-5.29c-1,4.14-2.17,8.37-3.39,12.45h0l-2,.07-.36,0-1.69.08-.85,0-1.2.07-2,.14v.21h0l-1.46.16h0a28.15,28.15,0,0,0-5.39,1.08l-.09,0c-.22.08-.41.16-.58.24l-.08,0a2.56,2.56,0,0,0-.44.26h0a18.91,18.91,0,0,0-3.15,1.82l-.5.36c-.28.21-.56.42-.84.65s-.84.69-1.27,1.07l-.5.48q-.59.55-1.17,1.17l-.48.5c-.51.56-1,1.14-1.54,1.77-.38.46-.76,1-1.15,1.55h0c-.08.11-.16.25-.24.37h-22.61a8.32,8.32,0,0,0-8.11,8.52v72.14a20.54,20.54,0,0,0-3.74,4.77c-4.38,7.63-3.59,16.64,1.75,20.12a8.64,8.64,0,0,0,2,.95v103.49h-12.43v157.28h4.15l12.64-93.41h4v93.41h4.15l12.25-85.46c2.27,21.85,4.43,41.75,5.83,54.47-2.17,2.75-3.78,8.22-3.78,8.22l3.35,22.77h23l-14.7-7s.48-14.48-2.4-21.91c1.57-14.12,4.27-38.72,6.87-64.54h48.13c11.28,26.54,21.9,51.18,27.91,65.07-2.24,7,1.72,21.38,1.72,21.38l-12.48,7h19.53l1.56-12.5,1.79,12.5h4.15v-93.41h2.45l12.63,93.41h4.16V1143.41h.22Zm-47,53.22c-1-4.31-1.93-8.63-2.9-12.91l-.09-.39h9.58l1.9,13.3Zm-101.84,0,1.8-13.3h.71v13.3Zm38.14,0c.44-4.45.87-8.9,1.29-13.3H1737l5.62,13.3Zm83.13,76.34a13.66,13.66,0,0,0-3.59-3.23q-.27-1.32-.57-2.73c-.35-1.62-.71-3.34-1.09-5.13-2.1-9.9-4.77-22.38-7.71-35.92-1.32-6.06-2.69-12.34-4.1-18.68h7.65Zm8.12-76.34v-7.42l1,7.42Z"/><path class="cls-76" d="M746.4,1109.27H730V911.91c0-7-5.39-12.63-12-12.63H697.83c-.19-.26-.38-.49-.56-.74-.43-.57-.85-1.12-1.28-1.63l-.65-.74c-.44-.49-.87-.94-1.31-1.37-.19-.19-.38-.38-.58-.56a22,22,0,0,0-1.71-1.45l-.13-.11a18.46,18.46,0,0,0-1.89-1.24l-.26-.14a11.71,11.71,0,0,0-1.51-.69l-.36-.13a7,7,0,0,0-1.33-.33l-.29,0a5.1,5.1,0,0,0-1.41,0h0c-.52-.19-1.08-.36-1.69-.53l-.16,0c-.61-.16-1.26-.32-2-.47h0c-.69-.17-1.45-.33-2.24-.49l-.64-.11c-.65-.12-1.34-.23-2.05-.33l-.53-.08c-1.9-.26-3.95-.46-6.12-.62l.32-1.25c.17-.71.35-1.42.52-2.13l.24-1,.3-1.32c.08-.33.15-.66.23-1l.3-1.34c.07-.32.14-.64.2-1s.2-.91.29-1.36.13-.61.19-.92c.1-.47.2-.94.29-1.42,0-.12.05-.24.07-.36s.07-.35.11-.53a27,27,0,0,0,9.42-2.05c5.72-2.42,10.43-6.75,14.23-12.13,21.43-3.51,31.57-28.62,31-47.81-.59-18.61-15.6-25.77-26.23-28.51-10.6-15.73-29-19.72-41.53-18.46-23.7,2.38-35.7,19.14-30.93,39.13-10.07,27.63,2.88,71.66,10.09,75.9a67.3,67.3,0,0,0,14.68-5.29c-1,4.14-2.18,8.37-3.39,12.45h0l-2,.07-.37,0-1.68.08-.85,0-1.2.07-2,.14v.21h0l-1.46.16h0A28,28,0,0,0,634.5,889l-.09,0-.59.24-.07,0a2.56,2.56,0,0,0-.44.26h0a18.84,18.84,0,0,0-3.14,1.82l-.51.36c-.27.21-.55.42-.83.65s-.85.69-1.27,1.07c-.17.15-.33.32-.5.48-.39.37-.79.76-1.18,1.17l-.47.5c-.52.56-1,1.14-1.55,1.77-.37.46-.76,1-1.14,1.55h0c-.08.11-.16.25-.24.37H599.86a8.32,8.32,0,0,0-8.11,8.52v72.14a20.28,20.28,0,0,0-3.74,4.77c-4.38,7.63-3.6,16.64,1.75,20.12a8.64,8.64,0,0,0,2,.95v103.49H579.32v157.28h4.15l12.64-93.41h3.95v93.41h4.15l12.24-85.46c2.28,21.85,4.44,41.75,5.84,54.47-2.17,2.75-3.78,8.22-3.78,8.22l3.35,22.77h23l-14.7-7s.48-14.48-2.4-21.91c1.57-14.12,4.27-38.72,6.87-64.54h48.13c11.28,26.54,21.9,51.18,27.9,65.07-2.23,7,1.73,21.38,1.73,21.38l-12.48,7h19.53l1.55-12.5,1.8,12.5h4.15v-93.41h2.44L742,1266.55h4.15V1143.41h.23Zm-47,53.22c-1-4.31-1.94-8.63-2.91-12.91l-.09-.39H706l1.91,13.3Zm-101.84,0,1.8-13.3h.71v13.3Zm38.14,0c.44-4.45.87-8.9,1.29-13.3h35.64c1.86,4.43,3.74,8.88,5.62,13.3Zm83.12,76.34a13.48,13.48,0,0,0-3.58-3.23c-.19-.88-.38-1.79-.58-2.73-.34-1.62-.7-3.34-1.08-5.13-2.1-9.9-4.77-22.38-7.71-35.92-1.32-6.06-2.7-12.34-4.1-18.68h7.64Zm8.13-76.34v-7.42l1,7.42Z"/><path class="cls-76" d="M1574.9,993.82l.3-.6c.13-.28.26-.56.38-.84.19-.47.37-1,.52-1.43.06-.18.1-.37.15-.56.11-.39.21-.79.29-1.2,0-.11,0-.21.07-.31l0-.23a16.91,16.91,0,0,0,.2-1.76,15.13,15.13,0,0,0-.06-2.11h0c0-.28-.09-.58-.13-.86-.07-.47-.12-.93-.22-1.41s-.21-.78-.31-1.16-.2-.85-.34-1.29-.32-.93-.49-1.4c0,0,0,0,0-.07-5.14-30.66-49.49-95.57-64.38-105.33a20.3,20.3,0,0,0-2.25-1.24h0l-.24-.11c-.56-.26-1.14-.52-1.77-.78l-.3-.12c-.67-.26-1.36-.52-2.1-.77l-.26-.09c-.78-.26-1.58-.51-2.43-.76l-.21-.06c-.87-.25-1.78-.5-2.73-.74l-.16,0c-1-.24-2-.48-3-.7l-.09,0c-1.08-.23-2.19-.46-3.33-.67h0c-1.16-.21-2.35-.42-3.58-.62h0c-1.23-.2-2.49-.38-3.78-.56h0l-1.66-.33h0l.6-.54-8.66-9.7-.9.5-1-7.64-.49-3.65c3-15.32,5.74-30.36,8-43.69.42-2.43.82-4.81,1.2-7.12.19-1.15.38-2.29.56-3.41.73-4.49,1.38-8.69,1.94-12.54.14-1,.27-1.9.4-2.82,1.53-11,2.19-18.72,1.57-21.21a22.14,22.14,0,0,0-2.5-5.66c-.25-.42-.51-.84-.77-1.25s-.64-1-1-1.45-.78-1.11-1.17-1.62a62.71,62.71,0,0,0-4.15-5s24.53-11.22,19.54-21.62-46.57,5.82-46.57,5.82,15-10.81,7.9-12c-5.82-1-25.15,7.81-33.19,14.21,2.64-3.25,5.24-7.7,1.18-9.22-5.06-1.9-29.09,6.09-32.09,40.73h0v0c-.12,1.34-.21,2.73-.26,4.16V761c0,1.39-.06,2.82,0,4.29,0,.12,0,.26,0,.39,0,1.39.07,2.81.16,4.28,0,.26,0,.54.06.8.09,1.36.19,2.73.34,4.15,0,.45.12.92.17,1.37.15,1.28.3,2.56.49,3.88.1.69.24,1.41.35,2.12.19,1.14.37,2.27.59,3.44s.44,2.13.66,3.2c.19.9.36,1.78.57,2.7.47,2,1,4.11,1.55,6.24l.87.6c-3.53,27.38-3,53.94-2.53,54.69.37.56,5.65,2.91,11.91,5.27l-.48,2.74-.48-.18-6.24,8.25.42.35-1.63.75,0,0c-1.06.39-2.12.76-3.14,1.19-1.62.53-3.18,1.09-4.71,1.68l-.74.29c-1.55.62-3.07,1.26-4.51,2-31.42,15-54.83,50.63-72.44,90.39l-.31.47c-.46.71-.92,1.41-1.36,2.1l-.77,1.24q-.51.83-1,1.65c-.27.45-.53.9-.79,1.35-.36.63-.7,1.25-1,1.87l-.52,1c-.39.77-.77,1.53-1.12,2.28-.1.2-.19.41-.28.61-.29.64-.55,1.26-.8,1.88-.1.22-.19.45-.28.67-.28.74-.54,1.47-.77,2.18l-.15.53c-.19.63-.36,1.26-.5,1.86,0,.12-.06.25-.08.37a16.65,16.65,0,0,0-.31,2c0,.15,0,.3,0,.45a13.31,13.31,0,0,0-.05,1.88,15.81,15.81,0,0,0,.3,2.32c0,.24.11.46.16.69.13.53.28,1.06.46,1.57.08.24.17.47.26.71.22.55.47,1.09.74,1.62.08.15.14.31.23.46a20,20,0,0,0,1.22,2c.12.17.25.33.37.49.35.47.72.94,1.11,1.4.17.2.36.4.54.6.39.43.79.85,1.21,1.26l.53.51c.6.56,1.22,1.11,1.88,1.63l.16.13c.61.49,1.24,1,1.89,1.43l.65.44q.78.54,1.59,1.05l.67.42c.65.4,1.31.79,2,1.16l.3.17c.8.44,1.6.87,2.42,1.28l.4.2c.69.34,1.38.66,2.07,1l.54.25c.71.32,1.43.63,2.14.93l.28.12c1.71.71,3.39,1.35,5,1.93l.12.05,2.37.81h0c1.94.64,3.75,1.18,5.36,1.63l-6.31,35,9,4.27-.89,7.89h10.61c-.82.67-1.61,1.33-2.36,2l-1.13,1-.51.48-1.14,1.1-.44.46c-.35.36-.7.71-1,1.07s-.83.93-1.21,1.38h0c-3.5,4.16-5.43,8.14-5.6,11.43-.26,5.06,8.58,25.84,20.34,51v131h4.15L1376,1168q2.6,5.32,5.19,10.59v88h4.15l7.83-63.92c4.37,8.73,8.44,16.76,11.91,23.6l.13.26,1.27,2.49.15.29,1.11,2.19.27.53,2.28,4.47c0,.06.07.14.11.2l2,3.92.58,1.13c-3.86,6.64-3.07,18.53-3.07,18.53l-16.54,6.31h23l9.37-20.67s-2.07-4.52-5-6.7l6.45-82h33.87l9.52,82.63a22.47,22.47,0,0,0-4.18,6l9.37,20.67h23l-16.54-6.31s.84-12.72-3.49-19.19c3.77-7.81,10.15-21.08,17.54-36.73l7.62,62.23h4.15v-87.38l.54-1.17.27-.59,1.62-3.49.26-.56c.43-.94.86-1.88,1.3-2.82l11.09,96h4.16V1136.69c11.26-25.68,19.76-47,19.34-52.17s-5.38-12.23-14-18.92h12.62l-1.31-7.78,9.08-4.44-9.18-39.48c2.63-.83,5.53-1.85,8.51-3.07.68-.28,1.35-.57,2-.87,7.95-3.49,16-8.44,19.92-15.07l.07-.11C1574.56,994.47,1574.73,994.15,1574.9,993.82Zm-146.71,150.93,1.22-15.57h28.44l1.79,15.57Z"/><path class="cls-76" d="M771.45,994.78l.07.11c4,6.63,12,11.58,19.91,15.07l2,.87c3,1.22,5.87,2.24,8.51,3.07l-9.18,39.48,9.08,4.44-1.31,7.78h12.62c-8.64,6.69-13.58,13.68-14,18.92s8.07,26.49,19.34,52.17v129.86h4.15l11.1-96,1.3,2.82.26.56c.54,1.17,1.07,2.33,1.61,3.49.09.2.18.4.28.59l.54,1.17v87.38h4.15l7.61-62.23c7.39,15.65,13.77,28.92,17.55,36.73-4.34,6.47-3.49,19.19-3.49,19.19L847,1266.55h23l9.37-20.67a22.36,22.36,0,0,0-4.19-6l9.53-82.63h33.87l6.45,82c-2.91,2.18-5,6.7-5,6.7l9.36,20.67h23l-16.54-6.31s.79-11.89-3.08-18.53c.19-.37.38-.73.58-1.13l2-3.92.1-.2c.71-1.39,1.48-2.88,2.28-4.47l.27-.53c.37-.71.74-1.44,1.12-2.19l.15-.29,1.26-2.49.14-.26c3.47-6.84,7.53-14.87,11.91-23.6l7.82,63.92h4.16v-88c1.72-3.51,3.46-7,5.19-10.59l11.4,98.59h4.15v-131c11.75-25.15,20.6-45.93,20.34-51-.17-3.29-2.11-7.27-5.6-11.43h0c-.38-.45-.79-.92-1.22-1.38s-.67-.71-1-1.07l-.45-.46-1.13-1.1-.52-.48-1.12-1c-.75-.66-1.54-1.32-2.37-2h10.61l-.89-7.89,9-4.27-6.31-35c1.61-.45,3.43-1,5.36-1.63h0l2.38-.81.12-.05c1.63-.58,3.31-1.22,5-1.93l.27-.12c.72-.3,1.43-.61,2.15-.93l.54-.25c.69-.32,1.38-.64,2.06-1l.41-.2c.81-.41,1.62-.84,2.42-1.28l.29-.17c.67-.37,1.33-.76,2-1.16l.66-.42c.54-.34,1.07-.69,1.6-1.05l.64-.44c.65-.47,1.29-.94,1.9-1.43l.16-.13c.65-.52,1.28-1.07,1.88-1.63l.52-.51c.42-.41.83-.83,1.22-1.26l.54-.6c.39-.46.76-.93,1.11-1.4.12-.16.25-.32.37-.49a22.07,22.07,0,0,0,1.22-2c.08-.15.15-.31.23-.46.27-.53.52-1.07.74-1.62.09-.24.17-.47.25-.71.18-.51.33-1,.46-1.57.06-.23.12-.45.17-.69a17.29,17.29,0,0,0,.3-2.32,15,15,0,0,0,0-1.88c0-.15,0-.3,0-.45-.07-.64-.17-1.3-.31-2l-.09-.37c-.14-.6-.3-1.23-.49-1.86,0-.18-.1-.35-.16-.53-.22-.71-.48-1.44-.77-2.18-.08-.22-.18-.45-.27-.67-.25-.62-.52-1.24-.81-1.88-.09-.2-.17-.41-.27-.61-.35-.75-.73-1.51-1.13-2.28-.16-.32-.33-.64-.51-1-.33-.62-.68-1.24-1-1.87q-.37-.67-.78-1.35c-.32-.55-.65-1.1-1-1.65s-.5-.83-.77-1.24c-.44-.69-.89-1.39-1.36-2.1l-.31-.47c-17.61-39.76-41-75.41-72.44-90.39-1.44-.69-3-1.33-4.5-2l-.75-.29q-2.28-.88-4.7-1.68c-1-.43-2.09-.8-3.14-1.19l0,0-1.64-.75.43-.35L938.6,861l-.48.18-.49-2.74c6.27-2.36,11.55-4.71,11.92-5.27.51-.75,1-27.31-2.53-54.69l.87-.6q.86-3.2,1.54-6.24c.22-.92.38-1.8.57-2.7.23-1.07.47-2.15.67-3.2s.4-2.3.58-3.44c.12-.71.25-1.43.35-2.12.2-1.32.35-2.6.5-3.88,0-.45.12-.92.16-1.37.15-1.42.26-2.79.35-4.15l.06-.8c.09-1.47.14-2.89.16-4.28,0-.13,0-.27,0-.39,0-1.47,0-2.9,0-4.29a.57.57,0,0,1,0-.13c0-1.43-.13-2.82-.25-4.16v0h0c-6.46-56.14-83.23-17.87-83.23-17.87a61.43,61.43,0,0,0-4.16,5c-.38.51-.77,1.06-1.16,1.62s-.65,1-1,1.45-.52.83-.77,1.25a21.8,21.8,0,0,0-2.5,5.66c-.63,2.49,0,10.19,1.57,21.21.13.92.26,1.86.4,2.82.56,3.85,1.21,8,1.94,12.54.18,1.12.36,2.26.56,3.41.38,2.31.78,4.69,1.2,7.12,2.29,13.33,5.07,28.37,8,43.69l-.48,3.65-1,7.64-.9-.5-8.66,9.7.59.54h0l-1.67.33h0c-1.29.18-2.55.36-3.79.56h0c-1.22.2-2.42.41-3.58.62h0c-1.15.21-2.26.44-3.33.67l-.09,0c-1,.22-2.06.46-3,.7l-.16,0c-1,.24-1.86.49-2.74.74l-.21.06c-.84.25-1.65.5-2.42.76l-.26.09c-.74.25-1.44.51-2.1.77l-.3.12q-.94.39-1.77.78l-.24.11h0a19.43,19.43,0,0,0-2.25,1.24c-14.89,9.76-59.25,74.67-64.38,105.33l0,.07c-.16.47-.35,1-.49,1.4s-.22.86-.34,1.29-.22.78-.3,1.16-.15.94-.22,1.41c0,.28-.11.58-.14.86h0a16.78,16.78,0,0,0,0,2.11,14.58,14.58,0,0,0,.2,1.76c0,.07,0,.15,0,.23s.06.2.08.31c.08.41.17.81.28,1.2.06.19.1.38.16.56.15.48.32,1,.52,1.43.11.28.25.56.38.84s.19.4.3.6S771.26,994.47,771.45,994.78Zm114.73,150,1.8-15.57h28.43l1.23,15.57Z"/><path class="cls-77" d="M1788.52,741.94v-.4a404.11,404.11,0,0,1,37-17.36v0l2.48-1,3.67-1.46,2.32-.89c2.2-.85,4.45-1.68,6.73-2.5l.67-.23c5.27-1.89,10.72-3.67,16.22-5.27l1.15-.42.11,0-.5-.5,2.49-1.78.78.4.45-3.35c-3.66-3.47-6.09-6.39-6.47-7.64-.59-1.91,2-11.15,4.65-21-3.16-2.79-4-8.43-2.79-16.47h0l.43-2.47h0l.35-2H1865a20.42,20.42,0,0,0,.18-3.57,39.69,39.69,0,0,1,1.19-10.27c-.74-11.09,0-22.12,8-30.89,6.77-7.48,39.79-9.58,54.77-3.78,1.72.67,3.45,1.4,5.18,2.21h0l1.37.67,1.14.58,1.28.68,1.2.68c.41.23.81.48,1.21.72l1.21.76,1.14.76c.41.28.8.57,1.2.86l1.06.79c.41.32.8.65,1.2,1s.63.52.94.8.85.79,1.27,1.2l.73.71c.63.65,1.23,1.33,1.8,2,.15.17.27.36.41.53.43.55.85,1.1,1.23,1.67.19.28.36.58.54.87.31.49.61,1,.89,1.5.18.32.34.66.5,1,.25.5.48,1,.7,1.53.14.35.28.72.41,1.08.19.53.37,1.07.52,1.62.11.38.22.75.31,1.14.14.57.25,1.17.35,1.76.07.38.14.76.19,1.15.08.67.12,1.36.16,2,0,.35,0,.68.06,1,0,1.05,0,2.13-.12,3.25a16.63,16.63,0,0,1-.42,2.46c0,.07,0,.15,0,.23a16.45,16.45,0,0,1-.74,2.18c0,.1-.09.21-.14.31l-.18.41a94.19,94.19,0,0,1-2.69,18c3.3-2,6.69-2.45,7.7,1,1.84,6.25-7.55,21.3-12.93,20.5l.56,2.46,5.22,22.74.8-.25,3.55,3.38-.72.41c1.45.5,2.89,1,4.3,1.53h0a265.39,265.39,0,0,1,27.16,11.8l-.12.19c24.5,12.56,39.39,25,39.39,25h0c38.59,26,54.56,100.08,50.42,151.57a.71.71,0,0,1,0,.14c-.15,1.89-.32,3.76-.53,5.59-.08.65-.18,1.3-.32,1.94-3,14-20.83,26.21-34.79,30-16.36,6.21-35.24,8.8-54.35,10.88l-3,38.74a41.21,41.21,0,0,1,5.76,4c16.54-7.49,31.15,1.75,31.15,1.75s-1.52,29.25-2.13,30.2c-1,1.58-6.66,1-13-.36l-10.76,6.58s-11.18,31.19-14.86,40.87l.18.06c-.72,1.92-1.2,3.14-1.31,3.31l-2.85,1.42-12.06-4.16-26.36,166c4.17,3.53,10.71,11.81,10.71,11.81h-20.27a102.76,102.76,0,0,1,4.47-10.41l-28-186.68-34.59-5.68-67.38,194.18c.73,3.27-.6,8.59-.6,8.59h-30.8s21.27-9.88,28.1-10.92L1817.78,995l-1.23.36-7.11-6.23s2.27-14.62,4-33.53c-24.15-4.47-47.46-10.36-65-24.21-.18-.13-.35-.27-.52-.41s-.53-.39-.79-.6l-.05,0a49.69,49.69,0,0,1-10.25-10.88,26.87,26.87,0,0,1-5-13.53C1728,850.67,1747,767.62,1788.52,741.94Z"/><path class="cls-77" d="M1752.3,931.43c0-.14,0-.29,0-.44s.06-.51.09-.78,0-.35,0-.52,0-.59,0-.9l0-.56c0-.34,0-.7,0-1.07,0-.19,0-.37,0-.56,0-.42,0-.87,0-1.32,0-.16,0-.3,0-.46q0-1.92-.15-4.17h0c0-.74-.09-1.49-.14-2.27l0-.4c0-.66-.1-1.34-.16-2,0-.17,0-.34,0-.51-.06-.69-.12-1.38-.19-2.09,0-.18,0-.35,0-.53-.07-.74-.15-1.5-.23-2.28,0-.14,0-.28,0-.42-.09-.87-.19-1.74-.29-2.64l0-.18c-5-42.26-22.84-120-45-133.11-1.16-1-2.39-2.08-3.65-3.1h0c-3-2.46-6.35-4.83-9.87-7.14h0c-2-1.29-4-2.56-6.09-3.82l-.47-.28-2.59-1.54c-1.17-.69-2.35-1.38-3.56-2.06l-1.75,1.7-.37-.33.28-.1-.25-9-.31.05c.12-1.46.25-2.91.39-4.36v-.11c.14-1.43.28-2.85.43-4.26v-.12c.44-4.18.94-8.26,1.49-12.18a60.65,60.65,0,0,1,4.23-8.95c7.36-.48,15.56-3.41,17.31-9.11a7.07,7.07,0,0,0,.19-3.37l2.37-.59a8.71,8.71,0,0,0,2-.78c6.27-3.38,7.74-14.06,8-20.81,0-.34,0-.67,0-1,0-.64,0-1.22,0-1.76,0-1.86-.08-3-.08-3s16.33-17.4-1.2-36.58a69.26,69.26,0,0,0-7-6.7h0C1688.44,620.43,1665,614.62,1648,625c-6.56,4-10.28,10.63-12.34,17.67a50.49,50.49,0,0,0-8.67.36c-3.07.61-2.93,3.19-2.2,5.83.32,1.17,3.09,2.7,6.41,3.76-21.72,33.79-23.11,82.83-23.11,82.83,3.79.92,8.46,1.83,13.44,2.63l-.08.33-.18.71c-.21.79-.4,1.56-.59,2.29l0,.13-.4-.3-2.78,2.65.11.28h-.19l-4.37.12h-.6l0-2.66s-15.42-.44-25.61,1.42q-.6.09-1.2.24c-2.93.62-5.32,1.46-6.58,2.6a6,6,0,0,0-.88,1c-29.27,19-67.71,96.63-73.45,117.41a12.36,12.36,0,0,0-.68,3.17,24.72,24.72,0,0,0,.5,8.38c1.61,7.68,6.2,15.44,12.56,20.11,6,6,14.47,12.28,23.46,18.22-.58,3.31-1.16,6.67-1.75,10.1l1.28-.24c-.47,2.86-.72,4.46-.72,4.46l3.37,8.43.33.17.43.24.4.19.51.24.41.18h0l-17.43,318.73c-8.33,1.16-26.76,11.21-26.76,11.21H1534s.85-4.71-.82-8.18l63.89-235.6,9.85.95,76.91,231.84h0c-4.48,2.65-3.1,11-3.1,11h16.85a54.83,54.83,0,0,0-7.36-8.61l-25.83-277.49h0L1663.1,968l2.22.48s.14-3,.47-7.82l2.9,1.91s1.67-8.48,4-19.68c23.09,1.09,60.39,1.55,77-5.47l-.51-.49a6.69,6.69,0,0,0,2.75-3.59,6.24,6.24,0,0,0,.23-.84c0-.1,0-.21.07-.32S1752.26,931.69,1752.3,931.43Zm-67.44-39.69c.69,1.07,1.39,2.13,2.08,3.18l-3.29.55C1684.09,894,1684.49,892.76,1684.86,891.74Z"/><path class="cls-77" d="M139.65,766.18l.74-2.66-6.9-.61-.54.69L132,761c5-3.85,9-8.21,9-11.51,0-1.75-.7-7.76-1.84-15.85,10.24-8.24,11-16.45,8-23.4-1.42-3.25-3.54-4.25-5.71-4a171.05,171.05,0,0,0,.79-19.12c0-1.89-.11-3.7-.22-5.45-.06-.87-.12-1.73-.19-2.56-.22-2.52-.51-4.88-.87-7.1-.12-.74-.24-1.46-.38-2.17-6.13-32.53-27-31.9-27-31.9h0v-.12a17.44,17.44,0,0,0-2.13-5.15h0c-3.24-5.42-11.1-13.06-29.77-13.06-28.92,0-20.49,37.88-20.49,37.88-9.61,6.5-7.73,33.82,4.56,66.12-3-.07-5.89,1.33-6.56,5.69-1.19,7.81,2.16,15.83,16.45,19.5,2.68,11.74,5.59,20.81,8.45,22.88,1.6,1.17,4.37,1.67,7.64,1.74L93.5,784l-1.38.15L91,794.39l.67.1-.06,0h0c-1.22,1.09-2.4,2.19-3.51,3.3h0l-.72-1.36s-15.39,14.42-19.76,23c-.3.36-.61.73-.93,1.15C44.47,850,23.5,1030.83,23.5,1030.83l2.57,1.17-1.87,11.94,4.38,1.59C21,1057,18.36,1068.4,18.14,1073.75h0c-1.94,8-4.12,17.15-4.12,17.92,0,1.4,3.51,6,4.63,6,.68,0,3.12-6.72,5.89-14.65l1,1c-2.17,8.67-5.63,22.63-5.59,23.53.06,1.31,4.61,4.51,6,4.14,1-.26,4.49-9.85,8.12-19.87l1.09.94c-2.09,8.39-4.61,18.69-4.57,19.46.06,1.31,4.6,4.51,6,4.14s6.64-15.9,11.11-28.15c.14-.29.29-.59.43-.89,4.29,6.9,10.15,16.24,10.68,16.87.85,1,7-2.49,6.79-4-.23-1.3-8.81-14.45-8.94-29.83.08-1.06.12-2.18.1-3.36a.09.09,0,0,1,0,0h0a95.79,95.79,0,0,0-1-11.56l4.42,1.61,1.36-8.88,2.57,1.17h0c1.26-5.73,6.85-29.7,13.72-56.47,3.51,35.9,7.41,66.59,7.44,66.79h0a34.31,34.31,0,0,0,5.86-5.34c1.22-1.26,2.48-2.64,3.77-4.11,2.29,16.25,4.85,32.08,7.1,47.45,7.75,53,17.81,103.11,23.11,156.33h0q.54,5.32,1,10.69c-4.09,2.07-14.94,9.42-14.94,9.42h21.39s-1.13-5.23-2.9-8.08h.72L147.78,1039l5.77-3.53,6.23,204c-2.85,1.87-5.67,8.55-5.67,8.55l9,22.3,5.43,1.68-2.61-4.65s0-19.67-2.51-26.11c.76-3,1.84-7.36,3.15-12.75l.09-.36c.16-.69.34-1.4.51-2.13l0-.07h0c8.5-35.31,25.5-111,33.81-183.75,1.39-11.8,2.73-23.89,3.84-35.86a18.7,18.7,0,0,0,2.65,2.07s2.95-29.77,3.14-64.81v0C215.77,794.16,141.32,764.21,139.65,766.18Z"/><path class="cls-77" d="M226.81,1013.37l-2.28,1.64h0c-2.35-5.37-12.48-27.81-24.4-52.74l-47.46-190.8s17.89,11.16,23.83,18.7c.37.29.75.6,1.13.94C205.15,815.64,260.74,989,260.74,989l-2.29,1.64,4.14,11.35-4,2.42c9.66,9.79,14.46,20.45,15.72,25.66h0c3.45,7.47,7.35,16,7.51,16.78.27,1.37-2.29,6.59-3.38,6.79-.67.12-4.37-6-8.62-13.23-.25.39-.51.78-.77,1.17,3.81,8.08,9.9,21.1,10,22,.19,1.29-3.65,5.31-5.07,5.21-1-.07-6.31-8.79-11.81-17.92-.3.39-.59.77-.89,1.14,3.68,7.82,8.14,17.44,8.26,18.2.2,1.3-3.64,5.32-5.07,5.22-1.28-.09-9.6-14.31-16.35-25.46l-.59-.79c-2.88,7.59-6.81,17.9-7.21,18.61-.64,1.15-7.39-1.08-7.43-2.55s5.85-15.88,3-31c-.28-1-.53-2.12-.75-3.27,0,0,0,0,0-.06h0a98.27,98.27,0,0,1-1.28-11.53l-4,2.44Z"/><path class="cls-77" d="M1178.47,1021.07h0l0-.1.66-2.67c.06-.25.12-.49.19-.74.17-.69.34-1.37.52-2,.06-.26.13-.51.2-.77.18-.71.37-1.41.55-2.11l.15-.56c.24-.89.47-1.76.71-2.62v-.05c.09-.33.18-.65.28-1l0-.24-5.68,3.6s1.89-4.3,4.55-10.51l-.52-3.58h0c-4.27-27.58-12.36-82.46-11.4-96.86.94-14,35.29-92.75,52.44-102.71,3.55-3.78,12.55-6.87,22.61-9.28l1-.32,2-1.1-.21-1.14,6.73-7,.88.45c0-.48.09-1,.15-1.52l0-.33c.18-1.91.4-4.1.65-6.52-5-.87-8.88-2-10-3.45-2.16-2.67-.63-19.11,2.45-38.44-1.77-23.73,8.76-70.75,8.76-70.75l-.1-.16-.09-.15-.17-.27c-.06-.12-.14-.25-.22-.39s-.12-.2-.19-.32L1255,657l-.24-.42-.37-.66-.27-.47-.42-.78-.3-.56c-.15-.28-.3-.55-.45-.85l-.34-.65c-.15-.29-.29-.58-.44-.88h0c-2.51-5.06-5.1-11.58-3.93-15.14,2.1-6.33,11.75-13.25,24.49-10.43,7.16,1.59,30.93,11.78,48.28,23.25l.08,0c.83.56,1.64,1.11,2.44,1.67l.07,0a79.71,79.71,0,0,1,10.14,8.2l.45.44c.36.37.7.74,1,1.1s.45.48.65.71.55.66.81,1,.44.55.64.82.43.6.63.9.39.58.56.87.33.56.48.84.3.6.43.9.23.53.33.79.2.62.29.92.13.49.18.73.08.64.11,1,0,.43,0,.65a7.06,7.06,0,0,1-.12,1c0,.17,0,.35-.07.53a7.9,7.9,0,0,1-.55,1.49h0c3.18.24,4.47,2.83,4.38,7-.18,8.12-5.6,22.24-12.53,36.8a6.48,6.48,0,0,1,1.33,3.41c.28,3.09-4.14,8.32-9.64,13-1.88,3.51-3.77,6.92-5.61,10.14-3.57,6.26-6.94,11.77-9.7,15.94l-.09.8-.18,1.51c-.09.72-.17,1.43-.26,2.14l-.21,1.82c-.08.65-.16,1.3-.23,1.94s-.13,1.06-.19,1.59l-.21,1.82q-.12,1-.24,2l-.12,1.09c-.09.76-.18,1.5-.26,2.22l-.09.79c-.09.76-.18,1.51-.26,2.23,0,.2,0,.4-.07.6,0,.44-.1.85-.15,1.28l1.21-.21h0l1.44,5.4,2.16,8.11-.73.3.29.32h0l1.32,1h0c1,.78,2.09,1.58,3.11,2.39l.22.16q2.31,1.66,4.6,3.37l.2.16c1.41,1,2.8,2.12,4.18,3.18l1.11.86,3.26,2.58,1.12.9q1.83,1.47,3.57,2.93l.37.3c10.53,7.29,19.78,34.24,20.83,79.79,1.08,46.51,3,96.16,4.08,123.77a.3.3,0,0,0,0-.1c.54,13.2.9,21.23.9,21.23h0c0,.38,0,.63,0,.63l-2.8.28.45,6.26-3.78.35c3.81,3.51,9.65.36,16.16,1.64a6.87,6.87,0,0,1,1.85.74h0c2.58.48,6,2.14,9.22,4.14l1.14-.45c.3.57.58,1.14.85,1.71a53.24,53.24,0,0,1,8.32,6.61h10.61a45.52,45.52,0,0,0-5.9-6.72l14.09-5.76a30,30,0,0,1,6.23,10.34,58.1,58.1,0,0,0,.17-9.73l14.58,6.51a38.56,38.56,0,0,1-.81,5.36h71.16l3.53,143h0l3.15,64.38h-6.4l-9.1-13.44h-13l.63,13.44h-6.13l-8.74-13.44H1334l-8.21,13.44H1320l1.89-17.92h-8.72l-10.94,17.92h-5.77l6.86-65h0l3-32.71-5-14.06a37.88,37.88,0,0,1,6.71-4.43l.34-3.72a37.45,37.45,0,0,1-6.37-5.54l7.9-11.74,0,.06,6.41-70.19h12.09a58.65,58.65,0,0,1-2.17-11.91l-2.88.27-.56-6-4.14.41s-.34-1.9-.93-5.23c-1.53-7.58-4.78-23.71-8.43-41.91-1.28,13.59-2.21,26.18-3.08,36.68-.2,2.38-.4,4.66-.59,6.81-.1,1.08-.2,2.13-.29,3.14-1.28,13.21-2.64,21.09-5,20.18-.18-.07-.36-.16-.55-.25l0,0h0a13.51,13.51,0,0,1-2-1.34c-.2,1-.41,2-.63,3-.07.28-.13.57-.19.85-.25,1.15-.51,2.32-.77,3.52l-.18.79q-1,4.47-2.13,9.35l-.06.29c-.36,1.52-.72,3.07-1.09,4.65,0,.23-.11.46-.16.69l-1.13,4.76-.09.37c-.85,3.58-1.75,7.26-2.67,11l0,.11h0c-13.87,56.7-34.69,133.28-40.51,154.56,5.23,2.18,17.18,12.58,17.18,12.58h-23.29a44,44,0,0,1,1.59-9.38c-.7-22.81-6.06-195.34-9.22-201.23-1-1.81-6.66-7.35-7.68-5.36-2,3.81-19,56.51-19,56.51l25.84,137c2.81,2.23,7.25,9.49,7.25,9.49l-11.29,11.28h-13a36.22,36.22,0,0,0,14-17.75c-11.12-20.31-68-124.38-68.76-133C1161.05,1108.76,1169.6,1057.31,1178.47,1021.07Z"/><path class="cls-77" d="M259.93,932.14l.06.32a6.24,6.24,0,0,0,.23.84,7.23,7.23,0,0,0,1.32,2.35,7.14,7.14,0,0,0,1.44,1.24l-.51.49c16.56,7,53.87,6.56,76.95,5.47,2.33,11.2,4,19.68,4,19.68l2.91-1.91c.32,4.85.46,7.82.46,7.82L349,968l-1.29,13.87h0l-25.84,277.49a54.83,54.83,0,0,0-7.36,8.61h16.85s1.38-8.33-3.1-11h0l76.91-231.84,9.85-.95,63.89,235.6c-1.67,3.47-.81,8.18-.81,8.18h33.34s-18.44-10-26.77-11.21L467.24,938h0l.4-.18.51-.24.4-.19.44-.24.32-.17,3.37-8.43s-.25-1.6-.71-4.46l1.28.24c-.6-3.43-1.18-6.79-1.76-10.1C480.49,908.27,489,902,495,896c6.36-4.67,11-12.43,12.56-20.11a24.73,24.73,0,0,0,.51-8.38,12.31,12.31,0,0,0-.69-3.17c-5.74-20.78-44.18-98.43-73.45-117.41a6,6,0,0,0-.88-1c-1.26-1.14-3.64-2-6.57-2.6a12.32,12.32,0,0,0-1.21-.24c-10.19-1.86-25.61-1.42-25.61-1.42l.05,2.66h-.6l-4.37-.12h-.19l.12-.28-2.78-2.65-.41.3,0-.13c-.18-.73-.38-1.5-.58-2.29l-.18-.71-.09-.33c5-.8,9.65-1.71,13.45-2.63,0,0-1.39-49-23.11-82.83,3.32-1.06,6.08-2.59,6.41-3.76.72-2.64.86-5.22-2.2-5.83a50.62,50.62,0,0,0-8.68-.36c-2.06-7-5.78-13.68-12.34-17.67-17-10.36-40.43-4.55-57.77,9.92h0a71.44,71.44,0,0,0-7,6.7c-17.53,19.18-1.2,36.58-1.2,36.58s-.07,1.17-.07,3c0,.54,0,1.12,0,1.76,0,.31,0,.64,0,1,.28,6.75,1.74,17.43,8,20.81a8.38,8.38,0,0,0,2,.78l2.36.59a7,7,0,0,0,.2,3.37c1.74,5.7,10,8.63,17.31,9.11a62.76,62.76,0,0,1,4.23,8.95c.55,3.92,1,8,1.48,12.18l0,.12q.22,2.11.42,4.26v.11c.14,1.45.27,2.9.4,4.36l-.32-.05-.25,9,.28.1-.37.33-1.75-1.7c-1.2.68-2.39,1.37-3.56,2.06L326,759.84l-.47.28c-2.08,1.26-4.12,2.53-6.09,3.82h0a121.26,121.26,0,0,0-9.88,7.14h0c-1.26,1-2.49,2-3.65,3.1-22.21,13.1-40.09,90.85-45.05,133.11a1.1,1.1,0,0,0,0,.18c-.11.9-.21,1.77-.3,2.64,0,.14,0,.28,0,.42-.08.78-.16,1.54-.23,2.28,0,.18,0,.35-.05.53-.07.71-.13,1.4-.19,2.09,0,.17,0,.34-.05.51-.05.7-.11,1.38-.15,2l0,.4c-.06.78-.11,1.53-.15,2.27h0q-.12,2.25-.15,4.17v.46c0,.45,0,.9,0,1.32,0,.19,0,.37,0,.56,0,.37,0,.73,0,1.07l0,.56c0,.31,0,.61.05.9s0,.35,0,.52.06.53.09.78,0,.3.05.44S259.88,931.91,259.93,932.14Zm68.52-36.67-3.29-.55c.7-1,1.39-2.11,2.08-3.18C327.61,892.76,328,894,328.45,895.47Z"/><path class="cls-77" d="M823.86,1021.07h0l0-.1-.66-2.67c-.06-.25-.13-.49-.19-.74-.17-.69-.35-1.37-.52-2l-.2-.77c-.18-.71-.37-1.41-.55-2.11l-.15-.56c-.24-.89-.47-1.76-.71-2.62v-.05c-.09-.33-.19-.65-.28-1l0-.24,5.68,3.6s-1.89-4.3-4.55-10.51l.52-3.58h0c4.27-27.58,12.35-82.46,11.39-96.86-.93-14-35.28-92.75-52.43-102.71-3.55-3.78-12.55-6.87-22.61-9.28l-1-.32-2-1.1.21-1.14-6.73-7-.88.45c0-.48-.1-1-.15-1.52l0-.33c-.19-1.91-.4-4.1-.65-6.52,5.05-.87,8.87-2,10-3.45,2.16-2.67.63-19.11-2.45-38.44,1.77-23.73-8.76-70.75-8.76-70.75l.09-.16.1-.15.16-.27.23-.39.19-.32.31-.52.24-.42.37-.66c.09-.15.17-.31.27-.47s.27-.51.42-.78l.3-.56.45-.85.33-.65.45-.88h0c2.51-5.06,5.1-11.58,3.92-15.14-2.09-6.33-11.74-13.25-24.48-10.43-7.16,1.59-30.93,11.78-48.28,23.25l-.08,0c-.83.56-1.65,1.11-2.45,1.67l-.06,0a79.71,79.71,0,0,0-10.14,8.2l-.45.44c-.37.37-.7.74-1,1.1l-.66.71c-.28.33-.54.66-.8,1s-.44.55-.64.82-.43.6-.63.9-.39.58-.56.87-.33.56-.48.84-.3.6-.44.9-.23.53-.32.79a8.83,8.83,0,0,0-.29.92c-.06.25-.13.49-.18.73s-.08.64-.11,1,0,.43,0,.65a7.06,7.06,0,0,0,.12,1,5.15,5.15,0,0,0,.07.53,7.27,7.27,0,0,0,.55,1.49h0c-3.18.24-4.47,2.83-4.38,7,.18,8.12,5.6,22.24,12.53,36.8a6.48,6.48,0,0,0-1.33,3.41c-.28,3.09,4.14,8.32,9.63,13,1.89,3.51,3.78,6.92,5.61,10.14,3.58,6.26,7,11.77,9.71,15.94l.09.8.18,1.51c.09.72.17,1.43.26,2.14l.21,1.82c.08.65.15,1.3.23,1.94s.12,1.06.19,1.59l.21,1.82q.12,1,.24,2l.12,1.09c.09.76.18,1.5.26,2.22l.09.79c.09.76.18,1.51.26,2.23,0,.2,0,.4.07.6,0,.44.1.85.14,1.28l-1.2-.21h0l-1.44,5.4-2.16,8.11.73.3-.29.32h0l-1.33,1h0c-1,.78-2.09,1.58-3.12,2.39l-.21.16q-2.31,1.66-4.6,3.37l-.2.16c-1.41,1-2.8,2.12-4.19,3.18l-1.1.86-3.26,2.58-1.12.9q-1.83,1.47-3.57,2.93l-.37.3c-10.53,7.29-19.78,34.24-20.84,79.79-1.07,46.51-3,96.16-4.08,123.77,0,0,0-.06,0-.1-.54,13.2-.9,21.23-.9,21.23h0c0,.38,0,.63,0,.63l2.8.28-.46,6.26,3.79.35c-3.81,3.51-9.65.36-16.17,1.64a7.13,7.13,0,0,0-1.85.74h0c-2.57.48-6,2.14-9.21,4.14l-1.14-.45c-.31.57-.58,1.14-.85,1.71a53.9,53.9,0,0,0-8.33,6.61h-10.6a44.87,44.87,0,0,1,5.9-6.72L593.53,1048a29.85,29.85,0,0,0-6.24,10.34,58.7,58.7,0,0,1-.16-9.73l-14.58,6.51a38.56,38.56,0,0,0,.81,5.36H502.2l-3.53,143h0l-3.15,64.38h6.4l9.1-13.44h13l-.63,13.44h6.13l8.73-13.44H668.39l8.21,13.44h5.76l-1.89-17.92h8.72l10.94,17.92h5.76l-6.86-65h0l-3-32.71,5-14.06a37.47,37.47,0,0,0-6.7-4.43l-.34-3.72a37.84,37.84,0,0,0,6.37-5.54l-7.9-11.74,0,.06L686,1060.45H674a58.65,58.65,0,0,0,2.17-11.91l2.88.27.56-6,4.14.41s.34-1.9.93-5.23c1.53-7.58,4.78-23.71,8.43-41.91,1.28,13.59,2.21,26.18,3.08,36.68.2,2.38.39,4.66.59,6.81.1,1.08.19,2.13.29,3.14,1.28,13.21,2.64,21.09,5,20.18.18-.07.36-.16.55-.25l0,0h0a13,13,0,0,0,2-1.34c.21,1,.42,2,.64,3,.06.28.13.57.19.85.25,1.15.5,2.32.77,3.52.06.26.12.52.17.79q1,4.47,2.13,9.35c0,.1.05.2.07.29.35,1.52.72,3.07,1.09,4.65,0,.23.11.46.16.69.37,1.56.74,3.15,1.13,4.76l.09.37q1.27,5.37,2.67,11a.43.43,0,0,0,0,.11h0c13.87,56.7,34.69,133.28,40.51,154.56-5.23,2.18-17.19,12.58-17.19,12.58h23.3a44,44,0,0,0-1.59-9.38c.7-22.81,6.06-195.34,9.22-201.23,1-1.81,6.66-7.35,7.68-5.36,2,3.81,19,56.51,19,56.51l-25.84,137c-2.81,2.23-7.25,9.49-7.25,9.49l11.29,11.28h13a36.28,36.28,0,0,1-14-17.75c11.13-20.31,68-124.38,68.76-133C841.29,1108.76,832.74,1057.31,823.86,1021.07Z"/><path class="cls-77" d="M934.49,840.44s16.79-55.09,33.35-80.78c1.3-3.35,2.55-6,3.64-7.22,2.85-3.26,23.1-16,48.21-23.44h0l0-.29,1-.43.17-1.52,6.36-4.65.68,1.36,9.17-16.54c-7.72-4-14-8.54-16.7-12.46,0,0,16.62-32.85,34.54-59.11a23.79,23.79,0,0,1-2.35-5.67l3.5-2.44a37.31,37.31,0,0,1,2.49,2.89c6.51-9.11,13-17,18.91-21.83h0c-4.23-17.32,52.14-20,78,43l0,.1q.64,1.56,1.26,3.18l.15.4c.37,1,.73,2,1.09,3l.24.66c.32,1,.64,1.92,1,2.9.1.29.2.58.29.88.29.93.57,1.88.85,2.83.11.35.21.7.32,1.05.27,1,.53,1.94.79,2.92.1.36.2.71.29,1.07.35,1.35.68,2.71,1,4.1l-11.25-.48-2.19,8.3c-.32,3.33-.64,6.39-.93,8.71l-9.85-1.15-9,5.66-30.07,16.88-.61,1.48-4.68,11.31.39-.08,2.93,7.83-2.41,1,5.7,4h0a120.37,120.37,0,0,1,10.7,7.15l.13.1c1,.77,2,1.53,3,2.3,5,1.51,10.06,5.27,14.82,11.87l.18.26c.48.67,1,1.36,1.42,2.09l.39.6c.53.85,1.06,1.72,1.59,2.64,29.46,51.75,26.41,122.53,24.95,133.54-.52,3.84-9,13.72-19.89,24.94l20.56,24.82-66,66.81-3.48-.18-5.83,231.09c4.18,2.14,11,8.34,11,8.34h-18.1s-.86-8.71,4.18-9.07l-71-176.57L985,1248.48a15.92,15.92,0,0,1,1.6,5.79h-25s16.08-7.75,21.16-7.55c-.16-.89-.33-1.77-.49-2.65h0C949.18,1066.73,946.73,963.56,947,930.23l-.41-5.19c-2.29-1.17-3.84-2.22-4.45-3.11l1.64-13.57C917.39,899.94,934.49,840.44,934.49,840.44Z"/></g></g></g></svg>