<svg xmlns="http://www.w3.org/2000/svg" viewBox="0 0 150.15 294.5"><defs><style>.cls-1{isolation:isolate;}.cls-2{opacity:0.17;mix-blend-mode:multiply;}.cls-3{fill:#212121;}.cls-4{fill:#fafafa;}</style></defs><g class="cls-1"><g id="OBJECTS"><g class="cls-2"><path class="cls-3" d="M152.9,650.45l-15.23,2.79a413.47,413.47,0,0,1-3.38-199l44.94,14A383.69,383.69,0,0,0,152.9,650.45Z" transform="translate(-106.29 -427.17)"/><path class="cls-3" d="M179.72,686.52c4,13.61-2.43,28.56-15.54,33.66s-28.57-3.33-33.26-19.16,3.68-31.21,17.43-34.09S175.65,672.92,179.72,686.52Z" transform="translate(-106.29 -427.17)"/></g><g class="cls-2"><path class="cls-3" d="M228.43,641.87l-15.23,2.79a413.72,413.72,0,0,1-3.38-199l44.94,14A383.67,383.67,0,0,0,228.43,641.87Z" transform="translate(-106.29 -427.17)"/><path class="cls-3" d="M255.25,677.94c4,13.61-2.42,28.55-15.54,33.66s-28.57-3.33-33.26-19.16,3.69-31.21,17.43-34.09S251.19,664.34,255.25,677.94Z" transform="translate(-106.29 -427.17)"/></g><path class="cls-4" d="M137.87,635.17,122.63,638a413.59,413.59,0,0,1-3.37-199l44.93,14A383.66,383.66,0,0,0,137.87,635.17Z" transform="translate(-106.29 -427.17)"/><path class="cls-4" d="M164.69,671.24c4,13.61-2.43,28.55-15.54,33.66s-28.57-3.33-33.27-19.16,3.69-31.22,17.43-34.09S160.62,657.64,164.69,671.24Z" transform="translate(-106.29 -427.17)"/><path class="cls-4" d="M213.4,626.58l-15.23,2.79a413.47,413.47,0,0,1-3.38-199l44.94,14A383.69,383.69,0,0,0,213.4,626.58Z" transform="translate(-106.29 -427.17)"/><path class="cls-4" d="M240.22,662.65c4,13.61-2.43,28.56-15.54,33.66s-28.57-3.32-33.26-19.16,3.68-31.21,17.43-34.09S236.16,649.05,240.22,662.65Z" transform="translate(-106.29 -427.17)"/><path class="cls-3" d="M140.36,634.92a382.44,382.44,0,0,1,26.15-181.07l1-2.52-50.12-15.57-.6,2.63a417.62,417.62,0,0,0,3.4,200.21l.59,2.23,19.77-3.62Zm-15.9.16a412.73,412.73,0,0,1-3.36-192.94l39.76,12.35a387.69,387.69,0,0,0-25.7,178.63Z" transform="translate(-106.29 -427.17)"/><path class="cls-3" d="M167.08,670.52c-4.49-15-19.55-24.41-34.28-21.32a25.26,25.26,0,0,0-16.56,12.08,32.76,32.76,0,0,0,13.41,44.86,27.38,27.38,0,0,0,4.46,1.73,24.71,24.71,0,0,0,15.94-.64c14-5.46,21.5-21.58,17-36.7Zm-18.84,32.05a20.25,20.25,0,0,1-16.39-.92,27.76,27.76,0,0,1-11.31-37.81,20.34,20.34,0,0,1,13.29-9.75,23.07,23.07,0,0,1,11.15.45A25.77,25.77,0,0,1,162.29,672C166,684.6,159.85,698.05,148.24,702.57Z" transform="translate(-106.29 -427.17)"/><path class="cls-3" d="M215.89,626.34A382.56,382.56,0,0,1,242,445.27l1-2.53L193,427.17l-.6,2.63A417.79,417.79,0,0,0,195.75,630l.6,2.23,19.76-3.62Zm-15.9.16a412.77,412.77,0,0,1-3.36-192.95l39.76,12.36A387.53,387.53,0,0,0,210.7,624.54Z" transform="translate(-106.29 -427.17)"/><path class="cls-3" d="M242.62,662h0c-4.5-15.05-19.56-24.41-34.29-21.32a25.21,25.21,0,0,0-16.55,12.08,32.75,32.75,0,0,0,13.4,44.86,28.43,28.43,0,0,0,4.47,1.73,24.65,24.65,0,0,0,15.94-.65C239.6,693.19,247.08,677.07,242.62,662Zm-18.85,32a20.25,20.25,0,0,1-16.39-.92,27.76,27.76,0,0,1-11.31-37.81,20.31,20.31,0,0,1,13.29-9.75,22.94,22.94,0,0,1,11.15.45,25.76,25.76,0,0,1,17.31,17.4C241.56,676,235.39,689.46,223.77,694Z" transform="translate(-106.29 -427.17)"/></g></g></svg>