<svg xmlns="http://www.w3.org/2000/svg" viewBox="0 0 296.85 326.98"><defs><style>.cls-1{isolation:isolate;}.cls-2,.cls-4{fill:#212121;}.cls-2{opacity:0.21;mix-blend-mode:multiply;}.cls-3{fill:#fafafa;}</style></defs><g class="cls-1"><g id="OBJECTS"><polygon class="cls-2" points="289.54 40 113.36 65.91 108.09 30.05 8.98 106.67 125.95 151.51 120.68 115.65 296.86 89.74 289.54 40"/><polygon class="cls-3" points="285.82 14.74 109.64 40.65 104.37 4.79 5.26 81.41 122.24 126.25 116.96 90.39 293.14 64.48 285.82 14.74"/><path class="cls-4" d="M474.32,232.94l106.3-82.18,5.54,37.69,176.18-25.92,8.08,54.9L594.24,243.35,599.78,281Zm102.44-72.61L484.84,231.4,593.33,273l-5-34L764.5,213l-6.56-44.58L581.76,194.37Z" transform="translate(-474.32 -150.76)"/><path class="cls-3" d="M698.48,299.45a13,13,0,0,0-2.68-18.24l-.27-.18a13,13,0,0,0-21.25-14.36A13,13,0,0,0,650,271a13,13,0,0,0-7.27,23.47,12.86,12.86,0,0,0,3,1.66,13,13,0,0,0,20.86,15.42,13,13,0,0,0,15-4.44,13.17,13.17,0,0,0,1.79-3.31A13,13,0,0,0,698.48,299.45Z" transform="translate(-474.32 -150.76)"/><path class="cls-4" d="M648,314.88a14.93,14.93,0,0,1-4.88-17.81,13.36,13.36,0,0,1-1.53-1,15,15,0,0,1,6.81-26.85,15.21,15.21,0,0,1,2.48-5.18,15,15,0,0,1,21-3.08,14.67,14.67,0,0,1,2.85,2.77,15,15,0,0,1,23.18,16.64,15,15,0,0,1-13.41,25.83,14.93,14.93,0,0,1-17.3,7.6A14.9,14.9,0,0,1,648,314.88Zm.6-19.68-1.18,2a11.09,11.09,0,0,0,17.74,13.12l.89-1,1.24.46A11.14,11.14,0,0,0,680,306a11.43,11.43,0,0,0,1.52-2.82l.67-1.86,1.85.71a11.08,11.08,0,0,0,10.58-19.24l-.24-.16-1.3-.92.65-1.46A11.08,11.08,0,0,0,675.68,268l-1.83,1.88-1.27-2.3a11.08,11.08,0,0,0-20.65,3.72l-.23,1.59-1.61.06a11.08,11.08,0,0,0-6.19,20,11.29,11.29,0,0,0,2.56,1.41Z" transform="translate(-474.32 -150.76)"/><path class="cls-3" d="M650.45,396.54A16.74,16.74,0,0,0,647,373.13a17.3,17.3,0,0,0-3.67-2.05A16.72,16.72,0,0,0,616.63,352a16.73,16.73,0,1,0-24.18,22.25,15.81,15.81,0,0,0,1.67,1.08A16.69,16.69,0,0,0,610.29,400a16.36,16.36,0,0,0,3.9,4.12,16.72,16.72,0,0,0,21.13-.95A16.69,16.69,0,0,0,650.45,396.54Z" transform="translate(-474.32 -150.76)"/><path class="cls-4" d="M597.3,398.8a19.31,19.31,0,0,1-6.37-22.55,19.23,19.23,0,0,1,23-30.85,18.91,18.91,0,0,1,3.19,3,19.23,19.23,0,0,1,29.4,21.43,17.29,17.29,0,0,1,2,1.3,19.21,19.21,0,0,1-12.35,34.62,19.28,19.28,0,0,1-23.45.39,18.87,18.87,0,0,1-3.64-3.56A19.17,19.17,0,0,1,597.3,398.8Zm.19-24.4-1.18,2.15a14.19,14.19,0,0,0,13.75,21l1.48-.13.82,1.23a14.18,14.18,0,0,0,21.29,2.7l.82-.74,1.1.12a14.22,14.22,0,0,0,9.95-25.56,14.53,14.53,0,0,0-3.13-1.74l-2.41-1,1.08-2.37a14.21,14.21,0,0,0-22.71-16.22l-2.23,2.11-1.62-2.6a14.09,14.09,0,0,0-3.58-3.91,14.23,14.23,0,1,0-17,22.83,13.72,13.72,0,0,0,1.43.93Z" transform="translate(-474.32 -150.76)"/><path class="cls-3" d="M620.78,457.38a11.86,11.86,0,0,0-10.65-21.17,11.85,11.85,0,0,0-20.62-2.88,11.27,11.27,0,0,0-1,1.54A11.86,11.86,0,0,0,576.17,455a5.91,5.91,0,0,0,.52.35,11.86,11.86,0,0,0,18.13,13.37,11.81,11.81,0,0,0,6,1.45,11.87,11.87,0,1,0,20-12.79Z" transform="translate(-474.32 -150.76)"/><path class="cls-4" d="M579.82,470a13.63,13.63,0,0,1-5.17-13.91,13.64,13.64,0,0,1,13.18-23.44c.08-.12.17-.25.26-.36a13.64,13.64,0,0,1,23,1.71,13.64,13.64,0,0,1,12.09,23.95,13.64,13.64,0,0,1-23.33,14,13.53,13.53,0,0,1-4.89-1.17A13.61,13.61,0,0,1,579.82,470Zm-1-15.36-.42,1.28a10.09,10.09,0,0,0,15.43,11.37l.9-.64,1,.53a10,10,0,0,0,5.08,1.24l1,0,.53.89A9.93,9.93,0,0,0,605,472.2a10.09,10.09,0,0,0,14.34-13.82l-1.1-1.59,1.68-1a10,10,0,0,0,3.1-2.75,10.09,10.09,0,0,0-12.16-15.26l-1.71.75-.66-1.75a10,10,0,0,0-3.41-4.52,10.11,10.11,0,0,0-14.13,2.07,11.4,11.4,0,0,0-.81,1.32l-.81,1.53-1.55-.78a10.09,10.09,0,0,0-10.53,17.13l.25.17Z" transform="translate(-474.32 -150.76)"/><path class="cls-3" d="M581.72,313.38a7.5,7.5,0,0,0-1.23-.75,9.46,9.46,0,0,0,.77-.89A8.36,8.36,0,0,0,568,301.56a8.28,8.28,0,0,0-2.66-3.36,8.36,8.36,0,1,0-10,13.42,8.06,8.06,0,0,0,2.53,1.28,8.36,8.36,0,0,0,10.91,9.8,8.36,8.36,0,1,0,12.93-9.32Z" transform="translate(-474.32 -150.76)"/><path class="cls-4" d="M560.29,322.52a9.6,9.6,0,0,1-3.82-8.81,9.38,9.38,0,0,1-1.87-1.08,9.61,9.61,0,1,1,11.47-15.43,9.12,9.12,0,0,1,2.19,2.28,9.61,9.61,0,0,1,14.13,12.83l.08.07A9.61,9.61,0,0,1,571,327.81a9.48,9.48,0,0,1-3-3.61A9.62,9.62,0,0,1,560.29,322.52Zm-.93-10.47-.26,1.13a7.12,7.12,0,0,0,9.28,8.34l1.2-.42.4,1.21a7.11,7.11,0,1,0,11-7.93,7,7,0,0,0-1.05-.64l-1.54-.77,1.21-1.22a7.63,7.63,0,0,0,.65-.75A7.11,7.11,0,0,0,569,302.34L567.68,304l-.83-1.91a7.21,7.21,0,0,0-2.27-2.86,7.12,7.12,0,0,0-8.49,11.42,7.2,7.2,0,0,0,2.16,1.09Z" transform="translate(-474.32 -150.76)"/></g></g></svg>