<svg xmlns="http://www.w3.org/2000/svg" xmlns:xlink="http://www.w3.org/1999/xlink" viewBox="0 0 499.14 258.29"><defs><style>.cls-1{isolation:isolate;}.cls-14,.cls-15,.cls-16,.cls-17,.cls-18,.cls-19,.cls-2,.cls-20,.cls-21,.cls-22,.cls-23,.cls-4,.cls-5,.cls-6,.cls-7,.cls-9{fill-rule:evenodd;}.cls-2{fill:url(#Áåçûìÿííûé_ãðàäèåíò_59);}.cls-3{fill:url(#Áåçûìÿííûé_ãðàäèåíò_181);}.cls-4{fill:url(#Áåçûìÿííûé_ãðàäèåíò_454);}.cls-5{fill:url(#Áåçûìÿííûé_ãðàäèåíò_454-2);}.cls-6{fill:url(#Áåçûìÿííûé_ãðàäèåíò_59-2);}.cls-11,.cls-7{mix-blend-mode:screen;}.cls-7{fill:url(#Áåçûìÿííûé_ãðàäèåíò_163);}.cls-12,.cls-23,.cls-8{opacity:0.2;}.cls-8{mix-blend-mode:soft-light;}.cls-9{fill:#e6ddda;}.cls-10,.cls-23{fill:#894065;}.cls-10{opacity:0.5;}.cls-10,.cls-12,.cls-23{mix-blend-mode:multiply;}.cls-11{fill:url(#Áåçûìÿííûé_ãðàäèåíò_163-2);}.cls-12{fill:url(#Áåçûìÿííûé_ãðàäèåíò_180);}.cls-13,.cls-18{fill:#fff;}.cls-14{fill:url(#Áåçûìÿííûé_ãðàäèåíò_59-3);}.cls-15{fill:url(#Áåçûìÿííûé_ãðàäèåíò_129);}.cls-16{fill:url(#Áåçûìÿííûé_ãðàäèåíò_132);}.cls-17{fill:url(#Áåçûìÿííûé_ãðàäèåíò_132-2);}.cls-19{fill:url(#Áåçûìÿííûé_ãðàäèåíò_129-2);}.cls-20{fill:url(#Áåçûìÿííûé_ãðàäèåíò_59-4);}.cls-21{fill:url(#Áåçûìÿííûé_ãðàäèåíò_179);}.cls-22{fill:url(#Áåçûìÿííûé_ãðàäèåíò_59-5);}</style><linearGradient id="Áåçûìÿííûé_ãðàäèåíò_59" x1="248.36" y1="254.07" x2="248.36" gradientUnits="userSpaceOnUse"><stop offset="0" stop-color="#e26221"/><stop offset="1" stop-color="#f98336"/></linearGradient><linearGradient id="Áåçûìÿííûé_ãðàäèåíò_181" x1="250.11" y1="246.85" x2="250.11" y2="9.44" gradientUnits="userSpaceOnUse"><stop offset="0.01" stop-color="#184a4f"/><stop offset="0.97" stop-color="#598c66"/></linearGradient><linearGradient id="Áåçûìÿííûé_ãðàäèåíò_454" x1="18.21" y1="246.85" x2="18.21" y2="9.44" gradientUnits="userSpaceOnUse"><stop offset="0.02" stop-color="#9d3821"/><stop offset="0.99" stop-color="#791d36"/></linearGradient><linearGradient id="Áåçûìÿííûé_ãðàäèåíò_454-2" x1="477.96" y1="246.85" x2="477.96" y2="9.44" xlink:href="#Áåçûìÿííûé_ãðàäèåíò_454"/><linearGradient id="Áåçûìÿííûé_ãðàäèåíò_59-2" x1="0" y1="254.07" x2="499.14" y2="254.07" xlink:href="#Áåçûìÿííûé_ãðàäèåíò_59"/><linearGradient id="Áåçûìÿííûé_ãðàäèåíò_163" x1="471.43" y1="258.29" x2="471.43" y2="249.92" gradientUnits="userSpaceOnUse"><stop offset="0"/><stop offset="1" stop-color="#ff6b2c"/></linearGradient><linearGradient id="Áåçûìÿííûé_ãðàäèåíò_163-2" x1="422.63" y1="9.44" x2="422.63" y2="0" xlink:href="#Áåçûìÿííûé_ãðàäèåíò_163"/><linearGradient id="Áåçûìÿííûé_ãðàäèåíò_180" x1="787.6" y1="417.58" x2="787.6" y2="298.87" gradientTransform="matrix(1, 0, 0, -1, -539.75, 545.72)" gradientUnits="userSpaceOnUse"><stop offset="0.56" stop-color="#ced4c5"/><stop offset="1" stop-color="#890041"/></linearGradient><linearGradient id="Áåçûìÿííûé_ãðàäèåíò_59-3" x1="957.72" y1="645.66" x2="957.72" y2="597.2" xlink:href="#Áåçûìÿííûé_ãðàäèåíò_59"/><linearGradient id="Áåçûìÿííûé_ãðàäèåíò_129" x1="955.79" y1="645.66" x2="955.79" y2="597.2" gradientUnits="userSpaceOnUse"><stop offset="0" stop-color="#ff9a5c"/><stop offset="1" stop-color="#ffb88b"/></linearGradient><linearGradient id="Áåçûìÿííûé_ãðàäèåíò_132" x1="858.14" y1="646.54" x2="858.65" y2="636.45" gradientUnits="userSpaceOnUse"><stop offset="0" stop-color="#fdcdd3"/><stop offset="1" stop-color="#ffeacd"/></linearGradient><linearGradient id="Áåçûìÿííûé_ãðàäèåíò_132-2" x1="821.84" y1="646.05" x2="822.41" y2="634.73" xlink:href="#Áåçûìÿííûé_ãðàäèåíò_132"/><linearGradient id="Áåçûìÿííûé_ãðàäèåíò_129-2" x1="51.72" y1="246.85" x2="51.72" y2="66.91" xlink:href="#Áåçûìÿííûé_ãðàäèåíò_129"/><linearGradient id="Áåçûìÿííûé_ãðàäèåíò_59-4" x1="45.23" y1="246.85" x2="45.23" y2="70.63" xlink:href="#Áåçûìÿííûé_ãðàäèåíò_59"/><linearGradient id="Áåçûìÿííûé_ãðàäèåíò_179" x1="590.26" y1="571.62" x2="590.26" y2="522.2" gradientUnits="userSpaceOnUse"><stop offset="0" stop-color="#ff9a5c"/><stop offset="1" stop-color="#ffcf8b"/></linearGradient><linearGradient id="Áåçûìÿííûé_ãðàäèåíò_59-5" x1="588.73" y1="571.62" x2="588.73" y2="522.64" xlink:href="#Áåçûìÿííûé_ãðàäèåíò_59"/></defs><g class="cls-1"><g id="Capa_9" data-name="Capa 9"><polygon class="cls-2" points="13.15 254.07 6.96 0 489.76 0 484.71 254.07 13.15 254.07"/><polygon class="cls-3" points="16.19 9.44 17.45 246.85 474.81 246.85 484.04 9.44 16.19 9.44"/><polygon class="cls-4" points="17.45 246.85 16.19 9.44 20.23 9.44 19.23 246.85 17.45 246.85"/><polygon class="cls-5" points="484.04 9.44 479.74 9.44 471.87 246.85 474.81 246.85 484.04 9.44"/><polygon class="cls-6" points="0 250.54 1.92 258.29 499.14 258.29 499.14 249.86 0 250.54"/><polygon class="cls-7" points="453.09 249.92 455.61 258.29 489.76 258.29 489.76 249.92 453.09 249.92"/><g class="cls-8"><path class="cls-9" d="M768.61,496.17c1.19-.07,2.6-.4,1.61-1.85a1.76,1.76,0,0,0-2.65-.09c-.18.17-.53.41-.59.69-.23,1,1.4,1.42,2,1.68Z" transform="translate(-539.75 -395.6)"/><path class="cls-9" d="M775.77,497.17a2.66,2.66,0,0,0-1.09,0,6.82,6.82,0,0,0-1.1.18,3.6,3.6,0,0,0-1.59,1.14c-.6.86-.07,1.63.59,2.28a.21.21,0,0,0-.07.11,1,1,0,0,0,.56,1.21,2.72,2.72,0,0,0,1.67,0c.29-.05.59-.09.88-.16a.55.55,0,0,0,.32-.2,6,6,0,0,0,2,.24c.66-.1,1.53-.25,1.4-1a5.56,5.56,0,0,0-1.32-2.14c-.35-.43-.81-.73-1.14-1.09s-.23-.45-.57-.55S776,497.2,775.77,497.17Z" transform="translate(-539.75 -395.6)"/><path class="cls-9" d="M773.12,495.18c.3.19,1.81,1.33,2,.35a1.82,1.82,0,0,0-.47-1.13,1,1,0,0,0-1.74.66l.18.12Z" transform="translate(-539.75 -395.6)"/><path class="cls-9" d="M788.26,498.88c.93-.67,1.83-1.38,2.69-2.14-.15,0,0-.47,0-.6a1.1,1.1,0,0,0-.17-.52,1.75,1.75,0,0,0-1.44-.5,2.35,2.35,0,0,0-2,1.53,2.4,2.4,0,0,0-.3,1.29,1.3,1.3,0,0,0,.2.63,1.12,1.12,0,0,0,.57.39,1.5,1.5,0,0,0,1.35.09c.12-.08.37-.37.32-.55s-.44-.48-.48-.1Z" transform="translate(-539.75 -395.6)"/><path class="cls-9" d="M805.94,501.26a11.27,11.27,0,0,1,1.6-2.36c0,.32.21.42.33.67a.73.73,0,0,1,.06.54.93.93,0,0,1-.1.56c-.12.21-.33.32-.47.48s-.15.23-.4.32a.51.51,0,0,1-.57,0c-.22-.14-.82-.58-.54-.92Z" transform="translate(-539.75 -395.6)"/><path class="cls-9" d="M928.34,459.72a11.15,11.15,0,0,1,1.6-2.36c0,.32.21.42.33.67a.73.73,0,0,1,.06.54.93.93,0,0,1-.1.56,3.11,3.11,0,0,1-.48.48c-.16.19-.14.23-.39.32a.51.51,0,0,1-.57,0c-.22-.13-.82-.58-.54-.92Z" transform="translate(-539.75 -395.6)"/><path class="cls-9" d="M902.07,497.07a11.15,11.15,0,0,1,1.6-2.36c0,.32.21.42.33.67a.73.73,0,0,1,.06.54.93.93,0,0,1-.1.56,3.11,3.11,0,0,1-.48.48c-.16.19-.14.23-.39.32a.51.51,0,0,1-.57,0c-.22-.13-.82-.58-.54-.92Z" transform="translate(-539.75 -395.6)"/><path class="cls-9" d="M828.52,487.35c1.34.33,2.69.6,4,.81-.18-.07,0-.52-.1-.74s-.1-.46-.18-.68a10.59,10.59,0,0,0-.47-1.22c-.49-1-1.62-.89-2.54-.86a2.26,2.26,0,0,0-2.2,1.37c-.13.43.19.84.45,1.15a1.75,1.75,0,0,0,.46.48,6.16,6.16,0,0,0,.63.41Z" transform="translate(-539.75 -395.6)"/><path class="cls-9" d="M881.25,482.25c1.34.33,2.68.6,4,.81-.18-.07,0-.52-.11-.74s-.09-.46-.17-.68a13,13,0,0,0-.47-1.23c-.49-1-1.62-.88-2.54-.85a2.23,2.23,0,0,0-2.2,1.37c-.13.43.19.83.44,1.14a1.79,1.79,0,0,0,.47.48,4.25,4.25,0,0,0,.63.41Z" transform="translate(-539.75 -395.6)"/><path class="cls-9" d="M821,463.46c1.33.33,2.68.61,4,.82-.19-.08,0-.52-.11-.74s-.09-.46-.17-.69a12.81,12.81,0,0,0-.47-1.22c-.5-1-1.63-.88-2.55-.85a2.25,2.25,0,0,0-2.2,1.37c-.13.42.19.83.45,1.14a2.11,2.11,0,0,0,.46.48,4.34,4.34,0,0,0,.64.41Z" transform="translate(-539.75 -395.6)"/><path class="cls-9" d="M921.88,458.38c1.33.33,2.68.6,4,.82-.19-.08,0-.52-.11-.75s-.09-.46-.17-.68a10.65,10.65,0,0,0-.48-1.22c-.49-1-1.62-.89-2.54-.85a2.25,2.25,0,0,0-2.2,1.37c-.13.42.19.83.45,1.14a2.11,2.11,0,0,0,.46.48,5.35,5.35,0,0,0,.64.41Z" transform="translate(-539.75 -395.6)"/><path class="cls-9" d="M863.64,452.05c1.33.33,2.68.6,4,.82-.19-.08,0-.52-.11-.75s-.1-.46-.17-.68a12.87,12.87,0,0,0-.48-1.22c-.49-1-1.62-.89-2.54-.85a2.25,2.25,0,0,0-2.2,1.37c-.13.42.19.83.45,1.14a2.11,2.11,0,0,0,.46.48,5.35,5.35,0,0,0,.64.41Z" transform="translate(-539.75 -395.6)"/><path class="cls-9" d="M835.83,491.81a3.52,3.52,0,0,0-1.31,3.55c.31.94,1.1,1,1.87.7l.19,0a1,1,0,0,0,.57-.2,1.3,1.3,0,0,0,.45-.19,1.76,1.76,0,0,0,.67-1.64,3.42,3.42,0,0,0-.6-2.1A1.38,1.38,0,0,0,835.83,491.81Z" transform="translate(-539.75 -395.6)"/><path class="cls-9" d="M822.11,498.09c.6.23,1.62.35,1.75-.56.06-.4-.34-.48-.65-.47s-.22,0-.4.12a3.84,3.84,0,0,0-.29.27c-.21.27,0,.67.16.89Z" transform="translate(-539.75 -395.6)"/><path class="cls-9" d="M816.73,491.25a1.33,1.33,0,0,0,.52.35c.22-.15.47-.14.61-.43a1,1,0,0,0-.14-.95c-.24-.25-.6-.05-.84.09s-.57.34-.45.78a1,1,0,0,0,.71.75Z" transform="translate(-539.75 -395.6)"/><path class="cls-9" d="M899.2,498.21a1.23,1.23,0,0,0,.52.35c.22-.15.47-.14.61-.42a1,1,0,0,0-.14-1c-.24-.25-.6,0-.84.1s-.57.33-.46.77a1.07,1.07,0,0,0,.72.75Z" transform="translate(-539.75 -395.6)"/><path class="cls-9" d="M891.25,492a1.33,1.33,0,0,0,.53.35c.22-.15.47-.14.61-.42a1,1,0,0,0-.14-1c-.24-.25-.6,0-.84.1s-.57.33-.46.77a1.07,1.07,0,0,0,.72.75Z" transform="translate(-539.75 -395.6)"/><path class="cls-9" d="M821.13,466.5a1.15,1.15,0,0,0,.52.35c.22-.15.47-.13.61-.42a1,1,0,0,0-.14-1c-.24-.24-.6,0-.84.1s-.57.34-.46.77a1.07,1.07,0,0,0,.72.75Z" transform="translate(-539.75 -395.6)"/><path class="cls-9" d="M795.07,493.88a2.43,2.43,0,0,0-1.24.2l-.33.16-.06,0a2.42,2.42,0,0,0-1.14.49,3.65,3.65,0,0,0-1.32,2.18,3.32,3.32,0,0,0,.59,2.39c.19.21.38.42.58.62a3.27,3.27,0,0,0,1.59.7l1,.25a3.29,3.29,0,0,0,3-1.17,3.36,3.36,0,0,0,.7-1.59,3.28,3.28,0,0,0-.19-1.67c-.06-.17-.11-.34-.17-.52a2.38,2.38,0,0,0-.69-1,2.95,2.95,0,0,0-2.31-1Z" transform="translate(-539.75 -395.6)"/><path class="cls-9" d="M816.2,457.26a2.39,2.39,0,0,0-1.23.2l-.34.16h-.06a2.54,2.54,0,0,0-1.14.5,2.43,2.43,0,0,0-.84,1,2.46,2.46,0,0,0-.48,1.22,3.32,3.32,0,0,0,.59,2.39l.58.62a3.27,3.27,0,0,0,1.59.7l1,.25a3.28,3.28,0,0,0,3-1.17,3.26,3.26,0,0,0,.7-1.6,3.35,3.35,0,0,0-.18-1.66l-.18-.52a2.38,2.38,0,0,0-.69-1,2.43,2.43,0,0,0-1-.77A2.54,2.54,0,0,0,816.2,457.26Z" transform="translate(-539.75 -395.6)"/><path class="cls-9" d="M799.56,493.66a.34.34,0,0,0-.24,0,.38.38,0,0,0-.13.22,1.53,1.53,0,0,0,.37,1.38.22.22,0,0,0,0,.14.33.33,0,0,0,.42.19s0,0,0,0h.17a.32.32,0,0,0,.43-.16A1.35,1.35,0,0,0,799.56,493.66Z" transform="translate(-539.75 -395.6)"/><path class="cls-9" d="M779.18,480.31a.35.35,0,0,0-.24.06.38.38,0,0,0-.13.21,1.52,1.52,0,0,0,.37,1.38.32.32,0,0,0,0,.14.34.34,0,0,0,.42.19s0,0,0,0h.14l0,0a.33.33,0,0,0,.43-.17A1.34,1.34,0,0,0,779.18,480.31Z" transform="translate(-539.75 -395.6)"/><path class="cls-9" d="M721.4,508.8a.35.35,0,0,0-.24.06.38.38,0,0,0-.13.22,1.5,1.5,0,0,0,.37,1.37.32.32,0,0,0,0,.14.33.33,0,0,0,.42.19s0,0,0,0H722a.33.33,0,0,0,.43-.17A1.35,1.35,0,0,0,721.4,508.8Z" transform="translate(-539.75 -395.6)"/><path class="cls-9" d="M758.45,464.07a.33.33,0,0,0-.37.28,1.5,1.5,0,0,0,.36,1.37.32.32,0,0,0,0,.14.34.34,0,0,0,.43.19H759a.34.34,0,0,0,.43-.17A1.35,1.35,0,0,0,758.45,464.07Z" transform="translate(-539.75 -395.6)"/><path class="cls-9" d="M742.38,500.5a.34.34,0,0,0-.24.06.4.4,0,0,0-.14.22,1.51,1.51,0,0,0,.37,1.37.32.32,0,0,0,0,.14.33.33,0,0,0,.42.19h.12l0,0a.35.35,0,0,0,.44-.17A1.35,1.35,0,0,0,742.38,500.5Z" transform="translate(-539.75 -395.6)"/><path class="cls-9" d="M802.53,494.93a.4.4,0,0,0-.32.06.82.82,0,0,0-.3.49.67.67,0,0,0,0,.28.27.27,0,0,0-.12.09.34.34,0,0,0-.07.24.3.3,0,0,0,.12.22.34.34,0,0,0,.24.07,1.16,1.16,0,0,0,1-.71.48.48,0,0,0,0-.33.67.67,0,0,0-.19-.22A.89.89,0,0,0,802.53,494.93Z" transform="translate(-539.75 -395.6)"/><path class="cls-9" d="M791.23,488.81c-.68.06-1.7.14-2,.88a1.91,1.91,0,0,0,.61,1.95,3.14,3.14,0,0,0,1.73.84,2.74,2.74,0,0,0,.5,0,1.88,1.88,0,0,0,1.49-.06,1.84,1.84,0,0,0,1-1.71,1.91,1.91,0,0,0-1.12-1.62A4.17,4.17,0,0,0,791.23,488.81Z" transform="translate(-539.75 -395.6)"/><path class="cls-9" d="M767.05,476.94c-.68.05-1.7.13-2,.88a1.9,1.9,0,0,0,.61,1.94,3.15,3.15,0,0,0,1.73.85,4.07,4.07,0,0,0,.5,0,1.88,1.88,0,0,0,1.49-.06,1.83,1.83,0,0,0,1-1.71,1.9,1.9,0,0,0-1.12-1.61A4.08,4.08,0,0,0,767.05,476.94Z" transform="translate(-539.75 -395.6)"/><path class="cls-9" d="M768.15,499.72h0Z" transform="translate(-539.75 -395.6)"/><path class="cls-9" d="M769.54,499a1.83,1.83,0,0,0-1,.2.69.69,0,0,0-.53-.16,1,1,0,0,0-.76.63,1.06,1.06,0,0,0,.24,1,2,2,0,0,0,2,.6,1.27,1.27,0,0,0,.88-1.58A1,1,0,0,0,769.54,499Zm12.88-40.34a1.83,1.83,0,0,0-1,.2.65.65,0,0,0-.53-.16,1,1,0,0,0-.76.62,1.08,1.08,0,0,0,.24,1,2,2,0,0,0,2,.6,1.27,1.27,0,0,0,.88-1.58A1,1,0,0,0,782.42,458.68Zm-14,41.88-.08,0h0l-.07-.05a1,1,0,0,1-.15-.14l0-.05,0,0s0-.08,0-.05l0-.06s0-.1,0-.06a.28.28,0,0,1,0-.09h0v0c0,.06,0,0,0,0v0h0l.06-.06,0,0h.11s0,0,0,0h0a.06.06,0,0,0,0,0,.24.24,0,0,0,.1.13l0,.11h0a.28.28,0,0,0,0,.15,1.26,1.26,0,0,0,.17.35.86.86,0,0,0,.2.18l-.07,0-.07,0A1.21,1.21,0,0,1,768.37,500.56Z" transform="translate(-539.75 -395.6)"/><path class="cls-9" d="M802.56,497.54a.76.76,0,0,0-.61.4.72.72,0,0,0-.08.22.86.86,0,0,0,0,.5.84.84,0,0,0,.28.34.27.27,0,0,0,.1.08.76.76,0,0,0,.47.06.93.93,0,0,0,.29-.12.9.9,0,0,0,.19-.15.81.81,0,0,0,.22-.42.83.83,0,0,0-.11-.51.89.89,0,0,0-.34-.3A.87.87,0,0,0,802.56,497.54Z" transform="translate(-539.75 -395.6)"/><path class="cls-9" d="M812,502.16a.33.33,0,0,0,.6.26A.33.33,0,0,0,812,502.16Z" transform="translate(-539.75 -395.6)"/><path class="cls-9" d="M833.66,478.3a22,22,0,0,0-4.14,0c-1.08.1-2.5.14-3.18,1.13a2.9,2.9,0,0,0-.1,2.88,5.72,5.72,0,0,0,2.69,2.3c.27.26.54.51.83.74a3.43,3.43,0,0,0,3.31.79,3.07,3.07,0,0,0,.42-.17h.08a.27.27,0,0,0,.25-.18,4.29,4.29,0,0,0,.75-.6,1.55,1.55,0,0,0,.52-.6s0,0,0,0a4.86,4.86,0,0,0,.4-.7,7.77,7.77,0,0,0,.59-1.94,5.59,5.59,0,0,0,.11-1.82C836,478.8,834.83,478.41,833.66,478.3Zm1.72,1.39a1.36,1.36,0,0,1,.17.55l0,0a.49.49,0,0,0,0-.11l0-.05a2.31,2.31,0,0,0-.83-.72A3.69,3.69,0,0,0,834,479,1.8,1.8,0,0,1,835.38,479.69Z" transform="translate(-539.75 -395.6)"/><path class="cls-9" d="M870.91,494.78a22.79,22.79,0,0,0-4.13,0c-1.08.11-2.5.14-3.18,1.14a2.88,2.88,0,0,0-.1,2.87,5.76,5.76,0,0,0,2.68,2.31c.27.25.55.5.84.74a3.45,3.45,0,0,0,3.31.78,2.47,2.47,0,0,0,.42-.17h.08a.28.28,0,0,0,.24-.18,4.07,4.07,0,0,0,.76-.61,1.48,1.48,0,0,0,.52-.6v0a4.38,4.38,0,0,0,.4-.7,7.64,7.64,0,0,0,.59-1.94,5.86,5.86,0,0,0,.11-1.82C873.25,495.29,872.09,494.89,870.91,494.78Zm1.73,1.39a1.36,1.36,0,0,1,.17.55l0,0a.42.42,0,0,0,0-.1l0,0a2.44,2.44,0,0,0-.83-.73,4.59,4.59,0,0,0-.62-.33A1.83,1.83,0,0,1,872.64,496.17Z" transform="translate(-539.75 -395.6)"/><path class="cls-9" d="M807.68,457.57a21.92,21.92,0,0,0-4.13,0c-1.09.1-2.5.14-3.18,1.14a2.86,2.86,0,0,0-.11,2.87,5.76,5.76,0,0,0,2.69,2.3q.4.39.84.75a3.43,3.43,0,0,0,3.3.78,1.94,1.94,0,0,0,.42-.17h.09a.26.26,0,0,0,.24-.17,4.07,4.07,0,0,0,.76-.61,1.4,1.4,0,0,0,.51-.6l0,0a5.3,5.3,0,0,0,.4-.7,7.24,7.24,0,0,0,.58-1.94,5.31,5.31,0,0,0,.11-1.82C810,458.08,808.85,457.68,807.68,457.57Zm1.73,1.39a1.53,1.53,0,0,1,.17.55l0,0a.19.19,0,0,0,0-.1l0-.05a2.26,2.26,0,0,0-.83-.73,4.47,4.47,0,0,0-.61-.33A1.83,1.83,0,0,1,809.41,459Z" transform="translate(-539.75 -395.6)"/><path class="cls-9" d="M841,487.86l-.66.09a8.32,8.32,0,0,0-1.31.31,1.71,1.71,0,0,0-.56.31.35.35,0,0,0-.16.16.85.85,0,0,0-.18.32,1,1,0,0,0,.29,1.09.9.9,0,0,0,.62.25h0a.32.32,0,0,0,.45.08l0,0a1,1,0,0,0,.47.15,1.42,1.42,0,0,0,1.1-.44,3.41,3.41,0,0,0,.66-1.08.93.93,0,0,0-.07-1.07A.82.82,0,0,0,841,487.86Z" transform="translate(-539.75 -395.6)"/><path class="cls-9" d="M862.63,499.24l-.67.1a6.74,6.74,0,0,0-1.31.31,1.94,1.94,0,0,0-.56.31.35.35,0,0,0-.16.16,1.2,1.2,0,0,0-.18.31,1.05,1.05,0,0,0,.29,1.09,1,1,0,0,0,.62.26h0a.33.33,0,0,0,.46.07h0a1.08,1.08,0,0,0,.48.15,1.49,1.49,0,0,0,1.1-.44,3.53,3.53,0,0,0,.66-1.08.92.92,0,0,0-.08-1.07A.83.83,0,0,0,862.63,499.24Z" transform="translate(-539.75 -395.6)"/><path class="cls-9" d="M742,497.78c-.23,0-.45.06-.67.1a7.32,7.32,0,0,0-1.31.3,2.05,2.05,0,0,0-.56.31.33.33,0,0,0-.16.17.87.87,0,0,0-.18.31,1.06,1.06,0,0,0,.29,1.09.86.86,0,0,0,.62.25h0a.34.34,0,0,0,.46.07l0,0a1,1,0,0,0,.47.15,1.42,1.42,0,0,0,1.1-.44,3.39,3.39,0,0,0,.67-1.07.92.92,0,0,0-.08-1.07A.8.8,0,0,0,742,497.78Z" transform="translate(-539.75 -395.6)"/><path class="cls-9" d="M721.3,493l-.67.1a7.32,7.32,0,0,0-1.31.3,2,2,0,0,0-.56.32.31.31,0,0,0-.16.16.87.87,0,0,0-.18.31,1.05,1.05,0,0,0,.29,1.09.93.93,0,0,0,.62.26h0a.34.34,0,0,0,.46.07l0,0a1,1,0,0,0,.47.16,1.46,1.46,0,0,0,1.1-.45,3.39,3.39,0,0,0,.67-1.07.92.92,0,0,0-.08-1.07A.83.83,0,0,0,721.3,493Z" transform="translate(-539.75 -395.6)"/><path class="cls-9" d="M845.39,483.39a1.77,1.77,0,0,0-1.61.62.91.91,0,0,0-.15.5.31.31,0,0,0-.09.45,2.18,2.18,0,0,0,.66,2.28,2.55,2.55,0,0,0,3,.06,2.38,2.38,0,0,0,1.14-1.16,1.41,1.41,0,0,0-.3-1.4,4.19,4.19,0,0,0-1.15-.85A4,4,0,0,0,845.39,483.39Z" transform="translate(-539.75 -395.6)"/><path class="cls-9" d="M911.15,472.61a1.75,1.75,0,0,0-1.61.63.88.88,0,0,0-.15.49.3.3,0,0,0-.09.45,2.19,2.19,0,0,0,.65,2.28,2.55,2.55,0,0,0,3,.06,2.38,2.38,0,0,0,1.14-1.16,1.41,1.41,0,0,0-.3-1.4,4,4,0,0,0-1.15-.84A3.81,3.81,0,0,0,911.15,472.61Z" transform="translate(-539.75 -395.6)"/><path class="cls-9" d="M895.68,474.16a1.77,1.77,0,0,0-1.61.63,1,1,0,0,0-.15.5.31.31,0,0,0-.09.45,2.21,2.21,0,0,0,.66,2.27,2.56,2.56,0,0,0,3,.07,2.4,2.4,0,0,0,1.14-1.17,1.4,1.4,0,0,0-.31-1.39,4.87,4.87,0,0,0-2.67-1.36Z" transform="translate(-539.75 -395.6)"/><path class="cls-9" d="M709.72,499.11a1.75,1.75,0,0,0-1.61.63.88.88,0,0,0-.15.49.3.3,0,0,0-.09.45,2.19,2.19,0,0,0,.65,2.28,2.55,2.55,0,0,0,3,.06,2.34,2.34,0,0,0,1.14-1.16,1.41,1.41,0,0,0-.3-1.4,4,4,0,0,0-1.15-.84A3.81,3.81,0,0,0,709.72,499.11Z" transform="translate(-539.75 -395.6)"/><path class="cls-9" d="M927.8,464.71a1.75,1.75,0,0,0-1.61.63.89.89,0,0,0-.15.5.3.3,0,0,0-.09.45,2.18,2.18,0,0,0,.65,2.27,2.55,2.55,0,0,0,3,.06,2.3,2.3,0,0,0,1.14-1.16,1.39,1.39,0,0,0-.3-1.39,4.87,4.87,0,0,0-2.67-1.36Z" transform="translate(-539.75 -395.6)"/><path class="cls-9" d="M913.88,496.27a1.75,1.75,0,0,0-1.61.63,1,1,0,0,0-.16.49.31.31,0,0,0-.08.45,2.19,2.19,0,0,0,.65,2.28,2.55,2.55,0,0,0,3,.06,2.42,2.42,0,0,0,1.14-1.16,1.43,1.43,0,0,0-.3-1.4,4.19,4.19,0,0,0-1.15-.85A4,4,0,0,0,913.88,496.27Z" transform="translate(-539.75 -395.6)"/><path class="cls-9" d="M817.76,495.11a3.5,3.5,0,0,0-1.9,0l-.14,0h-.13a.27.27,0,0,0-.23.12,2.42,2.42,0,0,0-.94.7.28.28,0,0,0-.31.11,2.43,2.43,0,0,0,.34,3.11,2.77,2.77,0,0,0,3.29.25,3.24,3.24,0,0,0,1.49-2.85.32.32,0,0,0,.14-.14.34.34,0,0,0-.17-.44l-.18-.09A2.22,2.22,0,0,0,817.76,495.11Zm-1.93.69a2.42,2.42,0,0,1,.71.08,1,1,0,0,0,.16.12c-.17,0-.34,0-.51.06a.31.31,0,0,0-.22.14,3.82,3.82,0,0,0-.83,0A2.07,2.07,0,0,1,815.83,495.8Zm-5.93-31.24a2.74,2.74,0,0,1,.7.08.83.83,0,0,0,.16.12l-.5.06a.34.34,0,0,0-.23.14,3.82,3.82,0,0,0-.83,0A2,2,0,0,1,809.9,464.56Z" transform="translate(-539.75 -395.6)"/><path class="cls-9" d="M804.62,488.47l-.08,0-.1.07a.27.27,0,0,0-.1.19s0,.05,0,.07a1.22,1.22,0,0,1-.07.17l-.11.13a.91.91,0,0,1-.16.11.35.35,0,0,0-.16.16.39.39,0,0,0,0,.26.46.46,0,0,0,.17.17.33.33,0,0,0,.41.17l.93-.38a.33.33,0,0,0,.21-.34.88.88,0,0,0-.29-.58,1.07,1.07,0,0,0-.25-.16A.93.93,0,0,0,804.62,488.47Z" transform="translate(-539.75 -395.6)"/><path class="cls-9" d="M909.05,470.69l-.08,0a.19.19,0,0,0-.11.07.32.32,0,0,0-.1.18s0,.05,0,.08a.8.8,0,0,1-.08.16.64.64,0,0,1-.1.13.61.61,0,0,1-.16.12.33.33,0,0,0-.17.41.37.37,0,0,0,.17.18.33.33,0,0,0,.41.16l.93-.37a.35.35,0,0,0,.21-.34.9.9,0,0,0-.29-.58.83.83,0,0,0-.62-.22Z" transform="translate(-539.75 -395.6)"/><path class="cls-9" d="M886.34,489.33l-.08,0a.41.41,0,0,0-.11.07.35.35,0,0,0-.1.19s0,.05,0,.08l-.08.16a.69.69,0,0,1-.11.13.83.83,0,0,1-.15.11.4.4,0,0,0-.17.17.36.36,0,0,0,0,.25.35.35,0,0,0,.17.17.33.33,0,0,0,.41.17l.93-.38a.34.34,0,0,0,.21-.34.91.91,0,0,0-.3-.57.67.67,0,0,0-.25-.16A.89.89,0,0,0,886.34,489.33Z" transform="translate(-539.75 -395.6)"/><path class="cls-9" d="M842.56,492.47a1.08,1.08,0,0,0-.47,1,.35.35,0,0,0,.2.26h0a.22.22,0,0,0,0,.08.32.32,0,0,0,.42.18l.47-.17a.32.32,0,0,0,.21-.25.32.32,0,0,0,0-.17.26.26,0,0,0-.1-.13.1.1,0,0,0,0,0,.3.3,0,0,0,0-.16c-.05-.16-.11-.32-.16-.49a.35.35,0,0,0-.22-.19A.32.32,0,0,0,842.56,492.47Z" transform="translate(-539.75 -395.6)"/><path class="cls-9" d="M731.5,474c1.34.33,2.68.6,4,.81-.19-.07,0-.52-.11-.74s-.09-.46-.17-.68a13,13,0,0,0-.47-1.23c-.49-1-1.62-.88-2.55-.85a2.26,2.26,0,0,0-2.2,1.37c-.12.43.2.83.45,1.14a1.79,1.79,0,0,0,.47.48,4.6,4.6,0,0,0,.63.42Z" transform="translate(-539.75 -395.6)"/><path class="cls-9" d="M738.8,478.41a3.53,3.53,0,0,0-1.3,3.55c.3.94,1.1,1,1.86.71l.2,0a.88.88,0,0,0,.56-.19,1.37,1.37,0,0,0,.46-.2,1.74,1.74,0,0,0,.67-1.64,3.47,3.47,0,0,0-.6-2.09A1.41,1.41,0,0,0,738.8,478.41Z" transform="translate(-539.75 -395.6)"/><path class="cls-9" d="M725.09,484.7c.59.22,1.61.34,1.75-.56.06-.41-.34-.48-.65-.48s-.22,0-.4.13a2.5,2.5,0,0,0-.29.27c-.21.27,0,.66.15.89Z" transform="translate(-539.75 -395.6)"/><path class="cls-9" d="M724.1,453.11a1.26,1.26,0,0,0,.53.35c.21-.15.47-.14.61-.42a1,1,0,0,0-.14-1c-.24-.25-.6,0-.84.1s-.57.33-.46.77a1,1,0,0,0,.72.75Z" transform="translate(-539.75 -395.6)"/><path class="cls-9" d="M736.63,464.91a21.92,21.92,0,0,0-4.13,0c-1.09.11-2.5.14-3.18,1.14a2.9,2.9,0,0,0-.11,2.88,5.82,5.82,0,0,0,2.69,2.3c.27.26.55.51.84.74a3.42,3.42,0,0,0,3.31.79l.42-.17h.08a.26.26,0,0,0,.24-.18,4,4,0,0,0,.76-.6,1.49,1.49,0,0,0,.51-.61s0,0,0,0a4.76,4.76,0,0,0,.4-.69,7.77,7.77,0,0,0,.59-1.94,5.88,5.88,0,0,0,.11-1.82C739,465.41,737.8,465,736.63,464.91Zm1.73,1.39a1.42,1.42,0,0,1,.17.55l0,0a.22.22,0,0,0,0-.11l0,0a2.31,2.31,0,0,0-.83-.72,4.19,4.19,0,0,0-.62-.34A1.84,1.84,0,0,1,738.36,466.3Z" transform="translate(-539.75 -395.6)"/><path class="cls-9" d="M773.89,481.39a21.92,21.92,0,0,0-4.13,0c-1.09.1-2.5.14-3.18,1.13a2.88,2.88,0,0,0-.11,2.88,5.76,5.76,0,0,0,2.69,2.3c.27.26.55.51.84.74a3.42,3.42,0,0,0,3.31.79,3,3,0,0,0,.41-.17h.09a.26.26,0,0,0,.24-.18,4,4,0,0,0,.76-.6,1.46,1.46,0,0,0,.51-.6l0,0a6,6,0,0,0,.4-.7,7.35,7.35,0,0,0,.58-1.94,5.33,5.33,0,0,0,.11-1.82C776.22,481.89,775.06,481.5,773.89,481.39Zm1.73,1.39a1.53,1.53,0,0,1,.17.55l0,0a.27.27,0,0,0,0-.11l-.05-.05a2.15,2.15,0,0,0-.83-.72,3.6,3.6,0,0,0-.61-.33A1.8,1.8,0,0,1,775.62,482.78Z" transform="translate(-539.75 -395.6)"/><path class="cls-9" d="M663.67,565.19c1.2-.08,2.6-.4,1.61-1.85a1.73,1.73,0,0,0-2-.55,1.69,1.69,0,0,0-.67.45c-.19.18-.53.41-.6.69-.22,1,1.4,1.43,2,1.69Z" transform="translate(-539.75 -395.6)"/><path class="cls-9" d="M670.84,566.19a2.5,2.5,0,0,0-1.09,0,5.14,5.14,0,0,0-1.11.18,3.63,3.63,0,0,0-1.59,1.13c-.6.86-.07,1.64.6,2.28a.28.28,0,0,0-.08.11,1,1,0,0,0,.56,1.22,2.88,2.88,0,0,0,1.67,0c.3-.05.6-.09.89-.16a.55.55,0,0,0,.32-.21,5.48,5.48,0,0,0,2,.24c.67-.1,1.54-.24,1.4-1a5.34,5.34,0,0,0-1.32-2.13c-.35-.44-.8-.73-1.14-1.1s-.23-.44-.57-.55C671.19,566.07,671,566.22,670.84,566.19Z" transform="translate(-539.75 -395.6)"/><path class="cls-9" d="M668.18,564.2c.3.18,1.82,1.33,2,.34a1.85,1.85,0,0,0-.47-1.13,1,1,0,0,0-1.73.66l.17.13Z" transform="translate(-539.75 -395.6)"/><path class="cls-9" d="M683.32,567.9a33,33,0,0,0,2.7-2.15c-.16,0,0-.46,0-.59a1.08,1.08,0,0,0-.18-.52,1.75,1.75,0,0,0-1.44-.5,2.35,2.35,0,0,0-2,1.52,2.53,2.53,0,0,0-.3,1.3,1.5,1.5,0,0,0,.2.63,1.05,1.05,0,0,0,.57.38,1.46,1.46,0,0,0,1.36.09c.12-.07.37-.36.31-.55s-.43-.47-.47-.09Z" transform="translate(-539.75 -395.6)"/><path class="cls-9" d="M701,570.28a10.94,10.94,0,0,1,1.61-2.36c0,.32.2.42.32.67a.79.79,0,0,1,.07.54.87.87,0,0,1-.11.56c-.12.2-.33.31-.47.48s-.15.22-.39.32a.53.53,0,0,1-.58,0c-.21-.14-.81-.59-.54-.92Z" transform="translate(-539.75 -395.6)"/><path class="cls-9" d="M723.59,556.37c1.33.33,2.68.6,4,.81-.19-.07,0-.52-.11-.74s-.09-.46-.17-.68a13.06,13.06,0,0,0-.48-1.23c-.49-1-1.62-.88-2.54-.85a2.25,2.25,0,0,0-2.2,1.37c-.13.43.19.83.45,1.14a1.92,1.92,0,0,0,.46.48,4.34,4.34,0,0,0,.64.41Z" transform="translate(-539.75 -395.6)"/><path class="cls-9" d="M716.08,532.48c1.34.33,2.69.6,4,.81-.18-.07,0-.52-.11-.74s-.09-.46-.17-.68a11.5,11.5,0,0,0-.47-1.23c-.49-1-1.62-.88-2.54-.85a2.25,2.25,0,0,0-2.2,1.37c-.13.43.19.84.45,1.15a1.91,1.91,0,0,0,.46.48,5.23,5.23,0,0,0,.63.41Z" transform="translate(-539.75 -395.6)"/><path class="cls-9" d="M800.17,571.84a3.52,3.52,0,0,0-1.31,3.55c.31.93,1.1,1,1.87.7a.62.62,0,0,0,.19,0,.91.91,0,0,0,.57-.19,1.15,1.15,0,0,0,.45-.2,1.73,1.73,0,0,0,.67-1.63,3.42,3.42,0,0,0-.6-2.1A1.38,1.38,0,0,0,800.17,571.84Z" transform="translate(-539.75 -395.6)"/><path class="cls-9" d="M717.17,567.11c.6.22,1.62.34,1.75-.57.06-.4-.33-.47-.65-.47s-.21,0-.39.13a2.61,2.61,0,0,0-.3.27.75.75,0,0,0,.16.89Z" transform="translate(-539.75 -395.6)"/><path class="cls-9" d="M711.79,560.26a1.3,1.3,0,0,0,.52.35c.22-.15.48-.14.62-.42a1,1,0,0,0-.14-1c-.24-.24-.6,0-.84.1s-.57.34-.46.77a1,1,0,0,0,.72.75Z" transform="translate(-539.75 -395.6)"/><path class="cls-9" d="M716.19,535.52a1.3,1.3,0,0,0,.52.35c.22-.15.47-.14.62-.42a1,1,0,0,0-.14-1c-.24-.25-.6,0-.84.1s-.57.33-.46.77a1,1,0,0,0,.72.75Z" transform="translate(-539.75 -395.6)"/><path class="cls-9" d="M690.13,562.9a2.49,2.49,0,0,0-1.23.19l-.34.17h-.06a2.53,2.53,0,0,0-1.14.5,3.8,3.8,0,0,0-1.32,2.17,3.35,3.35,0,0,0,.59,2.4l.58.62a3.36,3.36,0,0,0,1.59.7l1,.24a3.25,3.25,0,0,0,1.66-.19,3.26,3.26,0,0,0,2-2.57,3.24,3.24,0,0,0-.18-1.66l-.18-.52a2.38,2.38,0,0,0-.69-1,2.95,2.95,0,0,0-2.31-1Z" transform="translate(-539.75 -395.6)"/><path class="cls-9" d="M711.27,526.28a2.4,2.4,0,0,0-1.24.19l-.34.17h-.05a2.94,2.94,0,0,0-2,1.46,2.46,2.46,0,0,0-.47,1.21,3.29,3.29,0,0,0,.58,2.4l.58.62a3.35,3.35,0,0,0,1.6.7l1,.24a3.25,3.25,0,0,0,1.66-.19,3.15,3.15,0,0,0,1.35-1,3.28,3.28,0,0,0,.71-1.59,3.25,3.25,0,0,0-.19-1.66l-.18-.52a2.38,2.38,0,0,0-.69-1,2.35,2.35,0,0,0-1-.77A2.4,2.4,0,0,0,711.27,526.28Z" transform="translate(-539.75 -395.6)"/><path class="cls-9" d="M694.62,562.67a.35.35,0,0,0-.24.06.45.45,0,0,0-.13.22,1.5,1.5,0,0,0,.37,1.37.32.32,0,0,0,0,.14.33.33,0,0,0,.42.19c.05,0,0,0,0,0h.17a.33.33,0,0,0,.43-.17A1.34,1.34,0,0,0,694.62,562.67Z" transform="translate(-539.75 -395.6)"/><path class="cls-9" d="M674.25,549.32a.33.33,0,0,0-.37.28,1.52,1.52,0,0,0,.36,1.38.36.36,0,0,0,0,.14.34.34,0,0,0,.43.18h.15a.33.33,0,0,0,.43-.17A1.35,1.35,0,0,0,674.25,549.32Z" transform="translate(-539.75 -395.6)"/><path class="cls-9" d="M697.6,564a.35.35,0,0,0-.33.06.53.53,0,0,0-.13.13.82.82,0,0,0-.18.64.3.3,0,0,0-.13.09.34.34,0,0,0-.07.24.35.35,0,0,0,.12.22.4.4,0,0,0,.24.07,1.18,1.18,0,0,0,1-.72.46.46,0,0,0,0-.33.63.63,0,0,0-.18-.22A1,1,0,0,0,697.6,564Z" transform="translate(-539.75 -395.6)"/><path class="cls-9" d="M686.29,557.83c-.68,0-1.69.13-2,.88a1.9,1.9,0,0,0,.62,1.94,3.12,3.12,0,0,0,1.72.85l.51,0a1.86,1.86,0,0,0,1.48-.06,1.83,1.83,0,0,0,1-1.7,1.91,1.91,0,0,0-1.11-1.62A4.22,4.22,0,0,0,686.29,557.83Z" transform="translate(-539.75 -395.6)"/><path class="cls-9" d="M662.11,546c-.68.06-1.69.14-2,.88a1.92,1.92,0,0,0,.62,1.95,3.11,3.11,0,0,0,1.72.84,2.19,2.19,0,0,0,.51,0,1.78,1.78,0,0,0,1.48-.06,1.82,1.82,0,0,0,1-1.7,1.92,1.92,0,0,0-1.11-1.62A4.22,4.22,0,0,0,662.11,546Z" transform="translate(-539.75 -395.6)"/><path class="cls-9" d="M663.21,568.73h0Z" transform="translate(-539.75 -395.6)"/><path class="cls-9" d="M664.6,568a1.77,1.77,0,0,0-1,.2.69.69,0,0,0-.54-.16.94.94,0,0,0-.75.62,1.06,1.06,0,0,0,.24,1,2,2,0,0,0,2,.6,1.28,1.28,0,0,0,.87-1.58A1,1,0,0,0,664.6,568Zm12.88-40.35a1.78,1.78,0,0,0-1,.21.69.69,0,0,0-.54-.16.94.94,0,0,0-.75.62,1.06,1.06,0,0,0,.24,1,2,2,0,0,0,2,.6,1.28,1.28,0,0,0,.87-1.58A1,1,0,0,0,677.48,527.69Zm-14.05,41.89-.08,0s0,0,0,0l-.06,0-.16-.14-.05-.06,0,0s0-.07,0,0,0-.05,0-.07,0-.1,0,0a.28.28,0,0,1,0-.09h0v-.06c0,.07,0,0,0,0l0,0h0l0-.07c0,.05,0,0,.05,0h.11s0,0,0,0a.29.29,0,0,0,.1.12l0,.11v0a.24.24,0,0,0,0,.14,1.17,1.17,0,0,0,.16.36,1.12,1.12,0,0,0,.2.18l-.07,0-.07,0Z" transform="translate(-539.75 -395.6)"/><path class="cls-9" d="M697.63,566.56a.69.69,0,0,0-.42.15,1.06,1.06,0,0,0-.19.24,1,1,0,0,0-.08.22.85.85,0,0,0,0,.5.75.75,0,0,0,.27.34.31.31,0,0,0,.11.08.69.69,0,0,0,.47.06,1,1,0,0,0,.29-.11.65.65,0,0,0,.18-.15.78.78,0,0,0,.22-.43.73.73,0,0,0-.11-.5.85.85,0,0,0-.34-.31A.83.83,0,0,0,697.63,566.56Z" transform="translate(-539.75 -395.6)"/><path class="cls-9" d="M707,571.17a.33.33,0,0,0,.6.26A.33.33,0,0,0,707,571.17Z" transform="translate(-539.75 -395.6)"/><path class="cls-9" d="M765.26,532.15a21.92,21.92,0,0,0-4.13,0c-1.09.11-2.5.14-3.18,1.14a2.88,2.88,0,0,0-.1,2.88,5.8,5.8,0,0,0,2.68,2.3c.27.26.55.51.84.74a3.42,3.42,0,0,0,3.31.79l.42-.17h.08a.29.29,0,0,0,.24-.18,4.07,4.07,0,0,0,.76-.61,1.4,1.4,0,0,0,.51-.6l0,0a4.76,4.76,0,0,0,.4-.69,7.72,7.72,0,0,0,.59-2,5.84,5.84,0,0,0,.11-1.82C767.6,532.65,766.43,532.25,765.26,532.15Zm1.73,1.39a1.42,1.42,0,0,1,.17.55l0,0a.24.24,0,0,0,0-.1s0,0-.05-.05a2.2,2.2,0,0,0-.82-.72,4.19,4.19,0,0,0-.62-.34A1.84,1.84,0,0,1,767,533.54Z" transform="translate(-539.75 -395.6)"/><path class="cls-9" d="M702.74,526.59a21.92,21.92,0,0,0-4.13,0c-1.08.11-2.5.15-3.18,1.14a2.9,2.9,0,0,0-.1,2.88,5.74,5.74,0,0,0,2.68,2.3c.27.26.55.51.84.74a3.43,3.43,0,0,0,3.31.79l.42-.17h.08a.25.25,0,0,0,.24-.18,4,4,0,0,0,.76-.6,1.59,1.59,0,0,0,.52-.61v0a5.47,5.47,0,0,0,.4-.7,7.77,7.77,0,0,0,.59-1.94,5.88,5.88,0,0,0,.11-1.82C705.08,527.09,703.91,526.7,702.74,526.59Zm1.73,1.39a1.53,1.53,0,0,1,.17.55l0,0a.36.36,0,0,0,0-.11l-.05,0a2.31,2.31,0,0,0-.83-.72,3.69,3.69,0,0,0-.62-.33A1.8,1.8,0,0,1,704.47,528Z" transform="translate(-539.75 -395.6)"/><path class="cls-9" d="M736,556.87l-.67.1a7.32,7.32,0,0,0-1.31.3,1.85,1.85,0,0,0-.56.32.31.31,0,0,0-.16.16.87.87,0,0,0-.18.31,1.05,1.05,0,0,0,.29,1.09.91.91,0,0,0,.62.26h0a.34.34,0,0,0,.46.07l0,0a1,1,0,0,0,.47.16,1.46,1.46,0,0,0,1.1-.45,3.39,3.39,0,0,0,.67-1.07.92.92,0,0,0-.08-1.07A.83.83,0,0,0,736,556.87Z" transform="translate(-539.75 -395.6)"/><path class="cls-9" d="M740.45,552.4a1.75,1.75,0,0,0-1.61.63,1,1,0,0,0-.15.49.32.32,0,0,0-.09.45,2.22,2.22,0,0,0,.66,2.28,2.55,2.55,0,0,0,3,.06,2.34,2.34,0,0,0,1.14-1.16,1.39,1.39,0,0,0-.31-1.39,3.7,3.7,0,0,0-1.15-.85A3.86,3.86,0,0,0,740.45,552.4Z" transform="translate(-539.75 -395.6)"/><path class="cls-9" d="M712.82,564.12a3.71,3.71,0,0,0-1.9,0l-.13,0h-.14a.26.26,0,0,0-.22.13,2.27,2.27,0,0,0-.95.69.28.28,0,0,0-.3.11,2.41,2.41,0,0,0,.34,3.11,2.78,2.78,0,0,0,3.29.26A3.18,3.18,0,0,0,714,567.1a3,3,0,0,0,.3-1.49.43.43,0,0,0,.15-.15.35.35,0,0,0-.17-.43l-.19-.1A2.33,2.33,0,0,0,712.82,564.12Zm-1.92.69a2.36,2.36,0,0,1,.7.09l.16.12c-.17,0-.33,0-.5.05a.32.32,0,0,0-.23.15,3.82,3.82,0,0,0-.83-.05A2.21,2.21,0,0,1,710.9,564.81ZM705,533.57a2.82,2.82,0,0,1,.71.09l.16.12-.51.05a.33.33,0,0,0-.22.15,3.33,3.33,0,0,0-.83,0A2.19,2.19,0,0,1,705,533.57Z" transform="translate(-539.75 -395.6)"/><path class="cls-9" d="M699.69,557.49l-.08,0a.16.16,0,0,0-.11.07.32.32,0,0,0-.1.18.24.24,0,0,1,0,.08.77.77,0,0,1-.07.16.69.69,0,0,1-.11.13.79.79,0,0,1-.15.12.37.37,0,0,0-.17.16.31.31,0,0,0,0,.25.4.4,0,0,0,.16.18.33.33,0,0,0,.41.16l.94-.37a.34.34,0,0,0,.2-.34.86.86,0,0,0-.29-.58.82.82,0,0,0-.25-.16A.88.88,0,0,0,699.69,557.49Z" transform="translate(-539.75 -395.6)"/><path class="cls-9" d="M737.62,561.48a1.08,1.08,0,0,0-.46,1,.32.32,0,0,0,.19.27h0a.17.17,0,0,0,0,.07.34.34,0,0,0,.43.19l.47-.17a.3.3,0,0,0,.2-.26.3.3,0,0,0,0-.16.34.34,0,0,0-.09-.14l-.05,0a.43.43,0,0,0,0-.16c-.06-.17-.12-.33-.17-.49a.28.28,0,0,0-.22-.19A.35.35,0,0,0,737.62,561.48Z" transform="translate(-539.75 -395.6)"/><path class="cls-9" d="M669,550.41a21.92,21.92,0,0,0-4.13,0c-1.08.11-2.5.14-3.18,1.14a2.9,2.9,0,0,0-.1,2.88,5.8,5.8,0,0,0,2.68,2.3c.27.26.55.51.84.74a3.43,3.43,0,0,0,3.31.79l.42-.17h.08a.26.26,0,0,0,.24-.18,4.07,4.07,0,0,0,.76-.61,1.48,1.48,0,0,0,.52-.6s0,0,0,0a4.76,4.76,0,0,0,.4-.69,7.72,7.72,0,0,0,.59-2,5.84,5.84,0,0,0,.11-1.82C671.29,550.91,670.12,550.51,669,550.41Zm1.73,1.39a1.42,1.42,0,0,1,.17.55l0,0a.42.42,0,0,0,0-.1l0-.05a2.31,2.31,0,0,0-.83-.72,3.74,3.74,0,0,0-.62-.34A1.84,1.84,0,0,1,670.68,551.8Z" transform="translate(-539.75 -395.6)"/><path class="cls-9" d="M743.94,474.46l-.67.1a6.57,6.57,0,0,0-1.31.31,1.94,1.94,0,0,0-.56.31.31.31,0,0,0-.16.16,1.2,1.2,0,0,0-.18.31,1.05,1.05,0,0,0,.29,1.09,1,1,0,0,0,.62.26h0a.33.33,0,0,0,.46.07h0a1.08,1.08,0,0,0,.48.15,1.45,1.45,0,0,0,1.09-.44,3.56,3.56,0,0,0,.67-1.08.92.92,0,0,0-.08-1.07A.83.83,0,0,0,743.94,474.46Z" transform="translate(-539.75 -395.6)"/><path class="cls-9" d="M765.61,485.85c-.23,0-.45.06-.67.1a7.32,7.32,0,0,0-1.31.3,2.05,2.05,0,0,0-.56.31.37.37,0,0,0-.16.17.87.87,0,0,0-.18.31,1.06,1.06,0,0,0,.29,1.09.86.86,0,0,0,.62.25h0a.34.34,0,0,0,.46.07l0,0a.87.87,0,0,0,.47.15,1.42,1.42,0,0,0,1.1-.44,3.2,3.2,0,0,0,.66-1.07.91.91,0,0,0-.07-1.07A.81.81,0,0,0,765.61,485.85Z" transform="translate(-539.75 -395.6)"/><path class="cls-9" d="M748.36,470a1.77,1.77,0,0,0-1.6.63,1,1,0,0,0-.16.5.31.31,0,0,0-.08.45,2.18,2.18,0,0,0,.65,2.27,2.55,2.55,0,0,0,3,.06,2.34,2.34,0,0,0,1.14-1.16,1.4,1.4,0,0,0-.31-1.39,3.82,3.82,0,0,0-1.14-.85A4,4,0,0,0,748.36,470Z" transform="translate(-539.75 -395.6)"/><path class="cls-9" d="M745.53,479.07a1.08,1.08,0,0,0-.46,1,.32.32,0,0,0,.19.26h0s0,.05,0,.07a.33.33,0,0,0,.42.19l.47-.17a.3.3,0,0,0,.2-.26.29.29,0,0,0,0-.16.36.36,0,0,0-.1-.14l0,0a.29.29,0,0,0,0-.16c-.06-.16-.11-.33-.17-.49a.29.29,0,0,0-.21-.19A.36.36,0,0,0,745.53,479.07Z" transform="translate(-539.75 -395.6)"/></g><polygon class="cls-10" points="16.19 9.44 20.23 16.73 479.41 13.9 484.04 9.44 16.19 9.44"/><polygon class="cls-11" points="380.64 0 383.4 9.44 460.53 9.44 464.63 0 380.64 0"/><polygon class="cls-12" points="20.23 246.85 19.88 164.67 38.09 164.04 38.09 170.59 52.65 171.65 58.56 215.51 81.77 221.28 81.77 199.02 128.26 199.06 129.54 223.33 135.62 224.92 135.43 215.63 150.02 215.63 153.78 229.32 383.4 225.62 386.11 166.53 411.39 161.88 411.39 185.79 417.54 185.79 422.63 142.08 475.81 128.14 471.87 246.85 20.23 246.85"/><path class="cls-13" d="M780,472a.82.82,0,0,0,0,.27.32.32,0,0,1,0,.18s-.06,0-.13,0a3.37,3.37,0,0,1-.36-.35L779,472l-.19.19-.1.09c-.1.08-.18.09-.26,0l-.28-.23a2.19,2.19,0,0,0-.2-.16s-.07,0-.07,0a.23.23,0,0,0,0,.12,1.7,1.7,0,0,1,0,.22.36.36,0,0,1-.09.18.43.43,0,0,0-.09.19c0,.1-.06.14-.1.1a.15.15,0,0,0-.14,0l-.11,0-.13-.1a1,1,0,0,1-.16-.23L777,472c0-.07-.07-.15-.11-.23s-.07-.18-.11-.3a3.72,3.72,0,0,1-.13-.45c0-.19-.08-.53-.14-1s-.12-1.1-.19-1.8-.15-1.49-.24-2.36-.17-1.79-.26-2.74-.18-1.92-.27-2.9-.18-1.93-.26-2.86-.16-1.79-.23-2.62-.13-1.55-.19-2.18l-7.14,17.81a5.21,5.21,0,0,1-.49.91,3.61,3.61,0,0,1-.57.67,1.75,1.75,0,0,1-.55.34.53.53,0,0,1-.45,0,1.47,1.47,0,0,1-.43-.43,2.27,2.27,0,0,1-.27-.54,3.84,3.84,0,0,1-.2-.6c-.06-.21-.13-.42-.21-.64s-.27-.88-.45-1.62-.38-1.61-.62-2.61-.47-2.08-.73-3.25-.51-2.38-.78-3.59-.53-2.41-.78-3.58-.48-2.24-.7-3.23c-.06.41-.15,1-.28,1.77s-.28,1.66-.45,2.65-.35,2.06-.54,3.2-.4,2.27-.59,3.41-.38,2.24-.56,3.31-.34,2-.48,2.89-.27,1.58-.37,2.14-.15.91-.17,1a.78.78,0,0,1-.07.33,1.66,1.66,0,0,1-.14.31,1.52,1.52,0,0,1-.26.32l-.27.1a.27.27,0,0,1-.25,0,.21.21,0,0,1-.14-.18c0-.09-.07-.16-.19-.23a.53.53,0,0,0-.23-.13.47.47,0,0,1-.22-.24.36.36,0,0,0,0-.19l0-.05-.05-.07-.21-.23a1.66,1.66,0,0,1-.15-.46,1.62,1.62,0,0,1,0-.64c0-.08.07-.29.14-.63s.16-.76.25-1.26l.33-1.63c.11-.6.23-1.21.35-1.83s.22-1.2.32-1.77.18-1.08.25-1.52.18-.92.34-1.63.34-1.48.55-2.34.43-1.76.67-2.7l.69-2.73c.22-.87.42-1.68.6-2.42s.31-1.33.41-1.77a1,1,0,0,1-.07-.35c0-.11,0-.18,0-.19a.21.21,0,0,0,.15-.07.08.08,0,0,1,0-.05.08.08,0,0,0,0,0c0-.07,0-.11,0-.11,0-.15,0-.25.07-.29a.3.3,0,0,1,.15-.09l.15,0s.07,0,.09-.1a1.1,1.1,0,0,1,.07-.31.13.13,0,0,1,.11-.07l.16.07a1.71,1.71,0,0,0,.27.13.19.19,0,0,0,.14,0h.13l.17,0a1.28,1.28,0,0,1,.23.14.32.32,0,0,0,.19.09.24.24,0,0,0,.14-.05l.1-.12.08-.13a.18.18,0,0,1,.16-.08.29.29,0,0,1,.19.08,1.5,1.5,0,0,0,.16.2l.09.07,0,0a.28.28,0,0,0,0,.06c.18.52.33,1.07.47,1.64s.27,1.22.41,1.95.32,1.57.52,2.53.45,2.09.75,3.39c.5,2.21.93,4.06,1.3,5.57s.69,2.63,1,3.39l.84-1.95c.33-.77.68-1.6,1.05-2.5s.76-1.84,1.17-2.81.81-1.93,1.2-2.88l1.14-2.74c.37-.87.7-1.65,1-2.35s.53-1.28.72-1.76l.39-.92.16-.4a.66.66,0,0,1,.15-.25.39.39,0,0,1,.15-.2.24.24,0,0,1,.22,0,.24.24,0,0,0,.08.06l.08,0,.08,0c0-.06,0-.09.07-.09h.12l.16,0h.12l.1-.06s.07,0,.11,0,.18.06.22,0a.21.21,0,0,1,.2-.08l.15,0,.11,0a.18.18,0,0,0,.07-.08.2.2,0,0,1,.11,0l.08,0,0,.05a2.33,2.33,0,0,1,.16.6c.07.36.15.79.23,1.31s.18,1.08.27,1.68.16,1.18.23,1.73c0,.18.07.59.14,1.23s.15,1.4.24,2.31.2,1.93.32,3,.23,2.24.35,3.38.22,2.25.33,3.34l.27,2.92c.07.86.13,1.56.17,2.12A6.25,6.25,0,0,1,780,472Z" transform="translate(-539.75 -395.6)"/><path class="cls-13" d="M793.51,462.45a9.42,9.42,0,0,1-.1,1.49c-.09.59-.18,1.21-.28,1.88s-.21,1.35-.3,2.05a15.46,15.46,0,0,0-.14,2,7.18,7.18,0,0,0,.09,1.16,3.54,3.54,0,0,0,.29.95.78.78,0,0,1,.13.4,1,1,0,0,1,0,.3c0,.09,0,.16-.07.23a.28.28,0,0,0,0,.18.24.24,0,0,1,0,.2.62.62,0,0,1-.15.21.58.58,0,0,1-.24.14.25.25,0,0,1-.24,0,1,1,0,0,0-.3-.14.56.56,0,0,0-.19,0l-.14.06a.14.14,0,0,1-.15,0c-.2-.1-.41-.22-.64-.36a1,1,0,0,1-.46-.45,1.45,1.45,0,0,1-.13-.35c0-.17-.07-.36-.1-.58s-.06-.46-.08-.71,0-.51,0-.75A9,9,0,0,1,789,472.1a7.1,7.1,0,0,1-1.31,1.15,4.49,4.49,0,0,1-2.45.77,3.06,3.06,0,0,1-1-.14,1.85,1.85,0,0,1-.63-.33,10.65,10.65,0,0,1-1.21-1.38,1.39,1.39,0,0,1-.32-.87,5.36,5.36,0,0,1,.54-2.05,8,8,0,0,1,1.13-1.74,9.82,9.82,0,0,1,1.52-1.43A16.51,16.51,0,0,1,787,465a13,13,0,0,1,1.73-.83c.57-.23,1.09-.41,1.55-.55,0-.63-.05-1.18-.08-1.65a6,6,0,0,0-.13-1,3.29,3.29,0,0,0-.8-1.61,1.8,1.8,0,0,0-1.31-.53,1.62,1.62,0,0,0-1,.37,3.63,3.63,0,0,0-.9,1,6.24,6.24,0,0,0-.65,1.45,6.07,6.07,0,0,0-.27,1.72c0,.15,0,.3,0,.44s0,.28,0,.43a.18.18,0,0,1-.08.18.69.69,0,0,1-.23.07l-.3.05a1.33,1.33,0,0,0-.26.05l-.14,0a.21.21,0,0,1-.11,0l-.13-.1-.21-.17a2.29,2.29,0,0,0-.29-.18l-.26-.12a1.09,1.09,0,0,1-.19-.1c-.06,0-.08-.06-.08-.11a5.79,5.79,0,0,1,.48-2.23,8,8,0,0,1,1.29-2.1,7.05,7.05,0,0,1,1.88-1.56,4.57,4.57,0,0,1,2.27-.61,4.36,4.36,0,0,1,1.69.3,4.14,4.14,0,0,1,1.22.76,4.57,4.57,0,0,1,.83,1.05,6.16,6.16,0,0,1,.5,1.16,7.23,7.23,0,0,1,.26,1.1A6.65,6.65,0,0,1,793.51,462.45Zm-3.15,3.1a10.79,10.79,0,0,0-1.15.51,11.35,11.35,0,0,0-1.28.74,11.18,11.18,0,0,0-1.28,1,10.14,10.14,0,0,0-1.21,1.24,7.3,7.3,0,0,0-1,1.39,4.46,4.46,0,0,0-.36,1,1.29,1.29,0,0,0,0,.67.52.52,0,0,0,.25.3,1.72,1.72,0,0,0,1.12,0,3.79,3.79,0,0,0,1.17-.59,7.69,7.69,0,0,0,1.13-1c.37-.4.71-.81,1-1.24s.61-.84.87-1.25.46-.77.63-1.07Z" transform="translate(-539.75 -395.6)"/><path class="cls-13" d="M801.18,452.17c0,.07,0,.26,0,.55s0,.69-.09,1.18-.1,1.05-.15,1.7-.12,1.33-.18,2.08c.73-.09,1.43-.17,2.08-.22s1.22-.08,1.67-.08a.87.87,0,0,1,.4.09,1.24,1.24,0,0,1,.29.2,1.37,1.37,0,0,1,.18.24,1.13,1.13,0,0,1,.09.22,1,1,0,0,0,0,.17.41.41,0,0,1,0,.16,1.08,1.08,0,0,1-.3.7,1.43,1.43,0,0,1-.92.43l-3.71.41c-.06.83-.11,1.69-.16,2.57s-.09,1.77-.13,2.64-.07,1.74-.09,2.59,0,1.65,0,2.41c0,.48,0,.88,0,1.18s0,.5,0,.59a1.76,1.76,0,0,1-.11.59,3.6,3.6,0,0,1-.26.52,1.53,1.53,0,0,1-.32.38.46.46,0,0,1-.27.15,1.31,1.31,0,0,1-1-.39,2.53,2.53,0,0,1-.55-1.06,7.16,7.16,0,0,1-.23-1.51c0-.57-.05-1.16-.05-1.78,0-1.45,0-2.91.12-4.36s.19-2.86.34-4.21l-2.17.26-.11,0-.12,0a.86.86,0,0,1-.53-.16,1.2,1.2,0,0,1-.31-.37,1.36,1.36,0,0,1-.13-.42c0-.15,0-.26,0-.34a1.35,1.35,0,0,1,.07-.46.36.36,0,0,1,.26-.26,8.5,8.5,0,0,1,1.28-.3c.61-.11,1.3-.23,2.06-.34.13-.94.26-1.81.4-2.59s.26-1.46.39-2a11.43,11.43,0,0,1,.36-1.34c.11-.32.2-.48.28-.48l.09,0,.09,0a.18.18,0,0,0,.16-.12.25.25,0,0,1,.24-.11.79.79,0,0,1,.34.09,2,2,0,0,1,.33.24,1.68,1.68,0,0,1,.25.29A.46.46,0,0,1,801.18,452.17Z" transform="translate(-539.75 -395.6)"/><path class="cls-13" d="M814.85,461a4.49,4.49,0,0,1,0,.55c0,.21,0,.42,0,.64,0,.56,0,1.21-.07,1.95s-.1,1.63-.17,2.65c0,.39,0,.9,0,1.5s0,1.24,0,1.9,0,1.09,0,1.62,0,1,.08,1.37c0,.18,0,.27-.12.28a1.1,1.1,0,0,1-.35,0,.15.15,0,0,0-.16,0l-.13.08a.42.42,0,0,1-.12.08s-.09,0-.16-.06l-.3-.21-.44-.3a3.94,3.94,0,0,1-.45-.36,1.85,1.85,0,0,1-.31-.35,4.25,4.25,0,0,1-.14-1.2c0-.64,0-1.41,0-2.32v-2.35c0-.51,0-1,.07-1.52s.08-1,.13-1.44.08-.91.12-1.32.05-.79.05-1.12a2.47,2.47,0,0,0-.23-1.2c0-.05-.14,0-.31.08a3.16,3.16,0,0,0-.67.67,10.07,10.07,0,0,0-.92,1.42,18.08,18.08,0,0,0-1.08,2.39,37.17,37.17,0,0,0-1.15,3.54c-.39,1.38-.76,3-1.11,4.88a1,1,0,0,1-.13.34.37.37,0,0,1-.29.09c-.09,0-.17-.07-.23-.22a1.35,1.35,0,0,0-.24-.35,2.23,2.23,0,0,1-.6-.08.46.46,0,0,1-.32-.43.46.46,0,0,0-.06-.23l-.14-.23a2.44,2.44,0,0,1-.14-.28,1,1,0,0,1-.06-.36c0-.81.06-1.69.08-2.65s0-1.94.08-2.95.06-2,.08-3,.05-2,.09-2.9.07-1.78.09-2.58.07-1.48.12-2.06c.14-1.73.28-3.1.42-4.09s.22-1.57.26-1.73a1.3,1.3,0,0,1,.1-.27l.1-.12.07,0a.19.19,0,0,0,0-.09.14.14,0,0,1,.13-.07h.45a.38.38,0,0,0,.17-.08l.23-.18a.69.69,0,0,1,.34-.07,1.34,1.34,0,0,1,.46,0c.1,0,.17.14.19.34a12,12,0,0,1,0,1.41c0,.58,0,1.22-.08,1.92s-.1,1.43-.16,2.2-.12,1.53-.18,2.28-.13,1.45-.18,2.11-.09,1.24-.11,1.72c0,.27,0,.59,0,1s0,.78,0,1.22v1.35c0,.48,0,.94,0,1.39a20.6,20.6,0,0,1,1.17-2.92,14.07,14.07,0,0,1,1.25-2.08,6.21,6.21,0,0,1,1.21-1.27,2.54,2.54,0,0,1,1-.51,1.27,1.27,0,0,1,.37.05l.57.16a4.8,4.8,0,0,1,.54.19,1,1,0,0,1,.28.13l.21.23a2.82,2.82,0,0,1,.29.39,3.49,3.49,0,0,1,.27.63A5.67,5.67,0,0,1,814.85,461Z" transform="translate(-539.75 -395.6)"/><path class="cls-13" d="M828.72,459a.42.42,0,0,1,.06.21,1.77,1.77,0,0,1,0,.24,1.75,1.75,0,0,1-.58,1.17,5.34,5.34,0,0,1-1.84,1.11,1.32,1.32,0,0,1-.47.11.7.7,0,0,1-.45-.15.41.41,0,0,1-.18-.31.36.36,0,0,1,.13-.24l.28-.28.28-.26c.09-.08.13-.14.13-.19s-.08-.14-.23-.14a2.69,2.69,0,0,0-.88.2,8.77,8.77,0,0,0-1.15.52l-1.22.7c-.41.25-.78.49-1.1.73a8,8,0,0,0-.79.64c-.21.18-.31.32-.31.4s.05.07.14.07h.5c.32,0,.72,0,1.22.05a12.92,12.92,0,0,1,1.55.2,12.48,12.48,0,0,1,1.65.42,5.66,5.66,0,0,1,1.48.72A3.73,3.73,0,0,1,828,466a2.74,2.74,0,0,1,.42,1.53,3.47,3.47,0,0,1-.67,2,5.62,5.62,0,0,1-1,1.08,9.13,9.13,0,0,1-1.64,1.09,15.12,15.12,0,0,1-2.79,1.19,8.6,8.6,0,0,1-2.35.38,3.38,3.38,0,0,1-2.14-.61,2.09,2.09,0,0,1-.78-1.74,2.91,2.91,0,0,1,.32-1.43,3.61,3.61,0,0,1,.76-1,2.93,2.93,0,0,1,.87-.58,2.38,2.38,0,0,1,.66-.2l.18,0H820c.1,0,.16.06.16.19v.17a.27.27,0,0,0,.05.18.37.37,0,0,1,0,.17c0,.07-.08.18-.25.31s-.35.31-.55.49a7.54,7.54,0,0,0-.55.59,1,1,0,0,0-.25.61c0,.24.18.35.55.35a4.51,4.51,0,0,0,1.48-.27,9.27,9.27,0,0,0,1.51-.69,8.93,8.93,0,0,0,1.41-.95,14.26,14.26,0,0,0,1.18-1,6.84,6.84,0,0,0,.8-.95,1.42,1.42,0,0,0,.3-.71.57.57,0,0,0-.36-.5,3.74,3.74,0,0,0-1-.32,10.73,10.73,0,0,0-1.43-.16c-.55,0-1.12-.05-1.73-.05a11.31,11.31,0,0,0-1.56.09q-.62.09-.75.09l-.34,0a1.18,1.18,0,0,1-.47-.15,1.12,1.12,0,0,1-.41-.4,1.28,1.28,0,0,1-.18-.74,2.17,2.17,0,0,1,.15-.75,3.28,3.28,0,0,1,.52-.9,7.67,7.67,0,0,1,1-1,13.71,13.71,0,0,1,1.66-1.17,16.75,16.75,0,0,1,3.69-1.69,8.67,8.67,0,0,1,1.33-.3,7.81,7.81,0,0,1,.91-.08,2.7,2.7,0,0,1,1.17.2A1.3,1.3,0,0,1,828.72,459Z" transform="translate(-539.75 -395.6)"/><path class="cls-13" d="M750.78,423.78a17.72,17.72,0,0,1-1.6,2.83,20.79,20.79,0,0,1-1.78,2.25,17.05,17.05,0,0,1-1.76,1.69c-.56.48-1.06.86-1.49,1.17l1.16,0,1.44,0,1.57,0c.53,0,1,0,1.51-.06,0-.54.08-1.08.13-1.62s.08-1.05.13-1.53.08-.92.12-1.32.07-.74.1-1a1.31,1.31,0,0,1,0-.25,1.08,1.08,0,0,1,.08-.19,1.36,1.36,0,0,1,.12-.17c.05-.06.1-.14.16-.23s.12-.19.17-.27l.11-.2c0-.06,0-.09.08-.1s.06,0,.1,0a.41.41,0,0,0,.1.09.12.12,0,0,0,.1,0,.14.14,0,0,0,.08-.1,1.07,1.07,0,0,0,.08-.28s0,0,.08-.07a.2.2,0,0,1,.13,0,.17.17,0,0,1,.12.05.15.15,0,0,1,0,.15s0,.17,0,.4,0,.52,0,.87,0,.77,0,1.23,0,.94,0,1.44l-.06,1.5c0,.51,0,1-.06,1.45l.37,0h.79a.84.84,0,0,1,.31.07s.07.05.11.12a.9.9,0,0,1,.08.23.6.6,0,0,1,0,.23.14.14,0,0,1-.1.13.26.26,0,0,0-.19.19,2.22,2.22,0,0,0-.09.28c0,.05-.15.09-.41.12s-.58.05-1,.07c0,.82-.06,1.52-.08,2.09s0,1,0,1.4,0,.63,0,.82a1,1,0,0,1-.07.36.46.46,0,0,1-.13.12l-.13,0h-.21a.18.18,0,0,0-.09,0l-.12.08a.3.3,0,0,1-.11,0s-.07,0-.09-.08a.08.08,0,0,0-.07,0h-.18s0,0,0-.06,0-.05-.06-.07l-.12,0-.13,0a.06.06,0,0,1-.06,0,.85.85,0,0,0,0-.17l0-.07,0-.11a2.1,2.1,0,0,1,0-.25c0-.14,0-.29,0-.45v-.53q0-.61,0-1.38c0-.5,0-1,.07-1.59H749l-1,0-1.11,0-1.15,0-1.08,0-.93,0-.67,0a1.73,1.73,0,0,0-.32,0,.29.29,0,0,1-.17,0,.17.17,0,0,1-.1-.1.52.52,0,0,1-.07-.15,1.54,1.54,0,0,0,0-.17c0-.08-.07-.12-.08-.12s.09,0,.22,0l-.09-.13a.51.51,0,0,0-.09-.16.56.56,0,0,1-.1-.18.09.09,0,0,1,0-.1.2.2,0,0,1,.1-.07l.11-.05a24.36,24.36,0,0,0,2.2-1.56c.63-.51,1.18-1,1.67-1.49a15.76,15.76,0,0,0,1.26-1.43c.37-.47.7-.92,1-1.37s.58-.88.85-1.3.55-.85.85-1.27a.15.15,0,0,1,.16-.07.46.46,0,0,1,.19.08.8.8,0,0,1,.15.17A.17.17,0,0,1,750.78,423.78Z" transform="translate(-539.75 -395.6)"/><path class="cls-13" d="M768.45,436.51l0,.13a.38.38,0,0,1,0,.1c0,.06,0,.1-.07.11l-.16,0a.37.37,0,0,0,0,.1,1.67,1.67,0,0,1,0,.18.42.42,0,0,1-.11.18.25.25,0,0,1-.21.08,1.44,1.44,0,0,1-.66-.18,1,1,0,0,1-.36-.43,1.94,1.94,0,0,1-.15-.64q0-.37,0-.84c0-.36,0-.74.05-1.13s.06-.78.1-1.15.08-.73.11-1.06,0-.61,0-.85a3.19,3.19,0,0,0-.08-.79c-.06-.18-.14-.28-.24-.28s-.16.14-.36.42a9.73,9.73,0,0,0-.69,1.26c-.27.56-.57,1.26-.88,2.11a28.92,28.92,0,0,0-.88,3,.39.39,0,0,0,0,.15c0,.06,0,.1,0,.15a.22.22,0,0,1,0,.11.12.12,0,0,1-.1,0,.42.42,0,0,1-.22-.05.87.87,0,0,1-.14-.12l-.11-.12a.18.18,0,0,0-.13-.06.07.07,0,0,0,0,0l0,.1-.07.09a.15.15,0,0,1-.11,0l-.13,0a.29.29,0,0,1-.14-.13.91.91,0,0,1-.12-.31,2.79,2.79,0,0,1,0-.56v-.45c0-.09,0-.24,0-.43s0-.43.06-.69,0-.54.08-.85.06-.61.08-.92,0-.62.06-.92,0-.58,0-.83c0-.75-.1-1.13-.28-1.13a.37.37,0,0,0-.16,0,1,1,0,0,0-.22.21,3.72,3.72,0,0,0-.29.44,7.86,7.86,0,0,0-.37.76c-.14.32-.29.7-.47,1.16s-.37,1-.59,1.65a6,6,0,0,0-.15.61c-.06.27-.11.55-.16.83s-.08.54-.11.78,0,.39,0,.46,0,.05-.1.1l-.25.12-.28.11a.84.84,0,0,1-.23,0,.36.36,0,0,1-.26-.09.73.73,0,0,1-.13-.35,4.21,4.21,0,0,1-.05-.7c0-.3,0-.68,0-1.15,0-.12,0-.36,0-.71s0-.76.05-1.22.06-.95.1-1.45.09-1,.14-1.39a10.55,10.55,0,0,1,.19-1c.08-.27.16-.41.25-.41a.21.21,0,0,1,.13.05,1.14,1.14,0,0,1,.11.11l.1.1a.11.11,0,0,0,.09,0,.12.12,0,0,0,.09,0l.08-.09a.36.36,0,0,1,.07-.1l0,0s0,0,.09.1l.12.24c0,.09.07.18.1.28a.73.73,0,0,1,0,.22q0,.21,0,.57c0,.25-.05.52-.08.82s-.06.6-.08.91,0,.59,0,.85v0c.09-.29.19-.59.31-.89s.24-.6.38-.89a9.32,9.32,0,0,1,.45-.83,4.6,4.6,0,0,1,.5-.68,2.77,2.77,0,0,1,.53-.46,1,1,0,0,1,.55-.17,1.31,1.31,0,0,1,.58.12.91.91,0,0,1,.4.32,1.36,1.36,0,0,1,.22.47,2,2,0,0,1,.07.56,4.41,4.41,0,0,1,0,.6c0,.23-.05.48-.07.76s0,.58-.08.91,0,.69,0,1.08c.09-.24.19-.53.31-.87s.26-.68.41-1,.32-.72.48-1.08.35-.67.52-.95a3.57,3.57,0,0,1,.53-.68.74.74,0,0,1,.5-.26l.32.05a4.38,4.38,0,0,1,.52.13,2.28,2.28,0,0,1,.51.21.7.7,0,0,1,.32.28,2,2,0,0,1,.15.48,4.32,4.32,0,0,1,.06.81q0,.45-.06,1.08c0,.42-.12.92-.23,1.51a5.62,5.62,0,0,0-.06.56c0,.18,0,.36,0,.53s0,.49,0,.71.05.42.08.59l.1.45C768.4,436.38,768.43,436.47,768.45,436.51Z" transform="translate(-539.75 -395.6)"/><path class="cls-13" d="M776.13,431.33a5.89,5.89,0,0,1-.07.85c0,.34-.1.7-.16,1.08s-.11.78-.17,1.18a9.23,9.23,0,0,0-.08,1.13,4.8,4.8,0,0,0,.05.67,1.91,1.91,0,0,0,.17.54.53.53,0,0,1,.08.23.85.85,0,0,1-.06.31.17.17,0,0,0,0,.1s0,.07,0,.12a.47.47,0,0,1-.09.12.57.57,0,0,1-.13.08.14.14,0,0,1-.14,0l-.17-.08h-.11l-.08,0a.07.07,0,0,1-.09,0l-.37-.21a.59.59,0,0,1-.26-.26.73.73,0,0,1-.07-.2,1.39,1.39,0,0,1-.06-.33c0-.12,0-.26,0-.41l0-.43a5,5,0,0,1-.7,1,4,4,0,0,1-.75.66,2.5,2.5,0,0,1-.75.34,2.35,2.35,0,0,1-.66.1,1.55,1.55,0,0,1-.55-.08.94.94,0,0,1-.36-.19,5.8,5.8,0,0,1-.7-.79.76.76,0,0,1-.18-.5,3.08,3.08,0,0,1,.31-1.18,4.64,4.64,0,0,1,.65-1,6.16,6.16,0,0,1,.87-.82,11.19,11.19,0,0,1,1-.65,8.25,8.25,0,0,1,1-.48c.33-.13.63-.23.89-.31,0-.36,0-.68,0-1a3.1,3.1,0,0,0-.08-.6,1.85,1.85,0,0,0-.46-.92,1,1,0,0,0-.75-.31,1,1,0,0,0-.57.21,2,2,0,0,0-.51.57,3.73,3.73,0,0,0-.38.83,3.66,3.66,0,0,0-.15,1,2.09,2.09,0,0,0,0,.25l0,.25a.09.09,0,0,1,0,.1.4.4,0,0,1-.13,0l-.17,0a.33.33,0,0,0-.15,0l-.08,0h-.06l-.08-.05-.12-.1a.75.75,0,0,0-.17-.1l-.15-.07-.11-.06a.07.07,0,0,1,0-.06,3.43,3.43,0,0,1,.27-1.29,4.62,4.62,0,0,1,.74-1.2,4.05,4.05,0,0,1,1.08-.9,2.68,2.68,0,0,1,1.31-.35,2.59,2.59,0,0,1,1,.17,2.14,2.14,0,0,1,.7.44,2.27,2.27,0,0,1,.48.6,3.57,3.57,0,0,1,.29.67,4.08,4.08,0,0,1,.15.63C776.1,431,776.12,431.2,776.13,431.33Zm-1.82,1.78a5.82,5.82,0,0,0-.66.29,8,8,0,0,0-.73.42,9.18,9.18,0,0,0-.74.57,5.15,5.15,0,0,0-.69.71,3.71,3.71,0,0,0-.55.8,1.8,1.8,0,0,0-.21.6.66.66,0,0,0,0,.38c0,.1.08.15.14.17a1,1,0,0,0,.64,0,2.23,2.23,0,0,0,.67-.34,5.09,5.09,0,0,0,.66-.59c.21-.23.4-.47.59-.71s.35-.49.5-.73.27-.44.36-.61Z" transform="translate(-539.75 -395.6)"/><path class="cls-13" d="M785.87,429l-.21.34-.44.72-.62,1c-.23.37-.47.75-.71,1.15l-.73,1.19-.67,1.1-.55.92c-.15.27-.26.47-.34.6s-.18.34-.31.62-.29.6-.46,1l-.56,1.17c-.19.43-.39.85-.59,1.27s-.38.84-.57,1.23-.34.76-.49,1.07l-.35.78a2.64,2.64,0,0,0-.16.36.77.77,0,0,1-.17.29.71.71,0,0,1-.21.08.09.09,0,0,1-.11,0,.35.35,0,0,1-.07-.12.67.67,0,0,0-.06-.12.15.15,0,0,0-.07-.07c-.09,0-.14,0-.15,0l-.06-.14a.07.07,0,0,0-.06,0H777s0,0,0-.06l0-.34a2.51,2.51,0,0,1,.05-.31,2.78,2.78,0,0,1,.2-.46c.12-.23.26-.52.44-.86l.58-1.12.66-1.25q.35-.63.66-1.26c.22-.41.42-.79.59-1.13-.09-.19-.2-.43-.35-.72s-.31-.63-.48-1-.36-.74-.56-1.15-.39-.81-.57-1.21-.37-.79-.54-1.17-.33-.7-.46-1-.23-.55-.3-.74a1.32,1.32,0,0,1-.11-.37.22.22,0,0,1,0-.16.12.12,0,0,1,.1-.05l.14,0,.16.06.23.1a.11.11,0,0,0,.16,0c0-.05.07-.08.17-.08a.41.41,0,0,1,.23,0s0,0,0,0a.07.07,0,0,0,.05,0l.06-.06a.18.18,0,0,1,.09-.06.28.28,0,0,1,.2,0,.64.64,0,0,1,.17.26c0,.1.1.28.2.52l.37.86.48,1.06c.17.38.35.75.52,1.11s.34.71.5,1,.29.59.41.8l.59-1.07.64-1.13.64-1.11.61-1,.51-.8a4.69,4.69,0,0,1,.36-.53.33.33,0,0,0,.08-.13s0,0,.08-.06l.1,0H785l.14,0a.09.09,0,0,1,.08.06,0,0,0,0,0,.06,0l.09,0,.12,0a.17.17,0,0,1,.12,0l.14,0a.26.26,0,0,1,.12,0,.17.17,0,0,1,.07.1A.34.34,0,0,1,785.87,429Z" transform="translate(-539.75 -395.6)"/><path class="cls-13" d="M787.93,436c0,.16,0,.32,0,.47a3.87,3.87,0,0,1-.06.46q0,.24-.12.51c-.05.18-.1.38-.17.59a1.83,1.83,0,0,1-.39.71,3.55,3.55,0,0,1-.57.53.6.6,0,0,1-.2.08l-.25,0-.26,0-.24-.06-.17-.09s-.06-.07-.05-.11a.08.08,0,0,1,0-.06l.06-.05a2.25,2.25,0,0,0,.62-.84,3.51,3.51,0,0,0,.29-1,1.13,1.13,0,0,1-.21-.12,1.07,1.07,0,0,1-.19-.18,1,1,0,0,1-.15-.21.7.7,0,0,1,0-.25,1.16,1.16,0,0,1,.06-.34,3.29,3.29,0,0,1,.17-.39,3.1,3.1,0,0,1,.21-.36.75.75,0,0,1,.22-.22.83.83,0,0,1,.27-.1h.2a1,1,0,0,1,.71.24A1,1,0,0,1,787.93,436Z" transform="translate(-539.75 -395.6)"/><path class="cls-13" d="M807.4,436.82a.47.47,0,0,0,0,.16.25.25,0,0,1,0,.1s0,0-.07,0l-.21-.21-.26-.08-.11.11-.06.05c-.06.05-.11.05-.15,0l-.16-.14-.12-.09h0v.19a.31.31,0,0,1-.05.11.17.17,0,0,0,0,.1c0,.06,0,.08-.07.06a.11.11,0,0,0-.08,0,.06.06,0,0,1-.05,0,.21.21,0,0,1-.08-.06.53.53,0,0,1-.1-.13,1.26,1.26,0,0,0-.07-.16l-.06-.14a1.07,1.07,0,0,1-.06-.17c0-.06,0-.15-.08-.26s0-.3-.08-.59-.07-.63-.11-1-.08-.85-.13-1.35-.1-1-.15-1.58-.1-1.1-.16-1.66-.1-1.11-.15-1.64-.09-1-.13-1.51-.07-.89-.11-1.25l-4.1,10.23a3.78,3.78,0,0,1-.28.53,2.57,2.57,0,0,1-.33.38,1,1,0,0,1-.32.19.24.24,0,0,1-.25,0,.82.82,0,0,1-.25-.24,1.82,1.82,0,0,1-.16-.31l-.12-.35c0-.12-.07-.24-.11-.37a8.41,8.41,0,0,1-.26-.93q-.15-.64-.36-1.5c-.13-.57-.27-1.19-.42-1.87s-.29-1.37-.45-2.06-.3-1.38-.44-2.06-.28-1.29-.41-1.85c0,.23-.09.57-.16,1s-.16.95-.25,1.53-.21,1.18-.32,1.83l-.33,2c-.11.65-.22,1.28-.32,1.9s-.2,1.17-.29,1.66-.15.9-.21,1.23-.08.52-.09.6a.43.43,0,0,1,0,.19,1,1,0,0,1-.09.18.73.73,0,0,1-.14.18l-.16.06a.17.17,0,0,1-.14,0,.11.11,0,0,1-.08-.1.24.24,0,0,0-.11-.14.42.42,0,0,0-.13-.07.26.26,0,0,1-.13-.14.36.36,0,0,0,0-.11l0,0s0,0,0,0L793,437a1.14,1.14,0,0,1-.09-.26,1,1,0,0,1,0-.37c0-.05,0-.17.08-.36s.09-.44.14-.73.12-.59.19-.94.13-.69.2-1,.13-.7.18-1,.11-.62.15-.88.1-.53.19-.93.2-.85.32-1.35l.38-1.55.4-1.57c.13-.5.24-1,.35-1.39s.18-.76.23-1l0-.1a.31.31,0,0,1,0-.1c0-.06,0-.1,0-.11a.12.12,0,0,0,.08,0,0,0,0,0,1,0,0s0,0,0,0,0-.06,0-.06a.25.25,0,0,1,0-.17l.09-.05H796s.05,0,.05-.06a.71.71,0,0,1,0-.17s0-.05.06,0a.16.16,0,0,1,.09,0l.15.07a.16.16,0,0,0,.09,0h.07l.1,0,.13.08a.15.15,0,0,0,.11.05.13.13,0,0,0,.08,0l.06-.07,0-.07a.11.11,0,0,1,.09-.05.16.16,0,0,1,.11.05.58.58,0,0,0,.1.11l.05.05v0a0,0,0,0,1,0,0c.1.3.19.62.27,1s.16.7.24,1.12.18.9.3,1.45.25,1.2.43,1.95c.28,1.27.53,2.34.75,3.2s.39,1.51.54,1.95l.48-1.12c.19-.44.4-.92.61-1.44s.43-1.06.67-1.61l.69-1.66.66-1.57.56-1.35.41-1c.12-.27.19-.45.22-.53l.1-.23a.47.47,0,0,1,.08-.14.2.2,0,0,1,.09-.11.13.13,0,0,1,.12,0s0,0,0,0,0,0,0,0a.05.05,0,0,1,0,0s0-.05,0-.05H805l.09,0h.07l.06,0a0,0,0,0,1,.06,0c.06,0,.11,0,.13,0a.13.13,0,0,1,.11-.05h.09l.06,0a.07.07,0,0,0,0-.05h.07l0,0,0,0a1.42,1.42,0,0,1,.1.35c0,.2.08.45.13.75s.1.62.15,1,.1.67.14,1c0,.1,0,.34.08.7s.08.81.14,1.34.11,1.1.18,1.74.13,1.29.2,1.94.13,1.3.19,1.92.11,1.19.15,1.68.08.9.1,1.22S807.4,436.78,807.4,436.82Z" transform="translate(-539.75 -395.6)"/><path class="cls-13" d="M816.09,433a5.35,5.35,0,0,1-.31,1.89,4.27,4.27,0,0,1-.83,1.43,3.49,3.49,0,0,1-1.22.91,3.31,3.31,0,0,1-1.46.32,3.68,3.68,0,0,1-.7-.07,3.38,3.38,0,0,1-.76-.25,3.41,3.41,0,0,1-.74-.45,3,3,0,0,1-.64-.69,3.28,3.28,0,0,1-.45-1,4.14,4.14,0,0,1-.15-1.27,5,5,0,0,1,.2-1.5,5.3,5.3,0,0,1,.51-1.21,4.26,4.26,0,0,1,.72-.93,5.07,5.07,0,0,1,.8-.65,3.8,3.8,0,0,1,.77-.4,2.32,2.32,0,0,1,.64-.15c.1,0,.14,0,.13,0a.22.22,0,0,1-.08.09l-.1.1s0,.06,0,.06l.12,0,.09.05.08-.09a.3.3,0,0,1,.14,0l.11,0h.08s0,0,0-.06,0-.11.08-.12a1.14,1.14,0,0,1,.25,0,1.88,1.88,0,0,1,.37.07,3,3,0,0,1,.54.24,3.43,3.43,0,0,1,.6.46,3,3,0,0,1,.56.72,4.43,4.43,0,0,1,.42,1A5.39,5.39,0,0,1,816.09,433ZM812.47,430a3.47,3.47,0,0,0-.69.57,4.54,4.54,0,0,0-.61.84,4.16,4.16,0,0,0-.45,1.05,4.39,4.39,0,0,0-.17,1.22,5.33,5.33,0,0,0,.13,1.25,3.2,3.2,0,0,0,.36,1,1.92,1.92,0,0,0,.59.61,1.47,1.47,0,0,0,.78.21,1.54,1.54,0,0,0,.78-.22,2.15,2.15,0,0,0,.69-.66,3.66,3.66,0,0,0,.48-1.09,5.66,5.66,0,0,0,.19-1.51,4.1,4.1,0,0,0-.23-1.46,3.86,3.86,0,0,0-.52-1,2,2,0,0,0-.55-.52.94.94,0,0,0-.32-.16h-.21A.52.52,0,0,1,812.47,430Z" transform="translate(-539.75 -395.6)"/><path class="cls-13" d="M823.66,436.76a.54.54,0,0,1-.09.27.27.27,0,0,1-.24.14.16.16,0,0,1-.14-.05.19.19,0,0,0-.1-.05.27.27,0,0,0-.14.05.3.3,0,0,1-.21.05.5.5,0,0,1-.35-.14,1.06,1.06,0,0,1-.23-.37,2.53,2.53,0,0,1-.14-.49,3,3,0,0,1,0-.5c0-.3,0-.64,0-1s0-.77.08-1.18.06-.8.08-1.2,0-.77,0-1.12a4.9,4.9,0,0,0-.09-1.06c-.06-.25-.17-.38-.32-.38s-.3.15-.46.38a7.32,7.32,0,0,0-.47.9c-.16.36-.31.77-.47,1.23s-.3.93-.44,1.4-.28.94-.41,1.4-.24.85-.34,1.2-.19.64-.26.86-.12.32-.15.32a.21.21,0,0,1-.12,0l-.07-.08a.71.71,0,0,0-.09-.07.21.21,0,0,0-.15,0l-.12,0-.07.05-.1.05a.56.56,0,0,1-.21,0,.8.8,0,0,1-.36-.09.3.3,0,0,1-.17-.28,4.67,4.67,0,0,1,0-.49c0-.25.06-.56.1-.92s.07-.78.12-1.23.08-.91.11-1.39.07-1,.1-1.45,0-.93,0-1.37c0-.21,0-.41,0-.59s0-.36,0-.53a.05.05,0,0,1,.06-.06.36.36,0,0,1,.19,0,.38.38,0,0,1,.09.09.69.69,0,0,1,0,.1s0,0,0,0l.07,0,.09-.08.08-.07s0,0,.07,0h.1a.37.37,0,0,0,.21,0,.41.41,0,0,0,.09-.1.54.54,0,0,0,0-.1.06.06,0,0,1,.06-.05.21.21,0,0,1,.09.05.73.73,0,0,1,.11.15,1.21,1.21,0,0,1,.09.27,1.68,1.68,0,0,1,0,.41c0,.22,0,.49,0,.81s0,.68-.06,1.05,0,.74-.07,1.12,0,.72,0,1c.08-.29.16-.61.27-1s.22-.7.36-1.07.28-.71.44-1.05a7.18,7.18,0,0,1,.52-.92,3.36,3.36,0,0,1,.59-.64,1,1,0,0,1,.66-.25,1.76,1.76,0,0,1,.88.2,1.61,1.61,0,0,1,.55.55,2.55,2.55,0,0,1,.27.82,6.46,6.46,0,0,1,.08,1c0,.31,0,.63,0,1l-.09,1c0,.34,0,.67-.08,1s0,.63,0,.92a7.06,7.06,0,0,0,.06,1A5,5,0,0,1,823.66,436.76Z" transform="translate(-539.75 -395.6)"/><path class="cls-13" d="M834,424.54c0,.14,0,.35-.06.63s-.07.61-.12,1-.1.81-.16,1.28-.1,1-.15,1.49-.08,1-.11,1.59,0,1.09,0,1.63c0,.28,0,.59,0,1s0,.71,0,1.07,0,.72.05,1.07,0,.67,0,.95,0,.51,0,.69a.79.79,0,0,1,0,.31.16.16,0,0,1-.13.06l-.16,0-.15,0a.16.16,0,0,0-.11,0,.34.34,0,0,1-.07.11l-.11.1a.44.44,0,0,1-.16.06.26.26,0,0,1-.19,0,1.17,1.17,0,0,1-.32-.28,1,1,0,0,1-.17-.48c0-.13,0-.29,0-.47s0-.37,0-.58,0-.43,0-.66v-.65a6.56,6.56,0,0,1-.57,1.19,4.74,4.74,0,0,1-.72.9,3.52,3.52,0,0,1-.8.62,3.29,3.29,0,0,1-.83.32,2.69,2.69,0,0,1-1.13,0,4.11,4.11,0,0,1-1.09-.42,3.46,3.46,0,0,1-.88-.73,2.11,2.11,0,0,1-.48-1,6.64,6.64,0,0,1-.11-.72c0-.23,0-.46,0-.67a5.26,5.26,0,0,1,.21-1.54,5.4,5.4,0,0,1,.54-1.24,5.08,5.08,0,0,1,.73-.95,7.3,7.3,0,0,1,.76-.67,4.46,4.46,0,0,1,.66-.41,2.77,2.77,0,0,1,.43-.17,2.54,2.54,0,0,1,.48-.09l.46,0a3.62,3.62,0,0,1,.82.09,4.29,4.29,0,0,1,.69.23,4.14,4.14,0,0,1,.56.31c.17.12.31.22.43.32l.06-1.2q0-.6.06-1.14c0-.36,0-.69.07-1s.06-.57.09-.78c0-.36.11-.67.15-.93s.11-.49.16-.68.1-.35.15-.49.09-.25.14-.35a.23.23,0,0,1,.14,0,.82.82,0,0,1,.21,0l.25.07.24.12a.86.86,0,0,1,.17.15.51.51,0,0,1,.11.22,1.28,1.28,0,0,1,0,.33Q834,424.23,834,424.54Zm-2.17,6.6c0-.08,0-.18,0-.28l0-.3-.15.13-.09.1a1.23,1.23,0,0,1-.3.28c-.06,0-.11,0-.17-.07a3.89,3.89,0,0,0-1.31-.92,3.18,3.18,0,0,0-1.13-.25,2.13,2.13,0,0,0-.6.08,1.84,1.84,0,0,0-.41.16,1.63,1.63,0,0,0-.49.49,3.49,3.49,0,0,0-.37.75,4.25,4.25,0,0,0-.24.9,5.39,5.39,0,0,0-.09,1,4.46,4.46,0,0,0,.11,1,2.67,2.67,0,0,0,.33.83,1.57,1.57,0,0,0,1.5.75,2.49,2.49,0,0,0,1.06-.28,3.33,3.33,0,0,0,.85-.64,4.09,4.09,0,0,0,.65-.88,7.23,7.23,0,0,0,.45-1,6.79,6.79,0,0,0,.27-1A4.55,4.55,0,0,0,831.8,431.14Z" transform="translate(-539.75 -395.6)"/><path class="cls-13" d="M841.3,431.33a4.61,4.61,0,0,1-.06.85c0,.34-.1.7-.16,1.08s-.12.78-.17,1.18a9.23,9.23,0,0,0-.08,1.13,4.8,4.8,0,0,0,0,.67,1.63,1.63,0,0,0,.17.54.7.7,0,0,1,.08.23.85.85,0,0,1-.06.31.17.17,0,0,0,0,.1s0,.07,0,.12a.47.47,0,0,1-.09.12.57.57,0,0,1-.13.08.14.14,0,0,1-.14,0l-.17-.08h-.11l-.09,0a.06.06,0,0,1-.08,0l-.37-.21a.59.59,0,0,1-.26-.26.67.67,0,0,1-.08-.2q0-.13-.06-.33c0-.12,0-.26,0-.41l0-.43a5,5,0,0,1-.71,1,4,4,0,0,1-.75.66,2.56,2.56,0,0,1-.74.34,2.35,2.35,0,0,1-.66.1,1.55,1.55,0,0,1-.55-.08,1,1,0,0,1-.37-.19,5.59,5.59,0,0,1-.69-.79.85.85,0,0,1-.19-.5,3.48,3.48,0,0,1,.31-1.18,5,5,0,0,1,.65-1,6.24,6.24,0,0,1,.88-.82,9.9,9.9,0,0,1,1-.65,8.25,8.25,0,0,1,1-.48c.33-.13.62-.23.89-.31,0-.36,0-.68-.05-1a3.28,3.28,0,0,0-.07-.6,1.85,1.85,0,0,0-.46-.92,1,1,0,0,0-.75-.31,1,1,0,0,0-.57.21,2,2,0,0,0-.51.57,3.33,3.33,0,0,0-.38.83,3.67,3.67,0,0,0-.16,1,2.11,2.11,0,0,0,0,.25,1.13,1.13,0,0,0,0,.25.1.1,0,0,1-.05.1l-.14,0-.16,0a.35.35,0,0,0-.16,0l-.07,0h-.07l-.07-.05-.13-.1a.54.54,0,0,0-.16-.1l-.15-.07-.11-.06s0,0,0-.06a3.45,3.45,0,0,1,.28-1.29,4.37,4.37,0,0,1,.74-1.2,4.05,4.05,0,0,1,1.08-.9,2.65,2.65,0,0,1,1.31-.35,2.59,2.59,0,0,1,1,.17,2.25,2.25,0,0,1,.7.44,2.75,2.75,0,0,1,.48.6,3.57,3.57,0,0,1,.29.67,4.08,4.08,0,0,1,.15.63C841.28,431,841.29,431.2,841.3,431.33Zm-1.81,1.78a5.82,5.82,0,0,0-.66.29,6.82,6.82,0,0,0-.73.42,7.7,7.7,0,0,0-.74.57,5.15,5.15,0,0,0-.69.71,3.71,3.71,0,0,0-.55.8,2.12,2.12,0,0,0-.22.6.89.89,0,0,0,0,.38.28.28,0,0,0,.14.17,1,1,0,0,0,.65,0,2.36,2.36,0,0,0,.67-.34,4.45,4.45,0,0,0,.65-.59c.21-.23.41-.47.6-.71s.35-.49.5-.73.27-.44.36-.61Z" transform="translate(-539.75 -395.6)"/><path class="cls-13" d="M851,429s-.08.15-.2.34l-.45.72-.61,1c-.23.37-.47.75-.71,1.15l-.73,1.19-.68,1.1c-.2.35-.39.65-.54.92s-.27.47-.34.6-.18.34-.31.62-.29.6-.46,1-.36.75-.56,1.17-.39.85-.59,1.27l-.57,1.23-.49,1.07-.36.78-.16.36a.79.79,0,0,1-.16.29.68.68,0,0,1-.22.08.1.1,0,0,1-.11,0,.63.63,0,0,1-.07-.12.67.67,0,0,0-.06-.12.12.12,0,0,0-.07-.07c-.08,0-.13,0-.14,0a.86.86,0,0,0-.07-.14.07.07,0,0,0-.06,0h-.1a.08.08,0,0,1,0-.06c0-.11,0-.23,0-.34a2.61,2.61,0,0,1,0-.31,3.21,3.21,0,0,1,.21-.46l.43-.86c.18-.33.37-.71.59-1.12l.66-1.25.66-1.26c.22-.41.41-.79.59-1.13l-.35-.72c-.15-.3-.31-.63-.48-1l-.56-1.15-.58-1.21q-.27-.6-.54-1.17c-.17-.37-.32-.7-.45-1s-.24-.55-.31-.74a1.84,1.84,0,0,1-.11-.37.37.37,0,0,1,.05-.16.14.14,0,0,1,.11-.05l.14,0,.15.06.23.1c.08,0,.13,0,.16,0s.08-.08.17-.08a.4.4,0,0,1,.23,0s0,0,.06,0l0,0,.06-.06a.16.16,0,0,1,.08-.06.26.26,0,0,1,.2,0,.64.64,0,0,1,.18.26c0,.1.1.28.2.52s.23.54.37.86.3.68.48,1.06.34.75.52,1.11.34.71.49,1,.3.59.42.8l.58-1.07.64-1.13.65-1.11c.21-.36.42-.69.61-1l.5-.8c.15-.23.27-.41.36-.53a.33.33,0,0,0,.08-.13s0,0,.08-.06l.11,0h.14l.14,0s.06,0,.08.06,0,0,.06,0l.1,0,.11,0a.17.17,0,0,1,.12,0l.14,0a.29.29,0,0,1,.13,0,.12.12,0,0,1,.06.1A.19.19,0,0,1,851,429Z" transform="translate(-539.75 -395.6)"/><path class="cls-14" d="M982.64,597.2h-1.93l-87.85,48.46,129.72-.19Zm-3.25,14.55,21.06,27-81.59,2.46Z" transform="translate(-539.75 -395.6)"/><path class="cls-15" d="M980.71,597.2l-89.78,48.46,129.72-.19Zm-3.26,14.55,21.07,27-81.6,2.46Z" transform="translate(-539.75 -395.6)"/><path class="cls-16" d="M842.08,645.73a6,6,0,0,1,0-6.38l31-2.17s3,2.72,2.16,8.55Z" transform="translate(-539.75 -395.6)"/><path class="cls-17" d="M812.11,645.56s-4-5.54,1.7-11.27l18.89,4.3a10.28,10.28,0,0,1,0,7.15Z" transform="translate(-539.75 -395.6)"/><rect class="cls-13" x="711" y="457.06" width="1.19" height="155.06" transform="translate(-588.8 -323.16) rotate(-5.63)"/><rect class="cls-13" x="162.78" y="207.25" width="223.4" height="1.19"/><path class="cls-13" d="M910.85,612.19l-.8-.88a34,34,0,0,1,15.35-7.78c-13.6-1.9-17.06-5.76-17.21-5.94l.9-.78s4.16,4.51,20.85,6.05l0,1.18C929.81,604.05,919.11,604.66,910.85,612.19Z" transform="translate(-539.75 -395.6)"/><path class="cls-13" d="M699.17,473.62l-1.07-.52c0-.09,4.49-9.27,4.52-18.33l1.18-.11c0,.09,1.72,8.57,8.77,18.14l-1,.71a55.63,55.63,0,0,1-8-15.15A51.9,51.9,0,0,1,699.17,473.62Z" transform="translate(-539.75 -395.6)"/><rect class="cls-13" x="203.66" y="205.47" width="1.19" height="5.75"/><rect class="cls-13" x="713.13" y="582.5" width="5.75" height="1.19" transform="translate(-583.2 -337.77) rotate(-4.49)"/><rect class="cls-13" x="711.3" y="560.83" width="5.75" height="1.19" transform="translate(-581.51 -337.98) rotate(-4.49)"/><rect class="cls-13" x="707.12" y="517.71" width="5.75" height="1.19" transform="translate(-578.05 -338.59) rotate(-4.48)"/><rect class="cls-13" x="704.83" y="496.03" width="5.75" height="1.19" transform="translate(-576.45 -338.68) rotate(-4.49)"/><rect class="cls-13" x="703.21" y="474.36" width="5.75" height="1.19" transform="translate(-574.77 -338.86) rotate(-4.49)"/><rect class="cls-13" x="226.17" y="205.47" width="1.19" height="5.75"/><rect class="cls-13" x="248.68" y="205.47" width="1.19" height="5.75"/><rect class="cls-13" x="271.19" y="205.47" width="1.19" height="5.75"/><rect class="cls-13" x="293.69" y="205.47" width="1.19" height="5.75"/><rect class="cls-13" x="316.2" y="205.47" width="1.19" height="5.75"/><rect class="cls-13" x="338.71" y="205.47" width="1.19" height="5.75"/><rect class="cls-13" x="361.22" y="205.47" width="1.19" height="5.75"/><path class="cls-13" d="M706.39,583.86c-.06.31-.19.88-.36,1.69a8.18,8.18,0,0,1-.56,2c-.05,0-.09-.06-.15-.11s-.07-.1-.06-.13l.91-4.42h.2a.72.72,0,0,1,.1.38A3,3,0,0,1,706.39,583.86Z" transform="translate(-539.75 -395.6)"/><path class="cls-13" d="M745.67,611c-.06.31-.19.88-.35,1.69a7.65,7.65,0,0,1-.57,2s-.08-.06-.14-.11a.23.23,0,0,1-.07-.13l.91-4.42h.2a.75.75,0,0,1,.1.38A3,3,0,0,1,745.67,611Z" transform="translate(-539.75 -395.6)"/><path class="cls-13" d="M768.12,610.55l-.65.66a35.41,35.41,0,0,1-3.08,2.84c0,.09,0,.15.17.18a1.78,1.78,0,0,0,.57.06l2.09-.14a8.74,8.74,0,0,1,1,.07l.06-.05,0,.29-1.09,0c-.24,0-.63,0-1.16.08l-.59.06-.16,0-.16,0-.12,0a.27.27,0,0,1-.13,0,2.57,2.57,0,0,1-.63-.1,2,2,0,0,1-.57-.23v-.06a.38.38,0,0,1,.06-.27,3,3,0,0,1,.58-.52c.29-.22.8-.63,1.52-1.24.28-.25.7-.66,1.25-1.2a5,5,0,0,0,1-1.34.49.49,0,0,0-.34-.16,5.48,5.48,0,0,0-2,.59,5.63,5.63,0,0,0-.92.45h-.18a.21.21,0,0,1-.11-.16c0-.11.12-.21.34-.3s.28-.09.48-.18a7,7,0,0,1,2.48-.76.73.73,0,0,1,.47.15.52.52,0,0,1,.19.39A1.26,1.26,0,0,1,768.12,610.55Z" transform="translate(-539.75 -395.6)"/><path class="cls-13" d="M791.57,613a3.54,3.54,0,0,1-.51.3,17.53,17.53,0,0,1-3.23,1,8.43,8.43,0,0,0-1.54.57l-.15-.21a2.55,2.55,0,0,1,.68-.41,16,16,0,0,1,1.56-.47,16,16,0,0,0,1.55-.46,5.37,5.37,0,0,0,1.47-.77c0-.13-.24-.23-.57-.31a14.3,14.3,0,0,0-1.58-.25c-.55-.05-.89-.08-1-.08l-.08,0-.08,0a2.7,2.7,0,0,1-1-.23v-.21a.47.47,0,0,1,.19-.12l.19,0c.19-.05.39-.09.58-.15a6.81,6.81,0,0,0,1.25-.53c.63-.31.93-.55.93-.71s-.11-.2-.33-.2a9.91,9.91,0,0,0-2.52.33l-.37.15a1.28,1.28,0,0,1-.35.1.18.18,0,0,1-.2-.2c0-.18.53-.36,1.58-.53a13.68,13.68,0,0,1,2-.21.94.94,0,0,1,.45.17c.19.12.29.24.29.34s-.32.56-1,.91c0,0-.44.22-1.31.69a2.57,2.57,0,0,0,.91.16l.38.06.45,0c1.14.15,1.72.42,1.72.82C791.93,612.65,791.8,612.79,791.57,613Z" transform="translate(-539.75 -395.6)"/><path class="cls-13" d="M813.42,609.28a.69.69,0,0,0-.15.25,3.75,3.75,0,0,0-.21.59,4.26,4.26,0,0,1-.24.67,2.67,2.67,0,0,0-.15.27,2,2,0,0,0-.09.59c0,.07,0,.15,0,.22l-.15.14c-.05.16-.1.32-.15.44a6.33,6.33,0,0,0-.4,1.7,1.43,1.43,0,0,1,0,.24,2,2,0,0,0,0,.23l-.24,0a.72.72,0,0,1-.11-.49c0-.07,0-.15,0-.26s0-.16,0-.26a4.75,4.75,0,0,1,.22-.94,2.28,2.28,0,0,0,.12-.41v-.21a.29.29,0,0,0-.22-.09l-.29,0a4.79,4.79,0,0,1-.83.06,3.71,3.71,0,0,1-.83-.07,4.64,4.64,0,0,1-.83-.29.49.49,0,0,1,0-.12,1,1,0,0,1,.19-.48c.17-.25.27-.41.3-.46l.24-.63c.14-.34.24-.51.29-.51s0,0,.15.05a.34.34,0,0,0,0,.11.66.66,0,0,1,0,.13,2.63,2.63,0,0,1-.28.82,7.38,7.38,0,0,0-.35.84,1.94,1.94,0,0,0,.86.25h1.16a.89.89,0,0,0,.51-.1.8.8,0,0,0,.26-.6,2.92,2.92,0,0,1,.19-.5c.08-.18.19-.46.35-.82a2.86,2.86,0,0,1,.5-.76h.15a.17.17,0,0,1,.07.16S813.48,609.21,813.42,609.28Z" transform="translate(-539.75 -395.6)"/><path class="cls-13" d="M836.15,613.23a3.13,3.13,0,0,1-.52.37l-1,.39-.86.27-.91.3a5.71,5.71,0,0,1-.82.26,1,1,0,0,1-.36-.1.51.51,0,0,1,.28-.28l.82-.27c2.17-.7,3.25-1.2,3.25-1.5s-.31-.45-.93-.73a5,5,0,0,0-1.47-.43l-.85-.16a.28.28,0,0,1-.13-.11.31.31,0,0,0-.24,0,.24.24,0,0,1-.06-.18,3.28,3.28,0,0,1,.34-.9,3.75,3.75,0,0,1,.49-.86,12.61,12.61,0,0,0,1.6.1l.29,0,.17-.06a.53.53,0,0,1,.2-.06h.95a2.46,2.46,0,0,1,0,.26,5.94,5.94,0,0,1-1.41.28l-.67,0-.67-.05c-.25,0-.42.17-.53.5l-.22.7.13.1c.28.06.72.16,1.29.31a5.45,5.45,0,0,1,1.47.56,1.17,1.17,0,0,1,.7.95C836.53,612.85,836.41,613,836.15,613.23Z" transform="translate(-539.75 -395.6)"/><path class="cls-13" d="M856.74,614.58a5.35,5.35,0,0,1-.76.09,3.29,3.29,0,0,1-.82-.1,1.45,1.45,0,0,1-.76-.61A1.68,1.68,0,0,1,854,613a.63.63,0,0,1,.05-.23,1.26,1.26,0,0,0,.06-.22,4.62,4.62,0,0,1,.15-.62,5.76,5.76,0,0,1,2.53-2.75,1.83,1.83,0,0,1,.61-.25l.67-.08.1.1a.22.22,0,0,1-.1.15,3.91,3.91,0,0,0-1.73.92,6.54,6.54,0,0,0-1.35,1.47,5.43,5.43,0,0,0-.39.8l-.09.18a.32.32,0,0,0-.07.17v.53l.08.08s.06,0,.08-.08a.66.66,0,0,1,.22-.31,3,3,0,0,1,.85-.36,6.37,6.37,0,0,1,1.92-.28c1.1,0,1.66.3,1.66.89S858.43,614.29,856.74,614.58Zm1.69-1.86a3.22,3.22,0,0,0-.78-.12,6.27,6.27,0,0,0-1.67.25c-.78.2-1.22.48-1.29.81a1.63,1.63,0,0,0,1.41.65,6.33,6.33,0,0,0,1.62-.32,4,4,0,0,0,.75-.35c.35-.21.53-.38.53-.52S858.81,612.82,858.43,612.72Z" transform="translate(-539.75 -395.6)"/><path class="cls-13" d="M879.67,611.46c-.66.88-1.18,1.59-1.55,2.15-.11.15-.29.45-.57.85a.64.64,0,0,1-.27.24.3.3,0,0,0-.19-.05l0,0s0,0,0-.08a3,3,0,0,1,.49-.79l.61-.85,1-1.39a8.87,8.87,0,0,0,.9-1.43.3.3,0,0,0-.28-.13l-.57.05a10.3,10.3,0,0,1-1.14.08h-.16l-.15,0h-.1a.24.24,0,0,1-.18.07h-1.18v-.25a5,5,0,0,1,1.61-.21c.38,0,.91,0,1.61-.1l.75-.06c.16,0,.24.12.24.36A3.41,3.41,0,0,1,879.67,611.46Z" transform="translate(-539.75 -395.6)"/><path class="cls-13" d="M896.81,612.65a1.36,1.36,0,0,0,.12-.2,1.79,1.79,0,0,1,.22-.34,1.66,1.66,0,0,1,.18-.19.29.29,0,0,1,.13-.08.31.31,0,0,0,.12-.1l-.81-.27a1,1,0,0,1-.53-1,.77.77,0,0,1,.14-.44,4.06,4.06,0,0,1,.33-.34l.26.15a1.83,1.83,0,0,1-.24.36.46.46,0,0,0-.13.3c0,.22.13.4.41.56a1.25,1.25,0,0,0,.62.2h.24a.52.52,0,0,1,.27-.09l.22-.11.21-.13.32-.07.18-.18a2.29,2.29,0,0,1,.23-.21.44.44,0,0,0,.11-.3.41.41,0,0,0-.19-.31.73.73,0,0,0-.34-.17l-.29-.06a.08.08,0,0,0-.06,0,1.31,1.31,0,0,1-.27,0,.6.6,0,0,0-.25-.07,1.66,1.66,0,0,0-.55.12l-.22.07a1.07,1.07,0,0,0-.2.11,2.05,2.05,0,0,0,0-.36c0-.05.06-.12.2-.18a1.47,1.47,0,0,1,.64-.14l.35,0,.51,0a.11.11,0,0,1,.1.05,1,1,0,0,0,.28.13,1.26,1.26,0,0,1,.36.16.71.71,0,0,1,.19.24.62.62,0,0,1,.1.29,1,1,0,0,1-.33.88c-.09.09-.22.22-.41.38a.67.67,0,0,0,.3.05l.26,0a1.58,1.58,0,0,1,.78.37,1.11,1.11,0,0,1,.47.85,1.21,1.21,0,0,1-.59.95,1.81,1.81,0,0,1-.23.2,1.41,1.41,0,0,1-.46.22c-.19.08-.5.2-.95.35a2,2,0,0,1-.47.17,1.72,1.72,0,0,1-.78,0,1.3,1.3,0,0,1-.6-.3.91.91,0,0,1-.18-.6,1.63,1.63,0,0,1,.1-.61Zm.11.88a.45.45,0,0,0,.16.38.41.41,0,0,0,.23.1l.24,0a2.27,2.27,0,0,0,.43.05,2,2,0,0,0,.94-.26l1.07-.59a2.2,2.2,0,0,0,.31-.24q.21-.19.21-.3c0-.34-.23-.59-.68-.75l-.36-.14a1.41,1.41,0,0,0-.39,0,4.21,4.21,0,0,0-1.35.3c-.07,0-.15.11-.25.26l-.12.12a.55.55,0,0,0-.13.17l-.09.13a.7.7,0,0,0-.1.19s0,.13-.07.22A2.36,2.36,0,0,0,896.92,613.53Z" transform="translate(-539.75 -395.6)"/><path class="cls-13" d="M706.25,562.45l-.65.67a37.06,37.06,0,0,1-3.08,2.83c0,.09,0,.15.17.18a1.85,1.85,0,0,0,.58.06l2.08-.14a8.74,8.74,0,0,1,1,.07l.06,0,0,.29-1.09,0c-.24,0-.63,0-1.16.08l-.59.06-.16,0-.15,0a.36.36,0,0,0-.13,0,.27.27,0,0,1-.12,0,2.57,2.57,0,0,1-.64-.1,2.5,2.5,0,0,1-.57-.22v-.07a.38.38,0,0,1,.06-.27,3.42,3.42,0,0,1,.58-.52c.29-.22.8-.63,1.52-1.24.28-.25.7-.66,1.25-1.2a5,5,0,0,0,1-1.34.49.49,0,0,0-.34-.16,5.48,5.48,0,0,0-2,.59,5.63,5.63,0,0,0-.92.45h-.18a.21.21,0,0,1-.11-.16c0-.11.12-.21.34-.3s.28-.09.48-.18a7,7,0,0,1,2.48-.76.73.73,0,0,1,.47.15.53.53,0,0,1,.19.4A1.26,1.26,0,0,1,706.25,562.45Z" transform="translate(-539.75 -395.6)"/><path class="cls-13" d="M705.13,543.88a2.8,2.8,0,0,1-.51.3,17.53,17.53,0,0,1-3.23,1,9.26,9.26,0,0,0-1.54.57l-.15-.2a2.12,2.12,0,0,1,.68-.41,15.56,15.56,0,0,1,1.56-.48c.73-.19,1.24-.34,1.55-.45a5.67,5.67,0,0,0,1.47-.78c-.05-.13-.24-.23-.57-.31a12.67,12.67,0,0,0-1.58-.24q-.82-.09-1-.09l-.08,0-.08,0a2.7,2.7,0,0,1-1-.23v-.2a.53.53,0,0,1,.19-.13l.19,0c.19,0,.39-.09.58-.15a6.81,6.81,0,0,0,1.25-.53c.63-.31.93-.55.93-.7s-.11-.21-.33-.21a9.5,9.5,0,0,0-2.52.34,2.19,2.19,0,0,0-.37.14,1.48,1.48,0,0,1-.35.11.19.19,0,0,1-.2-.21c0-.18.53-.36,1.58-.53a13.68,13.68,0,0,1,2-.21.94.94,0,0,1,.45.17c.19.12.29.24.29.35s-.32.55-1,.9l-1.31.69a2.57,2.57,0,0,0,.91.16l.38.06.45,0c1.14.14,1.72.41,1.72.81C705.49,543.58,705.36,543.71,705.13,543.88Z" transform="translate(-539.75 -395.6)"/><path class="cls-13" d="M703.18,519.23a.66.66,0,0,0-.15.24,4.69,4.69,0,0,0-.21.59,4.91,4.91,0,0,1-.24.68,1.65,1.65,0,0,0-.15.26,2.08,2.08,0,0,0-.09.6c0,.07,0,.14,0,.21l-.15.14q-.08.25-.15.45a6.2,6.2,0,0,0-.4,1.69,1.36,1.36,0,0,1,0,.24,2,2,0,0,0,0,.23l-.24.06a.75.75,0,0,1-.11-.5c0-.06,0-.15,0-.26s0-.15,0-.25a4.81,4.81,0,0,1,.22-1,2.06,2.06,0,0,0,.12-.41V522a.29.29,0,0,0-.22-.09l-.29,0a6.25,6.25,0,0,1-.83,0,4.56,4.56,0,0,1-.83-.06,7.11,7.11,0,0,1-.83-.29.62.62,0,0,1,0-.13.93.93,0,0,1,.19-.47c.17-.26.27-.41.3-.47s.13-.34.24-.62.24-.52.29-.52,0,0,.15,0a.39.39,0,0,0,0,.12.49.49,0,0,1,0,.12,2.48,2.48,0,0,1-.28.82,7.17,7.17,0,0,0-.35.85,2.08,2.08,0,0,0,.86.25h1.16a1,1,0,0,0,.51-.1.84.84,0,0,0,.26-.6,2.92,2.92,0,0,1,.19-.51l.35-.82a2.86,2.86,0,0,1,.5-.76h.15a.17.17,0,0,1,.07.16S703.24,519.16,703.18,519.23Z" transform="translate(-539.75 -395.6)"/><path class="cls-13" d="M701.35,502.19a2.76,2.76,0,0,1-.52.37q-.6.26-1,.39l-.85.27-.91.31a7.55,7.55,0,0,1-.83.26,1.29,1.29,0,0,1-.35-.1.5.5,0,0,1,.28-.29l.81-.26c2.18-.71,3.26-1.21,3.26-1.51s-.31-.44-.93-.73a5.14,5.14,0,0,0-1.47-.43l-.86-.15a.49.49,0,0,1-.13-.11s-.11-.07-.23-.06a.22.22,0,0,1-.06-.18,2.84,2.84,0,0,1,.34-.89,3.62,3.62,0,0,1,.48-.86,15,15,0,0,0,1.6.09h.29l.17-.07a.55.55,0,0,1,.2-.05h1a1.79,1.79,0,0,1,0,.25,5.47,5.47,0,0,1-1.41.28,6.51,6.51,0,0,1-.67,0l-.68,0c-.24,0-.42.16-.53.49-.05.16-.11.39-.21.7l.12.11,1.3.3a5.71,5.71,0,0,1,1.47.57c.46.28.7.59.7.95Q701.74,501.86,701.35,502.19Z" transform="translate(-539.75 -395.6)"/><path class="cls-13" d="M697.78,482.56a4.5,4.5,0,0,1-.75.1,3.92,3.92,0,0,1-.83-.1,1.5,1.5,0,0,1-.76-.61,1.68,1.68,0,0,1-.38-.93.6.6,0,0,1,.05-.23,2,2,0,0,0,.06-.22,4.62,4.62,0,0,1,.15-.62,5.67,5.67,0,0,1,2.53-2.75,1.8,1.8,0,0,1,.62-.25l.66-.09.1.11a.22.22,0,0,1-.1.15,3.86,3.86,0,0,0-1.73.92,6.5,6.5,0,0,0-1.35,1.46,5.64,5.64,0,0,0-.38.8l-.1.18a.39.39,0,0,0-.07.17v.54l.08.08s.07,0,.09-.08a.51.51,0,0,1,.21-.31,3,3,0,0,1,.85-.36,6.07,6.07,0,0,1,1.92-.29c1.1,0,1.66.3,1.66.89S699.47,482.28,697.78,482.56Zm1.69-1.86a3.12,3.12,0,0,0-.78-.11,6.52,6.52,0,0,0-1.66.24c-.79.21-1.23.48-1.3.82a1.62,1.62,0,0,0,1.41.64,6.46,6.46,0,0,0,1.63-.32,4.1,4.1,0,0,0,.74-.34c.35-.21.53-.39.53-.53S699.85,480.8,699.47,480.7Z" transform="translate(-539.75 -395.6)"/><circle class="cls-13" cx="199.27" cy="184.84" r="2.66"/><circle class="cls-13" cx="249.27" cy="144.56" r="2.66"/><circle class="cls-13" cx="272.6" cy="191.94" r="2.66"/><path class="cls-18" d="M906.27,566.72a2.66,2.66,0,1,1-2.66-2.66A2.66,2.66,0,0,1,906.27,566.72Z" transform="translate(-539.75 -395.6)"/><path class="cls-13" d="M726.15,599.37l-1-.57c1.3-2.4,32.17-58.78,63.91-59.23,6.82-.07,12.22,1.85,16.08,5.78,8.29,8.46,7.74,24.41,7.41,33.94-.13,3.69-.25,7.18.31,7.88,4.49,5.67,58,2.91,104.06-29.42l.69,1C872,590.68,817.49,595,811.88,587.91c-.79-1-.74-3.52-.56-8.66.32-9.34.86-25-7.07-33.06-3.62-3.7-8.75-5.55-15.22-5.43C758,541.2,726.47,598.79,726.15,599.37Z" transform="translate(-539.75 -395.6)"/><rect class="cls-13" x="179.12" y="184.54" width="2.38" height="0.6"/><rect class="cls-13" x="186.63" y="184.54" width="5.13" height="0.6"/><polygon class="cls-13" points="199.11 187.23 198.99 185.13 196.89 185.13 196.89 184.54 199.55 184.54 199.7 187.2 199.11 187.23"/><polygon class="cls-13" points="199.77 198.64 199.44 192.94 200.03 192.9 200.37 198.61 199.77 198.64"/><polygon class="cls-13" points="200.24 206.72 200.1 204.35 200.7 204.31 200.83 206.69 200.24 206.72"/><rect class="cls-13" x="248.98" y="199.27" width="0.6" height="2.38"/><path class="cls-13" d="M789.32,590.08h-.59v-4.8h.59Zm0-9.59h-.59v-4.8h.59Zm0-9.59h-.59v-4.8h.59Zm0-9.59h-.59v-4.8h.59Zm0-9.59h-.59v-4.8h.59Z" transform="translate(-539.75 -395.6)"/><polygon class="cls-13" points="249.57 146.53 248.98 146.53 248.98 144.45 246.89 144.45 246.89 143.85 249.57 143.85 249.57 146.53"/><path class="cls-13" d="M781.64,540.05h-5v-.6h5Zm-10,0h-5v-.6h5Zm-10,0h-5v-.6h5Zm-10,0h-5v-.6h5Zm-10,0h-5v-.6h5Zm-10,0h-5v-.6h5Zm-10,0h-5v-.6h5Z" transform="translate(-539.75 -395.6)"/><polygon class="cls-13" points="169.49 144.9 169.44 144.3 171.81 144.11 171.86 144.71 169.49 144.9"/><rect class="cls-13" x="362.46" y="201.99" width="0.6" height="2.38"/><path class="cls-13" d="M902.81,592.38h-.6v-5.21h.6Zm0-10.42h-.6v-5.21h.6Zm0-10.43h-.6v-5.21h.6Zm0-10.42h-.6V555.9h.6Z" transform="translate(-539.75 -395.6)"/><polygon class="cls-13" points="363.06 155.08 362.46 155.08 362.46 153 360.38 152.97 360.38 152.38 363.06 152.41 363.06 155.08"/><path class="cls-13" d="M895.42,548.51l-4.7-.06v-.59l4.7.06Zm-9.4-.12-4.7-.06v-.59l4.71.06Zm-9.41-.11-4.7-.06v-.6l4.7.06Zm-9.4-.12-4.71-.06v-.6l4.71.06ZM857.8,548l-4.7-.06v-.6l4.7.06Zm-9.41-.12-4.7-.06v-.59l4.7.06Zm-9.4-.12-4.71-.06v-.59l4.71.05Zm-9.41-.12-4.7-.06V547l4.7.06Zm-9.4-.12-4.71-.06v-.59l4.7.06Zm-9.41-.12-4.7-.05v-.6l4.71.06Zm-9.41-.11-4.7-.06v-.6l4.7.06Zm-9.4-.12-4.71-.06v-.6l4.7.06Zm-9.41-.12-4.7-.06v-.6l4.7.06Zm-9.4-.12-4.71-.06v-.6l4.7.06Zm-9.41-.12-4.7-.06v-.59l4.71.06Zm-9.41-.12-4.7-.06v-.59l4.7.06Zm-9.4-.12-4.71-.06V546l4.71.06Zm-9.41-.12-4.7,0v-.6l4.71.06Zm-9.41-.12-4.7,0v-.6l4.7.06Z" transform="translate(-539.75 -395.6)"/><rect class="cls-13" x="715.22" y="544.75" width="0.6" height="2.38" transform="translate(-379.22 858.87) rotate(-89.27)"/><polygon class="cls-13" points="272.13 205.5 271.54 205.46 271.67 203.09 272.27 203.12 272.13 205.5"/><polygon class="cls-13" points="272.43 200.19 271.83 200.16 272 197.23 272.6 197.26 272.43 200.19"/><polygon class="cls-13" points="272.76 194.33 272.17 194.29 272.28 192.23 270.22 192.23 270.22 191.64 272.91 191.64 272.76 194.33"/><path class="cls-13" d="M805.2,587.83h-4.76v-.59h4.76Zm-9.53,0h-4.76v-.59h4.76Zm-9.53,0h-4.76v-.59h4.76Zm-9.53,0h-4.76v-.59h4.76Zm-9.53,0h-4.76v-.59h4.76Zm-9.53,0h-4.76v-.59h4.76Zm-9.53,0h-4.76v-.59H748Zm-9.53,0h-4.77v-.59h4.77Zm-9.53,0h-4.77v-.59H729Z" transform="translate(-539.75 -395.6)"/><rect class="cls-13" x="177.3" y="191.64" width="2.38" height="0.6"/><polygon class="cls-19" points="18.21 70.63 28.42 66.91 85.22 243.68 72.25 246.85 18.21 70.63"/><polygon class="cls-20" points="18.21 70.63 18.21 74.54 68.49 246.85 72.25 246.85 18.21 70.63"/><path class="cls-21" d="M580.47,522.64l3.19-.44A45.38,45.38,0,0,1,597,540.86c4.28,11.36,2.82,30.36,2.82,30.36l-3.28.4s.15-23.67-2.13-29.79-13.57-18.09-13.57-18.09Z" transform="translate(-539.75 -395.6)"/><path class="cls-22" d="M580.47,522.64l16.06,49s1.59-17.22-1.19-28.8S580.47,522.64,580.47,522.64Z" transform="translate(-539.75 -395.6)"/><polygon class="cls-23" points="41.08 128.14 43.02 151.53 55.62 193.68 60.05 175.62 56.78 176.02 41.08 128.14"/><polygon class="cls-10" points="18.21 74.54 18.21 86.49 60.29 246.85 68.49 246.85 18.21 74.54"/></g></g></svg>