<svg xmlns="http://www.w3.org/2000/svg" xmlns:xlink="http://www.w3.org/1999/xlink" viewBox="0 0 424.25 298.98"><defs><style>.cls-1{isolation:isolate;}.cls-2{fill:#e8681a;}.cls-3{fill:#b9eac9;mix-blend-mode:multiply;}.cls-4{fill:url(#Áåçûìÿííûé_ãðàäèåíò_131);}.cls-5,.cls-6{mix-blend-mode:screen;}.cls-5{fill:url(#Áåçûìÿííûé_ãðàäèåíò_139);}.cls-6{fill:url(#Áåçûìÿííûé_ãðàäèåíò_139-2);}.cls-7{fill:#2c8182;}.cls-8{fill:#ffa665;}.cls-9{fill:#eda779;}.cls-10{fill:#f9532a;}</style><linearGradient id="Áåçûìÿííûé_ãðàäèåíò_131" x1="590.33" y1="375.83" x2="555.82" y2="55.82" gradientUnits="userSpaceOnUse"><stop offset="0" stop-color="#fff4d7"/><stop offset="0.29" stop-color="#fef0d3"/><stop offset="0.57" stop-color="#fce6c8"/><stop offset="0.83" stop-color="#f7d4b5"/><stop offset="1" stop-color="#f4c5a5"/></linearGradient><linearGradient id="Áåçûìÿííûé_ãðàäèåíò_139" x1="-4.15" y1="41.65" x2="406.01" y2="45.55" gradientUnits="userSpaceOnUse"><stop offset="0" stop-color="#8c804c"/><stop offset="0.96" stop-color="#050503"/><stop offset="1"/></linearGradient><linearGradient id="Áåçûìÿííûé_ãðàäèåíò_139-2" x1="7.17" y1="279.71" x2="406.31" y2="283.5" xlink:href="#Áåçûìÿííûé_ãðàäèåíò_139"/></defs><g class="cls-1"><g id="Capa_2" data-name="Capa 2"><path class="cls-2" d="M428.68,92.17l139-30.45.29-.07.31.06q22,3.84,43.89,8L656,77.93l87.73,16.36L743.43,96,655.57,80.46l-43.94-7.78q-22-3.75-43.9-7.93h.6L429.06,93.9Z" transform="translate(-358.57 -49.78)"/><path class="cls-3" d="M772.6,95.16h10.22c-7.28,78.72-7.55,160.72-2.92,245l-397.33,8.59L399.8,220.84Z" transform="translate(-358.57 -49.78)"/><polygon class="cls-2" points="0 39.43 418.41 43.29 416.32 48.72 2.27 48.72 0 39.43"/><path class="cls-4" d="M366.82,98.5q.93,117.62,10.07,234l392.3-2.33c-3.93-85.2-5.35-165.3,0-231.65Z" transform="translate(-358.57 -49.78)"/><polygon class="cls-2" points="11.18 280.37 418.41 277.59 416.24 282.7 14.21 288.72 11.18 280.37"/><polygon class="cls-5" points="0 39.43 1.13 44.07 417.21 46.43 418.41 43.29 0 39.43"/><polygon class="cls-6" points="11.18 280.37 13.15 285.79 417.5 279.73 418.41 277.59 11.18 280.37"/><polygon class="cls-7" points="213.91 32.86 204.89 32.86 202.83 0 215.97 0 213.91 32.86"/><path class="cls-8" d="M752.35,308.59c-104,4.52-211.9,5.77-322.91,4.33l.23-6.34,4.69-8.72,9.21-3.23L454,268.32l-3-11.51L435.64,251,442,213.66l35.7-1,25.68,14.89,9.16-25.09,31.7,4.74,15.31,17.15-10.85,23.28,52.72,35.07,21-11.24,21.71-9,9.12,12.82,21.93-4.63L698.65,260l3.72-21.58.4-26.64L694.28,204,682.77,190.2l-6.32-12.13-16.09,3.18-7.62,13.41-7.67,22.41L625,209.32l-9.58,10.5-4,5.23,3.7,8.5-5.15,19.34-23.41-13,.5-16.61,6.1-31.3L621,175.25l-.36-36.17-10.85-8.54-20.62,13.83-13.26,8.23-7.6-1.77-14.73-9.53-4-7-22.68,14.75-1.12,16.74-15.4-5.45-.51-25.11-22.56,7.34-.05,5.14-6.91,16.17-28.16,6.24-13.34-36.8,5.06-22.85,306.78.94c-4.88,68.83-4.86,134.85,1.67,197.18Z" transform="translate(-358.57 -49.78)"/><path class="cls-9" d="M517.14,314.53q-44.59,0-87.71-.79c-10.26-.19-21-.42-32.72-.72l-.7,0-.09-.69c-9.7-71.75-13.84-141.64-12-202.11l0-.8h.8q29.55.15,59.13.25,62.57.22,125.26.35c59.56.14,121.14.29,181.53.6h.89l-.08.89c-5.38,56.52-4.82,122.81,1.66,197l.08.85-.85,0C671.69,312.82,592.89,314.53,517.14,314.53ZM397.45,311.4c11.47.29,21.95.52,32,.7,101.64,1.88,210,.43,322-4.29-6.38-73.58-7-139.38-1.68-195.58-60.1-.31-121.36-.45-180.62-.6q-62.67-.13-125.27-.35-29.19-.09-58.33-.24C383.76,171.05,387.87,240.29,397.45,311.4Z" transform="translate(-358.57 -49.78)"/><path class="cls-10" d="M561.4,283.8c-19-9.47-35.19-23.59-48.78-39.94,3.52-1,7-2.89,10.53-3.91-7.11-4.9-13.62-10.64-20.1-16.34-1.74,10-1.27,20.18-.72,30.3l-.56.5c1.51-2.66,3.93-4.94,6-7.21a103.79,103.79,0,0,0,24.49,42.49c.16-3.06.55-5.17.71-8.23C542.21,282.45,552.14,282.81,561.4,283.8Z" transform="translate(-358.57 -49.78)"/><path class="cls-10" d="M642.13,287.73c-8.64-25.14-10.39-52.59-7.88-79.06,3.06,3.06,7,5.28,10.09,8.34a296.76,296.76,0,0,1-8.1-37.18c-7.93,10.46-15,22.11-21.63,33.45,3-3,7.47-5.15,11.32-7.08a228.37,228.37,0,0,0-7.23,76c2.41-5.81,5-10.74,7.41-16.55C629.52,274.34,635.92,280.71,642.13,287.73Z" transform="translate(-358.57 -49.78)"/></g></g></svg>