<svg xmlns="http://www.w3.org/2000/svg" xmlns:xlink="http://www.w3.org/1999/xlink" viewBox="0 0 70.2 44.7"><defs><style>.cls-1{isolation:isolate;}.cls-2{fill:url(#Áåçûìÿííûé_ãðàäèåíò_60);}.cls-3{fill:url(#Áåçûìÿííûé_ãðàäèåíò_170);}.cls-4{fill:#ae616a;}.cls-4,.cls-6{opacity:0.5;mix-blend-mode:multiply;}.cls-5{fill-rule:evenodd;fill:url(#Áåçûìÿííûé_ãðàäèåíò_135);}.cls-6{fill:#894065;}</style><linearGradient id="Áåçûìÿííûé_ãðàäèåíò_60" x1="789.53" y1="547.09" x2="789.53" y2="502.4" gradientUnits="userSpaceOnUse"><stop offset="0" stop-color="#6891d4"/><stop offset="0.98" stop-color="#a6ddf1"/></linearGradient><linearGradient id="Áåçûìÿííûé_ãðàäèåíò_170" x1="756.43" y1="512.25" x2="809.7" y2="512.25" gradientUnits="userSpaceOnUse"><stop offset="0" stop-color="#ffa210"/><stop offset="1" stop-color="#ffcc13"/></linearGradient><linearGradient id="Áåçûìÿííûé_ãðàäèåíò_135" x1="21.67" y1="43.37" x2="53.51" y2="43.37" gradientUnits="userSpaceOnUse"><stop offset="0" stop-color="#fcb4bd"/><stop offset="1" stop-color="#ffeacd"/></linearGradient></defs><g class="cls-1"><g id="Capa_9" data-name="Capa 9"><path class="cls-2" d="M768.58,546.1l-14-36.29s1.47-6.06,7-7.41l44.12,6.91,18.71,37.78Z" transform="translate(-754.22 -502.4)"/><path class="cls-3" d="M756.43,514.52a11.86,11.86,0,0,1,7.26-7.36l44.61,7.36,1.4,2.83-44.49-6.64a13.27,13.27,0,0,0-7.69,6.64Z" transform="translate(-754.22 -502.4)"/><path class="cls-4" d="M761.6,502.4l18.11,41.4,44.72,3.29-55.85-1-14-36.29S756.06,503.41,761.6,502.4Z" transform="translate(-754.22 -502.4)"/><polygon class="cls-5" points="21.67 43.95 26.27 42.38 53.51 44.35 21.67 43.95"/><polygon class="cls-6" points="1.55 13.82 0 28.13 1.55 28.13 3.8 43.6 14.36 43.7 2.82 13.71 1.55 13.82"/></g></g></svg>