<svg id="Capa_2" data-name="Capa 2" xmlns="http://www.w3.org/2000/svg" xmlns:xlink="http://www.w3.org/1999/xlink" viewBox="0 0 68.25 79.47"><defs><style>.cls-1{fill:url(#Áåçûìÿííûé_ãðàäèåíò_50);}.cls-2{fill:#be747e;}.cls-3{fill:url(#Áåçûìÿííûé_ãðàäèåíò_50-2);}</style><linearGradient id="Áåçûìÿííûé_ãðàäèåíò_50" x1="560.8" y1="236.77" x2="503.97" y2="236.77" gradientUnits="userSpaceOnUse"><stop offset="0" stop-color="#ffe8c2"/><stop offset="1" stop-color="#ec9996"/></linearGradient><linearGradient id="Áåçûìÿííûé_ãðàäèåíò_50-2" x1="560.8" y1="234.63" x2="503.97" y2="234.63" xlink:href="#Áåçûìÿííûé_ãðàäèåíò_50"/></defs><path class="cls-1" d="M552.27,265.5a1.14,1.14,0,0,1,.17.66,3.28,3.28,0,0,1-.41,1.67h0a3.53,3.53,0,0,1-.95,1.12,38.23,38.23,0,0,1-5.47,3.93,19.3,19.3,0,0,1-3.18,1.26,42.54,42.54,0,0,1-5.42,1.36c-4.76-1-9.51-3.52-13.9-5.62A67.81,67.81,0,0,0,509,265.11q-3.27-.78-6.59-1.36a1.33,1.33,0,0,1-1-.92.9.9,0,0,1,.05-.72c3.51-1.33,6.92-1.51,10.22-3.29A22.38,22.38,0,0,1,515.2,257a2.09,2.09,0,0,1,2,0c.83.57,1.66-.9,2-1.43a5.92,5.92,0,0,1,.56-1c.48-.45,1-.32,1.48-.64,2.26-1.56.34-6.53-.92-8.3-.47-.66-1-1.26-1.53-1.88a24.58,24.58,0,0,1-2.24-3.21,6.85,6.85,0,0,1-3.83-.84,3.09,3.09,0,0,0-.84-.32,2.08,2.08,0,0,0-1,.2,6.26,6.26,0,0,1-2.41.58,2.16,2.16,0,0,1-2-1.25,6.84,6.84,0,0,0-.21-.74,1.61,1.61,0,0,0-1.5-.77,8.76,8.76,0,0,0-1.76.38,7.08,7.08,0,0,1-6.52-1.76c-.55-.54-.86-1.4-1.42-1.88s-1.18-.49-1.67-1a3.89,3.89,0,0,1-1.09-3.68,6.55,6.55,0,0,1,.48-1.17l.36-.78c.39-1,.56-2.05.95-3.05a3.61,3.61,0,0,1,2.11-2.24h0c.87-.25,1.93-.05,2.53-.71s.28-1.78.63-2.62a.81.81,0,0,1,.1-.21c.64-1.08,2.35-.91,3.19-1.84a3.31,3.31,0,0,0,.57-1l2.64-6.24a20.32,20.32,0,0,1,2.56-4.27c2.21-3.08,6-4.56,9.57-5.75a27.41,27.41,0,0,1,7.23-1.61c3.4-.18,6.73.78,10,1.79a10.68,10.68,0,0,1,3.19,1.38,3.89,3.89,0,0,1,1.75,2.87c4,3,6.63,7.65,9.13,12a7.81,7.81,0,0,1,1.45,4.34,1,1,0,0,1,0,.17c0,.3-.08.63-.16,1a16.31,16.31,0,0,1-.4,1.64c-.13.46-.28.9-.42,1.28a4,4,0,0,1,.59.58,6.63,6.63,0,0,1,1.11,2c1,2.64.93,6.2,1,8.52a36.68,36.68,0,0,1-.31,6.71,26,26,0,0,1-1.44,5.54,14.49,14.49,0,0,1-2,2.87c-.2.28-.4.55-.61.82a6.58,6.58,0,0,1-2.1,1.94,14.23,14.23,0,0,1-2.14.74l-.21.06a8.19,8.19,0,0,0-3.14,1.86,3.45,3.45,0,0,0-.26.28c-1,1.25,0,2,1.33,2.72l.41.2a14.64,14.64,0,0,1,2.1,1,17.12,17.12,0,0,1,1.72,1.47,22.6,22.6,0,0,0,5.88,3.34A1.4,1.4,0,0,1,552.27,265.5Z" transform="translate(-492.24 -198.03)"/><path class="cls-2" d="M521.71,258.22a.44.44,0,0,0,.07.37c.13.18.4.15.62.16a6.14,6.14,0,0,1,1.7.59,7.89,7.89,0,0,0,1.95.24c2.88.22,5.58,1.87,8.45,1.65-1.68.56-3.37,1-5.08,1.49.44.43.86.87,1.29,1.3s.24.38.43.77l2.25,4.62a40.65,40.65,0,0,0-14.12-9.59,4.82,4.82,0,0,0-2.06-.48,5.21,5.21,0,0,0-2.47,1.05l-3.36,2.17a7.88,7.88,0,0,0-1.75,1.39,2.93,2.93,0,0,0-.63,1.16q-3.27-.78-6.59-1.36a1.25,1.25,0,0,1-.91-1.64c3.51-1.33,6.92-1.51,10.22-3.29A22.38,22.38,0,0,1,515.2,257a2.09,2.09,0,0,1,2,0c.83.57,1.66-.9,2-1.43a5.92,5.92,0,0,1,.56-1c.48-.45,1-.32,1.48-.64,2.26-1.56.34-6.53-.92-8.3-.47-.66-1-1.26-1.53-1.88a24.58,24.58,0,0,1-2.24-3.21,6.85,6.85,0,0,1-3.83-.84,3.09,3.09,0,0,0-.84-.32,2.08,2.08,0,0,0-1,.2,6.26,6.26,0,0,1-2.41.58,2.16,2.16,0,0,1-2-1.25,6.84,6.84,0,0,0-.21-.74,1.61,1.61,0,0,0-1.5-.77,8.76,8.76,0,0,0-1.76.38,7.08,7.08,0,0,1-6.52-1.76c-.55-.54-.86-1.4-1.42-1.88s-1.18-.49-1.67-1a3.89,3.89,0,0,1-1.09-3.68,6.55,6.55,0,0,1,.48-1.17,8,8,0,0,0,2.83,3.71,2.1,2.1,0,0,0,1.31.48,1.8,1.8,0,0,1,.46-.05c.47.08.55.7.62,1.16a3.44,3.44,0,0,0,4,2.71,1.74,1.74,0,0,0,.9-.44c.59-.56.5-1.54.94-2.22a1.11,1.11,0,0,1,.3-.31.9.9,0,0,1,.56-.1c1,.1,1.55,1,2.09,1.8s1.34,1.61,2.27,1.42,1.37-1.43,1.28-2.42c0-.3-.05-.66.19-.85a.69.69,0,0,1,.47-.1,5.52,5.52,0,0,1,1.54.53,1.78,1.78,0,0,0,1.59,0c-.16-.29.28-.6.58-.47a1.25,1.25,0,0,1,.57.78,5.75,5.75,0,0,0,3.69,3.33.26.26,0,0,0,.15,0,.24.24,0,0,0,.09-.14,1.62,1.62,0,0,0,0-.62c-.05-.17-.14-.34-.21-.52a5.11,5.11,0,0,1-.25-1.11,41.52,41.52,0,0,1-.74-5.17c-.07-4.2,2.19-8.11,2.72-12.28a15.15,15.15,0,0,0-1.76-9.14,7.75,7.75,0,0,1-.84-1.74,2,2,0,0,1,.33-1.83c.51,1.16,2.08,1.28,3.34,1.17,2.53-.22,5.07-.67,7.55-.22a3,3,0,0,0,1.61,0c.52-.17.89-.84.56-1.28.68,1.2,2.36,1.29,3.71,1.05a3.18,3.18,0,0,0,1.84-.8,1.26,1.26,0,0,0,0-1.81c.49.35.67.92,1.11,1.28s1.5.27,2.11.32c-5.24,2.75-11.46,2.58-17.38,2.35l-3.17-.13a16,16,0,0,1,1.87,11.34c-.71,3.36-2.5,6.44-2.91,9.84a10.77,10.77,0,0,0,.19,3.76,27.28,27.28,0,0,0,.91,4.27c.67,1.66,1.86,3.1,2.4,4.81a9.9,9.9,0,0,0-1.82.52s-.09,0-.1.08a.21.21,0,0,0,0,.11c.17.43.19.89.36,1.33a7.66,7.66,0,0,0,.43.86,9.69,9.69,0,0,1,.83,2.71,19.39,19.39,0,0,0,1.51,4.7,6.68,6.68,0,0,1,.65,1.38c.14.6,0,1.35.5,1.73a1.68,1.68,0,0,0,.48.2l5.84,1.67a16.14,16.14,0,0,0,2.82.62,3.36,3.36,0,0,1,2,.57,53.1,53.1,0,0,1-6.67.43,21.8,21.8,0,0,1-5.59-.56,1.86,1.86,0,0,0-.87-.1A1.33,1.33,0,0,0,521.71,258.22Z" transform="translate(-492.24 -198.03)"/><path class="cls-2" d="M533.8,263.89c-.09-.19-.15-.45,0-.58s.49.08.64.31a16.14,16.14,0,0,1,2.67,9.68c-.46-1.34-.52-2.73-1.07-4C535.31,267.47,534.55,265.68,533.8,263.89Z" transform="translate(-492.24 -198.03)"/><path class="cls-2" d="M539.57,265.34c0,3,.11,6.08.16,9.12a81.75,81.75,0,0,1-.88-9.09,6.06,6.06,0,0,0-.52-2.7,1.07,1.07,0,0,1-.16-.44.87.87,0,0,1,.22-.5c.42-.56,1.31-1.44,1.41-2.16a1.6,1.6,0,0,0-.34-1,9.2,9.2,0,0,0-.94-1.24c-.27-.3-.58-.65-.49-1.05a10.27,10.27,0,0,1,2.49-.2,3.45,3.45,0,0,0-.26.28c-1,1.25,0,2,1.33,2.72l.41.2c-.82,1.31-2,2.4-2.32,4A9.37,9.37,0,0,0,539.57,265.34Z" transform="translate(-492.24 -198.03)"/><path class="cls-2" d="M512.58,224.66a3.74,3.74,0,0,1-3.07,3.07c-1.08.14-2.19-.18-3.24.11A15.86,15.86,0,0,0,504,229a3.44,3.44,0,0,1-2.79.1,2.49,2.49,0,0,1-1.53-2.23c0-.59.22-1.28-.19-1.68s-.89-.26-1.23-.56-.39-1.11-.89-1.35a2.27,2.27,0,0,0-.94,0c-.32,0-.68-.28-.56-.58a.66.66,0,0,1,.21-.23,2,2,0,0,0,.23-.18c.87-.25,1.93-.05,2.53-.71s.28-1.78.63-2.62a5.09,5.09,0,0,0,.17,1.14c.43,1.07,1.28,1.11,2.24,1.46a1.22,1.22,0,0,1,.87.94c0,.28-.12.55-.09.83a1.15,1.15,0,0,0,.12.4,6.76,6.76,0,0,0,.95,1.78,2.36,2.36,0,0,0,1.74.92c1,0,1.87-.85,2.85-.75a13.56,13.56,0,0,1,1.6.52A2.75,2.75,0,0,0,512.58,224.66Z" transform="translate(-492.24 -198.03)"/><path class="cls-2" d="M533.36,221.49c1.3-.2,2.71.52,3.93.88a1.6,1.6,0,0,1,.83.44.54.54,0,0,1-.1.83.83.83,0,0,1-.35.05l-1.5,0a2.48,2.48,0,0,1-.61,1.22.94.94,0,0,1-1.26.08c-.25-.27-.26-.68-.43-1a1.47,1.47,0,0,0-1.44-.7,4.42,4.42,0,0,0-1.6.52l-2.14,1a1.46,1.46,0,0,1,.42-1.39,5.8,5.8,0,0,1,1.86-1.19,19,19,0,0,1,2.06-.66A1.94,1.94,0,0,1,533.36,221.49Z" transform="translate(-492.24 -198.03)"/><path class="cls-2" d="M531.76,219.32l1.18-.18a22.77,22.77,0,0,1,5.41,0c0-.4-.46-.6-.85-.67l-2.44-.45a9.75,9.75,0,0,0-4.09-.17,5.29,5.29,0,0,0-1.46.74,3.7,3.7,0,0,0-1.74,1.71c.12-.33,2.3-.68,2.66-.74Z" transform="translate(-492.24 -198.03)"/><path class="cls-2" d="M550.78,220.39a1,1,0,0,1,0,.17c0,.3-.08.63-.16,1l-.08,0a14.84,14.84,0,0,1-3.66-1.47,3.27,3.27,0,0,1,.31-.17,6.83,6.83,0,0,1,3.21.06A4.19,4.19,0,0,1,550.78,220.39Z" transform="translate(-492.24 -198.03)"/><path class="cls-2" d="M550.38,225a1,1,0,0,1-.51,0,2.54,2.54,0,0,1-.79-.43c-.13.37-.51.72-.88.58s-.44-.77-.76-1.07a1.82,1.82,0,0,0-1.1-.28.61.61,0,0,1-.25-.06c-1.2-.61.78-1,1.09-1a7.12,7.12,0,0,1,2,0,1.58,1.58,0,0,1,.74.21,1.08,1.08,0,0,1,.28.24c-.13.46-.28.9-.42,1.28A4,4,0,0,1,550.38,225Z" transform="translate(-492.24 -198.03)"/><path class="cls-2" d="M539.32,222.76a2.08,2.08,0,0,1,.28,1.79c-.2.79-.42,1.57-.65,2.35a12.43,12.43,0,0,0,1.71-1.84,2.35,2.35,0,0,0,.49-1.2,2.38,2.38,0,0,0-.21-.94,5.63,5.63,0,0,0-.9-1.65c-.4-.44-.91-.37-1.38-.74-.33.56.21,1.5.51,2Z" transform="translate(-492.24 -198.03)"/><path class="cls-2" d="M549.08,233.87c-1,1.07-2.18,2.35-3.73,2.51s-3.12-.69-4.49-1.56c-.38-.25-.81-.66-.61-1.06s.5-.35.8-.38a9.79,9.79,0,0,1,3.74.1,12.45,12.45,0,0,0,1.68.5,1.55,1.55,0,0,0,1.55-.57,2,2,0,0,0,.22-1.08,13,13,0,0,0-3-8.09,8,8,0,0,1-1.36-1.92,2,2,0,0,1,.34-2.19,3.78,3.78,0,0,0,.69,2.65c.5.81,1.16,1.5,1.72,2.27a10.37,10.37,0,0,1,1.17,2.21c.85,2,1.73,4.12,1.53,6.29Z" transform="translate(-492.24 -198.03)"/><path class="cls-2" d="M536.24,240.23c.31,1,2.39.44,3.11.46a24.88,24.88,0,0,1,4,.35c.48.1.75.63,1.26.65s1-.51,1.5-.59a3.38,3.38,0,0,1,1.49.39c.49.17,1.18.09,1.32-.41a2,2,0,0,1,.45,1.36c-1.12.18-2.21-.75-3.33-.54a5.13,5.13,0,0,0-1.43.7,1.75,1.75,0,0,1-1.51.23c-.47-.21-.72-.73-1.14-1a2.73,2.73,0,0,0-1-.32,16.33,16.33,0,0,0-3.42-.26,6.59,6.59,0,0,0-1.65.31,4.24,4.24,0,0,1-1.16.31C534.89,241.66,536.29,240.38,536.24,240.23Z" transform="translate(-492.24 -198.03)"/><path class="cls-2" d="M548.11,251.47a6.58,6.58,0,0,1-2.1,1.94,14.23,14.23,0,0,1-2.14.74c-.7.1-1.4.17-2.11.2a3.18,3.18,0,0,1-2.33-.55c-.6-.52-.76-1.4-1.32-2a3.67,3.67,0,0,0-1.4-.76L533,249.71a1.6,1.6,0,0,1-.75-.45,1.55,1.55,0,0,1-.25-.61,6.1,6.1,0,0,1,.21-3.41c.13,0,.19.15.2.28a5.78,5.78,0,0,0,.79,2.65,2.3,2.3,0,0,0,.42.46,4.06,4.06,0,0,0,3,.61,3.16,3.16,0,0,1,1.73.09c.65.34.9,1.13,1.38,1.67.86,1,2.35,1.12,3.66,1.07A27.7,27.7,0,0,0,548.11,251.47Z" transform="translate(-492.24 -198.03)"/><path class="cls-3" d="M560.49,238.56a2.17,2.17,0,0,1-.46,1.08,4.13,4.13,0,0,1-2.16,1.72,1.64,1.64,0,0,1-1.27,0c-.33-.21-.42-.79-.92-.78a1,1,0,0,0-.55.3,7.66,7.66,0,0,1-2.39,1.28,2.93,2.93,0,0,1-.53.12,36.68,36.68,0,0,0,.31-6.71c-.1-2.31,0-5.82-1-8.45a.19.19,0,0,0,0-.07l.08,0,.08,0a6.16,6.16,0,0,1,1.06.86.53.53,0,0,0,.15.11,8.75,8.75,0,0,0,1.47.67,2.72,2.72,0,0,1,1.41,1,28.65,28.65,0,0,1,1.57,4.6,1,1,0,0,0,.25.44,1.46,1.46,0,0,0,.48.19,2.84,2.84,0,0,1,1.55,1.31,6.89,6.89,0,0,1,.55,1A2.61,2.61,0,0,1,560.49,238.56Z" transform="translate(-492.24 -198.03)"/><path class="cls-2" d="M560.49,238.56a2.17,2.17,0,0,1-.46,1.08,4.13,4.13,0,0,1-2.16,1.72,1.64,1.64,0,0,1-1.27,0c-.33-.21-.42-.79-.92-.78a1,1,0,0,0-.55.3,7.66,7.66,0,0,1-2.39,1.28,2.93,2.93,0,0,1-.53.12,36.68,36.68,0,0,0,.31-6.71c-.1-2.31,0-5.82-1-8.45l.06,0,.08,0a6.16,6.16,0,0,1,1.06.86,2.69,2.69,0,0,0,0,.46,18.68,18.68,0,0,1,.47,3.55,3,3,0,0,0,.31,1.61,1.67,1.67,0,0,1,.21.33,1.43,1.43,0,0,1,0,.89,3,3,0,0,0,.14,1.77,1.85,1.85,0,0,0,1.31,1.14.94.94,0,0,0,.29,0,.8.8,0,0,0,.3-.19,1.53,1.53,0,0,1,1.92,0,1,1,0,0,0,.29.22.56.56,0,0,0,.63-.32c.13-.22.17-.48.3-.7a1,1,0,0,1,.69-.46,6.89,6.89,0,0,1,.55,1A2.61,2.61,0,0,1,560.49,238.56Z" transform="translate(-492.24 -198.03)"/><path class="cls-2" d="M552,267.84a6,6,0,0,1-3.12,4.11c-1.09.66-2.5,1.43-2.43,2.71.07.95.18,1.77.24,2.72h-1.88c.06,0,.15.06.14.12H515.56c-.09-.75.11-1.15,0-1.9.45-.75.89-1.49,1.33-2.25a1.08,1.08,0,0,0,.2-.55.92.92,0,0,0-.18-.5c-1.14-1.79-3.5-2.25-5.58-2.67-2.81-.58-5.49-1.7-8.24-2.53l-1.65-4.26h0a1.33,1.33,0,0,0,1,.92q3.31.58,6.59,1.36a67.81,67.81,0,0,1,14.11,4.78c4.39,2.1,9.14,4.58,13.9,5.62a42.54,42.54,0,0,0,5.42-1.36,19.3,19.3,0,0,0,3.18-1.26,38.23,38.23,0,0,0,5.47-3.93A3.53,3.53,0,0,0,552,267.84Z" transform="translate(-492.24 -198.03)"/></svg>