<svg id="Capa_9" data-name="Capa 9" xmlns="http://www.w3.org/2000/svg" xmlns:xlink="http://www.w3.org/1999/xlink" viewBox="0 0 2183.18 676.44"><defs><style>.cls-1{fill:none;}.cls-2{clip-path:url(#clip-path);}.cls-3{fill:#381922;}.cls-4{fill:#281118;}</style><clipPath id="clip-path" transform="translate(138.84 -581.2)"><rect class="cls-1" x="-30.52" y="415.55" width="1953.03" height="591.26"/></clipPath></defs><g class="cls-2"><path class="cls-3" d="M70.3,1084c1.51-4.39,2.36-7.68,2.41-9.56.14-6.13-5.73-12.09-13.67-16.55h0c-.67-.38-1.37-.75-2.07-1.1l-.17-.09c-.67-.33-1.35-.66-2-1l-.17-.08a64.35,64.35,0,0,0-9.23-3.34l-.34-.09q-1-.26-1.92-.48l-.52-.12-.15,0v-.09l-.94-.12-.66-.12-.56-.11c-.6-.11-1.19-.2-1.78-.28l-.12,0,0-.22c.77-3.85,1.79-10.93,2.88-19.87,18.26,8.11,38.08,16.21,42.93,15.46.77-.12,1.52-.27,2.24-.44l.65-.19c.49-.12,1-.25,1.43-.4l.67-.25c.43-.16.86-.31,1.26-.48l.63-.31c.39-.18.78-.36,1.15-.56.21-.11.39-.23.59-.35.35-.21.71-.41,1-.63l.55-.4c.32-.23.64-.45.94-.7l.5-.44c.29-.25.58-.49.85-.76l.45-.47c.26-.27.52-.54.76-.82l.41-.52c.23-.28.46-.56.67-.86s.25-.36.37-.55.4-.59.59-.9.22-.39.33-.58.35-.62.5-.93.2-.43.3-.64.29-.62.42-.93l.26-.69c.12-.31.24-.61.34-.93s.16-.5.23-.75.19-.6.27-.9.13-.54.19-.81.14-.58.2-.87.1-.57.15-.86.1-.55.14-.83.08-.62.11-.93l.09-.77c0-.34,0-.68.06-1s0-.46,0-.69,0-.55,0-.82a9.56,9.56,0,0,0,.07-3.88c-.09-.46-.2-1-.33-1.54,0-.19-.09-.4-.13-.6l-.28-1.17s0-.09,0-.14c-.1-.46-.2-.91-.32-1.35l0-.15c-.1-.38-.21-.75-.32-1.12l-.13-.49c-.11-.44-.23-.88-.35-1.34s-.22-.81-.34-1.23-.26-1-.4-1.44-.25-.89-.39-1.36-.3-1-.46-1.57-.28-1-.42-1.45l-.59-1.92c-.13-.44-.26-.86-.4-1.3h0c-8.6-27.65-27.43-75.54-53.63-97.53h0l-.14-.11c-.83-.7-1.67-1.38-2.52-2a1.66,1.66,0,0,0-.24-.34,4.7,4.7,0,0,0-.45-.37l-.24-.16c-.1-.08-.22-.15-.34-.23-.3-.18-.63-.37-1-.57l-.27-.2a4.32,4.32,0,0,0-.88-.45,3.69,3.69,0,0,0-.56-.19h0l-1.58-.7-.21-.09-.9-.38c-1.15-4.93-4.45-8.49-8.34-8.49H15.08l-5.3-5.25-.82.44-.9-7.72c2.38-1.67,4.07-3.12,4.57-4,.68-1.26,1.88-10.29,2.87-22.1,12.88-3.39,20.19-14.14,16.58-21.61-2-4.08-5.39-5.68-8.74-5.32.08-.35.15-.69.23-1,.28-1.29.55-2.55.79-3.78l.12-.59c.28-1.43.52-2.82.74-4.17.06-.33.1-.64.15-1,.16-1,.31-2,.44-3,.05-.39.1-.78.14-1.16.12-.93.22-1.84.31-2.73,0-.31.07-.63.09-.94q.33-3.52.39-6.61c0-.28,0-.55,0-.83,0-.75,0-1.49,0-2.2,0-.29,0-.57,0-.85,0-.75,0-1.49-.08-2.2l0-.53c-.06-.88-.12-1.73-.21-2.55,0-.14,0-.26-.05-.4-.07-.67-.15-1.31-.24-1.93,0-.23-.07-.45-.1-.67-.09-.53-.18-1-.27-1.54l-.12-.61c-.12-.59-.24-1.15-.38-1.7,0-.07,0-.15-.05-.23-.15-.61-.32-1.18-.48-1.74l-.15-.48c-.12-.38-.25-.76-.37-1.12-.07-.18-.13-.35-.19-.52l-.37-1c-.07-.15-.13-.3-.19-.45-.18-.41-.36-.82-.54-1.19l-.15-.31-.4-.78-.25-.43-.3-.52-.26-.42-.27-.4a11.92,11.92,0,0,0-2.58-2.93C29.76,743.83,7,718.4,7,718.4s10.7,19.49-21.75,23.45C-37.34,744.61-47.38,760-51.4,769.08l-.1.22-.57,1.36-.07.19c-.38,1-.69,1.81-.93,2.54a1.09,1.09,0,0,1,0,.17c-.11.32-.2.63-.28.89v0l-.21.72,0,.08-.09.38a.31.31,0,0,0,0,.08l0,.12s-4.14-6.6-9,6c-2.3,6,.1,23.72,4,41-3.54-.77-7.29.73-9.38,5.17-3.57,7.62,3.88,18.67,16.88,21.82l.48,1.32c.82,10.16,1.8,18,2.67,19.93a11.39,11.39,0,0,0,2.59,3l-1.09,8.29-7.27,3.82.26.32-.26.16.13.18h0c-1.24.39-2.46.81-3.65,1.24l-.58.21h-.87a5.54,5.54,0,0,0-4.67,3.25c-11.51,4.4-21.41,9-23.89,11.17a5.24,5.24,0,0,0-2.24,1.36c-29.21,28.37-47.49,90-49.08,112.36,0,.69-.08,1.32-.09,1.93,0,.19,0,.37,0,.55,0,.43,0,.84,0,1.23,0,.16,0,.32,0,.48,0,.5.07,1,.13,1.4a8.43,8.43,0,0,0,2.55,4.86,13.7,13.7,0,0,0,2.42,1.89c.37.23.77.45,1.17.66,8.54,5.74,28.73,14.57,47.13,22.09,0,.32.11.63.17.93,0,.14,0,.27.08.4-15.33,2.85-32.56,12.84-32,23.32.34,6.62,10.92,30.55,24.77,59v114.83h3.69l10.54-86.17,3.21,6.31v79.86h3.68l7.19-58.76c7.22,13.86,14.19,26.94,20.16,37.89a94.16,94.16,0,0,0-.13,10.6l-14.62,6.92h18.6l8.47-16.61s-3.52-6.75-7-8.45c-1.19-11.59-3-29-5.37-48.19v-.11c-.25-2.07-.5-4.15-.76-6.26v-.06c-.52-4.18-1-8.43-1.6-12.7l-.06-.4c0-.28-.07-.56-.11-.84H4.19c-3,28.06-5.27,54.88-6.46,69.82a31.57,31.57,0,0,0-4.57,7.19l7.42,16.61H16.86l-12.8-6.92s.39-9-.54-14.27c6.37-12.25,13.89-27,21.59-42.5l8.21,67H37v-91.24c.41-.85.82-1.69,1.22-2.53l.65.55,11.41,93.22H54v-93.8l43.93-49.22Zm-118.41,57.43c0-.2,0-.39-.08-.59-.57-4.15-1.15-8.29-1.75-12.38,0-.19-.05-.39-.08-.58-.2-1.41-.41-2.8-.62-4.19H-.79l7.6,6.36c0,.14,0,.28,0,.42l-.45,3.74-.09.77c-.14,1.23-.28,2.45-.43,3.68,0,.31-.07.62-.1.93-.1.84-.19,1.67-.29,2.51H-48C-48,1141.84-48.08,1141.62-48.11,1141.39Z" transform="translate(138.84 -581.2)"/><path class="cls-3" d="M539,1084c1.5-4.39,2.36-7.68,2.4-9.56.15-6.13-5.72-12.09-13.67-16.55h0c-.68-.38-1.37-.75-2.07-1.1l-.17-.09c-.67-.33-1.35-.66-2-1l-.17-.08a64.79,64.79,0,0,0-9.23-3.34l-.34-.09q-1-.26-1.92-.48l-.52-.12-.15,0v-.09l-.94-.12-.67-.12-.56-.11c-.59-.11-1.18-.2-1.77-.28l-.13,0a1.43,1.43,0,0,0,0-.22c.77-3.85,1.79-10.93,2.88-19.87,18.26,8.11,38.08,16.21,42.92,15.46.78-.12,1.53-.27,2.25-.44l.65-.19c.48-.12,1-.25,1.43-.4l.67-.25c.43-.16.86-.31,1.26-.48l.63-.31c.39-.18.78-.36,1.15-.56l.59-.35c.35-.21.71-.41,1-.63l.55-.4c.32-.23.64-.45.94-.7l.5-.44c.28-.25.58-.49.84-.76s.3-.32.46-.47.52-.54.76-.82l.41-.52c.23-.28.46-.56.67-.86s.24-.36.37-.55.4-.59.59-.9l.32-.58q.27-.46.51-.93c.11-.21.2-.43.3-.64s.29-.62.42-.93l.26-.69c.12-.31.24-.61.34-.93s.15-.5.23-.75.19-.6.27-.9.13-.54.19-.81.14-.58.2-.87.1-.57.15-.86.1-.55.14-.83.07-.62.11-.93.06-.52.08-.77,0-.68.07-1,0-.46,0-.69,0-.55,0-.82a9.56,9.56,0,0,0,.06-3.88c-.08-.46-.19-1-.32-1.54,0-.19-.09-.4-.14-.6-.08-.37-.17-.75-.27-1.17l0-.14c-.09-.46-.2-.91-.31-1.35l0-.15c-.1-.38-.21-.75-.32-1.12l-.13-.49c-.11-.44-.23-.88-.36-1.34s-.21-.81-.33-1.23-.26-1-.4-1.44-.26-.89-.39-1.36-.3-1-.46-1.57l-.43-1.45c-.18-.62-.38-1.27-.58-1.92-.14-.44-.26-.86-.4-1.3h0c-8.6-27.65-27.43-75.54-53.63-97.53h0l-.14-.11c-.83-.7-1.67-1.38-2.52-2a1.66,1.66,0,0,0-.24-.34,3.88,3.88,0,0,0-.46-.37l-.23-.16-.35-.23c-.29-.18-.63-.37-1-.57a2.83,2.83,0,0,0-.28-.2,4,4,0,0,0-.87-.45,4.11,4.11,0,0,0-.56-.19h0l-1.58-.7-.21-.09-.9-.38c-1.15-4.93-4.45-8.49-8.35-8.49H483.81l-5.3-5.25-.82.44-.9-7.72c2.38-1.67,4.07-3.12,4.57-4,.68-1.26,1.88-10.29,2.87-22.1,12.88-3.39,20.19-14.14,16.58-21.61-2-4.08-5.39-5.68-8.75-5.32l.24-1c.28-1.29.55-2.55.79-3.78l.12-.59c.27-1.43.52-2.82.74-4.17l.15-1c.16-1,.3-2,.43-3,.06-.39.1-.78.15-1.16.12-.93.22-1.84.31-2.73l.09-.94c.22-2.35.34-4.55.39-6.61,0-.28,0-.55,0-.83,0-.75,0-1.49,0-2.2,0-.29,0-.57,0-.85,0-.75-.05-1.49-.09-2.2,0-.17,0-.35,0-.53q-.09-1.32-.21-2.55c0-.14,0-.26,0-.4-.07-.67-.15-1.31-.24-1.93,0-.23-.07-.45-.11-.67-.08-.53-.17-1-.26-1.54l-.12-.61c-.12-.59-.25-1.15-.38-1.7,0-.07,0-.15-.05-.23-.16-.61-.32-1.18-.48-1.74l-.15-.48c-.13-.38-.25-.76-.37-1.12-.07-.18-.13-.35-.19-.52-.13-.33-.25-.65-.38-1l-.18-.45c-.18-.41-.36-.82-.54-1.19l-.15-.31c-.14-.27-.27-.53-.41-.78l-.24-.43c-.1-.18-.21-.35-.31-.52s-.17-.29-.26-.42l-.26-.4a11.92,11.92,0,0,0-2.58-2.93c11.05-25.44-11.74-50.87-11.74-50.87s10.71,19.49-21.74,23.45c-22.57,2.76-32.61,18.12-36.63,27.23l-.1.22c-.21.48-.4.93-.57,1.36l-.07.19c-.39,1-.69,1.81-.93,2.54l-.05.17c-.11.32-.2.63-.28.89v0c-.09.28-.15.52-.21.72l0,.08c0,.16-.07.29-.1.38a.25.25,0,0,0,0,.08l0,.12s-4.15-6.6-9,6c-2.3,6,.1,23.72,4,41-3.54-.77-7.29.73-9.38,5.17-3.58,7.62,3.88,18.67,16.88,21.82q.24.67.48,1.32c.82,10.16,1.79,18,2.66,19.93a11.79,11.79,0,0,0,2.59,3l-1.08,8.29-7.28,3.82.27.32-.27.16.14.18h0c-1.24.39-2.46.81-3.65,1.24l-.58.21h-.87a5.54,5.54,0,0,0-4.67,3.25c-11.51,4.4-21.41,9-23.89,11.17a5.33,5.33,0,0,0-2.25,1.36c-29.2,28.37-47.48,90-49.07,112.36-.05.69-.08,1.32-.09,1.93,0,.19,0,.37,0,.55,0,.43,0,.84,0,1.23,0,.16,0,.32,0,.48,0,.5.07,1,.12,1.4a8.51,8.51,0,0,0,2.56,4.86,13.34,13.34,0,0,0,2.42,1.89c.37.23.77.45,1.17.66,8.53,5.74,28.73,14.57,47.13,22.09.05.32.11.63.17.93,0,.14,0,.27.07.4-15.32,2.85-32.55,12.84-32,23.32.34,6.62,10.92,30.55,24.77,59v114.83H380l10.55-86.17c1.07,2.1,2.13,4.2,3.21,6.31v79.86h3.68l7.19-58.76c7.22,13.86,14.18,26.94,20.16,37.89a94.16,94.16,0,0,0-.13,10.6L410,1246.73h18.59l8.48-16.61s-3.52-6.75-7-8.45c-1.19-11.59-3.05-29-5.37-48.19v-.11c-.25-2.07-.51-4.15-.77-6.26v-.06c-.52-4.18-1.05-8.43-1.61-12.7,0-.13,0-.27,0-.4,0-.28-.07-.56-.11-.84h50.73c-3,28.06-5.27,54.88-6.46,69.82a32,32,0,0,0-4.57,7.19l7.43,16.61h16.28l-12.8-6.92s.38-9-.54-14.27c6.37-12.25,13.89-27,21.59-42.5l8.2,67h3.69v-91.24c.41-.85.81-1.69,1.22-2.53l.65.55L519,1250.08h3.68v-93.8l43.92-49.22Zm-118.41,57.43c0-.2-.05-.39-.08-.59-.57-4.15-1.15-8.29-1.75-12.38l-.08-.58c-.21-1.41-.41-2.8-.62-4.19h49.85l7.6,6.36c0,.14,0,.28-.05.42l-.45,3.74-.09.77c-.14,1.23-.29,2.45-.43,3.68,0,.31-.07.62-.1.93-.1.84-.2,1.67-.29,2.51H420.71Z" transform="translate(138.84 -581.2)"/><path class="cls-3" d="M1249.93,1061c-.25-1.8-2.11-3.67-4.85-5.46h0c-4.46-2.92-11.29-5.64-17.54-7.56h0l-2.24-.66-.17,0-2-.54-.12,0-1.93-.47-.31-.06c-.57-.13-1.12-.25-1.64-.35l-.16,0-.17,0c.28-2.4.6-5.27,1-8.57.28-2.49.58-5.22.9-8.13,8.23,1.09,16-1.15,19.68-10.81h0a31.18,31.18,0,0,0,1.59-6.16c5.52-27.46,4.16-98.61-11.65-118.68a2.24,2.24,0,0,0-.2-.38,11,11,0,0,0-1.58-1.6,13.84,13.84,0,0,0-2.25-1.81c-.14-.09-.27-.15-.41-.23-2.2-1.55-5.1-3.37-8.54-5.34v-4.62a12,12,0,0,0-12-12h-17.33l-4.91-2.1h0l-.37,1.16c-.82-.4-1.65-.79-2.47-1.17h0l-.15-.06-2.13-1h0l-4.8-7.52-3.06,2.09c.25-2.26.51-4.9.77-7.78l0-.32,0-.39c.32-.61.75-3.56,1.23-8l.62-1.88c5.17-3.74,17.17-16.11,17.64-22.25.35-4.54-4.24-7.69-8.87-8.2,12.3-52.57-6-52.72-6-52.72a32.86,32.86,0,0,0-.67-4.17h0c-1.73-7.91-7.81-24.43-28.46-25.82-24.1-1.63-47.55,26.23-52.61,32.65h0l0,0c-.54.68-.86,1.11-1,1.23l0,.06c-3.06.61-4.38,6-4.48,13.85a130.55,130.55,0,0,0,1.12,16.92c.67,5.49,1.62,11.25,2.75,16.9-5.37-.45-11.9,4-10.67,9.53s12.44,15,18.58,18.87c1.71,4.22,3.44,7.25,5,8.49.1.57.19,1.11.29,1.62.24,2.8.51,5.45.79,7.88l0,.12q.15,1.27.3,2.46l0,.2c.11.81.21,1.6.32,2.34l-3.66,5.74.84.83-.37.37h-1l-.53-1.5-2.18,1.5h-12.85a8.13,8.13,0,0,0-8.12,8.12v7.13c-9.88,5.79-17.59,11.08-20.27,14.08-.15.12-.31.22-.47.36-8.76,7.45-12.74,30.35-13.75,56l0,.9c0,.75,0,1.51-.08,2.27l0,1c0,.74,0,1.48,0,2.22,0,.34,0,.67,0,1l0,2.34c0,.29,0,.59,0,.89,0,1,0,2,0,3v.18c0,1.09,0,2.18,0,3.27,0,.23,0,.46,0,.69l0,2.53c0,.33,0,.67,0,1,0,.74,0,1.48,0,2.22,0,.36,0,.73,0,1.09,0,.73,0,1.45.07,2.18l0,1,.09,2.48,0,.68c0,1.07.09,2.13.14,3.19,0,.14,0,.29,0,.43,0,.89.09,1.78.14,2.67l.06,1c0,.7.08,1.4.13,2.09,0,.37,0,.75.07,1.12,0,.66.09,1.31.13,2,0,.37.06.73.08,1.1,0,.71.11,1.41.16,2.11,0,.29,0,.57.07.85.08,1,.16,2,.25,3v0c.09,1,.18,1.9.27,2.84,0,.29,0,.57.08.86.07.65.13,1.29.2,1.93,0,.35.07.68.11,1,.06.59.13,1.17.19,1.75l.12,1,.21,1.75c0,.3.07.6.11.89.09.72.18,1.42.27,2.11l.06.45c.11.84.23,1.65.35,2.46,0,.24.07.47.1.71.09.56.17,1.12.26,1.66,0,.3.09.58.14.87.07.48.15,1,.23,1.43l.15.87c.08.46.16.91.25,1.36,0,.27.09.54.14.8.1.5.19,1,.29,1.47,0,.19.07.38.11.56.13.66.27,1.3.4,1.92,0,.14.07.27.1.4.1.48.21.95.32,1.4l.15.61c.09.37.18.73.28,1.08s.11.41.16.61.18.66.28,1,.11.38.16.56c.1.33.2.64.3,1,.05.14.1.29.14.43.15.43.3.85.45,1.24a9.12,9.12,0,0,0,.77,1.53c.1.15.22.28.33.42a6.78,6.78,0,0,0,.66.84c.14.14.3.25.46.39a8.3,8.3,0,0,0,.73.6c.17.11.37.2.55.3a8.13,8.13,0,0,0,.83.43,6.26,6.26,0,0,0,.61.21c.31.1.61.21.94.29l.42.07,0,0c2,1.29,9.32.9,19.27-.43,0,.21.09.43.13.65-.27,0-.54.1-.83.17l-.3.06-1.42.33-.44.11c-.59.15-1.19.3-1.8.47l-.11,0-1.78.5-.47.14-1.8.56-.15,0-2,.66-.44.15-1.69.61-.34.13c-.66.24-1.31.5-2,.76l-.33.13-1.64.69-.4.18c-.63.27-1.25.55-1.85.84l-.14.07c-.55.26-1.08.53-1.59.8l-.39.2c-4.41,2.35-7.6,4.94-7.79,7.39-.5,6.6,7.23,24.87,18.25,47.13v142.11h4.16l12.64-109.34h.17q1.88,3.51,3.77,7v102.33h4.16l9.48-77.52c14,25.19,26.72,46.93,31.74,55.49-1.3,5-.82,15.11-.82,15.11l-14.62,6.92h18.6l8.48-16.61s-4.1-7.86-7.83-8.74c-2-12.43-7.23-43.86-12.46-74.56h0v0c-.12-.69-.23-1.36-.35-2l-.24-1.43-.27-1.55-.3-1.75c-.09-.52-.17-1-.26-1.55-.06-.36-.13-.73-.19-1.09h59.34c-3.15,33.54-6.36,70.66-7.6,85.07-2.66,2.4-5.06,7.66-5.06,7.66l7.42,16.61h16.29l-12.8-6.92s.52-12.19-1.1-16.44c4.38-8.62,13-25.6,22.68-45.61l8.44,69h4.16V1154.8q1.63-3.48,3.26-7l11.82,102.25h4.15V1112.21C1243.67,1088.1,1250.91,1068,1249.93,1061ZM1120,1127.08c0-.33-.11-.66-.17-1-.1-.55-.19-1.11-.29-1.66s-.2-1.18-.31-1.76l-.45-2.62c0-.2-.07-.4-.11-.6-.13-.76-.27-1.52-.4-2.27l-.18-1c-.12-.66-.23-1.31-.35-2,0-.26-.09-.51-.13-.77s-.09-.47-.13-.71h66.93l-.06.63c0,.45-.09.9-.14,1.36l0,.28q-.36,3.63-.73,7.46c0,.38-.08.77-.11,1.16-.07.65-.13,1.31-.2,2,0,.37-.07.74-.1,1.11,0,.53-.11,1.07-.16,1.6h-62.67Z" transform="translate(138.84 -581.2)"/><path class="cls-3" d="M316.3,880.79c.33-.61.42-1.13.19-1.45a.85.85,0,0,0-.48-.28,1.49,1.49,0,0,0-.14-.24c-.48-.5-2.1-.18-4.23.51l-3.57,1.27-.2.07a14.52,14.52,0,0,0-9.37,13.52v2.57c-1.56,3.91-4.7,11.83-8.31,21V900.14c0-6.82-3.93-12.34-8.78-12.34h-5.93q-.06-4.81-.34-9.71c-.09-1.63-.21-3.26-.34-4.89q-.37-4.68-.95-9.38a243.59,243.59,0,0,0-8.43-40.2c-.24-.8-.48-1.58-.73-2.37-4.65-14.89-10.59-28.46-17.36-39.33-1.08-1.72-2.18-3.39-3.3-5a77.43,77.43,0,0,0-7.94-9.65l-.09-.08c-1.23-1.24-2.47-2.37-3.73-3.42a40.73,40.73,0,0,0-5.21-3.75c-.61-.37-1.23-.72-1.85-1.08h0c-26.17-15-62-21.58-77.8,11.89-8.18,17.28-14.44,58.77.3,74.85,0,0-10.78,79.8,27.36,113.55-1.24,12.24-2.36,25.86-3.35,40.44-3.61,3.67-5.2,23.87-5,50.91-6.18,7.74-4.37,22.54,1.34,39.69l.12,2h-6.62v157.28h3.69l11.86-97H179v97h3.68l11.87-97h3c11.94,21,22.36,36.56,22.36,36.56l13-6.58c9,12.47,17.4,24,23.7,32.56h0l2.61,3.56.56.76.69.93.42.58.76,1,.38.52c.16.23.32.44.48.65.57.79,1.11,1.51,1.6,2.17-2.17,6.07,10.91,19.84,21.38,24.76,0,0-.94-3.06-2.52-7.13,1.27,1,2.58,1.93,3.89,2.78l.47,3.84H291v-1.42c.36.18.71.35,1.07.51,0,0-.39-1.09-1.07-2.83v-93.24h1.41l11.87,97h3.68V1109.7h0v-14.79h0v-2.62H290.19v-9.09a56.6,56.6,0,0,0,5.34-16.19q.17-1,.27-2a38.24,38.24,0,0,0,.23-4.16,32.85,32.85,0,0,0-1.71-10.65,31.43,31.43,0,0,0-3-6.31c-.38-.62-.76-1.26-1.14-1.91V958.56c3.88-15.84,7.82-36.42,11.18-58.36,1.75-.53,4.06-1.26,6.24-2.06l3.19-1.29a8.37,8.37,0,0,0,3.15-2,6.46,6.46,0,0,0,.95-3.52,1,1,0,0,0,0-.79,7,7,0,0,0-.17-1.06,7.87,7.87,0,0,0,.78-3.14c.26-.54.33-1,.12-1.29a.64.64,0,0,0-.13-.1,9.58,9.58,0,0,0-.15-1.05A11.14,11.14,0,0,0,316.3,880.79Zm-47.23,342a4.63,4.63,0,0,0-1.66,0c-4.61-9.3-13.29-26.78-23-46l2.72-1.38h0l2.25-1.14C257.8,1195.16,265.17,1213.25,269.07,1222.79Zm-86.41-212.11c1.74-8,3.54-16.39,5.28-24.56l1.25.06v56.31c-3,.43-6.13,1-9.43,1.83,1.63-10.6,2.94-19.86,3.3-24.32A38.15,38.15,0,0,0,182.66,1010.68Zm39.59-25.94c1.6,5.06,3,10,4.2,14.62l0,.12c.29,1.16.56,2.32.81,3.45h0c2.92,13.07,3.27,24-1.9,30.6-2.47,3.17-6.16,5.23-10.2,6.57V985.27C217.52,985.11,219.88,984.94,222.25,984.74Zm-13.37.93v55.95c-.87.14-1.74.26-2.6.36a68.21,68.21,0,0,0-10.48-.14V986.18C199.61,986.11,204.08,985.94,208.88,985.67Zm55.36-6.46c.67,1.15,1.31,2.23,1.9,3.21v2.45C265.5,983,264.86,981.09,264.24,979.21Zm.8-35.34.12-.25h1v2.87C265.78,945.62,265.41,944.75,265,943.87ZM262,1123.13h9.87l2.25,18.42H264C263.42,1135.84,262.71,1129.54,262,1123.13Zm17.66-177.89c-2.75,7.29-5.14,13.81-6.63,18.24-.17-.45-.35-.91-.53-1.37V943.62h3.17A6.06,6.06,0,0,1,279.61,945.24ZM178.47,1141.55l.53-4.34v4.34Zm106.86,92c-3.4-6.25-7.68-12-11.81-11.76,0-.15-.07-.31-.11-.46l-.11-.49c-2.56-11.08-7.16-30.79-12.33-52.5l5.54-2.81s-.49-5.11-1.3-12.93h10.22Zm5.65-92V1141l.06.52Zm-7.59-112.64c-.35-.73-.69-1.47-1-2.23-1.64-3.58-3.27-7.35-4.87-11.25-1.71-4.16-3.39-8.47-5-12.84V990.31a4.92,4.92,0,0,0,6.57-1.58c1.34-1,2.81-3.61,4.37-7.49Z" transform="translate(138.84 -581.2)"/><path class="cls-3" d="M1776.21,1092.8h-16.38V895.44c0-7-5.38-12.63-12-12.63h-20.17c-.18-.26-.37-.49-.56-.74-.42-.57-.85-1.11-1.28-1.63-.22-.25-.43-.5-.65-.74-.43-.49-.87-.94-1.31-1.37l-.57-.56c-.58-.53-1.15-1-1.72-1.45l-.13-.11a18.37,18.37,0,0,0-1.88-1.24l-.27-.14a12.38,12.38,0,0,0-1.5-.69l-.37-.13a9.09,9.09,0,0,0-1.32-.33l-.29,0a5.6,5.6,0,0,0-1.42,0h0c-.51-.18-1.08-.36-1.68-.52l-.16,0c-.62-.16-1.27-.32-2-.47h0c-.69-.18-1.45-.34-2.25-.5l-.63-.11c-.66-.12-1.34-.23-2.06-.33l-.52-.08c-1.9-.26-4-.46-6.12-.62.1-.41.21-.83.31-1.25.18-.71.35-1.42.53-2.13.08-.33.16-.66.23-1s.21-.88.31-1.32.15-.66.22-1l.3-1.34.21-1c.1-.46.19-.91.29-1.36s.12-.61.19-.91c.09-.48.19-1,.29-1.42,0-.13,0-.25.07-.37s.07-.35.1-.53a27.06,27.06,0,0,0,9.43-2c5.71-2.42,10.42-6.75,14.23-12.12,21.43-3.52,31.56-28.63,31-47.82-.6-18.61-15.61-25.77-26.24-28.51-10.6-15.72-29-19.72-41.53-18.46-23.7,2.38-35.69,19.14-30.93,39.13-10.07,27.64,2.88,71.66,10.09,75.9a66.79,66.79,0,0,0,14.68-5.29c-1,4.14-2.17,8.37-3.39,12.45h0l-2,.08H1677l-1.69.08-.85.05-1.2.07-2,.14v.21h0l-1.46.16h0a28.15,28.15,0,0,0-5.39,1.08l-.09,0c-.22.08-.41.16-.58.24l-.08,0a3.41,3.41,0,0,0-.44.26h0a19.42,19.42,0,0,0-3.15,1.83l-.5.35c-.28.21-.56.42-.84.65s-.84.69-1.26,1.07l-.51.48q-.58.56-1.17,1.17c-.16.16-.32.33-.47.5-.52.56-1,1.14-1.55,1.77-.38.47-.76,1-1.15,1.55h0c-.08.11-.16.25-.23.37h-22.61a8.33,8.33,0,0,0-8.12,8.52v72.14a20.81,20.81,0,0,0-3.74,4.77c-4.38,7.63-3.59,16.64,1.75,20.12a8.25,8.25,0,0,0,2,.95V1092.8h-12.43v157.28h4.15l12.64-93.41h3.95v93.41H1634l12.25-85.46c2.27,21.85,4.44,41.75,5.83,54.47-2.16,2.75-3.78,8.22-3.78,8.22l3.35,22.77h23l-14.71-7s.49-14.48-2.4-21.91c1.58-14.11,4.27-38.71,6.88-64.54h48.12c11.29,26.54,21.9,51.18,27.91,65.07-2.23,7,1.73,21.38,1.73,21.38l-12.48,7h19.52l1.56-12.5,1.79,12.5h4.15v-93.41h2.45l12.64,93.41H1776V1126.94h.22Zm-47,53.23c-1-4.32-1.94-8.64-2.91-12.91l-.09-.4h9.58l1.9,13.31Zm-101.85,0,1.8-13.31h.71V1146Zm38.15,0q.65-6.69,1.28-13.31h35.64l5.62,13.31Zm83.12,76.33a13.66,13.66,0,0,0-3.59-3.23c-.18-.88-.37-1.78-.57-2.73-.34-1.62-.71-3.33-1.09-5.13-2.1-9.9-4.76-22.38-7.71-35.92-1.32-6.06-2.69-12.33-4.1-18.68h7.65Zm8.12-76.33v-7.42l1,7.42Z" transform="translate(138.84 -581.2)"/><path class="cls-3" d="M711.81,1092.8H695.43V895.44c0-7-5.39-12.63-12-12.63H663.24l-.56-.74c-.42-.57-.85-1.11-1.28-1.63-.22-.25-.43-.5-.65-.74-.44-.49-.87-.94-1.31-1.37l-.57-.56c-.58-.53-1.15-1-1.72-1.45l-.13-.11a17.43,17.43,0,0,0-1.89-1.24l-.26-.14a14,14,0,0,0-1.5-.69L653,874a8.9,8.9,0,0,0-1.33-.33l-.29,0a5.52,5.52,0,0,0-1.41,0h0c-.52-.18-1.08-.36-1.69-.52l-.16,0c-.61-.16-1.26-.32-2-.47h0c-.69-.18-1.45-.34-2.24-.5l-.64-.11c-.65-.12-1.34-.23-2-.33l-.53-.08c-1.89-.26-4-.46-6.12-.62.11-.41.21-.83.32-1.25.18-.71.35-1.42.52-2.13l.24-1c.1-.44.2-.88.31-1.32s.15-.66.22-1l.3-1.34.21-1c.09-.46.19-.91.28-1.36s.13-.61.19-.91c.1-.48.2-1,.29-1.42,0-.13,0-.25.07-.37s.07-.35.11-.53a27.06,27.06,0,0,0,9.43-2c5.71-2.42,10.42-6.75,14.23-12.12,21.43-3.52,31.56-28.63,30.94-47.82-.59-18.61-15.6-25.77-26.23-28.51-10.6-15.72-29-19.72-41.53-18.46-23.7,2.38-35.7,19.14-30.93,39.13-10.07,27.64,2.88,71.66,10.09,75.9a66.79,66.79,0,0,0,14.68-5.29c-1,4.14-2.18,8.37-3.39,12.45h0l-2,.08h-.37l-1.68.08-.85.05-1.2.07-2,.14v.21h0l-1.46.16h0a28,28,0,0,0-5.39,1.08l-.09,0-.59.24-.07,0a3.41,3.41,0,0,0-.44.26h0a19.35,19.35,0,0,0-3.14,1.83l-.5.35c-.28.21-.56.42-.84.65s-.84.69-1.27,1.07l-.5.48c-.39.37-.78.76-1.18,1.17l-.47.5c-.52.56-1,1.14-1.55,1.77-.37.47-.75,1-1.14,1.55h0c-.08.11-.16.25-.24.37H565.27a8.33,8.33,0,0,0-8.11,8.52v72.14a20.54,20.54,0,0,0-3.74,4.77c-4.38,7.63-3.59,16.64,1.75,20.12a8.25,8.25,0,0,0,2,.95V1092.8H544.73v157.28h4.15l12.64-93.41h4v93.41h4.15l12.24-85.46c2.28,21.85,4.44,41.75,5.84,54.47-2.17,2.75-3.78,8.22-3.78,8.22l3.35,22.77h23l-14.7-7s.48-14.48-2.4-21.91c1.57-14.11,4.27-38.71,6.87-64.54h48.13c11.28,26.54,21.9,51.18,27.9,65.07-2.23,7,1.73,21.38,1.73,21.38l-12.48,7h19.53l1.56-12.5,1.79,12.5h4.15v-93.41h2.44l12.64,93.41h4.16V1126.94h.22Zm-47,53.23c-1-4.32-1.93-8.64-2.91-12.91l-.09-.4h9.58l1.91,13.31ZM563,1146l1.8-13.31h.71V1146Zm38.14,0q.66-6.69,1.29-13.31H638c1.87,4.43,3.74,8.88,5.62,13.31Zm83.13,76.33a13.66,13.66,0,0,0-3.59-3.23c-.19-.88-.38-1.78-.58-2.73l-1.08-5.13c-2.1-9.9-4.77-22.38-7.71-35.92-1.32-6.06-2.7-12.33-4.1-18.68h7.65Zm8.12-76.33v-7.42l1,7.42Z" transform="translate(138.84 -581.2)"/><path class="cls-3" d="M1540.31,977.35c.11-.2.2-.4.3-.6s.26-.56.38-.84c.2-.47.37-.95.52-1.43.06-.18.1-.37.15-.56.11-.39.21-.79.29-1.2,0-.11,0-.21.07-.31a2.08,2.08,0,0,0,0-.23,16.91,16.91,0,0,0,.2-1.76,15.13,15.13,0,0,0-.06-2.11h0c0-.28-.09-.58-.13-.86-.07-.47-.12-.92-.22-1.41s-.21-.78-.31-1.16-.2-.85-.34-1.29-.32-.93-.49-1.39a.24.24,0,0,0,0-.08c-5.14-30.66-49.49-95.57-64.38-105.33a20.3,20.3,0,0,0-2.25-1.24h0l-.24-.1c-.56-.27-1.14-.53-1.77-.79l-.3-.11q-1-.4-2.1-.78l-.26-.09c-.77-.26-1.58-.51-2.42-.76l-.22-.06c-.87-.25-1.78-.5-2.73-.74l-.16,0c-1-.24-2-.47-3-.7l-.09,0c-1.08-.23-2.18-.45-3.33-.67h0c-1.16-.21-2.36-.42-3.58-.62h0c-1.23-.2-2.49-.38-3.78-.56h0l-1.67-.33h0l.59-.54-8.66-9.7-.9.5-1-7.64-.48-3.65c3-15.32,5.73-30.36,8-43.68q.63-3.66,1.2-7.12c.19-1.16.38-2.3.56-3.42.73-4.48,1.38-8.69,1.94-12.54.14-1,.27-1.9.4-2.82,1.53-11,2.2-18.71,1.57-21.21a22.3,22.3,0,0,0-2.5-5.66c-.25-.42-.51-.84-.77-1.25s-.64-1-1-1.45-.78-1.1-1.16-1.62a64,64,0,0,0-4.16-5s24.53-11.22,19.54-21.62-46.56,5.82-46.56,5.82,15-10.8,7.89-12c-5.82-1-25.15,7.81-33.19,14.21,2.64-3.25,5.24-7.7,1.18-9.22-5.06-1.9-29.09,6.09-32.09,40.73h0v0c-.12,1.34-.2,2.73-.26,4.16v.13c0,1.39-.06,2.82,0,4.29,0,.13,0,.26,0,.39,0,1.39.07,2.81.16,4.28,0,.26,0,.54.06.8.09,1.36.2,2.73.34,4.15,0,.45.12.92.17,1.37.15,1.28.3,2.56.5,3.88.1.69.23,1.41.35,2.12.18,1.14.36,2.27.58,3.45s.44,2.12.67,3.2c.19.9.35,1.77.56,2.69.47,2,1,4.11,1.55,6.24l.87.6c-3.53,27.38-3,53.94-2.53,54.7.37.55,5.65,2.9,11.92,5.26l-.49,2.74-.48-.17-6.24,8.24.42.35-1.63.75,0,0c-1,.39-2.12.76-3.14,1.19q-2.41.79-4.7,1.68l-.75.29c-1.55.62-3.06,1.26-4.5,2-31.43,15-54.84,50.63-72.45,90.39l-.3.47c-.47.71-.93,1.41-1.37,2.1l-.77,1.24q-.51.82-1,1.65c-.27.45-.53.9-.79,1.35-.36.63-.7,1.25-1,1.87l-.52,1c-.39.76-.77,1.52-1.12,2.27-.1.21-.18.41-.28.61-.29.64-.55,1.26-.8,1.88-.09.22-.19.45-.27.67-.29.75-.55,1.47-.77,2.18-.06.18-.11.35-.16.53-.19.64-.36,1.26-.49,1.86,0,.12-.07.25-.09.37-.14.69-.24,1.35-.31,2,0,.15,0,.3,0,.45a15.11,15.11,0,0,0,0,1.89,15.85,15.85,0,0,0,.3,2.31c.05.24.11.46.17.69a14.08,14.08,0,0,0,.45,1.57c.09.24.17.48.26.71.22.55.47,1.09.74,1.62.08.15.15.31.23.47.37.66.78,1.32,1.22,2,.12.17.25.33.37.49.35.48.72.94,1.11,1.4l.54.61c.39.42.79.84,1.21,1.25l.53.51c.6.56,1.22,1.11,1.88,1.63l.16.13c.61.49,1.25,1,1.9,1.43l.64.44q.78.54,1.59,1l.67.42c.65.4,1.31.79,2,1.16l.29.17c.8.44,1.61.87,2.42,1.28l.41.2c.68.34,1.37.67,2.06,1l.54.25,2.14.94.28.11c1.71.71,3.39,1.35,5,1.93l.12,0,2.38.81h0c1.93.64,3.74,1.18,5.36,1.63l-6.31,35,9,4.27-.9,7.9H1319q-1.25,1-2.37,2l-1.13,1-.51.48-1.14,1.1-.44.46c-.35.36-.7.71-1,1.07s-.84.93-1.22,1.39h0c-3.5,4.16-5.43,8.13-5.6,11.42-.26,5.07,8.58,25.84,20.34,51v131H1330l11.4-98.58q2.6,5.31,5.19,10.58v88h4.15l7.83-63.92c4.37,8.73,8.44,16.77,11.91,23.6,0,.09.09.18.14.26l1.26,2.49.15.29,1.12,2.2.26.52,2.28,4.47c0,.06.07.14.11.2.72,1.42,1.4,2.73,2,3.92.2.4.39.77.58,1.13-3.87,6.64-3.08,18.53-3.08,18.53l-16.54,6.31h23l9.37-20.66s-2.07-4.53-5-6.71l6.45-82h33.87l9.52,82.63a22.45,22.45,0,0,0-4.18,6.05l9.37,20.66h23l-16.54-6.31s.85-12.72-3.49-19.19c3.77-7.81,10.15-21.08,17.54-36.73l7.62,62.23h4.15V1162.7l.54-1.16c.09-.2.18-.4.28-.6.53-1.16,1.07-2.32,1.61-3.49l.26-.56c.43-.94.86-1.88,1.3-2.82l11.1,96h4.15V1120.22c11.27-25.68,19.76-47,19.34-52.17s-5.37-12.22-14-18.91h12.62l-1.31-7.79,9.08-4.44-9.18-39.48c2.63-.83,5.54-1.85,8.51-3.07l2-.86c7.94-3.5,16-8.45,19.91-15.07l.07-.12C1540,978,1540.15,977.68,1540.31,977.35ZM1393.6,1128.28l1.22-15.57h28.44l1.79,15.57Z" transform="translate(138.84 -581.2)"/><path class="cls-3" d="M736.86,978.31l.07.12c4,6.62,12,11.57,19.91,15.07l2,.86c3,1.22,5.88,2.24,8.51,3.07l-9.18,39.48,9.08,4.44-1.31,7.79H778.6c-8.64,6.69-13.58,13.67-14,18.91s8.07,26.49,19.34,52.17v129.86h4.15l11.1-96c.44.94.87,1.88,1.3,2.82l.26.56c.54,1.17,1.08,2.33,1.61,3.49l.28.6.54,1.16v87.38h4.15l7.62-62.23c7.39,15.65,13.76,28.92,17.54,36.73-4.34,6.47-3.49,19.19-3.49,19.19l-16.54,6.31h23l9.37-20.66a22.34,22.34,0,0,0-4.19-6.05l9.53-82.63H884l6.45,82c-2.91,2.18-5,6.71-5,6.71l9.37,20.66h23l-16.54-6.31s.79-11.89-3.08-18.53c.19-.36.38-.73.58-1.13l2-3.92a2,2,0,0,1,.11-.2l2.28-4.47c.08-.17.17-.35.26-.52l1.12-2.2.15-.29L906,1210c.05-.08.09-.17.14-.26,3.47-6.83,7.54-14.87,11.91-23.6l7.83,63.92h4.15v-88q2.6-5.26,5.19-10.58l11.4,98.58h4.15V1119c11.76-25.15,20.6-45.92,20.34-51-.17-3.29-2.1-7.26-5.6-11.42h0c-.38-.46-.79-.92-1.22-1.39s-.67-.71-1-1.07l-.45-.46-1.13-1.1-.52-.48c-.36-.33-.73-.67-1.12-1q-1.12-1-2.37-2h10.62l-.9-7.9,9-4.27-6.31-35c1.62-.45,3.43-1,5.36-1.63h0l2.38-.81.12,0c1.63-.58,3.31-1.22,5-1.93l.28-.11,2.14-.94.54-.25c.69-.31,1.38-.64,2.06-1l.41-.2c.81-.41,1.62-.84,2.42-1.28l.29-.17c.67-.37,1.33-.76,2-1.16l.66-.42c.55-.34,1.08-.69,1.6-1l.64-.44c.65-.47,1.29-.94,1.9-1.43l.16-.13c.66-.52,1.28-1.07,1.88-1.63l.52-.51c.42-.41.83-.83,1.22-1.25l.54-.61c.39-.46.76-.92,1.11-1.4.12-.16.25-.32.37-.49.44-.63.85-1.29,1.22-2,.08-.16.15-.32.23-.47.27-.53.52-1.07.74-1.62.09-.23.17-.47.26-.71.17-.51.33-1,.45-1.57.06-.23.12-.45.17-.69a15.85,15.85,0,0,0,.3-2.31,15.11,15.11,0,0,0,0-1.89c0-.15,0-.3,0-.45-.07-.64-.17-1.3-.31-2l-.09-.37c-.13-.6-.3-1.22-.49-1.86,0-.18-.1-.35-.16-.53-.22-.71-.48-1.43-.77-2.18-.08-.22-.18-.45-.27-.67-.25-.62-.52-1.24-.8-1.88-.1-.2-.18-.4-.28-.61-.35-.75-.73-1.51-1.12-2.27l-.52-1c-.33-.62-.67-1.24-1-1.87-.26-.45-.52-.9-.79-1.35s-.65-1.1-1-1.65l-.78-1.24c-.44-.69-.89-1.39-1.36-2.1l-.3-.47C979.36,909.63,956,874,924.52,859c-1.44-.69-2.95-1.33-4.5-2l-.75-.29q-2.28-.88-4.7-1.68c-1-.43-2.09-.8-3.14-1.19l0,0-1.64-.75.43-.35L904,844.52l-.48.17L903,842c6.27-2.36,11.55-4.71,11.92-5.26.51-.76,1-27.32-2.53-54.7l.87-.6c.57-2.13,1.08-4.21,1.55-6.24.21-.92.37-1.79.56-2.69.23-1.08.47-2.16.67-3.2s.4-2.31.58-3.45c.12-.71.25-1.43.35-2.12.2-1.32.35-2.6.5-3.88,0-.45.12-.92.17-1.37.14-1.42.25-2.79.34-4.15,0-.26.05-.54.06-.8.09-1.47.14-2.89.16-4.28,0-.13,0-.26,0-.39,0-1.47,0-2.9,0-4.29a.57.57,0,0,0,0-.13c-.05-1.43-.13-2.82-.25-4.16v0h0c-6.46-56.14-83.23-17.87-83.23-17.87a64,64,0,0,0-4.16,5c-.38.52-.77,1.06-1.16,1.62s-.65,1-1,1.45-.52.83-.77,1.25a22.3,22.3,0,0,0-2.5,5.66c-.63,2.5,0,10.19,1.57,21.21.13.92.26,1.86.4,2.82.56,3.85,1.21,8.06,1.94,12.54.18,1.12.37,2.26.56,3.42q.57,3.47,1.2,7.12c2.29,13.32,5.07,28.36,8,43.68l-.48,3.65-1,7.64-.9-.5-8.66,9.7.59.54h0l-1.67.33h0c-1.29.18-2.55.36-3.78.56h0c-1.22.2-2.42.41-3.58.62h0c-1.15.22-2.26.44-3.33.67l-.09,0c-1.05.23-2.06.46-3,.7l-.16,0c-.95.24-1.86.49-2.73.74l-.22.06c-.84.25-1.65.5-2.42.76l-.26.09q-1.11.38-2.1.78l-.3.11c-.63.26-1.21.52-1.77.79l-.24.1h0a19.43,19.43,0,0,0-2.25,1.24c-14.89,9.76-59.24,74.67-64.38,105.33l0,.08c-.16.46-.35.94-.49,1.39s-.22.86-.33,1.29-.23.78-.31,1.16-.15.94-.22,1.41c0,.28-.11.58-.13.86h0a15.13,15.13,0,0,0-.06,2.11,16.91,16.91,0,0,0,.2,1.76,2.08,2.08,0,0,0,0,.23c0,.1,0,.2.07.31.08.41.18.81.29,1.2,0,.19.09.38.15.56.15.48.32,1,.52,1.43.11.28.25.56.38.84s.19.4.3.6S736.68,978,736.86,978.31Zm114.74,150,1.79-15.57h28.43l1.23,15.57Z" transform="translate(138.84 -581.2)"/><path class="cls-4" d="M1753.94,725.47c0-.14,0-.29,0-.4a402.63,402.63,0,0,1,37-17.35v0c.8-.33,1.66-.66,2.48-1,1.21-.49,2.43-1,3.67-1.45l2.32-.9c2.21-.84,4.45-1.68,6.73-2.5l.67-.23c5.28-1.88,10.72-3.67,16.23-5.27l1.15-.42.1,0-.5-.5,2.49-1.78.79.4.44-3.35c-3.66-3.46-6.09-6.39-6.47-7.64-.59-1.91,2-11.15,4.65-21-3.16-2.79-4-8.43-2.79-16.47h0l.43-2.47h0l.35-2h6.78a21.4,21.4,0,0,0,.18-3.57,38.83,38.83,0,0,1,1.19-10.27c-.74-11.08,0-22.12,8-30.89,6.77-7.48,39.79-9.58,54.77-3.78,1.72.67,3.46,1.4,5.18,2.21h0l1.37.68c.38.18.77.37,1.15.57l1.27.69,1.2.67c.41.23.81.48,1.21.72l1.21.76c.38.25.77.51,1.14.77s.8.56,1.2.85l1.06.79c.41.32.8.65,1.2,1l.94.8c.44.39.85.8,1.27,1.2l.73.71c.63.65,1.23,1.33,1.81,2,.14.17.26.36.4.53.43.55.85,1.1,1.24,1.67.19.29.35.58.53.87.31.49.62,1,.89,1.5.18.32.34.66.5,1,.25.5.48,1,.7,1.53.15.36.28.72.41,1.09s.37,1.06.53,1.61c.1.38.21.75.3,1.14.14.58.25,1.17.35,1.76.07.39.14.76.19,1.15.08.67.12,1.36.16,2,0,.35,0,.68.06,1,0,1.05,0,2.13-.12,3.25a15.23,15.23,0,0,1-.42,2.46c0,.08,0,.15-.05.23a16.45,16.45,0,0,1-.74,2.18,3.05,3.05,0,0,0-.13.32c-.07.13-.12.27-.19.4a94.39,94.39,0,0,1-2.69,18c3.3-2,6.69-2.46,7.7,1,1.84,6.26-7.55,21.3-12.93,20.5l.56,2.46,5.22,22.74.8-.25,3.56,3.38-.73.41c1.45.5,2.89,1,4.3,1.53h0A265.44,265.44,0,0,1,1954,714.29l-.11.19c24.49,12.56,39.38,25,39.38,25h0c38.59,26,54.56,100.08,50.43,151.57,0,.05,0,.1,0,.14-.15,1.9-.32,3.76-.53,5.59a18.24,18.24,0,0,1-.32,1.94c-3,14-20.83,26.21-34.79,30-16.36,6.21-35.24,8.8-54.35,10.88l-3,38.74a41.21,41.21,0,0,1,5.76,4c16.54-7.49,31.16,1.75,31.16,1.75s-1.53,29.25-2.14,30.2c-1,1.58-6.66,1-13-.36l-10.76,6.58s-11.18,31.19-14.86,40.87l.18.06c-.72,1.92-1.2,3.14-1.31,3.31l-2.85,1.42-12.06-4.16-26.36,166c4.18,3.53,10.71,11.81,10.71,11.81h-20.27a102.76,102.76,0,0,1,4.47-10.41l-28-186.68-34.59-5.68-67.38,194.18c.73,3.27-.6,8.59-.6,8.59h-30.8s21.27-9.87,28.1-10.91l17.19-250.37-1.23.36-7.11-6.23s2.27-14.62,4-33.53c-24.15-4.47-47.46-10.36-65-24.21l-.52-.4-.79-.61,0,0A49.28,49.28,0,0,1,1702.26,903a26.87,26.87,0,0,1-5-13.52C1693.39,834.2,1712.4,751.15,1753.94,725.47Z" transform="translate(138.84 -581.2)"/><path class="cls-4" d="M1717.71,915l.06-.44c0-.25.06-.51.08-.78s0-.34,0-.52l.06-.9c0-.19,0-.37,0-.56s0-.7,0-1.07v-.56c0-.42,0-.87,0-1.32v-.46c0-1.28-.08-2.67-.16-4.16h0c0-.73-.09-1.49-.14-2.27l0-.4c-.05-.66-.1-1.34-.16-2,0-.17,0-.34,0-.51-.06-.68-.12-1.38-.19-2.09,0-.17,0-.35,0-.53-.07-.74-.15-1.5-.23-2.28,0-.14,0-.28,0-.42-.09-.86-.19-1.74-.29-2.63a1.37,1.37,0,0,1,0-.19c-5-42.26-22.84-120-45.06-133.11q-1.74-1.58-3.65-3.1h0c-3-2.45-6.34-4.82-9.87-7.14h0c-2-1.29-4-2.56-6.09-3.82l-.47-.28c-.86-.52-1.71-1-2.59-1.54-1.17-.69-2.35-1.37-3.55-2.06l-1.76,1.7-.37-.33.28-.1-.25-9-.31,0c.12-1.46.25-2.91.39-4.36v-.11c.14-1.43.28-2.85.43-4.26v-.12c.44-4.18.94-8.26,1.49-12.18a61.69,61.69,0,0,1,4.23-9c7.36-.48,15.56-3.41,17.31-9.11a7.21,7.21,0,0,0,.2-3.37l2.36-.59a8.54,8.54,0,0,0,2-.78c6.27-3.38,7.74-14.06,8-20.81,0-.34,0-.67,0-1,0-.63,0-1.22,0-1.75,0-1.86-.08-3-.08-3s16.33-17.41-1.19-36.59a70.44,70.44,0,0,0-7-6.7h0c-17.33-14.47-40.78-20.27-57.77-9.92-6.56,4-10.28,10.63-12.34,17.67a50.49,50.49,0,0,0-8.67.36c-3.07.61-2.93,3.19-2.2,5.84.32,1.16,3.09,2.69,6.41,3.76-21.72,33.79-23.11,82.82-23.11,82.82,3.8.92,8.46,1.83,13.44,2.63l-.08.33-.18.71c-.2.79-.4,1.56-.59,2.3l0,.12-.4-.3-2.78,2.65.11.28h-.19l-4.37.12h-.6l.05-2.66s-15.42-.44-25.6,1.43a9.93,9.93,0,0,0-1.21.23c-2.93.62-5.32,1.46-6.58,2.6a6,6,0,0,0-.88,1c-29.27,19-67.71,96.63-73.45,117.41a12.8,12.8,0,0,0-.68,3.17,24.71,24.71,0,0,0,.5,8.38c1.61,7.68,6.2,15.45,12.56,20.12,6,6,14.47,12.27,23.46,18.21-.58,3.31-1.16,6.67-1.75,10.1l1.28-.24c-.47,2.86-.72,4.46-.72,4.46l3.37,8.43.33.17.44.24.39.19.51.25.41.17h0l-17.44,318.73c-8.33,1.16-26.76,11.22-26.76,11.22h33.34s.85-4.72-.82-8.19l63.89-235.6,9.86,1,76.9,231.84h0c-4.48,2.65-3.1,11-3.1,11H1663a54.68,54.68,0,0,0-7.36-8.62L1629.8,965.36h0l-1.29-13.87,2.22.48s.14-3,.47-7.82l2.9,1.92s1.67-8.49,4-19.69c23.08,1.09,60.38,1.55,77-5.47l-.51-.49a6.79,6.79,0,0,0,2.76-3.58c.08-.25.16-.53.23-.84l.06-.33C1717.63,915.45,1717.67,915.22,1717.71,915Zm-67.44-39.68,2.08,3.17-3.29.55C1649.5,877.53,1649.9,876.29,1650.27,875.28Z" transform="translate(138.84 -581.2)"/><path class="cls-4" d="M105.06,749.72l.74-2.67-6.9-.61-.54.69-1-2.63c5-3.85,9-8.22,9-11.51,0-1.76-.7-7.77-1.84-15.86,10.24-8.24,11-16.45,8-23.39-1.42-3.26-3.54-4.26-5.71-4a171.05,171.05,0,0,0,.79-19.12c0-1.89-.11-3.7-.22-5.45-.06-.87-.12-1.72-.19-2.56-.22-2.52-.51-4.88-.87-7.1-.12-.73-.24-1.46-.38-2.16-6.13-32.54-27-31.91-27-31.91h0l0-.08v0a17.13,17.13,0,0,0-2.13-5.15h0c-3.23-5.41-11.1-13.06-29.77-13.06C18.11,603.08,26.55,641,26.55,641c-9.62,6.5-7.74,33.82,4.55,66.13-3-.08-5.89,1.32-6.56,5.68C23.35,720.58,26.7,728.6,41,732.28c2.68,11.73,5.59,20.8,8.45,22.88,1.61,1.17,4.37,1.66,7.64,1.74l1.83,10.67-1.38.15-1.09,10.21.67.09-.06.06h0c-1.23,1.09-2.41,2.19-3.51,3.3h0L52.81,780s-15.39,14.42-19.75,23c-.31.36-.62.73-.94,1.15-22.24,29.39-43.21,210.23-43.21,210.23l2.57,1.17-1.87,11.94,4.38,1.6c-7.58,11.47-10.22,22.86-10.44,28.21h0c-1.94,8-4.12,17.15-4.12,17.92,0,1.4,3.51,6,4.63,6,.68,0,3.12-6.71,5.89-14.65l1,1c-2.18,8.66-5.63,22.62-5.59,23.52.05,1.31,4.6,4.51,6,4.14,1-.26,4.49-9.85,8.12-19.87l1.09.94c-2.09,8.39-4.6,18.69-4.57,19.46.06,1.31,4.6,4.51,6,4.14s6.65-15.9,11.11-28.15l.43-.88c4.3,6.89,10.15,16.23,10.68,16.86.85,1,7-2.49,6.79-3.94s-8.81-14.45-8.94-29.84c.08-1.06.12-2.18.11-3.36v0h0a96.22,96.22,0,0,0-1-11.56l4.41,1.61,1.37-8.88,2.56,1.17h0c1.26-5.73,6.85-29.7,13.72-56.47,3.51,35.9,7.42,66.59,7.44,66.8h0a34.31,34.31,0,0,0,5.86-5.34c1.23-1.26,2.48-2.64,3.77-4.11,2.29,16.25,4.85,32.08,7.1,47.45,7.75,53,17.81,103.12,23.12,156.33h0q.53,5.33,1,10.69c-4.09,2.07-14.93,9.42-14.93,9.42H97.93s-1.13-5.23-2.9-8.08h.72l17.44-227.06L119,1019l6.23,204c-2.85,1.86-5.67,8.54-5.67,8.54l9,22.31,5.42,1.67-2.61-4.65s0-19.66-2.51-26.11c.76-3,1.84-7.36,3.15-12.75l.09-.36c.17-.69.34-1.4.51-2.12l0-.08h0c8.5-35.31,25.5-111,33.82-183.75,1.38-11.8,2.72-23.88,3.83-35.86a20.71,20.71,0,0,0,2.65,2.08s2.95-29.78,3.14-64.82v0C181.18,777.69,106.73,747.74,105.06,749.72Z" transform="translate(138.84 -581.2)"/><path class="cls-4" d="M192.23,996.9l-2.29,1.64h0c-2.35-5.37-12.48-27.81-24.39-52.74L118.09,755s17.88,11.17,23.82,18.7c.37.29.75.6,1.14.94,27.51,24.53,83.1,197.89,83.1,197.89l-2.29,1.65L228,985.52l-4,2.42c9.66,9.79,14.47,20.45,15.72,25.66h0c3.45,7.47,7.36,16,7.51,16.78.28,1.38-2.28,6.59-3.38,6.79-.67.12-4.37-6-8.62-13.23-.25.39-.51.78-.77,1.17,3.81,8.08,9.9,21.11,10,22,.2,1.29-3.64,5.31-5.06,5.21-1-.06-6.32-8.79-11.81-17.91l-.9,1.13c3.68,7.82,8.15,17.44,8.26,18.2.2,1.3-3.64,5.32-5.06,5.22s-9.6-14.31-16.36-25.46l-.59-.79c-2.88,7.59-6.81,17.9-7.21,18.62-.64,1.14-7.39-1.09-7.43-2.56s5.85-15.88,3-31c-.28-1-.53-2.12-.75-3.27a.13.13,0,0,0,0-.06h0a98.27,98.27,0,0,1-1.28-11.53l-4,2.44Z" transform="translate(138.84 -581.2)"/><path class="cls-4" d="M1143.88,1004.6h0l0-.1q.33-1.35.66-2.67c.06-.25.13-.49.19-.74.17-.69.35-1.37.52-2.05.07-.25.13-.51.2-.77.18-.71.37-1.41.55-2.1l.15-.57c.24-.89.47-1.76.71-2.62v0c.09-.34.19-.66.28-1l0-.24-5.68,3.61s1.89-4.31,4.55-10.51l-.52-3.59h0c-4.27-27.58-12.35-82.45-11.39-96.85.93-14,35.28-92.76,52.43-102.71,3.55-3.79,12.55-6.87,22.61-9.29l1-.32,2-1.09-.21-1.15,6.73-7,.88.45c0-.48.1-1,.15-1.52l0-.33c.19-1.91.4-4.09.65-6.52-5-.87-8.88-2-10-3.45-2.16-2.67-.63-19.11,2.45-38.44-1.77-23.73,8.76-70.75,8.76-70.75a1.43,1.43,0,0,0-.1-.16l-.09-.15c0-.08-.09-.16-.17-.27l-.22-.38-.19-.32-.31-.53-.24-.42-.37-.66c-.09-.15-.17-.31-.27-.47l-.42-.78-.3-.56-.45-.84c-.11-.22-.22-.44-.34-.66s-.29-.58-.44-.88h0c-2.51-5.06-5.1-11.58-3.92-15.14,2.09-6.33,11.74-13.25,24.48-10.43,7.16,1.59,30.93,11.78,48.28,23.26l.08.05c.83.55,1.65,1.1,2.45,1.66l.06,0a78.87,78.87,0,0,1,10.14,8.21c.15.14.31.29.45.44.37.36.7.73,1,1.09s.45.48.65.72.55.65.81,1,.44.55.64.82.43.6.63.9.39.58.56.87.33.56.48.84.3.61.44.91.23.52.32.78a8.83,8.83,0,0,1,.29.92c.06.25.13.49.18.73s.08.64.11,1,0,.44,0,.65a7.06,7.06,0,0,1-.12,1,4.81,4.81,0,0,1-.07.53,7.27,7.27,0,0,1-.55,1.49h0c3.18.24,4.47,2.83,4.38,7-.18,8.12-5.6,22.24-12.53,36.8a6.52,6.52,0,0,1,1.33,3.41c.28,3.09-4.14,8.33-9.64,13-1.88,3.51-3.77,6.92-5.61,10.14-3.57,6.26-6.94,11.77-9.7,15.94l-.09.8-.18,1.51c-.09.72-.17,1.43-.26,2.14s-.14,1.22-.21,1.82-.15,1.3-.23,1.94-.12,1.06-.19,1.59-.14,1.23-.21,1.82l-.24,2-.12,1.09c-.09.76-.18,1.5-.26,2.23l-.09.78c-.09.76-.18,1.51-.26,2.23,0,.2,0,.4-.07.6-.05.44-.1.86-.14,1.28l1.2-.21h0l1.44,5.4,2.16,8.11-.73.3.29.32h0l1.33,1h0c1,.78,2.09,1.58,3.12,2.4l.21.15q2.31,1.67,4.6,3.37l.2.16c1.41,1,2.8,2.12,4.18,3.19.38.28.74.57,1.11.86,1.1.86,2.19,1.72,3.26,2.58l1.12.89c1.22,1,2.41,2,3.57,2.93l.37.3c10.53,7.29,19.78,34.24,20.84,79.79,1.07,46.51,3,96.16,4.08,123.77,0,0,0-.06,0-.1.54,13.2.9,21.23.9,21.23h0c0,.38,0,.62,0,.62l-2.8.28.46,6.26-3.79.35c3.81,3.51,9.65.36,16.17,1.64a7.51,7.51,0,0,1,1.85.74h0c2.57.48,5.95,2.14,9.21,4.14l1.14-.45c.31.58.58,1.15.85,1.71a53.25,53.25,0,0,1,8.33,6.62H1366a44.65,44.65,0,0,0-5.9-6.73l14.09-5.76a30,30,0,0,1,6.24,10.34,58.7,58.7,0,0,0,.16-9.73l14.58,6.51a38.71,38.71,0,0,1-.81,5.37h71.16l3.53,143h0l3.15,64.37h-6.4l-9.1-13.44h-13l.63,13.44h-6.13l-8.73-13.44H1299.36l-8.21,13.44h-5.76l1.89-17.92h-8.72l-10.94,17.92h-5.76l6.86-65h0l3-32.71-5-14.06a37.47,37.47,0,0,1,6.7-4.43l.34-3.72a38.2,38.2,0,0,1-6.37-5.53l7.9-11.75,0,.06,6.41-70.18h12.09a58.89,58.89,0,0,1-2.17-11.92l-2.88.27-.56-6-4.14.41s-.34-1.9-.93-5.23c-1.53-7.58-4.78-23.71-8.43-41.91-1.28,13.59-2.21,26.18-3.08,36.68-.2,2.38-.39,4.66-.59,6.81-.1,1.08-.19,2.13-.29,3.15-1.28,13.2-2.64,21.08-5,20.17-.18-.07-.36-.16-.55-.25l0,0h0a13,13,0,0,1-2-1.34c-.21,1-.42,2-.64,3-.06.28-.13.56-.19.84-.25,1.15-.5,2.32-.77,3.52l-.18.79q-1,4.47-2.12,9.35c0,.1,0,.2-.07.3-.35,1.52-.72,3.07-1.09,4.64,0,.23-.11.46-.16.69-.37,1.56-.74,3.15-1.13,4.76l-.09.38q-1.28,5.36-2.67,11l0,.11h0c-13.87,56.7-34.69,133.28-40.51,154.56,5.23,2.18,17.19,12.58,17.19,12.58h-23.3a44,44,0,0,1,1.59-9.37c-.7-22.81-6.06-195.35-9.22-201.24-1-1.81-6.66-7.35-7.68-5.36-2,3.82-19,56.52-19,56.52l25.84,137c2.81,2.23,7.25,9.49,7.25,9.49l-11.29,11.28h-13a36.28,36.28,0,0,0,13.95-17.75c-11.13-20.31-67.95-124.38-68.76-133C1126.46,1092.3,1135,1040.84,1143.88,1004.6Z" transform="translate(138.84 -581.2)"/><path class="cls-4" d="M225.34,915.67l.06.33c.07.31.15.59.23.84a7.17,7.17,0,0,0,1.32,2.34,7.43,7.43,0,0,0,1.44,1.24l-.51.49c16.57,7,53.87,6.56,76.95,5.47,2.33,11.2,4,19.69,4,19.69l2.91-1.92c.33,4.85.46,7.82.46,7.82l2.23-.48-1.29,13.87h0L287.3,1242.85a54.08,54.08,0,0,0-7.36,8.62h16.84s1.38-8.34-3.1-11h0l76.91-231.84,9.85-1,63.89,235.6c-1.67,3.47-.81,8.19-.81,8.19h33.34s-18.44-10.06-26.76-11.22L432.65,921.52h0l.4-.17.51-.25.4-.19.44-.24.32-.17,3.38-8.43s-.25-1.6-.72-4.46l1.28.24c-.59-3.43-1.18-6.79-1.75-10.1,9-5.94,17.45-12.24,23.46-18.21,6.35-4.67,10.94-12.44,12.55-20.12a24.71,24.71,0,0,0,.51-8.38,12.31,12.31,0,0,0-.69-3.17c-5.74-20.78-44.18-98.43-73.45-117.41a6,6,0,0,0-.87-1c-1.27-1.14-3.65-2-6.58-2.6a9.93,9.93,0,0,0-1.21-.23c-10.18-1.87-25.61-1.43-25.61-1.43l.05,2.66h-.59l-4.37-.12h-.2l.12-.28-2.78-2.65-.4.3s0-.08,0-.12c-.18-.74-.38-1.51-.58-2.3l-.18-.71-.09-.33c5-.8,9.65-1.71,13.45-2.63,0,0-1.39-49-23.11-82.82,3.32-1.07,6.08-2.6,6.41-3.76.72-2.65.86-5.23-2.2-5.84a50.62,50.62,0,0,0-8.68-.36c-2.06-7-5.78-13.68-12.33-17.67-17-10.35-40.44-4.55-57.78,9.92h0a71.44,71.44,0,0,0-7,6.7c-17.53,19.18-1.2,36.59-1.2,36.59s-.07,1.17-.07,3c0,.53,0,1.12,0,1.75,0,.31,0,.64,0,1,.28,6.75,1.74,17.43,8,20.81a8.54,8.54,0,0,0,2,.78l2.36.59a7.08,7.08,0,0,0,.2,3.37c1.74,5.7,9.95,8.63,17.31,9.11a61.69,61.69,0,0,1,4.23,9c.55,3.92,1,8,1.49,12.18v.12q.22,2.11.42,4.26l0,.11.39,4.36-.32,0-.25,9,.29.1-.37.33-1.76-1.7c-1.2.69-2.38,1.37-3.55,2.06-.88.51-1.74,1-2.59,1.54l-.47.28c-2.09,1.26-4.13,2.53-6.1,3.82h0c-3.53,2.32-6.84,4.69-9.88,7.14h0c-1.26,1-2.49,2-3.65,3.1-22.21,13.1-40.09,90.85-45,133.11,0,.06,0,.12,0,.19-.11.89-.2,1.77-.3,2.63,0,.14,0,.28,0,.42-.08.78-.16,1.54-.23,2.28,0,.18,0,.36,0,.53-.07.71-.13,1.41-.19,2.09,0,.17,0,.34,0,.51-.06.7-.11,1.38-.16,2l0,.4c-.06.78-.1,1.54-.14,2.27h0c-.09,1.49-.14,2.88-.16,4.16v.46c0,.45,0,.9,0,1.32,0,.19,0,.38,0,.56,0,.37,0,.73,0,1.07s0,.37,0,.56,0,.61.05.9,0,.35.05.52,0,.53.08.78l.06.44C225.25,915.22,225.3,915.45,225.34,915.67ZM293.86,879l-3.29-.55c.7-1.05,1.39-2.11,2.08-3.17C293,876.29,293.43,877.53,293.86,879Z" transform="translate(138.84 -581.2)"/><path class="cls-4" d="M789.28,1004.6h0l0-.1-.66-2.67c-.06-.25-.12-.49-.19-.74-.17-.69-.34-1.37-.52-2.05-.06-.25-.13-.51-.2-.77-.18-.71-.37-1.41-.55-2.1l-.15-.57c-.24-.89-.47-1.76-.71-2.62v0c-.09-.34-.18-.66-.28-1l0-.24c3.51,2.22,5.68,3.61,5.68,3.61s-1.89-4.31-4.55-10.51l.52-3.59h0c4.27-27.58,12.36-82.45,11.4-96.85-.94-14-35.29-92.76-52.44-102.71-3.55-3.79-12.55-6.87-22.61-9.29l-1-.32-2-1.09.21-1.15-6.73-7-.88.45c0-.48-.09-1-.15-1.52l0-.33c-.18-1.91-.4-4.09-.65-6.52,5-.87,8.88-2,10-3.45,2.16-2.67.63-19.11-2.45-38.44,1.77-23.73-8.76-70.75-8.76-70.75l.1-.16.09-.15.17-.27.22-.38.19-.32.31-.53.24-.42.37-.66.27-.47.42-.78.3-.56.45-.84c.11-.22.22-.44.34-.66s.29-.58.44-.88h0c2.51-5.06,5.1-11.58,3.93-15.14-2.1-6.33-11.75-13.25-24.49-10.43-7.16,1.59-30.93,11.78-48.28,23.26l-.08.05c-.83.55-1.65,1.1-2.44,1.66l-.07,0A78.87,78.87,0,0,0,634,642.85c-.15.14-.31.29-.45.44-.36.36-.7.73-1,1.09s-.45.48-.65.72-.55.65-.81,1-.44.55-.64.82-.43.6-.63.9-.39.58-.56.87-.33.56-.48.84-.3.61-.44.91-.22.52-.32.78-.2.62-.29.92-.13.49-.18.73-.08.64-.11,1,0,.44,0,.65a7.06,7.06,0,0,0,.12,1c0,.18,0,.35.07.53a7.27,7.27,0,0,0,.55,1.49h0c-3.18.24-4.47,2.83-4.38,7,.18,8.12,5.6,22.24,12.53,36.8a6.52,6.52,0,0,0-1.33,3.41c-.28,3.09,4.14,8.33,9.64,13,1.88,3.51,3.77,6.92,5.61,10.14,3.57,6.26,6.94,11.77,9.7,15.94l.09.8.18,1.51c.09.72.17,1.43.26,2.14s.14,1.22.21,1.82.15,1.3.23,1.94.12,1.06.19,1.59.14,1.23.21,1.82.16,1.37.24,2l.12,1.09c.09.76.18,1.5.26,2.23l.09.78c.09.76.18,1.51.26,2.23,0,.2,0,.4.07.6.05.44.1.86.15,1.28l-1.21-.21h0l-1.44,5.4-2.16,8.11.73.3-.29.32h0l-1.32,1h0c-1,.78-2.09,1.58-3.12,2.4l-.21.15q-2.31,1.67-4.6,3.37l-.2.16c-1.41,1-2.8,2.12-4.18,3.19l-1.11.86c-1.1.86-2.19,1.72-3.26,2.58l-1.12.89c-1.22,1-2.41,2-3.57,2.93l-.37.3c-10.53,7.29-19.78,34.24-20.83,79.79-1.08,46.51-3,96.16-4.08,123.77a.3.3,0,0,1,0-.1c-.54,13.2-.9,21.23-.9,21.23h0c0,.38,0,.62,0,.62l2.8.28-.45,6.26,3.78.35c-3.81,3.51-9.65.36-16.16,1.64a7.21,7.21,0,0,0-1.85.74h0c-2.58.48-5.95,2.14-9.22,4.14l-1.14-.45c-.3.58-.58,1.15-.85,1.71a52.61,52.61,0,0,0-8.32,6.62H567.13a45.29,45.29,0,0,1,5.9-6.73l-14.09-5.76a30.17,30.17,0,0,0-6.24,10.34,58.7,58.7,0,0,1-.16-9.73L538,1038.62a38.71,38.71,0,0,0,.81,5.37H467.61l-3.53,143h0l-3.15,64.37h6.4l9.1-13.44h13l-.63,13.44h6.13l8.74-13.44H633.8l8.21,13.44h5.76l-1.89-17.92h8.72l10.94,17.92h5.77l-6.86-65h0l-3-32.71,5-14.06a37.88,37.88,0,0,0-6.71-4.43l-.34-3.72a38.2,38.2,0,0,0,6.37-5.53l-7.9-11.75,0,.06L651.45,1044H639.36a58.89,58.89,0,0,0,2.17-11.92l2.88.27.56-6,4.14.41s.34-1.9.93-5.23c1.53-7.58,4.78-23.71,8.43-41.91,1.28,13.59,2.21,26.18,3.08,36.68.2,2.38.39,4.66.59,6.81.1,1.08.2,2.13.29,3.15,1.28,13.2,2.64,21.08,5,20.17.18-.07.36-.16.55-.25l0,0h0a13.51,13.51,0,0,0,2-1.34c.2,1,.41,2,.63,3,.07.28.13.56.19.84.25,1.15.51,2.32.77,3.52l.18.79q1,4.47,2.12,9.35c0,.1,0,.2.07.3.36,1.52.72,3.07,1.09,4.64,0,.23.11.46.16.69l1.13,4.76.09.38c.85,3.57,1.75,7.25,2.67,11,0,0,0,.07,0,.11h0c13.87,56.7,34.69,133.28,40.51,154.56-5.23,2.18-17.19,12.58-17.19,12.58h23.3a44,44,0,0,0-1.59-9.37c.7-22.81,6.06-195.35,9.22-201.24,1-1.81,6.66-7.35,7.68-5.36,2,3.82,19,56.52,19,56.52l-25.84,137c-2.81,2.23-7.25,9.49-7.25,9.49l11.29,11.28h13a36.22,36.22,0,0,1-13.95-17.75c11.12-20.31,67.94-124.38,68.75-133C806.7,1092.3,798.15,1040.84,789.28,1004.6Z" transform="translate(138.84 -581.2)"/><path class="cls-4" d="M899.9,824s16.79-55.09,33.35-80.77c1.3-3.36,2.55-6,3.64-7.23,2.85-3.26,23.1-16,48.21-23.44h0l0-.29,1-.43.17-1.52,6.36-4.65.68,1.36,9.17-16.54c-7.72-4-14-8.54-16.7-12.46,0,0,16.63-32.85,34.54-59.11a24.35,24.35,0,0,1-2.35-5.67l3.5-2.44c.17.09,1.14,1.27,2.49,2.89,6.51-9.1,13.06-17,18.91-21.83h0c-4.23-17.31,52.14-20,78,43l0,.1c.42,1,.84,2.1,1.25,3.18l.15.4c.37,1,.74,2,1.09,3l.24.67c.32.95.64,1.92,1,2.89.09.3.19.58.28.88.29.93.57,1.88.85,2.83.11.35.22.7.32,1.05.27,1,.53,1.94.79,2.92.1.36.2.71.29,1.07.35,1.35.69,2.72,1,4.11l-11.25-.49-2.19,8.3c-.32,3.33-.63,6.39-.92,8.71l-9.86-1.14-9,5.65-30.08,16.88-.61,1.48-4.68,11.31.39-.08,2.94,7.83-2.41,1,5.69,4h0a120.37,120.37,0,0,1,10.7,7.15l.13.1c1,.77,2,1.54,3,2.3,5,1.51,10.06,5.27,14.82,11.87l.18.26c.48.67.95,1.37,1.42,2.09l.39.6c.53.85,1.06,1.72,1.59,2.64,29.46,51.75,26.41,122.54,25,133.54-.52,3.85-9,13.72-19.89,24.95l20.56,24.81-66,66.81-3.49-.18-5.83,231.09c4.18,2.14,11,8.34,11,8.34h-18.1s-.86-8.71,4.18-9.07l-71-176.57L950.4,1232a15.92,15.92,0,0,1,1.6,5.79h-25s16.08-7.75,21.16-7.55c-.16-.88-.33-1.77-.49-2.65h0c-33.13-177.34-35.58-280.51-35.32-313.83l-.41-5.2c-2.29-1.17-3.84-2.22-4.45-3.11l1.65-13.57C882.8,883.47,899.9,824,899.9,824Z" transform="translate(138.84 -581.2)"/></g></svg>