<svg id="Capa_2" data-name="Capa 2" xmlns="http://www.w3.org/2000/svg" xmlns:xlink="http://www.w3.org/1999/xlink" viewBox="0 0 118.62 239.66"><defs><style>.cls-1,.cls-2,.cls-3,.cls-4{fill-rule:evenodd;}.cls-1{fill:url(#Áåçûìÿííûé_ãðàäèåíò_67);}.cls-2{fill:url(#Áåçûìÿííûé_ãðàäèåíò_151);}.cls-3{fill:url(#Áåçûìÿííûé_ãðàäèåíò_151-2);}.cls-4{opacity:0.6;fill:url(#Áåçûìÿííûé_ãðàäèåíò_46);}</style><linearGradient id="Áåçûìÿííûé_ãðàäèåíò_67" x1="349.62" y1="351.02" x2="349.62" y2="111.36" gradientUnits="userSpaceOnUse"><stop offset="0.01" stop-color="#922736"/><stop offset="0.98" stop-color="#c74a21"/></linearGradient><linearGradient id="Áåçûìÿííûé_ãðàäèåíò_151" x1="115.37" y1="239.66" x2="115.37" gradientUnits="userSpaceOnUse"><stop offset="0" stop-color="#e26221"/><stop offset="1" stop-color="#f98336"/></linearGradient><linearGradient id="Áåçûìÿííûé_ãðàäèåíò_151-2" x1="18.08" y1="129.05" x2="18.08" y2="40.6" xlink:href="#Áåçûìÿííûé_ãðàäèåíò_151"/><linearGradient id="Áåçûìÿííûé_ãðàäèåíò_46" x1="29.59" y1="134.32" x2="88.59" y2="32.12" gradientUnits="userSpaceOnUse"><stop offset="0" stop-color="#ffdea1"/><stop offset="1" stop-color="#fcb4bd"/></linearGradient></defs><path class="cls-1" d="M296.63,111.36,291.79,351H403.91l3.53-239.66Zm12.5,129.05-1.64-88.29,12-.4,71.12-2.35-2.92,91-64.07,0Z" transform="translate(-291.79 -111.36)"/><polygon class="cls-2" points="115.65 0 118.62 3.38 118.62 236.52 112.12 239.66 115.65 0"/><polygon class="cls-3" points="15.7 40.76 20.46 40.6 20.46 129.05 17.34 129.05 15.7 40.76"/><polygon class="cls-4" points="20.46 40.6 98.79 38.01 95.88 129.03 20.46 129.05 20.46 40.6"/></svg>