<svg xmlns="http://www.w3.org/2000/svg" xmlns:xlink="http://www.w3.org/1999/xlink" viewBox="0 0 221.38 684.22"><defs><style>.cls-1{isolation:isolate;}.cls-2{fill:url(#Áåçûìÿííûé_ãðàäèåíò_101);}.cls-10,.cls-14,.cls-19,.cls-21,.cls-3{opacity:0.5;}.cls-10,.cls-11,.cls-14,.cls-19,.cls-21,.cls-3,.cls-6{mix-blend-mode:color-dodge;}.cls-3{fill:url(#Áåçûìÿííûé_ãðàäèåíò_35);}.cls-4{fill:#fff;}.cls-5{fill:url(#Áåçûìÿííûé_ãðàäèåíò_12);}.cls-11,.cls-6,.cls-7{opacity:0.29;}.cls-6{fill:url(#Áåçûìÿííûé_ãðàäèåíò_58);}.cls-7{mix-blend-mode:screen;fill:url(#Áåçûìÿííûé_ãðàäèåíò_76);}.cls-22,.cls-8{fill:#b2261b;mix-blend-mode:multiply;}.cls-8{opacity:0.52;}.cls-9{fill:url(#Áåçûìÿííûé_ãðàäèåíò_228);}.cls-10{fill:url(#Áåçûìÿííûé_ãðàäèåíò_58-2);}.cls-11{fill:url(#Áåçûìÿííûé_ãðàäèåíò_58-3);}.cls-12{fill:url(#Áåçûìÿííûé_ãðàäèåíò_228-2);}.cls-13{fill:url(#Áåçûìÿííûé_ãðàäèåíò_228-3);}.cls-14{fill:url(#Áåçûìÿííûé_ãðàäèåíò_58-4);}.cls-15,.cls-20{fill:#3b5463;}.cls-16{fill:url(#Áåçûìÿííûé_ãðàäèåíò_228-4);}.cls-17{fill:url(#Áåçûìÿííûé_ãðàäèåíò_228-5);}.cls-18{fill:url(#Áåçûìÿííûé_ãðàäèåíò_228-6);}.cls-19{fill:url(#Áåçûìÿííûé_ãðàäèåíò_58-5);}.cls-20{opacity:0.44;}.cls-21{fill:url(#Áåçûìÿííûé_ãðàäèåíò_58-6);}.cls-22{opacity:0.66;}</style><linearGradient id="Áåçûìÿííûé_ãðàäèåíò_101" x1="1337.82" y1="649.82" x2="1017.03" y2="204.45" gradientTransform="matrix(-1, 0, 0, 1, 1338.62, -151.95)" gradientUnits="userSpaceOnUse"><stop offset="0" stop-color="#c43c2b"/><stop offset="1" stop-color="#ab1553"/></linearGradient><linearGradient id="Áåçûìÿííûé_ãðàäèåíò_35" x1="1092.6" y1="367.39" x2="1190.19" y2="362.41" gradientTransform="matrix(-1, 0, 0, 1, 1338.62, -151.95)" gradientUnits="userSpaceOnUse"><stop offset="0"/><stop offset="1" stop-color="#9f4d46"/></linearGradient><linearGradient id="Áåçûìÿííûé_ãðàäèåíò_12" x1="1169.34" y1="474.07" x2="1130.9" y2="542.95" gradientTransform="matrix(-1, 0, 0, 1, 1338.62, -151.95)" gradientUnits="userSpaceOnUse"><stop offset="0" stop-color="#ab1553"/><stop offset="1" stop-color="#c43c2b"/></linearGradient><linearGradient id="Áåçûìÿííûé_ãðàäèåíò_58" x1="1182.01" y1="337.26" x2="1327.34" y2="311.24" gradientTransform="matrix(-1, 0, 0, 1, 1338.62, -151.95)" gradientUnits="userSpaceOnUse"><stop offset="0"/><stop offset="1" stop-color="#9fc946"/></linearGradient><radialGradient id="Áåçûìÿííûé_ãðàäèåíò_76" cx="2201.84" cy="361.24" r="151.95" gradientTransform="matrix(-0.45, 0, 0, 1, 1083.16, -151.95)" gradientUnits="userSpaceOnUse"><stop offset="0" stop-color="#ffec46"/><stop offset="1"/></radialGradient><linearGradient id="Áåçûìÿííûé_ãðàäèåíò_228" x1="1305.5" y1="502.18" x2="1304.89" y2="398.03" gradientTransform="matrix(-1, 0, 0, 1, 1338.62, -151.95)" gradientUnits="userSpaceOnUse"><stop offset="0" stop-color="#ced0ca"/><stop offset="1" stop-color="#6d8597"/></linearGradient><linearGradient id="Áåçûìÿííûé_ãðàäèåíò_58-2" x1="1265.23" y1="468.54" x2="1315.4" y2="432.06" xlink:href="#Áåçûìÿííûé_ãðàäèåíò_58"/><linearGradient id="Áåçûìÿííûé_ãðàäèåíò_58-3" x1="1295.81" y1="436.84" x2="1332.4" y2="425.53" xlink:href="#Áåçûìÿííûé_ãðàäèåíò_58"/><linearGradient id="Áåçûìÿííûé_ãðàäèåíò_228-2" x1="1307.4" y1="407.99" x2="1308.98" y2="387.75" gradientTransform="matrix(-1, 0, 0, 1, 2747.52, 0)" xlink:href="#Áåçûìÿííûé_ãðàäèåíò_228"/><linearGradient id="Áåçûìÿííûé_ãðàäèåíò_228-3" x1="1296.48" y1="472.86" x2="1307.63" y2="508.43" xlink:href="#Áåçûìÿííûé_ãðàäèåíò_228"/><linearGradient id="Áåçûìÿííûé_ãðàäèåíò_58-4" x1="1324.96" y1="468.7" x2="1316.89" y2="471.61" gradientTransform="matrix(-1, 0, 0, 1, 2747.52, 0)" xlink:href="#Áåçûìÿííûé_ãðàäèåíò_58"/><linearGradient id="Áåçûìÿííûé_ãðàäèåíò_228-4" x1="1327.88" y1="429.89" x2="1323.36" y2="433.89" gradientTransform="matrix(-1, 0, 0, 1, 2747.52, 0)" xlink:href="#Áåçûìÿííûé_ãðàäèåíò_228"/><linearGradient id="Áåçûìÿííûé_ãðàäèåíò_228-5" x1="1319.81" y1="436.64" x2="1233.56" y2="457.83" gradientTransform="matrix(-1, 0, 0, 1, 2747.52, 0)" xlink:href="#Áåçûìÿííûé_ãðàäèåíò_228"/><linearGradient id="Áåçûìÿííûé_ãðàäèåíò_228-6" x1="1321.91" y1="442.49" x2="1235" y2="463.85" gradientTransform="matrix(-1, 0, 0, 1, 2747.52, 0)" xlink:href="#Áåçûìÿííûé_ãðàäèåíò_228"/><linearGradient id="Áåçûìÿííûé_ãðàäèåíò_58-5" x1="1284.8" y1="425.33" x2="1284.98" y2="463.82" gradientTransform="matrix(-1, 0, 0, 1, 2747.52, 0)" xlink:href="#Áåçûìÿííûé_ãðàäèåíò_58"/><linearGradient id="Áåçûìÿííûé_ãðàäèåíò_58-6" x1="1305.92" y1="449.45" x2="1323.19" y2="435.54" gradientTransform="matrix(-1, 0, 0, 1, 2747.52, 0)" xlink:href="#Áåçûìÿííûé_ãðàäèåíò_58"/></defs><g class="cls-1"><g id="Capa_9" data-name="Capa 9"><polygon class="cls-2" points="0 34.49 16.81 391.31 16.81 391.47 25.3 571.66 201.13 684.22 220.84 17.94 221.38 0 0 34.49"/><polygon class="cls-3" points="66.71 77.89 77.18 342.11 123.06 347.4 123.12 345.65 133.44 72.93 133.49 71.46 66.71 77.89"/><polygon class="cls-4" points="81.94 77.89 92.43 342.11 123.12 345.65 133.44 72.93 81.94 77.89"/><polygon class="cls-5" points="133.44 72.93 130.07 353.03 77.18 342.11 123.03 348.12 133.44 72.93"/><polygon class="cls-6" points="133.49 71.46 71.95 78.96 74.73 280.37 66.71 77.89 133.49 71.46"/><ellipse class="cls-7" cx="92.11" cy="209.29" rx="68.4" ry="151.95"/><polygon class="cls-8" points="23.72 341.52 27.11 347.4 54.87 352.14 52.27 306.56 75.72 309.32 75.72 303.86 51.87 299.55 49.02 249.68 44.88 245.99 23.72 341.52"/><polygon class="cls-9" points="44.88 245.99 18.56 245.99 23.71 341.52 48.31 345.65 44.88 245.99"/><polygon class="cls-10" points="43.59 248.13 39.3 252.57 42.73 339.57 47.17 344.32 43.59 248.13"/><polygon class="cls-11" points="37.2 255.18 21.47 255.18 24.48 302.2 39.49 311.85 37.2 255.18"/><path class="cls-12" d="M1451.28,398.78l-4.43,4.14s-16.45.61-16.66.38-2.7-4.9-2.7-4.9Z" transform="translate(-1408.91 -151.95)"/><polygon class="cls-13" points="46.47 345.34 41.64 340.74 24.86 337.78 23.71 341.52 46.47 345.34"/><path class="cls-14" d="M1440.9,480.89s1.63-10.6.79-11.5-3.74-.61-4.22,0,2.38,11.93,2.38,11.93Z" transform="translate(-1408.91 -151.95)"/><path class="cls-15" d="M1441.7,481.32s1.63-10.6.79-11.5-3.74-.61-4.22,0,1.58,11.5,1.58,11.5Z" transform="translate(-1408.91 -151.95)"/><path class="cls-16" d="M1434.2,447.77c0,5.51,2.52,10,5.63,10s5.63-4.46,5.63-10-2.52-10-5.63-10S1434.2,442.26,1434.2,447.77Z" transform="translate(-1408.91 -151.95)"/><path class="cls-17" d="M1487.67,453.91s3.57-9.5,2.75-10.63-53.42-6.57-53.42-6.57v11.06l45.06,1.4.19,4.26Z" transform="translate(-1408.91 -151.95)"/><path class="cls-18" d="M1433.61,445.84c0,5.5,2.52,10,5.63,10s5.63-4.47,5.63-10-2.52-10-5.63-10S1433.61,440.33,1433.61,445.84Z" transform="translate(-1408.91 -151.95)"/><path class="cls-19" d="M1489.27,444.08l-6,1.76s-47.19-3-47.27-5,5.49-3.07,5.49-3.07Z" transform="translate(-1408.91 -151.95)"/><path class="cls-20" d="M1481.47,448.18c-1.29-.54-40.06-1.62-40.06-1.62s.2,4.83-2.17,4.83,1.13,1.05,2.69.33,2.43-3.71,2.43-3.71l37.11.74Z" transform="translate(-1408.91 -151.95)"/><path class="cls-21" d="M1436,446.42c0,2.27.82,4.11,1.83,4.11s1.82-1.84,1.82-4.11-.82-4.11-1.82-4.11S1436,444.15,1436,446.42Z" transform="translate(-1408.91 -151.95)"/><path class="cls-20" d="M1489.54,445.31c-.29.05-5.7,2.15-5.7,2.15V452l3.81.53Z" transform="translate(-1408.91 -151.95)"/><polygon class="cls-22" points="16.81 391.31 10.19 57.33 220.84 17.94 221.38 0 0 34.49 16.81 391.31"/></g></g></svg>