<svg xmlns="http://www.w3.org/2000/svg" xmlns:xlink="http://www.w3.org/1999/xlink" viewBox="0 0 221.38 684.22"><defs><style>.cls-1{isolation:isolate;}.cls-2{fill:url(#Áåçûìÿííûé_ãðàäèåíò_101);}.cls-10,.cls-14,.cls-19,.cls-21,.cls-3{opacity:0.5;}.cls-10,.cls-11,.cls-14,.cls-19,.cls-21,.cls-3,.cls-6{mix-blend-mode:color-dodge;}.cls-3{fill:url(#Áåçûìÿííûé_ãðàäèåíò_35);}.cls-4{fill:#fff;}.cls-5{fill:url(#Áåçûìÿííûé_ãðàäèåíò_12);}.cls-11,.cls-6,.cls-7{opacity:0.29;}.cls-6{fill:url(#Áåçûìÿííûé_ãðàäèåíò_58);}.cls-7{mix-blend-mode:screen;fill:url(#Áåçûìÿííûé_ãðàäèåíò_76);}.cls-22,.cls-8{fill:#b2261b;mix-blend-mode:multiply;}.cls-8{opacity:0.52;}.cls-9{fill:url(#Áåçûìÿííûé_ãðàäèåíò_228);}.cls-10{fill:url(#Áåçûìÿííûé_ãðàäèåíò_58-2);}.cls-11{fill:url(#Áåçûìÿííûé_ãðàäèåíò_58-3);}.cls-12{fill:url(#Áåçûìÿííûé_ãðàäèåíò_228-2);}.cls-13{fill:url(#Áåçûìÿííûé_ãðàäèåíò_228-3);}.cls-14{fill:url(#Áåçûìÿííûé_ãðàäèåíò_58-4);}.cls-15,.cls-20{fill:#3b5463;}.cls-16{fill:url(#Áåçûìÿííûé_ãðàäèåíò_228-4);}.cls-17{fill:url(#Áåçûìÿííûé_ãðàäèåíò_228-5);}.cls-18{fill:url(#Áåçûìÿííûé_ãðàäèåíò_228-6);}.cls-19{fill:url(#Áåçûìÿííûé_ãðàäèåíò_58-5);}.cls-20{opacity:0.44;}.cls-21{fill:url(#Áåçûìÿííûé_ãðàäèåíò_58-6);}.cls-22{opacity:0.66;}</style><linearGradient id="Áåçûìÿííûé_ãðàäèåíò_101" x1="220.59" y1="497.87" x2="-100.2" y2="52.5" gradientUnits="userSpaceOnUse"><stop offset="0" stop-color="#c43c2b"/><stop offset="1" stop-color="#ab1553"/></linearGradient><linearGradient id="Áåçûìÿííûé_ãðàäèåíò_35" x1="-24.64" y1="215.44" x2="72.95" y2="210.46" gradientUnits="userSpaceOnUse"><stop offset="0"/><stop offset="1" stop-color="#9f4d46"/></linearGradient><linearGradient id="Áåçûìÿííûé_ãðàäèåíò_12" x1="52.11" y1="322.12" x2="13.66" y2="391" gradientUnits="userSpaceOnUse"><stop offset="0" stop-color="#ab1553"/><stop offset="1" stop-color="#c43c2b"/></linearGradient><linearGradient id="Áåçûìÿííûé_ãðàäèåíò_58" x1="64.78" y1="185.31" x2="210.11" y2="159.29" gradientUnits="userSpaceOnUse"><stop offset="0"/><stop offset="1" stop-color="#9fc946"/></linearGradient><radialGradient id="Áåçûìÿííûé_ãðàäèåíò_76" cx="1959.6" cy="218.18" r="151.95" gradientTransform="translate(-752.74 -8.89) scale(0.45 1)" gradientUnits="userSpaceOnUse"><stop offset="0" stop-color="#ffec46"/><stop offset="1"/></radialGradient><linearGradient id="Áåçûìÿííûé_ãðàäèåíò_228" x1="188.26" y1="350.23" x2="187.65" y2="246.08" gradientUnits="userSpaceOnUse"><stop offset="0" stop-color="#ced0ca"/><stop offset="1" stop-color="#6d8597"/></linearGradient><linearGradient id="Áåçûìÿííûé_ãðàäèåíò_58-2" x1="148" y1="316.59" x2="198.17" y2="280.11" xlink:href="#Áåçûìÿííûé_ãðàäèåíò_58"/><linearGradient id="Áåçûìÿííûé_ãðàäèåíò_58-3" x1="178.58" y1="284.89" x2="215.16" y2="273.58" xlink:href="#Áåçûìÿííûé_ãðàäèåíò_58"/><linearGradient id="Áåçûìÿííûé_ãðàäèåíò_228-2" x1="1198.37" y1="264.93" x2="1199.95" y2="244.69" xlink:href="#Áåçûìÿííûé_ãðàäèåíò_228"/><linearGradient id="Áåçûìÿííûé_ãðàäèåíò_228-3" x1="179.24" y1="320.91" x2="190.39" y2="356.48" xlink:href="#Áåçûìÿííûé_ãðàäèåíò_228"/><linearGradient id="Áåçûìÿííûé_ãðàäèåíò_58-4" x1="1215.92" y1="325.64" x2="1207.86" y2="328.55" xlink:href="#Áåçûìÿííûé_ãðàäèåíò_58"/><linearGradient id="Áåçûìÿííûé_ãðàäèåíò_228-4" x1="1218.85" y1="286.83" x2="1214.33" y2="290.83" xlink:href="#Áåçûìÿííûé_ãðàäèåíò_228"/><linearGradient id="Áåçûìÿííûé_ãðàäèåíò_228-5" x1="1210.78" y1="293.58" x2="1124.53" y2="314.77" xlink:href="#Áåçûìÿííûé_ãðàäèåíò_228"/><linearGradient id="Áåçûìÿííûé_ãðàäèåíò_228-6" x1="1212.88" y1="299.43" x2="1125.97" y2="320.78" xlink:href="#Áåçûìÿííûé_ãðàäèåíò_228"/><linearGradient id="Áåçûìÿííûé_ãðàäèåíò_58-5" x1="1175.77" y1="282.27" x2="1175.95" y2="320.76" xlink:href="#Áåçûìÿííûé_ãðàäèåíò_58"/><linearGradient id="Áåçûìÿííûé_ãðàäèåíò_58-6" x1="1196.88" y1="306.39" x2="1214.16" y2="292.48" xlink:href="#Áåçûìÿííûé_ãðàäèåíò_58"/></defs><g class="cls-1"><g id="Capa_9" data-name="Capa 9"><polygon class="cls-2" points="221.38 34.49 204.57 391.31 204.57 391.47 196.08 571.66 20.25 684.22 0.54 17.94 0 0 221.38 34.49"/><polygon class="cls-3" points="154.67 77.89 144.2 342.11 98.32 347.4 98.27 345.65 87.95 72.93 87.89 71.46 154.67 77.89"/><polygon class="cls-4" points="139.45 77.89 128.95 342.11 98.27 345.65 87.95 72.93 139.45 77.89"/><polygon class="cls-5" points="87.95 72.93 91.31 353.03 144.2 342.11 98.35 348.12 87.95 72.93"/><polygon class="cls-6" points="87.89 71.46 149.44 78.96 146.65 280.37 154.67 77.89 87.89 71.46"/><ellipse class="cls-7" cx="129.27" cy="209.29" rx="68.4" ry="151.95"/><polygon class="cls-8" points="197.66 341.52 194.28 347.4 166.51 352.14 169.11 306.56 145.66 309.32 145.66 303.86 169.52 299.55 172.37 249.68 176.5 245.99 197.66 341.52"/><polygon class="cls-9" points="176.5 245.99 202.82 245.99 197.67 341.52 173.07 345.65 176.5 245.99"/><polygon class="cls-10" points="177.79 248.13 182.08 252.57 178.65 339.57 174.21 344.32 177.79 248.13"/><polygon class="cls-11" points="184.18 255.18 199.91 255.18 196.91 302.2 181.89 311.85 184.18 255.18"/><path class="cls-12" d="M1187.21,255.72l4.43,4.14s16.45.61,16.67.38,2.69-4.9,2.69-4.9Z" transform="translate(-1008.2 -8.89)"/><polygon class="cls-13" points="174.91 345.34 179.74 340.74 196.53 337.78 197.67 341.52 174.91 345.34"/><path class="cls-14" d="M1197.59,337.83s-1.63-10.6-.79-11.5,3.74-.61,4.22,0-2.38,11.93-2.38,11.93Z" transform="translate(-1008.2 -8.89)"/><path class="cls-15" d="M1196.79,338.26s-1.63-10.6-.79-11.5,3.74-.61,4.22,0-1.58,11.5-1.58,11.5Z" transform="translate(-1008.2 -8.89)"/><path class="cls-16" d="M1204.29,304.71c0,5.51-2.52,10-5.63,10s-5.63-4.46-5.63-10,2.52-10,5.63-10S1204.29,299.2,1204.29,304.71Z" transform="translate(-1008.2 -8.89)"/><path class="cls-17" d="M1150.82,310.85s-3.56-9.5-2.74-10.63,53.41-6.57,53.41-6.57v11.06l-45.06,1.4-.18,4.26Z" transform="translate(-1008.2 -8.89)"/><path class="cls-18" d="M1204.89,302.78c0,5.5-2.52,10-5.64,10s-5.63-4.47-5.63-10,2.52-10,5.63-10S1204.89,297.27,1204.89,302.78Z" transform="translate(-1008.2 -8.89)"/><path class="cls-19" d="M1149.22,301l6,1.76s47.19-3,47.27-5-5.49-3.07-5.49-3.07Z" transform="translate(-1008.2 -8.89)"/><path class="cls-20" d="M1157,305.11c1.29-.53,40.06-1.61,40.06-1.61s-.2,4.83,2.17,4.83-1.12,1.05-2.69.32-2.42-3.71-2.42-3.71l-37.12.75Z" transform="translate(-1008.2 -8.89)"/><path class="cls-21" d="M1202.47,303.36c0,2.27-.81,4.11-1.82,4.11s-1.83-1.84-1.83-4.11.82-4.11,1.83-4.11S1202.47,301.09,1202.47,303.36Z" transform="translate(-1008.2 -8.89)"/><path class="cls-20" d="M1149,302.25c.29,0,5.7,2.15,5.7,2.15v4.51l-3.81.53Z" transform="translate(-1008.2 -8.89)"/><polygon class="cls-22" points="204.57 391.31 211.2 57.33 0.54 17.94 0 0 221.38 34.49 204.57 391.31"/></g></g></svg>