<svg xmlns="http://www.w3.org/2000/svg" xmlns:xlink="http://www.w3.org/1999/xlink" viewBox="0 0 106.14 253.85"><defs><style>.cls-1{isolation:isolate;}.cls-2{fill:url(#Áåçûìÿííûé_ãðàäèåíò_101);}.cls-11,.cls-15,.cls-20,.cls-22,.cls-3{opacity:0.5;}.cls-11,.cls-12,.cls-15,.cls-20,.cls-22,.cls-3,.cls-6,.cls-8{mix-blend-mode:color-dodge;}.cls-3{fill:url(#Áåçûìÿííûé_ãðàäèåíò_35);}.cls-4{fill:#fff;}.cls-5{fill:url(#Áåçûìÿííûé_ãðàäèåíò_12);}.cls-12,.cls-6,.cls-7{opacity:0.29;}.cls-6{fill:url(#Áåçûìÿííûé_ãðàäèåíò_58);}.cls-7{mix-blend-mode:screen;fill:url(#Áåçûìÿííûé_ãðàäèåíò_76);}.cls-8{opacity:0.19;fill:url(#Áåçûìÿííûé_ãðàäèåíò_83);}.cls-23,.cls-9{fill:#b2261b;mix-blend-mode:multiply;}.cls-9{opacity:0.52;}.cls-10{fill:url(#Áåçûìÿííûé_ãðàäèåíò_228);}.cls-11{fill:url(#Áåçûìÿííûé_ãðàäèåíò_58-2);}.cls-12{fill:url(#Áåçûìÿííûé_ãðàäèåíò_58-3);}.cls-13{fill:url(#Áåçûìÿííûé_ãðàäèåíò_228-2);}.cls-14{fill:url(#Áåçûìÿííûé_ãðàäèåíò_228-3);}.cls-15{fill:url(#Áåçûìÿííûé_ãðàäèåíò_58-4);}.cls-16,.cls-21{fill:#3b5463;}.cls-17{fill:url(#Áåçûìÿííûé_ãðàäèåíò_228-4);}.cls-18{fill:url(#Áåçûìÿííûé_ãðàäèåíò_228-5);}.cls-19{fill:url(#Áåçûìÿííûé_ãðàäèåíò_228-6);}.cls-20{fill:url(#Áåçûìÿííûé_ãðàäèåíò_58-5);}.cls-21{opacity:0.44;}.cls-22{fill:url(#Áåçûìÿííûé_ãðàäèåíò_58-6);}.cls-23{opacity:0.66;}</style><linearGradient id="Áåçûìÿííûé_ãðàäèåíò_101" x1="78.99" y1="178.29" x2="-35.88" y2="18.8" gradientUnits="userSpaceOnUse"><stop offset="0" stop-color="#c43c2b"/><stop offset="1" stop-color="#ab1553"/></linearGradient><linearGradient id="Áåçûìÿííûé_ãðàäèåíò_35" x1="-8.82" y1="77.15" x2="26.12" y2="75.37" gradientUnits="userSpaceOnUse"><stop offset="0"/><stop offset="1" stop-color="#9f4d46"/></linearGradient><linearGradient id="Áåçûìÿííûé_ãðàäèåíò_12" x1="18.66" y1="115.35" x2="4.89" y2="140.02" gradientUnits="userSpaceOnUse"><stop offset="0" stop-color="#ab1553"/><stop offset="1" stop-color="#c43c2b"/></linearGradient><linearGradient id="Áåçûìÿííûé_ãðàäèåíò_58" x1="23.2" y1="66.36" x2="75.24" y2="57.04" gradientUnits="userSpaceOnUse"><stop offset="0"/><stop offset="1" stop-color="#9fc946"/></linearGradient><radialGradient id="Áåçûìÿííûé_ãðàäèåíò_76" cx="2026.82" cy="303.07" r="54.41" gradientTransform="translate(-865.98 -228.12) scale(0.45 1)" gradientUnits="userSpaceOnUse"><stop offset="0" stop-color="#ffec46"/><stop offset="1"/></radialGradient><linearGradient id="Áåçûìÿííûé_ãðàäèåíò_83" x1="12.22" y1="199.52" x2="82.87" y2="240.04" gradientUnits="userSpaceOnUse"><stop offset="0" stop-color="#45ffff"/><stop offset="1"/></linearGradient><linearGradient id="Áåçûìÿííûé_ãðàäèåíò_228" x1="67.42" y1="125.42" x2="67.2" y2="88.12" gradientUnits="userSpaceOnUse"><stop offset="0" stop-color="#ced0ca"/><stop offset="1" stop-color="#6d8597"/></linearGradient><linearGradient id="Áåçûìÿííûé_ãðàäèåíò_58-2" x1="53" y1="113.37" x2="70.96" y2="100.31" xlink:href="#Áåçûìÿííûé_ãðàäèåíò_58"/><linearGradient id="Áåçûìÿííûé_ãðàäèåíò_58-3" x1="63.95" y1="102.02" x2="77.05" y2="97.97" xlink:href="#Áåçûìÿííûé_ãðàäèåíò_58"/><linearGradient id="Áåçûìÿííûé_ãðàäèåíò_228-2" x1="1189.54" y1="319.81" x2="1190.1" y2="312.56" xlink:href="#Áåçûìÿííûé_ãðàäèåíò_228"/><linearGradient id="Áåçûìÿííûé_ãðàäèåíò_228-3" x1="64.19" y1="114.92" x2="68.18" y2="127.65" xlink:href="#Áåçûìÿííûé_ãðàäèåíò_228"/><linearGradient id="Áåçûìÿííûé_ãðàäèåíò_58-4" x1="1195.82" y1="341.55" x2="1192.94" y2="342.59" xlink:href="#Áåçûìÿííûé_ãðàäèåíò_58"/><linearGradient id="Áåçûìÿííûé_ãðàäèåíò_228-4" x1="1196.87" y1="327.65" x2="1195.25" y2="329.08" xlink:href="#Áåçûìÿííûé_ãðàäèåíò_228"/><linearGradient id="Áåçûìÿííûé_ãðàäèåíò_228-5" x1="1193.98" y1="330.07" x2="1163.09" y2="337.66" xlink:href="#Áåçûìÿííûé_ãðàäèåíò_228"/><linearGradient id="Áåçûìÿííûé_ãðàäèåíò_228-6" x1="1194.73" y1="332.16" x2="1163.61" y2="339.81" xlink:href="#Áåçûìÿííûé_ãðàäèåíò_228"/><linearGradient id="Áåçûìÿííûé_ãðàäèåíò_58-5" x1="1181.44" y1="326.02" x2="1181.51" y2="339.8" xlink:href="#Áåçûìÿííûé_ãðàäèåíò_58"/><linearGradient id="Áåçûìÿííûé_ãðàäèåíò_58-6" x1="1189" y1="334.66" x2="1195.19" y2="329.67" xlink:href="#Áåçûìÿííûé_ãðàäèåíò_58"/></defs><g class="cls-1"><g id="Capa_9" data-name="Capa 9"><polygon class="cls-2" points="79.28 12.35 73.26 140.13 73.26 140.19 70.22 204.71 7.25 245.02 0.19 6.42 0 0 79.28 12.35"/><polygon class="cls-3" points="55.39 27.89 51.64 122.51 35.21 124.41 35.19 123.78 31.49 26.11 31.47 25.59 55.39 27.89"/><polygon class="cls-4" points="49.94 27.89 46.18 122.51 35.19 123.78 31.49 26.11 49.94 27.89"/><polygon class="cls-5" points="31.49 26.11 32.7 126.42 51.64 122.51 35.22 124.66 31.49 26.11"/><polygon class="cls-6" points="31.47 25.59 53.51 28.27 52.52 100.4 55.39 27.89 31.47 25.59"/><ellipse class="cls-7" cx="46.29" cy="74.95" rx="24.49" ry="54.41"/><polygon class="cls-8" points="70.22 204.71 106.14 205.67 55.39 253.85 7.25 244.39 7.03 237.43 70.22 204.71"/><polygon class="cls-9" points="70.78 122.3 69.57 124.4 59.63 126.1 60.56 109.78 52.16 110.77 52.16 108.81 60.7 107.27 61.72 89.41 63.21 88.09 70.78 122.3"/><polygon class="cls-10" points="63.2 88.09 72.63 88.09 70.79 122.3 61.98 123.78 63.2 88.09"/><polygon class="cls-11" points="63.67 88.86 65.2 90.45 63.97 121.6 62.39 123.3 63.67 88.86"/><polygon class="cls-12" points="65.95 91.38 71.59 91.38 70.51 108.22 65.13 111.67 65.95 91.38"/><path class="cls-13" d="M1185.54,316.51l1.59,1.48s5.89.22,6,.14,1-1.75,1-1.75Z" transform="translate(-1121.44 -228.12)"/><polygon class="cls-14" points="62.64 123.67 64.37 122.02 70.38 120.96 70.79 122.3 62.64 123.67"/><path class="cls-15" d="M1189.26,345.91s-.59-3.79-.28-4.11a1.48,1.48,0,0,1,1.51,0,30.4,30.4,0,0,1-.86,4.27Z" transform="translate(-1121.44 -228.12)"/><path class="cls-16" d="M1189,346.07s-.58-3.8-.28-4.12a1.48,1.48,0,0,1,1.51,0,29,29,0,0,1-.57,4.12Z" transform="translate(-1121.44 -228.12)"/><path class="cls-17" d="M1191.66,334.05c0,2-.91,3.58-2,3.58s-2-1.6-2-3.58.91-3.57,2-3.57S1191.66,332.08,1191.66,334.05Z" transform="translate(-1121.44 -228.12)"/><path class="cls-18" d="M1172.51,336.25s-1.28-3.4-1-3.8,19.12-2.35,19.12-2.35v3.95l-16.13.51-.07,1.52Z" transform="translate(-1121.44 -228.12)"/><path class="cls-19" d="M1191.87,333.36c0,2-.9,3.57-2,3.57s-2-1.6-2-3.57.9-3.57,2-3.57S1191.87,331.39,1191.87,333.36Z" transform="translate(-1121.44 -228.12)"/><path class="cls-20" d="M1171.94,332.73l2.14.63s16.9-1.07,16.93-1.79-2-1.1-2-1.1Z" transform="translate(-1121.44 -228.12)"/><path class="cls-21" d="M1174.73,334.2c.46-.19,14.35-.58,14.35-.58s-.08,1.73.77,1.73-.4.38-1,.12-.87-1.33-.87-1.33l-13.29.27Z" transform="translate(-1121.44 -228.12)"/><path class="cls-22" d="M1191,333.57c0,.81-.3,1.47-.66,1.47s-.65-.66-.65-1.47.29-1.47.65-1.47S1191,332.76,1191,333.57Z" transform="translate(-1121.44 -228.12)"/><path class="cls-21" d="M1171.84,333.17c.1,0,2,.77,2,.77v1.62l-1.36.19Z" transform="translate(-1121.44 -228.12)"/><polygon class="cls-23" points="73.26 140.13 75.63 20.53 0.19 6.42 0 0 79.28 12.35 73.26 140.13"/></g></g></svg>