<svg xmlns="http://www.w3.org/2000/svg" xmlns:xlink="http://www.w3.org/1999/xlink" viewBox="0 0 106.24 328.34"><defs><style>.cls-1{isolation:isolate;}.cls-2{fill:url(#Áåçûìÿííûé_ãðàäèåíò_101);}.cls-10,.cls-14,.cls-19,.cls-21,.cls-3{opacity:0.5;}.cls-10,.cls-11,.cls-14,.cls-19,.cls-21,.cls-3,.cls-6{mix-blend-mode:color-dodge;}.cls-3{fill:url(#Áåçûìÿííûé_ãðàäèåíò_35);}.cls-4{fill:#fff;}.cls-5{fill:url(#Áåçûìÿííûé_ãðàäèåíò_12);}.cls-11,.cls-6,.cls-7{opacity:0.29;}.cls-6{fill:url(#Áåçûìÿííûé_ãðàäèåíò_58);}.cls-7{mix-blend-mode:screen;fill:url(#Áåçûìÿííûé_ãðàäèåíò_76);}.cls-22,.cls-8{fill:#b2261b;mix-blend-mode:multiply;}.cls-8{opacity:0.52;}.cls-9{fill:url(#Áåçûìÿííûé_ãðàäèåíò_228);}.cls-10{fill:url(#Áåçûìÿííûé_ãðàäèåíò_58-2);}.cls-11{fill:url(#Áåçûìÿííûé_ãðàäèåíò_58-3);}.cls-12{fill:url(#Áåçûìÿííûé_ãðàäèåíò_228-2);}.cls-13{fill:url(#Áåçûìÿííûé_ãðàäèåíò_228-3);}.cls-14{fill:url(#Áåçûìÿííûé_ãðàäèåíò_58-4);}.cls-15,.cls-20{fill:#3b5463;}.cls-16{fill:url(#Áåçûìÿííûé_ãðàäèåíò_228-4);}.cls-17{fill:url(#Áåçûìÿííûé_ãðàäèåíò_228-5);}.cls-18{fill:url(#Áåçûìÿííûé_ãðàäèåíò_228-6);}.cls-19{fill:url(#Áåçûìÿííûé_ãðàäèåíò_58-5);}.cls-20{opacity:0.44;}.cls-21{fill:url(#Áåçûìÿííûé_ãðàäèåíò_58-6);}.cls-22{opacity:0.66;}</style><linearGradient id="Áåçûìÿííûé_ãðàäèåíò_101" x1="1624.9" y1="428.21" x2="1470.96" y2="214.49" gradientTransform="matrix(-1, 0, 0, 1, 1625.28, -189.3)" gradientUnits="userSpaceOnUse"><stop offset="0" stop-color="#c43c2b"/><stop offset="1" stop-color="#ab1553"/></linearGradient><linearGradient id="Áåçûìÿííûé_ãðàäèåíò_35" x1="1507.22" y1="292.68" x2="1554.05" y2="290.29" gradientTransform="matrix(-1, 0, 0, 1, 1625.28, -189.3)" gradientUnits="userSpaceOnUse"><stop offset="0"/><stop offset="1" stop-color="#9f4d46"/></linearGradient><linearGradient id="Áåçûìÿííûé_ãðàäèåíò_12" x1="1544.05" y1="343.88" x2="1525.6" y2="376.93" gradientTransform="matrix(-1, 0, 0, 1, 1625.28, -189.3)" gradientUnits="userSpaceOnUse"><stop offset="0" stop-color="#ab1553"/><stop offset="1" stop-color="#c43c2b"/></linearGradient><linearGradient id="Áåçûìÿííûé_ãðàäèåíò_58" x1="1550.13" y1="278.23" x2="1619.87" y2="265.74" gradientTransform="matrix(-1, 0, 0, 1, 1625.28, -189.3)" gradientUnits="userSpaceOnUse"><stop offset="0"/><stop offset="1" stop-color="#9fc946"/></linearGradient><radialGradient id="Áåçûìÿííûé_ãðàäèåíò_76" cx="2945.17" cy="289.73" r="72.92" gradientTransform="matrix(-0.45, 0, 0, 1, 1369.82, -189.3)" gradientUnits="userSpaceOnUse"><stop offset="0" stop-color="#ffec46"/><stop offset="1"/></radialGradient><linearGradient id="Áåçûìÿííûé_ãðàäèåíò_228" x1="1609.39" y1="357.37" x2="1609.09" y2="307.39" gradientTransform="matrix(-1, 0, 0, 1, 1625.28, -189.3)" gradientUnits="userSpaceOnUse"><stop offset="0" stop-color="#ced0ca"/><stop offset="1" stop-color="#6d8597"/></linearGradient><linearGradient id="Áåçûìÿííûé_ãðàäèåíò_58-2" x1="1590.06" y1="341.22" x2="1614.14" y2="323.71" xlink:href="#Áåçûìÿííûé_ãðàäèåíò_58"/><linearGradient id="Áåçûìÿííûé_ãðàäèåíò_58-3" x1="1604.74" y1="326.01" x2="1622.29" y2="320.58" xlink:href="#Áåçûìÿííûé_ãðàäèåíò_58"/><linearGradient id="Áåçûìÿííûé_ãðàäèåíò_228-2" x1="1610.3" y1="312.16" x2="1611.06" y2="302.45" gradientTransform="matrix(-1, 0, 0, 1, 2747.52, 0)" xlink:href="#Áåçûìÿííûé_ãðàäèåíò_228"/><linearGradient id="Áåçûìÿííûé_ãðàäèåíò_228-3" x1="1605.06" y1="343.29" x2="1610.41" y2="360.36" xlink:href="#Áåçûìÿííûé_ãðàäèåíò_228"/><linearGradient id="Áåçûìÿííûé_ãðàäèåíò_58-4" x1="1618.72" y1="341.3" x2="1614.85" y2="342.7" gradientTransform="matrix(-1, 0, 0, 1, 2747.52, 0)" xlink:href="#Áåçûìÿííûé_ãðàäèåíò_58"/><linearGradient id="Áåçûìÿííûé_ãðàäèåíò_228-4" x1="1620.13" y1="322.68" x2="1617.96" y2="324.59" gradientTransform="matrix(-1, 0, 0, 1, 2747.52, 0)" xlink:href="#Áåçûìÿííûé_ãðàäèåíò_228"/><linearGradient id="Áåçûìÿííûé_ãðàäèåíò_228-5" x1="1616.26" y1="325.91" x2="1574.86" y2="336.08" gradientTransform="matrix(-1, 0, 0, 1, 2747.52, 0)" xlink:href="#Áåçûìÿííûé_ãðàäèåíò_228"/><linearGradient id="Áåçûìÿííûé_ãðàäèåíò_228-6" x1="1617.26" y1="328.72" x2="1575.56" y2="338.97" gradientTransform="matrix(-1, 0, 0, 1, 2747.52, 0)" xlink:href="#Áåçûìÿííûé_ãðàäèåíò_228"/><linearGradient id="Áåçûìÿííûé_ãðàäèåíò_58-5" x1="1599.45" y1="320.49" x2="1599.54" y2="338.96" gradientTransform="matrix(-1, 0, 0, 1, 2747.52, 0)" xlink:href="#Áåçûìÿííûé_ãðàäèåíò_58"/><linearGradient id="Áåçûìÿííûé_ãðàäèåíò_58-6" x1="1609.59" y1="332.06" x2="1617.88" y2="325.39" gradientTransform="matrix(-1, 0, 0, 1, 2747.52, 0)" xlink:href="#Áåçûìÿííûé_ãðàäèåíò_58"/></defs><g class="cls-1"><g id="Capa_9" data-name="Capa 9"><polygon class="cls-2" points="0 16.55 8.07 187.78 8.07 187.86 12.14 274.33 96.52 328.34 105.98 8.61 106.24 0 0 16.55"/><polygon class="cls-3" points="32.01 37.38 37.04 164.17 59.05 166.71 59.08 165.87 64.03 35 64.06 34.29 32.01 37.38"/><polygon class="cls-4" points="39.32 37.38 44.35 164.17 59.08 165.87 64.03 35 39.32 37.38"/><polygon class="cls-5" points="64.03 35 62.42 169.41 37.04 164.17 59.04 167.05 64.03 35"/><polygon class="cls-6" points="64.06 34.29 34.53 37.89 35.86 134.54 32.01 37.38 64.06 34.29"/><ellipse class="cls-7" cx="44.2" cy="100.43" rx="32.82" ry="72.92"/><polygon class="cls-8" points="11.38 163.89 13.01 166.71 26.33 168.98 25.08 147.11 36.34 148.44 36.34 145.81 24.89 143.75 23.52 119.82 21.54 118.05 11.38 163.89"/><polygon class="cls-9" points="21.54 118.05 8.91 118.05 11.38 163.89 23.18 165.87 21.54 118.05"/><polygon class="cls-10" points="20.92 119.07 18.86 121.2 20.51 162.95 22.64 165.23 20.92 119.07"/><polygon class="cls-11" points="17.85 122.45 10.3 122.45 11.74 145.02 18.95 149.65 17.85 122.45"/><path class="cls-12" d="M1142.58,307.75l-2.13,2s-7.89.29-8,.18-1.3-2.35-1.3-2.35Z" transform="translate(-1122.24 -189.3)"/><polygon class="cls-13" points="22.3 165.72 19.98 163.52 11.93 162.09 11.38 163.89 22.3 165.72"/><path class="cls-14" d="M1137.6,347.15s.78-5.09.38-5.52a2,2,0,0,0-2,0c-.23.29,1.14,5.72,1.14,5.72Z" transform="translate(-1122.24 -189.3)"/><path class="cls-15" d="M1138,347.35s.78-5.08.38-5.52a2,2,0,0,0-2,0c-.23.3.76,5.52.76,5.52Z" transform="translate(-1122.24 -189.3)"/><path class="cls-16" d="M1134.38,331.26c0,2.64,1.21,4.78,2.7,4.78s2.71-2.14,2.71-4.78-1.21-4.79-2.71-4.79S1134.38,328.61,1134.38,331.26Z" transform="translate(-1122.24 -189.3)"/><path class="cls-17" d="M1160,334.2s1.71-4.56,1.32-5.1-25.63-3.15-25.63-3.15v5.31l21.62.67.09,2Z" transform="translate(-1122.24 -189.3)"/><path class="cls-18" d="M1134.1,330.33c0,2.64,1.21,4.78,2.7,4.78s2.7-2.14,2.7-4.78-1.21-4.79-2.7-4.79S1134.1,327.68,1134.1,330.33Z" transform="translate(-1122.24 -189.3)"/><path class="cls-19" d="M1160.81,329.49l-2.87.84s-22.65-1.43-22.69-2.4,2.64-1.48,2.64-1.48Z" transform="translate(-1122.24 -189.3)"/><path class="cls-20" d="M1157.07,331.45c-.62-.26-19.23-.77-19.23-.77s.1,2.31-1,2.31.54.51,1.29.16,1.17-1.78,1.17-1.78l17.81.36Z" transform="translate(-1122.24 -189.3)"/><path class="cls-21" d="M1135.25,330.61c0,1.09.4,2,.88,2s.88-.88.88-2-.39-2-.88-2S1135.25,329.52,1135.25,330.61Z" transform="translate(-1122.24 -189.3)"/><path class="cls-20" d="M1160.94,330.07c-.14,0-2.73,1-2.73,1v2.16l1.82.26Z" transform="translate(-1122.24 -189.3)"/><polygon class="cls-22" points="8.07 187.78 4.89 27.51 105.98 8.61 106.24 0 0 16.55 8.07 187.78"/></g></g></svg>