<svg xmlns="http://www.w3.org/2000/svg" xmlns:xlink="http://www.w3.org/1999/xlink" viewBox="0 0 379.03 259.77"><defs><style>.cls-1{isolation:isolate;}.cls-10,.cls-12,.cls-13,.cls-14,.cls-15,.cls-16,.cls-17,.cls-18,.cls-19,.cls-2,.cls-20,.cls-21,.cls-22,.cls-26,.cls-27,.cls-28,.cls-29,.cls-3,.cls-30,.cls-31,.cls-32,.cls-34,.cls-35,.cls-36,.cls-39,.cls-4,.cls-41,.cls-43,.cls-5,.cls-6,.cls-7,.cls-8,.cls-9{fill-rule:evenodd;}.cls-2{fill:url(#Áåçûìÿííûé_ãðàäèåíò_65);}.cls-3{fill:#512e18;}.cls-4{fill:#866b18;}.cls-5{fill:url(#Áåçûìÿííûé_ãðàäèåíò_65-2);}.cls-6{fill:url(#Áåçûìÿííûé_ãðàäèåíò_65-3);}.cls-7{fill:url(#Áåçûìÿííûé_ãðàäèåíò_77);}.cls-8{fill:#eca4a5;}.cls-12,.cls-13,.cls-14,.cls-17,.cls-18,.cls-19,.cls-9{opacity:0.5;mix-blend-mode:multiply;}.cls-9{fill:url(#Áåçûìÿííûé_ãðàäèåíò_70);}.cls-10{fill:#ac5c77;}.cls-11{fill:#d67e77;}.cls-12{fill:url(#Áåçûìÿííûé_ãðàäèåíò_53);}.cls-13{fill:url(#Áåçûìÿííûé_ãðàäèåíò_86);}.cls-14{fill:url(#Áåçûìÿííûé_ãðàäèåíò_14);}.cls-15{fill:url(#Áåçûìÿííûé_ãðàäèåíò_98);}.cls-16{fill:url(#Áåçûìÿííûé_ãðàäèåíò_98-2);}.cls-17{fill:url(#Áåçûìÿííûé_ãðàäèåíò_14-2);}.cls-18{fill:url(#Áåçûìÿííûé_ãðàäèåíò_14-3);}.cls-19{fill:#791f13;}.cls-20,.cls-21,.cls-22,.cls-24,.cls-25,.cls-27,.cls-28,.cls-29,.cls-30,.cls-31,.cls-32,.cls-33,.cls-34,.cls-35,.cls-36,.cls-37,.cls-38,.cls-39,.cls-40,.cls-41,.cls-42,.cls-43,.cls-44{opacity:0.61;mix-blend-mode:screen;}.cls-20{fill:url(#Áåçûìÿííûé_ãðàäèåíò_398);}.cls-21{fill:url(#Áåçûìÿííûé_ãðàäèåíò_399);}.cls-22{fill:url(#Áåçûìÿííûé_ãðàäèåíò_400);}.cls-23,.cls-26{fill:#fff;}.cls-24{fill:url(#Áåçûìÿííûé_ãðàäèåíò_398-2);}.cls-25{fill:url(#Áåçûìÿííûé_ãðàäèåíò_398-3);}.cls-27{fill:url(#Áåçûìÿííûé_ãðàäèåíò_398-4);}.cls-28{fill:url(#Áåçûìÿííûé_ãðàäèåíò_398-5);}.cls-29{fill:url(#Áåçûìÿííûé_ãðàäèåíò_398-6);}.cls-30{fill:url(#Áåçûìÿííûé_ãðàäèåíò_398-7);}.cls-31{fill:url(#Áåçûìÿííûé_ãðàäèåíò_398-8);}.cls-32{fill:url(#Áåçûìÿííûé_ãðàäèåíò_398-9);}.cls-33{fill:url(#Áåçûìÿííûé_ãðàäèåíò_398-10);}.cls-34{fill:url(#Áåçûìÿííûé_ãðàäèåíò_398-11);}.cls-35{fill:url(#Áåçûìÿííûé_ãðàäèåíò_398-12);}.cls-36{fill:url(#Áåçûìÿííûé_ãðàäèåíò_398-13);}.cls-37{fill:url(#Áåçûìÿííûé_ãðàäèåíò_398-14);}.cls-38{fill:url(#Áåçûìÿííûé_ãðàäèåíò_398-15);}.cls-39{fill:url(#Áåçûìÿííûé_ãðàäèåíò_398-16);}.cls-40{fill:url(#Áåçûìÿííûé_ãðàäèåíò_398-17);}.cls-41{fill:url(#Áåçûìÿííûé_ãðàäèåíò_398-18);}.cls-42{fill:url(#Áåçûìÿííûé_ãðàäèåíò_398-19);}.cls-43{fill:url(#Áåçûìÿííûé_ãðàäèåíò_398-20);}.cls-44{fill:url(#Áåçûìÿííûé_ãðàäèåíò_398-21);}</style><radialGradient id="Áåçûìÿííûé_ãðàäèåíò_65" cx="197.35" cy="183.3" r="115.79" gradientUnits="userSpaceOnUse"><stop offset="0.02" stop-color="#754a13"/><stop offset="0.99" stop-color="#4f4013"/></radialGradient><radialGradient id="Áåçûìÿííûé_ãðàäèåíò_65-2" cx="261.4" cy="183.01" r="69.69" xlink:href="#Áåçûìÿííûé_ãðàäèåíò_65"/><radialGradient id="Áåçûìÿííûé_ãðàäèåíò_65-3" cx="117.57" cy="177.66" r="61.77" xlink:href="#Áåçûìÿííûé_ãðàäèåíò_65"/><linearGradient id="Áåçûìÿííûé_ãðàäèåíò_77" x1="829.75" y1="546.96" x2="1126.69" y2="546.96" gradientUnits="userSpaceOnUse"><stop offset="0" stop-color="#ffdbd3"/><stop offset="1" stop-color="#ffe2bd"/></linearGradient><linearGradient id="Áåçûìÿííûé_ãðàäèåíò_70" x1="958.98" y1="590.41" x2="958.98" y2="528.26" gradientUnits="userSpaceOnUse"><stop offset="0" stop-color="#7c0037"/><stop offset="1" stop-color="#fff"/></linearGradient><linearGradient id="Áåçûìÿííûé_ãðàäèåíò_53" x1="910.19" y1="555.64" x2="910.19" y2="510.77" gradientUnits="userSpaceOnUse"><stop offset="0" stop-color="#c25683"/><stop offset="1" stop-color="#ffdbc4"/></linearGradient><linearGradient id="Áåçûìÿííûé_ãðàäèåíò_86" x1="971.22" y1="534.55" x2="1094.63" y2="534.55" gradientUnits="userSpaceOnUse"><stop offset="0" stop-color="#c25683"/><stop offset="1" stop-color="#fff"/></linearGradient><radialGradient id="Áåçûìÿííûé_ãðàäèåíò_14" cx="220.75" cy="208.51" r="36.79" gradientUnits="userSpaceOnUse"><stop offset="0" stop-color="#b36d57"/><stop offset="1" stop-color="#7c0037"/></radialGradient><linearGradient id="Áåçûìÿííûé_ãðàäèåíò_98" x1="1012.89" y1="595.29" x2="1012.89" y2="565.84" gradientUnits="userSpaceOnUse"><stop offset="0.02" stop-color="#b81f13"/><stop offset="0.99" stop-color="#b31b36"/></linearGradient><linearGradient id="Áåçûìÿííûé_ãðàäèåíò_98-2" x1="959.37" y1="612.3" x2="959.37" y2="574.73" xlink:href="#Áåçûìÿííûé_ãðàäèåíò_98"/><radialGradient id="Áåçûìÿííûé_ãðàäèåíò_14-2" cx="1022.58" cy="575.72" r="8.07" xlink:href="#Áåçûìÿííûé_ãðàäèåíò_14"/><radialGradient id="Áåçûìÿííûé_ãðàäèåíò_14-3" cx="968.37" cy="584.12" r="7.06" xlink:href="#Áåçûìÿííûé_ãðàäèåíò_14"/><radialGradient id="Áåçûìÿííûé_ãðàäèåíò_398" cx="972.02" cy="546.16" r="143.32" gradientUnits="userSpaceOnUse"><stop offset="0" stop-color="#f0f"/><stop offset="0.5" stop-color="#780078"/><stop offset="0.85" stop-color="#202"/><stop offset="1"/></radialGradient><linearGradient id="Áåçûìÿííûé_ãðàäèåíò_399" x1="130.97" y1="536.48" x2="500.47" y2="536.48" gradientTransform="matrix(-1, 0, 0, 1, 1284.27, 0)" xlink:href="#Áåçûìÿííûé_ãðàäèåíò_398"/><linearGradient id="Áåçûìÿííûé_ãðàäèåíò_400" x1="875.17" y1="542.36" x2="1160.51" y2="542.36" gradientUnits="userSpaceOnUse"><stop offset="0"/><stop offset="0.15" stop-color="#202"/><stop offset="0.5" stop-color="#780078"/><stop offset="1" stop-color="#f0f"/></linearGradient><radialGradient id="Áåçûìÿííûé_ãðàäèåíò_398-2" cx="197.89" cy="13.15" r="13.15" xlink:href="#Áåçûìÿííûé_ãðàäèåíò_398"/><radialGradient id="Áåçûìÿííûé_ãðàäèåíò_398-3" cx="197.89" cy="13.15" r="6.14" xlink:href="#Áåçûìÿííûé_ãðàäèåíò_398"/><radialGradient id="Áåçûìÿííûé_ãðàäèåíò_398-4" cx="1027.92" cy="499.44" r="4.94" xlink:href="#Áåçûìÿííûé_ãðàäèåíò_398"/><radialGradient id="Áåçûìÿííûé_ãðàäèåíò_398-5" cx="1027.92" cy="499.44" r="2.31" xlink:href="#Áåçûìÿííûé_ãðàäèåíò_398"/><radialGradient id="Áåçûìÿííûé_ãðàäèåíò_398-6" cx="1073.95" cy="469.67" r="9.52" xlink:href="#Áåçûìÿííûé_ãðàäèåíò_398"/><radialGradient id="Áåçûìÿííûé_ãðàäèåíò_398-7" cx="1073.95" cy="469.67" r="4.45" xlink:href="#Áåçûìÿííûé_ãðàäèåíò_398"/><radialGradient id="Áåçûìÿííûé_ãðàäèåíò_398-8" cx="994.12" cy="485.58" r="9.52" xlink:href="#Áåçûìÿííûé_ãðàäèåíò_398"/><radialGradient id="Áåçûìÿííûé_ãðàäèåíò_398-9" cx="994.12" cy="485.58" r="4.45" xlink:href="#Áåçûìÿííûé_ãðàäèåíò_398"/><radialGradient id="Áåçûìÿííûé_ãðàäèåíò_398-10" cx="218.82" cy="68.02" r="6.58" xlink:href="#Áåçûìÿííûé_ãðàäèåíò_398"/><radialGradient id="Áåçûìÿííûé_ãðàäèåíò_398-11" cx="1001.34" cy="441.83" r="3.07" xlink:href="#Áåçûìÿííûé_ãðàäèåíò_398"/><radialGradient id="Áåçûìÿííûé_ãðàäèåíò_398-12" cx="1049.39" cy="448.64" r="4.1" xlink:href="#Áåçûìÿííûé_ãðàäèåíò_398"/><radialGradient id="Áåçûìÿííûé_ãðàäèåíò_398-13" cx="1049.39" cy="448.64" r="1.92" xlink:href="#Áåçûìÿííûé_ãðàäèåíò_398"/><radialGradient id="Áåçûìÿííûé_ãðàäèåíò_398-14" cx="222.4" cy="119.77" r="6.04" xlink:href="#Áåçûìÿííûé_ãðàäèåíò_398"/><radialGradient id="Áåçûìÿííûé_ãðàäèåíò_398-15" cx="222.4" cy="119.77" r="2.82" xlink:href="#Áåçûìÿííûé_ãðàäèåíò_398"/><radialGradient id="Áåçûìÿííûé_ãðàäèåíò_398-16" cx="1018.51" cy="497.65" r="4.1" xlink:href="#Áåçûìÿííûé_ãðàäèåíò_398"/><radialGradient id="Áåçûìÿííûé_ãðàäèåíò_398-17" cx="236" cy="123.83" r="1.92" xlink:href="#Áåçûìÿííûé_ãðàäèåíò_398"/><radialGradient id="Áåçûìÿííûé_ãðàäèåíò_398-18" cx="1072.58" cy="414.27" r="4.1" xlink:href="#Áåçûìÿííûé_ãðàäèåíò_398"/><radialGradient id="Áåçûìÿííûé_ãðàäèåíò_398-19" cx="290.07" cy="40.45" r="1.92" xlink:href="#Áåçûìÿííûé_ãðàäèåíò_398"/><radialGradient id="Áåçûìÿííûé_ãðàäèåíò_398-20" cx="1003.3" cy="509.37" r="3.29" xlink:href="#Áåçûìÿííûé_ãðàäèåíò_398"/><radialGradient id="Áåçûìÿííûé_ãðàäèåíò_398-21" cx="220.79" cy="135.56" r="1.54" xlink:href="#Áåçûìÿííûé_ãðàäèåíò_398"/></defs><g class="cls-1"><g id="Capa_9" data-name="Capa 9"><polygon class="cls-2" points="40.29 173.36 140.69 222.49 140.8 229.65 172.24 228.73 172.24 221.24 278.12 204.73 354.4 151.65 213.31 176.59 203.93 183.49 193.47 181.4 194.86 175.67 111.47 136.95 40.29 173.36"/><polygon class="cls-3" points="352.86 146.28 354.4 151.65 278.12 204.73 172.24 221.24 172.24 228.73 140.8 229.65 140.69 222.49 40.29 173.36 40.29 166.36 143.61 218.37 144.04 227.35 169.94 225.5 169.94 219.73 276.38 201.15 352.86 146.28"/><polygon class="cls-3" points="172.24 228.73 222.2 175.5 213.31 176.59 172.24 218.37 172.24 228.73"/><polygon class="cls-4" points="276.38 201.15 278.12 204.73 354.4 151.65 352.86 146.28 276.38 201.15"/><polygon class="cls-5" points="213.31 176.59 352.86 146.28 276.38 201.15 169.94 219.73 213.31 176.59"/><polygon class="cls-6" points="40.29 166.36 111.47 136.95 194.86 175.67 143.61 218.37 40.29 166.36"/><path class="cls-7" d="M1126.69,498.85l-2.24,23.61-70.38,48.64-97.3,18.15-4.32,4.3v5.76c-7-4.95-24.68.24-24.68.24l.47-9.14L829.75,537.3l.17-17.21L903,502.65c25.95,15.23,86.16,22.15,87.89,25.61s-1,11.92-1,11.92,9.69-9.84,14.88-12.61,29.41-8,54.19-14.19c24.37-6.13,66.45-18.63,67.77-19l-21.26,16.8Z" transform="translate(-782.51 -373.82)"/><polygon class="cls-8" points="268.08 173.13 344.16 120.55 326.38 135.07 344.18 125.03 341.94 148.65 271.56 197.29 268.08 173.13"/><path class="cls-9" d="M989.83,540.18l-40.61,36s-6.52,7.18-8.77,14.26c0,0-7.66-11.82-13.9-15.45l64.31-46.7S992.6,531.34,989.83,540.18Z" transform="translate(-782.51 -373.82)"/><path class="cls-10" d="M1054.07,571.1l-97.3,18.15-4.32,4.3v5.76c-7-4.95-24.68.24-24.68.24l.47-9.14L829.75,537.3l.17-17.21C844.61,534.74,918.3,569,926.55,575s13.9,15.45,13.9,15.45,7.85-13.24,14.3-15.45,95.84-28,95.84-28Z" transform="translate(-782.51 -373.82)"/><path class="cls-11" d="M923.33,563.77l-.31-.09c-21.14-6-76.34-39.68-76.89-40l-1.37-.83,58.63-16.07.23.12A277.76,277.76,0,0,0,971.33,530l1.71.29Zm-75.11-40.46c8.64,5.22,55.58,33.28,74.87,39l46.34-31.21a283.94,283.94,0,0,1-66.19-22.81Z" transform="translate(-782.51 -373.82)"/><path class="cls-12" d="M861.4,524.22v4L914,555.64h12.51L959,535.22v-4.54s-30.4-7.3-55.32-19.91l-6,.39Z" transform="translate(-782.51 -373.82)"/><path class="cls-13" d="M971.22,563l36.6-34.75,86.81-22.17-45.42,34.08S987.38,555,971.22,563Z" transform="translate(-782.51 -373.82)"/><polygon class="cls-14" points="271.56 197.29 260.83 203.86 169.94 219.74 174.26 215.43 271.56 197.29"/><path class="cls-15" d="M1009.83,569.78s-6.5,7.26-12.34,22.44l3.56,3.07,13.57-3.07s5.79-19.77,13.67-26.38Z" transform="translate(-782.51 -373.82)"/><path class="cls-16" d="M957.42,578.86s-8.67,11.95-10.43,25.78l4.27,7.66,10.43-7s6.47-24.63,10.06-30.54Z" transform="translate(-782.51 -373.82)"/><path class="cls-17" d="M1028.29,565.84l-.93,10.24-2.84,4.89,1.42,3-9.06,1.64S1020.73,572.28,1028.29,565.84Z" transform="translate(-782.51 -373.82)"/><path class="cls-18" d="M971.75,574.73v11.73l-3.43,4.29v2.19l-3.33.57S968.33,580.59,971.75,574.73Z" transform="translate(-782.51 -373.82)"/><polygon class="cls-19" points="122.04 211.46 81.64 248.49 81.64 256 71.06 259.77 198.2 259.77 208.89 254.9 208.89 246.22 250.41 238.49 331.29 189.2 122.04 211.46"/><path class="cls-20" d="M997.05,517.67c-22.31.92-87.27-36.91-117.09-37s-45.49,45.55-72.8,51.2-33.42,29.95-10.75,40.87c21.13,10.18,82.91,9.09,103.68,24.11s37.65,22.59,54.66,21,15.58-19.48,29.16-22.54,8,16.55,50.65,10.07,123.51-56.05,126.32-82.58-1.83-57.69-43.76-45.94S1046.17,515.64,997.05,517.67Z" transform="translate(-782.51 -373.82)"/><path class="cls-21" d="M938.77,504.24c22.3.92,87.27-36.91,117.08-37s45.49,45.55,72.81,51.19,33.41,30,10.75,40.87c-21.13,10.18-82.92,9.1-103.68,24.11s-37.65,22.59-54.67,21-15.57-19.48-29.16-22.54-18.62,35.07-61.28,28.6-80.18-34.37-91.84-58.35c-22.88-47-22-100.45,19.91-88.7S889.64,502.21,938.77,504.24Z" transform="translate(-782.51 -373.82)"/><path class="cls-22" d="M895.78,520.09c48.1,3.24,98.88-25.45,134-23.53s51.91,3.8,74.29-1.48,34.75-14.37,50.39-4.17,0,55.83-38.45,64.73-51.28,40.45-88.7,42.66-38.69-21.95-66.14-12.7-65.2,8-81.47-3.27S895.78,520.09,895.78,520.09Z" transform="translate(-782.51 -373.82)"/><path class="cls-23" d="M1126.67,494.36l-17.78,14.52,17.8-10-2.24,23.61h0l10.93-2.38,1.54,5.38-76.28,53.08L1025.94,584l-9.06,1.64c-1.44,3.83-2.25,6.62-2.25,6.62l-13.58,3.07-3.56-3.07c.56-1.44,1.12-2.79,1.68-4.09l-30.85,4.81-3.33.57h0c-1.88,6.36-3.3,11.77-3.3,11.77l-10.43,7L947,604.64c.08-.63.19-1.25.29-1.88l-24,.7-.1-7.16L822.8,547.18v-7l7-2.87h0l.17-17.21L903,502.65c25.95,15.23,86.16,22.15,87.89,25.61,0,0,.07.15.15.37a12.74,12.74,0,0,1,.15,5.92l0,.15c-.11.73-.25,1.43-.4,2.08,0,.2-.08.39-.13.6-.39,1.64-.77,2.8-.77,2.8s9.69-9.84,14.88-12.61,29.41-8,54.19-14.19c24.37-6.13,66.45-18.63,67.77-19Zm0-2.42a2.35,2.35,0,0,0-.69.1l-.33.1c-10.31,3.05-45.64,13.43-67.34,18.89-7.32,1.84-14.44,3.55-21.33,5.21-17.12,4.12-29.48,7.1-33.41,9.19-2.78,1.48-6.62,4.72-9.78,7.6a12,12,0,0,0-.52-5.27c-.09-.27-.19-.49-.19-.49-1.11-2.22-4.33-3-21.94-6.68-20.18-4.17-50.66-10.47-66.94-20a2.44,2.44,0,0,0-1.23-.33,2.1,2.1,0,0,0-.56.07l-73,17.44a2.42,2.42,0,0,0-1.86,2.33l-.16,15.61-5.46,2.25a2.43,2.43,0,0,0-1.5,2.24v7a2.41,2.41,0,0,0,1.36,2.18l99.06,48.47.09,5.67a2.42,2.42,0,0,0,2.42,2.39h.08l21.25-.62a2.91,2.91,0,0,0,.23.55l4.27,7.66a2.42,2.42,0,0,0,1.56,1.18,2.1,2.1,0,0,0,.56.07,2.34,2.34,0,0,0,1.35-.42l10.44-7a2.48,2.48,0,0,0,1-1.4s1.21-4.63,2.85-10.23l1.84-.32,26.56-4.14-.06.16a2.42,2.42,0,0,0,.68,2.71l3.56,3.07a2.41,2.41,0,0,0,1.58.58,2.33,2.33,0,0,0,.53-.06l13.58-3.06a2.43,2.43,0,0,0,1.79-1.69s.63-2.14,1.72-5.16l7.7-1.4,34.63-5.4a2.29,2.29,0,0,0,1-.4l76.29-53.08a2.42,2.42,0,0,0,.94-2.66l-1.53-5.37a2.43,2.43,0,0,0-2.33-1.76,2.31,2.31,0,0,0-.52.06l-7.68,1.66,1.93-20.31a2.44,2.44,0,0,0-1.09-2.26,1.59,1.59,0,0,0-.31-.17l.49-.41a2.42,2.42,0,0,0-1.53-4.3Z" transform="translate(-782.51 -373.82)"/><circle class="cls-23" cx="197.89" cy="13.15" r="3.27"/><circle class="cls-24" cx="197.89" cy="13.15" r="13.15"/><circle class="cls-25" cx="197.89" cy="13.15" r="6.14"/><path class="cls-26" d="M1029.15,499.44a1.23,1.23,0,1,1-1.23-1.23A1.23,1.23,0,0,1,1029.15,499.44Z" transform="translate(-782.51 -373.82)"/><path class="cls-27" d="M1032.87,499.44a4.95,4.95,0,1,1-4.95-4.95A4.95,4.95,0,0,1,1032.87,499.44Z" transform="translate(-782.51 -373.82)"/><path class="cls-28" d="M1030.23,499.44a2.31,2.31,0,1,1-2.31-2.31A2.3,2.3,0,0,1,1030.23,499.44Z" transform="translate(-782.51 -373.82)"/><path class="cls-26" d="M1076.32,469.67a2.37,2.37,0,1,1-2.37-2.36A2.37,2.37,0,0,1,1076.32,469.67Z" transform="translate(-782.51 -373.82)"/><path class="cls-29" d="M1083.47,469.67a9.52,9.52,0,1,1-9.52-9.52A9.53,9.53,0,0,1,1083.47,469.67Z" transform="translate(-782.51 -373.82)"/><path class="cls-30" d="M1078.4,469.67a4.45,4.45,0,1,1-4.45-4.44A4.45,4.45,0,0,1,1078.4,469.67Z" transform="translate(-782.51 -373.82)"/><circle class="cls-23" cx="211.61" cy="111.76" r="2.36"/><path class="cls-31" d="M1003.64,485.58a9.52,9.52,0,1,1-9.52-9.52A9.52,9.52,0,0,1,1003.64,485.58Z" transform="translate(-782.51 -373.82)"/><path class="cls-32" d="M998.57,485.58a4.45,4.45,0,1,1-4.45-4.45A4.44,4.44,0,0,1,998.57,485.58Z" transform="translate(-782.51 -373.82)"/><path class="cls-26" d="M1003,441.83a1.64,1.64,0,1,1-1.63-1.63A1.64,1.64,0,0,1,1003,441.83Z" transform="translate(-782.51 -373.82)"/><circle class="cls-33" cx="218.82" cy="68.02" r="6.58"/><path class="cls-34" d="M1004.41,441.83a3.08,3.08,0,1,1-3.07-3.07A3.07,3.07,0,0,1,1004.41,441.83Z" transform="translate(-782.51 -373.82)"/><path class="cls-26" d="M1050.41,448.64a1,1,0,1,1-1-1A1,1,0,0,1,1050.41,448.64Z" transform="translate(-782.51 -373.82)"/><path class="cls-35" d="M1053.5,448.64a4.11,4.11,0,1,1-4.11-4.11A4.11,4.11,0,0,1,1053.5,448.64Z" transform="translate(-782.51 -373.82)"/><path class="cls-36" d="M1051.31,448.64a1.92,1.92,0,1,1-1.92-1.92A1.92,1.92,0,0,1,1051.31,448.64Z" transform="translate(-782.51 -373.82)"/><circle class="cls-23" cx="222.4" cy="119.77" r="1.5"/><circle class="cls-37" cx="222.4" cy="119.77" r="6.04"/><circle class="cls-38" cx="222.4" cy="119.77" r="2.82"/><circle class="cls-23" cx="236" cy="123.83" r="1.02"/><path class="cls-39" d="M1022.62,497.65a4.11,4.11,0,1,1-4.11-4.11A4.11,4.11,0,0,1,1022.62,497.65Z" transform="translate(-782.51 -373.82)"/><circle class="cls-40" cx="236" cy="123.83" r="1.92"/><circle class="cls-23" cx="290.07" cy="40.45" r="1.02"/><path class="cls-41" d="M1076.69,414.27a4.11,4.11,0,1,1-4.11-4.11A4.11,4.11,0,0,1,1076.69,414.27Z" transform="translate(-782.51 -373.82)"/><circle class="cls-42" cx="290.07" cy="40.45" r="1.92"/><circle class="cls-23" cx="220.79" cy="135.56" r="0.82"/><path class="cls-43" d="M1006.59,509.37a3.29,3.29,0,1,1-3.29-3.28A3.29,3.29,0,0,1,1006.59,509.37Z" transform="translate(-782.51 -373.82)"/><circle class="cls-44" cx="220.79" cy="135.56" r="1.54"/></g></g></svg>