<svg id="Capa_2" data-name="Capa 2" xmlns="http://www.w3.org/2000/svg" xmlns:xlink="http://www.w3.org/1999/xlink" viewBox="0 0 704.59 672.58"><defs><style>.cls-1{opacity:0.49;fill:url(#Degradado_sin_nombre_22);}.cls-1,.cls-3,.cls-9{isolation:isolate;}.cls-2{fill:#80809e;}.cls-3{fill:#1cafaf;opacity:0.23;}.cls-4{fill:url(#Degradado_sin_nombre_23);}.cls-5{fill:url(#Degradado_sin_nombre_23-2);}.cls-6{fill:url(#Degradado_sin_nombre_23-3);}.cls-7{fill:url(#Degradado_sin_nombre_23-4);}.cls-8{fill:url(#Degradado_sin_nombre_23-5);}.cls-9{opacity:0.79;fill:url(#Degradado_sin_nombre_28);}.cls-10{fill:url(#Degradado_sin_nombre_23-6);}.cls-11{fill:url(#Degradado_sin_nombre_23-7);}.cls-12{fill:url(#Degradado_sin_nombre_23-8);}</style><linearGradient id="Degradado_sin_nombre_22" x1="1300.06" y1="556.33" x2="400.82" y2="483.15" gradientTransform="matrix(1, 0, 0, -1, -478.32, 807.88)" gradientUnits="userSpaceOnUse"><stop offset="0" stop-color="#17fbff"/><stop offset="1" stop-color="#fffeb9"/></linearGradient><linearGradient id="Degradado_sin_nombre_23" x1="701.43" y1="316.9" x2="901.79" y2="729.79" gradientTransform="matrix(1, 0, 0, -1, -478.32, 807.88)" gradientUnits="userSpaceOnUse"><stop offset="0" stop-color="#80809e"/><stop offset="1" stop-color="#616daa"/></linearGradient><linearGradient id="Degradado_sin_nombre_23-2" x1="749.47" y1="293.62" x2="949.78" y2="706.51" xlink:href="#Degradado_sin_nombre_23"/><linearGradient id="Degradado_sin_nombre_23-3" x1="787.6" y1="275.1" x2="987.92" y2="688.03" xlink:href="#Degradado_sin_nombre_23"/><linearGradient id="Degradado_sin_nombre_23-4" x1="823.75" y1="257.55" x2="1024.07" y2="670.48" xlink:href="#Degradado_sin_nombre_23"/><linearGradient id="Degradado_sin_nombre_23-5" x1="871.8" y1="234.24" x2="1072.16" y2="647.17" xlink:href="#Degradado_sin_nombre_23"/><linearGradient id="Degradado_sin_nombre_28" x1="505.56" y1="413.63" x2="1053.37" y2="614.97" gradientTransform="matrix(1, 0, 0, -1, -478.32, 807.88)" gradientUnits="userSpaceOnUse"><stop offset="0" stop-color="#c7ec7c"/><stop offset="1"/></linearGradient><linearGradient id="Degradado_sin_nombre_23-6" x1="909.96" y1="215.75" x2="1110.28" y2="628.64" xlink:href="#Degradado_sin_nombre_23"/><linearGradient id="Degradado_sin_nombre_23-7" x1="948.66" y1="221.59" x2="1127.23" y2="589.64" xlink:href="#Degradado_sin_nombre_23"/><linearGradient id="Degradado_sin_nombre_23-8" x1="993.57" y1="277.46" x2="1128.85" y2="556.29" xlink:href="#Degradado_sin_nombre_23"/></defs><polygon class="cls-1" points="704.59 0 704.59 211.68 603.8 207.44 500.44 272.11 491.97 277.49 197.34 461.96 189.89 466.6 22.97 571.14 12.34 577.78 11.12 578.59 0 405.56 617.73 8.47 704.59 0"/><polygon class="cls-2" points="704.59 0 704.59 15.35 617.73 22.8 493.56 102.01 483.63 108.32 197.34 290.93 184.23 299.35 14.42 407.68 22.97 571.14 25.61 620.78 15.43 620.78 12.34 577.78 0 405.56 617.73 8.47 704.59 0"/><polygon class="cls-3" points="36.9 545.04 581.65 199.58 581.65 101.48 41.98 489.86 36.9 545.04"/><polygon class="cls-2" points="184.07 294.35 192.25 533.96 197.34 533.96 197.34 289.42 184.07 294.35"/><polygon class="cls-2" points="483.63 108.36 494.74 333.4 502.93 333.4 493.28 93.54 483.63 108.36"/><polygon class="cls-4" points="16.09 671.07 5.54 621.35 294.92 624.37 289.3 672.58 16.09 671.07"/><polygon class="cls-5" points="98.96 622.57 88.41 572.85 377.79 575.9 372.17 624.12 98.96 622.57"/><polygon class="cls-6" points="168.76 575.82 158.21 526.1 447.59 529.15 441.97 577.37 168.76 575.82"/><polygon class="cls-7" points="237.13 527 226.58 477.27 515.96 480.33 510.3 528.54 237.13 527"/><polygon class="cls-8" points="320 478.54 309.45 428.81 598.83 431.83 593.17 480.08 320 478.54"/><polygon class="cls-9" points="43 446.94 43 407.68 328.19 225.16 328.19 238.15 43 446.94"/><polygon class="cls-10" points="389.8 431.79 379.25 382.06 668.63 385.08 663.01 433.29 389.8 431.79"/><polygon class="cls-11" points="704.59 336 704.59 384.43 492.06 383.24 467.3 383.08 467.3 383 456.75 333.36 550.09 334.34 610.6 334.99 704.59 336"/><polygon class="cls-12" points="704.59 286.69 704.59 335.52 610.6 334.99 550.17 334.66 550.09 334.34 539.58 284.94 619.48 285.71 704.59 286.69"/></svg>