<svg xmlns="http://www.w3.org/2000/svg" xmlns:xlink="http://www.w3.org/1999/xlink" viewBox="0 0 272.39 214.69"><defs><style>.cls-1{isolation:isolate;}.cls-2{fill:#eacab9;}.cls-13,.cls-2,.cls-9{mix-blend-mode:multiply;}.cls-3{fill:#0b707f;}.cls-4{fill:#86231c;}.cls-5{fill:#e8681a;}.cls-6{fill:#d15a10;}.cls-10,.cls-11,.cls-12,.cls-7{mix-blend-mode:screen;}.cls-7{fill:url(#Áåçûìÿííûé_ãðàäèåíò_152);}.cls-8{fill:#052c47;}.cls-9{fill:#d38457;}.cls-10{fill:url(#Áåçûìÿííûé_ãðàäèåíò_152-2);}.cls-11{fill:url(#Áåçûìÿííûé_ãðàäèåíò_151);}.cls-12{fill:url(#Áåçûìÿííûé_ãðàäèåíò_151-2);}.cls-13{fill:url(#Áåçûìÿííûé_ãðàäèåíò_150);}.cls-14{fill:#fffcd5;}</style><linearGradient id="Áåçûìÿííûé_ãðàäèåíò_152" x1="-156.66" y1="74.28" x2="-145.84" y2="126.99" gradientTransform="matrix(-1, 0, 0, 1, -78.39, -91.92)" gradientUnits="userSpaceOnUse"><stop offset="0" stop-color="#345531"/><stop offset="1"/></linearGradient><linearGradient id="Áåçûìÿííûé_ãðàäèåíò_152-2" x1="43.12" y1="33.54" x2="93.8" y2="124.91" gradientTransform="matrix(1, 0, 0, 1, 0, 0)" xlink:href="#Áåçûìÿííûé_ãðàäèåíò_152"/><linearGradient id="Áåçûìÿííûé_ãðàäèåíò_151" x1="7.56" y1="49.73" x2="20.14" y2="188.08" gradientUnits="userSpaceOnUse"><stop offset="0" stop-color="#135239"/><stop offset="1"/></linearGradient><linearGradient id="Áåçûìÿííûé_ãðàäèåíò_151-2" x1="213.57" y1="68.99" x2="212.73" y2="153.89" xlink:href="#Áåçûìÿííûé_ãðàäèåíò_151"/><linearGradient id="Áåçûìÿííûé_ãðàäèåíò_150" x1="125.85" y1="100.99" x2="125.85" y2="206.51" gradientUnits="userSpaceOnUse"><stop offset="0" stop-color="#d5a98f"/><stop offset="1" stop-color="#fff"/></linearGradient></defs><g class="cls-1"><g id="Capa_2" data-name="Capa 2"><polygon class="cls-2" points="4.64 157.61 35.5 151.94 272.38 151.94 258.52 157.27 4.64 157.61"/><polygon class="cls-3" points="90.34 0 102.83 88.06 103.94 153.39 101.58 153.39 99.5 89.69 85.67 0 90.34 0"/><polygon class="cls-3" points="39.88 0 52.36 88.06 53.47 153.39 51.11 153.39 49.03 89.69 35.21 0 39.88 0"/><polygon class="cls-4" points="33.55 2.72 31.19 3.4 36.67 30.8 96.49 30.8 98.05 29.52 33.55 2.72"/><polygon class="cls-5" points="33.55 2.72 33.87 4.36 35.78 13.8 36.18 15.81 38.93 29.51 98.05 29.51 97.74 17.39 97.72 16.8 97.56 10.33 97.55 9.99 97.37 2.72 33.55 2.72"/><polygon class="cls-3" points="125.11 88.88 120.75 153.39 118.39 153.39 121.78 88.88 125.11 88.88"/><polygon class="cls-3" points="72.53 88.88 68.16 153.39 65.8 153.39 69.19 88.88 72.53 88.88"/><path class="cls-6" d="M470.28,105.73l.4,2c1.18.29,2.38.54,3.57.77,10.14,1.9,20.89-.11,30.56-3.24,5.22-1.7,10.24-4.21,15.8-4.43a40,40,0,0,1,11.45,1.42v-.35a40.3,40.3,0,0,0-12.69-1.8c-5.28.24-10.1,2.58-15.09,4.12a78.56,78.56,0,0,1-15.61,3.29,50.25,50.25,0,0,1-16.34-1.27Z" transform="translate(-434.5 -91.92)"/><path class="cls-6" d="M497.6,121.44h1.52c3.74-4.89,9.85-7.66,16-9.28,3.51-.94,7.14-1.71,10.73-2.31a28.64,28.64,0,0,1,6.43-.54v-.59a19.59,19.59,0,0,0-4.46,0,87.69,87.69,0,0,0-8.75,1.45,54.66,54.66,0,0,0-10.3,2.92A24.75,24.75,0,0,0,497.6,121.44Z" transform="translate(-434.5 -91.92)"/><path class="cls-6" d="M468.05,94.64l.33,1.64c1,.43,2,.82,3.05,1.18a43.7,43.7,0,0,0,11.62,2.5,18.92,18.92,0,0,0,11-2.29,18,18,0,0,0,4.16-3h-1.82l-.29.2A22,22,0,0,1,492.23,97a20.64,20.64,0,0,1-10.1,1.09,42.44,42.44,0,0,1-10.4-2.56c-.68-.26-1.34-.54-2-.85Z" transform="translate(-434.5 -91.92)"/><polygon class="cls-7" points="88.38 2.72 78.39 29.51 60.63 29.51 59.8 2.72 88.38 2.72"/><polygon class="cls-4" points="251.08 46.07 250.23 51.91 243.88 51.91 223.8 51.91 224.24 46.07 251.08 46.07"/><polygon class="cls-8" points="243.88 51.91 243.39 57.21 243.38 57.21 240.17 57.21 238.32 57.21 221.62 57.21 218.41 57.21 218.99 51.91 223.8 51.91 243.88 51.91"/><polygon class="cls-4" points="238.32 57.21 234.96 119.62 231.82 119.62 217.67 119.62 217.66 119.62 221.62 57.21 238.32 57.21"/><polygon class="cls-8" points="238.32 57.21 240.17 57.21 235.61 155.78 230.67 155.78 231.82 119.62 234.96 119.62 238.32 57.21"/><polygon class="cls-8" points="235.61 155.78 240.17 57.21 243.38 57.21 237.4 155.78 236.22 155.78 235.61 155.78"/><polygon class="cls-8" points="33.45 58.28 29.2 58.4 27.49 154.78 31.55 154.67 32.04 154.66 33.02 154.63 36.09 58.21 33.45 58.28"/><polygon class="cls-5" points="224.24 46.07 223.8 51.91 218.99 51.91 7.53 51.91 1.47 51.91 0.63 46.07 224.24 46.07"/><polygon class="cls-8" points="218.41 57.21 221.62 57.21 217.66 119.62 215.63 155.78 214.45 155.78 213.85 155.78 218.41 57.21"/><polygon class="cls-5" points="212.27 57.21 212 64.84 211.96 65.96 211.76 71.52 211.72 72.69 211.22 87.04 211.15 88.81 210.65 102.74 210.62 103.75 210.04 119.94 166.96 119.42 164.18 119.39 131.43 118.99 129.98 118.98 117.68 118.82 115.39 118.8 19.63 117.64 18.23 117.62 17.3 90.27 17.27 89.47 17.04 82.49 17.01 81.88 16.56 68.35 16.54 67.88 16.18 57.21 212.27 57.21"/><path class="cls-6" d="M572.75,155.86c-14.75,2.52-28.36,9.5-43.21,11.49-26.31,1.28-52.13-8.29-78.5-7.54l0,.46c24.69-.42,48.87,7.71,73.5,8.33,22.5-1.37,42.89-14.15,65.77-14,18.72.59,37.41,2.3,56.13,3.27l0-1.12C621.84,155.5,597.1,151.58,572.75,155.86Zm36.8,49.1c-.84,1.08-7.46,4.21-10.87,6.35l2.78,0c6.14-3.25,11.67-7.59,17.94-10.63,7.59-4,16.85-4.46,25.72-5l0-1C632.56,195.64,620,196.69,609.55,205Zm-5.32-20.37c-16.31,1.61-59.83,8-39.75,26.31h1.45a24.28,24.28,0,0,1-6-9.22c9.94-18.95,59.48-14.66,79.2-19.68.82-.23,3.28-.68,6.54-1.27l.07-1.78C632,181.67,618.05,183.24,604.23,184.59Zm-119.68,3.54c-10.65-3.29-21.78-7.08-32.77-6.73l0,.79c14.36.06,28.67,6.75,43.05,9,17.47,3.56,35.71,6.91,51.19,16.18a28.65,28.65,0,0,1,3.85,3.39l2.29,0C533.32,195.66,507.77,192.91,484.55,188.13Zm68.63-6.68c-16.18,2.92-32.88,2.43-49.19,1-17.29-.86-33.42-8.41-50.73-8.59l-1.74,0,0,.61c3.3.12,6.58.31,9.85.7,20.19,4.28,40.1,10.15,61,9.66,33,2.49,62.54-14.64,94.9-17.6,9.63-.8,19.28-1.72,28.92-2.56l0-1.16C614.28,164.11,583.5,171.87,553.18,181.45Z" transform="translate(-434.5 -91.92)"/><polygon class="cls-3" points="7.53 51.91 12.67 155.78 17.07 155.78 14.24 57.21 16.18 57.21 212.27 57.21 210.04 119.95 208.91 155.78 213.85 155.78 218.99 51.91 7.53 51.91"/><polygon class="cls-8" points="18.23 117.62 19.64 117.64 19.13 155.78 17.44 155.78 17.07 155.78 14.24 57.21 16.18 57.21 18.23 117.62"/><polygon class="cls-9" points="7.53 51.91 7.88 58.83 218.07 69.65 218.99 51.91 7.53 51.91"/><polygon class="cls-10" points="29.14 61.99 68.31 118.23 113.26 118.78 91.05 66.31 29.14 61.99"/><polygon class="cls-11" points="8.93 60.78 13.37 155.37 15.78 155.37 12.35 60.78 8.93 60.78"/><polygon class="cls-12" points="213.13 70.75 209.94 155.78 212.27 155.78 216.32 71.52 213.13 70.75"/><polygon class="cls-13" points="224.24 214.69 0.63 214.69 1.47 211.56 7.53 211.56 7.53 211.56 12.67 155.78 17.07 155.78 17.07 155.78 17.44 155.78 19.13 155.78 19.64 176.26 18.52 176.27 19.63 176.26 28.15 176.21 27.49 156.32 31.55 156.38 32.04 156.39 33.02 156.4 34.19 176.17 68.31 175.95 82.1 175.86 115.39 175.64 117.68 175.63 129.98 175.55 131.43 175.54 164.18 175.32 166.96 175.31 210.04 175.03 210.04 175.02 208.91 155.78 209.94 155.78 209.94 155.78 212.27 155.78 213.85 155.78 213.85 155.78 213.85 155.78 214.45 155.78 215.63 155.78 217.66 175.2 217.67 175.2 231.82 175.2 230.67 155.78 235.61 155.78 236.22 155.78 237.4 155.78 243.38 208.71 243.39 208.71 243.88 211.56 250.23 211.56 251.08 214.69 224.24 214.69"/><path class="cls-14" d="M445.45,212.88l-2.16-34.5c-.39-5.75-.69-11.5-1-17.26l-.85-17.26.54.52H435.5l-.06-.47-.85-5.83-.09-.63H638.62c5.22,0,10.44,0,15.65.07l31.31.4h.09l0,.09-.92,5.82.77-5.84.08.08-31.31.41c-5.21.1-10.43.06-15.65.06H435.13l.54-.62.84,5.84-.53-.47h6.57l0,.52.86,17.26c.3,5.75.58,11.51.76,17.26Z" transform="translate(-434.5 -91.92)"/></g></g></svg>