<svg xmlns="http://www.w3.org/2000/svg" xmlns:xlink="http://www.w3.org/1999/xlink" viewBox="0 0 180.82 213.74"><defs><style>.cls-1{mask:url(#mask);}.cls-10,.cls-12,.cls-14,.cls-16,.cls-18,.cls-2,.cls-20,.cls-22,.cls-31,.cls-34,.cls-4,.cls-6,.cls-8{mix-blend-mode:multiply;}.cls-2{fill:url(#Áåçûìÿííûé_ãðàäèåíò_10);}.cls-3{mask:url(#mask-2);}.cls-4{fill:url(#Áåçûìÿííûé_ãðàäèåíò_10-2);}.cls-5{mask:url(#mask-3);}.cls-6{fill:url(#Áåçûìÿííûé_ãðàäèåíò_10-3);}.cls-7{mask:url(#mask-4);}.cls-8{fill:url(#Áåçûìÿííûé_ãðàäèåíò_10-4);}.cls-9{mask:url(#mask-5);}.cls-10{fill:url(#Áåçûìÿííûé_ãðàäèåíò_10-5);}.cls-11{mask:url(#mask-6);}.cls-12{fill:url(#Áåçûìÿííûé_ãðàäèåíò_10-6);}.cls-13{mask:url(#mask-7);}.cls-14{fill:url(#Áåçûìÿííûé_ãðàäèåíò_10-7);}.cls-15{mask:url(#mask-8);}.cls-16{fill:url(#Áåçûìÿííûé_ãðàäèåíò_10-8);}.cls-17{mask:url(#mask-9);}.cls-18{fill:url(#Áåçûìÿííûé_ãðàäèåíò_10-9);}.cls-19{mask:url(#mask-10);}.cls-20{fill:url(#Áåçûìÿííûé_ãðàäèåíò_10-10);}.cls-21{mask:url(#mask-11);}.cls-22{fill:url(#Áåçûìÿííûé_ãðàäèåíò_10-11);}.cls-23{isolation:isolate;}.cls-24{fill:url(#Áåçûìÿííûé_ãðàäèåíò_2);}.cls-25{mask:url(#mask-12);}.cls-26{opacity:0.7;fill:url(#Áåçûìÿííûé_ãðàäèåíò_127);}.cls-26,.cls-30,.cls-33,.cls-43,.cls-46,.cls-48,.cls-50,.cls-58,.cls-60,.cls-62,.cls-64{mix-blend-mode:overlay;}.cls-27{fill:#38575c;}.cls-28{fill:url(#Áåçûìÿííûé_ãðàäèåíò_2-2);}.cls-29{mask:url(#mask-13);}.cls-30,.cls-34{opacity:0.6;}.cls-30{fill:url(#Áåçûìÿííûé_ãðàäèåíò_127-2);}.cls-31,.cls-34{fill:#1d4078;}.cls-31{opacity:0.2;}.cls-32{mask:url(#mask-14);}.cls-33{opacity:0.75;fill:url(#Áåçûìÿííûé_ãðàäèåíò_127-3);}.cls-35{fill:url(#Áåçûìÿííûé_ãðàäèåíò_3);}.cls-36{fill:url(#Áåçûìÿííûé_ãðàäèåíò_194);}.cls-37{fill:url(#Áåçûìÿííûé_ãðàäèåíò_222);}.cls-38{fill:#feaa0f;}.cls-39{fill:url(#Áåçûìÿííûé_ãðàäèåíò_222-2);}.cls-40{fill:url(#Áåçûìÿííûé_ãðàäèåíò_134);}.cls-41{fill:url(#Áåçûìÿííûé_ãðàäèåíò_134-2);}.cls-42{mask:url(#mask-15);}.cls-43{fill:url(#Áåçûìÿííûé_ãðàäèåíò_127-4);}.cls-44{fill:#eb690c;}.cls-45{mask:url(#mask-16);}.cls-46{fill:url(#Áåçûìÿííûé_ãðàäèåíò_127-5);}.cls-47{mask:url(#mask-17);}.cls-48{fill:url(#Áåçûìÿííûé_ãðàäèåíò_127-6);}.cls-49{mask:url(#mask-18);}.cls-50{fill:url(#Áåçûìÿííûé_ãðàäèåíò_127-7);}.cls-51{fill:url(#Áåçûìÿííûé_ãðàäèåíò_3-2);}.cls-52{fill:url(#Áåçûìÿííûé_ãðàäèåíò_194-2);}.cls-53{fill:url(#Áåçûìÿííûé_ãðàäèåíò_222-3);}.cls-54{fill:url(#Áåçûìÿííûé_ãðàäèåíò_222-4);}.cls-55{fill:url(#Áåçûìÿííûé_ãðàäèåíò_134-3);}.cls-56{fill:url(#Áåçûìÿííûé_ãðàäèåíò_134-4);}.cls-57{mask:url(#mask-19);}.cls-58{fill:url(#Áåçûìÿííûé_ãðàäèåíò_127-8);}.cls-59{mask:url(#mask-20);}.cls-60{fill:url(#Áåçûìÿííûé_ãðàäèåíò_127-9);}.cls-61{mask:url(#mask-21);}.cls-62{fill:url(#Áåçûìÿííûé_ãðàäèåíò_127-10);}.cls-63{mask:url(#mask-22);}.cls-64{fill:url(#Áåçûìÿííûé_ãðàäèåíò_127-11);}.cls-65{filter:url(#luminosity-noclip-22);}.cls-66{filter:url(#luminosity-noclip-21);}.cls-67{filter:url(#luminosity-noclip-20);}.cls-68{filter:url(#luminosity-noclip-19);}.cls-69{filter:url(#luminosity-noclip-18);}.cls-70{filter:url(#luminosity-noclip-17);}.cls-71{filter:url(#luminosity-noclip-16);}.cls-72{filter:url(#luminosity-noclip-15);}.cls-73{filter:url(#luminosity-noclip-14);}.cls-74{filter:url(#luminosity-noclip-13);}.cls-75{filter:url(#luminosity-noclip-12);}.cls-76{filter:url(#luminosity-noclip-11);}.cls-77{filter:url(#luminosity-noclip-10);}.cls-78{filter:url(#luminosity-noclip-9);}.cls-79{filter:url(#luminosity-noclip-8);}.cls-80{filter:url(#luminosity-noclip-7);}.cls-81{filter:url(#luminosity-noclip-6);}.cls-82{filter:url(#luminosity-noclip-5);}.cls-83{filter:url(#luminosity-noclip-4);}.cls-84{filter:url(#luminosity-noclip-3);}.cls-85{filter:url(#luminosity-noclip-2);}.cls-86{filter:url(#luminosity-noclip);}</style><filter id="luminosity-noclip" x="265.79" y="-8392" width="53.79" height="32766" filterUnits="userSpaceOnUse" color-interpolation-filters="sRGB"><feFlood flood-color="#fff" result="bg"/><feBlend in="SourceGraphic" in2="bg"/></filter><mask id="mask" x="265.79" y="-8392" width="53.79" height="32766" maskUnits="userSpaceOnUse"><g class="cls-86"/></mask><linearGradient id="Áåçûìÿííûé_ãðàäèåíò_10" x1="281.95" y1="89.87" x2="304.9" y2="239.65" gradientUnits="userSpaceOnUse"><stop offset="0" stop-color="#fff"/><stop offset="0.11" stop-color="#fafafa"/><stop offset="0.24" stop-color="#ececec"/><stop offset="0.38" stop-color="#d4d4d4"/><stop offset="0.53" stop-color="#b2b2b2"/><stop offset="0.69" stop-color="#878787"/><stop offset="0.85" stop-color="#545454"/><stop offset="1" stop-color="#1a1a1a"/></linearGradient><filter id="luminosity-noclip-2" x="397.36" y="-8392" width="10.39" height="32766" filterUnits="userSpaceOnUse" color-interpolation-filters="sRGB"><feFlood flood-color="#fff" result="bg"/><feBlend in="SourceGraphic" in2="bg"/></filter><mask id="mask-2" x="397.36" y="-8392" width="10.39" height="32766" maskUnits="userSpaceOnUse"><g class="cls-85"/></mask><linearGradient id="Áåçûìÿííûé_ãðàäèåíò_10-2" x1="-277.34" y1="-119.59" x2="-272.27" y2="-119.59" gradientTransform="matrix(-0.81, -0.58, -0.58, 0.81, 111.3, 42.65)" xlink:href="#Áåçûìÿííûé_ãðàäèåíò_10"/><filter id="luminosity-noclip-3" x="280.61" y="-8392" width="53.66" height="32766" filterUnits="userSpaceOnUse" color-interpolation-filters="sRGB"><feFlood flood-color="#fff" result="bg"/><feBlend in="SourceGraphic" in2="bg"/></filter><mask id="mask-3" x="280.61" y="-8392" width="53.66" height="32766" maskUnits="userSpaceOnUse"><g class="cls-84"/></mask><linearGradient id="Áåçûìÿííûé_ãðàäèåíò_10-3" x1="-305.25" y1="-51.93" x2="-247.76" y2="109.33" gradientTransform="matrix(-0.81, -0.58, -0.58, 0.81, 111.3, 42.65)" xlink:href="#Áåçûìÿííûé_ãðàäèåíò_10"/><filter id="luminosity-noclip-4" x="254.39" y="-8392" width="36.19" height="32766" filterUnits="userSpaceOnUse" color-interpolation-filters="sRGB"><feFlood flood-color="#fff" result="bg"/><feBlend in="SourceGraphic" in2="bg"/></filter><mask id="mask-4" x="254.39" y="-8392" width="36.19" height="32766" maskUnits="userSpaceOnUse"><g class="cls-83"/></mask><linearGradient id="Áåçûìÿííûé_ãðàäèåíò_10-4" x1="179.33" y1="301.94" x2="202.38" y2="256.09" gradientTransform="translate(-44.84 42.65) rotate(-35.61)" xlink:href="#Áåçûìÿííûé_ãðàäèåíò_10"/><filter id="luminosity-noclip-5" x="268.51" y="-8392" width="10.69" height="32766" filterUnits="userSpaceOnUse" color-interpolation-filters="sRGB"><feFlood flood-color="#fff" result="bg"/><feBlend in="SourceGraphic" in2="bg"/></filter><mask id="mask-5" x="268.51" y="-8392" width="10.69" height="32766" maskUnits="userSpaceOnUse"><g class="cls-82"/></mask><linearGradient id="Áåçûìÿííûé_ãðàäèåíò_10-5" x1="187.35" y1="266.38" x2="196.96" y2="277.6" gradientTransform="translate(-44.84 42.65) rotate(-35.61)" xlink:href="#Áåçûìÿííûé_ãðàäèåíò_10"/><filter id="luminosity-noclip-6" x="231.42" y="-8392" width="10.39" height="32766" filterUnits="userSpaceOnUse" color-interpolation-filters="sRGB"><feFlood flood-color="#fff" result="bg"/><feBlend in="SourceGraphic" in2="bg"/></filter><mask id="mask-6" x="231.42" y="-8392" width="10.39" height="32766" maskUnits="userSpaceOnUse"><g class="cls-81"/></mask><linearGradient id="Áåçûìÿííûé_ãðàäèåíò_10-6" x1="188.25" y1="213.88" x2="193.32" y2="213.88" gradientTransform="translate(-44.84 42.65) rotate(-35.61)" xlink:href="#Áåçûìÿííûé_ãðàäèåíò_10"/><filter id="luminosity-noclip-7" x="276.65" y="-8392" width="68.96" height="32766" filterUnits="userSpaceOnUse" color-interpolation-filters="sRGB"><feFlood flood-color="#fff" result="bg"/><feBlend in="SourceGraphic" in2="bg"/></filter><mask id="mask-7" x="276.65" y="-8392" width="68.96" height="32766" maskUnits="userSpaceOnUse"><g class="cls-80"/></mask><linearGradient id="Áåçûìÿííûé_ãðàäèåíò_10-7" x1="301.93" y1="146.58" x2="325.83" y2="237.88" xlink:href="#Áåçûìÿííûé_ãðàäèåíò_10"/><filter id="luminosity-noclip-8" x="304.9" y="-8392" width="53.66" height="32766" filterUnits="userSpaceOnUse" color-interpolation-filters="sRGB"><feFlood flood-color="#fff" result="bg"/><feBlend in="SourceGraphic" in2="bg"/></filter><mask id="mask-8" x="304.9" y="-8392" width="53.66" height="32766" maskUnits="userSpaceOnUse"><g class="cls-79"/></mask><linearGradient id="Áåçûìÿííûé_ãðàäèåíò_10-8" x1="160.34" y1="281.54" x2="217.83" y2="442.8" gradientTransform="translate(-44.84 42.65) rotate(-35.61)" xlink:href="#Áåçûìÿííûé_ãðàäèåíò_10"/><filter id="luminosity-noclip-9" x="319.66" y="-8392" width="45.29" height="32766" filterUnits="userSpaceOnUse" color-interpolation-filters="sRGB"><feFlood flood-color="#fff" result="bg"/><feBlend in="SourceGraphic" in2="bg"/></filter><mask id="mask-9" x="319.66" y="-8392" width="45.29" height="32766" maskUnits="userSpaceOnUse"><g class="cls-78"/></mask><linearGradient id="Áåçûìÿííûé_ãðàäèåíò_10-9" x1="310.82" y1="110.24" x2="347.47" y2="262.88" xlink:href="#Áåçûìÿííûé_ãðàäèåíò_10"/><filter id="luminosity-noclip-10" x="348.59" y="-8392" width="36.19" height="32766" filterUnits="userSpaceOnUse" color-interpolation-filters="sRGB"><feFlood flood-color="#fff" result="bg"/><feBlend in="SourceGraphic" in2="bg"/></filter><mask id="mask-10" x="348.59" y="-8392" width="36.19" height="32766" maskUnits="userSpaceOnUse"><g class="cls-77"/></mask><linearGradient id="Áåçûìÿííûé_ãðàäèåíò_10-10" x1="-286.26" y1="-31.53" x2="-263.22" y2="-77.38" gradientTransform="matrix(-0.81, -0.58, -0.58, 0.81, 111.3, 42.65)" xlink:href="#Áåçûìÿííûé_ãðàäèåíò_10"/><filter id="luminosity-noclip-11" x="359.96" y="-8392" width="10.69" height="32766" filterUnits="userSpaceOnUse" color-interpolation-filters="sRGB"><feFlood flood-color="#fff" result="bg"/><feBlend in="SourceGraphic" in2="bg"/></filter><mask id="mask-11" x="359.96" y="-8392" width="10.69" height="32766" maskUnits="userSpaceOnUse"><g class="cls-76"/></mask><linearGradient id="Áåçûìÿííûé_ãðàäèåíò_10-11" x1="-278.24" y1="-67.09" x2="-268.63" y2="-55.88" gradientTransform="matrix(-0.81, -0.58, -0.58, 0.81, 111.3, 42.65)" xlink:href="#Áåçûìÿííûé_ãðàäèåíò_10"/><linearGradient id="Áåçûìÿííûé_ãðàäèåíò_2" x1="299.59" y1="117.56" x2="350.74" y2="314.98" gradientUnits="userSpaceOnUse"><stop offset="0" stop-color="#dad1c0"/><stop offset="0.63" stop-color="#708588"/><stop offset="0.74" stop-color="#73878a"/><stop offset="0.8" stop-color="#7b8f8f"/><stop offset="0.86" stop-color="#8a9d99"/><stop offset="0.9" stop-color="#9eb0a7"/><stop offset="0.95" stop-color="#b9c9b9"/><stop offset="0.99" stop-color="#d9e7cf"/><stop offset="1" stop-color="#e2f0d5"/></linearGradient><filter id="luminosity-noclip-12" x="265.79" y="113.99" width="53.79" height="191.1" filterUnits="userSpaceOnUse" color-interpolation-filters="sRGB"><feFlood flood-color="#fff" result="bg"/><feBlend in="SourceGraphic" in2="bg"/></filter><mask id="mask-12" x="36.62" y="20.86" width="53.79" height="191.1" maskUnits="userSpaceOnUse"><g class="cls-75"><g transform="translate(-229.17 -93.13)"><g class="cls-1"><path class="cls-2" d="M319.58,114a159.09,159.09,0,0,0-39.28,30.86c16.57,20.16.32,41.59-13.54,27.41-6,63.82,16.17,104.35,52.82,132.83Z"/></g></g></g></mask><linearGradient id="Áåçûìÿííûé_ãðàäèåíò_127" x1="281.95" y1="89.87" x2="304.9" y2="239.65" gradientUnits="userSpaceOnUse"><stop offset="0" stop-color="#fff7cc"/><stop offset="1" stop-color="#fff7cc"/></linearGradient><linearGradient id="Áåçûìÿííûé_ãðàäèåíò_2-2" x1="274.37" y1="210.35" x2="364.94" y2="210.35" xlink:href="#Áåçûìÿííûé_ãðàäèåíò_2"/><filter id="luminosity-noclip-13" x="276.65" y="142.65" width="68.96" height="103.41" filterUnits="userSpaceOnUse" color-interpolation-filters="sRGB"><feFlood flood-color="#fff" result="bg"/><feBlend in="SourceGraphic" in2="bg"/></filter><mask id="mask-13" x="47.48" y="49.52" width="68.96" height="103.41" maskUnits="userSpaceOnUse"><g class="cls-74"><g transform="translate(-229.17 -93.13)"><g class="cls-13"><path class="cls-14" d="M340.3,142.65A169,169,0,0,1,327.43,161c-14.18,17.5-30.92,33.61-50.78,44.31a131.79,131.79,0,0,0,8.8,40.74c3.1-2.41,6.17-4.83,9.19-7.32,6.44-6.87,12.47-14,18.18-20.43a443,443,0,0,0,32.06-40.93c-.26-.48-.51-1-.75-1.46-4-8.39-3.39-18.92,1.48-28.42C343.9,145.84,342.12,144.23,340.3,142.65Z"/></g></g></g></mask><linearGradient id="Áåçûìÿííûé_ãðàäèåíò_127-2" x1="301.93" y1="146.58" x2="325.83" y2="237.88" xlink:href="#Áåçûìÿííûé_ãðàäèåíò_127"/><filter id="luminosity-noclip-14" x="319.66" y="125.27" width="45.29" height="170.17" filterUnits="userSpaceOnUse" color-interpolation-filters="sRGB"><feFlood flood-color="#fff" result="bg"/><feBlend in="SourceGraphic" in2="bg"/></filter><mask id="mask-14" x="90.49" y="32.14" width="45.29" height="170.17" maskUnits="userSpaceOnUse"><g class="cls-73"><g transform="translate(-229.17 -93.13)"><g class="cls-17"><path class="cls-18" d="M364.8,186.73c-.52.05-1.05.07-1.58.07-7.3,0-14-4.48-17.36-11.7-3.92-8.28-3.11-18.64,2.11-28a152.26,152.26,0,0,0-28.31-21.86h0V295.43h0C352.16,268,366.55,233.33,364.8,186.73Z"/></g></g></g></mask><linearGradient id="Áåçûìÿííûé_ãðàäèåíò_127-3" x1="310.82" y1="110.24" x2="347.47" y2="262.88" xlink:href="#Áåçûìÿííûé_ãðàäèåíò_127"/><linearGradient id="Áåçûìÿííûé_ãðàäèåíò_3" x1="-274.03" y1="158.47" x2="-272.05" y2="-78.13" gradientTransform="matrix(-0.81, -0.58, -0.58, 0.81, -117.87, -50.48)" gradientUnits="userSpaceOnUse"><stop offset="0" stop-color="#fff"/><stop offset="0.61" stop-color="#87ded7"/><stop offset="1" stop-color="#128ba3"/></linearGradient><linearGradient id="Áåçûìÿííûé_ãðàäèåíò_194" x1="-273.94" y1="149.07" x2="-272.06" y2="-75.06" gradientTransform="matrix(-0.81, -0.58, -0.58, 0.81, -117.87, -50.48)" gradientUnits="userSpaceOnUse"><stop offset="0" stop-color="#e2f0d5"/><stop offset="0.37" stop-color="#67cfc6"/><stop offset="0.47" stop-color="#62cbc3"/><stop offset="0.61" stop-color="#52bebc"/><stop offset="0.76" stop-color="#38a9af"/><stop offset="0.92" stop-color="#148c9e"/><stop offset="1" stop-color="#007b94"/></linearGradient><linearGradient id="Áåçûìÿííûé_ãðàäèåíò_222" x1="-272.23" y1="101.28" x2="-272.23" y2="-48.81" gradientTransform="matrix(-0.81, -0.58, -0.58, 0.81, -117.87, -50.48)" gradientUnits="userSpaceOnUse"><stop offset="0" stop-color="#67cfc6"/><stop offset="0.24" stop-color="#007b94"/><stop offset="1" stop-color="#1d4078"/></linearGradient><linearGradient id="Áåçûìÿííûé_ãðàäèåíò_222-2" x1="-272.22" y1="-112.23" x2="-272.22" y2="-60.56" xlink:href="#Áåçûìÿííûé_ãðàäèåíò_222"/><linearGradient id="Áåçûìÿííûé_ãðàäèåíò_134" x1="-272.42" y1="-106.32" x2="-272.17" y2="-117.89" gradientTransform="matrix(-0.81, -0.58, -0.58, 0.81, 111.3, 42.65)" gradientUnits="userSpaceOnUse"><stop offset="0" stop-color="#feaa0f"/><stop offset="1" stop-color="#eb690c"/></linearGradient><linearGradient id="Áåçûìÿííûé_ãðàäèåíò_134-2" x1="-278.5" y1="-124.16" x2="-265.94" y2="-124.16" xlink:href="#Áåçûìÿííûé_ãðàäèåíò_134"/><filter id="luminosity-noclip-15" x="348.59" y="141.24" width="36.19" height="31.56" filterUnits="userSpaceOnUse" color-interpolation-filters="sRGB"><feFlood flood-color="#fff" result="bg"/><feBlend in="SourceGraphic" in2="bg"/></filter><mask id="mask-15" x="119.42" y="48.11" width="36.19" height="31.56" maskUnits="userSpaceOnUse"><g class="cls-72"><g transform="translate(-229.17 -93.13)"><g class="cls-19"><path class="cls-20" d="M349.29,141.24a75.49,75.49,0,0,1,9.21,3c-.31,1.93-.58,3.87-.79,5.83a70.39,70.39,0,0,0-9.12-4.5C348.8,144.1,349,142.67,349.29,141.24Zm27.86,23.62a56.16,56.16,0,0,1,6.61,7.93c.33-1.84.68-3.67,1-5.51a76,76,0,0,0-6.46-8.86Q377.78,161.64,377.15,164.86Z"/></g></g></g></mask><linearGradient id="Áåçûìÿííûé_ãðàäèåíò_127-4" x1="-286.26" y1="-31.53" x2="-263.22" y2="-77.38" gradientTransform="matrix(-0.81, -0.58, -0.58, 0.81, 111.3, 42.65)" xlink:href="#Áåçûìÿííûé_ãðàäèåíò_127"/><filter id="luminosity-noclip-16" x="359.96" y="145.26" width="10.69" height="14.64" filterUnits="userSpaceOnUse" color-interpolation-filters="sRGB"><feFlood flood-color="#fff" result="bg"/><feBlend in="SourceGraphic" in2="bg"/></filter><mask id="mask-16" x="130.79" y="52.13" width="10.69" height="14.64" maskUnits="userSpaceOnUse"><g class="cls-71"><g transform="translate(-229.17 -93.13)"><g class="cls-21"><path class="cls-22" d="M367.81,147.19a17.45,17.45,0,0,0,2.85,11L369,159.9a39.79,39.79,0,0,1-9.05-6.48l4.18-8.16A32,32,0,0,1,367.81,147.19Z"/></g></g></g></mask><linearGradient id="Áåçûìÿííûé_ãðàäèåíò_127-5" x1="-278.24" y1="-67.09" x2="-268.63" y2="-55.88" gradientTransform="matrix(-0.81, -0.58, -0.58, 0.81, 111.3, 42.65)" xlink:href="#Áåçûìÿííûé_ãðàäèåíò_127"/><filter id="luminosity-noclip-17" x="397.36" y="96.35" width="10.39" height="15.98" filterUnits="userSpaceOnUse" color-interpolation-filters="sRGB"><feFlood flood-color="#fff" result="bg"/><feBlend in="SourceGraphic" in2="bg"/></filter><mask id="mask-17" x="168.19" y="3.22" width="10.39" height="15.98" maskUnits="userSpaceOnUse"><g class="cls-70"><g transform="translate(-229.17 -93.13)"><g class="cls-3"><path class="cls-4" d="M407.75,96.35a47.82,47.82,0,0,0-3.61,13.75,19.49,19.49,0,0,0-6.25,2.23c-.18-.16-.35-.29-.53-.46a33.81,33.81,0,0,1,3-3.88S405.12,100,407.75,96.35Z"/></g></g></g></mask><linearGradient id="Áåçûìÿííûé_ãðàäèåíò_127-6" x1="-277.34" y1="-119.59" x2="-272.27" y2="-119.59" gradientTransform="matrix(-0.81, -0.58, -0.58, 0.81, 111.3, 42.65)" xlink:href="#Áåçûìÿííûé_ãðàäèåíò_127"/><filter id="luminosity-noclip-18" x="280.61" y="187.97" width="53.66" height="94.64" filterUnits="userSpaceOnUse" color-interpolation-filters="sRGB"><feFlood flood-color="#fff" result="bg"/><feBlend in="SourceGraphic" in2="bg"/></filter><mask id="mask-18" x="51.43" y="94.84" width="53.66" height="94.64" maskUnits="userSpaceOnUse"><g class="cls-69"><g transform="translate(-229.17 -93.13)"><g class="cls-5"><path class="cls-6" d="M292.69,266.13l-12.08,16.48c1.16-7.49,1.93-15,3.18-22.51l10.77-15.39C294,251.85,293.39,259,292.69,266.13Zm19.42-46.5-3.37,4.81q-1.08,11.34-2.11,22.68l4.56-6.22C311.35,233.8,311.61,226.71,312.11,219.63ZM334.26,188,320.7,207.35a4.08,4.08,0,0,1,.13,1.47c-.68,6.86-1,13.73-1.24,20.61l13.67-18.65C333.46,203.17,333.72,195.56,334.26,188Z"/></g></g></g></mask><linearGradient id="Áåçûìÿííûé_ãðàäèåíò_127-7" x1="-305.25" y1="-51.93" x2="-247.76" y2="109.33" gradientTransform="matrix(-0.81, -0.58, -0.58, 0.81, 111.3, 42.65)" xlink:href="#Áåçûìÿííûé_ãðàäèåíò_127"/><linearGradient id="Áåçûìÿííûé_ãðàäèåíò_3-2" x1="191.56" y1="491.95" x2="193.54" y2="255.34" gradientTransform="translate(-274.01 -50.48) rotate(-35.61)" xlink:href="#Áåçûìÿííûé_ãðàäèåíò_3"/><linearGradient id="Áåçûìÿííûé_ãðàäèåíò_194-2" x1="191.66" y1="482.54" x2="193.53" y2="258.41" gradientTransform="translate(-274.01 -50.48) rotate(-35.61)" xlink:href="#Áåçûìÿííûé_ãðàäèåíò_194"/><linearGradient id="Áåçûìÿííûé_ãðàäèåíò_222-3" x1="193.36" y1="434.75" x2="193.36" y2="284.66" gradientTransform="translate(-274.01 -50.48) rotate(-35.61)" xlink:href="#Áåçûìÿííûé_ãðàäèåíò_222"/><linearGradient id="Áåçûìÿííûé_ãðàäèåíò_222-4" x1="193.37" y1="221.24" x2="193.37" y2="272.91" gradientTransform="translate(-274.01 -50.48) rotate(-35.61)" xlink:href="#Áåçûìÿííûé_ãðàäèåíò_222"/><linearGradient id="Áåçûìÿííûé_ãðàäèåíò_134-3" x1="193.18" y1="227.15" x2="193.42" y2="215.59" gradientTransform="translate(-44.84 42.65) rotate(-35.61)" xlink:href="#Áåçûìÿííûé_ãðàäèåíò_134"/><linearGradient id="Áåçûìÿííûé_ãðàäèåíò_134-4" x1="187.09" y1="209.32" x2="199.65" y2="209.32" gradientTransform="translate(-44.84 42.65) rotate(-35.61)" xlink:href="#Áåçûìÿííûé_ãðàäèåíò_134"/><filter id="luminosity-noclip-19" x="254.39" y="141.24" width="36.19" height="31.56" filterUnits="userSpaceOnUse" color-interpolation-filters="sRGB"><feFlood flood-color="#fff" result="bg"/><feBlend in="SourceGraphic" in2="bg"/></filter><mask id="mask-19" x="25.22" y="48.11" width="36.19" height="31.56" maskUnits="userSpaceOnUse"><g class="cls-68"><g transform="translate(-229.17 -93.13)"><g class="cls-7"><path class="cls-8" d="M290.58,145.54a70.39,70.39,0,0,0-9.12,4.5q-.31-2.94-.8-5.83a75.67,75.67,0,0,1,9.22-3C290.13,142.67,290.37,144.1,290.58,145.54Zm-29.73,12.88a76,76,0,0,0-6.46,8.86l1,5.51a55.49,55.49,0,0,1,6.61-7.93C261.59,162.72,261.21,160.57,260.85,158.42Z"/></g></g></g></mask><linearGradient id="Áåçûìÿííûé_ãðàäèåíò_127-8" x1="179.33" y1="301.94" x2="202.38" y2="256.09" gradientTransform="translate(-44.84 42.65) rotate(-35.61)" xlink:href="#Áåçûìÿííûé_ãðàäèåíò_127"/><filter id="luminosity-noclip-20" x="268.51" y="145.26" width="10.69" height="14.64" filterUnits="userSpaceOnUse" color-interpolation-filters="sRGB"><feFlood flood-color="#fff" result="bg"/><feBlend in="SourceGraphic" in2="bg"/></filter><mask id="mask-20" x="39.34" y="52.13" width="10.69" height="14.64" maskUnits="userSpaceOnUse"><g class="cls-67"><g transform="translate(-229.17 -93.13)"><g class="cls-9"><path class="cls-10" d="M271.35,147.19a17.38,17.38,0,0,1-2.84,11l1.64,1.7a39.62,39.62,0,0,0,4.76-2.92,39.13,39.13,0,0,0,4.29-3.56L275,145.26A32.85,32.85,0,0,0,271.35,147.19Z"/></g></g></g></mask><linearGradient id="Áåçûìÿííûé_ãðàäèåíò_127-9" x1="187.35" y1="266.38" x2="196.96" y2="277.6" gradientTransform="translate(-44.84 42.65) rotate(-35.61)" xlink:href="#Áåçûìÿííûé_ãðàäèåíò_127"/><filter id="luminosity-noclip-21" x="231.42" y="96.35" width="10.39" height="15.98" filterUnits="userSpaceOnUse" color-interpolation-filters="sRGB"><feFlood flood-color="#fff" result="bg"/><feBlend in="SourceGraphic" in2="bg"/></filter><mask id="mask-21" x="2.25" y="3.22" width="10.39" height="15.98" maskUnits="userSpaceOnUse"><g class="cls-66"><g transform="translate(-229.17 -93.13)"><g class="cls-11"><path class="cls-12" d="M231.42,96.35A48.48,48.48,0,0,1,235,110.1a19.35,19.35,0,0,1,6.24,2.23l.54-.46a33.81,33.81,0,0,0-3-3.88S234.05,100,231.42,96.35Z"/></g></g></g></mask><linearGradient id="Áåçûìÿííûé_ãðàäèåíò_127-10" x1="188.25" y1="213.88" x2="193.32" y2="213.88" gradientTransform="translate(-44.84 42.65) rotate(-35.61)" xlink:href="#Áåçûìÿííûé_ãðàäèåíò_127"/><filter id="luminosity-noclip-22" x="304.9" y="187.97" width="53.66" height="94.64" filterUnits="userSpaceOnUse" color-interpolation-filters="sRGB"><feFlood flood-color="#fff" result="bg"/><feBlend in="SourceGraphic" in2="bg"/></filter><mask id="mask-22" x="75.73" y="94.84" width="53.66" height="94.64" maskUnits="userSpaceOnUse"><g class="cls-65"><g transform="translate(-229.17 -93.13)"><g class="cls-15"><path class="cls-16" d="M344.61,244.71l10.77,15.39c1.24,7.48,2,15,3.18,22.51l-12.08-16.48C345.78,259,345.21,251.85,344.61,244.71ZM328,240.9l4.56,6.22q-1.05-11.34-2.11-22.68l-3.37-4.81C327.56,226.71,327.81,233.8,328,240.9ZM305.9,210.78l13.67,18.65c-.2-6.88-.55-13.75-1.23-20.61a3.87,3.87,0,0,1,.13-1.47L304.9,188C305.45,195.56,305.71,203.17,305.9,210.78Z"/></g></g></g></mask><linearGradient id="Áåçûìÿííûé_ãðàäèåíò_127-11" x1="160.34" y1="281.54" x2="217.83" y2="442.8" gradientTransform="translate(-44.84 42.65) rotate(-35.61)" xlink:href="#Áåçûìÿííûé_ãðàäèåíò_127"/></defs><g class="cls-23"><g id="Capa_4" data-name="Capa 4"><path class="cls-24" d="M372.56,172.26C358.7,186.44,342.44,165,359,144.85a159.26,159.26,0,0,0-39.36-30.91,159.26,159.26,0,0,0-39.36,30.91c16.57,20.16.32,41.59-13.54,27.41-6,63.87,16.2,104.41,52.9,132.89C356.36,276.67,378.52,236.13,372.56,172.26Z" transform="translate(-229.17 -93.13)"/><g class="cls-25"><path class="cls-26" d="M319.58,114a159.09,159.09,0,0,0-39.28,30.86c16.57,20.16.32,41.59-13.54,27.41-6,63.82,16.17,104.35,52.82,132.83Z" transform="translate(-229.17 -93.13)"/></g><path class="cls-27" d="M319.66,296.57c-34.19-28.32-49.28-64.66-47-113.39a16.76,16.76,0,0,0,3.4.36h0c6.56,0,12.55-4.07,15.64-10.62s3.7-16.84-2.78-27.45a154,154,0,0,1,30.71-23.79,154.33,154.33,0,0,1,30.71,23.79c-6.48,10.61-5.89,20.87-2.78,27.46s9.08,10.61,15.63,10.61a16.76,16.76,0,0,0,3.4-.36C368.93,231.9,353.85,268.25,319.66,296.57Z" transform="translate(-229.17 -93.13)"/><path class="cls-28" d="M319.66,295.43c-32.51-27.47-46.89-62.1-45.15-108.7.53.05,1.06.07,1.58.07,7.31,0,14-4.49,17.37-11.71,3.91-8.28,3.1-18.63-2.12-28a153,153,0,0,1,28.32-21.86A152.26,152.26,0,0,1,348,147.13c-5.22,9.33-6,19.69-2.11,28,3.41,7.22,10.06,11.7,17.36,11.7.53,0,1.06,0,1.58-.07C366.55,233.33,352.16,268,319.66,295.43Z" transform="translate(-229.17 -93.13)"/><g class="cls-29"><path class="cls-30" d="M340.3,142.65A169,169,0,0,1,327.43,161c-14.18,17.5-30.92,33.61-50.78,44.31a131.79,131.79,0,0,0,8.8,40.74c3.1-2.41,6.17-4.83,9.19-7.32,6.44-6.87,12.47-14,18.18-20.43a443,443,0,0,0,32.06-40.93c-.26-.48-.51-1-.75-1.46-4-8.39-3.39-18.92,1.48-28.42C343.9,145.84,342.12,144.23,340.3,142.65Z" transform="translate(-229.17 -93.13)"/></g><path class="cls-31" d="M319.15,268c-11.55-2.16-24.42-11.58-34-22.81,7.08,18.18,18.48,33.9,34.56,47.78,26.83-23.17,40.75-51.4,43-87.76C353.4,239.41,330.06,265.19,319.15,268Z" transform="translate(-229.17 -93.13)"/><g class="cls-32"><path class="cls-33" d="M364.8,186.73c-.52.05-1.05.07-1.58.07-7.3,0-14-4.48-17.36-11.7-3.92-8.28-3.11-18.64,2.11-28a152.26,152.26,0,0,0-28.31-21.86h0V295.43h0C352.16,268,366.55,233.33,364.8,186.73Z" transform="translate(-229.17 -93.13)"/></g><path class="cls-34" d="M319.58,242l-26.47,36.88-.7-.89c-.06-.07-.12-.16-.17-.23-.8-1.06-1.58-2.12-2.35-3.2l-.18-.27c-.76-1.07-1.5-2.16-2.22-3.25l-.18-.28c-.72-1.1-1.43-2.21-2.12-3.34L285,267c-.16-.27-.31-.54-.47-.8l25.63-37.41L272.3,176.09c6.55,2.55,12.6-1.74,14.43-9l32.85,48,33-48.12c1.76,7.3,7.74,11.67,14.27,9.26L329,228.8l25.71,37.53a126.21,126.21,0,0,1-8.61,12.61ZM266.7,173l.42-.38-.36-.34ZM287,158.55a52.6,52.6,0,0,1,10.49-4.2c0-1.56-.05-3.12-.05-4.69a85.82,85.82,0,0,0-12.18,3.15A26.18,26.18,0,0,1,287,158.55Zm67.14-5.7a86.11,86.11,0,0,0-12.32-3.19c0,1.57,0,3.13,0,4.69a53.44,53.44,0,0,1,10.63,4.27A25.47,25.47,0,0,1,354.09,152.85Zm18.54,20.28c0-.29,0-.58-.07-.87-.15.15-.29.27-.44.41Z" transform="translate(-229.17 -93.13)"/><polygon class="cls-35" points="37.86 187.47 27.73 213.74 49.34 195.69 144.31 66.15 129.95 55.86 37.86 187.47"/><polygon class="cls-36" points="47.88 194.32 141.53 66.59 130.42 58.64 39.62 188.41 32.33 207.32 47.88 194.32"/><polygon class="cls-37" points="128.41 70.64 44.76 189.97 130.83 72.37 128.41 70.64"/><path class="cls-38" d="M372.25,161c-6,1.86-12,5.36-17.84,9.74a64.24,64.24,0,0,0,3.5-20A31.27,31.27,0,0,1,372.25,161Z" transform="translate(-229.17 -93.13)"/><polygon class="cls-39" points="138.17 54.86 142.61 58.04 168.63 20.38 165.46 18.11 138.17 54.86"/><path class="cls-40" d="M394.73,103.66l10.2,7.32a48.74,48.74,0,0,0-7.13,2.52l-3.17-2.26A43.46,43.46,0,0,0,394.73,103.66Z" transform="translate(-229.17 -93.13)"/><path class="cls-41" d="M394.73,103.66l10.2,7.32A81.6,81.6,0,0,1,410,93.13,111.17,111.17,0,0,1,394.73,103.66Z" transform="translate(-229.17 -93.13)"/><path class="cls-38" d="M342.51,144c8.44,2.26,15.91,6.69,22.75,11.6s13.45,10.54,18.3,17.81c1.49-.54,3-1.07,4.49-1.57-4.69-8.4-10.52-16.53-18.49-22.24s-17.54-8.61-27-10.35C342.56,140.82,342.55,142.4,342.51,144Z" transform="translate(-229.17 -93.13)"/><g class="cls-42"><path class="cls-43" d="M349.29,141.24a75.49,75.49,0,0,1,9.21,3c-.31,1.93-.58,3.87-.79,5.83a70.39,70.39,0,0,0-9.12-4.5C348.8,144.1,349,142.67,349.29,141.24Zm27.86,23.62a56.16,56.16,0,0,1,6.61,7.93c.33-1.84.68-3.67,1-5.51a76,76,0,0,0-6.46-8.86Q377.78,161.64,377.15,164.86Z" transform="translate(-229.17 -93.13)"/></g><path class="cls-44" d="M359.36,153.52a40.06,40.06,0,0,0,9.75,7l7-7.18a34.27,34.27,0,0,0-12.15-8.71Z" transform="translate(-229.17 -93.13)"/><g class="cls-45"><path class="cls-46" d="M367.81,147.19a17.45,17.45,0,0,0,2.85,11L369,159.9a39.79,39.79,0,0,1-9.05-6.48l4.18-8.16A32,32,0,0,1,367.81,147.19Z" transform="translate(-229.17 -93.13)"/></g><g class="cls-47"><path class="cls-48" d="M407.75,96.35a47.82,47.82,0,0,0-3.61,13.75,19.49,19.49,0,0,0-6.25,2.23c-.18-.16-.35-.29-.53-.46a33.81,33.81,0,0,1,3-3.88S405.12,100,407.75,96.35Z" transform="translate(-229.17 -93.13)"/></g><g class="cls-49"><path class="cls-50" d="M292.69,266.13l-12.08,16.48c1.16-7.49,1.93-15,3.18-22.51l10.77-15.39C294,251.85,293.39,259,292.69,266.13Zm19.42-46.5-3.37,4.81q-1.08,11.34-2.11,22.68l4.56-6.22C311.35,233.8,311.61,226.71,312.11,219.63ZM334.26,188,320.7,207.35a4.08,4.08,0,0,1,.13,1.47c-.68,6.86-1,13.73-1.24,20.61l13.67-18.65C333.46,203.17,333.72,195.56,334.26,188Z" transform="translate(-229.17 -93.13)"/></g><polygon class="cls-51" points="142.97 187.47 153.1 213.74 131.48 195.69 36.51 66.15 50.88 55.86 142.97 187.47"/><polygon class="cls-52" points="132.94 194.32 39.3 66.59 50.41 58.64 141.2 188.41 148.5 207.32 132.94 194.32"/><polygon class="cls-53" points="52.41 70.64 136.06 189.97 49.99 72.37 52.41 70.64"/><path class="cls-38" d="M266.91,161c6,1.86,12,5.36,17.85,9.74a64,64,0,0,1-3.5-20A31.35,31.35,0,0,0,266.91,161Z" transform="translate(-229.17 -93.13)"/><polygon class="cls-54" points="42.65 54.86 38.22 58.04 12.2 20.38 15.37 18.11 42.65 54.86"/><path class="cls-55" d="M244.44,103.66,234.23,111a48.44,48.44,0,0,1,7.14,2.52l3.17-2.26A43.46,43.46,0,0,1,244.44,103.66Z" transform="translate(-229.17 -93.13)"/><path class="cls-56" d="M244.44,103.66,234.23,111a81.54,81.54,0,0,0-5.06-17.85A111.17,111.17,0,0,0,244.44,103.66Z" transform="translate(-229.17 -93.13)"/><path class="cls-38" d="M296.66,144c-8.45,2.26-15.92,6.69-22.76,11.6s-13.45,10.54-18.3,17.81c-1.48-.54-3-1.07-4.49-1.57,4.7-8.4,10.52-16.53,18.49-22.24s17.55-8.61,27-10.35C296.6,140.82,296.62,142.4,296.66,144Z" transform="translate(-229.17 -93.13)"/><g class="cls-57"><path class="cls-58" d="M290.58,145.54a70.39,70.39,0,0,0-9.12,4.5q-.31-2.94-.8-5.83a75.67,75.67,0,0,1,9.22-3C290.13,142.67,290.37,144.1,290.58,145.54Zm-29.73,12.88a76,76,0,0,0-6.46,8.86l1,5.51a55.49,55.49,0,0,1,6.61-7.93C261.59,162.72,261.21,160.57,260.85,158.42Z" transform="translate(-229.17 -93.13)"/></g><path class="cls-44" d="M279.81,153.52a39.92,39.92,0,0,1-9.76,7l-7-7.18a34.3,34.3,0,0,1,12.16-8.71Z" transform="translate(-229.17 -93.13)"/><g class="cls-59"><path class="cls-60" d="M271.35,147.19a17.38,17.38,0,0,1-2.84,11l1.64,1.7a39.62,39.62,0,0,0,4.76-2.92,39.13,39.13,0,0,0,4.29-3.56L275,145.26A32.85,32.85,0,0,0,271.35,147.19Z" transform="translate(-229.17 -93.13)"/></g><g class="cls-61"><path class="cls-62" d="M231.42,96.35A48.48,48.48,0,0,1,235,110.1a19.35,19.35,0,0,1,6.24,2.23l.54-.46a33.81,33.81,0,0,0-3-3.88S234.05,100,231.42,96.35Z" transform="translate(-229.17 -93.13)"/></g><g class="cls-63"><path class="cls-64" d="M344.61,244.71l10.77,15.39c1.24,7.48,2,15,3.18,22.51l-12.08-16.48C345.78,259,345.21,251.85,344.61,244.71ZM328,240.9l4.56,6.22q-1.05-11.34-2.11-22.68l-3.37-4.81C327.56,226.71,327.81,233.8,328,240.9ZM305.9,210.78l13.67,18.65c-.2-6.88-.55-13.75-1.23-20.61a3.87,3.87,0,0,1,.13-1.47L304.9,188C305.45,195.56,305.71,203.17,305.9,210.78Z" transform="translate(-229.17 -93.13)"/></g></g></g></svg>