<svg xmlns="http://www.w3.org/2000/svg" xmlns:xlink="http://www.w3.org/1999/xlink" viewBox="0 0 2471.41 216.13"><defs><style>.cls-1{isolation:isolate;}.cls-10,.cls-11,.cls-12,.cls-13,.cls-14,.cls-15,.cls-16,.cls-17,.cls-18,.cls-19,.cls-2,.cls-20,.cls-21,.cls-22,.cls-23,.cls-24,.cls-25,.cls-26,.cls-27,.cls-28,.cls-29,.cls-30,.cls-31,.cls-32,.cls-33,.cls-34,.cls-35,.cls-4,.cls-5,.cls-6,.cls-7,.cls-8,.cls-9{fill-rule:evenodd;}.cls-2{fill:url(#Áåçûìÿííûé_ãðàäèåíò_503);}.cls-20,.cls-22,.cls-24,.cls-25,.cls-26,.cls-27,.cls-29,.cls-3,.cls-30,.cls-31{mix-blend-mode:multiply;}.cls-4{fill:url(#Áåçûìÿííûé_ãðàäèåíò_162);}.cls-5{fill:url(#Áåçûìÿííûé_ãðàäèåíò_162-2);}.cls-6{fill:url(#Áåçûìÿííûé_ãðàäèåíò_162-3);}.cls-7{fill:url(#Áåçûìÿííûé_ãðàäèåíò_162-4);}.cls-8{fill:url(#Áåçûìÿííûé_ãðàäèåíò_162-5);}.cls-9{fill:url(#Áåçûìÿííûé_ãðàäèåíò_162-6);}.cls-10{fill:url(#Áåçûìÿííûé_ãðàäèåíò_162-7);}.cls-11{fill:url(#Áåçûìÿííûé_ãðàäèåíò_162-8);}.cls-12{fill:url(#Áåçûìÿííûé_ãðàäèåíò_162-9);}.cls-13{fill:url(#Áåçûìÿííûé_ãðàäèåíò_162-10);}.cls-14{fill:url(#Áåçûìÿííûé_ãðàäèåíò_162-11);}.cls-15{fill:url(#Áåçûìÿííûé_ãðàäèåíò_162-12);}.cls-16{fill:url(#Áåçûìÿííûé_ãðàäèåíò_162-13);}.cls-17{fill:url(#Áåçûìÿííûé_ãðàäèåíò_162-14);}.cls-18{fill:url(#Áåçûìÿííûé_ãðàäèåíò_162-15);}.cls-19,.cls-21,.cls-23,.cls-28{opacity:0.3;}.cls-19,.cls-21,.cls-23,.cls-28,.cls-32,.cls-33,.cls-34,.cls-35{mix-blend-mode:screen;}.cls-19{fill:url(#Áåçûìÿííûé_ãðàäèåíò_163);}.cls-20,.cls-22,.cls-24,.cls-25,.cls-26,.cls-27,.cls-29,.cls-30{opacity:0.2;}.cls-20{fill:url(#Áåçûìÿííûé_ãðàäèåíò_30);}.cls-21{fill:url(#Áåçûìÿííûé_ãðàäèåíò_163-2);}.cls-22{fill:url(#Áåçûìÿííûé_ãðàäèåíò_473);}.cls-23{fill:url(#Áåçûìÿííûé_ãðàäèåíò_163-3);}.cls-24{fill:url(#Áåçûìÿííûé_ãðàäèåíò_30-2);}.cls-25{fill:url(#Áåçûìÿííûé_ãðàäèåíò_473-2);}.cls-26{fill:url(#Áåçûìÿííûé_ãðàäèåíò_30-3);}.cls-27{fill:url(#Áåçûìÿííûé_ãðàäèåíò_473-3);}.cls-28{fill:#c76060;}.cls-29{fill:url(#Áåçûìÿííûé_ãðàäèåíò_30-4);}.cls-30{fill:url(#Áåçûìÿííûé_ãðàäèåíò_30-5);}.cls-31{fill:#b3849c;}.cls-31,.cls-32,.cls-33,.cls-34,.cls-35{opacity:0.5;}.cls-32{fill:url(#Áåçûìÿííûé_ãðàäèåíò_552);}.cls-33{fill:url(#Áåçûìÿííûé_ãðàäèåíò_552-2);}.cls-34{fill:url(#Áåçûìÿííûé_ãðàäèåíò_552-3);}.cls-35{fill:url(#Áåçûìÿííûé_ãðàäèåíò_545);}</style><radialGradient id="Áåçûìÿííûé_ãðàäèåíò_503" cx="962.56" cy="35676.67" r="1062.04" gradientTransform="translate(261.79 -6684.87) scale(1 0.19)" gradientUnits="userSpaceOnUse"><stop offset="0" stop-color="#f98336"/><stop offset="1" stop-color="#d6482a"/></radialGradient><radialGradient id="Áåçûìÿííûé_ãðàäèåíò_162" cx="666.64" cy="86.08" r="475.13" gradientUnits="userSpaceOnUse"><stop offset="0" stop-color="#e9d8d2"/><stop offset="0.4" stop-color="#e8d6d0"/><stop offset="0.59" stop-color="#e6d0c8"/><stop offset="0.75" stop-color="#e3c6bb"/><stop offset="0.88" stop-color="#ddb7a8"/><stop offset="0.99" stop-color="#d7a491"/><stop offset="1" stop-color="#d6a28e"/></radialGradient><radialGradient id="Áåçûìÿííûé_ãðàäèåíò_162-2" cx="703.26" cy="109.95" r="489.59" xlink:href="#Áåçûìÿííûé_ãðàäèåíò_162"/><radialGradient id="Áåçûìÿííûé_ãðàäèåíò_162-3" cx="902.81" cy="111.32" r="430.37" xlink:href="#Áåçûìÿííûé_ãðàäèåíò_162"/><radialGradient id="Áåçûìÿííûé_ãðàäèåíò_162-4" cx="1106.87" cy="113.26" r="363.29" xlink:href="#Áåçûìÿííûé_ãðàäèåíò_162"/><radialGradient id="Áåçûìÿííûé_ãðàäèåíò_162-5" cx="1277.57" cy="115.11" r="317.34" xlink:href="#Áåçûìÿííûé_ãðàäèåíò_162"/><radialGradient id="Áåçûìÿííûé_ãðàäèåíò_162-6" cx="1474.99" cy="117.16" r="265.94" xlink:href="#Áåçûìÿííûé_ãðàäèåíò_162"/><radialGradient id="Áåçûìÿííûé_ãðàäèåíò_162-7" cx="1629.7" cy="118.91" r="225.6" xlink:href="#Áåçûìÿííûé_ãðàäèåíò_162"/><radialGradient id="Áåçûìÿííûé_ãðàäèåíò_162-8" cx="1769.35" cy="119.89" r="206.1" xlink:href="#Áåçûìÿííûé_ãðàäèåíò_162"/><radialGradient id="Áåçûìÿííûé_ãðàäèåíò_162-9" cx="1890.29" cy="121.5" r="184.45" xlink:href="#Áåçûìÿííûé_ãðàäèåíò_162"/><radialGradient id="Áåçûìÿííûé_ãðàäèåíò_162-10" cx="2010.72" cy="123.18" r="174.06" xlink:href="#Áåçûìÿííûé_ãðàäèåíò_162"/><radialGradient id="Áåçûìÿííûé_ãðàäèåíò_162-11" cx="2158.57" cy="125.62" r="163.31" xlink:href="#Áåçûìÿííûé_ãðàäèåíò_162"/><radialGradient id="Áåçûìÿííûé_ãðàäèåíò_162-12" cx="2292.61" cy="129.78" r="140.41" xlink:href="#Áåçûìÿííûé_ãðàäèåíò_162"/><radialGradient id="Áåçûìÿííûé_ãðàäèåíò_162-13" cx="1643.63" cy="139.64" r="52.1" xlink:href="#Áåçûìÿííûé_ãðàäèåíò_162"/><radialGradient id="Áåçûìÿííûé_ãðàäèåíò_162-14" cx="1421.74" cy="65.57" r="46.32" xlink:href="#Áåçûìÿííûé_ãðàäèåíò_162"/><radialGradient id="Áåçûìÿííûé_ãðàäèåíò_162-15" cx="885.66" cy="137.19" r="62.78" xlink:href="#Áåçûìÿííûé_ãðàäèåíò_162"/><linearGradient id="Áåçûìÿííûé_ãðàäèåíò_163" x1="1657.8" y1="145.95" x2="2063.66" y2="145.95" gradientUnits="userSpaceOnUse"><stop offset="0"/><stop offset="1" stop-color="#ff6b2c"/></linearGradient><linearGradient id="Áåçûìÿííûé_ãðàäèåíò_30" x1="1334.29" y1="178.31" x2="1711.3" y2="178.31" gradientUnits="userSpaceOnUse"><stop offset="0" stop-color="#890041"/><stop offset="1" stop-color="#fffcfc"/></linearGradient><linearGradient id="Áåçûìÿííûé_ãðàäèåíò_163-2" x1="885.66" y1="117.59" x2="1477.36" y2="117.59" xlink:href="#Áåçûìÿííûé_ãðàäèåíò_163"/><linearGradient id="Áåçûìÿííûé_ãðàäèåíò_473" x1="1325.82" y1="63.68" x2="1833.36" y2="63.68" gradientUnits="userSpaceOnUse"><stop offset="0" stop-color="#fffcfc"/><stop offset="1" stop-color="#890041"/></linearGradient><linearGradient id="Áåçûìÿííûé_ãðàäèåíò_163-3" x1="39.56" y1="127.24" x2="1168.71" y2="127.24" xlink:href="#Áåçûìÿííûé_ãðàäèåíò_163"/><linearGradient id="Áåçûìÿííûé_ãðàäèåíò_30-2" x1="2204.55" y1="145.95" x2="2402.48" y2="145.95" xlink:href="#Áåçûìÿííûé_ãðàäèåíò_30"/><linearGradient id="Áåçûìÿííûé_ãðàäèåíò_473-2" x1="1903.46" y1="101.15" x2="2368.61" y2="101.15" xlink:href="#Áåçûìÿííûé_ãðàäèåíò_473"/><linearGradient id="Áåçûìÿííûé_ãðàäèåíò_30-3" x1="0" y1="105.71" x2="922.13" y2="105.71" xlink:href="#Áåçûìÿííûé_ãðàäèåíò_30"/><linearGradient id="Áåçûìÿííûé_ãðàäèåíò_473-3" x1="1782.78" y1="177.36" x2="1979.41" y2="177.36" xlink:href="#Áåçûìÿííûé_ãðàäèåíò_473"/><linearGradient id="Áåçûìÿííûé_ãðàäèåíò_30-4" x1="1494.24" y1="165.62" x2="1785.54" y2="165.62" xlink:href="#Áåçûìÿííûé_ãðàäèåíò_30"/><linearGradient id="Áåçûìÿííûé_ãðàäèåíò_30-5" x1="1946.09" y1="187.02" x2="2090.79" y2="187.02" xlink:href="#Áåçûìÿííûé_ãðàäèåíò_30"/><linearGradient id="Áåçûìÿííûé_ãðàäèåíò_552" x1="1078.89" y1="216.13" x2="1078.89" y2="52.53" gradientUnits="userSpaceOnUse"><stop offset="0"/><stop offset="1" stop-color="#b87534"/></linearGradient><linearGradient id="Áåçûìÿííûé_ãðàäèåíò_552-2" x1="1078.89" y1="216.13" x2="1078.89" y2="54.43" xlink:href="#Áåçûìÿííûé_ãðàäèåíò_552"/><linearGradient id="Áåçûìÿííûé_ãðàäèåíò_552-3" x1="1500.84" y1="187.31" x2="1500.84" y2="32.55" xlink:href="#Áåçûìÿííûé_ãðàäèåíò_552"/><linearGradient id="Áåçûìÿííûé_ãðàäèåíò_545" x1="1849.26" y1="216.13" x2="1849.26" y2="15.9" gradientUnits="userSpaceOnUse"><stop offset="0"/><stop offset="1" stop-color="#9f564d"/></linearGradient></defs><g class="cls-1"><g id="Capa_10" data-name="Capa 10"><polygon class="cls-2" points="0 216.13 0 117.67 1273.47 0 2401.47 36.02 2401.47 216.13 0 216.13"/><g class="cls-3"><polygon class="cls-4" points="0 167.3 1330.34 1.85 1333.27 1.96 0 170.3 0 167.3"/><polygon class="cls-5" points="19.07 216.13 1383.82 3.77 1387.45 3.9 39.56 216.13 19.07 216.13"/><polygon class="cls-6" points="303.27 216.13 1497.14 6.5 1502.35 6.69 321.58 216.13 303.27 216.13"/><polygon class="cls-7" points="603.51 216.13 1599.78 10.99 1610.24 10.38 622 216.13 603.51 216.13"/><polygon class="cls-8" points="840.3 216.13 1713.47 14.1 1714.85 14.15 860.81 216.13 840.3 216.13"/><polygon class="cls-9" points="1112.15 216.13 1833.36 18.18 1837.84 18.2 1127.33 216.13 1112.15 216.13"/><polygon class="cls-10" points="1325.82 216.13 1931.7 21.69 1933.58 21.76 1334.3 216.13 1325.82 216.13"/><polygon class="cls-11" points="1494.24 216.13 2041.17 23.65 2044.47 23.77 1506.16 216.13 1494.24 216.13"/><polygon class="cls-12" points="1647.21 216.13 2130.73 26.88 2133.38 26.97 1657.8 216.13 1647.21 216.13"/><polygon class="cls-13" points="1782.78 216.13 2236.77 30.24 2238.65 30.3 1793.73 216.13 1782.78 216.13"/><polygon class="cls-14" points="1946.09 216.13 2368.61 35.11 2371.06 35.2 1957.8 216.13 1946.09 216.13"/><polygon class="cls-15" points="2113.8 216.13 2468.97 43.43 2471.41 43.52 2122.63 216.13 2113.8 216.13"/><polygon class="cls-16" points="1569.96 140.5 1711.31 140.7 1717.3 138.58 1574.16 139.13 1569.96 140.5"/><polygon class="cls-17" points="1360.82 62.29 1487.16 66.69 1477.36 68.84 1356.32 63.17 1360.82 62.29"/><polygon class="cls-18" points="802.37 130.9 974.22 140.61 960.64 143.47 797.09 131.85 802.37 130.9"/></g><polygon class="cls-19" points="1657.8 216.13 2010.72 75.76 2063.66 86.08 2010.72 113.26 2038.76 111.31 1782.78 216.13 1657.8 216.13"/><polygon class="cls-20" points="1334.3 216.13 1569.96 140.5 1711.31 140.7 1494.24 216.13 1334.3 216.13"/><polygon class="cls-21" points="885.65 158.04 1031.01 172 1477.36 68.84 1356.32 63.17 885.65 158.04"/><polygon class="cls-22" points="1713.47 14.1 1325.82 106.16 1387.45 113.26 1623.39 58.49 1522.8 86.08 1581.37 86.08 1833.36 18.18 1713.47 14.1"/><polygon class="cls-23" points="39.56 216.13 303.27 216.13 1009.43 92.14 967.97 86.08 611.57 140.5 576.35 137.19 1168.71 44.13 1168.71 38.34 39.56 216.13"/><polygon class="cls-24" points="2204.55 172 2321.02 178.31 2252.57 216.13 2401.47 216.13 2402.48 75.76 2204.55 172"/><polygon class="cls-25" points="2238.65 30.3 1903.45 170.3 2002.82 172 2217.75 75.76 2174.53 75.76 2204.55 62.29 2307.62 62.29 2368.61 35.11 2238.65 30.3"/><polygon class="cls-26" points="0 167.3 922.13 52.62 762.72 44.13 0 117.67 0 167.3"/><polygon class="cls-27" points="1782.78 216.13 1972.17 138.58 1979.41 138.58 1793.73 216.13 1782.78 216.13"/><polygon class="cls-28" points="2113.8 216.13 2100.88 216.13 2218.15 164.9 2113.8 216.13"/><polygon class="cls-29" points="1494.24 216.13 1711.31 140.7 1781.28 115.11 1785.54 116.3 1506.16 216.13 1494.24 216.13"/><polygon class="cls-30" points="1946.09 216.13 2072.26 159.87 2090.79 157.9 1957.8 216.13 1946.09 216.13"/><polygon class="cls-31" points="583.56 216.13 154.3 127.24 1273.47 12.64 2401.47 58.49 2401.47 36.02 1273.47 0 0 117.67 0 216.13 583.56 216.13"/><polygon class="cls-32" points="985.16 75.76 984.7 216.13 1172.41 216.13 1173.09 52.53 985.16 75.76"/><polygon class="cls-33" points="1001.57 74.17 1001.18 216.13 1156.04 216.13 1156.6 54.44 1001.57 74.17"/><polygon class="cls-34" points="1451.46 45.13 1451.46 187.31 1546.54 157.9 1550.22 32.55 1451.46 45.13"/><polygon class="cls-35" points="2344.64 55.87 2336.58 216.13 1360.71 216.13 1353.88 15.9 2344.64 55.87"/></g></g></svg>