<svg id="Layer_5" data-name="Layer 5" xmlns="http://www.w3.org/2000/svg" viewBox="0 0 4000 3436.15"><defs><style>.cls-1{fill:#fff;}.cls-2{opacity:0.11;}.cls-3{fill:#ffc19f;}.cls-4{fill:#f9e9a7;}.cls-5{fill:#f44d19;}.cls-6{fill:#b22909;}.cls-7{fill:#d3dae5;}.cls-8{fill:#224966;}.cls-13,.cls-9{opacity:0.22;}.cls-10{fill:#0f7da8;}.cls-11{fill:#1aa7d3;}.cls-12{fill:#e2f4f7;}.cls-13{fill:#470a04;}.cls-14{fill:#6d0f03;opacity:0.16;}.cls-15,.cls-18{fill:#006993;}.cls-15{opacity:0.46;}.cls-16{fill:#d5dde0;}.cls-17{opacity:0.8;}.cls-19{fill:#8b2d9b;}.cls-20{fill:#f9e7d7;}.cls-21{fill:#a841b7;}.cls-22{fill:#ffa727;opacity:0.56;}.cls-23{fill:#f4b18c;}.cls-24{fill:#752912;}.cls-25{fill:#ff9797;}.cls-26{fill:#f9feff;}.cls-27{fill:#723c27;}.cls-28{fill:#fefffe;}.cls-29{fill:#701608;}.cls-30{fill:#dd6b5b;}.cls-31{fill:#c4735b;}.cls-32{fill:#e0956c;}.cls-33{fill:#f93030;}.cls-34{fill:#660e0e;opacity:0.35;}.cls-35{fill:#ff6e6e;}.cls-36{fill:#bf2121;}.cls-37{fill:#d3d3d3;}.cls-38{fill:#ffde55;}</style></defs><rect class="cls-1" width="4000" height="3436.15"/><path class="cls-2" d="M3193.11,3050.05c0,12,131.43,22.07,293.61,22.46s293.69-9.06,293.72-21.08S3649,3029.36,3486.83,3029,3193.14,3038,3193.11,3050.05Z" transform="translate(-1.93 17.61)"/><path class="cls-3" d="M3543,2998.33c.21,2.29,74.91-.36,75-3.16.95-24.28.66-345.28.95-359.36l-106.67,33C3515.18,2692.88,3541.51,2981.74,3543,2998.33Z" transform="translate(-1.93 17.61)"/><path class="cls-4" d="M3536.3,3006.89c.15,1.78,95,2.13,95.31-.12,2-16.6.7-56.58,1.6-66.22H3532.77C3534.29,2958.56,3535.31,2995.47,3536.3,3006.89Z" transform="translate(-1.93 17.61)"/><path class="cls-5" d="M3649.84,2981.7c-1.27-5.07-4-11.52-6.06-17.4-1.54-4.36-43.92-4.6-44.27,5.8a65.52,65.52,0,0,0,.14,7.16c-7.24-.09-15.1-.35-23.4-.83a399.26,399.26,0,0,1-45.48-4.93c-1.1,16.44-.29,45-1.35,63.25,0,0,188.2,39.51,218.58,12.75C3756.57,3040,3709.87,3004.6,3649.84,2981.7Z" transform="translate(-1.93 17.61)"/><path class="cls-6" d="M3529.83,3023.28c-.09,4.07-.21,8-.41,11.47,0,0,188.2,39.51,218.58,12.75,1.21-1.06,1.3-2.69.43-4.74C3696,3052.93,3576.65,3032.22,3529.83,3023.28Z" transform="translate(-1.93 17.61)"/><path class="cls-7" d="M3663,2987.31a2.65,2.65,0,0,0,1.26-5.15c-10.93-2.62-23.83,2.18-31.38,11.75a2.64,2.64,0,1,0,4.15,3.27C3643.3,2989.18,3654,2985.08,3663,2987.31Zm14.39,7a2.58,2.58,0,0,0,3-2.26,2.64,2.64,0,0,0-2.26-3c-11.54-1.61-23.06,2.48-31.62,11.15a2.63,2.63,0,0,0,1.73,4.49,2.58,2.58,0,0,0,2-.78C3660.3,2993.71,3671.53,2993.51,3677.34,2994.31Zm15.91,2.46c-10.39-2-23.9,2.47-32.93,10.9a2.65,2.65,0,0,0-.12,3.74,2.61,2.61,0,0,0,1.78.83,2.67,2.67,0,0,0,2-.7c7.86-7.35,19.54-11.41,28.3-9.58a2.61,2.61,0,0,0,3.1-2.09A2.64,2.64,0,0,0,3693.25,2996.77Z" transform="translate(-1.93 17.61)"/><path class="cls-3" d="M3429.76,2998.06c-.22,2.29-74.9-.72-75-3.51-.83-24.29,1-345.28.75-359.36L3462,2668.72C3459.05,2692.75,3431.36,2981.48,3429.76,2998.06Z" transform="translate(-1.93 17.61)"/><path class="cls-4" d="M3436.45,3006.66c-.16,1.77-95,1.67-95.31-.57-2-16.62-.43-56.35-1.29-66h100.44C3438.69,2958.1,3437.49,2995.24,3436.45,3006.66Z" transform="translate(-1.93 17.61)"/><path class="cls-5" d="M3323,2980.92c1.29-5.06,4-11.49,6.14-17.36,1.57-4.36,43.94-4.4,44.24,6a62.2,62.2,0,0,1-.18,7.15c7.25,0,15.11-.27,23.41-.71a401.85,401.85,0,0,0,45.51-4.72c1,16.45.07,45,1,63.25,0,0-188.39,38.63-218.64,11.73C3216,3038.68,3262.89,3003.55,3323,2980.92Z" transform="translate(-1.93 17.61)"/><path class="cls-6" d="M3442.84,3023.07c.07,4.07.17,8,.36,11.47,0,0-188.39,38.63-218.64,11.73-1.21-1.07-1.29-2.7-.41-4.75C3276.49,3051.94,3396,3031.79,3442.84,3023.07Z" transform="translate(-1.93 17.61)"/><path class="cls-7" d="M3335.81,2996.47a2.63,2.63,0,0,0,3.71.46,2.63,2.63,0,0,0,.46-3.71c-7.5-9.61-20.38-14.47-31.32-11.9a2.65,2.65,0,1,0,1.23,5.15C3318.88,2984.29,3329.54,2988.44,3335.81,2996.47Zm-13.25,6.69a2.66,2.66,0,0,0,2,.79,2.59,2.59,0,0,0,1.7-.75,2.64,2.64,0,0,0,0-3.74c-8.51-8.71-20-12.85-31.56-11.29a2.65,2.65,0,0,0-2.28,3,2.58,2.58,0,0,0,3,2.27C3301.29,2992.64,3312.51,2992.89,3322.56,3003.16Zm-45.12-4.28a2.61,2.61,0,0,0,3.1,2.11c8.76-1.79,20.43,2.32,28.25,9.71a2.66,2.66,0,0,0,2,.71,2.64,2.64,0,0,0,1.68-4.56c-9-8.48-22.48-13-32.88-11A2.64,2.64,0,0,0,3277.44,2998.88Z" transform="translate(-1.93 17.61)"/><path class="cls-8" d="M3321.21,2759.19c14.91,4,118,7.85,137.66,8.17,4.09-41.44,6-61.12,13.77-114.36,2.19-15,21.59-15.91,24.43-.27,1.76,9.74,7.44,55,15,114.76,31.66,1.79,113.81-4.22,141.26-11,0,0-17.77-226.38-22.79-287-53.35-6.15-235.45-6.44-292.85.09C3331.78,2526.18,3326,2671.84,3321.21,2759.19Z" transform="translate(-1.93 17.61)"/><path class="cls-9" d="M3640.23,2590.2c-2.54-44.76-10.33-107.48-11-122.06-53.35-6.16-234-6.53-291.44,0-3.19,19.68-5.55,65.57-7.54,121.62C3408.43,2619.51,3553.56,2620.13,3640.23,2590.2Z" transform="translate(-1.93 17.61)"/><polygon class="cls-10" points="3392.41 2271.99 3544.45 2264.06 3542.02 2217.49 3393.76 2225.23 3392.41 2271.99"/><path class="cls-11" d="M3301.6,2259.22c-12,7.92-23.82,79.86-32.14,136.68,20.55,13.15,84.27,49.07,96.63,44.46-2.12-23.53-9.61-71.27-11.42-122.81,14-32.34,42.92-88.46,41.76-90.83C3337,2240.68,3309.73,2253.85,3301.6,2259.22Z" transform="translate(-1.93 17.61)"/><path class="cls-11" d="M3721.6,2328.44c-20.85,21.86-30.56,56.2-54.14,67.29-8.92-8.46-62.25-47.58-73.61-62.56-38.87-51.25-41.92-100.39-42.37-103.57,29.32-2.52,53.39-4,63.48-.29C3635.3,2246.86,3684.89,2292.89,3721.6,2328.44Z" transform="translate(-1.93 17.61)"/><path class="cls-12" d="M3632.61,2541.28c-68.65,48.68-207.68,51.92-295.88,12,0,0,14.21-253.55,22.24-313.17,58.75-20.83,170.18-21.87,225.31-14.81C3596.05,2300.2,3617.65,2430.54,3632.61,2541.28Z" transform="translate(-1.93 17.61)"/><path class="cls-1" d="M3398.38,2240.14a38.3,38.3,0,0,1,.81-11.22c39.16-4.7,98.15-8.63,140.42-7.47.4,1.63,1.19,3.14,1.35,4.85,2.87,29.53-26.72,56.57-66.1,60.39S3401.25,2269.68,3398.38,2240.14Z" transform="translate(-1.93 17.61)"/><path class="cls-11" d="M3423,2589.49c2.06,0-71.47-1.29-96.65-9.72,0,0,9.19-271.95,14.22-337.9,13.18-4.48,33.83-8.83,53.6-12.06,7.44-1.22,15.37,30.63,22.12,29.77Z" transform="translate(-1.93 17.61)"/><path class="cls-11" d="M3528.52,2255.19c5.29-7.89,15-25.73,15.15-34.62,22.95.51,55.06,6.48,69.52,8.24,12.58,77.17,15.43,219,31.4,333.07-22.53,14.56-59.12,21.8-98.83,23.77Z" transform="translate(-1.93 17.61)"/><path class="cls-3" d="M3414.42,2154.82l3.45,87.06c.75,18.72,25.14,33,54.49,31.79s52.54-17.29,51.8-36l-3.46-87.06Z" transform="translate(-1.93 17.61)"/><path class="cls-13" d="M3376.82,2282.24c-.13-12.54-1.07-46.57,1.47-54,0,0,16.32-19.19,17.39-20.6-5.75,12.92-2.59,31.77,21,53.41C3407.58,2258.65,3387.16,2274.17,3376.82,2282.24Z" transform="translate(-1.93 17.61)"/><path class="cls-10" d="M3416.69,2261l-25.22-18.55,3.45-10s11.67,10.21,16.76,14.73C3414.44,2249.64,3416.69,2261,3416.69,2261Z" transform="translate(-1.93 17.61)"/><path class="cls-11" d="M3381.14,2275c-1.8-10.49-5.39-39.31-2.85-46.76,0,0,16.32-19.19,17.39-20.6-1.7,13.14,7.62,30.14,16,39.58C3402.57,2244.83,3388.27,2267.8,3381.14,2275Z" transform="translate(-1.93 17.61)"/><path class="cls-13" d="M3571,2272.53c-1.17-12.49-4.32-46.82-7.62-54,0,0-20.71-18.78-21.93-20.08,7.07,12.26,8.33,32.74-12.9,56.71C3537.34,2251.88,3559.84,2265.58,3571,2272.53Z" transform="translate(-1.93 17.61)"/><path class="cls-10" d="M3528.52,2255.19l23.2-21.07-4.47-9.6s-10.55,11.38-15.14,16.4C3529.62,2243.63,3528.52,2255.19,3528.52,2255.19Z" transform="translate(-1.93 17.61)"/><path class="cls-11" d="M3565.37,2265.37c.7-10.62,1.28-39.66-2-46.81,0,0-20.71-18.78-21.93-20.08,7.07,12.26-2,32.17-9.31,42.44C3540.92,2237.61,3557.54,2259,3565.37,2265.37Z" transform="translate(-1.93 17.61)"/><path class="cls-14" d="M3417.1,2170.53a38,38,0,0,1,4.45-10.33c38.53,8.43,95.53,24.1,135.07,39.09a32.6,32.6,0,0,1-.32,5c-7,28.83-43.83,44.64-82.27,35.31S3410.1,2199.37,3417.1,2170.53Z" transform="translate(-1.93 17.61)"/><path class="cls-15" d="M3531,2301.71c32.78-1.05,56.79-2.24,77.69-4.27.15,1.3.3,2.64.45,3.95-17.12,1.66-34.22,2.69-60.1,3.68-5.81.22-11.78.42-17.83.61Z" transform="translate(-1.93 17.61)"/><path class="cls-15" d="M3339.61,2302.88c18.19.52,44.44.89,77.54.76l.08,4c-33.1.14-59.56-.22-77.81-.74C3339.49,2305.52,3339.55,2304.21,3339.61,2302.88Z" transform="translate(-1.93 17.61)"/><path class="cls-16" d="M3545.27,2279.1a6.47,6.47,0,1,0,6.13-6.81A6.47,6.47,0,0,0,3545.27,2279.1Z" transform="translate(-1.93 17.61)"/><path class="cls-16" d="M3549.41,2364.25a6.47,6.47,0,1,0,6.13-6.79A6.47,6.47,0,0,0,3549.41,2364.25Z" transform="translate(-1.93 17.61)"/><path class="cls-16" d="M3551.66,2512.32a6.47,6.47,0,1,0,6.12-6.8A6.46,6.46,0,0,0,3551.66,2512.32Z" transform="translate(-1.93 17.61)"/><path class="cls-16" d="M3549.9,2430.77a6.47,6.47,0,1,0,6.13-6.8A6.47,6.47,0,0,0,3549.9,2430.77Z" transform="translate(-1.93 17.61)"/><g class="cls-17"><path class="cls-18" d="M3391.12,2372.39c.11,2,3.69,3.49,8,3.27s7.72-2,7.61-4.08-3.69-3.5-8-3.27S3391,2370.36,3391.12,2372.39Z" transform="translate(-1.93 17.61)"/><path class="cls-18" d="M3387.29,2287c.11,2,3.69,3.49,8,3.27s7.72-2,7.61-4.08-3.68-3.5-8-3.27S3387.19,2284.94,3387.29,2287Z" transform="translate(-1.93 17.61)"/><path class="cls-18" d="M3392.22,2438.67c.11,2,3.69,3.49,8,3.27s7.72-2.06,7.62-4.09-3.69-3.49-8-3.26S3392.12,2436.64,3392.22,2438.67Z" transform="translate(-1.93 17.61)"/><path class="cls-18" d="M3393.62,2520.56c.1,2,3.68,3.49,8,3.27s7.72-2,7.62-4.08-3.69-3.5-8-3.27S3393.51,2518.53,3393.62,2520.56Z" transform="translate(-1.93 17.61)"/></g><path class="cls-19" d="M3562.71,2538.34l-221.66-14.16-12-230.82,25.66-16.57a18.65,18.65,0,0,1,9.47-2.32h187.35c2.67,0,4,2.52,4.11,5.26L3568.81,2533C3569,2536,3565.65,2538.49,3562.71,2538.34Z" transform="translate(-1.93 17.61)"/><polygon class="cls-20" points="3554.57 2550.95 3522.36 2573.63 3345.75 2559.04 3333.07 2316.07 3357.34 2301.62 3541.69 2304.03 3554.57 2550.95"/><path class="cls-21" d="M3534.92,2561.14l-192.74-15.33L3329,2293.36l194.12,5.38a7.72,7.72,0,0,1,7.39,7.58l12.86,246.51A8,8,0,0,1,3534.92,2561.14Z" transform="translate(-1.93 17.61)"/><path class="cls-22" d="M3506.76,2540.38a16,16,0,0,1-2.68,0l-134.29-11.63c-7.44-.62-13.95-6.69-14.38-14.13l-9.62-184.33c-.25-4.22.73-8.37,3.69-11.4a15.42,15.42,0,0,1,11.29-4.55l135.11,4.32A15,15,0,0,1,3510.5,2333l10,191.57a15.12,15.12,0,0,1-13.73,15.83Zm-147.46-222a11.11,11.11,0,0,0-7,3.31c-2.22,2.28-2.76,5.23-2.55,8.39l9.62,184.33c.31,5.47,5.26,9.93,10.7,10.39l134.34,11.63a11.22,11.22,0,0,0,8.67-3.08,11.1,11.1,0,0,0,3.37-8.58l-10-191.57a11,11,0,0,0-10.73-10.54l-135.11-4.33A12,12,0,0,0,3359.3,2318.36Z" transform="translate(-1.93 17.61)"/><rect class="cls-3" x="3389.17" y="2427.18" width="55.45" height="64.65" transform="translate(392.52 -453.62) rotate(8.37)"/><path class="cls-3" d="M3523.89,2499.69c-19,1.62-40.68,1.37-80.43-2.22-28.77-2.6-34.6-24.78-31.11-39.68,2-8.55,30.93-50.6,44.13-57.13,8.7-4.31,26.7-12.32,28.66-11.15,9.45,5.65.57,18-13.63,25.76-4,2.66-7.11,5.81-9.62,13.05,1.12,3.52,28.26-12.84,41.07-17.52,10.23-3.74,40-1.15,41.66,2,4,7.8-20.85,12.33-30.76,15.06-3.45.94-12.79,6.65-18.12,11,8.25.44,23.07-2.13,28.63-2.28,10.72-.28,34.05-4,37.46,2.51,2.67,5.11-11.68,10.84-30,14.75-4.44.94-20.81,4.94-31.42,7.86,0,.46,25.63.38,29.17-.47,10.48-2.52,24.43-7.26,31,1.33,1.8,2.35-20.07,14.13-31.09,15.79-4.92.74-15.72,2.81-28.84,3.9,7.65,1.18,22,1.61,25,1.66,15.25-6.21,21.56-8.16,26.62-1.81C3553.86,2484.09,3532.94,2498.92,3523.89,2499.69Z" transform="translate(-1.93 17.61)"/><path class="cls-11" d="M3413.94,2497.65c-57.76-3.83-77.41-6.4-116.27-16.1-37.23-9.3-33.07-62.14-27.76-87.88,43.55,9.29,108.8,22.16,153.57,31.34C3421.81,2434,3416.13,2482.71,3413.94,2497.65Z" transform="translate(-1.93 17.61)"/><path class="cls-23" d="M3725.34,2028.15c-2.92,45.4-35.66,79.95-64.28,81.18s-39.73-33.37-41.57-76.2,19.88-78.64,48.5-79.75C3707.11,1951.86,3728.09,1985.48,3725.34,2028.15Z" transform="translate(-1.93 17.61)"/><path class="cls-24" d="M3715,1903.21c10,152.52-86.4,227.71-227.61,236.93s-249.26-52.61-259.23-205.13,91.29-194.71,232.51-203.93S3705,1750.69,3715,1903.21Z" transform="translate(-1.93 17.61)"/><path class="cls-3" d="M3684.6,2101.4c-8.4,66-83.13,119.49-144.06,122.67-128.06,6.68-265.54-59.38-277.21-238.12s80-189.46,205.4-197.65c83.74-5.47,153.74-8.37,191.95,44.74C3684.26,1865.81,3689.76,2060.88,3684.6,2101.4Z" transform="translate(-1.93 17.61)"/><path class="cls-25" d="M3348.5,2100.25c0,10.31,15.22,18.66,34,18.64s34-8.39,33.94-18.7-15.22-18.66-34-18.65S3348.49,2089.93,3348.5,2100.25Z" transform="translate(-1.93 17.61)"/><path class="cls-25" d="M3623.23,2083.53c1.28,9.06,14.91,14.61,30.44,12.41s27.07-11.33,25.79-20.38-14.92-14.62-30.44-12.42S3622,2074.47,3623.23,2083.53Z" transform="translate(-1.93 17.61)"/><path class="cls-24" d="M3635.27,1673.94c5.36,20.66-3.8,38.93-20.94,55.08,10.54-26.48,9-59.57-21.43-98.58-18,16.5-37.22,34-56.41,51.28a88,88,0,0,0-3.64-35.18c-29.48,44-63,44.63-171.57,77.37-74.25,22.4-86.21,73.06-75.07,100.62,50.34-14.86,126.29,7.23,181.75,3.61,69.53-4.54,121.69-20.15,147.95-41.53C3647.77,1760.67,3671.06,1712.11,3635.27,1673.94Z" transform="translate(-1.93 17.61)"/><path class="cls-26" d="M3575,1989.39c-11.19,23.26-7.27,47.35,5.2,55.47,18.79,12.22,60.51,12.27,74.05-9.25,13.11-20.85,2.55-55.59-23.24-68.52C3608.41,1955.77,3585.82,1966.88,3575,1989.39Z" transform="translate(-1.93 17.61)"/><path class="cls-27" d="M3651.42,1976c-22.18-32.31-66.72-16.44-76.81,14.23,11.18-23.25,35-32.27,55.91-21.81,12.9,6.47,22.83,19.23,26.58,34.11,3,11.87,1.82,25.61-3.63,34.26C3660.12,2030.8,3667.73,1999.72,3651.42,1976Z" transform="translate(-1.93 17.61)"/><path class="cls-24" d="M3581.24,2003.6c-4,15.76,4.05,32.51,18,37.42s28.48-3.89,32.48-19.65-4-32.51-18-37.42S3585.24,1987.84,3581.24,2003.6Z" transform="translate(-1.93 17.61)"/><path class="cls-28" d="M3583.12,2000.78c-1.11,4.37,1.12,9,5,10.38s7.9-1.08,9-5.45-1.13-9-5-10.38S3584.23,1996.4,3583.12,2000.78Z" transform="translate(-1.93 17.61)"/><path class="cls-26" d="M3469.34,1998.65c16.91,20.79,17,45.22,4.45,55.53-18.85,15.53-65.75,23.36-85,4.71-18.61-18.06-13.19-54.2,13.4-71.74C3425.52,1971.81,3453,1978.52,3469.34,1998.65Z" transform="translate(-1.93 17.61)"/><path class="cls-27" d="M3380.91,1999.69c18.93-35.93,72-28.62,89-.34-16.89-20.78-45.38-25.2-66.9-11a52.69,52.69,0,0,0-23.56,38.51c-1.15,12.23,2.71,25.53,10.44,33C3381.32,2055.26,3367,2026.11,3380.91,1999.69Z" transform="translate(-1.93 17.61)"/><path class="cls-24" d="M3399.69,2018.9a29.91,29.91,0,1,0,37.24-20.06A29.91,29.91,0,0,0,3399.69,2018.9Z" transform="translate(-1.93 17.61)"/><path class="cls-28" d="M3401.86,2016a8.3,8.3,0,1,0,10.34-5.56A8.31,8.31,0,0,0,3401.86,2016Z" transform="translate(-1.93 17.61)"/><path class="cls-24" d="M3645.52,1903.44a9.14,9.14,0,0,1-6.5-.88c-16.14-8.85-42.4-6.17-61.15,6.25a9.2,9.2,0,1,1-10.16-15.35c24.38-16.18,58.1-19.1,80.15-7a9.2,9.2,0,0,1-2.34,17Z" transform="translate(-1.93 17.61)"/><path class="cls-24" d="M3366.25,1927.79a9.2,9.2,0,0,1-6.1-16.08c18.76-16.68,52.25-21.39,79.7-11.1a9.2,9.2,0,0,1-6.45,17.24c-21.07-7.93-47.28-4.61-61,7.62A9.18,9.18,0,0,1,3366.25,1927.79Z" transform="translate(-1.93 17.61)"/><path class="cls-29" d="M3598.91,2098.65c-4-16.36-29.19-10.77-70.69-8.9-2.17.1-10.6.53-12.78.66-41.46,2.42-67.07-.55-69.39,16.14-4.46,32.14,37.38,64.83,79.51,62.78l.73,0C3568.41,2167,3606.66,2130.16,3598.91,2098.65Z" transform="translate(-1.93 17.61)"/><path class="cls-30" d="M3526.32,2170l-.73,0c-13.67.65-28-2.49-41.59-9.06l-.83-.38.65-.64c10.44-10.38,24.9-16.55,40.73-17.37s30.82,3.84,42.3,13.08l.71.57-.78.47C3553.94,2164.6,3540,2169.2,3526.32,2170Z" transform="translate(-1.93 17.61)"/><path class="cls-1" d="M3522.94,2111.31c-29,1.49-53.58-6.25-57.22-18l-.21-.72,112.62-5.81-.14.74C3575.56,2099.58,3551.89,2109.81,3522.94,2111.31Z" transform="translate(-1.93 17.61)"/><path class="cls-31" d="M3547.19,2066.16a2.1,2.1,0,0,1-2.19-1.62c-1.69-7.24-7.79-11.59-15.53-11.09s-13.39,5.72-13.95,13a2.11,2.11,0,1,1-4.2-.32c.71-9.28,8.07-16.21,17.88-16.85s17.75,5.12,19.91,14.34a2.11,2.11,0,0,1-1.57,2.53Z" transform="translate(-1.93 17.61)"/><path class="cls-24" d="M3332.55,1944.41c2.87,75-21.79,124.43-53.57,126.42s-61-86.45-65.71-161.36c-5.36-85.79,37.75-123.1,69.31-130.27C3313.64,1772.14,3329.28,1859.16,3332.55,1944.41Z" transform="translate(-1.93 17.61)"/><path class="cls-3" d="M3218.35,2091.63c17.91,47.34,68.56,72.82,103.65,64.22s15.25-152.83-50.3-158.51C3217.11,1992.61,3201.51,2047.14,3218.35,2091.63Z" transform="translate(-1.93 17.61)"/><path class="cls-32" d="M3257.68,2085.36c5,20.28,29.88,35.2,46.68,27.68,6.55-2.93-12.47-73.46-23.3-72.33C3262.75,2042.64,3252.71,2065.09,3257.68,2085.36Z" transform="translate(-1.93 17.61)"/><path class="cls-33" d="M3740.08,2329.54l-119.65,6.24,14.62,160.95c2.37,8.29,26.43,13.51,55.19,11.79s51.85-9.79,53.2-18.31Z" transform="translate(-1.93 17.61)"/><path class="cls-34" d="M3623.68,2371.59c12.78.51,31.33-2,51.77-6.88,30.65-7.28,53.62-16.51,64.85-25.23l-.22-9.94-119.65,6.24Z" transform="translate(-1.93 17.61)"/><path class="cls-33" d="M3610.05,2315.94l1.08,20.58c.67,11.23,31.94,18.48,69.75,16.2s67.82-13.2,67.15-24.43l-1-19.49Z" transform="translate(-1.93 17.61)"/><path class="cls-35" d="M3747,2308.8c.68,11.22-29.53,21.62-67.34,23.89s-68.94-5.53-69.62-16.75,29.38-21.62,67.18-23.89S3746.34,2297.57,3747,2308.8Z" transform="translate(-1.93 17.61)"/><path class="cls-36" d="M3693.43,2306.47c.08,1.55-5,3.08-11.35,3.41s-11.56-.66-11.64-2.21,5-3.08,11.35-3.41S3693.35,2304.92,3693.43,2306.47Z" transform="translate(-1.93 17.61)"/><path class="cls-37" d="M3681.4,2309.21c4.37-.35,7.3-.33,7.12-4.71l-5.78-110.77a8,8,0,0,0-6.4-7.43l-41.8-8.92a7.83,7.83,0,0,0-9.42,6.1,7.94,7.94,0,0,0,6.11,9.43l35.93,7.63,5.46,104.62C3672.78,2309.1,3674.55,2309.75,3681.4,2309.21Z" transform="translate(-1.93 17.61)"/><path class="cls-38" d="M3714.66,2405.57c.39,7.43-12.32,14.13-28.37,15s-29.43-4.41-29.82-11.84,12.35-14.23,28.41-15.06S3714.27,2398.14,3714.66,2405.57Z" transform="translate(-1.93 17.61)"/><path class="cls-3" d="M3744.49,2390.28c-17.71.71-31.56,8.17-30.93,16.67s15.5,14.82,33.21,14.11,31.56-8.17,30.93-16.67S3762.21,2389.57,3744.49,2390.28Z" transform="translate(-1.93 17.61)"/><path class="cls-3" d="M3737.78,2368.23c-17.36,2.94-29.79,12.18-27.77,20.65s17.74,12.95,35.09,10,29.79-12.18,27.77-20.64S3755.13,2365.3,3737.78,2368.23Z" transform="translate(-1.93 17.61)"/><path class="cls-3" d="M3742.93,2414.08c-16.33-2.1-30.41,3-31.45,11.31s11.37,16.8,27.71,18.89,30.41-3,31.44-11.31S3759.26,2416.17,3742.93,2414.08Z" transform="translate(-1.93 17.61)"/><ellipse class="cls-3" cx="3738" cy="2453.05" rx="13.14" ry="25.51" transform="translate(385.22 5430.71) rotate(-74.73)"/><path class="cls-3" d="M3640.82,2388.17c-11.25-3.39-22.51.35-25.14,8.35s4.37,17.24,15.62,20.63,22.54-.45,25.17-8.45S3652.07,2391.56,3640.82,2388.17Z" transform="translate(-1.93 17.61)"/></svg>