<svg xmlns="http://www.w3.org/2000/svg" xmlns:xlink="http://www.w3.org/1999/xlink" viewBox="0 0 202.03 264.13"><defs><style>.cls-1{isolation:isolate;}.cls-2{fill:#f7bd6b;}.cls-3{fill:url(#Áåçûìÿííûé_ãðàäèåíò_131);}.cls-4{fill:#f8c8a2;}.cls-5{fill:#fc955d;}.cls-6{fill:url(#Áåçûìÿííûé_ãðàäèåíò_131-2);}.cls-7{fill:#c75b3e;}.cls-8{fill:#322821;}.cls-9{fill:#82675c;}.cls-10{fill:url(#Áåçûìÿííûé_ãðàäèåíò_131-3);}.cls-11{fill:#249299;}.cls-12{fill:#ffb858;}.cls-13{fill:#613b2d;}.cls-14{fill:#583122;}.cls-15{fill:#c3dfdc;}.cls-16,.cls-17{mix-blend-mode:screen;}.cls-16{fill:url(#Áåçûìÿííûé_ãðàäèåíò_120);}.cls-17{fill:url(#Áåçûìÿííûé_ãðàäèåíò_120-2);}.cls-18{fill:url(#Áåçûìÿííûé_ãðàäèåíò_131-4);}.cls-19{fill:url(#Áåçûìÿííûé_ãðàäèåíò_131-5);}</style><linearGradient id="Áåçûìÿííûé_ãðàäèåíò_131" x1="580.41" y1="498.79" x2="554.94" y2="511.99" gradientTransform="matrix(0.21, -0.98, -0.98, -0.21, 902.78, 845.66)" gradientUnits="userSpaceOnUse"><stop offset="0" stop-color="#fff4d7"/><stop offset="0.29" stop-color="#fef0d3"/><stop offset="0.57" stop-color="#fce6c8"/><stop offset="0.83" stop-color="#f7d4b5"/><stop offset="1" stop-color="#f4c5a5"/></linearGradient><linearGradient id="Áåçûìÿííûé_ãðàäèåíò_131-2" x1="761.9" y1="206.16" x2="746.29" y2="232.68" gradientTransform="matrix(-0.99, -0.11, -0.11, 0.99, 1325.82, 38.11)" xlink:href="#Áåçûìÿííûé_ãðàäèåíò_131"/><linearGradient id="Áåçûìÿííûé_ãðàäèåíò_131-3" x1="762.81" y1="193.51" x2="637.65" y2="244.82" gradientTransform="matrix(-1, 0, 0, 1, 1299.99, 0)" xlink:href="#Áåçûìÿííûé_ãðàäèåíò_131"/><linearGradient id="Áåçûìÿííûé_ãðàäèåíò_120" x1="715.14" y1="125.12" x2="710.52" y2="142.71" gradientTransform="matrix(-1, 0, 0, 1, 1299.99, 0)" gradientUnits="userSpaceOnUse"><stop offset="0" stop-color="#386541"/><stop offset="1"/></linearGradient><linearGradient id="Áåçûìÿííûé_ãðàäèåíò_120-2" x1="745.83" y1="127.15" x2="741.44" y2="143.86" xlink:href="#Áåçûìÿííûé_ãðàäèåíò_120"/><linearGradient id="Áåçûìÿííûé_ãðàäèåíò_131-4" x1="660.69" y1="215.25" x2="635.22" y2="228.45" gradientTransform="matrix(-1, 0, 0, 1, 1299.99, 0)" xlink:href="#Áåçûìÿííûé_ãðàäèåíò_131"/><linearGradient id="Áåçûìÿííûé_ãðàäèåíò_131-5" x1="687.35" y1="174.53" x2="628.79" y2="211.29" gradientTransform="matrix(-1, 0, 0, 1, 1299.99, 0)" xlink:href="#Áåçûìÿííûé_ãðàäèåíò_131"/></defs><g class="cls-1"><g id="Capa_2" data-name="Capa 2"><polygon class="cls-2" points="24.7 76.7 1.51 0 0 0.7 21.5 77.87 24.7 76.7"/><path class="cls-3" d="M515.77,168.93a45,45,0,0,1-7.56,3.74c-.74.28-1.49.55-2.24.79,6.39,12,12.91,23.45,25.59,32.33a6.55,6.55,0,0,0,8.31-.75c2.1-2.07,4.11-4.95,4.54-6.95C539.91,193.28,526,182.7,515.77,168.93Z" transform="translate(-469.24 -67.02)"/><path class="cls-4" d="M507.7,171.4c-.76.34-1.51.69-2.26,1l.53,1c6.39,12,12.91,23.45,25.59,32.33a6.46,6.46,0,0,0,5.65.85A62.19,62.19,0,0,1,513.76,181a23.25,23.25,0,0,0,6.11-4.94,14.24,14.24,0,0,1-7.39,3.62,30.89,30.89,0,0,1-4.27-7C508,172.25,507.85,171.83,507.7,171.4Z" transform="translate(-469.24 -67.02)"/><path class="cls-5" d="M511.55,162.62,502,166c1.18,2.17,2.31,4.33,3.45,6.47l.53,1c.75-.24,1.5-.51,2.24-.79a45,45,0,0,0,7.56-3.74C514.27,166.89,512.85,164.79,511.55,162.62Z" transform="translate(-469.24 -67.02)"/><path class="cls-6" d="M564.84,164.62l-.73-.08c-3.12-.32-5.58,1.38-8.22,2.86a65.61,65.61,0,0,0-7.79,5.1,54.75,54.75,0,0,0-12.4,13.1,51.61,51.61,0,0,0-3,5.08,57,57,0,0,0-3.92,9.66c.61,3.16,4.81,7.67,7.89,6.82a137.63,137.63,0,0,0,45.05-21.81q3.93-2.9,7.66-6.08c.61-.52-4.15-5.11-4.6-5.52a37.05,37.05,0,0,0-19.95-9.13Z" transform="translate(-469.24 -67.02)"/><path class="cls-4" d="M556.36,195.15c-7.21,2.7-14.57,5.37-22.26,6a24.27,24.27,0,0,1-1.39-10.48,57,57,0,0,0-3.92,9.66c.61,3.16,4.81,7.67,7.89,6.82a137.63,137.63,0,0,0,45.05-21.81Q569.1,190.38,556.36,195.15Z" transform="translate(-469.24 -67.02)"/><path class="cls-5" d="M502.65,166.14c-4-.82-8.14-1.8-12.15-2.62A80.31,80.31,0,0,1,486.35,150a17.08,17.08,0,0,1-3.64-.43,5.62,5.62,0,0,1-3.08-1.88c-1-1.34-1-3-1.09-4.74a34.25,34.25,0,0,1,9.51-1,5.74,5.74,0,0,0,.53.76,2.87,2.87,0,0,0,2.1,1c.06-.77.07-1.38.12-2.15,4.5-1.41,8.82-3.21,13.53-2.9,2.16.14,3.91,1.73,5.37,3.31a54,54,0,0,1,4.4,5.47,79.37,79.37,0,0,1-2.49,16.71C508.91,165.5,505.64,165.62,502.65,166.14Z" transform="translate(-469.24 -67.02)"/><path class="cls-7" d="M504,143.91a20.37,20.37,0,0,1-7,1.61,27.24,27.24,0,0,1-.17,8.31,10.64,10.64,0,0,1-3.67.41,12.27,12.27,0,0,0,4.34.88,45.36,45.36,0,0,0,1.14-8.19A36.87,36.87,0,0,0,504,143.91Z" transform="translate(-469.24 -67.02)"/><path class="cls-7" d="M488.08,141.9a10,10,0,0,1-.48,4.61,4.43,4.43,0,0,1-1.46,2.22,3.77,3.77,0,0,1-2.23.63,11.5,11.5,0,0,1-2.32-.34,14.92,14.92,0,0,0,6.3,1.57c.71-1.85,1.34-3.74,1.88-5.65a2.37,2.37,0,0,0,.1-1.26A4.05,4.05,0,0,0,488.08,141.9Z" transform="translate(-469.24 -67.02)"/><path class="cls-7" d="M496.92,154.67a11.79,11.79,0,0,1-1.37,7.43,11.24,11.24,0,0,1-4.06,1.05,41.27,41.27,0,0,0,3.65-2.58c.09-2,.17-3.88.26-5.88A5.15,5.15,0,0,1,496.92,154.67Z" transform="translate(-469.24 -67.02)"/><path class="cls-7" d="M487.2,153.4l3-.81c0,.34.16.64.2,1-1,.48-1.76,1.1-2.72,1.57A4.15,4.15,0,0,1,487.2,153.4Z" transform="translate(-469.24 -67.02)"/><path class="cls-7" d="M488.58,158.47c1.15-.61,2.14-1.26,3.29-1.88.23.29.37.51.6.8l-3.21,2.37C489,159.19,488.84,159.05,488.58,158.47Z" transform="translate(-469.24 -67.02)"/><path class="cls-8" d="M635.74,321.84a42.92,42.92,0,0,0-2.32,9.18c.15,0,.37-.08.53-.08h15.94c2.18,0,4.24.22,6.27-.71a12.07,12.07,0,0,0,5.57-5.19,4.72,4.72,0,0,0-3.15-1.12,13.21,13.21,0,0,1-7.53,3.49c-3.09-1.56-5.74-3-8.83-4.56C640.51,322,637.65,322,635.74,321.84Z" transform="translate(-469.24 -67.02)"/><path class="cls-8" d="M562.09,318.68a30.05,30.05,0,0,1,4.58,12.07h-8.2a4.25,4.25,0,0,0-1.19-2,4.39,4.39,0,0,0-2.32,2.34h-9.3c-4.61,0-8.86.39-12.72-2.7A12.87,12.87,0,0,1,530.6,326a19.45,19.45,0,0,0,2.68-1.29,35.91,35.91,0,0,0,7.19,2.39c.41-.34.89-.54,1.29-.88.43.16,1,.11,1.48.27A84.23,84.23,0,0,1,562.09,318.68Z" transform="translate(-469.24 -67.02)"/><path class="cls-9" d="M633.78,316.52c.45,2.68,1,5.48,2.63,7.62a5.64,5.64,0,0,0,2.06,1.7,4.13,4.13,0,0,0,4.66-1,27.3,27.3,0,0,1-3.16-9.76A18.62,18.62,0,0,1,633.78,316.52Z" transform="translate(-469.24 -67.02)"/><path class="cls-9" d="M563,321.19a3.63,3.63,0,0,1-1.34,3,2.78,2.78,0,0,1-3.43-.9,7.84,7.84,0,0,1-1.31-3.6,8.68,8.68,0,0,0-1.25-3.64,25.44,25.44,0,0,1,3.39-.74,5.43,5.43,0,0,1,2.44.24C563.17,316.39,563.05,319.61,563,321.19Z" transform="translate(-469.24 -67.02)"/><path class="cls-10" d="M520.81,247.66c6.33,7,15.05,11.54,24.17,14s18.66,2.86,28.08,2.53c11.91-.41,23.85-2,35.13-5.83a75.27,75.27,0,0,0,25.07-14q2.44-2.1,4.7-4.44a66.22,66.22,0,0,0-11.11-31.78,9,9,0,0,0,1.06-2.29,9.82,9.82,0,0,0-3.26-3.12c.52-2.51,1.34-7.65,1.34-7.65,2.44-2.83,4.73-6.08,5.06-9.8a40.52,40.52,0,0,0-3.37-20.06,145.42,145.42,0,0,0-26.32-5.87,83.39,83.39,0,0,0-30,1.43,66.15,66.15,0,0,0-9.39,3.68c-3.54,7.47-9.67,17.84-12.91,23.24A21.88,21.88,0,0,0,548,194.1c-15.2,12.62-24,32-26.19,51.46C521.49,246.26,521.1,247,520.81,247.66Z" transform="translate(-469.24 -67.02)"/><path class="cls-4" d="M612.87,207.12c-4.64,3.48-9.34,6.55-14.9,8.18a65.65,65.65,0,0,0,16.92-4.81,75.42,75.42,0,0,1,10.59,32.9c2-.81,4.48-1.22,6.52-2a16.49,16.49,0,0,1,1.26,2.93q2.44-2.1,4.7-4.44a66.22,66.22,0,0,0-11.11-31.78,9,9,0,0,0,1.06-2.29,9.82,9.82,0,0,0-3.26-3.12c.52-2.51,1.34-7.65,1.34-7.65,2.44-2.83,4.73-6.08,5.06-9.8a40.52,40.52,0,0,0-3.37-20.06,145.42,145.42,0,0,0-26.32-5.87c.59,1.29,2,2.59,2.59,3.72a57.16,57.16,0,0,1,18.28,9.26,62.5,62.5,0,0,1-7.32,24.68c-21.18,4.34-43,4-63.67-2.38a166.67,166.67,0,0,0,56.57,8.06C609.33,204.15,611.35,205.6,612.87,207.12Z" transform="translate(-469.24 -67.02)"/><path class="cls-11" d="M593.56,189.29c-.11-3.44-.26-6.78-.37-10.23a8.84,8.84,0,0,1,4.15.2l-.18,9.91A15.45,15.45,0,0,1,593.56,189.29Z" transform="translate(-469.24 -67.02)"/><path class="cls-11" d="M570.34,171.51c.41,1.12.84,2.43,1.24,3.54a37.61,37.61,0,0,1,9.74,1.31,29.51,29.51,0,0,0,3.59-3.3,58.05,58.05,0,0,0-6.81-6.77A41.52,41.52,0,0,0,570.34,171.51Z" transform="translate(-469.24 -67.02)"/><path class="cls-11" d="M572.55,174.13c-5,7-13.87,11.39-17.5,19.23a89.32,89.32,0,0,0-6.29,18.75,24,24,0,0,0,8,8.45,44.93,44.93,0,0,0,13.58-8.84,55,55,0,0,1,2.62-16.6c3.36-6.19,6.71-12.42,8.57-19.22Z" transform="translate(-469.24 -67.02)"/><path class="cls-12" d="M558.78,186.07a25.73,25.73,0,0,1,3-2.77,45.38,45.38,0,0,1,8.54.93c-.29.46-.39,1-.68,1.49C565.92,186,562.46,186,558.78,186.07Z" transform="translate(-469.24 -67.02)"/><path class="cls-13" d="M523.87,250.68c.25,1.53.54,3.07.86,4.6a119.38,119.38,0,0,0,19,43.6,15.37,15.37,0,0,0,3.87,2.53,75.18,75.18,0,0,1,6.91,15.75c1.75.08,3.48.06,5.2,0s3.34-.22,5-.41c.44-6.67-4.21-15.82-2.33-22.4a41.46,41.46,0,0,1,3.62-8.9l.63.08c15.78,1.9,34,3.25,46.14,10.92a76.94,76.94,0,0,1,18.3,23.91,50.56,50.56,0,0,0,6-.61c1.75-.27,3.49-.63,5.21-1.05-.9-4.71-2.18-12.89-2.16-16,1-3.1,2.23-6.59,2.16-9.83-.18-8.34-1.19-17.48-2.11-25.28.44-1.24,1-2,.91-3.29a88.23,88.23,0,0,0-3.18-20.81c-.25-.92-.52-1.84-.81-2.75a73.78,73.78,0,0,1-28.91,17.62c-11.28,3.81-23.22,5.42-35.13,5.83a104.63,104.63,0,0,1-23.53-1.48c-1.53-.3-3-.65-4.55-1.05A51.7,51.7,0,0,1,523.87,250.68Z" transform="translate(-469.24 -67.02)"/><path class="cls-14" d="M549.53,262.68A45.55,45.55,0,0,0,566,267.39c8.19.85,16.45,0,24.64-.81,11.91-1.19,23.85-2.77,34.59-8.05,5.72,15.35,6.33,22.18,8,38.46-1.15,2-1.82,3.55-3,5.57.78.05,2.06.21,2.84.25a63.55,63.55,0,0,0,3.91,16.91c1.75-.27,3.49-.63,5.21-1.05-.9-4.71-2.18-12.89-2.16-16,1-3.1,2.23-6.59,2.16-9.83-.18-8.34-1.19-17.48-2.11-25.28.44-1.24,1-2,.91-3.29a88.23,88.23,0,0,0-3.18-20.81c-.25-.92-.52-1.84-.81-2.75a73.78,73.78,0,0,1-28.91,17.62c-11.28,3.81-23.22,5.42-35.13,5.83A104.63,104.63,0,0,1,549.53,262.68Z" transform="translate(-469.24 -67.02)"/><path class="cls-4" d="M588.74,188.88a48.56,48.56,0,0,0,18.53-1.82,5.57,5.57,0,0,1-2.76,1.73A30.13,30.13,0,0,1,588.74,188.88Z" transform="translate(-469.24 -67.02)"/><path class="cls-11" d="M600.23,192.83c0-3.12-.1-6.17-.15-9.29a18.37,18.37,0,0,1,3.12.55,36.33,36.33,0,0,1-.89,8.38C601.56,192.61,601,192.68,600.23,192.83Z" transform="translate(-469.24 -67.02)"/><path class="cls-4" d="M569.55,160.53a83.43,83.43,0,0,0-4.64,15.9,59,59,0,0,1,12.56-9.13,131.48,131.48,0,0,1,12.28,12.48c9.18-5,16-10.37,22.25-18.75a118.73,118.73,0,0,1-21.72,16.72,102.14,102.14,0,0,0-12.19-12.33,85.24,85.24,0,0,0-11.21,8.27C567.87,169.34,568.56,164.87,569.55,160.53Z" transform="translate(-469.24 -67.02)"/><path class="cls-4" d="M549.71,231.9a47.74,47.74,0,0,0,.57,23.8q-3.25-4.51-6.5-9c.78,1.08,1.06,3,1.66,4.29a29.63,29.63,0,0,0,2.43,4.15c.56.78,1.48,2.47,2.73,2s.5-2.18.34-3.23C549.83,246.61,549.77,239.24,549.71,231.9Z" transform="translate(-469.24 -67.02)"/><path class="cls-4" d="M598.74,239.75c-.88,5.58-1.79,11.25-4.29,16.3a16.11,16.11,0,0,0-1.57-8.08,59.23,59.23,0,0,1-.79,10.64,21.39,21.39,0,0,0,15.68-13c-1.16,1-10.35,10-11.13,8.55-.21-.38,1-2.72,1.18-3.21a26,26,0,0,0,.87-3.79C599.08,244.61,598.74,242.27,598.74,239.75Z" transform="translate(-469.24 -67.02)"/><path class="cls-8" d="M532.74,256.81A56.57,56.57,0,0,0,545,261.63a69.57,69.57,0,0,0,8.69,1.73,113.15,113.15,0,0,0,19.39.8l.4,0a141.25,141.25,0,0,0,19.36-1.95c.16,1,.37,1.91.61,2.86a117.87,117.87,0,0,1-39.49.75A116.73,116.73,0,0,1,540.72,263a59.46,59.46,0,0,1-7.64-2.63C533,259.19,532.86,258,532.74,256.81Z" transform="translate(-469.24 -67.02)"/><path class="cls-8" d="M528.93,254.55c.14,1.33.28,2.66.41,4a26.54,26.54,0,0,1-4.61-3.25c-.32-1.53-.61-3.07-.86-4.6A43.14,43.14,0,0,0,528.93,254.55Z" transform="translate(-469.24 -67.02)"/><path class="cls-8" d="M608.19,258.33a78.86,78.86,0,0,0,13.93-6.22c.17.42.34.84.52,1.26s.4.94.6,1.4a88.47,88.47,0,0,1-13.61,6,116,116,0,0,1-12.53,3.55c-.17-.94-.36-1.88-.58-2.81A102,102,0,0,0,608.19,258.33Z" transform="translate(-469.24 -67.02)"/><path class="cls-8" d="M625.68,250.48c0-.15-.09-.3-.13-.45a69.55,69.55,0,0,0,11.55-9.32c.29.91.56,1.83.81,2.75a53.87,53.87,0,0,1-11.48,9.44C626.17,252.1,625.92,251.29,625.68,250.48Z" transform="translate(-469.24 -67.02)"/><path class="cls-12" d="M553.67,263.36c.09.81.19,1.62.27,2.44a117.26,117.26,0,0,0,19.82,1.29,29.18,29.18,0,0,0-.3-2.95l-.4,0A113.15,113.15,0,0,1,553.67,263.36Z" transform="translate(-469.24 -67.02)"/><path class="cls-14" d="M557.84,285.93a52,52,0,0,0-3.18,13,49.07,49.07,0,0,1,5,18.16c1.67-.08,3.34-.22,5-.41.44-6.67-4.21-15.82-2.33-22.4a41.46,41.46,0,0,1,3.62-8.9l.63.08a85.61,85.61,0,0,0-13.39-2.22C554.68,284.16,556.41,285.05,557.84,285.93Z" transform="translate(-469.24 -67.02)"/><path class="cls-14" d="M559.93,270.7a25.31,25.31,0,0,0,7.37,13.89A41.48,41.48,0,0,1,559.93,270.7Z" transform="translate(-469.24 -67.02)"/><path class="cls-5" d="M614.6,116.49a74.64,74.64,0,0,0-23.5-6.28,51.84,51.84,0,0,0-24,3.38,48.86,48.86,0,0,0-6.84,13.18,46.75,46.75,0,0,1,.35,6,55.83,55.83,0,0,0-6.35,17.29c.1,3.37,1.53,7.36,3.22,10.76,3.3,5.23,13.7,7.55,21.34,8.47,7.85.94,16-.74,23.53-3.26,3.7-2.57,7.19-7.32,9.45-12.07a26.64,26.64,0,0,0,1.5-5.38c1.09-.52,2.35-1.33,3.44-1.85A58.54,58.54,0,0,0,614.6,116.49Z" transform="translate(-469.24 -67.02)"/><path class="cls-15" d="M618.05,138.77c-3.62,0-7.25-.14-10.87-.4a49.8,49.8,0,0,1-.88-13.94,9.19,9.19,0,0,0,2.76-3.15c-1.79-2.39-3.66-6.36-5.45-8.75-9.14-2-18-3-27.56-1.58l-2.66.58a13,13,0,0,1,6.75-7.4,154.89,154.89,0,0,1,19,2.23A51.35,51.35,0,0,1,616.78,113a15.23,15.23,0,0,0,1.43-2.19h.12a7.1,7.1,0,0,1-.85,3.9c.75,0,1.5.31,2.24.28-.65.72-1,1.5-1.77,2A57.18,57.18,0,0,1,618.05,138.77Z" transform="translate(-469.24 -67.02)"/><path class="cls-15" d="M584.59,122.69a7.44,7.44,0,0,1,2.46-5.88,24.49,24.49,0,0,1,13.25,7.37,9,9,0,0,1-2.7,3C593.43,125.82,588.57,124.55,584.59,122.69Zm-24.17,4.71a33.85,33.85,0,0,0,10.72-3.51,9.88,9.88,0,0,0-.75-5.44,38,38,0,0,0-10.77,5.69A7,7,0,0,0,560.42,127.4Z" transform="translate(-469.24 -67.02)"/><path class="cls-13" d="M577.28,147a130.21,130.21,0,0,0,20.43.55,49,49,0,0,0,2.34-18.82,12.23,12.23,0,0,0,2.11-4.26,122.15,122.15,0,0,0-26,1.71,21,21,0,0,0,.74,3.16A112.38,112.38,0,0,0,577.28,147Z" transform="translate(-469.24 -67.02)"/><path class="cls-11" d="M579.71,144.47a142.84,142.84,0,0,0,16.16.29,110.21,110.21,0,0,0,1.55-15.41q-3.21-.39-6.45-.49a73.42,73.42,0,0,0-10.17.38c-.56,0-1.11.12-1.66.19A62.09,62.09,0,0,0,579.71,144.47Z" transform="translate(-469.24 -67.02)"/><path class="cls-13" d="M547.38,131.54a88.82,88.82,0,0,0,2.15,16,41.11,41.11,0,0,0,17.65-.82,154.5,154.5,0,0,0,.06-16.52,9.39,9.39,0,0,0,.62-3.36A54.17,54.17,0,0,0,546.17,128a22.47,22.47,0,0,0,1.16,3.15Z" transform="translate(-469.24 -67.02)"/><path class="cls-11" d="M549.33,131.2a113.4,113.4,0,0,0,1.35,14.1,29.17,29.17,0,0,0,14.44-1,103,103,0,0,0-.2-13.61c-1.59-.09-3.19-.14-4.79-.14a81.61,81.61,0,0,0-10,.59C549.85,131.14,549.59,131.16,549.33,131.2Z" transform="translate(-469.24 -67.02)"/><path class="cls-13" d="M577.14,137a13.81,13.81,0,0,0-10.41-.58c.06-1.51.21-2.83.27-4.34a22.3,22.3,0,0,1,10.47-1A36.61,36.61,0,0,1,577.14,137Z" transform="translate(-469.24 -67.02)"/><path class="cls-13" d="M599.15,136.44l15.11-.35c.21-.88.28-1.92.5-2.81l-15.48-1.94C599.21,133,599.22,134.81,599.15,136.44Z" transform="translate(-469.24 -67.02)"/><path class="cls-16" d="M580.8,129.24l4.58,14.15,8.18.46-2.59-15A73.42,73.42,0,0,0,580.8,129.24Z" transform="translate(-469.24 -67.02)"/><path class="cls-17" d="M550.12,131.11l4.31,13.33,8.18.46-2.48-14.38A81.61,81.61,0,0,0,550.12,131.11Z" transform="translate(-469.24 -67.02)"/><path class="cls-5" d="M572.49,135.52a13.87,13.87,0,0,0-4.59,0,4.5,4.5,0,0,0-3.41,2.7,3.87,3.87,0,0,0,1,3.82,6.68,6.68,0,0,0,3.77,1.75,8.16,8.16,0,0,0,4.35-.5,5.81,5.81,0,0,0,3.08-3,15.47,15.47,0,0,1-.32-3.72C575.25,136.36,573.67,135.67,572.49,135.52Z" transform="translate(-469.24 -67.02)"/><path class="cls-7" d="M565.52,154.15a21,21,0,0,0,18.39-1.88,9.78,9.78,0,0,0,3.72-.3,9.14,9.14,0,0,1-6.25-2.36,5.12,5.12,0,0,0,1.71,2.25A25.78,25.78,0,0,1,565.52,154.15Z" transform="translate(-469.24 -67.02)"/><path class="cls-7" d="M588.62,148.11a9.75,9.75,0,0,1,6.55,6.59A26.29,26.29,0,0,0,588.62,148.11Z" transform="translate(-469.24 -67.02)"/><path class="cls-7" d="M560,156.31a10.19,10.19,0,0,1,3.62-5.38,3.89,3.89,0,0,0-2.73,2A7.51,7.51,0,0,0,560,156.31Z" transform="translate(-469.24 -67.02)"/><path class="cls-7" d="M570.16,159.68a2.67,2.67,0,0,0,1.84.9,25.69,25.69,0,0,0,4.87.41c2.21,0,1.82-2.58-.07-2.85A11.48,11.48,0,0,0,570.16,159.68Z" transform="translate(-469.24 -67.02)"/><path class="cls-7" d="M567.78,116.24a35.45,35.45,0,0,1,12.63-2.72A26.44,26.44,0,0,1,593,116.3a79.58,79.58,0,0,0-12.41-2.16A28.58,28.58,0,0,0,567.78,116.24Z" transform="translate(-469.24 -67.02)"/><path class="cls-7" d="M572.05,116.86a24.69,24.69,0,0,1,11.71-.49,25,25,0,0,1-3.32.46Z" transform="translate(-469.24 -67.02)"/><path class="cls-7" d="M564.76,141.07a10.91,10.91,0,0,0,11.45.42,7.17,7.17,0,0,1-5.75,3.16A7.53,7.53,0,0,1,564.76,141.07Z" transform="translate(-469.24 -67.02)"/><path class="cls-5" d="M611.21,146.31a14.28,14.28,0,0,1-.56-6.9c.41-2.68,1.49-5.6,3.8-7.24,2.09-1.49,5-2.63,7.6-1.56a5.68,5.68,0,0,1,3.24,5.62,12.93,12.93,0,0,1-2.73,6.49,15.37,15.37,0,0,1-6.64,5.28C613.38,149.06,612,148,611.21,146.31Z" transform="translate(-469.24 -67.02)"/><path class="cls-7" d="M619.77,132.68a3.71,3.71,0,0,1,2.48.83,3.89,3.89,0,0,1,1,2.54,9.72,9.72,0,0,1-6.57,10.08,16.37,16.37,0,0,0,3.86-4,5.27,5.27,0,0,0,1-4c-.17-.61-.63-1.24-1.27-1.23a1.17,1.17,0,0,0-1,.75,2.25,2.25,0,0,0-.08,1.31,4.52,4.52,0,0,1,.21,1.62,1.71,1.71,0,0,1-1.5,1.32,1.77,1.77,0,0,1-2-1.85,2.83,2.83,0,0,1,.76-1.58c.55-.62,1.33-1.15,1.44-2,.19-1.44-2.07-1.48-1.92-2.43S619,132.67,619.77,132.68Z" transform="translate(-469.24 -67.02)"/><path class="cls-18" d="M638,235.37A44.6,44.6,0,0,1,643.2,242c.43.66.85,1.34,1.24,2,10.43-8.74,20.26-17.49,26.32-31.73a6.56,6.56,0,0,0-2.46-8c-2.46-1.63-5.7-3-7.74-3C656.79,206.71,649.33,222.55,638,235.37Z" transform="translate(-469.24 -67.02)"/><path class="cls-4" d="M642.07,242.76c.48.67,1,1.33,1.5,2l.87-.73c10.43-8.74,20.26-17.49,26.32-31.73a6.44,6.44,0,0,0-.34-5.7,62.19,62.19,0,0,1-20.25,28.26,22.84,22.84,0,0,0-6.1-4.95,14.16,14.16,0,0,1,5.07,6.47A31.13,31.13,0,0,1,643.2,242C642.83,242.27,642.45,242.52,642.07,242.76Z" transform="translate(-469.24 -67.02)"/><path class="cls-5" d="M632.68,240.81l5.27,8.66c1.87-1.6,3.75-3.16,5.62-4.72l.87-.73c-.39-.68-.81-1.36-1.24-2a44.6,44.6,0,0,0-5.23-6.63C636.29,237.27,634.53,239.09,632.68,240.81Z" transform="translate(-469.24 -67.02)"/><path class="cls-5" d="M635.06,240.61l-12.79-3.26c-1.12-.28-1.86-.57-3-.86A38.62,38.62,0,0,0,609.47,247a22.21,22.21,0,0,0,.31,3,25.27,25.27,0,0,1,.24,3,1.54,1.54,0,0,0,.33,1,1.18,1.18,0,0,0,1.38,0c.82-.49.91-1.26,1.13-2.11.38-1.53.76-3,2.19-3.77a31.51,31.51,0,0,1,3.5-1.56c.38.36,1,.58,1.41.94a20.28,20.28,0,0,0-2.9,5.51c-1,2.21-.65,4.66-.89,7.06,1.07.2,2.42.3,3.49.51.35-.45.92-.8.94-1.37,1.62.41,3.52.82,5.13,1.23,2.82-1.72,6-3.33,8.81-5.06,2.18-1.34,2.75-4.1,3.68-6.48A46.17,46.17,0,0,0,635.06,240.61Z" transform="translate(-469.24 -67.02)"/><path class="cls-19" d="M621.2,193.06c0,.24.09.47.14.71.67,3.06,3,4.88,5.28,6.92a66.67,66.67,0,0,0,7.27,5.82,54.93,54.93,0,0,0,16.3,7.71,51.58,51.58,0,0,0,5.77,1.26,56,56,0,0,0,10.4.72c2.81-1.56,5.79-6.95,4-9.62a137.68,137.68,0,0,0-34.75-36q-4-2.84-8.16-5.39c-.68-.42-3.57,5.54-3.81,6.09a36.82,36.82,0,0,0-2.47,21.81Z" transform="translate(-469.24 -67.02)"/><path class="cls-4" d="M652.85,191.61c4.81,6,9.63,12.18,12.64,19.29a24.28,24.28,0,0,1-9.53,4.58,56,56,0,0,0,10.4.72c2.81-1.56,5.79-6.95,4-9.62a137.68,137.68,0,0,0-34.75-36Q644.36,181,652.85,191.61Z" transform="translate(-469.24 -67.02)"/><path class="cls-7" d="M619.65,260.43c.21-1.55-.24-3.31.57-4.65a58.94,58.94,0,0,1,3.4-5c-.78,1.55-1.34,3.34-2.11,4.89-.6,1.19-.47,2.52-.75,3.82a2.77,2.77,0,0,1-.31.89C620.29,260.63,620,260.44,619.65,260.43Z" transform="translate(-469.24 -67.02)"/><path class="cls-7" d="M626.28,260.42A68.36,68.36,0,0,0,629,253a38.16,38.16,0,0,0-4.24,7.72A6.64,6.64,0,0,0,626.28,260.42Z" transform="translate(-469.24 -67.02)"/></g></g></svg>