<svg xmlns="http://www.w3.org/2000/svg" xmlns:xlink="http://www.w3.org/1999/xlink" viewBox="0 0 203.23 306.65"><defs><style>.cls-1{isolation:isolate;}.cls-2,.cls-3{fill-rule:evenodd;mix-blend-mode:screen;}.cls-2{opacity:0.5;fill:url(#Áåçûìÿííûé_ãðàäèåíò_430);}.cls-3{fill:url(#Áåçûìÿííûé_ãðàäèåíò_419);}</style><linearGradient id="Áåçûìÿííûé_ãðàäèåíò_430" x1="875.94" y1="499.48" x2="1052.09" y2="499.48" gradientUnits="userSpaceOnUse"><stop offset="0"/><stop offset="0.27" stop-color="#002217"/><stop offset="0.85" stop-color="#007753"/><stop offset="1" stop-color="#008e63"/></linearGradient><linearGradient id="Áåçûìÿííûé_ãðàäèåíò_419" x1="987.39" y1="631.49" x2="987.39" y2="324.84" gradientUnits="userSpaceOnUse"><stop offset="0" stop-color="#008e63"/><stop offset="0.15" stop-color="#007753"/><stop offset="0.73" stop-color="#002217"/><stop offset="1"/></linearGradient></defs><g class="cls-1"><g id="Capa_9" data-name="Capa 9"><path class="cls-2" d="M930.74,627.82c-26.9-17.53-54-57.86,16.27-103.21S1008.58,409.5,985.58,407,893,445.62,894.3,479.07,938,495.19,938,495.19s-36.23,15.08-56.23,12.69,17.91-49.18,15.9-77.27,15-99.6,100.82-29.77c54.37,44.25,5.3,73.27-22.63,107.26s31.9,24.09,65.32,44.49-20.65,71.3-20.65,71.3Z" transform="translate(-875.94 -324.84)"/><path class="cls-3" d="M944.66,631.49s-22.76-31.4-19.48-73.6c10-129,36.67-40,70-89.81s30.91-89.46-9.5-97.86S913,383.13,899.28,448.17c0,0,9-38.15-1.83-61s28.29-71,60.87-60.92,30.68,33.86,43.59,35.47,43.46-22.24,65.56-5.26,12.73,75.51-26.62,95c-35.19,17.42-66.59,43.82-65,56.7s-2.17,34.63,28.89,47.14S989.7,626.1,989.7,626.1Z" transform="translate(-875.94 -324.84)"/></g></g></svg>