<svg xmlns="http://www.w3.org/2000/svg" xmlns:xlink="http://www.w3.org/1999/xlink" viewBox="0 0 330.53 421.08"><defs><style>.cls-1{fill:none;}.cls-2{isolation:isolate;}.cls-3{fill:url(#Áåçûìÿííûé_ãðàäèåíò_15);}.cls-4{fill:url(#Áåçûìÿííûé_ãðàäèåíò_15-2);}.cls-5{fill:#444e65;}.cls-6{fill:url(#Áåçûìÿííûé_ãðàäèåíò_15-3);}.cls-7{fill:url(#Áåçûìÿííûé_ãðàäèåíò_108);}.cls-8{fill:url(#Áåçûìÿííûé_ãðàäèåíò_108-2);}.cls-9{fill:url(#Áåçûìÿííûé_ãðàäèåíò_108-3);}.cls-10{fill:url(#Áåçûìÿííûé_ãðàäèåíò_15-4);}.cls-11{fill:url(#Áåçûìÿííûé_ãðàäèåíò_108-4);}.cls-12{fill:url(#Áåçûìÿííûé_ãðàäèåíò_108-5);}.cls-13{fill:url(#Áåçûìÿííûé_ãðàäèåíò_15-5);}.cls-14,.cls-15,.cls-16,.cls-17,.cls-18,.cls-19,.cls-24,.cls-26{mix-blend-mode:screen;}.cls-14{fill:url(#Áåçûìÿííûé_ãðàäèåíò_41);}.cls-15{fill:url(#Áåçûìÿííûé_ãðàäèåíò_2);}.cls-16{fill:url(#Áåçûìÿííûé_ãðàäèåíò_41-2);}.cls-17{fill:url(#Áåçûìÿííûé_ãðàäèåíò_41-3);}.cls-18{fill:url(#Áåçûìÿííûé_ãðàäèåíò_41-4);}.cls-19{fill:url(#Áåçûìÿííûé_ãðàäèåíò_41-5);}.cls-20{fill:url(#Áåçûìÿííûé_ãðàäèåíò_153);}.cls-21{fill:#72baa1;}.cls-22{fill:#e09272;}.cls-23{fill:url(#Áåçûìÿííûé_ãðàäèåíò_15-6);}.cls-24{fill:url(#Áåçûìÿííûé_ãðàäèåíò_2-2);}.cls-25{fill:url(#Áåçûìÿííûé_ãðàäèåíò_15-7);}.cls-26{fill:url(#Áåçûìÿííûé_ãðàäèåíò_2-3);}.cls-27{fill:#ccc1d6;}.cls-28{clip-path:url(#clip-path);}.cls-29{fill:#f0af7a;}.cls-30{fill:#f0cf86;}</style><linearGradient id="Áåçûìÿííûé_ãðàäèåíò_15" x1="892.74" y1="281.86" x2="882.67" y2="468.73" gradientTransform="matrix(-1, 0, 0.03, 1, 1123.96, -260.84)" gradientUnits="userSpaceOnUse"><stop offset="0" stop-color="#9796ad"/><stop offset="1" stop-color="#444e65"/></linearGradient><linearGradient id="Áåçûìÿííûé_ãðàäèåíò_15-2" x1="945.63" y1="308.46" x2="953.18" y2="668.37" gradientTransform="matrix(-1, 0, 0.03, 1, 1919.22, 0)" xlink:href="#Áåçûìÿííûé_ãðàäèåíò_15"/><linearGradient id="Áåçûìÿííûé_ãðàäèåíò_15-3" x1="891.14" y1="641.04" x2="949.34" y2="641.04" xlink:href="#Áåçûìÿííûé_ãðàäèåíò_15"/><linearGradient id="Áåçûìÿííûé_ãðàäèåíò_108" x1="1001.74" y1="654.38" x2="993.41" y2="663.04" gradientTransform="matrix(-1, 0, 0.03, 1, 1919.22, 0)" gradientUnits="userSpaceOnUse"><stop offset="0" stop-color="#516875"/><stop offset="1" stop-color="#313f4d"/></linearGradient><linearGradient id="Áåçûìÿííûé_ãðàäèåíò_108-2" x1="885.01" y1="662.12" x2="905.46" y2="662.12" xlink:href="#Áåçûìÿííûé_ãðàäèåíò_108"/><linearGradient id="Áåçûìÿííûé_ãðàäèåíò_108-3" x1="944.58" y1="612.24" x2="954.06" y2="612.24" xlink:href="#Áåçûìÿííûé_ãðàäèåíò_108"/><linearGradient id="Áåçûìÿííûé_ãðàäèåíò_15-4" x1="939.56" y1="657.41" x2="962.22" y2="570.58" gradientTransform="matrix(-1, 0, 0.03, 1, 1919.22, 0)" xlink:href="#Áåçûìÿííûé_ãðàäèåíò_15"/><linearGradient id="Áåçûìÿííûé_ãðàäèåíò_108-4" x1="929.84" y1="673.37" x2="942.4" y2="673.37" xlink:href="#Áåçûìÿííûé_ãðàäèåíò_108"/><linearGradient id="Áåçûìÿííûé_ãðàäèåíò_108-5" x1="937.35" y1="276.07" x2="955.09" y2="276.07" xlink:href="#Áåçûìÿííûé_ãðàäèåíò_108"/><linearGradient id="Áåçûìÿííûé_ãðàäèåíò_15-5" x1="1008.47" y1="250.03" x2="1016.65" y2="472.14" xlink:href="#Áåçûìÿííûé_ãðàäèåíò_15"/><linearGradient id="Áåçûìÿííûé_ãðàäèåíò_41" x1="943.51" y1="251.77" x2="941.78" y2="290.63" gradientTransform="matrix(-1, 0, 0.03, 1, 1919.22, 0)" gradientUnits="userSpaceOnUse"><stop offset="0" stop-color="#435954"/><stop offset="0.27" stop-color="#2a3834"/><stop offset="0.57" stop-color="#131918"/><stop offset="0.82" stop-color="#050706"/><stop offset="1"/></linearGradient><linearGradient id="Áåçûìÿííûé_ãðàäèåíò_2" x1="945.72" y1="301.34" x2="945.09" y2="357.34" gradientTransform="matrix(-1, 0, 0.03, 1, 1123.96, -260.84)" gradientUnits="userSpaceOnUse"><stop offset="0" stop-color="#827487"/><stop offset="0.14" stop-color="#776a7c"/><stop offset="0.4" stop-color="#5a505d"/><stop offset="0.73" stop-color="#2b262c"/><stop offset="1"/></linearGradient><linearGradient id="Áåçûìÿííûé_ãðàäèåíò_41-2" x1="947.53" y1="596.37" x2="946.43" y2="623.11" gradientTransform="matrix(-1, 0, 0.03, 1, 1123.96, -260.84)" xlink:href="#Áåçûìÿííûé_ãðàäèåíò_41"/><linearGradient id="Áåçûìÿííûé_ãðàäèåíò_41-3" x1="901.37" y1="647.25" x2="890.52" y2="674.15" gradientTransform="matrix(-1, 0, 0.03, 1, 1123.96, -260.84)" xlink:href="#Áåçûìÿííûé_ãðàäèåíò_41"/><linearGradient id="Áåçûìÿííûé_ãðàäèåíò_41-4" x1="940.4" y1="663" x2="929.55" y2="689.9" xlink:href="#Áåçûìÿííûé_ãðàäèåíò_41"/><linearGradient id="Áåçûìÿííûé_ãðàäèåíò_41-5" x1="1003.84" y1="672.86" x2="987.32" y2="655.4" gradientTransform="matrix(-1, 0, 0.03, 1, 1123.96, -260.84)" xlink:href="#Áåçûìÿííûé_ãðàäèåíò_41"/><linearGradient id="Áåçûìÿííûé_ãðàäèåíò_153" x1="957.51" y1="568.81" x2="956.67" y2="355.72" gradientTransform="matrix(-1, 0, 0.03, 1, 1919.22, 0)" gradientUnits="userSpaceOnUse"><stop offset="0.01" stop-color="#fff1c7"/><stop offset="1" stop-color="#f0c69a"/></linearGradient><linearGradient id="Áåçûìÿííûé_ãðàäèåíò_15-6" x1="1112.81" y1="369.16" x2="678.03" y2="359.1" xlink:href="#Áåçûìÿííûé_ãðàäèåíò_15"/><linearGradient id="Áåçûìÿííûé_ãðàäèåíò_2-2" x1="888.43" y1="324.9" x2="895.03" y2="371.78" xlink:href="#Áåçûìÿííûé_ãðàäèåíò_2"/><linearGradient id="Áåçûìÿííûé_ãðàäèåíò_15-7" x1="1105.24" y1="568.06" x2="572.32" y2="557.37" gradientTransform="matrix(-1, 0, 0.03, 1, 1919.22, 0)" xlink:href="#Áåçûìÿííûé_ãðàäèåíò_15"/><linearGradient id="Áåçûìÿííûé_ãðàäèåíò_2-3" x1="906.36" y1="545.61" x2="912.34" y2="577.39" xlink:href="#Áåçûìÿííûé_ãðàäèåíò_2"/><clipPath id="clip-path" transform="translate(-795.26 -260.84)"><path class="cls-1" d="M858,547.89c1.35-45.72-4-114.06-8.47-160.41H1092.7c2.38,89.82.18,135.65-2.9,158.95Z"/></clipPath></defs><g class="cls-2"><g id="Capa_3" data-name="Capa 3"><polygon class="cls-3" points="194.39 11.85 294.13 95.95 290.85 96.79 193.9 17.09 194.39 11.85"/><path class="cls-4" d="M988.84,617.28l4.44.64-.88-43.52-.23-11.63-5.43-269.9-.16-7.49-.47-23c-.07-2.09-7.61-2.09-7.54,0l.62,21.66.3,10.11,7.81,269.63.36,12.56Z" transform="translate(-795.26 -260.84)"/><polygon class="cls-5" points="184.23 33.34 191.48 32.03 191.32 24.54 183.93 23.23 184.23 33.34"/><polygon class="cls-6" points="255.72 406.78 196.6 352.67 195.77 355.81 253.23 407.73 255.72 406.78"/><polygon class="cls-5" points="196.6 352.67 195.77 355.81 153.75 405.84 152.12 403.95 194.63 350.15 196.6 352.67"/><path class="cls-7" d="M939.65,668.88a52.57,52.57,0,0,0,10.49.12q3.78-4.85,8-9.32c-1.75-2.14-2.71-4.14-4.46-6.28C948.78,657.86,943.88,664,939.65,668.88Z" transform="translate(-795.26 -260.84)"/><path class="cls-8" d="M1057.18,669.51c-.47.16-10.52.63-10.52.63l-10.27-10.38,4.21-5.67Z" transform="translate(-795.26 -260.84)"/><path class="cls-9" d="M986.53,623.05c3.22.89,7.05,1.41,9.19-1-.16-6.5-.31-14.57-.47-21.07-3.11.14-6.17-.13-9.28-.24C986.17,608.24,986.33,615.5,986.53,623.05Z" transform="translate(-795.26 -260.84)"/><path class="cls-10" d="M993.27,617.91,1008,679l-2.54-.63-16.56-61C988.34,611.62,992.27,610.15,993.27,617.91Z" transform="translate(-795.26 -260.84)"/><path class="cls-11" d="M999.7,667.15s1-1.58,2-1.87a10.47,10.47,0,0,1,5.77-.1c1.67,4.81,3.57,9.9,5.24,14.71a4.18,4.18,0,0,1-2.41,1.8,18.48,18.48,0,0,1-9.67-1Z" transform="translate(-795.26 -260.84)"/><path class="cls-12" d="M973.23,265.37c1.07,7.54,2,15.5,3.15,23h13.53c.38-7,.67-16.29,1.05-23.26-.72-.25-1.44-.47-2.14-.67a25.64,25.64,0,0,0-6.93-.74A28.93,28.93,0,0,0,973.23,265.37Z" transform="translate(-795.26 -260.84)"/><polygon class="cls-13" points="180.55 11.85 66.25 98.65 70.28 99.52 181.53 17.26 180.55 11.85"/><path class="cls-14" d="M981.89,263.74l1.86,24.67h5c0-5.13.07-18.24.07-23.93A25.64,25.64,0,0,0,981.89,263.74Z" transform="translate(-795.26 -260.84)"/><polygon class="cls-15" points="190.68 33.03 191.28 93.65 188.56 93.65 187.34 33.66 190.68 33.03"/><polygon class="cls-5" points="192.4 315.53 197.14 313.56 196.91 301.93 192.04 302.96 192.4 315.53"/><polygon class="cls-16" points="199.19 341.03 199.43 354.08 197.72 353.25 195.43 341.36 199.19 341.03"/><polygon class="cls-17" points="257.89 405.84 246.51 395.3 244.84 397.03 254.46 406.94 257.89 405.84"/><path class="cls-18" d="M1006.43,666.68l4.82,12.27a2.66,2.66,0,0,1-2.32.94c-1.74,0-3.31-.16-3.31-.16L1004.08,667Z" transform="translate(-795.26 -260.84)"/><polygon class="cls-19" points="158.3 396.24 149.69 406.62 146.56 407.1 157.31 394.83 158.3 396.24"/><path class="cls-20" d="M850.47,563.58l2.15,0,262.59,1.65c-6-41.25-4.07-123.47-.66-190.18.09-1.62.16-3.25.25-4.85H835.86C837.25,447.39,840.92,530,850.47,563.58Z" transform="translate(-795.26 -260.84)"/><path class="cls-21" d="M1096.05,547.89c-3.6-45.72-1.56-114.06.59-160.41H853.46c2,89.82,6.48,135.65,10.71,158.95Z" transform="translate(-795.26 -260.84)"/><path class="cls-22" d="M850.47,563.58l2.15,0C841.2,526.69,840.48,446,839.13,380.09l275.42-5c.09-1.62.16-3.25.25-4.85H835.86C837.25,447.39,840.92,530,850.47,563.58Z" transform="translate(-795.26 -260.84)"/><polygon class="cls-23" points="31.2 98.35 33.53 111.06 328.62 111.06 330.53 92.8 46.74 98.05 31.2 98.35"/><polygon class="cls-24" points="274.8 94.7 274.09 110.84 212.85 110.84 210.87 95.95 274.8 94.7"/><polygon class="cls-5" points="31.2 98.35 33.53 111.06 46.69 111.06 46.74 98.05 31.2 98.35"/><path class="cls-25" d="M845.7,571.57h.78l150.74-1.85,63-.76,60.57-.74c2.54-.2,1.92-6.07-.62-5.89l-60.18-.1-63.12-.1-150.18-.22H845c-1.28.05-2,1.45-2.19,3.15C842.42,567.9,843.53,571.67,845.7,571.57Z" transform="translate(-795.26 -260.84)"/><polygon class="cls-26" points="201.57 301.29 201.96 308.88 264.92 308.12 264.69 301.39 201.57 301.29"/><polygon class="cls-27" points="328.62 111.06 330.53 92.8 46.74 98.05 34.57 98.47 46.98 99.52 328.37 94.38 328.62 111.06"/><path class="cls-27" d="M842.76,565.06l276.09-.64,1.9,3.8c2.54-.2,1.92-6.07-.62-5.89l-273.48-.42H845C843.67,562,843,563.36,842.76,565.06Z" transform="translate(-795.26 -260.84)"/><path class="cls-5" d="M845.7,571.57h.78a6,6,0,0,0,1.56-3.43,8.82,8.82,0,0,0-.47-5,3.92,3.92,0,0,0-.92-1.21H845C841.48,562.06,842.23,571.72,845.7,571.57Z" transform="translate(-795.26 -260.84)"/><g class="cls-28"><polygon class="cls-29" points="305.06 124.94 295.46 129.84 291.59 132.34 288.51 135.32 286.78 131.62 285.07 121.02 283.56 116.53 277.77 122.59 270.4 129.7 259.98 137.72 258.79 145.05 255.44 154.14 257.58 149.46 267.33 138.66 273.16 144.74 280.46 146.67 287.01 141.4 284.85 150.33 274.77 163.34 278.93 152.13 271.58 157.26 270.2 159.62 266 166.78 264.13 171.74 266.17 176.92 261.37 181.76 258.89 185.3 256.21 188.19 256.58 191.23 255.54 194.13 254.58 196.44 257.27 201.37 249.47 199.26 251.57 205.16 255.75 207.78 256.22 217.39 250.02 223.58 242.99 233.02 240.85 245.32 246.91 253.07 249.82 260.53 243.77 266.31 239.66 259.73 235.85 255.23 232.53 248.8 225.32 248.28 213.33 247.77 204.64 250.85 209.41 252.26 206.27 256.73 200.72 257.44 197.66 254.43 190.24 255.85 180.06 260.38 176.68 271.08 176.55 273.36 176.26 278.27 176.92 297.16 181.65 302.49 185.75 307.59 191.55 308.1 199.85 305.5 203.13 307.83 207.4 301.25 208.35 295.38 214.82 293.01 223.04 289.82 222.48 300.61 220.92 306.84 217.37 305.59 215.34 308.84 217.78 317.09 228.25 315.09 242.25 319.24 242.43 337.25 246.17 341.1 250.26 343.41 262.56 336.99 274.77 341.55 269.48 348.06 267.09 343.43 260.45 345.45 260.36 352.14 251.74 349.63 243.23 348.25 238.78 347.5 235.95 342.97 229.31 337.69 224.88 331.09 219.67 331.29 214.87 329.99 209.53 328.47 201.83 325.63 196.12 321.74 185.6 319.89 176.07 321.54 156.81 314.02 147.01 308.64 139.67 305.77 140.73 298.4 141.55 293.63 133.34 283.61 124.93 270.78 119.47 265.63 116.66 259.5 110.74 249.5 106.98 243.65 104.02 246.25 108.63 255.23 115.05 268.81 119.47 278.78 123.08 285.92 115.69 281.05 110.41 276.87 105.96 267.49 100.32 262.93 100.55 253.8 95.66 240.81 94.11 237.82 92.17 234.09 90.08 227.87 81.96 222.42 77.12 208.56 77.63 181.84 81.99 171.7 83.94 159.16 83.97 159.16 91 158.84 88.11 155.06 87.93 154.84 84.56 150.07 86.97 158.07 83.38 154.28 76.92 148.09 75.3 142.83 79.48 142.38 77.63 135.21 76.45 126.31 73.72 120.43 72.66 118 69.92 121.89 71.03 128.12 67.9 122.73 70.05 117.86 69.77 113.38 70.43 102.88 67.14 91.23 59.12 82.75 53.95 77.11 48.05 77.05 43.56 76.18 45.35 71.39 36.17 70.92 27.62 74.22 9.8 68.39 3.66 65.52 0 63.43 9.92 66.62 18.15 68.79 25.02 67.84 28.66 65.77 26.8 62.55 24.61 51.01 25.61 44.69 35.97 42.75 40.73 46.34 46.04 42.77 46.43 42.23 43.87 40.95 41.06 36.43 41.18 32.26 43.79 31.1 50.81 33.73 52.18 38.68 55.5 37.6 55.71 34.21 58.97 26.77 69.37 27.45 79.94 33.71 88.19 43.03 95.21 50.82 103.73 56.68 108.89 56.93 112.44 58.19 116.05 59.47 117.38 62.08 120.49 62.11 122.85 63.55 127.54 65.27 130.25 69.34 131.19 65.39 132.96 63.08 134.15 58.46 130.14 55.41 129.77 52.84 125.82 55.28 122.47 51.38 125.23 45.81 127.45 42.1 134.76 44.7 137.67 49.3 139.05 51.53 141.39 53.03 146.1 53.77 147.79 54.94 148.06 50.81 150.27 48.47 151.93 51.58 152.74 56.42 152.22 61.34 156.68 64.48 156 71.92 153.28 76.03 161.15 75.28 160.59 73.2 163.74 67.75 167.16 73.21 169.16 72.42 166.59 70.43 164.86 65.58 165.92 58.11 160.34 58.25 156 52.33 163.8 50.09 165.96 57.19 167.33 52.47 167.49 47.58 172.49 48.07 168.88 54.93 169.79 59.78 171.13 62.1 171.3 65.23 175.48 68.07 177.92 71.12 179.14 68.74 181.25 73.29 184.43 68.24 177.2 57.97 175.15 50.78 177.36 48.84 183.73 46.44 190.77 46.9 194.67 50 198.57 51.66 202.45 52.89 207.1 53.07 211.53 57.46 225.82 62.54 229.87 64.92 230.66 69.55 223.53 70.98 233.86 78.58 228.17 82.47 234.61 86.92 227.84 86.22 223.06 86.66 213.62 82.99 208.39 84.84 204.15 81 210.25 79.54 209.5 76.93 209.37 69.08 205.63 66.72 202.08 63.65 193.72 60.76 190.41 66.89 192.42 69.14 192.19 72.64 193.84 76.93 190.06 84.01 196.73 87.61 199.76 91.09 195.56 92.02 191.74 93.56 185.82 89.96 182.78 92.89 175.24 96.59 176.2 101.05 173.19 111.02 172.5 119.13 175.36 121.41 181.41 127.62 189.14 127.91 202.4 130.17 209.44 131.46 212.98 137.89 216.18 138.11 215.6 141.53 219.79 147.19 222.57 139.21 217.55 131.69 220.02 126.81 220.83 118.95 213.15 112.59 215.11 107.11 211.37 98.98 211.57 94.33 218.46 93.12 221.87 93.03 223.15 94.86 228.53 94.11 233.57 100.98 241.79 101.52 240.43 90.76 250.29 96.99 255.81 100.97 262.36 105.33 267.73 104.2 273.41 107.74 280.42 107 285.33 112.7 287.95 115.51 292.87 120.4 297.96 116.8 301.64 122 305.06 124.94"/><polygon class="cls-30" points="264.13 171.74 266.17 176.92 261.37 181.76 258.89 185.3 256.21 188.19 256.58 191.23 255.54 194.13 254.58 196.44 257.27 201.37 249.47 199.26 251.57 205.16 255.75 207.78 256.22 217.39 250.02 223.58 242.99 233.02 240.85 245.32 246.91 253.07 249.82 260.53 243.77 266.31 239.66 259.73 235.85 255.23 232.53 248.8 225.32 248.28 213.33 247.77 204.64 250.85 209.41 252.26 206.27 256.73 200.72 257.44 197.66 254.43 190.24 255.85 180.06 260.38 176.68 271.08 176.55 273.36 172.31 273.01 167.29 268.82 163.59 264.51 159.93 259.57 154.41 257.46 149.75 259.54 146.04 255.76 140.33 250.67 136.39 245.63 128.59 246.4 121.33 246.83 114.4 246.02 108.85 240.99 102.83 238.56 94.11 237.82 92.17 234.09 90.08 227.87 81.96 222.42 77.12 208.56 77.63 181.84 81.99 171.7 83.94 159.16 83.97 159.16 90.92 158.75 87.88 155.13 88.11 155.06 98.64 157.94 108.39 160.84 131.17 162.11 178.61 165.08 191.31 167.21 197.22 166.53 196.99 166.73 209.93 170 218.52 173.4 222.27 180.32 223.26 182.5 223.51 188.03 235.47 186.46 234.9 183.35 241.28 178.45 243.89 174.81 256.95 164 259.75 158.46 261.11 152.32 265.99 154.96 270.2 159.62 266 166.78 264.13 171.74 264.13 171.74"/><polygon class="cls-21" points="196.33 166.82 192.69 169.98 190 172.43 192.28 174.52 197.8 172.19 201.41 170.41 201.54 171.68 203.27 172.62 211.41 172.02 213.35 173.01 210.84 175.03 206.44 176.82 203.38 182.06 205.08 182.44 204.91 185.1 204.35 192.46 207.12 196.32 209.36 194.92 211.03 189.3 209.29 183.17 210.67 179.69 212.45 176.44 217.62 176.59 220.02 179.95 218.66 183.93 221.15 182.91 222.22 184.02 222.7 187.22 220.73 191.79 224.73 194.38 228.5 192.33 232.47 189.64 236.07 185.86 236.23 182.76 238.13 180.66 239.48 180.28 242.51 178.94 243.67 173.5 239.89 175.91 235.98 178.54 232.97 180.75 234.28 182.49 232.87 184.81 231.3 184.71 229.26 185.59 221.24 190.04 223.25 187.91 224.7 185.06 226.22 180.96 225.76 175.58 227.16 176.49 229.45 175.44 225.39 170.77 218.35 171.42 214.45 172.44 213.5 171.75 210.95 167.43 207.54 164.91 203.98 162.28 198.69 163.69 196.33 166.82 196.33 166.82"/></g></g></g></svg>