<svg xmlns="http://www.w3.org/2000/svg" xmlns:xlink="http://www.w3.org/1999/xlink" viewBox="0 0 400.89 96.82"><defs><style>.cls-1{isolation:isolate;}.cls-2{fill:#600003;}.cls-3{fill:url(#Áåçûìÿííûé_ãðàäèåíò_4);}.cls-4{fill:#fff7cc;opacity:0.25;mix-blend-mode:screen;}.cls-5{fill:url(#Áåçûìÿííûé_ãðàäèåíò_4-2);}.cls-6{fill:url(#Áåçûìÿííûé_ãðàäèåíò_4-3);}.cls-7{fill:url(#Áåçûìÿííûé_ãðàäèåíò_4-4);}.cls-8{fill:url(#Áåçûìÿííûé_ãðàäèåíò_4-5);}</style><linearGradient id="Áåçûìÿííûé_ãðàäèåíò_4" x1="-9.78" y1="178.72" x2="198.17" y2="178.72" gradientTransform="matrix(-1, 0, 0, 1, 431.7, -173.59)" gradientUnits="userSpaceOnUse"><stop offset="0" stop-color="#600003"/><stop offset="0.04" stop-color="#6a0b09"/><stop offset="0.17" stop-color="#822517"/><stop offset="0.32" stop-color="#953921"/><stop offset="0.48" stop-color="#a34729"/><stop offset="0.67" stop-color="#ab4f2e"/><stop offset="1" stop-color="#ad522f"/></linearGradient><linearGradient id="Áåçûìÿííûé_ãðàäèåíò_4-2" x1="164.16" y1="206.46" x2="107.93" y2="206.66" xlink:href="#Áåçûìÿííûé_ãðàäèåíò_4"/><linearGradient id="Áåçûìÿííûé_ãðàäèåíò_4-3" x1="132.01" y1="252.15" x2="89.52" y2="252.15" gradientTransform="matrix(-1, 0, 0, 1, 549.14, 0)" xlink:href="#Áåçûìÿííûé_ãðàäèåíò_4"/><linearGradient id="Áåçûìÿííûé_ãðàäèåíò_4-4" x1="516.98" y1="252.15" x2="474.49" y2="252.15" gradientTransform="translate(-106.97)" xlink:href="#Áåçûìÿííûé_ãðàäèåíò_4"/><linearGradient id="Áåçûìÿííûé_ãðàäèåíò_4-5" x1="149.6" y1="243.51" x2="121.09" y2="243.51" xlink:href="#Áåçûìÿííûé_ãðàäèåíò_4"/></defs><g class="cls-1"><g id="Capa_2" data-name="Capa 2"><polygon class="cls-2" points="104.77 36.05 291.71 38.18 291.71 27.76 104.77 27.76 104.77 36.05"/><polygon class="cls-2" points="104.77 71.99 291.71 74 291.71 65.99 104.77 65.99 104.77 71.99"/><path class="cls-2" d="M327,173.59l-1.82,10.25H305.41L304,188.72H245.88a30.8,30.8,0,0,0-7.74,9.82h4.1l2.22,16H232a178.08,178.08,0,0,0-4.14,19.15h6.93l-1.14,6.34a64.91,64.91,0,0,1,15.53-5.89h0l1.22-.29,1,.59A36.85,36.85,0,0,1,262.76,244h0l1.16,1.52L263,247c-4.41,7.12-7.34,15-9.65,23.37h-2.71c1.38-8.05,3.31-16.43,6.77-24.15a31.78,31.78,0,0,0-7.94-5.49,83.44,83.44,0,0,0-17.94,10.81h0l-.31,1.7h-6q-.84,8.19-1.45,17.13h-3.18c-.33-5.84-.72-11.57-1.22-17.13h-6.22l-.3-1.71A83.17,83.17,0,0,0,195,240.77a32,32,0,0,0-7.94,5.49c3.46,7.72,5.39,16.1,6.78,24.15h-2.71c-2.32-8.35-5.25-16.25-9.65-23.37l-.91-1.47,1.15-1.52h0a37,37,0,0,1,11.39-9.56l1-.59,1.22.29h0a64.66,64.66,0,0,1,15.5,5.88l-1.14-6.33h7.39a150.25,150.25,0,0,0-4.17-19.15H200l2.22-16h4.08a40.7,40.7,0,0,0-7.72-9.82H140.47L139,183.84H119.27l-1.83-10.25Z" transform="translate(-117.44 -173.59)"/><polygon class="cls-3" points="193.18 10.25 399.06 10.25 400.89 0 191.35 0 193.18 10.25"/><path class="cls-4" d="M431,175.21h10c-.22,2.34-.43,4.67-.63,7H430.7C430.83,179.89,431,177.55,431,175.21Zm-13.44,7h7.24c.13-2.34.28-4.67.41-7h-7.78A41.07,41.07,0,0,1,417.58,182.22Zm28.61,0h69l1.25-7H446.81C446.59,177.55,446.39,179.88,446.19,182.22Z" transform="translate(-117.44 -173.59)"/><polygon class="cls-2" points="214.38 15.13 377.87 15.13 379.32 10.25 212.93 10.25 214.38 15.13"/><path class="cls-2" d="M412,270.41h3.19c2.81-41.38,9.22-71.57,22.07-81.69H389.9C405.6,203,410,234.68,412,270.41Z" transform="translate(-117.44 -173.59)"/><polygon class="cls-5" points="273.88 40.99 318.37 40.99 316.14 24.95 276.1 24.95 273.88 40.99"/><path class="cls-4" d="M418.69,200.15h13.49L434,213h-15.4Q418.52,206.57,418.69,200.15Z" transform="translate(-117.44 -173.59)"/><path class="cls-6" d="M422.9,251.58l-3.69-8.16a67.79,67.79,0,0,1,21.28-9.24h0l1.22-.29,1,.59A36.85,36.85,0,0,1,454.11,244h0l1.16,1.52-.91,1.47c-4.41,7.12-7.34,15-9.65,23.37H442c1.38-8.05,3.31-16.43,6.77-24.15a31.78,31.78,0,0,0-7.94-5.49A83.44,83.44,0,0,0,422.9,251.58Z" transform="translate(-117.44 -173.59)"/><path class="cls-2" d="M437.26,240.63A90.38,90.38,0,0,0,423.53,249l-2-4.53A116.08,116.08,0,0,1,437.26,240.63Z" transform="translate(-117.44 -173.59)"/><path class="cls-4" d="M451.73,245.63l-.8-.78a32.65,32.65,0,0,0-8-5.57,11.22,11.22,0,0,0-3.37-3.21c.76-.21,1.52-.41,2.28-.58l.59-.14.45.26c3.11,1.82,7.63,4.74,10.92,9.15l.49.64-.33.52a82.55,82.55,0,0,0-8.23,18.43,85.1,85.1,0,0,1,5.5-17.69Z" transform="translate(-117.44 -173.59)"/><path class="cls-7" d="M404.25,251.58l3.68-8.16a67.83,67.83,0,0,0-21.27-9.24h0l-1.22-.29-1,.59A37,37,0,0,0,373,244h0l-1.15,1.52.91,1.47c4.4,7.12,7.33,15,9.65,23.37h2.71c-1.39-8.05-3.32-16.43-6.78-24.15a32,32,0,0,1,7.94-5.49A83.26,83.26,0,0,1,404.25,251.58Z" transform="translate(-117.44 -173.59)"/><path class="cls-2" d="M389.88,240.63A90.48,90.48,0,0,1,403.62,249l2-4.53A115.72,115.72,0,0,0,389.88,240.63Z" transform="translate(-117.44 -173.59)"/><path class="cls-4" d="M375.42,245.63l.79-.78a32.65,32.65,0,0,1,8-5.57,11.34,11.34,0,0,1,3.37-3.21c-.76-.21-1.52-.41-2.28-.58l-.58-.14-.46.26c-3.11,1.82-7.63,4.74-10.92,9.15l-.48.64.32.52a82.1,82.1,0,0,1,8.23,18.43,85.1,85.1,0,0,0-5.5-17.69Z" transform="translate(-117.44 -173.59)"/><polygon class="cls-8" points="287.09 79.69 305.15 79.69 308.66 60.14 283.58 60.14 287.09 79.69"/><path class="cls-4" d="M414.87,235.35h9.3l-2.93,16.31H416C415.68,246.22,415.5,240.77,414.87,235.35Z" transform="translate(-117.44 -173.59)"/><polygon class="cls-2" points="276.1 24.95 273.88 40.99 265.19 40.99 265.19 24.95 276.1 24.95"/></g></g></svg>