<svg id="Capa_3" data-name="Capa 3" xmlns="http://www.w3.org/2000/svg" viewBox="0 0 71.43 60.52"><defs><style>.cls-1{fill:#96461e;}.cls-2{fill:#6b3315;}.cls-3{fill:#ae582d;}.cls-4{fill:#c37c48;}.cls-5{fill:#2ca43a;}</style></defs><path class="cls-1" d="M504.13,216.47c-3.4,1.36-5.55,4.82-6.43,8.37s-.71,7.26-.81,10.91A45.79,45.79,0,0,1,495.6,246c-1.13,4.39-3.14,8.5-4.69,12.75-.28.77-.51,1.73.06,2.31a2.06,2.06,0,0,0,.82.45,33.3,33.3,0,0,0,8.73,1.38,2.1,2.1,0,0,0,.75-.05c.94-.32.87-1.78,1.66-2.38A59.3,59.3,0,0,1,501.68,248c.07-2.27.32-4.53.57-6.78.71-6.41,1.42-12.82,2.44-19.18C505,220.24,504.45,218.25,504.13,216.47Z" transform="translate(-490.62 -206.99)"/><path class="cls-2" d="M500.17,222.36a7.61,7.61,0,0,0-1.57,5.88c.19,5.12.32,10.32-.86,15.3-.68,2.88-1.79,5.63-2.61,8.47a20.84,20.84,0,0,0-.87,4.12c-.06.84-1.12,2.6-.7,3.27a1.07,1.07,0,0,0,.42.34,13,13,0,0,0,3,1.5,20.83,20.83,0,0,0,3.67.69.58.58,0,0,0,.39-.06.6.6,0,0,0,.19-.36c.75-3.11.45-6.36.4-9.56-.11-7.86,1.32-15.65,2.19-23.47a42.32,42.32,0,0,0,.22-9.74.48.48,0,0,0-.12-.31c-.16-.12-.38,0-.53.15A17.94,17.94,0,0,0,500.17,222.36Z" transform="translate(-490.62 -206.99)"/><path class="cls-1" d="M499.86,258.5a2.33,2.33,0,0,0,.07.25,11.8,11.8,0,0,0,5.5,5.92,14.3,14.3,0,0,0,5.47,1.91,150.48,150.48,0,0,0,48.26-2.43A38,38,0,0,0,562,252.91a6.35,6.35,0,0,0-.24-3,2.83,2.83,0,0,0-.45-.77,8.39,8.39,0,0,0-2.71-2.17,47,47,0,0,0-8.43-4.43l-.64-.2a5.3,5.3,0,0,0,1-1.56.5.5,0,0,0,0-.13,1.83,1.83,0,0,0-.39-1.85,3.93,3.93,0,0,0-.68-.47,3.77,3.77,0,0,1-.92-.71,7.22,7.22,0,0,1,0-1.23,59.52,59.52,0,0,1,1.1-6,15.94,15.94,0,0,0-.64-7.54,12.93,12.93,0,0,0-1-2.29,6.39,6.39,0,0,0-.75-1.07,17.16,17.16,0,0,0-1.31-1.12,2.69,2.69,0,0,1-.77-1.14c-.17-.48-.29-1-.42-1.49a8.07,8.07,0,0,0-.33-1.09c-.86-2.24-3-3.74-5.22-4.68-3.88-1.64-8.11-3-12.35-3a59.36,59.36,0,0,0-18.07,2.86,6.32,6.32,0,0,0-2.87,2.34c-2.54,3.24-3.27,6.59-3.63,10.62-.05.57-.1,1.12-.16,1.69-.71,5.9-2.25,11.68-3.08,17.57C498.3,247.49,498.12,253.24,499.86,258.5Z" transform="translate(-490.62 -206.99)"/><path class="cls-3" d="M499.85,258.5c0,.08,0,.16.08.25a11.84,11.84,0,0,0,5.5,5.92c.54.16,1.08.3,1.62.43,2,.5,3.79-.5,5.09-2.09s.48-3.4-.14-5.1a5,5,0,0,0-.55-1.17,4.74,4.74,0,0,0-1-1c-1.43-1.14-4.19-2.47-5.09-4.05s.36-3,.82-4.43c.38-1.17-.32-2.64.5-3.55a5.76,5.76,0,0,1,1.12-.75c1.52-1,1.3-2.67,1.64-4.23.26-1.23.7-2.5,1.06-3.72a41.23,41.23,0,0,1,4.12-9.07s.07-.1.1-.16a14.62,14.62,0,0,1,4.54-5.09,6,6,0,0,1,1.19-.63,13.1,13.1,0,0,1,4.68-.75A109.53,109.53,0,0,1,548,220.62a6.39,6.39,0,0,0-.75-1.07,15.16,15.16,0,0,0-1.31-1.12l0,0a2.82,2.82,0,0,1-.75-1.12c-.06-.18-.12-.37-.17-.56s-.17-.62-.25-.94a8.9,8.9,0,0,0-.33-1.08A7.77,7.77,0,0,0,541,211a14,14,0,0,0-1.81-.92c-3.88-1.64-8.11-3-12.35-3a59.05,59.05,0,0,0-18.07,2.86,6.13,6.13,0,0,0-2.86,2.34c-2.54,3.24-3.28,6.58-3.64,10.62-.05.57-.1,1.12-.17,1.69-.7,5.9-2.24,11.68-3.07,17.57a54.83,54.83,0,0,0-.52,5.62A30.77,30.77,0,0,0,499.85,258.5Z" transform="translate(-490.62 -206.99)"/><path class="cls-4" d="M498.54,247.69q.84-5.25,2.12-10.43c1.26-5.13,2.85-10.2,3.5-15.44.31-2.49.46-5.16,2-7.19q2.53,2.48,4.94,5.11a37.14,37.14,0,0,1,7.24-4.51,25.16,25.16,0,0,0-5.72-5.17,43.18,43.18,0,0,1,6.35-1.53,42.16,42.16,0,0,1,11.33-.26,41.72,41.72,0,0,1,5.66,1c1.71.44,3.41,1.26,5.11,1.65a14,14,0,0,0-1.81-.92c-3.88-1.64-8.11-3-12.35-3a59.05,59.05,0,0,0-18.07,2.86,6.13,6.13,0,0,0-2.86,2.34c-2.54,3.24-3.28,6.58-3.64,10.62-.05.57-.1,1.12-.17,1.69-.7,5.9-2.24,11.68-3.07,17.57A54.83,54.83,0,0,0,498.54,247.69Z" transform="translate(-490.62 -206.99)"/><path class="cls-4" d="M506.75,238.81c1.9-2.92,2.1-6.61,3.4-9.85a30.13,30.13,0,0,1,2.39-4.44,20.05,20.05,0,0,0,2.09,1.46l.1-.15a14.38,14.38,0,0,1,4.54-5.1,6.23,6.23,0,0,1,1.19-.63c-.54-.55-1.1-1.07-1.65-1.6.05,0,2.3-.23,2.66-.23a35.84,35.84,0,0,0,3.73-.31l1.2-.08c2.22-.14,4.43-.21,6.66-.22a106.62,106.62,0,0,1,12.88.75,2.75,2.75,0,0,1-.75-1.12c-.06-.19-.12-.37-.17-.56-.55-.11-1.1-.18-1.6-.31-1.25-.31-2.51-.55-3.79-.74-2.55-.37-5.15-.54-7.72-.66a64.37,64.37,0,0,0-9.42.06c-3.63.34-7.48,1.38-9.8,4.19a17.38,17.38,0,0,0-2.16,3.77,41,41,0,0,0-3.19,8.55A39.53,39.53,0,0,0,506.75,238.81Z" transform="translate(-490.62 -206.99)"/><path class="cls-2" d="M506.75,237.73c.58-2,.82-4,1.37-6,1.27-4.68,3.58-10.11,7.58-13,3-2.15,7.19-1.42,10.65-1.44,6.59-.05,13.46-1,19.61,1.16a2.69,2.69,0,0,1-.77-1.14c-.17-.48-.29-1-.42-1.49a27.15,27.15,0,0,0-10.3-2c-3.87-.08-7.72.27-11.59.23-3.51,0-6.49,1.44-9.62,3-3.43,1.75-4.52,6.32-5.55,10S507.11,233.9,506.75,237.73Z" transform="translate(-490.62 -206.99)"/><path class="cls-2" d="M499.86,258.5a2.33,2.33,0,0,0,.07.25c1.39,4.08,6.8,7.36,11,7.83a150.48,150.48,0,0,0,48.26-2.43A38,38,0,0,0,562,252.91a6.35,6.35,0,0,0-.24-3,2.83,2.83,0,0,0-.45-.77,5.31,5.31,0,0,1-1.67,3.58,12,12,0,0,1-3.9,2.33c-7.07,2.92-14.81,3.34-22.36,2.94-3.82-.2-7.62-.61-11.42-1-4-.41-9.31-.25-12.91-2.24a6.52,6.52,0,0,1,2.44,2.59c.78,1.94-.29,4-1.05,5.73a2,2,0,0,1-3,1.09c-3-.92-5.37-3.09-7.43-5.51Z" transform="translate(-490.62 -206.99)"/><path class="cls-2" d="M513.94,245.34a132,132,0,0,0,15.91.23c6.87-.17,14-.39,20.3-3l-.64-.2a5.3,5.3,0,0,0,1-1.56,9.56,9.56,0,0,0-2.18.57c-1.64.36-3.3.68-5,1-3.33.54-6.69.93-10.06,1.24s-6.76.54-10.15.8C520.29,244.6,516.86,245.48,513.94,245.34Z" transform="translate(-490.62 -206.99)"/><path class="cls-2" d="M523.42,239.78c4.13-.55,8.55-.27,12.7-.58,2.62-.18,5.26-.56,7.87-.66,1.92-.06,3.68.22,5.49-.18a3.77,3.77,0,0,1-.92-.71,7.22,7.22,0,0,1,0-1.23C540.42,238.57,531.73,238.52,523.42,239.78Z" transform="translate(-490.62 -206.99)"/><path class="cls-5" d="M532.26,231a3.25,3.25,0,0,0,1.58-.93A16.1,16.1,0,0,0,538,224c-.31-.8-1.36-1-2.22-1a31.69,31.69,0,0,0-7.09.39,1.26,1.26,0,0,0-.95.56,12.41,12.41,0,0,0,2,5A9.16,9.16,0,0,0,532.26,231Z" transform="translate(-490.62 -206.99)"/></svg>