<svg xmlns="http://www.w3.org/2000/svg" xmlns:xlink="http://www.w3.org/1999/xlink" viewBox="0 0 382.89 505.86"><defs><style>.cls-1{fill:none;}.cls-2{isolation:isolate;}.cls-3,.cls-6{fill:#984065;}.cls-3,.cls-61,.cls-62,.cls-63{opacity:0.3;}.cls-10,.cls-106,.cls-109,.cls-110,.cls-112,.cls-115,.cls-117,.cls-118,.cls-119,.cls-122,.cls-123,.cls-124,.cls-125,.cls-18,.cls-19,.cls-21,.cls-25,.cls-26,.cls-28,.cls-3,.cls-30,.cls-50,.cls-51,.cls-52,.cls-53,.cls-54,.cls-58,.cls-6,.cls-61,.cls-62,.cls-63,.cls-67,.cls-68,.cls-69,.cls-70,.cls-71,.cls-75,.cls-83,.cls-90,.cls-97{mix-blend-mode:multiply;}.cls-4{fill:url(#Áåçûìÿííûé_ãðàäèåíò_475);}.cls-5{fill:url(#Áåçûìÿííûé_ãðàäèåíò_281);}.cls-106,.cls-124,.cls-125,.cls-129,.cls-50,.cls-6,.cls-69,.cls-70{opacity:0.5;}.cls-7{clip-path:url(#clip-path);}.cls-10,.cls-100,.cls-101,.cls-102,.cls-103,.cls-104,.cls-105,.cls-106,.cls-107,.cls-108,.cls-109,.cls-11,.cls-110,.cls-111,.cls-112,.cls-113,.cls-114,.cls-115,.cls-116,.cls-117,.cls-118,.cls-119,.cls-12,.cls-120,.cls-121,.cls-122,.cls-123,.cls-124,.cls-125,.cls-126,.cls-127,.cls-128,.cls-13,.cls-14,.cls-15,.cls-16,.cls-17,.cls-18,.cls-19,.cls-20,.cls-21,.cls-22,.cls-23,.cls-24,.cls-25,.cls-26,.cls-27,.cls-28,.cls-29,.cls-30,.cls-31,.cls-32,.cls-33,.cls-34,.cls-35,.cls-36,.cls-37,.cls-38,.cls-39,.cls-40,.cls-41,.cls-42,.cls-43,.cls-44,.cls-45,.cls-46,.cls-47,.cls-48,.cls-49,.cls-50,.cls-51,.cls-52,.cls-53,.cls-54,.cls-55,.cls-56,.cls-57,.cls-58,.cls-59,.cls-60,.cls-61,.cls-62,.cls-63,.cls-64,.cls-65,.cls-66,.cls-67,.cls-68,.cls-69,.cls-70,.cls-71,.cls-74,.cls-75,.cls-76,.cls-77,.cls-78,.cls-79,.cls-8,.cls-80,.cls-81,.cls-82,.cls-83,.cls-84,.cls-85,.cls-86,.cls-87,.cls-88,.cls-89,.cls-9,.cls-90,.cls-91,.cls-92,.cls-93,.cls-94,.cls-95,.cls-96,.cls-97,.cls-98,.cls-99{fill-rule:evenodd;}.cls-8{fill:url(#Áåçûìÿííûé_ãðàäèåíò_142);}.cls-9{fill:url(#Áåçûìÿííûé_ãðàäèåíò_107);}.cls-10,.cls-123,.cls-19,.cls-28,.cls-30,.cls-65,.cls-67,.cls-68,.cls-71,.cls-90{opacity:0.86;}.cls-10{fill:url(#Áåçûìÿííûé_ãðàäèåíò_17);}.cls-11{fill:url(#Áåçûìÿííûé_ãðàäèåíò_44);}.cls-12{fill:url(#Áåçûìÿííûé_ãðàäèåíò_7);}.cls-13{fill:url(#Áåçûìÿííûé_ãðàäèåíò_7-2);}.cls-14{fill:url(#Áåçûìÿííûé_ãðàäèåíò_40);}.cls-15{fill:url(#Áåçûìÿííûé_ãðàäèåíò_39);}.cls-16{fill:url(#Áåçûìÿííûé_ãðàäèåíò_37);}.cls-17{fill:url(#Áåçûìÿííûé_ãðàäèåíò_7-3);}.cls-112,.cls-122,.cls-18,.cls-83{opacity:0.71;}.cls-18{fill:url(#Áåçûìÿííûé_ãðàäèåíò_204);}.cls-19{fill:url(#Áåçûìÿííûé_ãðàäèåíò_33);}.cls-20{fill:url(#Áåçûìÿííûé_ãðàäèåíò_11);}.cls-109,.cls-110,.cls-115,.cls-117,.cls-118,.cls-119,.cls-21,.cls-25,.cls-26,.cls-51,.cls-52,.cls-53,.cls-54,.cls-58,.cls-75,.cls-97{opacity:0.6;}.cls-21{fill:url(#Áåçûìÿííûé_ãðàäèåíò_409);}.cls-22{fill:url(#Áåçûìÿííûé_ãðàäèåíò_18);}.cls-23{fill:url(#Áåçûìÿííûé_ãðàäèåíò_7-4);}.cls-24{fill:url(#Áåçûìÿííûé_ãðàäèåíò_6);}.cls-25{fill:url(#Áåçûìÿííûé_ãðàäèåíò_409-2);}.cls-26{fill:url(#Áåçûìÿííûé_ãðàäèåíò_409-3);}.cls-27{fill:url(#Áåçûìÿííûé_ãðàäèåíò_142-2);}.cls-28{fill:url(#Áåçûìÿííûé_ãðàäèåíò_17-2);}.cls-29{fill:url(#Áåçûìÿííûé_ãðàäèåíò_20);}.cls-30{fill:url(#Áåçûìÿííûé_ãðàäèåíò_17-3);}.cls-31{fill:url(#Áåçûìÿííûé_ãðàäèåíò_6-2);}.cls-32{fill:url(#Áåçûìÿííûé_ãðàäèåíò_6-3);}.cls-33{fill:url(#Áåçûìÿííûé_ãðàäèåíò_20-2);}.cls-34{fill:url(#Áåçûìÿííûé_ãðàäèåíò_13);}.cls-35{fill:url(#Áåçûìÿííûé_ãðàäèåíò_13-2);}.cls-36{fill:url(#Áåçûìÿííûé_ãðàäèåíò_107-2);}.cls-37{fill:url(#Áåçûìÿííûé_ãðàäèåíò_107-3);}.cls-38{fill:url(#Áåçûìÿííûé_ãðàäèåíò_18-2);}.cls-39{fill:url(#Áåçûìÿííûé_ãðàäèåíò_18-3);}.cls-40{fill:#fff4c9;}.cls-41{fill:url(#Áåçûìÿííûé_ãðàäèåíò_88);}.cls-42{fill:#dd7a68;}.cls-43{fill:#b85652;}.cls-44{fill:url(#Áåçûìÿííûé_ãðàäèåíò_96);}.cls-45{fill:#381e22;}.cls-46{fill:url(#Áåçûìÿííûé_ãðàäèåíò_96-2);}.cls-47{fill:#fff;}.cls-48{fill:url(#Áåçûìÿííûé_ãðàäèåíò_99);}.cls-49{fill:#dd6668;}.cls-50{fill:url(#Áåçûìÿííûé_ãðàäèåíò_204-2);}.cls-51{fill:url(#Áåçûìÿííûé_ãðàäèåíò_38);}.cls-52{fill:url(#Áåçûìÿííûé_ãðàäèåíò_38-2);}.cls-53{fill:url(#Áåçûìÿííûé_ãðàäèåíò_409-4);}.cls-54{fill:url(#Áåçûìÿííûé_ãðàäèåíò_409-5);}.cls-55{fill:url(#Áåçûìÿííûé_ãðàäèåíò_271);}.cls-56{fill:url(#Áåçûìÿííûé_ãðàäèåíò_37-2);}.cls-57{fill:url(#Áåçûìÿííûé_ãðàäèåíò_107-4);}.cls-58{fill:url(#Áåçûìÿííûé_ãðàäèåíò_409-6);}.cls-59{fill:url(#Áåçûìÿííûé_ãðàäèåíò_271-2);}.cls-60{fill:url(#Áåçûìÿííûé_ãðàäèåíò_7-5);}.cls-61{fill:url(#Áåçûìÿííûé_ãðàäèåíò_409-7);}.cls-62{fill:url(#Áåçûìÿííûé_ãðàäèåíò_409-8);}.cls-63{fill:url(#Áåçûìÿííûé_ãðàäèåíò_409-9);}.cls-64{fill:url(#Áåçûìÿííûé_ãðàäèåíò_7-6);}.cls-65{fill:#5b0422;}.cls-66{fill:url(#Áåçûìÿííûé_ãðàäèåíò_36);}.cls-67{fill:url(#Áåçûìÿííûé_ãðàäèåíò_33-2);}.cls-68{fill:url(#Áåçûìÿííûé_ãðàäèåíò_33-3);}.cls-69{fill:url(#Áåçûìÿííûé_ãðàäèåíò_9);}.cls-70{fill:url(#Áåçûìÿííûé_ãðàäèåíò_9-2);}.cls-71{fill:url(#Áåçûìÿííûé_ãðàäèåíò_17-4);}.cls-128,.cls-72{fill:#52e2ff;}.cls-73{fill:#acd6ff;}.cls-74{fill:url(#Áåçûìÿííûé_ãðàäèåíò_32);}.cls-75{fill:url(#Áåçûìÿííûé_ãðàäèåíò_409-10);}.cls-76{fill:url(#Áåçûìÿííûé_ãðàäèåíò_44-2);}.cls-77{fill:url(#Áåçûìÿííûé_ãðàäèåíò_31);}.cls-78{fill:url(#Áåçûìÿííûé_ãðàäèåíò_20-3);}.cls-79{fill:url(#Áåçûìÿííûé_ãðàäèåíò_20-4);}.cls-80{fill:url(#Áåçûìÿííûé_ãðàäèåíò_142-3);}.cls-81{fill:url(#Áåçûìÿííûé_ãðàäèåíò_11-2);}.cls-82{fill:url(#Áåçûìÿííûé_ãðàäèåíò_11-3);}.cls-83{fill:url(#Áåçûìÿííûé_ãðàäèåíò_204-3);}.cls-84{fill:url(#Áåçûìÿííûé_ãðàäèåíò_271-3);}.cls-85{fill:url(#Áåçûìÿííûé_ãðàäèåíò_7-7);}.cls-86{fill:url(#Áåçûìÿííûé_ãðàäèåíò_6-4);}.cls-87{fill:url(#Áåçûìÿííûé_ãðàäèåíò_26);}.cls-88{fill:url(#Áåçûìÿííûé_ãðàäèåíò_26-2);}.cls-89{fill:url(#Áåçûìÿííûé_ãðàäèåíò_26-3);}.cls-90{fill:url(#Áåçûìÿííûé_ãðàäèåíò_17-5);}.cls-91{fill:url(#Áåçûìÿííûé_ãðàäèåíò_44-3);}.cls-92{fill:url(#Áåçûìÿííûé_ãðàäèåíò_20-5);}.cls-93{fill:url(#Áåçûìÿííûé_ãðàäèåíò_23);}.cls-94{fill:url(#Áåçûìÿííûé_ãðàäèåíò_2);}.cls-95{fill:url(#Áåçûìÿííûé_ãðàäèåíò_29);}.cls-96{fill:url(#Áåçûìÿííûé_ãðàäèåíò_18-4);}.cls-97{fill:url(#Áåçûìÿííûé_ãðàäèåíò_409-11);}.cls-98{fill:url(#Áåçûìÿííûé_ãðàäèåíò_18-5);}.cls-99{fill:#592a27;}.cls-100{fill:url(#Áåçûìÿííûé_ãðàäèåíò_151);}.cls-101{fill:#562c27;}.cls-102{fill:url(#Áåçûìÿííûé_ãðàäèåíò_151-2);}.cls-103{fill:url(#Áåçûìÿííûé_ãðàäèåíò_88-2);}.cls-104{fill:url(#Áåçûìÿííûé_ãðàäèåíò_387);}.cls-105{fill:#ff8b68;}.cls-106{fill:url(#Áåçûìÿííûé_ãðàäèåíò_9-3);}.cls-107{fill:url(#Áåçûìÿííûé_ãðàäèåíò_8);}.cls-108{fill:url(#Áåçûìÿííûé_ãðàäèåíò_373);}.cls-109{fill:url(#Áåçûìÿííûé_ãðàäèåíò_409-12);}.cls-110{fill:url(#Áåçûìÿííûé_ãðàäèåíò_409-13);}.cls-111{fill:url(#Áåçûìÿííûé_ãðàäèåíò_20-6);}.cls-112{fill:url(#Áåçûìÿííûé_ãðàäèåíò_4);}.cls-113{fill:url(#Áåçûìÿííûé_ãðàäèåíò_6-5);}.cls-114{fill:url(#Áåçûìÿííûé_ãðàäèåíò_6-6);}.cls-115{fill:url(#Áåçûìÿííûé_ãðàäèåíò_5);}.cls-116{fill:url(#Áåçûìÿííûé_ãðàäèåíò_142-4);}.cls-117{fill:url(#Áåçûìÿííûé_ãðàäèåíò_5-2);}.cls-118{fill:url(#Áåçûìÿííûé_ãðàäèåíò_5-3);}.cls-119{fill:url(#Áåçûìÿííûé_ãðàäèåíò_5-4);}.cls-120{fill:url(#Áåçûìÿííûé_ãðàäèåíò_142-5);}.cls-121{fill:url(#Áåçûìÿííûé_ãðàäèåíò_142-6);}.cls-122{fill:url(#Áåçûìÿííûé_ãðàäèåíò_4-2);}.cls-123{fill:url(#Áåçûìÿííûé_ãðàäèåíò_17-6);}.cls-124{fill:url(#Áåçûìÿííûé_ãðàäèåíò_204-4);}.cls-125{fill:url(#Áåçûìÿííûé_ãðàäèåíò_204-5);}.cls-126{fill:url(#Áåçûìÿííûé_ãðàäèåíò_107-5);}.cls-127{fill:url(#Áåçûìÿííûé_ãðàäèåíò_3);}.cls-129{mix-blend-mode:screen;fill:url(#Áåçûìÿííûé_ãðàäèåíò_341);}</style><linearGradient id="Áåçûìÿííûé_ãðàäèåíò_475" x1="191.72" y1="355.71" x2="191.72" gradientUnits="userSpaceOnUse"><stop offset="0.05" stop-color="#c06480"/><stop offset="0.88" stop-color="#ea838a"/><stop offset="1" stop-color="#ffa290"/></linearGradient><linearGradient id="Áåçûìÿííûé_ãðàäèåíò_281" x1="195.94" y1="351.79" x2="195.94" gradientUnits="userSpaceOnUse"><stop offset="0.01" stop-color="#ecdbff"/><stop offset="1" stop-color="#fff"/></linearGradient><clipPath id="clip-path" transform="translate(-782.7 -270.98)"><polygon class="cls-1" points="856.07 612.56 857.23 270.98 1101.2 308.43 1101.13 622.77 856.07 612.56"/></clipPath><linearGradient id="Áåçûìÿííûé_ãðàäèåíò_142" x1="878.44" y1="361.11" x2="878.44" y2="309.53" gradientUnits="userSpaceOnUse"><stop offset="0" stop-color="#201d64"/><stop offset="1" stop-color="#103d55"/></linearGradient><linearGradient id="Áåçûìÿííûé_ãðàäèåíò_107" x1="867.38" y1="339.43" x2="897.74" y2="339.43" gradientUnits="userSpaceOnUse"><stop offset="0.02" stop-color="#fcc70e"/><stop offset="0.37" stop-color="#fc6b42"/><stop offset="0.98" stop-color="#ffa136"/></linearGradient><linearGradient id="Áåçûìÿííûé_ãðàäèåíò_17" x1="869.61" y1="361.11" x2="869.61" y2="333.84" gradientUnits="userSpaceOnUse"><stop offset="0.01" stop-color="#be6888"/><stop offset="1" stop-color="#8e81f4"/></linearGradient><linearGradient id="Áåçûìÿííûé_ãðàäèåíò_44" x1="913.35" y1="689.22" x2="913.35" y2="503.2" gradientUnits="userSpaceOnUse"><stop offset="0.01" stop-color="#9c0055"/><stop offset="1" stop-color="#b30229"/></linearGradient><linearGradient id="Áåçûìÿííûé_ãðàäèåíò_7" x1="893.56" y1="744.7" x2="890.89" y2="732.15" gradientUnits="userSpaceOnUse"><stop offset="0" stop-color="#ff7f66"/><stop offset="1" stop-color="#ec887e"/></linearGradient><linearGradient id="Áåçûìÿííûé_ãðàäèåíò_7-2" x1="935.38" y1="735.97" x2="931.83" y2="719.26" xlink:href="#Áåçûìÿííûé_ãðàäèåíò_7"/><linearGradient id="Áåçûìÿííûé_ãðàäèåíò_40" x1="931.2" y1="730.41" x2="931.2" y2="515.33" gradientUnits="userSpaceOnUse"><stop offset="0" stop-color="#102f42"/><stop offset="1" stop-color="#141847"/></linearGradient><linearGradient id="Áåçûìÿííûé_ãðàäèåíò_39" x1="909.05" y1="736.85" x2="909.05" y2="512.97" gradientUnits="userSpaceOnUse"><stop offset="0" stop-color="#103d55"/><stop offset="1" stop-color="#201352"/></linearGradient><linearGradient id="Áåçûìÿííûé_ãðàäèåíò_37" x1="900.56" y1="388.01" x2="900.56" y2="307.46" gradientUnits="userSpaceOnUse"><stop offset="0" stop-color="#090031"/><stop offset="1" stop-color="#101a3b"/></linearGradient><linearGradient id="Áåçûìÿííûé_ãðàäèåíò_7-3" x1="909.45" y1="406.86" x2="905.08" y2="386.24" xlink:href="#Áåçûìÿííûé_ãðàäèåíò_7"/><linearGradient id="Áåçûìÿííûé_ãðàäèåíò_204" x1="906.51" y1="402.28" x2="906.51" y2="387.98" gradientUnits="userSpaceOnUse"><stop offset="0.01" stop-color="#d195ab"/><stop offset="0.99" stop-color="#985e40"/></linearGradient><linearGradient id="Áåçûìÿííûé_ãðàäèåíò_33" x1="920.75" y1="545.3" x2="920.75" y2="515.34" gradientUnits="userSpaceOnUse"><stop offset="0" stop-color="#8e81f4"/><stop offset="0.99" stop-color="#be6888"/></linearGradient><linearGradient id="Áåçûìÿííûé_ãðàäèåíò_11" x1="904.82" y1="396.17" x2="904.82" y2="329.32" gradientUnits="userSpaceOnUse"><stop offset="0" stop-color="#ffb886"/><stop offset="1" stop-color="#ffa486"/></linearGradient><linearGradient id="Áåçûìÿííûé_ãðàäèåíò_409" x1="900.84" y1="396.07" x2="900.84" y2="329.32" gradientUnits="userSpaceOnUse"><stop offset="0" stop-color="#ffeadb"/><stop offset="0.99" stop-color="#b060f4"/></linearGradient><linearGradient id="Áåçûìÿííûé_ãðàäèåíò_18" x1="899.46" y1="374.53" x2="899.46" y2="318.81" gradientUnits="userSpaceOnUse"><stop offset="0.01" stop-color="#792727"/><stop offset="0.99" stop-color="#8d4347"/></linearGradient><linearGradient id="Áåçûìÿííûé_ãðàäèåíò_7-4" x1="886.06" y1="388.81" x2="882.49" y2="371.96" xlink:href="#Áåçûìÿííûé_ãðàäèåíò_7"/><linearGradient id="Áåçûìÿííûé_ãðàäèåíò_6" x1="921.06" y1="524.15" x2="921.06" y2="397.83" gradientUnits="userSpaceOnUse"><stop offset="0.01" stop-color="#ffbdc7"/><stop offset="1" stop-color="#ffe2bf"/></linearGradient><linearGradient id="Áåçûìÿííûé_ãðàäèåíò_409-2" x1="934.77" y1="524.15" x2="934.77" y2="423.48" xlink:href="#Áåçûìÿííûé_ãðàäèåíò_409"/><linearGradient id="Áåçûìÿííûé_ãðàäèåíò_409-3" x1="922.4" y1="472.62" x2="922.4" y2="400.87" xlink:href="#Áåçûìÿííûé_ãðàäèåíò_409"/><linearGradient id="Áåçûìÿííûé_ãðàäèåíò_142-2" x1="934.21" y1="532.09" x2="934.21" y2="366.54" xlink:href="#Áåçûìÿííûé_ãðàäèåíò_142"/><linearGradient id="Áåçûìÿííûé_ãðàäèåíò_17-2" x1="996.09" y1="421.14" x2="996.09" y2="364.41" xlink:href="#Áåçûìÿííûé_ãðàäèåíò_17"/><linearGradient id="Áåçûìÿííûé_ãðàäèåíò_20" x1="920.15" y1="532.09" x2="920.15" y2="399.13" gradientUnits="userSpaceOnUse"><stop offset="0.01" stop-color="#cf2f55"/><stop offset="1" stop-color="#ff023e"/></linearGradient><linearGradient id="Áåçûìÿííûé_ãðàäèåíò_17-3" x1="892" y1="505.71" x2="892" y2="434.37" xlink:href="#Áåçûìÿííûé_ãðàäèåíò_17"/><linearGradient id="Áåçûìÿííûé_ãðàäèåíò_6-2" x1="1050.31" y1="420.03" x2="1050.31" y2="353.89" xlink:href="#Áåçûìÿííûé_ãðàäèåíò_6"/><linearGradient id="Áåçûìÿííûé_ãðàäèåíò_6-3" x1="829.08" y1="490.94" x2="829.08" y2="443.76" xlink:href="#Áåçûìÿííûé_ãðàäèåíò_6"/><linearGradient id="Áåçûìÿííûé_ãðàäèåíò_20-2" x1="917.67" y1="426.24" x2="917.67" y2="400.87" xlink:href="#Áåçûìÿííûé_ãðàäèåíò_20"/><linearGradient id="Áåçûìÿííûé_ãðàäèåíò_13" x1="909.04" y1="776.84" x2="909.04" y2="739.32" gradientUnits="userSpaceOnUse"><stop offset="0.01" stop-color="#5b1833"/><stop offset="0.99" stop-color="#592227"/></linearGradient><linearGradient id="Áåçûìÿííûé_ãðàäèåíò_13-2" x1="954.06" y1="761.26" x2="954.06" y2="726.12" xlink:href="#Áåçûìÿííûé_ãðàäèåíò_13"/><linearGradient id="Áåçûìÿííûé_ãðàäèåíò_107-2" x1="894.9" y1="767.75" x2="936.3" y2="767.75" xlink:href="#Áåçûìÿííûé_ãðàäèåíò_107"/><linearGradient id="Áåçûìÿííûé_ãðàäèåíò_107-3" x1="956.12" y1="753.05" x2="986.35" y2="753.05" xlink:href="#Áåçûìÿííûé_ãðàäèåíò_107"/><linearGradient id="Áåçûìÿííûé_ãðàäèåíò_18-2" x1="896.4" y1="356.32" x2="896.4" y2="344.55" xlink:href="#Áåçûìÿííûé_ãðàäèåíò_18"/><linearGradient id="Áåçûìÿííûé_ãðàäèåíò_18-3" x1="916.81" y1="349.52" x2="916.81" y2="338.03" xlink:href="#Áåçûìÿííûé_ãðàäèåíò_18"/><linearGradient id="Áåçûìÿííûé_ãðàäèåíò_88" x1="2159.97" y1="249.31" x2="2159.97" y2="243.71" gradientTransform="matrix(-0.98, 0.19, 0.19, 0.98, 2990.65, -285.65)" gradientUnits="userSpaceOnUse"><stop offset="0" stop-color="#ef686a"/><stop offset="1" stop-color="#ff927e"/></linearGradient><linearGradient id="Áåçûìÿííûé_ãðàäèåíò_96" x1="913.23" y1="257.1" x2="913.23" y2="248.76" gradientTransform="matrix(0.98, -0.18, 0.18, 0.98, -39.43, 278.35)" gradientUnits="userSpaceOnUse"><stop offset="0" stop-color="#595e27"/><stop offset="0.98" stop-color="#814227"/></linearGradient><linearGradient id="Áåçûìÿííûé_ãðàäèåíò_96-2" x1="919.68" y1="359.71" x2="919.68" y2="351.49" gradientTransform="matrix(1, 0, 0, 1, 0, 0)" xlink:href="#Áåçûìÿííûé_ãðàäèåíò_96"/><linearGradient id="Áåçûìÿííûé_ãðàäèåíò_99" x1="914.63" y1="380.78" x2="914.63" y2="372.01" gradientUnits="userSpaceOnUse"><stop offset="0" stop-color="#ec887e"/><stop offset="1" stop-color="#ef686a"/></linearGradient><linearGradient id="Áåçûìÿííûé_ãðàäèåíò_204-2" x1="900.64" y1="348.84" x2="900.64" y2="318.81" xlink:href="#Áåçûìÿííûé_ãðàäèåíò_204"/><linearGradient id="Áåçûìÿííûé_ãðàäèåíò_38" x1="823.8" y1="490.83" x2="823.8" y2="459.38" gradientUnits="userSpaceOnUse"><stop offset="0.01" stop-color="#b060f4"/><stop offset="1" stop-color="#ffeadb"/></linearGradient><linearGradient id="Áåçûìÿííûé_ãðàäèåíò_38-2" x1="837.7" y1="467.6" x2="837.7" y2="450.19" xlink:href="#Áåçûìÿííûé_ãðàäèåíò_38"/><linearGradient id="Áåçûìÿííûé_ãðàäèåíò_409-4" x1="836.71" y1="453.31" x2="836.71" y2="443.77" xlink:href="#Áåçûìÿííûé_ãðàäèåíò_409"/><linearGradient id="Áåçûìÿííûé_ãðàäèåíò_409-5" x1="823.85" y1="463.83" x2="823.85" y2="443.75" xlink:href="#Áåçûìÿííûé_ãðàäèåíò_409"/><linearGradient id="Áåçûìÿííûé_ãðàäèåíò_271" x1="812.07" y1="457.97" x2="801.16" y2="406.56" gradientUnits="userSpaceOnUse"><stop offset="0" stop-color="#ffa486"/><stop offset="1" stop-color="#ffb886"/></linearGradient><linearGradient id="Áåçûìÿííûé_ãðàäèåíò_37-2" x1="812.15" y1="421.09" x2="812.15" y2="341.83" xlink:href="#Áåçûìÿííûé_ãðàäèåíò_37"/><linearGradient id="Áåçûìÿííûé_ãðàäèåíò_107-4" x1="806.6" y1="359.73" x2="812.95" y2="359.73" xlink:href="#Áåçûìÿííûé_ãðàäèåíò_107"/><linearGradient id="Áåçûìÿííûé_ãðàäèåíò_409-6" x1="1051.07" y1="407.73" x2="1051.07" y2="358.76" xlink:href="#Áåçûìÿííûé_ãðàäèåíò_409"/><linearGradient id="Áåçûìÿííûé_ãðàäèåíò_271-2" x1="1075.36" y1="386.68" x2="1064.54" y2="335.66" xlink:href="#Áåçûìÿííûé_ãðàäèåíò_271"/><linearGradient id="Áåçûìÿííûé_ãðàäèåíò_7-5" x1="1074.51" y1="369.12" x2="1088.44" y2="369.12" xlink:href="#Áåçûìÿííûé_ãðàäèåíò_7"/><linearGradient id="Áåçûìÿííûé_ãðàäèåíò_409-7" x1="1065.94" y1="379.12" x2="1061.36" y2="357.57" xlink:href="#Áåçûìÿííûé_ãðàäèåíò_409"/><linearGradient id="Áåçûìÿííûé_ãðàäèåíò_409-8" x1="819.36" y1="421.95" x2="819.33" y2="421.8" xlink:href="#Áåçûìÿííûé_ãðàäèåíò_409"/><linearGradient id="Áåçûìÿííûé_ãðàäèåíò_409-9" x1="817.93" y1="445.73" x2="812.89" y2="421.97" xlink:href="#Áåçûìÿííûé_ãðàäèåíò_409"/><linearGradient id="Áåçûìÿííûé_ãðàäèåíò_7-6" x1="786.84" y1="431.16" x2="805.96" y2="431.16" xlink:href="#Áåçûìÿííûé_ãðàäèåíò_7"/><linearGradient id="Áåçûìÿííûé_ãðàäèåíò_36" x1="889.21" y1="577.81" x2="889.21" y2="513.77" gradientUnits="userSpaceOnUse"><stop offset="0" stop-color="#103d55"/><stop offset="1" stop-color="#201d64"/></linearGradient><linearGradient id="Áåçûìÿííûé_ãðàäèåíò_33-2" x1="890.71" y1="736.85" x2="890.71" y2="544.29" xlink:href="#Áåçûìÿííûé_ãðàäèåíò_33"/><linearGradient id="Áåçûìÿííûé_ãðàäèåíò_33-3" x1="931.2" y1="730.41" x2="931.2" y2="552.98" xlink:href="#Áåçûìÿííûé_ãðàäèåíò_33"/><linearGradient id="Áåçûìÿííûé_ãðàäèåíò_9" x1="954.06" y1="761.26" x2="954.06" y2="726.12" gradientUnits="userSpaceOnUse"><stop offset="0.01" stop-color="#b574ab"/><stop offset="0.99" stop-color="#984040"/></linearGradient><linearGradient id="Áåçûìÿííûé_ãðàäèåíò_9-2" x1="909.04" y1="776.84" x2="909.04" y2="739.32" xlink:href="#Áåçûìÿííûé_ãðàäèåíò_9"/><linearGradient id="Áåçûìÿííûé_ãðàäèåíò_17-4" x1="1004.53" y1="392.78" x2="1004.53" y2="377.02" xlink:href="#Áåçûìÿííûé_ãðàäèåíò_17"/><linearGradient id="Áåçûìÿííûé_ãðàäèåíò_32" x1="1062.09" y1="405.5" x2="1062.09" y2="359.26" gradientUnits="userSpaceOnUse"><stop offset="0" stop-color="#e7bdc0"/><stop offset="1" stop-color="#c795cb"/></linearGradient><linearGradient id="Áåçûìÿííûé_ãðàäèåíò_409-10" x1="1067.62" y1="403.79" x2="1067.62" y2="359.26" xlink:href="#Áåçûìÿííûé_ãðàäèåíò_409"/><linearGradient id="Áåçûìÿííûé_ãðàäèåíò_44-2" x1="1044.44" y1="514.75" x2="1044.44" y2="487.05" xlink:href="#Áåçûìÿííûé_ãðàäèåíò_44"/><linearGradient id="Áåçûìÿííûé_ãðàäèåíò_31" x1="1029.74" y1="705.02" x2="1029.74" y2="493.83" gradientUnits="userSpaceOnUse"><stop offset="0" stop-color="#ffa6a6"/><stop offset="1" stop-color="#ffc7ae"/></linearGradient><linearGradient id="Áåçûìÿííûé_ãðàäèåíò_20-3" x1="1015.52" y1="581.33" x2="1015.52" y2="498.27" xlink:href="#Áåçûìÿííûé_ãðàäèåíò_20"/><linearGradient id="Áåçûìÿííûé_ãðàäèåíò_20-4" x1="1024.52" y1="578.74" x2="1024.52" y2="508.38" xlink:href="#Áåçûìÿííûé_ãðàäèåíò_20"/><linearGradient id="Áåçûìÿííûé_ãðàäèåíò_142-3" x1="1036.75" y1="531.69" x2="1036.75" y2="485.08" xlink:href="#Áåçûìÿííûé_ãðàäèåíò_142"/><linearGradient id="Áåçûìÿííûé_ãðàäèåíò_11-2" x1="941.49" y1="426.36" x2="1040.09" y2="426.36" xlink:href="#Áåçûìÿííûé_ãðàäèåíò_11"/><linearGradient id="Áåçûìÿííûé_ãðàäèåíò_11-3" x1="1099.53" y1="559.77" x2="1099.53" y2="389.94" xlink:href="#Áåçûìÿííûé_ãðàäèåíò_11"/><linearGradient id="Áåçûìÿííûé_ãðàäèåíò_204-3" x1="1065.2" y1="403.13" x2="1065.2" y2="389.93" xlink:href="#Áåçûìÿííûé_ãðàäèåíò_204"/><linearGradient id="Áåçûìÿííûé_ãðàäèåíò_271-3" x1="1063.97" y1="397.57" x2="1063.97" y2="336.8" xlink:href="#Áåçûìÿííûé_ãðàäèåíò_271"/><linearGradient id="Áåçûìÿííûé_ãðàäèåíò_7-7" x1="1086.42" y1="388.66" x2="1083.74" y2="376.04" xlink:href="#Áåçûìÿííûé_ãðàäèåíò_7"/><linearGradient id="Áåçûìÿííûé_ãðàäèåíò_6-4" x1="1035.29" y1="715.88" x2="1035.29" y2="502.49" xlink:href="#Áåçûìÿííûé_ãðàäèåíò_6"/><linearGradient id="Áåçûìÿííûé_ãðàäèåíò_26" x1="1036.83" y1="572.87" x2="1036.83" y2="513.04" gradientUnits="userSpaceOnUse"><stop offset="0.01" stop-color="#ff5055"/><stop offset="1" stop-color="#ff023e"/></linearGradient><linearGradient id="Áåçûìÿííûé_ãðàäèåíò_26-2" x1="1058.9" y1="581.02" x2="1058.9" y2="506.83" xlink:href="#Áåçûìÿííûé_ãðàäèåíò_26"/><linearGradient id="Áåçûìÿííûé_ãðàäèåíò_26-3" x1="1047.85" y1="575.51" x2="1047.85" y2="506.63" xlink:href="#Áåçûìÿííûé_ãðàäèåíò_26"/><linearGradient id="Áåçûìÿííûé_ãðàäèåíò_17-5" x1="1035.24" y1="557.7" x2="1035.24" y2="496.6" xlink:href="#Áåçûìÿííûé_ãðàäèåíò_17"/><linearGradient id="Áåçûìÿííûé_ãðàäèåíò_44-3" x1="1065.34" y1="510.26" x2="1065.34" y2="496.43" xlink:href="#Áåçûìÿííûé_ãðàäèåíò_44"/><linearGradient id="Áåçûìÿííûé_ãðàäèåíò_20-5" x1="1044.63" y1="514.73" x2="1044.63" y2="476.76" xlink:href="#Áåçûìÿííûé_ãðàäèåíò_20"/><linearGradient id="Áåçûìÿííûé_ãðàäèåíò_23" x1="1040.23" y1="744.4" x2="1040.23" y2="578.14" gradientUnits="userSpaceOnUse"><stop offset="0" stop-color="#a63c22"/><stop offset="1" stop-color="#b32c22"/></linearGradient><linearGradient id="Áåçûìÿííûé_ãðàäèåíò_2" x1="1011.16" y1="764.59" x2="1011.16" y2="572.72" gradientUnits="userSpaceOnUse"><stop offset="0" stop-color="#bf4a22"/><stop offset="1" stop-color="#d12c22"/></linearGradient><linearGradient id="Áåçûìÿííûé_ãðàäèåíò_29" x1="1085.25" y1="377.83" x2="1085.25" y2="365.5" gradientUnits="userSpaceOnUse"><stop offset="0" stop-color="#ccacb9"/><stop offset="1" stop-color="#ffd8c0"/></linearGradient><linearGradient id="Áåçûìÿííûé_ãðàäèåíò_18-4" x1="1051.89" y1="354.43" x2="1051.89" y2="345.23" xlink:href="#Áåçûìÿííûé_ãðàäèåíò_18"/><linearGradient id="Áåçûìÿííûé_ãðàäèåíò_409-11" x1="1066.96" y1="397.55" x2="1066.96" y2="336.8" xlink:href="#Áåçûìÿííûé_ãðàäèåíò_409"/><linearGradient id="Áåçûìÿííûé_ãðàäèåíò_18-5" x1="1074.46" y1="361.19" x2="1074.46" y2="347.95" xlink:href="#Áåçûìÿííûé_ãðàäèåíò_18"/><linearGradient id="Áåçûìÿííûé_ãðàäèåíò_151" x1="1070.77" y1="371.18" x2="1070.77" y2="362.84" gradientUnits="userSpaceOnUse"><stop offset="0.03" stop-color="#815447"/><stop offset="1" stop-color="#592c27"/></linearGradient><linearGradient id="Áåçûìÿííûé_ãðàäèåíò_151-2" x1="1050.53" y1="367.43" x2="1050.53" y2="359.11" xlink:href="#Áåçûìÿííûé_ãðàäèåíò_151"/><linearGradient id="Áåçûìÿííûé_ãðàäèåíò_88-2" x1="1053.6" y1="339.66" x2="1053.6" y2="334.55" gradientTransform="matrix(1, -0.06, 0.06, 1, -18.19, 98.57)" xlink:href="#Áåçûìÿííûé_ãðàäèåíò_88"/><linearGradient id="Áåçûìÿííûé_ãðàäèåíò_387" x1="1049.89" y1="384.93" x2="1063.43" y2="384.93" gradientUnits="userSpaceOnUse"><stop offset="0" stop-color="#ef686a"/><stop offset="1" stop-color="#ec887e"/></linearGradient><linearGradient id="Áåçûìÿííûé_ãðàäèåíò_9-3" x1="1045.81" y1="513.04" x2="1045.81" y2="476.76" xlink:href="#Áåçûìÿííûé_ãðàäèåíò_9"/><linearGradient id="Áåçûìÿííûé_ãðàäèåíò_8" x1="1080.05" y1="404.29" x2="1080.05" y2="329.74" gradientUnits="userSpaceOnUse"><stop offset="0" stop-color="#e4d4db"/><stop offset="1" stop-color="#ffe2bf"/></linearGradient><linearGradient id="Áåçûìÿííûé_ãðàäèåíò_373" x1="1062.16" y1="381.58" x2="1062.16" y2="378.34" gradientUnits="userSpaceOnUse"><stop offset="0.01" stop-color="#882231"/><stop offset="1" stop-color="#402731"/></linearGradient><linearGradient id="Áåçûìÿííûé_ãðàäèåíò_409-12" x1="1077.09" y1="404.29" x2="1077.09" y2="331.8" xlink:href="#Áåçûìÿííûé_ãðàäèåíò_409"/><linearGradient id="Áåçûìÿííûé_ãðàäèåíò_409-13" x1="1107.56" y1="398.52" x2="1107.56" y2="381.67" xlink:href="#Áåçûìÿííûé_ãðàäèåíò_409"/><linearGradient id="Áåçûìÿííûé_ãðàäèåíò_20-6" x1="1091.56" y1="367.18" x2="1091.56" y2="360.51" xlink:href="#Áåçûìÿííûé_ãðàäèåíò_20"/><linearGradient id="Áåçûìÿííûé_ãðàäèåíò_4" x1="1071.57" y1="444.36" x2="1071.57" y2="435.93" gradientUnits="userSpaceOnUse"><stop offset="0.01" stop-color="#985e40"/><stop offset="0.99" stop-color="#d195ab"/></linearGradient><linearGradient id="Áåçûìÿííûé_ãðàäèåíò_6-5" x1="1123.49" y1="559.77" x2="1123.49" y2="474.85" xlink:href="#Áåçûìÿííûé_ãðàäèåíò_6"/><linearGradient id="Áåçûìÿííûé_ãðàäèåíò_6-6" x1="980.01" y1="475.93" x2="980.01" y2="376.79" xlink:href="#Áåçûìÿííûé_ãðàäèåíò_6"/><linearGradient id="Áåçûìÿííûé_ãðàäèåíò_5" x1="992.58" y1="475.93" x2="992.58" y2="393.46" gradientUnits="userSpaceOnUse"><stop offset="0" stop-color="#ffeadb"/><stop offset="0.99" stop-color="#db86d1"/></linearGradient><linearGradient id="Áåçûìÿííûé_ãðàäèåíò_142-4" x1="1049.92" y1="493.17" x2="1049.92" y2="432.48" xlink:href="#Áåçûìÿííûé_ãðàäèåíò_142"/><linearGradient id="Áåçûìÿííûé_ãðàäèåíò_5-2" x1="1106.07" y1="538.14" x2="1106.07" y2="464.91" xlink:href="#Áåçûìÿííûé_ãðàäèåíò_5"/><linearGradient id="Áåçûìÿííûé_ãðàäèåíò_5-3" x1="1149.59" y1="556.19" x2="1149.59" y2="540.56" xlink:href="#Áåçûìÿííûé_ãðàäèåíò_5"/><linearGradient id="Áåçûìÿííûé_ãðàäèåíò_5-4" x1="1156.57" y1="557.7" x2="1156.57" y2="541.48" xlink:href="#Áåçûìÿííûé_ãðàäèåíò_5"/><linearGradient id="Áåçûìÿííûé_ãðàäèåíò_142-5" x1="1089.28" y1="491.25" x2="1089.28" y2="474.85" xlink:href="#Áåçûìÿííûé_ãðàäèåíò_142"/><linearGradient id="Áåçûìÿííûé_ãðàäèåíò_142-6" x1="1015.21" y1="476.24" x2="1015.21" y2="449.26" xlink:href="#Áåçûìÿííûé_ãðàäèåíò_142"/><linearGradient id="Áåçûìÿííûé_ãðàäèåíò_4-2" x1="1047.55" y1="438.69" x2="1047.55" y2="431.71" xlink:href="#Áåçûìÿííûé_ãðàäèåíò_4"/><linearGradient id="Áåçûìÿííûé_ãðàäèåíò_17-6" x1="1050.08" y1="489.81" x2="1050.08" y2="435.95" xlink:href="#Áåçûìÿííûé_ãðàäèåíò_17"/><linearGradient id="Áåçûìÿííûé_ãðàäèåíò_204-4" x1="1011.16" y1="764.59" x2="1011.16" y2="582.49" xlink:href="#Áåçûìÿííûé_ãðàäèåíò_204"/><linearGradient id="Áåçûìÿííûé_ãðàäèåíò_204-5" x1="1040.91" y1="744.4" x2="1040.91" y2="657.61" xlink:href="#Áåçûìÿííûé_ãðàäèåíò_204"/><linearGradient id="Áåçûìÿííûé_ãðàäèåíò_107-5" x1="1026.39" y1="581.8" x2="1056.69" y2="581.8" xlink:href="#Áåçûìÿííûé_ãðàäèåíò_107"/><linearGradient id="Áåçûìÿííûé_ãðàäèåíò_3" x1="234.8" y1="315.35" x2="244.21" y2="315.35" gradientUnits="userSpaceOnUse"><stop offset="0.02" stop-color="#ffa136"/><stop offset="1" stop-color="#fc6b42"/></linearGradient><linearGradient id="Áåçûìÿííûé_ãðàäèåíò_341" x1="195.94" y1="351.79" x2="195.94" gradientUnits="userSpaceOnUse"><stop offset="0" stop-color="#832ece"/><stop offset="1" stop-color="#dbbae7"/></linearGradient></defs><g class="cls-2"><g id="Capa_10" data-name="Capa 10"><polygon class="cls-3" points="55.36 356.24 56.52 14.66 300.49 52.1 300.42 362.62 55.36 356.24"/><polygon class="cls-4" points="74.53 0 65.02 7.1 65.02 345.71 308.16 355.71 318.43 351.79 74.53 0"/><polygon class="cls-5" points="73.37 341.58 74.53 0 318.5 37.45 318.43 351.79 73.37 341.58"/><polygon class="cls-6" points="65.02 345.71 73.37 341.58 318.43 351.79 308.16 355.71 65.02 345.71"/><g class="cls-7"><path class="cls-8" d="M901.06,323.6c-9.33,4.46-16.78,13.18-22,21.09a102,102,0,0,0-8.87,16.42c-5-13-14.35-18.77-14.35-18.77,0-1,0-2,.12-2.89,1.61-21.31,20.78-29.92,20.78-29.92C892.39,311.46,901.06,323.6,901.06,323.6Z" transform="translate(-782.7 -270.98)"/><path class="cls-9" d="M867.38,355.22s7-27.21,28-37.46l2.4,2.14s-21.57,11.23-27.57,41.2Z" transform="translate(-782.7 -270.98)"/><path class="cls-10" d="M883.4,333.84,879,344.69a102,102,0,0,0-8.87,16.42c-5-13-14.35-18.77-14.35-18.77,0-1,0-2,.12-2.89v0s12,3.89,15.81,4.34S882.94,334.44,883.4,333.84Z" transform="translate(-782.7 -270.98)"/><path class="cls-11" d="M878.44,577.81c-2.12,19.81,26.38,111.41,26.38,111.41S907.31,658,914,641.05l10.12,46s6.57-59.94,10.62-87.89,12.51-67,12.51-67l1.09-28.89h-30.7l-19,11.09S883.81,527.6,878.44,577.81Z" transform="translate(-782.7 -270.98)"/><path class="cls-12" d="M885.31,735v11.22l15.81-3.12a40,40,0,0,1-2-12.69Z" transform="translate(-782.7 -270.98)"/><path class="cls-13" d="M926.68,726v9.37s7.54,1.29,11.21,0a11.61,11.61,0,0,0,5.23-3.31,39.59,39.59,0,0,1-3-12.13C939.55,713.12,926.68,726,926.68,726Z" transform="translate(-782.7 -270.98)"/><path class="cls-14" d="M948.37,718.18l0,.08c-.32.92-3.45,8.33-23.13,12.15,0,0-14-53-10.67-78.33,0,0,5-7.35,6.52-11,1-2.34-.89-26.39-2.37-43.48a2,2,0,0,1,0-.35c-.84-9.5-1.54-16.77-1.54-16.77l8.09-40,17.64-23,1.63-2.13s5.3,81.21,0,123.51c0,0-3.27,7.72-4.38,10.66s3,65.1,3,65.1Z" transform="translate(-782.7 -270.98)"/><path class="cls-15" d="M938.08,553.15,925.94,560c-1.27,9.27-4.11,23.36-7.25,37.55l-.39,1.76c-4.95,22.16-10.53,44.08-11.85,47.6-.25.67-.51,1.34-.77,2,0,.07-.06.14-.09.23l-.44,1.14c-1.53,4-3.1,7.78-3.64,9.09l-.2.5c-1.47,4.51-.74,59.46-.74,62.78s5.88,10.66,5.88,10.66c-9.93,5.89-25,2.57-25,2.57-5.14-24.26-7.72-66.93-5.88-72.34s5.88-9.29,7-13.34-1.11-32,3.68-69.8a346.77,346.77,0,0,1,6.55-36.15.57.57,0,0,0,0-.12l0,0a271.6,271.6,0,0,1,8.25-28.81s38.43-6.53,41.79,2.13a3.35,3.35,0,0,1,.24,1.06C943.67,528.75,938.08,553.15,938.08,553.15Z" transform="translate(-782.7 -270.98)"/><path class="cls-16" d="M902.77,367.08c-13.23,15.26-28.13,21.39-32,20.9s-3.8-30.46,7.66-49.22,45.11-35.12,51.73-30.52-1.22,28.12-10.26,40.63S902.77,367.08,902.77,367.08Z" transform="translate(-782.7 -270.98)"/><path class="cls-17" d="M896.86,388a141.38,141.38,0,0,1,6.28,13.48s7.45,6.07,14,3.68c0,0,.55-2.11-.92-5.88a17.75,17.75,0,0,1-2.49-5.15C913,391.35,896.86,388,896.86,388Z" transform="translate(-782.7 -270.98)"/><path class="cls-18" d="M901.7,396.84s8.79,7.29,14.45,5a9.33,9.33,0,0,0-.77-3.86l-1-2.08L896.86,388S900.17,394.33,901.7,396.84Z" transform="translate(-782.7 -270.98)"/><path class="cls-19" d="M945.39,531.88s-16.73,12.46-27.65,13.38-21.63-14-21.63-14,3.23-13.39,4.95-15.89l43.77.67Z" transform="translate(-782.7 -270.98)"/><path class="cls-20" d="M923.19,395.34a21.14,21.14,0,0,1-8.1.73h0a32.72,32.72,0,0,1-16.45-6.52c-6.2-4.82-17.37-22-19.71-27.35-1.3-2.94.1-10.74,3.46-17.86,2.76-5.79,6.83-11.12,11.84-13,.89-.32,1.76-.61,2.65-.86a31.1,31.1,0,0,1,5.21-1c5.91-.65,11.11.58,13.52,3.67,3.45,4.41,4.69,20.68,5.65,23.44a5.22,5.22,0,0,0,2,2.24c2.14,1.6,5.36,3.34,7,7.55C932.56,372.46,930.93,393,923.19,395.34Z" transform="translate(-782.7 -270.98)"/><path class="cls-21" d="M923.24,358.84s-2.86,3.75-6.33,2.63a15.5,15.5,0,0,1-2.2-7c-.08-3.73,2.06-13,2.06-13s0-5.16-2.14-6.63-17.34,2.68-21.27,7.37-2.26,14.7-2.26,14.7,6-9.29,10.76-11.12c0,0,5.88,6.22,7.4,18.37,0,0-5.77,5.58-12.39,5.85,0,0-2.58.42-3.51,4.56s4.54,13.41,9.93,16.83a42,42,0,0,0,11.79,4.71,32.72,32.72,0,0,1-16.45-6.52c-6.2-4.82-17.37-22-19.71-27.35-1.3-2.94.1-10.74,3.46-17.86l14.49-13.83,5.21-1c5.91-.65,11.11.58,13.52,3.67,3.45,4.41,4.69,20.68,5.65,23.44A5.22,5.22,0,0,0,923.24,358.84Z" transform="translate(-782.7 -270.98)"/><path class="cls-22" d="M922.08,329.32a12.3,12.3,0,0,1-2.44,7.59A17.28,17.28,0,0,1,918,339s-1.28-5.17-5.56-7.1l-1.24,1.66a36.83,36.83,0,0,0-15.44,2.62,28.62,28.62,0,0,0-14.24,12.65,2,2,0,0,1-.1.21,10.51,10.51,0,0,0-1.09,3l0,.11,4.19,5.24s-.6,6.76.92,10.89a18.1,18.1,0,0,0,3.58,6.22l-4.5-1.11s-5.72-9.24-8.88-15.31c0,0,2.49-13.23,11.31-22.75s20.83-15.72,25-16.55l.83,3.87a18.94,18.94,0,0,1,10.61.41l-3.31.83S921.67,324.24,922.08,329.32Z" transform="translate(-782.7 -270.98)"/><path class="cls-23" d="M887,373.79a14.48,14.48,0,0,0-10.76-.37,11.82,11.82,0,0,0-.3,6.59s5.27,7.36,14.09,8a4.68,4.68,0,0,0,3.37-3.87S890.55,377.5,887,373.79Z" transform="translate(-782.7 -270.98)"/><path class="cls-24" d="M901.62,397.83A26,26,0,0,0,898,410.47s-5,6.81-9,9.75a180.24,180.24,0,0,0,14.9,34.93c9.56,16.55,19.44,67,19.44,67s14.76,6.41,19.76-3.61c8.5-17,9.27-55.53,9.89-65.39,2-32-14.16-43-23-51.48a21.21,21.21,0,0,1-7.91.55,32.67,32.67,0,0,0-6.7-4.23,12.45,12.45,0,0,1,.63,6.25S904.24,404.76,901.62,397.83Z" transform="translate(-782.7 -270.98)"/><path class="cls-25" d="M935.3,476.41s-.95-15.56-3.15-26.31-8-26.62-8-26.62,6.07,15,9,26.47,4.6,28.28,4.6,28.28L945.39,518l-6.07-4.14s-1.29,6.5-3.47,10.07l-2.19.27a93.45,93.45,0,0,0,1.11-10.07l-9.82,7Z" transform="translate(-782.7 -270.98)"/><path class="cls-26" d="M898,410.47s5.15,8.92,12.14,11.31c0,0-.19-12.67,4.5-16.08l3-1.11s5.67,2.76,8,6.71l3-6.71v-3.72s11.58,4.45,15.44,10S954.9,444.3,954.9,444.3l-7.17,23.36-5.42,5S947,456.26,946.63,445s-9.29-26.75-9.29-26.75-13.15,1.37-22.34,6.43a38.78,38.78,0,0,0-13.94,13.79s3,10.72,9.85,17.14l-13.47-8.13-7.54-27.95A93.21,93.21,0,0,0,898,410.47Z" transform="translate(-782.7 -270.98)"/><path class="cls-27" d="M1046.36,366.54c-.11.17-.23.36-.33.54h0c-3.07,5.12-2.88,11.4-2.12,16v0a35.22,35.22,0,0,0,1.57,6.07s-1,1.05-2.72,2.57c-3.41,3-9.61,7.91-16.22,10.13-9.92,3.3-23.35,3.11-35.49,6s-36,13.34-36,13.34,0,.17,0,.25c.23,2.14,2,18,2.5,34.16a192.69,192.69,0,0,1-.33,21.49c-.46,5.12-1,10-1.66,14.7a313.55,313.55,0,0,1-6.39,33.38h0l-.12.45c-.89,3.48-1.51,5.68-1.7,6.32l-.06.19a28.82,28.82,0,0,0-.76-6.14c0-.25-.1-.5-.16-.75a3.08,3.08,0,0,0-.07-.35c-.15-.68-.32-1.39-.53-2.17,0,0,0,0,0,0-.2-.78-.43-1.59-.69-2.42a62.38,62.38,0,0,0-6.73-14.43.38.38,0,0,1-.07-.1,0,0,0,0,1,0,0,53,53,0,0,1-9.37,12.3c-5.52,5.17-20.83,12.4-21.79,12.85l-.05,0,0-.12c-.26-1-2.27-8.78-4.3-12.56,0,0,0,0,0,0a12.29,12.29,0,0,0-.65-1.08,8.58,8.58,0,0,0-3-2.69s-.06,0-.07,0a5.18,5.18,0,0,0-2.07-.59,7.06,7.06,0,0,0,3.08-1.54h0c3-2.36,5-6.62,4.85-8.57a76.09,76.09,0,0,0-2.55-12.11c-1-3.53-2.27-7.56-3.9-11.79-4.43-11.4-10.31-17.65-10.31-17.65s-12.87,11.95-19.58,23.72-13.69,20-15.91,19.12S839.34,494.14,832,480.72a125.05,125.05,0,0,1-5.68-11.79,91.85,91.85,0,0,1-4.26-12.3c5.34-.19,9-9,9-9,5.89,11.95,19.13,23,19.13,23a6.59,6.59,0,0,1,1.66-2.21c1.1-.92,1.83,2.21,1.83,2.21,16.36-17.66,17.1-36.23,17.1-36.23a18.7,18.7,0,0,1,0-3.49c.18-1.65,3.86-1.65,7.66-4.41s9.26-5.88,9.26-5.88,0-3.22,1-4.76l.31-.4c1.24-1.22,4.09.51,4.37.67v0l-3.46,3.36s6.44,21.32,19,34,28.86,24.73,28.86,24.73,15.87-21.63,12.2-44.22c-2.4-14.72-15.33-29.06-18.7-31.13s-7.56-.66-7.88-.58a8.15,8.15,0,0,1,2.24-2.87c1.34-1,2.52.73,4.88,1.05a3.72,3.72,0,0,0,.76.06c2.87,0,10.36-4.77,10.36-4.77l4.22,3.3s25-3.86,48.37-12.31c18.35-6.64,40.08-15.33,48.56-18.75l0,0c1.69-.67,2.84-1.15,3.35-1.35Z" transform="translate(-782.7 -270.98)"/><path class="cls-28" d="M1046.38,364.41l-.29,2.23-.06.44h0l-2.12,16v0l-1.15,8.64c-3.41,3-9.61,7.91-16.22,10.13-9.92,3.3-23.35,3.11-35.49,6s-36,13.34-36,13.34c-.57-5.47-9.2-22.07-9.2-22.07l11.89,14.48s21.77-6.2,33.91-8.89,39.43-9.53,39.43-9.53c3.59-17.92,11.4-26.74,11.7-27.12l0,0Z" transform="translate(-782.7 -270.98)"/><path class="cls-29" d="M943.48,471.55c-.54,1.05-2.93,34.16-2.93,34.16,3.82,4.78,8.4,18.81,8.61,19.41h0l-.12.45-1.7,6.32-.06.19a40.35,40.35,0,0,0-.76-6.14c0-.25-.1-.49-.16-.75a3.08,3.08,0,0,0-.07-.35c-.15-.68-.31-1.41-.53-2.17,0,0,0,0,0,0-.2-.78-.43-1.59-.69-2.42a84.29,84.29,0,0,0-6.73-14.43.38.38,0,0,1-.07-.1,0,0,0,0,1,0,0,35.38,35.38,0,0,1-10,13.73c-6.94,5.73-20.36,11.09-21.19,11.42l-.05,0,0-.12c-.32-1-2.69-8.76-4.3-12.56,0,0,0,0,0,0a7.09,7.09,0,0,0-3.68-3.77s-.06,0-.07,0c-.16-.08-.29-.12-.43-.18a6.9,6.9,0,0,0-1.64-.41l3.08-1.54h0c4.24,1.91,7.22,13.82,8.33,14.79s5.79-1,10.75-4.28,16.82-13.13,17.37-17.06.14-23.9-.55-25-20.27-14.91-31-28-17.12-32.12-17.12-32.12a5.39,5.39,0,0,1,1-4.76l.31-.4c2.1-2.55,4.19.4,4.37.67v0l-3.46,3.36s6.44,21.32,19,34,28.86,24.73,28.86,24.73,15.87-21.63,12.2-44.22c-2.4-14.72-15.33-29.06-18.7-31.13s-7.56-.66-7.88-.58a8.15,8.15,0,0,1,2.24-2.87c1.34-1,2.52.73,4.88,1.05,4.67,3.9,12.07,11.24,14.94,16.38,4,7.18,9.24,19.58,6.75,31.67A89.89,89.89,0,0,1,943.48,471.55Z" transform="translate(-782.7 -270.98)"/><path class="cls-30" d="M957.21,477c-.46,5.12-1,10-1.66,14.7l-.64.38s-5.71,6.6-16.64,13.59V488.63s-24.72,3.31-36,2.95c-1-3.53-2.27-7.56-3.9-11.79-4.43-11.4-10.31-17.65-10.31-17.65s-12.87,11.95-19.58,23.72-13.69,20-15.91,19.12S839.34,494.14,832,480.72a125.05,125.05,0,0,1-5.68-11.79l1-3.74s12.08,24.58,24,30.94a44.39,44.39,0,0,0,2.47-25.53c16.36-17.66,17.1-36.23,17.1-36.23s4.78-.51,13.7,9.4,10.57,23.59,10.57,23.59a327.84,327.84,0,0,0,36.16,12.8H914.86s13.07,2.57,23.28,4.23c0,0,7.73-5.72,15-20.56,1.72-3.51,3.18-6.2,4.4-8.28A192.69,192.69,0,0,1,957.21,477Z" transform="translate(-782.7 -270.98)"/><path class="cls-31" d="M1061.82,402.38c-1.26,3.81-3.78,3.5-5.44,5.35a.46.46,0,0,0-.07.07c-1.66,1.93-2.76,10.76-6.07,12s-4.23-4.41-5.33-7.16-5.33.37-6.29-3.49c-.51-2,.38-6,1.35-9.33v0c.82-2.84,1.69-5.19,1.79-5.46-.16.13-1.32,1.11-2.18,0s-2-11.09,1.09-20,5.71-10,5.71-10,1.1-11.86,3.13-10.39c.93.67,1.38,2.72,1.61,4.74a38,38,0,0,1,.22,4.73s2.39,13,5.71,18.64S1063.1,398.52,1061.82,402.38Z" transform="translate(-782.7 -270.98)"/><path class="cls-32" d="M843.84,453.31a3.48,3.48,0,0,1-1.89.39c-2.14,0-5.05-.65-5.37.26-.44,1.28,1,7.65-.37,13.64a16.31,16.31,0,0,1-1.56,4.28c-2.92,5.37-3.81,3.15-4.71,2.87-.25-.07-.51,0-.8.42-1.36,1.91-6.12,14.33-11.47,15.66a1.37,1.37,0,0,1-.4.09c-4.8.72-4.38-22.66.89-34.8a.45.45,0,0,1,.06-.12,18.8,18.8,0,0,1,2.63-4.44s.06-.16.19-.42a0,0,0,0,1,0,0,14.14,14.14,0,0,1,6.1-6.66,9.26,9.26,0,0,1,2-.7h0c.77.22,13.25,3.88,14.85,7.79C844.39,452.45,844.26,453,843.84,453.31Z" transform="translate(-782.7 -270.98)"/><path class="cls-33" d="M914.5,410s4.17-2.35,6.56-1.38c0,0,2.81-5.66,6.67-7.72,0,0,7.31,5.65,6.49,14.75l-11.86-.69L917.22,417a115.33,115.33,0,0,1-9.34,9.24s-6.47-6.48-6.82-15.45A35.22,35.22,0,0,1,914.5,410Z" transform="translate(-782.7 -270.98)"/><path class="cls-34" d="M936.29,775.69c-11.49,1.15-36.38,1.7-41.39.36a1.86,1.86,0,0,1-.81-.36c-1.66-1.79-3.58-6.49-3.58-6.49a22.51,22.51,0,0,1-8.42,0,101.83,101.83,0,0,1,0-15.3,39.73,39.73,0,0,1,3.22-11.72l.36,2.34,4.42.14c5.24-6.48,16.27-5.24,16.27-5.24.92,1.71,0,7-.12,7.42v0a33.65,33.65,0,0,0,6.75,9.65,18.36,18.36,0,0,0,2.81,2.2c6.6,4.41,19.11,9.52,19.11,9.52a7.63,7.63,0,0,1,1,2.52A21.09,21.09,0,0,1,936.29,775.69Z" transform="translate(-782.7 -270.98)"/><path class="cls-35" d="M986.35,758.08s-17.24,4.09-27.31,3c-.84-.09-1.69-.21-2.52-.34a82.09,82.09,0,0,1-17.2-4.9v3.71a88.25,88.25,0,0,1-17.24,0s-.68-10.21,0-14.75,4.6-11.31,4.6-11.31l.64,1.51,9.8-.07a22.31,22.31,0,0,1,2.2-5.65c1.38-2.21,5.72-4.07,7.24-2.69s.48,6.9.48,6.9a55.39,55.39,0,0,0,13.51,10.21c.73.39,1.5.77,2.3,1.13,8.5,3.92,20.6,6.45,20.6,6.45a17.1,17.1,0,0,1,2.15,4.09A16.24,16.24,0,0,1,986.35,758.08Z" transform="translate(-782.7 -270.98)"/><path class="cls-36" d="M936.29,775.69c-11.49,1.15-36.38,1.7-41.39.36,0,0,6.89-18.57,20.89-17.33,6.6,4.41,19.11,9.52,19.11,9.52C936.55,770.73,936.29,775.69,936.29,775.69Z" transform="translate(-782.7 -270.98)"/><path class="cls-37" d="M986.35,758.08s-17.24,4.09-27.31,3c-.84-.09-1.69-.21-2.52-.34-.49-2.15-1.86-10.73,6.33-15.91,8.5,3.92,20.6,6.45,20.6,6.45A17.24,17.24,0,0,1,986.35,758.08Z" transform="translate(-782.7 -270.98)"/><path class="cls-38" d="M891.1,356.32s3.77-8.46,10.39-11.77c0,0,.7,1.38-.43,4.6a45.22,45.22,0,0,0-5.18,3.22C893.67,354,891.1,356.32,891.1,356.32Z" transform="translate(-782.7 -270.98)"/><path class="cls-39" d="M914.73,349.52s-.28-7.86,3-11.49c0,0,1.26,1.55,1.13,5A9.44,9.44,0,0,0,914.73,349.52Z" transform="translate(-782.7 -270.98)"/><path class="cls-40" d="M896.4,362.75c-.37,1.07,2.42,4.51,3.52,5.16s6.68-2.21,7.28-3.31-.7-6.81-2.38-9.38A12.08,12.08,0,0,0,896.4,362.75Z" transform="translate(-782.7 -270.98)"/><path class="cls-40" d="M921.61,358.62a5.45,5.45,0,0,1-1.77,1.09,6.19,6.19,0,0,1-3,.38c-1.44-1.7-2.21-5.58-1.59-6.94a5.75,5.75,0,0,1,4.79-3.63c.12.71.25,1.51.4,2.33.08.49.17,1,.24,1.47.28,1.53.54,3,.72,4C921.51,358.11,921.61,358.62,921.61,358.62Z" transform="translate(-782.7 -270.98)"/><path class="cls-41" d="M923.3,366a7.35,7.35,0,0,1-3.29,6s-4.6.89-8.13-1.08C911.88,370.85,914.37,366,923.3,366Z" transform="translate(-782.7 -270.98)"/><path class="cls-42" d="M920.74,371.39a6.81,6.81,0,0,0,1.63-5.4,19.42,19.42,0,0,1-5.46-4A28.1,28.1,0,0,0,923.3,366,6.6,6.6,0,0,1,920.74,371.39Z" transform="translate(-782.7 -270.98)"/><path class="cls-43" d="M915.57,372a2.65,2.65,0,0,0-3.69-1.16S912.86,371.9,915.57,372Z" transform="translate(-782.7 -270.98)"/><path class="cls-43" d="M896.4,362.75s1.07-6.11,8.42-8.31l.61,1.88-.31-.6A15.79,15.79,0,0,0,896.4,362.75Z" transform="translate(-782.7 -270.98)"/><path class="cls-43" d="M914.89,355a5.2,5.2,0,0,1,1.4-4,6.73,6.73,0,0,1,3.68-2.44l.22,2-.08-.7A6.86,6.86,0,0,0,914.89,355Z" transform="translate(-782.7 -270.98)"/><path class="cls-44" d="M907.36,363.91a2.73,2.73,0,0,1-.08.34.08.08,0,0,0,0,0,2.47,2.47,0,0,1-1.73,1.36c-1.59.29-3.22-1.3-3.64-3.57-.36-2,.3-3.76,1.52-4.41l.13-.06a1.94,1.94,0,0,1,.48-.16.45.45,0,0,1,.16,0,2.46,2.46,0,0,1,1.86.61h0a14.34,14.34,0,0,1,.93,2.86c0,.06,0,.13,0,.21v.05A9.62,9.62,0,0,1,907.36,363.91Z" transform="translate(-782.7 -270.98)"/><path class="cls-45" d="M907,361.13v.05c.24,1.43-.36,2.73-1.36,2.91s-2.06-.83-2.33-2.28.34-2.76,1.36-2.95,1.95.74,2.28,2.06C907,361,907,361.05,907,361.13Z" transform="translate(-782.7 -270.98)"/><path class="cls-46" d="M921.61,358.62a5.45,5.45,0,0,1-1.77,1.09c-1-.36-1.81-1.91-2-3.83s.26-3.71,1.14-4.23l.1,0a1,1,0,0,1,.35-.1h.11a1.48,1.48,0,0,1,.91.36c.08.49.17,1,.24,1.47.28,1.53.54,3,.72,4C921.51,358.11,921.61,358.62,921.61,358.62Z" transform="translate(-782.7 -270.98)"/><path class="cls-45" d="M921.37,357.31c-.18.54-.48.89-.86.93-.74.09-1.49-1-1.66-2.49s.28-2.71,1-2.79a1,1,0,0,1,.78.36C920.93,354.85,921.19,356.3,921.37,357.31Z" transform="translate(-782.7 -270.98)"/><path class="cls-47" d="M903,363.24a1.21,1.21,0,1,1-1.21-1.21A1.21,1.21,0,0,1,903,363.24Z" transform="translate(-782.7 -270.98)"/><path class="cls-47" d="M918.71,356.32a1,1,0,1,1-1-1A1,1,0,0,1,918.71,356.32Z" transform="translate(-782.7 -270.98)"/><path class="cls-48" d="M906.54,377.19a5.81,5.81,0,0,0-1.72,2.81l1.13-.69a14,14,0,0,0,2.87,1.3c1.34.37,9.24.17,11.75-.94s3.4-4.36,3.67-5.51a7.12,7.12,0,0,0,.18-2.15,3.73,3.73,0,0,1-1.1,1.92c-1.06,1.19-11.74,6.12-13.51,6.34a4.77,4.77,0,0,1-3.4-1.38,2.81,2.81,0,0,1,1.37-.82S907.38,376.71,906.54,377.19Z" transform="translate(-782.7 -270.98)"/><path class="cls-40" d="M913.12,379.9s8.13-4.13,10.39-5.37a6.71,6.71,0,0,1-.6,2.48c-.6,1.34-1.94,2.2-4.06,2.57A51.3,51.3,0,0,1,913.12,379.9Z" transform="translate(-782.7 -270.98)"/><path class="cls-49" d="M876.94,377.74a17.49,17.49,0,0,1,7.54.33,9.89,9.89,0,0,1,5.42,4,12.45,12.45,0,0,0-6.48-2.8c-3.63-.28-5.38,1-5.38,1a5.12,5.12,0,0,0,1.34,2.12S876.66,380.32,876.94,377.74Z" transform="translate(-782.7 -270.98)"/><path class="cls-49" d="M882,378.52s2.57,4.88,6.48,5.25c0,0-3.77-1.75-4-4.79Z" transform="translate(-782.7 -270.98)"/><path class="cls-50" d="M919.64,336.91A17.28,17.28,0,0,1,918,339s-1.28-5.17-5.56-7.1l-1.24,1.66a36.83,36.83,0,0,0-15.44,2.62,28.62,28.62,0,0,0-14.24,12.65c1.59-3.58,4.85-9.23,10.79-12.78,9.23-5.52,15.05-5.8,15.05-5.8s4.12-7.17,4.53-11.45l.83,3.87s1.51,2.39,0,6.64a9.54,9.54,0,0,1,6,2.73C919.87,333.35,919.9,335.31,919.64,336.91Z" transform="translate(-782.7 -270.98)"/><path class="cls-51" d="M825.64,459.38l4.3,15.37c-.25-.07-.51,0-.8.42-1.36,1.91-6.12,14.33-11.47,15.66a24.45,24.45,0,0,0,5.59-8.74C825.88,475.16,825.64,459.38,825.64,459.38Z" transform="translate(-782.7 -270.98)"/><path class="cls-52" d="M833.46,450.19A45.64,45.64,0,0,0,842,453.7c-2.14,0-5.05-.65-5.37.26-.44,1.28,1,7.65-.37,13.64a21.26,21.26,0,0,0,0-4A101.41,101.41,0,0,0,833.46,450.19Z" transform="translate(-782.7 -270.98)"/><path class="cls-53" d="M843.84,453.31l-2.66-2.67c-3.26-3.24-11.33-6.59-12-6.87.77.22,13.25,3.88,14.85,7.79C844.39,452.45,844.26,453,843.84,453.31Z" transform="translate(-782.7 -270.98)"/><path class="cls-54" d="M818.08,456.34a49.56,49.56,0,0,0-.39,7.18c.23,1.93,9.23-5.61,11.39-9.93s0-9.84,0-9.84H828S820,450.63,818.08,456.34Z" transform="translate(-782.7 -270.98)"/><path class="cls-55" d="M827.75,442.93a23.8,23.8,0,0,0,1.75,4.5c-1.19,4.51-6.8,8.28-6.8,8.28L820,452.76a39.56,39.56,0,0,1-4-1.1c-2.21-.74-16-6-21.51-9.11a121.7,121.7,0,0,1-11.68-7.8,2.28,2.28,0,0,1,1.27-2.68c3.57.47,6.73,4,9,5s7.9,1.56,7.9,1.56l.19-1.3a85.4,85.4,0,0,1-7.9-6c-2.22-2.11-7.27-7.26-7.73-8.27a3.65,3.65,0,0,1-.47-2.95,1.61,1.61,0,0,1,1.75-1,15,15,0,0,1-2.67-3.13,2.24,2.24,0,0,1,.83-2.39c.56-.47,2.58-.37,5.24,1.93s5.24,5.8,6.35,6.89,8.18,5.07,8.18,5.07l1.19-1.94c-1.66-3.58-3.13-8-2.94-9s3.5-4.32,4.78-6.44,1-4,1.38-4.87,2.21-.45,2.21-.45,1.75,4.22,1.11,7-4,7.17-4,7.17a9.7,9.7,0,0,0,2.17,3.5c2.3,2.58,5.53,4.55,6.1,4.23s2-2.7,2.52-4.71a.65.65,0,0,0,0-.16h0a3.39,3.39,0,0,0,0-2c-.72-1.83-3.39-4-3.85-7.07s1.28-6.62,1.93-7.08,3.39-.36,3.67,0,.28,7.36.92,11.31,8.64,10.3,8.46,13.51S827.67,441.82,827.75,442.93Z" transform="translate(-782.7 -270.98)"/><path class="cls-56" d="M813.93,420.17l-7.33-77.91a1.92,1.92,0,0,1,2.4,0l8.69,77.91S815.41,422.24,813.93,420.17Z" transform="translate(-782.7 -270.98)"/><path class="cls-57" d="M809.94,377.72h3l-4-35.46a1.62,1.62,0,0,0-2.4,0Z" transform="translate(-782.7 -270.98)"/><path class="cls-58" d="M1061.82,402.38c-1.26,3.81-3.78,3.5-5.44,5.35a44.64,44.64,0,0,0-.26-8.66c-.82-6.35-3.16-11.59-4.27-9.93s-4.21,15.64-4.39,16.51a47.54,47.54,0,0,0,.11-16.51c-2.66,2.27-7.29,10.19-7.58,10.69l1.77-5.45,0,0,3-5.34s-2.34,0-2.21-7.45,3.77-15,3.77-15l2.15-1.64,2.59-6.12a38,38,0,0,1,.22,4.73s2.39,13,5.71,18.64S1063.1,398.52,1061.82,402.38Z" transform="translate(-782.7 -270.98)"/><path class="cls-59" d="M1046.38,367.54s4-1.79,4.69-2.62,1.56-9.86,3.21-11,7.91-4.29,10.21-7.32,3.86-11.49,5-11.95,4.69,2.94,3.77,7.44-5.79,6.44-7.72,8.28-.46,6.44-.46,6.44,7.45-.38,15.17.08,18.29,1.84,19.31,3.13.27,3.22,0,3.86-9.84-.92-12.23-1.29-9.65.74-9.65.74,10.66,1.19,15.26,2.48,8.45,3.31,8.91,4.32a2.36,2.36,0,0,1-1.28,2.76c-.92.46-6.9-1.56-6.9-1.56s4.87,1.65,5.06,2.66-.92,1.93-2,2.3-7-1-10.12-1.38-10.2-.18-10.2-.18l-.39.92s7.84,1.65,10.78,2.3,6.89,1.65,7.44,2.39-.09,2.11-1,2.57S1083,381.15,1076,381s-19.65,1.1-21.49.83a15.86,15.86,0,0,1-4.69-2.21l-5.61,1.75S1043.16,371.12,1046.38,367.54Z" transform="translate(-782.7 -270.98)"/><path class="cls-60" d="M1076,359.71a39.81,39.81,0,0,1-1.47,18.81l1.84-3.81a75.14,75.14,0,0,1,12.09.46,37,37,0,0,0-6.58-1.24,38.44,38.44,0,0,1-4.41-.32s-.6-2.72-.09-3.31c0,0,7.45-1,11.08-.51,0,0-9.33-.52-10.8-.67,0,0-.74-3.1,0-4s4.46-1.28,4.46-1.28l-4.5-.56,5.56-.67-6-.57Z" transform="translate(-782.7 -270.98)"/><path class="cls-61" d="M1065,356.79a27.3,27.3,0,0,1-2,7.9c-1.57,3.12-8.18,4.87-8.18,4.87a12.33,12.33,0,0,0-.74,3.31c-.09,1.66,11.22,6.53,14.62,5.65a18.77,18.77,0,0,0,4.26-8.41c1.16-5.24-.49-10.38-1.78-11.35S1065,356.79,1065,356.79Z" transform="translate(-782.7 -270.98)"/><path class="cls-62" d="M819.37,421.79l0,.16a.65.65,0,0,0,0-.16Z" transform="translate(-782.7 -270.98)"/><path class="cls-63" d="M824.73,440.72s-2.08,3.58-4.15,4.41-6.48-.56-7.63-1.36a9.35,9.35,0,0,1-4.77-8.57c.27-5.37,2.53-12.77,2.53-12.77,2.3,2.58,5.53,4.55,6.1,4.23s2-2.7,2.52-4.71l-1.65,6.9C817.83,433.41,824.73,440.72,824.73,440.72Z" transform="translate(-782.7 -270.98)"/><path class="cls-64" d="M806,425.55s-2.57,8.23-3,11.19-.92,6.46-.92,6.46-1.37-4.06-.82-5.89a28.71,28.71,0,0,0,2.32-5.32s-5.63-2.76-7.66-5.34c0,0-5.71-6.25-9-7.53,0,0,4.68,1.37,9.56,7.12,0,0,4.33,3.34,7.18,3.94A48.13,48.13,0,0,0,806,425.55Z" transform="translate(-782.7 -270.98)"/><path class="cls-65" d="M938.27,505.71s.35-19.92-.56-27.48l1-1.63S941.91,494.91,938.27,505.71Z" transform="translate(-782.7 -270.98)"/><path class="cls-66" d="M896.87,513.8s-14.44,19.9-18.43,64c0,0,7.23-47.45,21.53-62.79C900,515,897.86,513.53,896.87,513.8Z" transform="translate(-782.7 -270.98)"/><path class="cls-67" d="M906.45,733.35c-9.93,5.89-25,2.57-25,2.57-5.14-24.26-7.72-66.93-5.88-72.34s5.88-9.29,7-13.34-1.11-32,3.68-69.8a346.77,346.77,0,0,1,6.55-36.15c-.45,2.94-7.67,50.46-7.94,71.57-.27,21.79.47,33.09.47,33.09s13.73,3,20.37,0h0l-.1.23-.44,1.14-3.64,9.09-.2.5s-10.13,3.7-16,0c0,0-3,7.8-3.52,23.24S889,733.78,889,733.78,896.34,736.94,906.45,733.35Z" transform="translate(-782.7 -270.98)"/><path class="cls-68" d="M948.37,718.18l0,.08c-.32.92-3.45,8.33-23.13,12.15,0,0-14-53-10.67-78.33,0,0,5-7.35,6.52-11,1-2.34-.89-26.39-2.37-43.48l-.39,1.76.36-2.11.39-2.31s5.52-29.23,6.89-34.89l15.44-7s-10.2,8.82-12.12,13.5-3.77,64-2.58,72.82a26.41,26.41,0,0,0,17.8-.46l-1.35,9.57-3,1.09s-14.16-1.37-16,1.11-3.18,47.71,5.38,73.64C929.53,724.25,933,729.21,948.37,718.18Z" transform="translate(-782.7 -270.98)"/><path class="cls-69" d="M986.35,758.08s-17.24,4.09-27.31,3c-.84-.09-1.69-.21-2.52-.34a82.09,82.09,0,0,1-17.2-4.9v3.71a88.25,88.25,0,0,1-17.24,0s-.68-10.21,0-14.75,4.6-11.31,4.6-11.31l.64,1.51,9.8-.07a22.31,22.31,0,0,1,2.2-5.65c1.38-2.21,5.72-4.07,7.24-2.69s.48,6.9.48,6.9-14.12,3.35-17.61,5.84-4.77,10.57-4.77,10.57,13.61,3.68,28,6.62c12.67,2.6,29.3-.41,33-1.15A16.24,16.24,0,0,1,986.35,758.08Z" transform="translate(-782.7 -270.98)"/><path class="cls-70" d="M936.29,775.69c-11.49,1.15-36.38,1.7-41.39.36a1.86,1.86,0,0,1-.81-.36c-1.66-1.79-3.58-6.49-3.58-6.49a22.51,22.51,0,0,1-8.42,0,101.83,101.83,0,0,1,0-15.3,39.73,39.73,0,0,1,3.22-11.72l.36,2.34,4.42.14c5.24-6.48,16.27-5.24,16.27-5.24.92,1.71,0,7-.12,7.42v0s-10.82.09-14.31,2.47,0,17.66,0,17.66a13,13,0,0,0,9.2,7.54c6.32,1.19,31.28-3.16,34.77-3.78A21.09,21.09,0,0,1,936.29,775.69Z" transform="translate(-782.7 -270.98)"/><path class="cls-49" d="M1049.78,379.58s-4.1-6.24-2.46-12.47l-.94.43s-3.72,3.9-2.21,13.79Z" transform="translate(-782.7 -270.98)"/><path class="cls-49" d="M821.29,454.18s6-2.34,7.79-8.31l.42,1.56s-.08,4.79-6.8,8.28Z" transform="translate(-782.7 -270.98)"/><path class="cls-71" d="M989.1,392.78S1010.89,379.9,1020,377l-20.73,7.88S992.59,388,989.1,392.78Z" transform="translate(-782.7 -270.98)"/><path class="cls-72" d="M876.72,309.53s11.64,2.51,19.68,11.3l1.34-.93S890.79,311.33,876.72,309.53Z" transform="translate(-782.7 -270.98)"/><path class="cls-72" d="M896.9,320.48s23.66-13.49,33.57-9.91c3.63,1.31.74,13.94.74,13.94s6-16.24-3.1-17.45S896.9,320.48,896.9,320.48Z" transform="translate(-782.7 -270.98)"/><path class="cls-73" d="M924.44,359.69a16.7,16.7,0,0,1,5.6,9.36c1.62,7.34-1.2,19.67-3.06,23.16a39.37,39.37,0,0,0,4.23-19.64C930.7,362,924.44,359.69,924.44,359.69Z" transform="translate(-782.7 -270.98)"/><path class="cls-72" d="M932.63,400.29a59,59,0,0,0,8.34-3.07l5.36,2.5S975.4,396,994.1,388c0,0,42.73-18.26,49.36-20.3,0,0-29.47,9.81-49.87,19.25,0,0-39.73,11.54-48.79,10.87l-3.23-2.06S934.82,400.09,932.63,400.29Z" transform="translate(-782.7 -270.98)"/><path class="cls-72" d="M1052,361.2s1.69-6,3.67-7.31,9-5.12,10.94-8.23,1.91-9.24,1.91-9.24-1.64,7.68-4,10.16-8.44,5.47-10.21,7.32S1052,361.2,1052,361.2Z" transform="translate(-782.7 -270.98)"/><path class="cls-72" d="M1066.67,356.72s27,1.67,32.45,3C1099.12,359.71,1086.06,355.26,1066.67,356.72Z" transform="translate(-782.7 -270.98)"/><path class="cls-72" d="M1082.14,363.87s11.82,1.55,19.67,6.24C1101.81,370.11,1095.74,364.45,1082.14,363.87Z" transform="translate(-782.7 -270.98)"/><path class="cls-72" d="M887.7,420.59s-10.62,6.18-12.79,7.12a34.76,34.76,0,0,0-4.48,2.5l.21,5.73s-6.32,23.41-17,34.66c0,0,7.65-7.61,12-16s6.6-20.93,6.6-20.93-1.41-2.14.1-3.5,6.69-3.12,9.62-4.39S887.7,420.59,887.7,420.59Z" transform="translate(-782.7 -270.98)"/><path class="cls-74" d="M1100.65,391.94a16.62,16.62,0,0,1-.71,2.21,14,14,0,0,1-6.82,7.7c-6.74,3.36-14.95.39-14.95.39a29.49,29.49,0,0,1-4.63,1.34,86.8,86.8,0,0,1-11.39,1.73c-11.44,1.11-16.54-3.16-16.54-3.16a18,18,0,0,1-7.32,1.63h-.13c-4.34.08-9.17-1.33-11.87-6.11a16.82,16.82,0,0,1-.55-15.44c-1.32-7.83,3.33-14.62,3.58-15-4.79,3.62-6,12.41-6,12.41-1.39-7.71,3.85-16.53,11.86-16,1,.06,1.91.08,2.75.06,6-.13,8.42-2.09,8.42-2.09l26-2.33,16.93,7.75a41.14,41.14,0,0,1,8.71,10.37,22.53,22.53,0,0,1,3.11,9.77A15.82,15.82,0,0,1,1100.65,391.94Z" transform="translate(-782.7 -270.98)"/><path class="cls-75" d="M1102.05,390.1l-1.4,1.84-7.53,9.91c-6.74,3.36-14.95.39-14.95.39a29.49,29.49,0,0,1-4.63,1.34s-17-5.62-19.94-5.06-8,3.63-8,3.63c-2.65,1.69-6.53,1.66-7.32,1.63h-.13s8.54-4.44,6.07-10.14-8.18-13.68-8.18-13.68c-.26,2.63-1.5,7.21-1.41,7.62-.26-.59-2.15-7.28-1.17-13,1-6,6.62-9.11,6.62-9.11a3.36,3.36,0,0,0-2.21-1.82c6-.13,8.42-2.09,8.42-2.09l26-2.33,16.93,7.75a41.14,41.14,0,0,1,8.71,10.37l3.11,9.77Z" transform="translate(-782.7 -270.98)"/><path class="cls-76" d="M1004.14,487.05s-2.39,7.63,4.78,17.14,42.2,10.18,51.85,10.54,20.56-4.33,24.35-7.64l-23-13.92Z" transform="translate(-782.7 -270.98)"/><path class="cls-77" d="M1017.5,493.83s-14.65,14.37-15.47,31.65,25.62,69.64,33.26,102.42,12.25,76.3,12.25,76.3a11.42,11.42,0,0,0,8.45,0s3.34-47.9,0-60-13.42-38.15-15.9-47.35-.49-54.64-2.12-65.13S1017.5,493.83,1017.5,493.83Z" transform="translate(-782.7 -270.98)"/><path class="cls-78" d="M1016.22,498.27s-9.69,10.85-9.69,24.64,15.18,58.42,15.18,58.42l2.8-1s-14.76-41.52-14.14-57.86c.54-14.28,7.36-22.35,7.36-22.35Z" transform="translate(-782.7 -270.98)"/><path class="cls-79" d="M1018.52,508.38s-3.42,24,8.39,70.36l4.07-1.41s-10.38-29.83-9.19-60Z" transform="translate(-782.7 -270.98)"/><path class="cls-80" d="M1027.77,485.08s-8.59,7.71-10,15,4.06,20.49,14,31.57c0,0,4.78-15.77,18.2-23.31l6.07-9Z" transform="translate(-782.7 -270.98)"/><path class="cls-81" d="M1040.09,431.38s-.74,2.13-1.87,5.23c-.79,2.11-1.78,4.69-2.84,7.36-1.6,4-3.41,8.21-5.08,11.4-4.41,8.42-14.06,20.69-15.85,20.56s-10.91-6.48-18.21-18.48-15.59-37.38-17.38-39.85a21.1,21.1,0,0,0-5.29-4.88c-6-4.1-14.09-6.65-17-8.43-4-2.41-15-10-15-10,1.51-1.8,4.41-.83,4.41-.83l2.07-.55s9-1.51,14.76-.42,14.06,2.9,14.06,2.9a8.88,8.88,0,0,0-3-5.45c-2.62-2-5.94-2.55-6.62-6.27s3.3-8.27,4.28-6.48,4,11.16,8.13,15,6.76,3.45,8.42,7.05-2.22,14.89-2.22,14.89l0,.1.13.28c.25.56.77,1.73,1.54,3.3l0,.05a101.47,101.47,0,0,0,8.18,13.63c6.35,8.84,20.69,18.49,20.69,18.49l0,0,.05-.09c.88-1.16,8.07-10.75,10.12-16.71,2.21-6.34,2.49-12.95,6.9-15.16h0a16.88,16.88,0,0,1,4,2.05C1039.67,421.59,1040.09,431.38,1040.09,431.38Z" transform="translate(-782.7 -270.98)"/><path class="cls-82" d="M1156.47,540.32h-4.68s4.14,2.49,5.66,5,4.82,11.73,4.82,11.73l-1.24.68v2.07a6.23,6.23,0,0,1-5.1-3.58v2.34s-1.25.56-4.42-1.79-7.31-7.32-11-10.75-12-6.86-12.39-7l0,0a8.66,8.66,0,0,0,.56,2.36c.55,1.64,5,6.33,5.37,9.65.39,3.07-2.45,4.48-3.29,3.77a.6.6,0,0,1-.16-.19c-.42-.83-.9-3.9-1.76-6.43,0-.1-.08-.21-.1-.31-.17-.41-.31-.78-.47-1.13a3.59,3.59,0,0,0-.23-.48c-.06-.12-.13-.24-.19-.34-1.23-2-4.25-4.92-5.81-7.7a7.89,7.89,0,0,1-.82-1.95c-.83-3.3,4.14-9.1,3.45-11.44s-8.41-5.79-18.89-12.55c-10.1-6.52-20.6-17.15-23.42-22.34l0-.08c-.08-.16-.17-.32-.24-.48a10.83,10.83,0,0,1-.63-1.63h0c-1.57-5-1-12.56-2-22.21,0-.18-.05-.35-.06-.54a.06.06,0,0,1,0-.05,135.31,135.31,0,0,0-3.68-18.53.28.28,0,0,1,0-.06c-.78-2.92-1.34-4.81-1.34-4.81l-3,4-25-6.76a9.76,9.76,0,0,1-8.08-2.08,15.1,15.1,0,0,1-3.79-4.4l4.19-5.66c-.48-4.31-4.7-8.15-5.12-8.53h0c5.37-3.86,17.92-5.24,20.28-8.14s5.92-12.69,5.92-12.69l13.31-7.24c-2.26,3.36-7.66,16.07-6.83,18.27s13.93,8.41,15.87,10.35,3.85,6.9,5,18.47c1,10.64,5.28,28.74,8.76,37.82.29.8.6,1.53.89,2.18,3.58,8,25,35.3,28.55,40a49.8,49.8,0,0,0,4.45,4.88h0c1,1,2.06,2,3.15,3,4,3.55,8.42,7,11.4,8.42,5.39,2.62,14.08,3.18,14.08,3.18,3.43,1.79,7.31,6.62,7.31,6.62C1162,544.18,1156.47,540.32,1156.47,540.32Z" transform="translate(-782.7 -270.98)"/><path class="cls-83" d="M1057.42,402.82s6,1.34,10.31-1.53l5.25-11.36-13.31,7.25Z" transform="translate(-782.7 -270.98)"/><path class="cls-84" d="M1089.28,360.17c0,8.1-6.07,20.79-14.16,27.95-6,5.3-11.93,9.13-17.63,9.43-9.44.51-19.7-15.86-18.78-22.85.79-6,4-8.31,5.93-10.81a10.62,10.62,0,0,0,.87-1.31c1.66-3.13,1.47-14.91,5.71-20.79s16.17-4.94,16.17-4.94c7.48.38,12.49,3,15.81,6.45a21.64,21.64,0,0,1,4.89,8.63A29.4,29.4,0,0,1,1089.28,360.17Z" transform="translate(-782.7 -270.98)"/><path class="cls-85" d="M1077.71,385.56s.16,2.75,5.13,3.49,10.35-5.31,9.61-9.9-6.49-5-10.71-1.32C1081.74,377.83,1078.47,382.26,1077.71,385.56Z" transform="translate(-782.7 -270.98)"/><path class="cls-86" d="M1048.64,508.38s-14.07,7.61-17.1,26.47-3.86,58-7.72,89.46-18.76,82.19-21.79,91.57h8.55s11.4-26.66,20.23-38,7.26-42.48,10.84-56.27,18.85-46.42,24.09-66.56,1.93-45.07,0-52.59Z" transform="translate(-782.7 -270.98)"/><path class="cls-87" d="M1031,572.72s1.61-37.93,6.77-53.76a31,31,0,0,1,4.93-5.92s-7.07,42-8.19,59.83Z" transform="translate(-782.7 -270.98)"/><path class="cls-88" d="M1050.66,578.59s6.53-18.9,9.84-35.64,2.86-36.12,2.86-36.12l3.43.9s1.8,24.64-2.89,42.85a275,275,0,0,1-9.59,30.44Z" transform="translate(-782.7 -270.98)"/><path class="cls-89" d="M1040.89,574.17s9-46,10.6-65.79l3.31-1.75A279,279,0,0,1,1052,540c-1.61,11.27-5,23.59-7.41,35.5Z" transform="translate(-782.7 -270.98)"/><path class="cls-90" d="M1068.46,524.92s-24.61-2.57-37.48,16.56l-1.81,16.22s-22.82-16.41-27.14-32.22c0,0-.48-12.9,13-28.88l52.15,4.3S1068.36,519.77,1068.46,524.92Z" transform="translate(-782.7 -270.98)"/><path class="cls-91" d="M1058.59,506.29s7.51,0,13.49,4l-3.52-10.71-10-3.12Z" transform="translate(-782.7 -270.98)"/><path class="cls-92" d="M1085.12,507.09c-6.74-.73-7.06,3.5-11.28,3.68s-3.69-7.9-9.89-7.9-7,10.48-14,11.76-10.29-10.11-12.87-10.29-8.27,2.94-14,0-7.69-7.92-11.73-12.5-7.18-4.79-7.18-4.79c13.48-1.57,21.44-4.12,25.59-5.85v0a22.83,22.83,0,0,0,3.72-1.86v0l28.08-2.54a46.5,46.5,0,0,0,3.77,7.49C1072.83,496.6,1085.12,507.09,1085.12,507.09Z" transform="translate(-782.7 -270.98)"/><path class="cls-93" d="M1059.61,742.08H1056l-3.22-10.21a19.19,19.19,0,0,0-10.48,10.21s-9.93,4.13-23.43,1.38a3,3,0,0,1,.14-.38,9,9,0,0,1,3.16-3.75c2.36-1.58,16.68-10.12,23.77-24.69.37-.76.71-1.55,1-2.35,0,0-2.75-1.38-2.47-3.3s3-4.79,3-4.79,0-.32-.13-.93c-.55-4-2.85-20.12-5.79-36.33-.72-4-1.49-8-2.26-11.82-.38-1.81-.75-3.57-1.13-5.29-.48-2.18-1-4.26-1.47-6.21-3.08-12.19-8.33-28.49-12.6-41.14-3.36-10-6.09-17.69-6.65-19.35a60.25,60.25,0,0,1,9.28-3.49c3.78-1.08,8.18-1.86,12-1.34,0,0,1.13,16.51,5.4,29.36.45,1.36.93,2.67,1.45,3.92,0,0,0,0,0,0,2.49,5.95,5.24,11.61,7.66,17,2.91,6.47,5.35,12.48,6.28,18a57.15,57.15,0,0,1,.15,10.5l0,.31s0,.1,0,.16c-.83,17.33-4.5,46.39-3,50.27,1.88,5,4.64,10.21,6,15.45S1059.61,742.08,1059.61,742.08Z" transform="translate(-782.7 -270.98)"/><path class="cls-94" d="M1056.69,582.86a296.47,296.47,0,0,0-11,28.72,71.1,71.1,0,0,0-3.26,14.82c-.52,7.78-1.58,19.09-3,28.72-1.15,7.58-2.53,14.1-4.06,17.07-3.48,6.73-17.67,25.56-20.79,35.87a29.24,29.24,0,0,1,0,7.82,7.87,7.87,0,0,1-3.37,5,37.21,37.21,0,0,1,5.24,12.42c1.38,6.9-3.58,23.43-3.58,23.43h-4.69a38.76,38.76,0,0,0-2.21-9.93s-5.8,5-10.48,14.9c0,0-7.44,4.7-29.79,2.21a8.85,8.85,0,0,1,2.9-3.22,11.84,11.84,0,0,1,1.51-.92c3.31-1.66,16-13.24,22.35-23.45a54.44,54.44,0,0,0,3.64-7.62v0c2.88-7.18,6.17-17.38,9.33-27.93v0c3.74-12.55,7.28-25.58,9.63-34.54,4-15.07,6.92-42.41,9.17-63.66,1-9.29,1.85-17.41,2.63-22.84a33.52,33.52,0,0,1,1.33-6.64s12.64-2.85,28.11,9.49Z" transform="translate(-782.7 -270.98)"/><path class="cls-95" d="M1086,365.5s-1.21,7.31-4.23,12.33l7-2.48A27.67,27.67,0,0,1,1086,365.5Z" transform="translate(-782.7 -270.98)"/><path class="cls-96" d="M1050.17,347.75s2.61,1.31,3.43,6.68c0,0,.16-5.44-1.71-9.2Z" transform="translate(-782.7 -270.98)"/><path class="cls-97" d="M1089.28,360.17c0,8.1-6.07,20.79-14.16,27.95-6,5.3-11.95,8.79-17.63,9.43,6.74-1.79,12.26-5.19,16-11.31s5.71-14.58,5.71-14.58a25.7,25.7,0,0,1-9.93,1.85c-6.24.1-7.68-3.71-7.68-3.71.49-8.59,7.25-20,7.25-20,5.89,3.35,10.78,9.63,10.78,9.63a11.39,11.39,0,0,0,0-5.4c-.7-3.24-5.21-11.36-14.47-12a21,21,0,0,0-13.32,4s1.1.09,1.72,8.33c.64,8.41-1.5,13.26-1.5,13.26s-3.55,2.5-5.38.84a7.91,7.91,0,0,1-2.08-4.65,10.62,10.62,0,0,0,.87-1.31c1.66-3.13,1.47-14.91,5.71-20.79s16.17-4.94,16.17-4.94c7.48.38,12.49,3,15.81,6.45l4.89,8.63A29.4,29.4,0,0,1,1089.28,360.17Z" transform="translate(-782.7 -270.98)"/><path class="cls-98" d="M1069.05,348a15.89,15.89,0,0,0,0,4.69s4.69.55,7.31,3.31a20.1,20.1,0,0,1,3.69,5.24,15.69,15.69,0,0,0-2.87-6.76C1075.2,351.71,1069.05,348,1069.05,348Z" transform="translate(-782.7 -270.98)"/><path class="cls-40" d="M1063.26,370.2c.36,2.5,5.86,2.77,9.26,1.67s4.44-5.53,3.7-7.92-4.32-4.6-8.27-3.59S1062.8,367.07,1063.26,370.2Z" transform="translate(-782.7 -270.98)"/><path class="cls-40" d="M1052.6,364.77a5,5,0,0,1-1.82,2.65,3.08,3.08,0,0,1-2.46.29c-1.89-.42-2.59-2.31-2.17-5.19s1.48-8.43,4-7.4c1.45.6,2.37,2.77,2.7,5A10.25,10.25,0,0,1,1052.6,364.77Z" transform="translate(-782.7 -270.98)"/><path class="cls-99" d="M1063.43,366.3s.85-5.35,4.45-6.76c5.27-2.07,9.44,2.89,9.44,2.89a5.89,5.89,0,0,0,2.35-.27,10.89,10.89,0,0,1-3.23,4.14s-.3-4.65-4.89-5.59C1068.25,360,1064.7,361.75,1063.43,366.3Z" transform="translate(-782.7 -270.98)"/><path class="cls-99" d="M1053,362.75s0-8.18-2.81-8.64c-2.57-.42-3.87,3.59-3.87,3.59a4,4,0,0,1-2.07-1.66,10.72,10.72,0,0,0,2.35,4.07s1.33-4.45,3.59-4.06S1053,362.75,1053,362.75Z" transform="translate(-782.7 -270.98)"/><path class="cls-100" d="M1074.94,367a4.17,4.17,0,1,1-4.17-4.17A4.16,4.16,0,0,1,1074.94,367Z" transform="translate(-782.7 -270.98)"/><path class="cls-101" d="M1073.55,367a2.78,2.78,0,1,1-2.78-2.78A2.77,2.77,0,0,1,1073.55,367Z" transform="translate(-782.7 -270.98)"/><path class="cls-102" d="M1052.6,364.77a5,5,0,0,1-1.82,2.65,1.27,1.27,0,0,1-.39,0c-1.52-.17-2.55-2.15-2.3-4.45s1.68-4,3.2-3.84a2.27,2.27,0,0,1,1.58,1A10.25,10.25,0,0,1,1052.6,364.77Z" transform="translate(-782.7 -270.98)"/><path class="cls-101" d="M1052.68,363.47c-.17,1.53-1.12,2.68-2.14,2.57s-1.7-1.44-1.54-3,1.13-2.67,2.14-2.56S1052.85,362,1052.68,363.47Z" transform="translate(-782.7 -270.98)"/><path class="cls-47" d="M1068.11,365.41a1.18,1.18,0,1,1-1.18-1.18A1.18,1.18,0,0,1,1068.11,365.41Z" transform="translate(-782.7 -270.98)"/><path class="cls-47" d="M1049.52,361.19a.92.92,0,1,1-.92-.92A.92.92,0,0,1,1049.52,361.19Z" transform="translate(-782.7 -270.98)"/><path class="cls-103" d="M1047.33,372.63a6.71,6.71,0,0,0,4.27,4.53s4.27-.24,7-2.79C1058.55,374.37,1055.26,370.68,1047.33,372.63Z" transform="translate(-782.7 -270.98)"/><path class="cls-42" d="M1050.83,376.86a6.27,6.27,0,0,1-2.67-4.42,17.89,17.89,0,0,0,3.94-4.74,25.31,25.31,0,0,1-4.77,4.93A6.05,6.05,0,0,0,1050.83,376.86Z" transform="translate(-782.7 -270.98)"/><path class="cls-43" d="M1055.55,376.23a2.42,2.42,0,0,1,3-1.86S1057.92,375.52,1055.55,376.23Z" transform="translate(-782.7 -270.98)"/><path class="cls-104" d="M1049.92,386.5a5,5,0,0,0,.92,3.43c1.2,1.6,6.26.86,9.11-2.26s3.48-8.55,3.48-8.55Z" transform="translate(-782.7 -270.98)"/><path class="cls-40" d="M1048.05,381.71s1.14,4.49,3.26,6.79a8.76,8.76,0,0,0,7-1.2c3.31-2.3,5.14-8.18,5.14-8.18v-1.28a12.88,12.88,0,0,1-6,3.21A47.34,47.34,0,0,1,1048.05,381.71Z" transform="translate(-782.7 -270.98)"/><path class="cls-43" d="M1047.68,381.69a3.76,3.76,0,0,1-1-2.11s10.29.37,12.68,0a9,9,0,0,0,4-1.74,9.81,9.81,0,0,1-4.77,2.93C1055.35,381.78,1052.52,382,1047.68,381.69Z" transform="translate(-782.7 -270.98)"/><path class="cls-105" d="M1061.64,377.39a12.06,12.06,0,0,1,3.56.8,18.18,18.18,0,0,0-2.78.32S1061.64,377.83,1061.64,377.39Z" transform="translate(-782.7 -270.98)"/><path class="cls-49" d="M1079.67,383.24s7.38-6.52,11.61-3.48c0,0-2.53-.7-6.55,1.32,0,0,.81,1,0,3.22s-4,1.93-4,1.93,3-.21,2.94-4.06A36.4,36.4,0,0,0,1079.67,383.24Z" transform="translate(-782.7 -270.98)"/><path class="cls-106" d="M1073.73,509.44c-3-.41-7.58-14.62-11.16-18.19s-8.36-4.61-9.1-1.44,3.71,16.6.82,20.45-7.5,4.1-10-1.87-1.77-14.4-4.25-13.71-2.89,4.55-4.14,6.23a9.8,9.8,0,0,1-11,2.44c-5.3-2.17-8.14-6.19-7.43-9.52s11.88-12.36,12.23-12.63v0l3.72-1.86v0l28.08-2.54a46.5,46.5,0,0,0,3.77,7.49,8.07,8.07,0,0,0-.41,2.8C1065,490.67,1076.7,509.86,1073.73,509.44Z" transform="translate(-782.7 -270.98)"/><path class="cls-107" d="M1113.58,381.67a26.76,26.76,0,0,1-1.5,6c-2.73,7-9.68,10.44-10.54,10.85a22.91,22.91,0,0,0,9.71-13.34,21.64,21.64,0,0,0,.53-2.88c.83-7.19-3.15-10.22-3.15-10.22a55.35,55.35,0,0,1-.75,11.46c-1,6-3.39,12.85-8.63,16.4-10.62,7.18-21.66,4.41-23.73-.68,0,0,3.6,3,11.46,1.51s10.48-9.24,9.23-13.52-8.2-9.49-9.55-15.91a28.42,28.42,0,0,1-.38-10.83,13,13,0,0,1-3.58-7.32c-.41-4.27-2.5-9.79-5-11.85s-8.39-1.66-8.39-1.66-6.75-1.94-11.71.68c-7.44,3.93-10.56,12.94-11.14,18.68,0,0-1-10.67,1.89-18.26a10.4,10.4,0,0,1,1.76-2.94l.05-.07c4.58-5.43,14.44-7.79,19.15-8a5.81,5.81,0,0,1,5.14,2.05l0,0a6.07,6.07,0,0,1,1.19,2.49s4.82-1.94,8.69-1.11c0,0,10.2,3.49,13.79,11.19s-1.8,20.25-1.8,20.25a0,0,0,0,1,0,0,5.11,5.11,0,0,0,.64.33l.62.28c.23.1.49.2.8.3a1.09,1.09,0,0,0,.27.11,28.7,28.7,0,0,0,3.63.91,45.15,45.15,0,0,0,4.63.64C1112.94,367.77,1114.45,375,1113.58,381.67Z" transform="translate(-782.7 -270.98)"/><path class="cls-108" d="M1061.64,379.39l-.74,2.19,1.71-.4.82-2.06v-.78A2.57,2.57,0,0,0,1061.64,379.39Z" transform="translate(-782.7 -270.98)"/><path class="cls-109" d="M1107.88,383.54c-1,6-3.39,12.85-8.63,16.4-10.62,7.18-21.66,4.41-23.73-.68,0,0,3.6,3,11.46,1.51s10.48-9.24,9.23-13.52-8.2-9.49-9.55-15.91a28.42,28.42,0,0,1-.38-10.83,13,13,0,0,1-3.58-7.32c-.41-4.27-2.5-9.79-5-11.85s-8.39-1.66-8.39-1.66-6.75-1.94-11.71.68c-7.44,3.93-10.56,12.94-11.14,18.68,0,0-1-10.67,1.89-18.26a10.4,10.4,0,0,1,1.76-2.94,14.44,14.44,0,0,0-2.08,7.38,20.29,20.29,0,0,1,7-6.47c4.41-2.29,11.55-2.46,15.71-1.55a10.34,10.34,0,0,0,3.68-5.4l0,0,1.19,2.49-2.69,4.2s6.18.34,9.68,3.47,3.21,9.93,6.11,14.16,9.58,2.27,9.58,2.27-6.92,5.23-11.28,0c0,0,1.38,3.71,4.36,5.23s4.92,1,4.92,1a0,0,0,0,1,0,0c.08,0,.3.17.64.33l.62.28.8.3a1.09,1.09,0,0,0,.27.11,17.92,17.92,0,0,0,3.63.91s-7.92,3-13.06.42c0,0,.73,9,6.06,13.76C1099.51,384.51,1105.48,384,1107.88,383.54Z" transform="translate(-782.7 -270.98)"/><path class="cls-110" d="M1113.58,381.67a26.76,26.76,0,0,1-1.5,6c-2.73,7-9.68,10.44-10.54,10.85a22.91,22.91,0,0,0,9.71-13.34,21.64,21.64,0,0,0,.53-2.88Z" transform="translate(-782.7 -270.98)"/><path class="cls-111" d="M1086.28,360.51a9.56,9.56,0,0,0-.22,6.67s7,0,11-2.19c0,0,1-.25.27-2.88A13.9,13.9,0,0,1,1086.28,360.51Z" transform="translate(-782.7 -270.98)"/><path class="cls-112" d="M1074.29,441.45l-3.52-5.52h-1.92a27.79,27.79,0,0,1,3.23,8.43Z" transform="translate(-782.7 -270.98)"/><path class="cls-113" d="M1156.47,540.32h-4.68s4.14,2.49,5.66,5,4.82,11.73,4.82,11.73l-1.24.68v2.07a6.23,6.23,0,0,1-5.1-3.58v2.34s-1.25.56-4.42-1.79-7.31-7.32-11-10.75-12-6.86-12.39-7c.06.18.6,1.71,1.12,3.27s5.72,5.12,6.13,8.44-3.41,7.35-4,6.25a17.61,17.61,0,0,1-.67-2.2c-.51-1.88-1.2-4.56-1.92-6.62,0-.1-.08-.21-.1-.31-.17-.41-.31-.78-.47-1.13a3.59,3.59,0,0,0-.23-.48c-.06-.12-.13-.24-.19-.34-1.23-2-4.25-4.92-5.81-7.7a7.89,7.89,0,0,1-.82-1.95c-.83-3.3,4.14-9.1,3.45-11.44s-8.41-5.79-18.89-12.55c-10.1-6.52-20.6-17.15-23.42-22.34l0-.08-.87-2.11h0a23.45,23.45,0,0,1,1.76-4.05h0c2-3.74,6-8.74,12.58-8.75h0c.29.8.6,1.53.89,2.18,3.58,8,25,35.3,28.55,40a49.8,49.8,0,0,0,4.45,4.88h0c1,1,2.06,2,3.15,3,4,3.55,8.42,7,11.4,8.42,5.39,2.62,14.08,3.18,14.08,3.18,3.43,1.79,7.31,6.62,7.31,6.62C1162,544.18,1156.47,540.32,1156.47,540.32Z" transform="translate(-782.7 -270.98)"/><path class="cls-114" d="M1014.45,475.93c-1.81-.13-10.91-6.48-18.21-18.48s-15.59-37.38-17.38-39.85c-5.14-7.12-18.35-10.9-22.33-13.31s-15-10-15-10c1.51-1.8,4.41-.83,4.41-.83l2.07-.55s9-1.51,14.76-.42,14.06,2.9,14.06,2.9a8.88,8.88,0,0,0-3-5.45c-2.62-2-5.94-2.55-6.62-6.27s3.3-8.27,4.28-6.48,4,11.16,8.13,15,6.76,3.45,8.42,7.05-2.22,14.89-2.22,14.89a99.44,99.44,0,0,0,9.93,17.36c6.35,8.84,20.69,18.49,20.69,18.49C1022.16,467.38,1014.45,475.93,1014.45,475.93Z" transform="translate(-782.7 -270.98)"/><path class="cls-115" d="M1033.19,432.62a5.86,5.86,0,0,1-6.62.55c-2,6-9.24,15.55-10.12,16.71l-.05.09,0,0s4.09,11.65,1.54,18.15c0,0-14.89-3.62-24.61-21.37s-5.8-28.9-5.8-28.9l0-.05-1.54-3.3,2.25-10.24s-6.84,1-9.41-3.48-2-5.42-2-5.42l-7-1.49a1.51,1.51,0,0,1-1.47,1.21,68.88,68.88,0,0,0-7.73-1.65,32.53,32.53,0,0,1,6.62,2.3L965.44,397c-6.71-2.11-10-1.93-10-1.93a26.29,26.29,0,0,1,9.1,2.55l-2.85,2c-2.3.27-6.35-1.57-6.35-1.57a15.72,15.72,0,0,0-9.42-4.5c3.63,1.2,9.52,6.56,9.52,6.56l6.06.61s6.62-1.38,10.67,0,7.86,8.92,7.86,8.92a4.72,4.72,0,0,1,.23,4.57,20.42,20.42,0,0,1-3.22-.52c-1.32-.35-2.5-.64-3.45-.88a21.1,21.1,0,0,1,5.29,4.88c1.79,2.47,10.07,27.85,17.38,39.85s16.4,18.35,18.21,18.48,11.44-12.14,15.85-20.56c1.67-3.19,3.48-7.39,5.08-11.4l.75-11.35s1.94-3,3.13-5.41C1039.26,427.21,1036.31,430,1033.19,432.62Z" transform="translate(-782.7 -270.98)"/><path class="cls-116" d="M1072.07,444.37c-7.62,11.37-10.93,35-10.93,35-2.31,3.8-6.91,7.78-11.73,10.48s-9.71,4.12-12.91,2.94c-6.44-2.38-5.69-10.67-5.69-10.67s6.61-6.24,7.81-10.84-1.74-14.89-1.74-14.89c-3.21-1.17-7.57-4.18-8.79-7.94a6.47,6.47,0,0,1-.22-3.1c.91-5.15,7.45-12.82,7.45-12.82l.81.13c3.86,5.34,11,6.07,11,6.07,11.4-6.62,18.38-6.2,18.38-6.2a10.15,10.15,0,0,1,3.31,3.45h0A28.22,28.22,0,0,1,1072.07,444.37Z" transform="translate(-782.7 -270.98)"/><path class="cls-117" d="M1132.8,524.87c-2.73,1.8-7.67,5.28-9.31,7.78a10.76,10.76,0,0,0-1.5,5.49,7.89,7.89,0,0,1-.82-1.95c-.83-3.3,4.14-9.1,3.45-11.44s-8.41-5.79-18.89-12.55c-10.1-6.52-20.6-17.15-23.42-22.34l0-.08c-.08-.16-.17-.32-.24-.48a10.83,10.83,0,0,1-.63-1.63h0c-1.57-5-1-12.56-2-22.21,0-.18-.05-.35-.06-.54.78,4.44,1.54,9.07,2.05,13.13a18.63,18.63,0,0,0,1.76,5.56h0c6,12.65,25,28.69,33.34,33.7,9.56,5.78,13.14,4.59,13.14,4.59h0C1130.64,522.87,1131.71,523.88,1132.8,524.87Z" transform="translate(-782.7 -270.98)"/><path class="cls-118" d="M1155.93,556.19s-4.14-6.53-6.71-9.57a72.74,72.74,0,0,0-6-6.06s6.07,5,8.27,7S1155.93,556.19,1155.93,556.19Z" transform="translate(-782.7 -270.98)"/><path class="cls-119" d="M1161,557.7s-3.25-7.86-5.1-11.08a18.59,18.59,0,0,0-4.42-5.14,20.2,20.2,0,0,1,6.53,6.89,31.19,31.19,0,0,1,3.58,9Z" transform="translate(-782.7 -270.98)"/><path class="cls-120" d="M1083.16,491.25s4.35-11.33,14-13.12l-1.43-3.28s-11.34-.2-14.35,12.81C1081.39,487.66,1081.34,488.79,1083.16,491.25Z" transform="translate(-782.7 -270.98)"/><path class="cls-121" d="M1011.39,474.35s8.81-9.56,3.91-25.09l1.15.62s6.45,14.74-1.09,26.05C1015.36,475.93,1013.68,477.29,1011.39,474.35Z" transform="translate(-782.7 -270.98)"/><path class="cls-122" d="M1044.35,438.07a45.31,45.31,0,0,0,6.4-6.36l-3.58,7Z" transform="translate(-782.7 -270.98)"/><path class="cls-123" d="M1072.07,444.37c-7.62,11.37-10.93,35-10.93,35-2.31,3.8-6.91,7.78-11.73,10.48a24.26,24.26,0,0,0,4.19-5.47c3.73-6.9,6.35-22.34,6.07-25.37s-18.29-3.73-22.79-2.62c-3.21-1.17-7.57-4.18-8.79-7.94v-.07s.27,1.66,7.32,3.18,24.31-.11,28-2.26,5.36-12.8,5.45-13.31A28.22,28.22,0,0,1,1072.07,444.37Z" transform="translate(-782.7 -270.98)"/><path class="cls-124" d="M1045.67,611.61c2.49,5.95,5.24,11.61,7.66,17l-11.72,38.35c-.72-4-1.49-8-2.26-11.82-1.15,7.58-2.53,14.1-4.06,17.07-3.48,6.73-17.67,25.56-20.79,35.87a29.24,29.24,0,0,1,0,7.82,7.87,7.87,0,0,1-3.37,5,37.21,37.21,0,0,1,5.24,12.42c1.38,6.9-3.58,23.43-3.58,23.43h-4.69a38.76,38.76,0,0,0-2.21-9.93s-5.8,5-10.48,14.9c0,0-7.44,4.7-29.79,2.21a8.85,8.85,0,0,1,2.9-3.22c5.94,1.83,25.69,0,25.69,0a73.6,73.6,0,0,0,8.65-13.06c3.38-6.87,12.12-12.5,12.12-12.5s-2.38-7-7.9-8.82c-5.28-1.76-10.61,2.05-11.06,2.37v0h0l9.36-28v0c-1,8,2.84,10.48,5.81,7.54s22.91-33.89,25.67-47.4a88.86,88.86,0,0,0,1.39-11c1-12.69.58-27.38,2-32.41a92.29,92.29,0,0,1,4-9.76c4.21-9.31,10.29-21.67,12-25.17l.47.37a296.47,296.47,0,0,0-11,28.72S1045.67,611.59,1045.67,611.61Z" transform="translate(-782.7 -270.98)"/><path class="cls-125" d="M1059.61,742.08H1056l-3.22-10.21a19.19,19.19,0,0,0-10.48,10.21s-9.93,4.13-23.43,1.38a3,3,0,0,1,.14-.38,116.82,116.82,0,0,0,13.36-1.83c8.55-1.65,18.21-11.72,22.48-13.23s5.94-1.94,5.94-1.94-3.87-9.23-6.77-11.31c-1.51-1.09-5.07-.73-8.08-.13.37-.76.71-1.55,1-2.35,0,0-2.75-1.38-2.47-3.3s3-4.79,3-4.79,0-.32-.13-.93l.13-.07s3.73-1.26,6.76-10.21c2.81-8.28,5.09-31.8,5.43-35.38-.83,17.33-4.5,46.39-3,50.27,1.88,5,4.64,10.21,6,15.45S1059.61,742.08,1059.61,742.08Z" transform="translate(-782.7 -270.98)"/><path class="cls-126" d="M1026.39,582.49s16.73-1.48,26.39,8.45l3.91-8.08s-13.8-12.35-28.58-9.86Z" transform="translate(-782.7 -270.98)"/><polygon class="cls-127" points="234.8 312.15 238.54 322.93 242.7 319.96 244.21 307.76 234.8 312.15"/><path class="cls-128" d="M971.42,377.19s2.45,9.85,5.94,13.53,7.83,6,9.62,8,1.26,5.05,1.26,5.05a6.31,6.31,0,0,0-2.64-7.37c-4.32-2.78-5.4-3.23-8-6.67S971.42,377.19,971.42,377.19Z" transform="translate(-782.7 -270.98)"/><path class="cls-128" d="M1018.45,447.16s5.63-7,8.15-12.46,3.89-13.26,7.53-16.08c3.81-2.95,17-6,18.94-7.5s2.74-4.76,2.74-4.76-1.39,3.34-3.56,4.45-15.16,3.7-19.49,7.17-4.49,11.28-6,14.5S1018.45,447.16,1018.45,447.16Z" transform="translate(-782.7 -270.98)"/><path class="cls-128" d="M1069.8,411.2s10.11,5.84,13.2,10.36c3.27,4.8,6.28,45.31,12,55.2,4.7,8.21,34.68,45.14,34.68,45.14s-31.14-38.94-33.89-47a212.69,212.69,0,0,1-6.46-26.31c-1.08-6.21-1.85-24-6-29.12C1080.27,415.74,1069.8,411.2,1069.8,411.2Z" transform="translate(-782.7 -270.98)"/><path class="cls-128" d="M1075.67,334.31s5.52-1.09,9.45,0,10.61,7.27,12.42,12.27-1.08,15.73-1.08,15.73,1,1.76.56,2.68a11.31,11.31,0,0,0,5,2.44c3.11.65,9.77,2.24,10.37,3.75,0,0-.23-2.32-4.31-3.75s-8-1.14-10.3-2.79a3.3,3.3,0,0,0-.52-2.53s3.43-7.88,1.55-15.76-11.13-13.35-14.43-13.83S1075.67,334.31,1075.67,334.31Z" transform="translate(-782.7 -270.98)"/><path class="cls-128" d="M1075.59,333.85s-2.27-2.88-4.82-3.45-11.6,1.62-16.82,5-7,12.46-7.54,15.6c0,0-.18-9.64,4.12-14s16-8.32,20.65-7.21A5.74,5.74,0,0,1,1075.59,333.85Z" transform="translate(-782.7 -270.98)"/><path class="cls-128" d="M1045.06,362.28a45.79,45.79,0,0,1-7.84,2.31c-3.08.44-7.2.73-8.86,1.71s-4.88,6.39-5.24,9.35c0,0,.46-7.16,6.12-11a9.61,9.61,0,0,1,5.91-1.39C1038.29,363.71,1040.64,363.58,1045.06,362.28Z" transform="translate(-782.7 -270.98)"/></g><polygon class="cls-129" points="73.37 341.58 74.53 0 318.5 37.45 318.43 351.79 73.37 341.58"/></g></g></svg>