<svg xmlns="http://www.w3.org/2000/svg" viewBox="0 0 278.93 517.71"><defs><style>.cls-1{isolation:isolate;}.cls-2{fill:#a53f47;}.cls-3{fill:#872934;}.cls-4{fill:#6b1e2a;}.cls-5{fill:#ffb882;}.cls-6{fill:#ff9566;}.cls-7{fill:#63212e;}.cls-8{fill:#d63050;}.cls-9{fill:#c11e45;}.cls-10{fill:#602934;}.cls-11{fill:#441923;}.cls-12{fill:#ffe9cc;}.cls-13{fill:#c11a42;}.cls-14{fill:#ea7b59;}.cls-15{fill:#f99838;}.cls-16{fill:#ef8220;}.cls-17{fill:#843131;opacity:0.6;mix-blend-mode:multiply;}.cls-18{fill:#4c241e;}.cls-19{fill:#fffef8;}</style></defs><g class="cls-1"><g id="Capa_9" data-name="Capa 9"><path class="cls-2" d="M893.34,345.24c-9.89,3.44-10.75-22.37-1.4-23.88,0,0-6.23-8.82,1.51-18.49s17.63-5.17,17.63-5.17-5.37-13.33,4.95-18.49,23,2.58,23,2.58-1.94-5,2.36-6.45a6.16,6.16,0,0,1,6.88,1.93s1.94-12,18.07-11.83,20,17.42,20,17.42,5.38-7.31,11.19,3.44-.86,16.78-.86,16.78,11.4,1.08,17.42,18.5-2.15,35.27-2.15,35.27,6,4.52,5.38,11.62S1007,381.8,1007,381.8s19.57,8.17,17,34.84c0,0,4.74-2.15,6.67,3.23s-1.93,13.77-1.93,13.77,8.6-1.29,6.88,4.3-25,19.23-36,10c0,0-46.73,24.22-67.16.13s-14.41-29.47-14.41-29.47-18.5.22-29.9-26.88S893.34,345.24,893.34,345.24Z" transform="translate(-836.38 -265.44)"/><path class="cls-3" d="M1028.74,433.64s3.87-8.39,1.93-13.77-6.67-3.23-6.67-3.23c2.58-26.67-17-34.84-17-34.84s9.68-6.24,10.33-13.33-5.38-11.62-5.38-11.62,9.14-17.85,3.12-35.27c-8-23.1-35.15-30.34-43.45-22.8-9.46,8.6-18.68,26.38-25.59,18.93-.44.37-5,4.57-5.4,4.94-17.19,14.31-37.25,21-53.63,19.42,1.32,2.67,3.43,4.17,6.33,3.17,0,0-16.56,19.35-5.16,46.46s29.9,26.88,29.9,26.88-6,5.38,14.41,29.47,67.16-.13,67.16-.13c11,9.25,34.25-4.39,36-10S1028.74,433.64,1028.74,433.64Z" transform="translate(-836.38 -265.44)"/><path class="cls-4" d="M1005.24,450.57c-74.85-43.12-41.44-103.23-76.3-92.64-15.87,4.82-28,29-32.35,48.13,10.32,12.64,21.49,12.52,21.49,12.52s-6,5.38,14.41,29.47,67.16-.13,67.16-.13A12.92,12.92,0,0,0,1005.24,450.57Z" transform="translate(-836.38 -265.44)"/><path class="cls-5" d="M891.62,427.61c-20.22-10.1-49.68-29.68-51.83-33.33s2.79-19.79,11.82-18.5S904.09,393,908,393.2,891.62,427.61,891.62,427.61Z" transform="translate(-836.38 -265.44)"/><path class="cls-6" d="M840.45,385.76c-1.23,3.56-1.53,7.05-.67,8.52,2.16,3.65,31.62,23.23,51.84,33.33,0,0,4.07-6.88,8.21-14.49C878,405.22,848.31,391.06,840.45,385.76Z" transform="translate(-836.38 -265.44)"/><path class="cls-7" d="M884.81,783.15h208.56s-89.94-241.86-105.13-257-86-13.06-95.8,2.11C868.69,564.88,884.81,783.15,884.81,783.15Z" transform="translate(-836.38 -265.44)"/><path class="cls-5" d="M926.68,780.09l1.27,0s2.24-156.1,15-229.07l-54.9-16.81S900.79,691.7,926.68,780.09Z" transform="translate(-836.38 -265.44)"/><path class="cls-6" d="M930.47,697.48c2.12-49,5.91-108.78,12.5-146.42l-54.9-16.8s4.2,52,12.68,112.92C910,645.83,921.48,666.38,930.47,697.48Z" transform="translate(-836.38 -265.44)"/><path class="cls-8" d="M871.78,619.25c-1.26,15.06-9.61,57.38-11.71,75s14.65,29.51,14.65,29.51,2.93,29.68-15.82,41.05c-14.29,8.66-3.47,18.32-3.47,18.32h39.82c18.55-30.82-13-177.23.84-234,2.69-11,11.74-32.27-1.17-31C873.46,520.32,873,604.2,871.78,619.25Z" transform="translate(-836.38 -265.44)"/><path class="cls-9" d="M896.09,549.14c1.82-7.47,6.55-19.62,5.4-26.28-26.75,48.84-8,189.1-15.46,196.19-5,4.76-12.8-1.22-25.41-15.67,3,12.49,14.1,20.4,14.1,20.4a56,56,0,0,1,.14,6.24c8.07,3.52,14.13,12.54,15.9,20,2.49,10.52-8.55,26-21.73,29.16a28.16,28.16,0,0,1-16.94-1.06,13.85,13.85,0,0,0,3.34,5h39.82C913.8,752.33,882.26,605.92,896.09,549.14Z" transform="translate(-836.38 -265.44)"/><path class="cls-8" d="M889,568.49c30.18-19.35,76.7,214.66,76.7,214.66h149.64s-1.29-23.66-19.79-40c-14.77-13-34.28-82.16-38.89-104.53s-43.55-132.49-70.37-145.83-96.07,16.49-101.9,35.35S889,568.49,889,568.49Z" transform="translate(-836.38 -265.44)"/><path class="cls-9" d="M909.26,514.08C966.2,507.3,1074,687.65,1026.77,783.15h88.54s0-24.95-18.5-41.3c-14.77-13.05-32-81.3-36.57-103.67s-46-138.08-72.77-151.42-97.28,22.51-103.11,41.37c-.24.77-.41,1.55-.6,2.33C890.42,521.93,898.71,515.33,909.26,514.08Z" transform="translate(-836.38 -265.44)"/><path class="cls-10" d="M889.42,519.88c5.73-18.26,2.47-53.06-2.07-78l76.1-7.3s-.26,33.86,6.68,48.82c-17.64,12.89-15.38,48.38-64.1,56.77C898.85,536.66,891.54,528.9,889.42,519.88Z" transform="translate(-836.38 -265.44)"/><path class="cls-11" d="M963.45,434.62l-76.1,7.3c3.9,21.41,6.84,50.12,3.95,69.36,11.76-38.94,33.87-17,48.48,13.87,15.58-14,18.44-33,30.35-41.71C963.19,468.48,963.45,434.62,963.45,434.62Z" transform="translate(-836.38 -265.44)"/><path class="cls-12" d="M932.43,783.15H912.21s10.15-7.1,13.62-7.75S932.43,783.15,932.43,783.15Z" transform="translate(-836.38 -265.44)"/><path class="cls-8" d="M898.37,393.93c-16.59,13.58-38.59,56.89-32.26,69.63s80.15,23.23,88.3,8c2.21-4.13,25.92-69.44,4.09-76.83C941.16,388.86,905.54,388.07,898.37,393.93Z" transform="translate(-836.38 -265.44)"/><path class="cls-13" d="M961.89,396.06a6.43,6.43,0,0,0-5.72.21c-8.52,4.57-17.39,50.26-25.14,63.28-6.45,10.86-40.26,11.47-64.39,4.82,9,12.36,80.62,23.32,88.59,8.41C959.31,465.16,976.61,402.72,961.89,396.06Z" transform="translate(-836.38 -265.44)"/><path class="cls-14" d="M965.35,427.79c1.65-16.67-.76-30.55-5.37-31s-9.68,12.69-11.32,29.36.76,30.54,5.37,31S963.71,444.46,965.35,427.79Z" transform="translate(-836.38 -265.44)"/><path class="cls-5" d="M908.32,391.71c-13.12,10.14-20.23,32.7-12.4,52.57,0,0,38.51-14.71,49.26-52C931.52,390.13,916.35,389.71,908.32,391.71Z" transform="translate(-836.38 -265.44)"/><path class="cls-14" d="M897.51,442.54c-7.15-18.12-1-39,10.08-50.21-12.68,10.42-20.35,33.09-12.66,52.58a100.69,100.69,0,0,0,29.55-19.52A100.5,100.5,0,0,1,897.51,442.54Z" transform="translate(-836.38 -265.44)"/><path class="cls-5" d="M867.14,391.28c3.06-5.95,6.7-65.82,6.7-65.82l-6.8-3.91s-27.88,51.76-30.28,62.57C832.53,403.18,864.75,395.93,867.14,391.28Z" transform="translate(-836.38 -265.44)"/><path class="cls-6" d="M873.83,325.58l-2.08,7.75c0,10.94-2,33.12-2.82,51.62C871.45,365.55,873.83,325.58,873.83,325.58Z" transform="translate(-836.38 -265.44)"/><path class="cls-5" d="M949.75,432.78c7.47,16.08,42.69,39.09,46.58,42.17s53.56,45.64,53.56,45.64l7.13-3.5s-40.6-65.19-48.38-73.6-41.9-44.06-48-46.72S945.84,424.37,949.75,432.78Z" transform="translate(-836.38 -265.44)"/><path class="cls-6" d="M993.68,463.18c-3.87-3.4-34.64-26.34-44.47-42.44-.68,5-1.12,11.12,0,13.65,7.47,16.08,42.73,38.87,46.62,41.94s54,44.26,54,44.26S997.19,466.27,993.68,463.18Z" transform="translate(-836.38 -265.44)"/><path class="cls-5" d="M943.9,393.93l1.54-28-24.88,1-9.87,26S928.53,398.66,943.9,393.93Z" transform="translate(-836.38 -265.44)"/><path class="cls-9" d="M912.17,590.58c26.3,55.75,53.5,192.57,53.5,192.57H1057l-16.12-71.41s3.44,71.41-40,62.37C966.12,766.88,939.34,642.6,912.17,590.58Z" transform="translate(-836.38 -265.44)"/><path class="cls-9" d="M973.22,539.43l-25.41-13.37c66.08,65.63,77.75,199.62,77.75,199.62C1027.19,683.44,1015.56,600.13,973.22,539.43Z" transform="translate(-836.38 -265.44)"/><path class="cls-15" d="M969.27,481.42c-16.63,13.46-15.74,46.68-63.56,54.92a33.09,33.09,0,0,1-15.89-18c-.13.5-.25,1-.4,1.51,2.12,9,8.94,18.23,16.13,21.78,48.71-8.39,47.84-44.88,65.49-57.78C970.59,482.92,969.66,482.53,969.27,481.42Z" transform="translate(-836.38 -265.44)"/><path class="cls-16" d="M969.27,481.42C958,490.54,954.76,508.71,939,522.06a24.68,24.68,0,0,1,1.94,3.13C955.85,511,959.45,492.35,971,483.88,970.59,482.92,969.66,482.53,969.27,481.42Z" transform="translate(-836.38 -265.44)"/><path class="cls-14" d="M895.22,443.5l4.84-1.37c1.78-9.19,4.36-17.58,4.36-17.58C898,432.61,895.22,443.5,895.22,443.5Z" transform="translate(-836.38 -265.44)"/><path class="cls-17" d="M899.26,420.84c26.77,20,49.68-24,60.49-25.65-4.36-1.77-10.66-3-15.71-3.7l1.4-25.54-24.88,1-8.89,23.44a51.85,51.85,0,0,0-8.76,1.5C899.78,390.91,890.3,414.15,899.26,420.84Z" transform="translate(-836.38 -265.44)"/><path class="cls-5" d="M907.72,385.08c-8.46-11.67-17.18-49.74,16.49-75.55,25-19.19,40.17,32.17,35.38,44.2C944.47,391.7,907.72,385.08,907.72,385.08Z" transform="translate(-836.38 -265.44)"/><path class="cls-3" d="M948.94,372.77c-5.49-25.81,2.26-54.53-15.92-62-5.15-2.14-9.52-7.26-7.95-9.79,4.55-7.34,33.8-9.65,40.65,14.41C976.36,352.77,948.94,372.77,948.94,372.77Z" transform="translate(-836.38 -265.44)"/><path class="cls-5" d="M946,368c10.79-.47,19.56-7.67,17.37-12.43s-11.94-3.74-15.24,1.52A16.28,16.28,0,0,0,946,368Z" transform="translate(-836.38 -265.44)"/><path class="cls-14" d="M949.34,364.93c6.56-.29,11.88-4.66,10.56-7.55s-7.26-2.27-9.26.92A9.84,9.84,0,0,0,949.34,364.93Z" transform="translate(-836.38 -265.44)"/><path class="cls-5" d="M948.59,365.31c4-.18,7.26-2.85,6.45-4.62s-4.43-1.38-5.65.57A6,6,0,0,0,948.59,365.31Z" transform="translate(-836.38 -265.44)"/><path class="cls-2" d="M946.87,292.85c-11-2.84-21.38-.88-23.24,4.38s5.52,11.83,16.5,14.67,21.38.88,23.24-4.38S957.84,295.69,946.87,292.85Z" transform="translate(-836.38 -265.44)"/><path class="cls-2" d="M974.1,293.89c-6.61,6.61-3.87,22.1,2.42,28.55,0,0-13.46-7-12.09-22.1C964.91,295,974.1,293.89,974.1,293.89Z" transform="translate(-836.38 -265.44)"/><path class="cls-14" d="M907.89,338.32s5-2.29,9-.82c0,0-.77-2.13-3.9-2.21S907.89,338.32,907.89,338.32Z" transform="translate(-836.38 -265.44)"/><path class="cls-14" d="M936.06,344.37s-4-4.5-8.59-5c0,0,1.63-1.62,4.73-.27S936.06,344.37,936.06,344.37Z" transform="translate(-836.38 -265.44)"/><path class="cls-2" d="M907.19,330.65,907,330c3.26-3.26,9.2-4,11.89-3.57l-.11,1.79C916.67,327.6,910.65,328.07,907.19,330.65Z" transform="translate(-836.38 -265.44)"/><path class="cls-2" d="M938.43,337.24c-3.17-4.46-10.22-7.47-12-7.91l.57-1.8a25.5,25.5,0,0,1,12,9.22Z" transform="translate(-836.38 -265.44)"/><path class="cls-14" d="M920.59,355.47c-.08,0-.11.13-.19.17a4.33,4.33,0,0,1-5.27-1,3.09,3.09,0,0,1-.76-2.85,2.83,2.83,0,0,0-.2,4.28,4.33,4.33,0,0,0,5.26,1A2.69,2.69,0,0,0,920.59,355.47Z" transform="translate(-836.38 -265.44)"/><path class="cls-18" d="M917.47,367.16c.26-3.85-1.21-7.09-3.28-7.23s-3.94,2.88-4.2,6.74,1.21,7.09,3.28,7.23S917.22,371,917.47,367.16Z" transform="translate(-836.38 -265.44)"/><path class="cls-19" d="M913.82,363.21a6,6,0,0,1,2.48.55c-.19-1.61-.91-2.82-1.87-2.88s-1.81,1-2.22,2.57A6.14,6.14,0,0,1,913.82,363.21Z" transform="translate(-836.38 -265.44)"/><path class="cls-5" d="M872.88,328.79c2.68-5.4,2.48-8.63,1.54-9.9s-4.11-6.68-6.36-6.64-10.56,5.54-8.8,7.63,8.89,5.12,10.19,11.87C870.45,336.91,872.88,328.79,872.88,328.79Z" transform="translate(-836.38 -265.44)"/><path class="cls-5" d="M871.44,315.56c-2.27-3.71-8.05-14.95-9.59-15.17s5.06,15.74,5.06,15.74Z" transform="translate(-836.38 -265.44)"/><path class="cls-5" d="M874.33,323.62c1.13-5.72,6.81-13.83,6-14.93S871.06,320,871.06,320Z" transform="translate(-836.38 -265.44)"/><path class="cls-5" d="M867,316.32c-3.35-3-12.59-12.5-14.42-12.37s9.55,14,9.55,14Z" transform="translate(-836.38 -265.44)"/><path class="cls-5" d="M867.25,319.1c-4.22-1.37-16.76-6.54-18.7-5.79s14.17,8.84,14.17,8.84Z" transform="translate(-836.38 -265.44)"/><path class="cls-5" d="M1046.9,511.64c.08,6.84,1.94,10,3.55,10.79s7.58,4.63,9.83,3.43,7.81-11,5-12.24-11.62-.59-16.42-6.74C1045.16,502.19,1046.9,511.64,1046.9,511.64Z" transform="translate(-836.38 -265.44)"/><path class="cls-5" d="M1055.17,524.27c4.2,2.57,15.83,10.94,17.5,10.37s-13.22-13.3-13.22-13.3Z" transform="translate(-836.38 -265.44)"/><path class="cls-5" d="M1048.09,517.61c1.81,6.36.26,17.47,1.65,18.16s3.54-16.17,3.54-16.17Z" transform="translate(-836.38 -265.44)"/><path class="cls-5" d="M1059.31,521.18c4.91,1.26,19.16,6.13,20.94,5.06s-16.85-9.2-16.85-9.2Z" transform="translate(-836.38 -265.44)"/><path class="cls-5" d="M1057.57,518.52c5-.79,20.3-2,21.87-3.79s-18.86-1.62-18.86-1.62Z" transform="translate(-836.38 -265.44)"/></g></g></svg>