<svg id="Capa_9" data-name="Capa 9" xmlns="http://www.w3.org/2000/svg" viewBox="0 0 88.12 66.95"><defs><style>.cls-1{fill:#ffefca;}.cls-2{fill:#edd7a9;}.cls-3{fill:#825e5d;}.cls-4{fill:#684a48;}.cls-5{fill:#8e635e;}.cls-6{fill:#f2dfbd;}</style></defs><path class="cls-1" d="M954.28,558.77c-30-4-20.07-52.35,1.43-62s46.62-2.08,55,23.05a29.44,29.44,0,0,1,1,13.93l12,21.14-39.19,4.8-5-10S972.44,561.17,954.28,558.77Z" transform="translate(-935.45 -492.78)"/><path class="cls-2" d="M999.92,538.6c8.93-1.43,15.45,4.2,22.19,16.5l1.46-.17-12-21.14a25.28,25.28,0,0,0,.42-4.36c-6.34,6.11-16.89,10.13-28.85,10.13-19.4,0-35.12-10.54-35.12-23.54,0-11.54,12.4-21.12,28.76-23.13a44.69,44.69,0,0,0-21.12,3.92c-21.5,9.61-31.44,58-1.43,62,18.16,2.4,25.14-9,25.14-9l5,10,6.38-.78C989,548.27,992.45,539.79,999.92,538.6Z" transform="translate(-935.45 -492.78)"/><path class="cls-3" d="M1006.05,528.83c-6.37-.4-17.84-14.25-13.22-16.49s10.83-.8,13.06,3.84S1008.6,529,1006.05,528.83Z" transform="translate(-935.45 -492.78)"/><path class="cls-4" d="M1003.59,527.68c-4.48-.28-12.57-10-9.31-11.62s7.63-.56,9.2,2.71S1005.39,527.8,1003.59,527.68Z" transform="translate(-935.45 -492.78)"/><path class="cls-5" d="M979.13,535.18c9.73-1.9,15.13-20.41,4.34-20.33-9.49.07-16.75,3.94-15.61,8.76S975.6,535.87,979.13,535.18Z" transform="translate(-935.45 -492.78)"/><path class="cls-4" d="M977.91,533.35c7-1.36,10.82-14.59,3.11-14.54-6.79.05-12,2.81-11.18,6.27S975.38,533.85,977.91,533.35Z" transform="translate(-935.45 -492.78)"/><path class="cls-1" d="M995.53,538.44l8.61-1.61s-1.76-14.72-8.64-15.34C991.27,521.12,995.53,538.44,995.53,538.44Z" transform="translate(-935.45 -492.78)"/><path class="cls-5" d="M996.18,538.44l6.75-1.26s-2.12-11.31-5.37-12.06S996.18,538.44,996.18,538.44Z" transform="translate(-935.45 -492.78)"/><path class="cls-4" d="M996.3,537.92l4.16-1.08s-1.31-9.76-3.31-10.41S996.3,537.92,996.3,537.92Z" transform="translate(-935.45 -492.78)"/><polygon class="cls-4" points="50.53 58.78 81.11 52.06 82.23 54.3 50.53 58.78"/><polygon class="cls-4" points="65.5 53.02 66.94 55.74 73.15 54.78 70.76 51.58 65.5 53.02"/><polygon class="cls-4" points="76.49 50.94 77.21 53.78 80.32 53.34 79.12 49.94 76.49 50.94"/><path class="cls-2" d="M945.36,510.58c14.18,1.6,25.17,19.05,22,29.3s-11.79,17.77-22.14,12.48S935.91,509.51,945.36,510.58Z" transform="translate(-935.45 -492.78)"/><path class="cls-6" d="M945.26,513.57c12.86,1.45,22.82,17.27,19.94,26.56s-10.69,16.12-20.08,11.33S936.7,512.6,945.26,513.57Z" transform="translate(-935.45 -492.78)"/></svg>