<svg xmlns="http://www.w3.org/2000/svg" xmlns:xlink="http://www.w3.org/1999/xlink" viewBox="0 0 84 100.22"><defs><style>.cls-1{isolation:isolate;}.cls-2,.cls-3{fill-rule:evenodd;}.cls-2{fill:url(#Áåçûìÿííûé_ãðàäèåíò_301);}.cls-3{fill:url(#Áåçûìÿííûé_ãðàäèåíò_457);}.cls-4{fill:url(#Áåçûìÿííûé_ãðàäèåíò_320);}.cls-5{fill:url(#Áåçûìÿííûé_ãðàäèåíò_365);}.cls-6,.cls-7,.cls-9{opacity:0.5;}.cls-6,.cls-9{mix-blend-mode:screen;}.cls-6{fill:url(#Áåçûìÿííûé_ãðàäèåíò_208);}.cls-7{mix-blend-mode:multiply;fill:url(#Áåçûìÿííûé_ãðàäèåíò_319);}.cls-8{fill:url(#Áåçûìÿííûé_ãðàäèåíò_370);}.cls-9{fill:url(#Áåçûìÿííûé_ãðàäèåíò_208-2);}.cls-10{fill:url(#Áåçûìÿííûé_ãðàäèåíò_361);}</style><linearGradient id="Áåçûìÿííûé_ãðàäèåíò_301" x1="55.32" y1="100.22" x2="55.32" gradientUnits="userSpaceOnUse"><stop offset="0.01" stop-color="#281742"/><stop offset="1" stop-color="#322d45"/></linearGradient><linearGradient id="Áåçûìÿííûé_ãðàäèåíò_457" x1="13.32" y1="100.22" x2="13.32" gradientUnits="userSpaceOnUse"><stop offset="0.01" stop-color="#3a2a51"/><stop offset="1" stop-color="#5d596c"/></linearGradient><linearGradient id="Áåçûìÿííûé_ãðàäèåíò_320" x1="891.83" y1="561.71" x2="891.83" y2="505.93" gradientTransform="matrix(-1, 0, 0, 1, 948.19, -474.08)" gradientUnits="userSpaceOnUse"><stop offset="0.01" stop-color="#7d7997"/><stop offset="0.97" stop-color="#dac0c2"/></linearGradient><linearGradient id="Áåçûìÿííûé_ãðàäèåíò_365" x1="891.83" y1="558.08" x2="891.83" y2="509.56" gradientTransform="matrix(-1, 0, 0, 1, 948.19, -474.08)" gradientUnits="userSpaceOnUse"><stop offset="0" stop-color="#49455a"/><stop offset="0.99" stop-color="#26143f"/></linearGradient><linearGradient id="Áåçûìÿííûé_ãðàäèåíò_208" x1="888.71" y1="558.08" x2="888.71" y2="536.33" gradientTransform="matrix(-1, 0, 0, 1, 1880.1, 0)" gradientUnits="userSpaceOnUse"><stop offset="0"/><stop offset="1" stop-color="#3d2c35"/></linearGradient><linearGradient id="Áåçûìÿííûé_ãðàäèåíò_319" x1="890.05" y1="530.95" x2="890.05" y2="509.9" gradientTransform="matrix(-1, 0, 0, 1, 1880.1, 0)" gradientUnits="userSpaceOnUse"><stop offset="0" stop-color="#540068"/><stop offset="1" stop-color="#90939a"/></linearGradient><linearGradient id="Áåçûìÿííûé_ãðàäèåíò_370" x1="894.76" y1="538.78" x2="894.76" y2="528.86" gradientTransform="matrix(-1, 0, 0, 1, 1880.1, 0)" gradientUnits="userSpaceOnUse"><stop offset="0.01" stop-color="#260830"/><stop offset="1" stop-color="#49455a"/></linearGradient><linearGradient id="Áåçûìÿííûé_ãðàäèåíò_208-2" x1="60.12" y1="93.57" x2="60.12" y2="1.81" gradientTransform="matrix(1, 0, 0, 1, 0, 0)" xlink:href="#Áåçûìÿííûé_ãðàäèåíò_208"/><radialGradient id="Áåçûìÿííûé_ãðàäèåíò_361" cx="891.83" cy="481.24" r="10.88" gradientTransform="matrix(-1, 0, 0, 1, 948.19, -474.08)" gradientUnits="userSpaceOnUse"><stop offset="0" stop-color="#4da8ff"/><stop offset="0.98" stop-color="#72fff1"/></radialGradient></defs><g class="cls-1"><g id="Capa_10" data-name="Capa 10"><polygon class="cls-2" points="26.63 100.22 26.63 0 84 2.9 81.97 98 26.63 100.22"/><polygon class="cls-3" points="0 3.19 3.36 98.39 26.63 100.22 26.63 0 0 3.19"/><ellipse class="cls-4" cx="56.35" cy="59.74" rx="22.28" ry="27.89"/><ellipse class="cls-5" cx="56.35" cy="59.74" rx="19.38" ry="24.26"/><path class="cls-6" d="M988.27,537.14l12.57,15.13s-6.07,6-12.57,5.81c-.9,0-6.32-21.75-6.32-21.75Z" transform="translate(-931.92 -474.08)"/><path class="cls-7" d="M1000.84,515.36l-12.57,14.8-6.14.79-2.86-18.61S991.12,505.19,1000.84,515.36Z" transform="translate(-931.92 -474.08)"/><path class="cls-8" d="M981.38,533.82c0,2.74,1.78,5,4,5s4-2.22,4-5-1.78-5-4-5S981.38,531.08,981.38,533.82Z" transform="translate(-931.92 -474.08)"/><polygon class="cls-9" points="37.57 1.81 79.89 93.57 82.67 3.94 37.57 1.81"/><polygon class="cls-10" points="71.58 5.7 69.16 9.43 43.91 8.91 41.13 4.91 71.58 5.7"/></g></g></svg>