<svg xmlns="http://www.w3.org/2000/svg" xmlns:xlink="http://www.w3.org/1999/xlink" viewBox="0 0 114.27 237.28"><defs><style>.cls-1{mask:url(#mask);}.cls-14,.cls-17,.cls-2,.cls-4,.cls-6{mix-blend-mode:multiply;}.cls-2{fill:url(#Áåçûìÿííûé_ãðàäèåíò_10);}.cls-3{mask:url(#mask-2);}.cls-4{fill:url(#Áåçûìÿííûé_ãðàäèåíò_10-2);}.cls-5{mask:url(#mask-3);}.cls-6{fill:url(#Áåçûìÿííûé_ãðàäèåíò_10-3);}.cls-7{isolation:isolate;}.cls-8{fill:url(#Áåçûìÿííûé_ãðàäèåíò_43);}.cls-14,.cls-17,.cls-9{fill:#ad522f;}.cls-10{fill:#fff7cc;opacity:0.25;}.cls-10,.cls-32{mix-blend-mode:screen;}.cls-11{fill:url(#Áåçûìÿííûé_ãðàäèåíò_40);}.cls-12{mask:url(#mask-4);}.cls-13,.cls-19{mix-blend-mode:overlay;}.cls-13{fill:url(#Áåçûìÿííûé_ãðàäèåíò_127);}.cls-14{opacity:0.6;}.cls-15{fill:#600003;}.cls-16{fill:url(#Áåçûìÿííûé_ãðàäèåíò_53);}.cls-17{opacity:0.2;}.cls-18{mask:url(#mask-5);}.cls-19{opacity:0.4;fill:url(#Áåçûìÿííûé_ãðàäèåíò_127-2);}.cls-20{fill:url(#Áåçûìÿííûé_ãðàäèåíò_4);}.cls-21{fill:url(#Áåçûìÿííûé_ãðàäèåíò_51);}.cls-22{fill:#ab1535;}.cls-23{fill:url(#Áåçûìÿííûé_ãðàäèåíò_53-2);}.cls-24{fill:url(#Áåçûìÿííûé_ãðàäèåíò_53-3);}.cls-25{fill:url(#Áåçûìÿííûé_ãðàäèåíò_53-4);}.cls-26{fill:url(#Áåçûìÿííûé_ãðàäèåíò_53-5);}.cls-27{fill:url(#Áåçûìÿííûé_ãðàäèåíò_53-6);}.cls-28{fill:url(#Áåçûìÿííûé_ãðàäèåíò_53-7);}.cls-29{fill:url(#Áåçûìÿííûé_ãðàäèåíò_53-8);}.cls-30{fill:url(#Áåçûìÿííûé_ãðàäèåíò_53-9);}.cls-31{mask:url(#mask-6);}.cls-32{opacity:0.3;fill:url(#Áåçûìÿííûé_ãðàäèåíò_127-3);}.cls-33{fill:url(#Áåçûìÿííûé_ãðàäèåíò_43-2);}.cls-34{filter:url(#luminosity-noclip-6);}.cls-35{filter:url(#luminosity-noclip-5);}.cls-36{filter:url(#luminosity-noclip-4);}.cls-37{filter:url(#luminosity-noclip-3);}.cls-38{filter:url(#luminosity-noclip-2);}.cls-39{filter:url(#luminosity-noclip);}</style><filter id="luminosity-noclip" x="22.19" y="-8338.8" width="62.88" height="32766" filterUnits="userSpaceOnUse" color-interpolation-filters="sRGB"><feFlood flood-color="#fff" result="bg"/><feBlend in="SourceGraphic" in2="bg"/></filter><mask id="mask" x="22.19" y="-8338.8" width="62.88" height="32766" maskUnits="userSpaceOnUse"><g class="cls-39"/></mask><linearGradient id="Áåçûìÿííûé_ãðàäèåíò_10" x1="44.13" y1="129.99" x2="70.34" y2="27.99" gradientUnits="userSpaceOnUse"><stop offset="0" stop-color="#fff"/><stop offset="0.11" stop-color="#fafafa"/><stop offset="0.24" stop-color="#ececec"/><stop offset="0.38" stop-color="#d4d4d4"/><stop offset="0.53" stop-color="#b2b2b2"/><stop offset="0.69" stop-color="#878787"/><stop offset="0.85" stop-color="#545454"/><stop offset="1" stop-color="#1a1a1a"/></linearGradient><filter id="luminosity-noclip-2" x="35.86" y="-8338.8" width="40.39" height="32766" filterUnits="userSpaceOnUse" color-interpolation-filters="sRGB"><feFlood flood-color="#fff" result="bg"/><feBlend in="SourceGraphic" in2="bg"/></filter><mask id="mask-2" x="35.86" y="-8338.8" width="40.39" height="32766" maskUnits="userSpaceOnUse"><g class="cls-38"/></mask><linearGradient id="Áåçûìÿííûé_ãðàäèåíò_10-2" x1="104.44" y1="63.87" x2="37.77" y2="173.22" xlink:href="#Áåçûìÿííûé_ãðàäèåíò_10"/><filter id="luminosity-noclip-3" x="54.97" y="-8338.8" width="20.12" height="32766" filterUnits="userSpaceOnUse" color-interpolation-filters="sRGB"><feFlood flood-color="#fff" result="bg"/><feBlend in="SourceGraphic" in2="bg"/></filter><mask id="mask-3" x="54.97" y="-8338.8" width="20.12" height="32766" maskUnits="userSpaceOnUse"><g class="cls-37"/></mask><linearGradient id="Áåçûìÿííûé_ãðàäèåíò_10-3" x1="54.97" y1="97.27" x2="75.09" y2="97.27" xlink:href="#Áåçûìÿííûé_ãðàäèåíò_10"/><linearGradient id="Áåçûìÿííûé_ãðàäèåíò_43" x1="103.23" y1="183.38" x2="54.84" y2="239.02" gradientUnits="userSpaceOnUse"><stop offset="0" stop-color="#600003"/><stop offset="0.21" stop-color="#6b0c09"/><stop offset="0.6" stop-color="#882b1a"/><stop offset="1" stop-color="#ad522f"/></linearGradient><linearGradient id="Áåçûìÿííûé_ãðàäèåíò_40" x1="53.62" y1="244.14" x2="53.62" y2="13.02" gradientUnits="userSpaceOnUse"><stop offset="0" stop-color="#7f0004"/><stop offset="0.08" stop-color="#8f150f"/><stop offset="0.22" stop-color="#a5301e"/><stop offset="0.37" stop-color="#b74629"/><stop offset="0.53" stop-color="#c35532"/><stop offset="0.72" stop-color="#ca5e37"/><stop offset="1" stop-color="#cc6138"/></linearGradient><filter id="luminosity-noclip-4" x="22.19" y="13.13" width="62.88" height="104.54" filterUnits="userSpaceOnUse" color-interpolation-filters="sRGB"><feFlood flood-color="#fff" result="bg"/><feBlend in="SourceGraphic" in2="bg"/></filter><mask id="mask-4" x="11.05" y="2.24" width="62.88" height="104.54" maskUnits="userSpaceOnUse"><g class="cls-36"><g transform="translate(-11.14 -10.89)"><g class="cls-1"><path class="cls-2" d="M38.6,40.92C44.2,30.8,49.68,21.38,55.1,13.13c10,16.14,19.78,35.23,30,58.29l-.48,28A331.73,331.73,0,0,0,38.6,40.92Zm6.55,50.7c9.83,6,19.64,12.12,29.27,18.45a83.56,83.56,0,0,1,9.86,7.61l.15-9.09A336.81,336.81,0,0,0,36.38,45c-4,7.29-8,14.89-12.15,22.66l-2,3.84.27,7.14C30.31,82.4,37.68,87.05,45.15,91.62Z"/></g></g></g></mask><linearGradient id="Áåçûìÿííûé_ãðàäèåíò_127" x1="44.13" y1="129.99" x2="70.34" y2="27.99" gradientUnits="userSpaceOnUse"><stop offset="0" stop-color="#fff7cc"/><stop offset="1" stop-color="#fff7cc"/></linearGradient><linearGradient id="Áåçûìÿííûé_ãðàäèåíò_53" x1="55.4" y1="31.91" x2="51.77" y2="210.93" gradientUnits="userSpaceOnUse"><stop offset="0" stop-color="#ff6f29"/><stop offset="1" stop-color="#cf0e51"/></linearGradient><filter id="luminosity-noclip-5" x="35.86" y="47.31" width="40.39" height="160.49" filterUnits="userSpaceOnUse" color-interpolation-filters="sRGB"><feFlood flood-color="#fff" result="bg"/><feBlend in="SourceGraphic" in2="bg"/></filter><mask id="mask-5" x="24.72" y="36.42" width="40.39" height="160.49" maskUnits="userSpaceOnUse"><g class="cls-35"><g transform="translate(-11.14 -10.89)"><g class="cls-3"><path class="cls-4" d="M40.77,207.8,35.86,84.4l.62-1.12c7.2-12.87,14.05-25.09,20.73-36,6.29,10.86,12.54,21.56,19,35.4L74,207.8Z"/></g></g></g></mask><linearGradient id="Áåçûìÿííûé_ãðàäèåíò_127-2" x1="104.44" y1="63.87" x2="37.77" y2="173.22" xlink:href="#Áåçûìÿííûé_ãðàäèåíò_127"/><linearGradient id="Áåçûìÿííûé_ãðàäèåíò_4" x1="43.42" y1="208.85" x2="89.96" y2="208.85" gradientUnits="userSpaceOnUse"><stop offset="0" stop-color="#600003"/><stop offset="0.04" stop-color="#6a0b09"/><stop offset="0.17" stop-color="#822517"/><stop offset="0.32" stop-color="#953921"/><stop offset="0.48" stop-color="#a34729"/><stop offset="0.67" stop-color="#ab4f2e"/><stop offset="1" stop-color="#ad522f"/></linearGradient><linearGradient id="Áåçûìÿííûé_ãðàäèåíò_51" x1="105.67" y1="211.66" x2="52.85" y2="212.87" xlink:href="#Áåçûìÿííûé_ãðàäèåíò_53"/><linearGradient id="Áåçûìÿííûé_ãðàäèåíò_53-2" x1="70.76" y1="82.48" x2="65.83" y2="93.26" xlink:href="#Áåçûìÿííûé_ãðàäèåíò_53"/><linearGradient id="Áåçûìÿííûé_ãðàäèåíò_53-3" x1="49.2" y1="82.48" x2="44.26" y2="93.26" xlink:href="#Áåçûìÿííûé_ãðàäèåíò_53"/><linearGradient id="Áåçûìÿííûé_ãðàäèåíò_53-4" x1="69.63" y1="114.7" x2="65.11" y2="124.58" xlink:href="#Áåçûìÿííûé_ãðàäèåíò_53"/><linearGradient id="Áåçûìÿííûé_ãðàäèåíò_53-5" x1="38.74" y1="103.81" x2="34.22" y2="113.68" xlink:href="#Áåçûìÿííûé_ãðàäèåíò_53"/><linearGradient id="Áåçûìÿííûé_ãðàäèåíò_53-6" x1="68.73" y1="144.84" x2="64.54" y2="154" xlink:href="#Áåçûìÿííûé_ãðàäèåíò_53"/><linearGradient id="Áåçûìÿííûé_ãðàäèåíò_53-7" x1="50.42" y1="144.84" x2="46.23" y2="154" xlink:href="#Áåçûìÿííûé_ãðàäèåíò_53"/><linearGradient id="Áåçûìÿííûé_ãðàäèåíò_53-8" x1="68.73" y1="175.24" x2="64.54" y2="184.4" xlink:href="#Áåçûìÿííûé_ãðàäèåíò_53"/><linearGradient id="Áåçûìÿííûé_ãðàäèåíò_53-9" x1="50.42" y1="175.24" x2="46.23" y2="184.4" xlink:href="#Áåçûìÿííûé_ãðàäèåíò_53"/><filter id="luminosity-noclip-6" x="54.97" y="50.69" width="20.12" height="93.17" filterUnits="userSpaceOnUse" color-interpolation-filters="sRGB"><feFlood flood-color="#fff" result="bg"/><feBlend in="SourceGraphic" in2="bg"/></filter><mask id="mask-6" x="43.83" y="39.79" width="20.12" height="93.17" maskUnits="userSpaceOnUse"><g class="cls-34"><g transform="translate(-11.14 -10.89)"><g class="cls-5"><path class="cls-6" d="M73.83,143.85c.58-20,1.26-60.25,1.26-60.25q-8-16.84-17.5-32.91c-.76,1.14-1.86,2.9-2.62,4A308.8,308.8,0,0,1,71.32,84.12S73.09,124.4,73.83,143.85Z"/></g></g></g></mask><linearGradient id="Áåçûìÿííûé_ãðàäèåíò_127-3" x1="54.97" y1="97.27" x2="75.09" y2="97.27" xlink:href="#Áåçûìÿííûé_ãðàäèåíò_127"/><linearGradient id="Áåçûìÿííûé_ãðàäèåíò_43-2" x1="41.92" y1="183.38" x2="-6.46" y2="239.02" xlink:href="#Áåçûìÿííûé_ãðàäèåíò_43"/></defs><g class="cls-7"><g id="Capa_2" data-name="Capa 2"><polygon class="cls-8" points="64.67 178.93 70.22 237.28 74.37 237.28 75.7 226.09 92.07 226.09 93.4 237.28 98.8 237.28 105.3 178.93 64.67 178.93"/><polygon class="cls-9" points="75.7 226.09 74.37 237.28 77.24 237.28 80.1 226.09 75.7 226.09"/><polygon class="cls-9" points="98.8 237.28 105.3 178.93 110.64 178.93 101.37 237.28 98.8 237.28"/><polygon class="cls-9" points="61.3 173.93 114.27 174.98 112.26 191.31 101.54 191.31 97.82 182.62 62.08 178.76 61.3 173.93"/><polygon class="cls-10" points="105.32 176.09 104.72 189.9 111.05 189.9 113.57 176.09 105.32 176.09"/><path class="cls-11" d="M83.26,248.17H27.66L21,71.17C33.09,48.38,44.13,27.34,55.14,10.89c11,17.63,21.32,38,31.14,60.28Z" transform="translate(-11.14 -10.89)"/><g class="cls-12"><path class="cls-13" d="M38.6,40.92C44.2,30.8,49.68,21.38,55.1,13.13c10,16.14,19.78,35.23,30,58.29l-.48,28A331.73,331.73,0,0,0,38.6,40.92Zm6.55,50.7c9.83,6,19.64,12.12,29.27,18.45a83.56,83.56,0,0,1,9.86,7.61l.15-9.09A336.81,336.81,0,0,0,36.38,45c-4,7.29-8,14.89-12.15,22.66l-2,3.84.27,7.14C30.31,82.4,37.68,87.05,45.15,91.62Z" transform="translate(-11.14 -10.89)"/></g><path class="cls-14" d="M55.56,39.22,49.78,50l-2.85,5.38C46,57.12,45.1,59,44,60.68c-2.09,3.48-4.09,7-6.13,10.52l-6,10.56.17-.69,2.63,64.55L36,177.89c.12,2.69.2,5.38.35,8.07.1,1.34,0,2.69,0,4l-.06,4c-.08,5.4-.13,10.79-.29,16.18-.59-5.36-1.08-10.73-1.6-16.1l-.39-4c-.12-1.35-.29-2.69-.3-4-.06-2.69-.2-5.38-.3-8.07l-1.32-32.28L29.45,81.17V80.8l.18-.32L41.77,59.36c1-1.78,2.17-3.44,3.29-5.14l3.41-5.06C50.78,45.81,53.13,42.48,55.56,39.22Z" transform="translate(-11.14 -10.89)"/><path class="cls-15" d="M52.38,15.06l2.76-4.17H49.85c-11,16.45-22,37.49-34.17,60.28l6.69,177h5.29L21,71.17C32.09,50.26,42.29,30.85,52.4,15.09Z" transform="translate(-11.14 -10.89)"/><path class="cls-16" d="M75.45,210.22,77.83,80.86C70.27,65.08,62.91,51.33,55.56,39.22,47.88,51.19,40,65,31.73,79.38l-1,1.74L36,210.22Z" transform="translate(-11.14 -10.89)"/><path class="cls-17" d="M63.59,177.45A166.94,166.94,0,0,1,42.85,142.6,130.32,130.32,0,0,1,33,106.07L37.16,209h37.1l.38-20.65A64.78,64.78,0,0,1,63.59,177.45Z" transform="translate(-11.14 -10.89)"/><g class="cls-18"><path class="cls-19" d="M40.77,207.8,35.86,84.4l.62-1.12c7.2-12.87,14.05-25.09,20.73-36,6.29,10.86,12.54,21.56,19,35.4L74,207.8Z" transform="translate(-11.14 -10.89)"/></g><polygon class="cls-20" points="88 213.99 43.42 213.99 43.42 203.71 89.96 203.71 88 213.99"/><path class="cls-10" d="M78.89,215.82c-.3,2.59-.45,5.22-.56,7.86h4.9c.49-2.65,1.06-5.28,1.79-7.86Z" transform="translate(-11.14 -10.89)"/><path class="cls-10" d="M87.87,215.82c-.71,2.59-1.27,5.22-1.77,7.86h12l1.51-7.86Z" transform="translate(-11.14 -10.89)"/><path class="cls-21" d="M101.1,214.61H53.62v-4.34a406.9,406.9,0,0,1,47.88-.05A5.32,5.32,0,0,1,101.1,214.61Z" transform="translate(-11.14 -10.89)"/><path class="cls-22" d="M70.14,88.71c0,2.23-1.08,4-2.4,4s-2.39-1.81-2.39-4,1.07-4,2.39-4S70.14,86.48,70.14,88.71Z" transform="translate(-11.14 -10.89)"/><path class="cls-22" d="M75.19,88.94a26.52,26.52,0,0,0-6.52-1,51,51,0,0,0-1-6.87c-.42-1.9-.77-3.05-.77-3.05s.24,4.39.55,9.92a27,27,0,0,0-6.51,1s2.94.22,6.58.25l.63,10.17s.22-1.19.41-3.13a50.8,50.8,0,0,0,.17-7C72.33,89.16,75.19,88.94,75.19,88.94Z" transform="translate(-11.14 -10.89)"/><path class="cls-23" d="M69.9,88.36c0,1.7-.82,3.08-1.83,3.08s-1.82-1.38-1.82-3.08.81-3.08,1.82-3.08S69.9,86.66,69.9,88.36Z" transform="translate(-11.14 -10.89)"/><path class="cls-22" d="M48.57,88.71c0,2.23-1.07,4-2.39,4s-2.39-1.81-2.39-4,1.07-4,2.39-4S48.57,86.48,48.57,88.71Z" transform="translate(-11.14 -10.89)"/><path class="cls-22" d="M53.62,88.94a26.41,26.41,0,0,0-6.52-1,51,51,0,0,0-1-6.87c-.41-1.9-.77-3.05-.77-3.05s.25,4.39.56,9.92a27,27,0,0,0-6.51,1s2.93.22,6.58.25c.35,5.64.63,10.17.63,10.17s.21-1.19.4-3.13a49.27,49.27,0,0,0,.17-7C50.76,89.16,53.62,88.94,53.62,88.94Z" transform="translate(-11.14 -10.89)"/><path class="cls-24" d="M48.33,88.36c0,1.7-.81,3.08-1.82,3.08s-1.83-1.38-1.83-3.08.82-3.08,1.83-3.08S48.33,86.66,48.33,88.36Z" transform="translate(-11.14 -10.89)"/><ellipse class="cls-22" cx="55.73" cy="109.52" rx="2.19" ry="3.7"/><path class="cls-22" d="M73.68,120.62a24,24,0,0,0-6-.87,45.82,45.82,0,0,0-.91-6.29c-.38-1.74-.7-2.8-.7-2.8s.22,4,.51,9.09a24.51,24.51,0,0,0-6,.87s2.68.2,6,.23c.32,5.17.58,9.31.58,9.31s.2-1.09.37-2.86a47.28,47.28,0,0,0,.16-6.45C71.06,120.82,73.68,120.62,73.68,120.62Z" transform="translate(-11.14 -10.89)"/><path class="cls-25" d="M68.84,120.09c0,1.55-.75,2.82-1.68,2.82s-1.67-1.27-1.67-2.82.75-2.82,1.67-2.82S68.84,118.53,68.84,120.09Z" transform="translate(-11.14 -10.89)"/><ellipse class="cls-22" cx="35.97" cy="109.52" rx="2.19" ry="3.7"/><path class="cls-22" d="M53.93,120.62a24,24,0,0,0-6-.87,45.82,45.82,0,0,0-.91-6.29c-.38-1.74-.7-2.8-.7-2.8s.22,4,.51,9.09a24.51,24.51,0,0,0-6,.87s2.68.2,6,.23c.32,5.17.58,9.31.58,9.31s.2-1.09.37-2.86a47.28,47.28,0,0,0,.16-6.45C51.31,120.82,53.93,120.62,53.93,120.62Z" transform="translate(-11.14 -10.89)"/><ellipse class="cls-26" cx="36.28" cy="109.19" rx="1.67" ry="2.82"/><path class="cls-22" d="M68.2,150.13c0,1.89-.91,3.43-2,3.43s-2-1.54-2-3.43.91-3.42,2-3.42S68.2,148.24,68.2,150.13Z" transform="translate(-11.14 -10.89)"/><path class="cls-22" d="M72.48,150.33a22.37,22.37,0,0,0-5.53-.81,43.67,43.67,0,0,0-.84-5.83c-.35-1.62-.66-2.59-.66-2.59s.21,3.73.48,8.42a22.37,22.37,0,0,0-5.53.81s2.49.19,5.59.21c.29,4.79.53,8.63.53,8.63s.18-1,.34-2.65a42.28,42.28,0,0,0,.15-6C70.05,150.51,72.48,150.33,72.48,150.33Z" transform="translate(-11.14 -10.89)"/><path class="cls-27" d="M68,149.83c0,1.45-.69,2.62-1.55,2.62s-1.55-1.17-1.55-2.62.7-2.61,1.55-2.61S68,148.39,68,149.83Z" transform="translate(-11.14 -10.89)"/><path class="cls-22" d="M49.89,150.13c0,1.89-.91,3.43-2,3.43s-2-1.54-2-3.43.9-3.42,2-3.42S49.89,148.24,49.89,150.13Z" transform="translate(-11.14 -10.89)"/><path class="cls-22" d="M54.18,150.33a22.51,22.51,0,0,0-5.54-.81,42.09,42.09,0,0,0-.84-5.83c-.35-1.62-.65-2.59-.65-2.59s.21,3.73.47,8.42a22.34,22.34,0,0,0-5.52.81s2.48.19,5.58.21c.3,4.79.53,8.63.53,8.63s.19-1,.35-2.65a42.48,42.48,0,0,0,.14-6C51.75,150.51,54.18,150.33,54.18,150.33Z" transform="translate(-11.14 -10.89)"/><path class="cls-28" d="M49.69,149.83c0,1.45-.7,2.62-1.55,2.62s-1.55-1.17-1.55-2.62.69-2.61,1.55-2.61S49.69,148.39,49.69,149.83Z" transform="translate(-11.14 -10.89)"/><path class="cls-22" d="M68.2,180.54c0,1.89-.91,3.42-2,3.42s-2-1.53-2-3.42.91-3.43,2-3.43S68.2,178.64,68.2,180.54Z" transform="translate(-11.14 -10.89)"/><path class="cls-22" d="M72.48,180.73a22.37,22.37,0,0,0-5.53-.81,43.92,43.92,0,0,0-.84-5.83c-.35-1.61-.66-2.59-.66-2.59s.21,3.73.48,8.42a23,23,0,0,0-5.53.81s2.49.19,5.59.21c.29,4.79.53,8.63.53,8.63s.18-1,.34-2.65a42.28,42.28,0,0,0,.15-6C70.05,180.91,72.48,180.73,72.48,180.73Z" transform="translate(-11.14 -10.89)"/><path class="cls-29" d="M68,180.24c0,1.44-.69,2.61-1.55,2.61s-1.55-1.17-1.55-2.61.7-2.62,1.55-2.62S68,178.79,68,180.24Z" transform="translate(-11.14 -10.89)"/><path class="cls-22" d="M49.89,180.54c0,1.89-.91,3.42-2,3.42s-2-1.53-2-3.42.9-3.43,2-3.43S49.89,178.64,49.89,180.54Z" transform="translate(-11.14 -10.89)"/><path class="cls-22" d="M54.18,180.73a22.51,22.51,0,0,0-5.54-.81,42.32,42.32,0,0,0-.84-5.83c-.35-1.61-.65-2.59-.65-2.59s.21,3.73.47,8.42a22.92,22.92,0,0,0-5.52.81s2.48.19,5.58.21c.3,4.79.53,8.63.53,8.63s.19-1,.35-2.65a42.48,42.48,0,0,0,.14-6C51.75,180.91,54.18,180.73,54.18,180.73Z" transform="translate(-11.14 -10.89)"/><path class="cls-30" d="M49.69,180.24c0,1.44-.7,2.61-1.55,2.61s-1.55-1.17-1.55-2.61.69-2.62,1.55-2.62S49.69,178.79,49.69,180.24Z" transform="translate(-11.14 -10.89)"/><path class="cls-14" d="M55.14,42.34,32.76,81.26c.14,15,2,92.5,3.19,127.79l2.41-.08C37.21,173.73,34,96.09,33.17,81.36Z" transform="translate(-11.14 -10.89)"/><g class="cls-31"><path class="cls-32" d="M73.83,143.85c.58-20,1.26-60.25,1.26-60.25q-8-16.84-17.5-32.91c-.76,1.14-1.86,2.9-2.62,4A308.8,308.8,0,0,1,71.32,84.12S73.09,124.4,73.83,143.85Z" transform="translate(-11.14 -10.89)"/></g><polygon class="cls-14" points="88 213.99 80.1 226.09 75.7 226.09 74.37 237.28 15.93 237.28 16.68 213.99 88 213.99"/><polygon class="cls-33" points="3.37 178.93 8.92 237.28 13.07 237.28 14.4 226.09 30.77 226.09 32.1 237.28 37.5 237.28 44 178.93 3.37 178.93"/><polygon class="cls-9" points="14.4 226.09 13.07 237.28 15.93 237.28 18.8 226.09 14.4 226.09"/><polygon class="cls-9" points="37.5 237.28 44 178.93 49.34 178.93 40.07 237.28 37.5 237.28"/><polygon class="cls-9" points="0 173.93 52.97 174.98 50.95 191.31 40.24 191.31 36.52 182.62 0.78 178.76 0 173.93"/><polygon class="cls-10" points="44.02 176.09 43.42 189.9 49.74 189.9 52.26 176.09 44.02 176.09"/><polygon class="cls-14" points="73.2 174.16 49.34 198.65 90.37 199.33 103.92 191.31 104.72 174.79 73.2 174.16"/></g></g></svg>