<svg xmlns="http://www.w3.org/2000/svg" xmlns:xlink="http://www.w3.org/1999/xlink" viewBox="0 0 191.79 153.97"><defs><style>.cls-1{isolation:isolate;}.cls-2{fill:#8d7c95;}.cls-2,.cls-3,.cls-4,.cls-5,.cls-6,.cls-7,.cls-8{fill-rule:evenodd;}.cls-3{fill:url(#Áåçûìÿííûé_ãðàäèåíò_301);}.cls-4{fill:url(#Áåçûìÿííûé_ãðàäèåíò_307);}.cls-5{fill:#11132d;}.cls-6{fill:url(#Áåçûìÿííûé_ãðàäèåíò_301-2);}.cls-7,.cls-8{opacity:0.5;}.cls-7{mix-blend-mode:screen;fill:url(#Áåçûìÿííûé_ãðàäèåíò_208);}.cls-8{mix-blend-mode:multiply;fill:url(#Áåçûìÿííûé_ãðàäèåíò_319);}</style><linearGradient id="Áåçûìÿííûé_ãðàäèåíò_301" x1="539.58" y1="590.39" x2="539.58" y2="447.76" gradientTransform="matrix(-1, 0, 0, 1, 632.9, -447.76)" gradientUnits="userSpaceOnUse"><stop offset="0.01" stop-color="#281742"/><stop offset="1" stop-color="#322d45"/></linearGradient><linearGradient id="Áåçûìÿííûé_ãðàäèåíò_307" x1="540.19" y1="586.41" x2="540.19" y2="456.57" gradientTransform="matrix(-1, 0, 0, 1, 632.9, -447.76)" gradientUnits="userSpaceOnUse"><stop offset="0.01" stop-color="#3a2a51"/><stop offset="1" stop-color="#49455a"/></linearGradient><linearGradient id="Áåçûìÿííûé_ãðàäèåíò_301-2" x1="508.04" y1="598.05" x2="565.69" y2="598.05" xlink:href="#Áåçûìÿííûé_ãðàäèåíò_301"/><linearGradient id="Áåçûìÿííûé_ãðàäèåíò_208" x1="463.4" y1="506.05" x2="630.18" y2="506.05" gradientTransform="matrix(-1, 0, 0, 1, 632.9, -447.76)" gradientUnits="userSpaceOnUse"><stop offset="0"/><stop offset="1" stop-color="#3d2c35"/></linearGradient><linearGradient id="Áåçûìÿííûé_ãðàäèåíò_319" x1="522.38" y1="589.07" x2="522.38" y2="537.46" gradientTransform="matrix(-1, 0, 0, 1, 632.9, -447.76)" gradientUnits="userSpaceOnUse"><stop offset="0" stop-color="#540068"/><stop offset="1" stop-color="#90939a"/></linearGradient></defs><g class="cls-1"><g id="Capa_9" data-name="Capa 9"><polygon class="cls-2" points="186.64 0 191.78 4.43 190.66 141.01 8.16 142.63 0 142.63 186.64 0"/><polygon class="cls-3" points="185.86 140.94 186.64 0 2.72 5.08 0 142.63 185.86 140.94"/><polygon class="cls-4" points="179.93 8.81 7.94 12.54 5.45 138.66 179.97 132.4 179.93 8.81"/><polygon class="cls-5" points="112.29 141.01 121.74 152.57 95.81 151.91 89 141.31 112.29 141.01"/><polygon class="cls-6" points="124.87 152.72 123.09 146.61 67.21 146.61 67.21 153.97 124.87 152.72"/><polygon class="cls-7" points="169.5 0.47 3.11 116.11 2.72 5.08 169.5 0.47"/><polygon class="cls-8" points="186.14 89.7 153.56 89.7 152.1 109.86 146.58 109.86 146.58 120.18 115.23 120.18 115.23 104.94 44.4 104.94 34.9 141.31 185.86 140.94 186.14 89.7"/></g></g></svg>